<svg xmlns="http://www.w3.org/2000/svg" width="1800" height="1200"><g transform="translate(-500,-100) scale(1.5)"><path class="link" marker-end="" d="M512,329.5C616,329.5 616,329.5 720,329.5" style="stroke-width: 0.339898; stroke-opacity: 0.288049; stroke: rgb(255, 182, 182); fill: none;"></path><path class="link" marker-end="" d="M512,329.5C616,329.5 616,374.5 720,374.5" style="stroke-width: 1.118515; stroke-opacity: 0.947894; stroke: rgb(255, 13, 13); fill: none;"></path><path class="link" marker-end="" d="M512,329.5C616,329.5 616,419.5 720,419.5" style="stroke-width: 0.315548; stroke-opacity: 0.267413; stroke: rgb(255, 187, 187); fill: none;"></path><path class="link" marker-end="" d="M512,329.5C616,329.5 616,464.5 720,464.5" style="stroke-width: 0.254997; stroke-opacity: 0.216099; stroke: rgb(255, 200, 200); fill: none;"></path><path class="link" marker-end="" d="M512,329.5C616,329.5 616,509.5 720,509.5" style="stroke-width: 0.091888; stroke-opacity: 0.077871; stroke: rgb(255, 235, 235); fill: none;"></path><path class="link" marker-end="" d="M512,329.5C616,329.5 616,554.5 720,554.5" style="stroke-width: 0.408893; stroke-opacity: 0.34652; stroke: rgb(167, 167, 255); fill: none;"></path><path class="link" marker-end="" d="M512,374.5C616,374.5 616,329.5 720,329.5" style="stroke-width: 0.751339; stroke-opacity: 0.636728; stroke: rgb(255, 93, 93); fill: none;"></path><path class="link" marker-end="" d="M512,374.5C616,374.5 616,374.5 720,374.5" style="stroke-width: 0.829554; stroke-opacity: 0.703012; stroke: rgb(76, 76, 255); fill: none;"></path><path class="link" marker-end="" d="M512,374.5C616,374.5 616,419.5 720,419.5" style="stroke-width: 0.459054; stroke-opacity: 0.389029; stroke: rgb(255, 156, 156); fill: none;"></path><path class="link" marker-end="" d="M512,374.5C616,374.5 616,464.5 720,464.5" style="stroke-width: 0.500735; stroke-opacity: 0.424352; stroke: rgb(255, 147, 147); fill: none;"></path><path class="link" marker-end="" d="M512,374.5C616,374.5 616,509.5 720,509.5" style="stroke-width: 0.517349; stroke-opacity: 0.438431; stroke: rgb(255, 143, 143); fill: none;"></path><path class="link" marker-end="" d="M512,374.5C616,374.5 616,554.5 720,554.5" style="stroke-width: 0.237717; stroke-opacity: 0.201455; stroke: rgb(255, 204, 204); fill: none;"></path><path class="link" marker-end="" d="M512,419.5C616,419.5 616,329.5 720,329.5" style="stroke-width: 0.139805; stroke-opacity: 0.118479; stroke: rgb(225, 225, 255); fill: none;"></path><path class="link" marker-end="" d="M512,419.5C616,419.5 616,374.5 720,374.5" style="stroke-width: 0.363951; stroke-opacity: 0.308433; stroke: rgb(255, 176, 176); fill: none;"></path><path class="link" marker-end="" d="M512,419.5C616,419.5 616,419.5 720,419.5" style="stroke-width: 0.968121; stroke-opacity: 0.820441; stroke: rgb(255, 46, 46); fill: none;"></path><path class="link" marker-end="" d="M512,419.5C616,419.5 616,464.5 720,464.5" style="stroke-width: 0.55009; stroke-opacity: 0.466178; stroke: rgb(255, 136, 136); fill: none;"></path><path class="link" marker-end="" d="M512,419.5C616,419.5 616,509.5 720,509.5" style="stroke-width: 1.109739; stroke-opacity: 0.940456; stroke: rgb(15, 15, 255); fill: none;"></path><path class="link" marker-end="" d="M512,419.5C616,419.5 616,554.5 720,554.5" style="stroke-width: 0.201167; stroke-opacity: 0.17048; stroke: rgb(255, 212, 212); fill: none;"></path><path class="link" marker-end="" d="M512,464.5C616,464.5 616,329.5 720,329.5" style="stroke-width: 1.038681; stroke-opacity: 0.880238; stroke: rgb(31, 31, 255); fill: none;"></path><path class="link" marker-end="" d="M512,464.5C616,464.5 616,374.5 720,374.5" style="stroke-width: 0.262381; stroke-opacity: 0.222357; stroke: rgb(198, 198, 255); fill: none;"></path><path class="link" marker-end="" d="M512,464.5C616,464.5 616,419.5 720,419.5" style="stroke-width: 0.439548; stroke-opacity: 0.372499; stroke: rgb(255, 160, 160); fill: none;"></path><path class="link" marker-end="" d="M512,464.5C616,464.5 616,464.5 720,464.5" style="stroke-width: 0.968029; stroke-opacity: 0.820364; stroke: rgb(255, 46, 46); fill: none;"></path><path class="link" marker-end="" d="M512,464.5C616,464.5 616,509.5 720,509.5" style="stroke-width: 0.581728; stroke-opacity: 0.49299; stroke: rgb(129, 129, 255); fill: none;"></path><path class="link" marker-end="" d="M512,464.5C616,464.5 616,554.5 720,554.5" style="stroke-width: 0.64504; stroke-opacity: 0.546644; stroke: rgb(116, 116, 255); fill: none;"></path><path class="link" marker-end="" d="M512,509.5C616,509.5 616,329.5 720,329.5" style="stroke-width: 0.865943; stroke-opacity: 0.73385; stroke: rgb(255, 68, 68); fill: none;"></path><path class="link" marker-end="" d="M512,509.5C616,509.5 616,374.5 720,374.5" style="stroke-width: 0.821848; stroke-opacity: 0.696481; stroke: rgb(255, 77, 77); fill: none;"></path><path class="link" marker-end="" d="M512,509.5C616,509.5 616,419.5 720,419.5" style="stroke-width: 0.782668; stroke-opacity: 0.663278; stroke: rgb(86, 86, 255); fill: none;"></path><path class="link" marker-end="" d="M512,509.5C616,509.5 616,464.5 720,464.5" style="stroke-width: 0.029776; stroke-opacity: 0.025234; stroke: rgb(255, 249, 249); fill: none;"></path><path class="link" marker-end="" d="M512,509.5C616,509.5 616,509.5 720,509.5" style="stroke-width: 0.132884; stroke-opacity: 0.112614; stroke: rgb(226, 226, 255); fill: none;"></path><path class="link" marker-end="" d="M512,509.5C616,509.5 616,554.5 720,554.5" style="stroke-width: 0.236417; stroke-opacity: 0.200353; stroke: rgb(204, 204, 255); fill: none;"></path><path class="link" marker-end="" d="M720,284.5C824,284.5 824,374.5 928,374.5" style="stroke-width: 0.833694; stroke-opacity: 0.70652; stroke: rgb(255, 75, 75); fill: none;"></path><path class="link" marker-end="" d="M720,284.5C824,284.5 824,419.5 928,419.5" style="stroke-width: 0.386242; stroke-opacity: 0.327324; stroke: rgb(255, 172, 172); fill: none;"></path><path class="link" marker-end="" d="M720,284.5C824,284.5 824,464.5 928,464.5" style="stroke-width: 0.146181; stroke-opacity: 0.123882; stroke: rgb(223, 223, 255); fill: none;"></path><path class="link" marker-end="" d="M720,284.5C824,284.5 824,509.5 928,509.5" style="stroke-width: 0.962935; stroke-opacity: 0.816047; stroke: rgb(255, 47, 47); fill: none;"></path><path class="link" marker-end="" d="M720,329.5C824,329.5 824,374.5 928,374.5" style="stroke-width: 0.734442; stroke-opacity: 0.622409; stroke: rgb(255, 96, 96); fill: none;"></path><path class="link" marker-end="" d="M720,329.5C824,329.5 824,419.5 928,419.5" style="stroke-width: 0.44428; stroke-opacity: 0.376508; stroke: rgb(159, 159, 255); fill: none;"></path><path class="link" marker-end="" d="M720,329.5C824,329.5 824,464.5 928,464.5" style="stroke-width: 0.879546; stroke-opacity: 0.745378; stroke: rgb(255, 65, 65); fill: none;"></path><path class="link" marker-end="" d="M720,329.5C824,329.5 824,509.5 928,509.5" style="stroke-width: 0.190503; stroke-opacity: 0.161443; stroke: rgb(214, 214, 255); fill: none;"></path><path class="link" marker-end="" d="M720,374.5C824,374.5 824,374.5 928,374.5" style="stroke-width: 0.066053; stroke-opacity: 0.055977; stroke: rgb(241, 241, 255); fill: none;"></path><path class="link" marker-end="" d="M720,374.5C824,374.5 824,419.5 928,419.5" style="stroke-width: 0.085684; stroke-opacity: 0.072614; stroke: rgb(236, 236, 255); fill: none;"></path><path class="link" marker-end="" d="M720,374.5C824,374.5 824,464.5 928,464.5" style="stroke-width: 0.536723; stroke-opacity: 0.45485; stroke: rgb(255, 139, 139); fill: none;"></path><path class="link" marker-end="" d="M720,374.5C824,374.5 824,509.5 928,509.5" style="stroke-width: 0.827082; stroke-opacity: 0.700917; stroke: rgb(76, 76, 255); fill: none;"></path><path class="link" marker-end="" d="M720,419.5C824,419.5 824,374.5 928,374.5" style="stroke-width: 1.161185; stroke-opacity: 0.984055; stroke: rgb(4, 4, 255); fill: none;"></path><path class="link" marker-end="" d="M720,419.5C824,419.5 824,419.5 928,419.5" style="stroke-width: 0.881021; stroke-opacity: 0.746628; stroke: rgb(65, 65, 255); fill: none;"></path><path class="link" marker-end="" d="M720,419.5C824,419.5 824,464.5 928,464.5" style="stroke-width: 0.352886; stroke-opacity: 0.299056; stroke: rgb(179, 179, 255); fill: none;"></path><path class="link" marker-end="" d="M720,419.5C824,419.5 824,509.5 928,509.5" style="stroke-width: 0.903567; stroke-opacity: 0.765734; stroke: rgb(255, 60, 60); fill: none;"></path><path class="link" marker-end="" d="M720,464.5C824,464.5 824,374.5 928,374.5" style="stroke-width: 0.34389; stroke-opacity: 0.291432; stroke: rgb(255, 181, 181); fill: none;"></path><path class="link" marker-end="" d="M720,464.5C824,464.5 824,419.5 928,419.5" style="stroke-width: 0.223228; stroke-opacity: 0.189176; stroke: rgb(207, 207, 255); fill: none;"></path><path class="link" marker-end="" d="M720,464.5C824,464.5 824,464.5 928,464.5" style="stroke-width: 0.519945; stroke-opacity: 0.440631; stroke: rgb(255, 143, 143); fill: none;"></path><path class="link" marker-end="" d="M720,464.5C824,464.5 824,509.5 928,509.5" style="stroke-width: 0.762606; stroke-opacity: 0.646276; stroke: rgb(255, 90, 90); fill: none;"></path><path class="link" marker-end="" d="M720,509.5C824,509.5 824,374.5 928,374.5" style="stroke-width: 0.98592; stroke-opacity: 0.835526; stroke: rgb(255, 42, 42); fill: none;"></path><path class="link" marker-end="" d="M720,509.5C824,509.5 824,419.5 928,419.5" style="stroke-width: 0.104998; stroke-opacity: 0.088981; stroke: rgb(232, 232, 255); fill: none;"></path><path class="link" marker-end="" d="M720,509.5C824,509.5 824,464.5 928,464.5" style="stroke-width: 0.589908; stroke-opacity: 0.499922; stroke: rgb(128, 128, 255); fill: none;"></path><path class="link" marker-end="" d="M720,509.5C824,509.5 824,509.5 928,509.5" style="stroke-width: 0.887667; stroke-opacity: 0.75226; stroke: rgb(255, 63, 63); fill: none;"></path><path class="link" marker-end="" d="M720,554.5C824,554.5 824,374.5 928,374.5" style="stroke-width: 0.63416; stroke-opacity: 0.537424; stroke: rgb(255, 118, 118); fill: none;"></path><path class="link" marker-end="" d="M720,554.5C824,554.5 824,419.5 928,419.5" style="stroke-width: 0.980691; stroke-opacity: 0.831094; stroke: rgb(43, 43, 255); fill: none;"></path><path class="link" marker-end="" d="M720,554.5C824,554.5 824,464.5 928,464.5" style="stroke-width: 0.633415; stroke-opacity: 0.536793; stroke: rgb(118, 118, 255); fill: none;"></path><path class="link" marker-end="" d="M720,554.5C824,554.5 824,509.5 928,509.5" style="stroke-width: 0.985994; stroke-opacity: 0.835588; stroke: rgb(255, 42, 42); fill: none;"></path><path class="link" marker-end="" d="M928,329.5C1032,329.5 1032,397 1136,397" style="stroke-width: 0.536047; stroke-opacity: 0.454277; stroke: rgb(255, 139, 139); fill: none;"></path><path class="link" marker-end="" d="M928,374.5C1032,374.5 1032,397 1136,397" style="stroke-width: 0.767089; stroke-opacity: 0.650075; stroke: rgb(89, 89, 255); fill: none;"></path><path class="link" marker-end="" d="M928,419.5C1032,419.5 1032,397 1136,397" style="stroke-width: 0.056777; stroke-opacity: 0.048116; stroke: rgb(243, 243, 255); fill: none;"></path><path class="link" marker-end="" d="M928,464.5C1032,464.5 1032,397 1136,397" style="stroke-width: 0.521466; stroke-opacity: 0.44192; stroke: rgb(255, 142, 142); fill: none;"></path><path class="link" marker-end="" d="M928,509.5C1032,509.5 1032,397 1136,397" style="stroke-width: 0.525092; stroke-opacity: 0.444994; stroke: rgb(142, 142, 255); fill: none;"></path><path class="link" marker-end="" d="M928,329.5C1032,329.5 1032,442 1136,442" style="stroke-width: 0.488868; stroke-opacity: 0.414295; stroke: rgb(149, 149, 255); fill: none;"></path><path class="link" marker-end="" d="M928,374.5C1032,374.5 1032,442 1136,442" style="stroke-width: 0.101075; stroke-opacity: 0.085657; stroke: rgb(255, 233, 233); fill: none;"></path><path class="link" marker-end="" d="M928,419.5C1032,419.5 1032,442 1136,442" style="stroke-width: 0.985381; stroke-opacity: 0.835069; stroke: rgb(42, 42, 255); fill: none;"></path><path class="link" marker-end="" d="M928,464.5C1032,464.5 1032,442 1136,442" style="stroke-width: 0.84383; stroke-opacity: 0.71511; stroke: rgb(73, 73, 255); fill: none;"></path><path class="link" marker-end="" d="M928,509.5C1032,509.5 1032,442 1136,442" style="stroke-width: 0.489889; stroke-opacity: 0.41516; stroke: rgb(255, 149, 149); fill: none;"></path><path class="link" marker-end="" d="M512,329.5C616,329.5 616,284.5 720,284.5" style="stroke-width: 0.168952; stroke-opacity: 0.14318; stroke: rgb(218, 218, 255); fill: none;"></path><path class="link" marker-end="" d="M512,374.5C616,374.5 616,284.5 720,284.5" style="stroke-width: 0.693139; stroke-opacity: 0.587406; stroke: rgb(255, 105, 105); fill: none;"></path><path class="link" marker-end="" d="M512,419.5C616,419.5 616,284.5 720,284.5" style="stroke-width: 0.774213; stroke-opacity: 0.656113; stroke: rgb(88, 88, 255); fill: none;"></path><path class="link" marker-end="" d="M512,464.5C616,464.5 616,284.5 720,284.5" style="stroke-width: 0.363104; stroke-opacity: 0.307715; stroke: rgb(177, 177, 255); fill: none;"></path><path class="link" marker-end="" d="M512,509.5C616,509.5 616,284.5 720,284.5" style="stroke-width: 0.46615; stroke-opacity: 0.395042; stroke: rgb(154, 154, 255); fill: none;"></path><path class="link" marker-end="" d="M720,284.5C824,284.5 824,329.5 928,329.5" style="stroke-width: 0.515819; stroke-opacity: 0.437135; stroke: rgb(144, 144, 255); fill: none;"></path><path class="link" marker-end="" d="M720,329.5C824,329.5 824,329.5 928,329.5" style="stroke-width: 0.432405; stroke-opacity: 0.366445; stroke: rgb(255, 162, 162); fill: none;"></path><path class="link" marker-end="" d="M720,374.5C824,374.5 824,329.5 928,329.5" style="stroke-width: 0.791259; stroke-opacity: 0.670559; stroke: rgb(255, 84, 84); fill: none;"></path><path class="link" marker-end="" d="M720,419.5C824,419.5 824,329.5 928,329.5" style="stroke-width: 0.122337; stroke-opacity: 0.103676; stroke: rgb(255, 229, 229); fill: none;"></path><path class="link" marker-end="" d="M720,464.5C824,464.5 824,329.5 928,329.5" style="stroke-width: 0.231717; stroke-opacity: 0.19637; stroke: rgb(255, 205, 205); fill: none;"></path><path class="link" marker-end="" d="M720,509.5C824,509.5 824,329.5 928,329.5" style="stroke-width: 0.2923; stroke-opacity: 0.247712; stroke: rgb(255, 192, 192); fill: none;"></path><path class="link" marker-end="" d="M720,554.5C824,554.5 824,329.5 928,329.5" style="stroke-width: 1.026398; stroke-opacity: 0.869829; stroke: rgb(33, 33, 255); fill: none;"></path><circle r="12.5" class="node" id="0_0" cx="512" cy="329.5" style="fill: rgb(255, 255, 255); stroke: rgb(51, 51, 51);"></circle><circle r="12.5" class="node" id="0_1" cx="512" cy="374.5" style="fill: rgb(255, 255, 255); stroke: rgb(51, 51, 51);"></circle><circle r="12.5" class="node" id="0_2" cx="512" cy="419.5" style="fill: rgb(255, 255, 255); stroke: rgb(51, 51, 51);"></circle><circle r="12.5" class="node" id="0_3" cx="512" cy="464.5" style="fill: rgb(255, 255, 255); stroke: rgb(51, 51, 51);"></circle><circle r="12.5" class="node" id="0_4" cx="512" cy="509.5" style="fill: rgb(255, 255, 255); stroke: rgb(51, 51, 51);"></circle><circle r="12.5" class="node" id="1_0" cx="720" cy="284.5" style="fill: rgb(255, 255, 255); stroke: rgb(51, 51, 51);"></circle><circle r="12.5" class="node" id="1_1" cx="720" cy="329.5" style="fill: rgb(255, 255, 255); stroke: rgb(51, 51, 51);"></circle><circle r="12.5" class="node" id="1_2" cx="720" cy="374.5" style="fill: rgb(255, 255, 255); stroke: rgb(51, 51, 51);"></circle><circle r="12.5" class="node" id="1_3" cx="720" cy="419.5" style="fill: rgb(255, 255, 255); stroke: rgb(51, 51, 51);"></circle><circle r="12.5" class="node" id="1_4" cx="720" cy="464.5" style="fill: rgb(255, 255, 255); stroke: rgb(51, 51, 51);"></circle><circle r="12.5" class="node" id="1_5" cx="720" cy="509.5" style="fill: rgb(255, 255, 255); stroke: rgb(51, 51, 51);"></circle><circle r="12.5" class="node" id="1_6" cx="720" cy="554.5" style="fill: rgb(255, 255, 255); stroke: rgb(51, 51, 51);"></circle><circle r="12.5" class="node" id="2_0" cx="928" cy="329.5" style="fill: rgb(255, 255, 255); stroke: rgb(51, 51, 51);"></circle><circle r="12.5" class="node" id="2_1" cx="928" cy="374.5" style="fill: rgb(255, 255, 255); stroke: rgb(51, 51, 51);"></circle><circle r="12.5" class="node" id="2_2" cx="928" cy="419.5" style="fill: rgb(255, 255, 255); stroke: rgb(51, 51, 51);"></circle><circle r="12.5" class="node" id="2_3" cx="928" cy="464.5" style="fill: rgb(255, 255, 255); stroke: rgb(51, 51, 51);"></circle><circle r="12.5" class="node" id="2_4" cx="928" cy="509.5" style="fill: rgb(255, 255, 255); stroke: rgb(51, 51, 51);"></circle><circle r="12.5" class="node" id="3_0" cx="1136" cy="397" style="fill: rgb(255, 255, 255); stroke: rgb(51, 51, 51);"></circle><text class="text" dy=".35em" x="477" y="599.5" style="font-size: 12px;">Input Layer ∈ ℝ⁵</text><text class="text" dy=".35em" x="685" y="599.5" style="font-size: 12px;">Hidden Layer ∈ ℝ⁷</text><text class="text" dy=".35em" x="893" y="599.5" style="font-size: 12px;">Hidden Layer ∈ ℝ⁵</text><text class="text" dy=".35em" x="1101" y="599.5" style="font-size: 12px;">Output Layer ∈ ℝ²</text><circle r="12.5" class="node" id="3_1" cx="1136" cy="442" style="fill: rgb(255, 255, 255); stroke: rgb(51, 51, 51);"></circle></g><defs><marker id="arrow" viewBox="0 -5 10 10" markerWidth="7" markerHeight="7" orient="auto" refX="47"><path d="M0,-5L10,0L0,5" style="stroke: rgb(80, 80, 80); fill: rgb(80, 80, 80);"></path></marker></defs></svg>