<svg xmlns="http://www.w3.org/2000/svg" width="1512" height="864" style="cursor: move;"><g transform="translate(-19.50630764999596,-6.316809472148975) scale(1.0252672378885959)"><path class="link" marker-end="" d="M726,403, 775,383.5" style="stroke-width: 2; stroke-opacity: 1; stroke: rgb(0, 0, 0); fill: none;"></path><path class="link" marker-end="" d="M726,403, 775,422.5" style="stroke-width: 2; stroke-opacity: 1; stroke: rgb(0, 0, 0); fill: none;"></path><path class="link" marker-end="" d="M726,403, 775,461.5" style="stroke-width: 2; stroke-opacity: 1; stroke: rgb(0, 0, 0); fill: none;"></path><path class="link" marker-end="" d="M726,442, 775,383.5" style="stroke-width: 2; stroke-opacity: 1; stroke: rgb(0, 0, 0); fill: none;"></path><path class="link" marker-end="" d="M726,442, 775,422.5" style="stroke-width: 2; stroke-opacity: 1; stroke: rgb(0, 0, 0); fill: none;"></path><path class="link" marker-end="" d="M726,442, 775,461.5" style="stroke-width: 2; stroke-opacity: 1; stroke: rgb(0, 0, 0); fill: none;"></path><path class="link" marker-end="" d="M775,383.5, 824,403" style="stroke-width: 2; stroke-opacity: 1; stroke: rgb(0, 0, 0); fill: none;"></path><path class="link" marker-end="" d="M775,383.5, 824,442" style="stroke-width: 2; stroke-opacity: 1; stroke: rgb(0, 0, 0); fill: none;"></path><path class="link" marker-end="" d="M775,422.5, 824,403" style="stroke-width: 2; stroke-opacity: 1; stroke: rgb(0, 0, 0); fill: none;"></path><path class="link" marker-end="" d="M775,422.5, 824,442" style="stroke-width: 2; stroke-opacity: 1; stroke: rgb(0, 0, 0); fill: none;"></path><path class="link" marker-end="" d="M775,461.5, 824,403" style="stroke-width: 2; stroke-opacity: 1; stroke: rgb(0, 0, 0); fill: none;"></path><path class="link" marker-end="" d="M775,461.5, 824,442" style="stroke-width: 2; stroke-opacity: 1; stroke: rgb(0, 0, 0); fill: none;"></path><circle r="9.5" class="node" id="0_0" cx="726" cy="403" style="fill: rgb(255, 255, 255); stroke: rgb(0, 0, 0);"></circle><circle r="9.5" class="node" id="0_1" cx="726" cy="442" style="fill: rgb(255, 255, 255); stroke: rgb(0, 0, 0);"></circle><circle r="9.5" class="node" id="1_0" cx="775" cy="383.5" style="fill: rgb(255, 255, 255); stroke: rgb(0, 0, 0);"></circle><circle r="9.5" class="node" id="1_1" cx="775" cy="422.5" style="fill: rgb(255, 255, 255); stroke: rgb(0, 0, 0);"></circle><circle r="9.5" class="node" id="1_2" cx="775" cy="461.5" style="fill: rgb(255, 255, 255); stroke: rgb(0, 0, 0);"></circle><circle r="9.5" class="node" id="2_0" cx="824" cy="403" style="fill: rgb(255, 255, 255); stroke: rgb(0, 0, 0);"></circle><circle r="9.5" class="node" id="2_1" cx="824" cy="442" style="fill: rgb(255, 255, 255); stroke: rgb(0, 0, 0);"></circle><text class="text" dy=".35em" x="691" y="500.5" style="font-size: 12px;"></text><text class="text" dy=".35em" x="740" y="500.5" style="font-size: 12px;"></text><text class="text" dy=".35em" x="789" y="500.5" style="font-size: 12px;"></text></g><defs><marker id="arrow" viewBox="0 -5 10 10" markerWidth="7" markerHeight="7" orient="auto" refX="38.599999999999994"><path d="M0,-5L10,0L0,5" style="stroke: rgb(80, 80, 80); fill: none;"></path></marker></defs></svg>