<?xml version="1.0" encoding="UTF-8" standalone="no"?>
<svg
   xmlns:dc="http://purl.org/dc/elements/1.1/"
   xmlns:cc="http://creativecommons.org/ns#"
   xmlns:rdf="http://www.w3.org/1999/02/22-rdf-syntax-ns#"
   xmlns:svg="http://www.w3.org/2000/svg"
   xmlns="http://www.w3.org/2000/svg"
   viewBox="0 0 1113.9657 713.82788"
   height="713.82788"
   width="1113.9657"
   xml:space="preserve"
   id="svg2"
   version="1.1"><metadata
     id="metadata8"><rdf:RDF><cc:Work
         rdf:about=""><dc:format>image/svg+xml</dc:format><dc:type
           rdf:resource="http://purl.org/dc/dcmitype/StillImage" /></cc:Work></rdf:RDF></metadata><defs
     id="defs6"><clipPath
       id="clipPath14"
       clipPathUnits="userSpaceOnUse"><path
         id="path12"
         d="M 0,0 H 1920 V 1080 H 0 Z" /></clipPath><clipPath
       id="clipPath24"
       clipPathUnits="userSpaceOnUse"><path
         id="path22"
         d="M 0,0 H 1920 V 1080 H 0 Z" /></clipPath><clipPath
       id="clipPath34"
       clipPathUnits="userSpaceOnUse"><path
         id="path32"
         d="m 497.1784,464.0828 h 78.16934 v 93.04 H 497.1784 Z" /></clipPath><clipPath
       id="clipPath44"
       clipPathUnits="userSpaceOnUse"><path
         id="path42"
         d="m 497.1784,464.0828 h 78.16934 v 93.04 H 497.1784 Z" /></clipPath><clipPath
       id="clipPath54"
       clipPathUnits="userSpaceOnUse"><path
         id="path52"
         d="m 421.5489,730.7854 h 78.16934 v 91.46304 H 421.5489 Z" /></clipPath><clipPath
       id="clipPath64"
       clipPathUnits="userSpaceOnUse"><path
         id="path62"
         d="m 421.5489,730.7854 h 78.16934 v 91.46303 H 421.5489 Z" /></clipPath><clipPath
       id="clipPath74"
       clipPathUnits="userSpaceOnUse"><path
         id="path72"
         d="m 994.3085,681.4018 h 67.0031 v 81.39731 h -67.0031 z" /></clipPath><clipPath
       id="clipPath84"
       clipPathUnits="userSpaceOnUse"><path
         id="path82"
         d="m 994.3085,681.4018 h 67.0031 v 81.39731 h -67.0031 z" /></clipPath><clipPath
       id="clipPath94"
       clipPathUnits="userSpaceOnUse"><path
         id="path92"
         d="m 767.4694,369.2679 h 103.7894 v 78.58537 H 767.4694 Z" /></clipPath><clipPath
       id="clipPath106"
       clipPathUnits="userSpaceOnUse"><path
         id="path104"
         d="M 0,0 H 1920 V 1080 H 0 Z" /></clipPath><clipPath
       id="clipPath150"
       clipPathUnits="userSpaceOnUse"><path
         id="path148"
         d="M 741.9579,605.741 H 896.7578 V 732.2277 H 741.9579 Z" /></clipPath><clipPath
       id="clipPath250"
       clipPathUnits="userSpaceOnUse"><path
         id="path248"
         d="M 0,0 H 1920 V 1080 H 0 Z" /></clipPath><clipPath
       id="clipPath288"
       clipPathUnits="userSpaceOnUse"><path
         id="path286"
         d="m 595.4003,757.0061 h 81.39731 v 81.39731 H 595.4003 Z" /></clipPath><clipPath
       id="clipPath300"
       clipPathUnits="userSpaceOnUse"><path
         id="path298"
         d="M 0,0 H 1920 V 1080 H 0 Z" /></clipPath></defs><g
     clip-path="url(#clipPath14)"
     transform="matrix(1.3333333,0,0,-1.3333333,-522.0036,1146.2653)"
     id="g10"><g
       id="g16" /><g
       id="g18"><g
         clip-path="url(#clipPath24)"
         id="g20"><path
           id="path26"
           style="fill:#ffffff;fill-opacity:1;fill-rule:nonzero;stroke:none"
           d="M 0,1080 H 1920 V 0 H 0 Z" /></g></g><g
       id="g28"><g
         clip-path="url(#clipPath34)"
         id="g30"><path
           id="path36"
           style="fill:#000000;fill-opacity:0;fill-rule:nonzero;stroke:none"
           d="m 497.1784,463.992 h 78.74478 v 93.13086 H 497.1784 Z" /></g></g><g
       id="g38"><g
         clip-path="url(#clipPath44)"
         id="g40"><path
           id="path46"
           style="fill:#000000;fill-opacity:1;fill-rule:evenodd;stroke:none"
           d="m 506.4612,540.8893 c 13.3336,14.7116 28.7115,22.7148 40.2582,9.6235 3.0287,-0.1438 5.7317,-1.1509 8.0032,-3.2861 4.755,-4.4596 5.4743,-12.8111 3.3164,-19.4514 v -5.7772 c 1.4689,-0.9616 2.4078,-2.7712 2.8469,-4.8382 0.2802,-1.3326 0.3483,-2.794 0.2196,-4.1947 -0.1363,-1.4462 -0.4922,-2.8394 -1.0676,-3.9676 -0.8253,-1.6279 -2.0822,-2.7712 -3.7858,-3.021 -1.6658,-1.7718 -3.2937,-3.6647 -4.755,-5.497 -1.5976,-2.0065 -2.9681,-3.907 -3.9069,-5.4591 -0.7269,-1.2039 -0.4998,-1.9914 -0.2348,-2.8848 0.1288,-0.4468 0.2651,-0.9086 0.3635,-1.4235 2.9151,-0.636 5.5576,-1.1282 7.9275,-1.5749 15.0448,-2.8166 19.7089,-3.6874 19.7089,-23.2524 0,-0.9995 -0.8102,-1.8021 -1.8021,-1.8021 H 536.263 498.9804 c -0.9995,0 -1.802,0.8102 -1.802,1.8021 0,19.565 4.6641,20.4433 19.7089,23.26 2.385,0.4467 5.0427,0.9464 7.9805,1.5824 0.0984,0.3862 0.2271,0.7496 0.3558,1.1131 0.3029,0.8631 0.6057,1.7263 -0.2801,3.1801 -0.9389,1.5521 -2.3094,3.4526 -3.907,5.4591 -1.4537,1.8323 -3.0892,3.7252 -4.755,5.497 -1.7036,0.2498 -2.9605,1.4007 -3.7858,3.0211 -0.5754,1.1357 -0.9313,2.5289 -1.0676,3.9675 -0.1363,1.4007 -0.0605,2.8621 0.2196,4.1947 0.4316,2.0594 1.3629,3.8539 2.8167,4.8231 l -1.9535,1.1584 c -0.5225,5.7923 0.9994,15.8474 -6.0497,17.7479 z m 47.9737,-11.5543 c -0.3256,2.3851 -0.9464,4.384 -1.8323,6.0573 -1.1358,1.4159 -2.7864,2.6198 -4.9064,4.172 l -0.2423,0.1741 c -0.4467,0.3332 -0.901,0.6436 -1.3553,0.9313 -7.1325,-4.6262 -10.5852,-3.5435 -16.3396,-4.4899 -5.2168,-0.8556 -9.4494,-2.794 -11.6678,-6.3375 0,-0.0908 0,-0.1893 0,-0.2801 v -8.7074 c 0,-0.8556 -0.5982,-1.5749 -1.4008,-1.7566 -0.7269,-0.2196 -1.2493,-1.3099 -1.5295,-2.6728 -0.2044,-0.9919 -0.2574,-2.0822 -0.159,-3.1271 0.0985,-0.9994 0.3256,-1.9383 0.7042,-2.6727 0.3331,-0.6588 0.7647,-1.1055 1.2645,-1.1131 h 0.106 c 0.5224,0.008 0.9994,-0.2044 1.3326,-0.5603 v 0 c 1.908,-2.0065 3.7933,-4.1719 5.444,-6.2466 1.6581,-2.0822 3.1119,-4.1113 4.1568,-5.8377 1.7642,-2.9075 1.1811,-4.5657 0.6057,-6.2238 -0.1666,-0.4771 -0.3332,-0.9616 -0.3332,-1.4159 0,-0.9086 -0.6738,-1.6582 -1.5446,-1.7869 -3.4753,-0.7799 -6.504,-1.3478 -9.1843,-1.8475 -12.319,-2.2942 -16.4531,-3.0741 -16.7484,-17.9069 h 35.4578 35.4579 c -0.2953,14.8328 -4.4294,15.6127 -16.7408,17.922 -2.7107,0.5073 -5.7848,1.0828 -9.3207,1.8778 -0.8329,0.1893 -1.4083,0.9313 -1.4007,1.7566 h -0.008 c 0,0.7042 -0.1817,1.3175 -0.3483,1.8929 -0.4922,1.6885 -0.9313,3.1877 0.6133,5.7393 1.0449,1.7263 2.4986,3.7555 4.1568,5.8377 1.6506,2.0746 3.5359,4.2401 5.444,6.2466 0.3862,0.4013 0.9086,0.5906 1.4235,0.5527 h 0.008 c 0.4998,0.008 0.9313,0.4543 1.2645,1.1131 0.371,0.7344 0.6057,1.6733 0.7041,2.6727 0.0985,1.0449 0.0455,2.1352 -0.159,3.1271 -0.2877,1.3856 -0.8253,2.4911 -1.5673,2.6804 -0.8177,0.2044 -1.3629,0.9388 -1.3629,1.749 v 0 8.4802 h 0.008 z" /></g></g><g
       id="g48"><g
         clip-path="url(#clipPath54)"
         id="g50"><path
           id="path56"
           style="fill:#000000;fill-opacity:0;fill-rule:nonzero;stroke:none"
           d="m 421.5489,730.6961 h 78.89878 v 91.55235 H 421.5489 Z" /></g></g><g
       id="g58"><g
         clip-path="url(#clipPath64)"
         id="g60"><path
           id="path66"
           style="fill:#000000;fill-opacity:1;fill-rule:nonzero;stroke:none"
           d="m 425.5087,811.3515 h 15.2662 v 6.9372 0 h 0.007 c 0,1.0941 0.4466,2.0841 1.1612,2.7986 0.7071,0.7071 1.697,1.1537 2.7912,1.1537 v 0.008 0 h 29.4828 0.9081 l 0.655,-0.655 23.2901,-23.3794 0.6475,-1.5556 v -51.5075 0 h -0.007 c 0,-1.0942 -0.4392,-2.0841 -1.1537,-2.7987 h -0.007 c -0.7071,-0.7145 -1.697,-1.1537 -2.7912,-1.1537 v -0.008 0 h -15.2662 v -6.4384 0 h -0.007 c 0,-1.0942 -0.4392,-2.0841 -1.1537,-2.7987 h -0.007 c -0.7145,-0.7071 -1.697,-1.1537 -2.7912,-1.1537 v -0.007 0 h -51.0237 v 0 0.007 c -1.0941,0 -2.0841,0.4466 -2.7987,1.1612 -0.7071,0.7145 -1.1537,1.697 -1.1537,2.7912 h -0.007 v 0 72.6316 0 h 0.007 c 0,1.0941 0.4466,2.0841 1.1612,2.7986 0.7071,0.7071 1.6971,1.1537 2.7912,1.1537 v 0.0149 0 0 z m 19.68,0 h 9.8029 0.908 l 0.655,-0.655 23.2901,-23.3793 0.6475,-1.5557 V 745.605 h 14.8047 v 49.669 h -18.1244 v 0 0 c -1.3249,0 -2.5232,0.5508 -3.3941,1.444 -0.8709,0.8858 -1.4142,2.1139 -1.4142,3.4612 v 0 0 17.648 h -27.1755 v -6.4757 z m 27.2648,8.6863 h 1.764 l 23.2901,-23.3793 v -1.2951 h -20.3351 c -2.5977,0 -4.7265,2.1734 -4.7265,4.8232 v 19.8512 h 0.007 z m 3.6249,-35.6607 H 457.954 v 0 0 c -1.3249,0 -2.5233,0.5508 -3.3942,1.444 -0.8708,0.8857 -1.4142,2.1139 -1.4142,3.4611 v 0 0 17.648 h -12.3707 -14.8047 v -71.7234 h 50.1082 v 5.9844 2.2106 40.9753 z" /></g></g><g
       id="g68"><g
         clip-path="url(#clipPath74)"
         id="g70"><path
           id="path76"
           style="fill:#000000;fill-opacity:0;fill-rule:nonzero;stroke:none"
           d="m 994.3085,681.3223 h 67.5661 v 81.4768 h -67.5661 z" /></g></g><g
       id="g78"><g
         clip-path="url(#clipPath84)"
         id="g80"><path
           id="path86"
           style="fill:#000000;fill-opacity:1;fill-rule:nonzero;stroke:none"
           d="m 1006.252,744.7881 c 5.471,-1.8282 13.089,-2.9543 21.548,-2.9543 8.459,0 16.077,1.1327 21.548,2.9543 4.803,1.6031 7.777,3.5439 7.777,5.4451 0,1.9011 -2.967,3.842 -7.777,5.445 -5.471,1.8216 -13.089,2.9544 -21.548,2.9544 -8.459,0 -16.077,-1.1328 -21.548,-2.9544 -10.1881,-3.4048 -10.4729,-7.3925 0,-10.8901 z m 50.88,-38.6849 c -1.709,-1.1725 -3.889,-2.1992 -6.465,-3.0603 -5.896,-1.9674 -13.984,-3.1862 -22.867,-3.1862 -8.883,0 -16.971,1.2188 -22.866,3.1862 -2.544,0.8479 -4.71,1.868 -6.4125,3.0139 v -12.4864 c 0.3775,-1.7687 3.2595,-3.5572 7.7305,-5.0476 5.471,-1.8283 13.089,-2.9544 21.548,-2.9544 8.459,0 16.077,1.1327 21.548,2.9544 3.319,1.1062 5.757,2.378 6.956,3.6764 0.987,1.0731 0.828,1.7819 0.828,3.0736 v 10.8304 z m -62.8235,44.13 c 0,3.8883 4.0606,7.1871 10.6255,9.3797 5.895,1.9674 13.983,3.1862 22.866,3.1862 8.883,0 16.971,-1.2188 22.867,-3.1862 5.975,-1.9938 9.876,-4.9084 10.525,-8.353 0.08,-0.2186 0.12,-0.4571 0.12,-0.7022 V 693.1 c 0,-3.9811 -7.612,-7.5051 -10.645,-8.5186 -5.896,-1.9674 -13.984,-3.1862 -22.867,-3.1862 -8.883,0 -16.971,1.2188 -22.866,3.1862 -3.107,1.04 -10.5791,4.4448 -10.5791,8.5186 0,0.477 0,0.8744 0,1.3315 0,18.6072 -0.0464,37.2077 -0.0464,55.8017 z m 4.213,-38.2014 c 0.3775,-1.7686 3.2595,-3.5571 7.7305,-5.0476 5.471,-1.8282 13.089,-2.9543 21.548,-2.9543 8.459,0 16.077,1.1327 21.548,2.9543 4.803,1.6031 7.777,3.5439 7.777,5.4451 h 0.02 v 12.1287 c -1.709,-1.1724 -3.902,-2.1992 -6.478,-3.0603 -5.896,-1.9674 -13.984,-3.1862 -22.867,-3.1862 -8.883,0 -16.971,1.2188 -22.866,3.1862 -2.544,0.8479 -4.71,1.868 -6.4125,3.014 v -12.4799 z m 0,18.4548 c 0.3775,-1.7686 3.2595,-3.5571 7.7305,-5.0476 5.471,-1.8282 13.089,-2.9543 21.548,-2.9543 8.459,0 16.077,1.1327 21.548,2.9543 4.803,1.6031 7.777,3.544 7.777,5.4451 h 0.02 v 13.023 c -1.709,-1.1724 -3.902,-2.1992 -6.478,-3.0603 -5.896,-1.9674 -13.984,-3.1862 -22.867,-3.1862 -8.883,0 -16.971,1.2188 -22.866,3.1862 -2.544,0.8479 -4.71,1.868 -6.4125,3.014 v -13.3742 z" /></g></g><g
       id="g88"><g
         clip-path="url(#clipPath94)"
         id="g90"><path
           id="path96"
           style="fill:#000000;fill-opacity:0;fill-rule:nonzero;stroke:none"
           d="m 767.4694,368.457 h 103.8908 v 79.39622 H 767.4694 Z" /><path
           id="path98"
           style="fill:#000000;fill-opacity:1;fill-rule:nonzero;stroke:none"
           d="m 773.4579,410.7988 h 6.0054 v 1.3937 c 0,1.8582 0.3716,3.6319 1.0474,5.2537 0.701,1.6808 1.723,3.2011 2.9984,4.4681 1.267,1.267 2.7873,2.2974 4.4682,2.9985 1.6217,0.6757 3.3954,1.0473 5.2536,1.0473 h 23.8949 v 0.1183 8.5562 c -0.3885,0.1436 -0.7602,0.321 -1.1149,0.5237 -0.4983,0.2956 -0.9544,0.6503 -1.3599,1.0558 -0.625,0.625 -1.1318,1.3767 -1.4781,2.2129 -0.3294,0.8024 -0.5152,1.6893 -0.5152,2.6015 0,0.9207 0.1858,1.7991 0.5152,2.6015 0.3463,0.8362 0.8531,1.5879 1.4781,2.213 0.6251,0.625 1.3768,1.1318 2.213,1.4781 0.8024,0.3379 1.6893,0.5152 2.6015,0.5152 0.9122,0 1.7991,-0.1858 2.6015,-0.5152 0.8362,-0.3463 1.5879,-0.8531 2.2129,-1.4781 0.6251,-0.6251 1.1318,-1.3768 1.4782,-2.213 0.3294,-0.8024 0.5152,-1.6893 0.5152,-2.6015 0,-0.9206 -0.1858,-1.7991 -0.5152,-2.6015 -0.3464,-0.8362 -0.8531,-1.5879 -1.4782,-2.2129 l -0.0338,-0.0338 c -0.3969,-0.3885 -0.8446,-0.7348 -1.326,-1.022 -0.3548,-0.2112 -0.7264,-0.3886 -1.115,-0.5237 v -8.5562 -0.1183 H 845.7 c 1.8582,0 3.632,-0.3716 5.2537,-1.0473 1.6893,-0.7011 3.2012,-1.7231 4.4681,-2.9985 1.267,-1.267 2.2975,-2.7873 2.9985,-4.4681 0.6757,-1.6218 1.0474,-3.3955 1.0474,-5.2537 v -1.3937 h 5.7942 c 0.8024,0 1.5795,-0.1604 2.289,-0.4561 0.7348,-0.304 1.3936,-0.7517 1.9426,-1.3007 l 0.0338,-0.0338 c 0.5406,-0.549 0.9714,-1.1909 1.267,-1.9089 0.2956,-0.7095 0.4561,-1.4781 0.4561,-2.289 v -15.9806 c 0,-0.8024 -0.1605,-1.5794 -0.4561,-2.2889 -0.3041,-0.7264 -0.7517,-1.3937 -1.3008,-1.9427 v 0 c -1.0811,-1.0812 -2.5846,-1.7569 -4.2316,-1.7569 h -5.8027 c -0.0253,-1.7822 -0.397,-3.4968 -1.0473,-5.0594 -0.7011,-1.6892 -1.7231,-3.2012 -2.9985,-4.4681 -1.267,-1.267 -2.7873,-2.2974 -4.4682,-2.9985 -1.6217,-0.6757 -3.3954,-1.0473 -5.2536,-1.0473 h -52.4607 c -1.8582,0 -3.6319,0.3716 -5.2536,1.0473 -1.6893,0.7011 -3.2012,1.7231 -4.4682,2.9985 -1.2669,1.2669 -2.2974,2.7873 -2.9984,4.4681 -0.6504,1.5626 -1.0221,3.2772 -1.0474,5.0594 h -6.0054 c -0.8024,0 -1.5795,0.1605 -2.289,0.4561 -0.7348,0.3041 -1.3936,0.7518 -1.9426,1.3008 l -0.0338,0.0338 c -0.5406,0.549 -0.9714,1.1909 -1.267,1.9089 -0.2956,0.7095 -0.4561,1.4865 -0.4561,2.2889 v 15.9806 c 0,0.8024 0.1605,1.5795 0.4561,2.289 0.3041,0.7348 0.7517,1.3937 1.3008,1.9427 v 0 c 0.549,0.549 1.2078,0.9967 1.9426,1.3007 0.7095,0.2957 1.4781,0.4561 2.289,0.4561 z m 33.7096,-25.7024 c -0.1182,0.0929 -0.2196,0.1943 -0.3125,0.3125 -0.2787,0.3379 -0.4223,0.7264 -0.4308,1.1234 -0.008,0.397 0.1183,0.794 0.3801,1.1403 0.0929,0.1182 0.1943,0.228 0.321,0.3294 0.4392,0.3632 1.022,0.5574 1.5964,0.5659 0.5743,0.008 1.1487,-0.1605 1.6048,-0.5068 1.571,-1.2078 3.1251,-2.0863 4.6624,-2.6691 1.5203,-0.5743 3.0238,-0.8446 4.5104,-0.8277 1.495,0.0169 3.0069,0.3294 4.5526,0.9122 1.5626,0.5912 3.1336,1.4781 4.73,2.6184 0.473,0.3378 1.0558,0.4899 1.6301,0.4645 0.5744,-0.0253 1.1487,-0.228 1.5795,-0.6081 0.1098,-0.1014 0.2112,-0.2112 0.3041,-0.3379 0.2534,-0.3547 0.3716,-0.7601 0.3463,-1.1571 -0.0254,-0.397 -0.1858,-0.7855 -0.473,-1.1149 -0.1014,-0.1098 -0.2196,-0.2196 -0.3548,-0.3126 -2.0018,-1.4443 -4.012,-2.5423 -6.0476,-3.2941 -2.044,-0.7517 -4.1134,-1.1487 -6.2081,-1.174 -2.1031,-0.0253 -4.181,0.3294 -6.2503,1.0811 -2.0525,0.7433 -4.0965,1.8836 -6.1068,3.4293 l -0.0338,0.0253 z m -5.2621,25.8291 c 0.5068,0 1.0136,-0.0506 1.495,-0.152 0.4899,-0.1014 0.9714,-0.2449 1.4359,-0.4392 0.473,-0.1943 0.9207,-0.4308 1.3345,-0.7095 0.4055,-0.2703 0.7856,-0.5744 1.1234,-0.9122 l 0.0507,-0.0423 c 0.3547,-0.3547 0.6757,-0.7432 0.9544,-1.1656 l 0.0169,-0.0253 c 0.2703,-0.4054 0.5068,-0.8446 0.6926,-1.3092 0.1943,-0.4645 0.3379,-0.946 0.4392,-1.4359 0.093,-0.4899 0.1521,-0.9882 0.1521,-1.495 0,-0.5068 -0.0507,-1.0136 -0.1521,-1.495 -0.1013,-0.4899 -0.2449,-0.9714 -0.4392,-1.4443 -0.1942,-0.473 -0.4307,-0.9207 -0.7095,-1.3346 -0.2871,-0.4307 -0.6081,-0.8193 -0.9544,-1.1656 -0.7011,-0.701 -1.5542,-1.2754 -2.5086,-1.6639 -0.4645,-0.1943 -0.946,-0.3379 -1.4443,-0.4392 -0.4899,-0.093 -0.9883,-0.1436 -1.495,-0.1436 -0.5068,0 -1.0136,0.0507 -1.4951,0.1436 -0.4899,0.1013 -0.9713,0.2449 -1.4443,0.4392 -0.473,0.1942 -0.9207,0.4307 -1.3345,0.7095 -0.4308,0.2871 -0.8193,0.6081 -1.1656,0.9544 -0.3548,0.3548 -0.6757,0.7433 -0.9545,1.1656 l -0.0169,0.0254 c -0.2703,0.4054 -0.5068,0.8446 -0.6926,1.3091 -0.1942,0.4646 -0.3378,0.946 -0.4392,1.4359 -0.0929,0.4899 -0.1436,0.9883 -0.1436,1.495 0,0.5068 0.0507,1.0136 0.1436,1.4951 0.1014,0.4899 0.245,0.9713 0.4392,1.4359 0.1943,0.473 0.4308,0.9206 0.7095,1.3345 0.2872,0.4307 0.6082,0.8193 0.9545,1.1656 0.3547,0.3547 0.7433,0.6757 1.1656,0.9544 l 0.0253,0.0169 c 0.4054,0.2703 0.8447,0.5068 1.3092,0.6926 0.4646,0.1943 0.946,0.3379 1.4359,0.4393 0.4983,0.1098 1.0051,0.1604 1.5119,0.1604 z m 1.6555,-3.6995 c -0.2534,0.1014 -0.5237,0.1858 -0.8024,0.245 -0.2703,0.0506 -0.5575,0.0844 -0.8531,0.0844 -0.2956,0 -0.5828,-0.0253 -0.8531,-0.0844 -0.2872,-0.0592 -0.5574,-0.1352 -0.8024,-0.245 -0.2618,-0.1098 -0.5068,-0.2365 -0.7433,-0.397 -0.228,-0.152 -0.4476,-0.3378 -0.6588,-0.549 -0.2112,-0.2112 -0.3885,-0.4308 -0.549,-0.6588 -0.1605,-0.2365 -0.2872,-0.4815 -0.397,-0.7348 -0.1014,-0.2534 -0.1858,-0.5237 -0.2449,-0.8025 -0.0507,-0.2702 -0.0845,-0.5574 -0.0845,-0.853 0,-0.2957 0.0253,-0.5828 0.0845,-0.8531 0.0591,-0.2872 0.1351,-0.5575 0.2449,-0.8024 0.1098,-0.2619 0.2365,-0.5068 0.397,-0.7349 0.152,-0.228 0.3378,-0.4476 0.549,-0.6588 0.2112,-0.2111 0.4308,-0.3885 0.6588,-0.549 0.2281,-0.152 0.4815,-0.2872 0.7433,-0.397 l 0.0253,-0.0169 c 0.245,-0.1013 0.4984,-0.1774 0.7771,-0.228 0.2703,-0.0507 0.5575,-0.0845 0.8531,-0.0845 0.2956,0 0.5828,0.0253 0.8531,0.0845 0.2872,0.0591 0.549,0.1351 0.8024,0.2365 0.2618,0.1098 0.5068,0.2449 0.7433,0.3969 0.228,0.1521 0.4476,0.3379 0.6588,0.5491 0.2112,0.2111 0.3885,0.4307 0.549,0.6588 0.1605,0.2365 0.2872,0.4814 0.397,0.7348 0.1014,0.2534 0.1858,0.5237 0.2449,0.8024 0.0507,0.2703 0.0845,0.5575 0.0845,0.8531 0,0.2956 -0.0253,0.5828 -0.0845,0.8531 -0.0591,0.2872 -0.1351,0.5575 -0.2449,0.8024 -0.1098,0.2618 -0.2365,0.5068 -0.397,0.7433 -0.1605,0.2365 -0.3378,0.4561 -0.5406,0.6588 l -0.0422,0.0422 c -0.1943,0.1859 -0.397,0.3548 -0.6166,0.4984 -0.2365,0.1689 -0.4899,0.304 -0.7517,0.4054 z m 33.4647,3.6995 c 0.5067,0 1.0135,-0.0506 1.495,-0.152 0.4899,-0.1014 0.9713,-0.2449 1.4359,-0.4392 0.473,-0.1943 0.9206,-0.4308 1.3345,-0.7095 0.397,-0.2703 0.7686,-0.5659 1.1065,-0.9038 0.0169,-0.0169 0.0422,-0.0338 0.0591,-0.0507 0.3547,-0.3547 0.6757,-0.7432 0.9544,-1.1656 l 0.0169,-0.0253 c 0.2703,-0.4054 0.5068,-0.8446 0.6926,-1.3092 0.1943,-0.4645 0.3379,-0.946 0.4392,-1.4359 0.0929,-0.4899 0.1436,-0.9882 0.1436,-1.495 0,-0.5068 -0.0507,-1.0136 -0.1436,-1.495 -0.1013,-0.4899 -0.2449,-0.9714 -0.4392,-1.4443 -0.1942,-0.473 -0.4307,-0.9207 -0.7095,-1.3346 -0.2871,-0.4307 -0.6081,-0.8193 -0.9544,-1.1656 -0.3548,-0.3547 -0.7433,-0.6757 -1.1656,-0.9544 l -0.0253,-0.0169 c -0.4139,-0.2703 -0.8447,-0.5068 -1.3092,-0.6926 -0.4646,-0.1943 -0.946,-0.3379 -1.4444,-0.4392 -0.4899,-0.093 -0.9882,-0.1436 -1.495,-0.1436 -0.5068,0 -1.0136,0.0507 -1.495,0.1436 -0.4899,0.1013 -0.9713,0.2449 -1.4443,0.4392 -0.4815,0.2027 -0.9291,0.4392 -1.3346,0.7095 l -0.0422,0.0337 c -0.4054,0.2788 -0.7855,0.5829 -1.1234,0.9207 -0.3547,0.3548 -0.6757,0.7433 -0.9544,1.1656 l -0.0169,0.0254 c -0.2703,0.4054 -0.5068,0.8446 -0.6926,1.3091 -0.1943,0.4646 -0.3379,0.946 -0.4392,1.4359 -0.0929,0.4899 -0.1521,0.9883 -0.1521,1.495 0,0.5068 0.0507,1.0136 0.1521,1.4951 0.1013,0.4899 0.2449,0.9713 0.4392,1.4359 0.1943,0.473 0.4308,0.9206 0.7095,1.3345 0.2872,0.4307 0.6081,0.8193 0.9544,1.1656 0.3463,0.3463 0.7433,0.6673 1.1656,0.9544 0.4139,0.2788 0.8616,0.5153 1.3346,0.718 0.4645,0.1942 0.946,0.3378 1.4358,0.4392 0.5068,0.1014 1.0052,0.152 1.512,0.152 z m 1.6639,-3.6995 c -0.2534,0.1014 -0.5237,0.1858 -0.8024,0.245 -0.2703,0.0506 -0.5575,0.0844 -0.8531,0.0844 -0.2956,0 -0.5828,-0.0253 -0.8531,-0.0844 -0.2872,-0.0592 -0.5575,-0.1352 -0.8024,-0.245 -0.2618,-0.1098 -0.5068,-0.2365 -0.7433,-0.397 -0.228,-0.152 -0.4476,-0.3378 -0.6588,-0.549 -0.2111,-0.2112 -0.3885,-0.4308 -0.549,-0.6588 -0.1605,-0.2365 -0.2872,-0.4815 -0.397,-0.7348 -0.1013,-0.2534 -0.1858,-0.5237 -0.2449,-0.8025 -0.0507,-0.2702 -0.0845,-0.5574 -0.0845,-0.853 0,-0.2957 0.0253,-0.5828 0.0845,-0.8531 0.0591,-0.2872 0.1351,-0.5575 0.2449,-0.8024 0.1098,-0.2619 0.2365,-0.5068 0.397,-0.7349 0.152,-0.228 0.3379,-0.4476 0.549,-0.6588 0.2112,-0.2111 0.4308,-0.3885 0.6588,-0.549 0.2281,-0.152 0.4815,-0.2872 0.7433,-0.397 l 0.0253,-0.0169 c 0.245,-0.1013 0.4984,-0.1774 0.7771,-0.228 0.2703,-0.0507 0.5575,-0.0845 0.8531,-0.0845 0.2956,0 0.5828,0.0253 0.8531,0.0845 0.2872,0.0591 0.549,0.1351 0.8024,0.2365 0.2618,0.1098 0.5068,0.2449 0.7433,0.3969 0.2365,0.1605 0.4561,0.3379 0.6588,0.5406 v 0 c 0.2112,0.2112 0.3885,0.4308 0.549,0.6588 0.1605,0.2365 0.2872,0.4815 0.397,0.7349 0.1014,0.2534 0.1858,0.5236 0.2449,0.8024 0.0507,0.2703 0.0845,0.5574 0.0845,0.8531 0,0.2956 -0.0253,0.5828 -0.0845,0.8531 -0.0591,0.2871 -0.1351,0.5574 -0.2449,0.8024 -0.1098,0.2618 -0.2365,0.5067 -0.397,0.7432 -0.1605,0.2365 -0.3378,0.4561 -0.5405,0.6589 l -0.0423,0.0422 c -0.1943,0.1858 -0.397,0.3547 -0.6166,0.4983 -0.2449,0.1774 -0.4899,0.3125 -0.7517,0.4139 z m -55.8561,1.8836 v -26.0741 c 0,-1.4021 0.2787,-2.7366 0.7855,-3.9614 0.5322,-1.2669 1.3008,-2.4156 2.2637,-3.3785 0.9629,-0.9629 2.1116,-1.74 3.3785,-2.2637 1.2163,-0.5067 2.5593,-0.7855 3.9614,-0.7855 H 845.7 c 1.4021,0 2.7367,0.2788 3.9614,0.7855 1.267,0.5322 2.4157,1.3008 3.3785,2.2637 0.9629,0.9629 1.74,2.1116 2.2637,3.3785 0.5068,1.2163 0.7855,2.5593 0.7855,3.9614 v 29.157 c 0,1.4021 -0.2787,2.7451 -0.7855,3.9614 -0.5321,1.2669 -1.3008,2.4156 -2.2637,3.3785 -0.9628,0.9629 -2.1115,1.74 -3.3785,2.2637 -1.2163,0.5067 -2.5593,0.7855 -3.9614,0.7855 h -52.4691 c -1.4021,0 -2.7366,-0.2788 -3.9613,-0.7855 -1.267,-0.5322 -2.4157,-1.3008 -3.3786,-2.2637 -0.9629,-0.9629 -1.7399,-2.1116 -2.2636,-3.3785 -0.5068,-1.2163 -0.7855,-2.5593 -0.7855,-3.9614 v -3.0829 h -0.009 z m -3.3701,-1.6809 h -6.0054 c -0.3547,0 -0.6926,-0.0676 -0.9967,-0.1942 -0.3209,-0.1352 -0.6081,-0.3295 -0.8531,-0.5744 l -0.0337,-0.0253 c -0.2281,-0.2365 -0.4139,-0.5153 -0.5406,-0.8193 -0.1267,-0.3041 -0.1943,-0.642 -0.1943,-0.9967 v -15.9806 c 0,-0.3548 0.0676,-0.6926 0.1943,-0.9967 0.1351,-0.321 0.3294,-0.6081 0.5743,-0.8531 0.473,-0.473 1.1234,-0.7686 1.8414,-0.7686 h 6.0054 v 21.2089 h 0.008 z m 85.807,0 h -5.7942 v -21.2089 h 5.7942 c 0.3548,0 0.6926,0.0676 0.9967,0.1943 0.321,0.1351 0.6082,0.3294 0.8531,0.5743 0.245,0.245 0.4392,0.5321 0.5744,0.8531 0.1267,0.3041 0.1942,0.6419 0.1942,0.9967 v 15.9721 c 0,0.3548 -0.0675,0.6926 -0.1942,0.9967 -0.1352,0.321 -0.3294,0.6082 -0.5744,0.8531 v 0 c -0.2449,0.2449 -0.5321,0.4392 -0.8531,0.5744 -0.3041,0.1182 -0.6419,0.1942 -0.9967,0.1942 z" /></g></g><g
       id="g100"><g
         clip-path="url(#clipPath106)"
         id="g102"><g
           transform="matrix(1,0,0,-1,499.7176,775.361)"
           id="g108"><path
             id="path110"
             style="fill:none;stroke:#000000;stroke-width:3;stroke-linecap:butt;stroke-linejoin:miter;stroke-miterlimit:4;stroke-dasharray:none;stroke-opacity:1"
             d="M 84.82862,4.368904 83.43712,4.92902 C 54.30477,15.61534 26.49345,18.30147 0,12.98866" /></g><path
           id="path112"
           style="fill:#000000;fill-opacity:1;fill-rule:nonzero;stroke:none"
           d="m 585.6192,764.3094 9.7807,11.0516 -14.7097,1.1936 z" /><g
           transform="matrix(1,0,0,-1,896.7704,681.4018)"
           id="g114"><path
             id="path116"
             style="fill:none;stroke:#000000;stroke-width:3;stroke-linecap:butt;stroke-linejoin:miter;stroke-miterlimit:4;stroke-dasharray:none;stroke-opacity:1"
             d="m 11.66471,29.92826 1.49547,0.11642 c 36.63492,1.88269 65.21107,-5.1647 85.7287,-21.142133 l 1.10776,-1.011846" /></g><path
           id="path118"
           style="fill:#000000;fill-opacity:1;fill-rule:nonzero;stroke:none"
           d="m 1000.111,667.6264 5.295,13.7754 -14.1976,-4.0292 z" /><path
           id="path120"
           style="fill:#000000;fill-opacity:1;fill-rule:nonzero;stroke:none"
           d="m 910.4428,657.9372 -13.6724,-5.5555 12.6479,-7.6046 z" /><g
           transform="matrix(1,0,0,-1,871.2588,681.4018)"
           id="g122"><path
             id="path124"
             style="fill:none;stroke:#000000;stroke-width:3;stroke-linecap:butt;stroke-linejoin:miter;stroke-miterlimit:4;stroke-dasharray:none;stroke-opacity:1"
             d="m 156.4929,11.68942 -0.0638,1.49865 C 149.9193,127.7092 101.7821,206.5901 12.01751,249.8309 l -1.36851,0.6228" /></g><path
           id="path126"
           style="fill:#000000;fill-opacity:1;fill-rule:nonzero;stroke:none"
           d="m 880.5392,437.5766 -9.2804,-11.475 14.7482,-0.5393 z" /><path
           id="path128"
           style="fill:#000000;fill-opacity:1;fill-rule:nonzero;stroke:none"
           d="m 1034.282,667.9332 -6.033,13.4686 -7.155,-12.9075 z" /><g
           transform="matrix(1,0,0,-1,542.5589,673.3487)"
           id="g130"><path
             id="path132"
             style="fill:none;stroke:#000000;stroke-width:3;stroke-linecap:butt;stroke-linejoin:miter;stroke-miterlimit:4;stroke-dasharray:none;stroke-opacity:1"
             d="m 187.7019,0.2623695 -1.4996,0.0336371 C 81.21888,4.125074 19.15145,42.76835 0,116.2258" /></g><path
           id="path134"
           style="fill:#000000;fill-opacity:1;fill-rule:nonzero;stroke:none"
           d="m 728.9092,666.4543 13.0487,6.8944 -13.3447,6.3023 z" /><g
           transform="matrix(1,0,0,-1,575.3477,468.269)"
           id="g136"><path
             id="path138"
             style="fill:none;stroke:#000000;stroke-width:3;stroke-linecap:round;stroke-linejoin:round;stroke-miterlimit:4;stroke-dasharray:0.003, 9;stroke-dashoffset:0.5;stroke-opacity:1"
             d="m 180.4295,67.78615 -1.4986,0.06528 C 115.2423,69.20435 58.91658,49.47962 9.953495,8.677243 L 8.819212,7.6884" /></g><path
           id="path140"
           style="fill:#000000;fill-opacity:1;fill-rule:nonzero;stroke:none"
           d="m 589.6346,464.5699 -14.2869,3.6991 5.6128,-13.649 z" /><path
           id="path142"
           style="fill:#000000;fill-opacity:1;fill-rule:nonzero;stroke:none"
           d="m 754.5658,393.8238 12.9003,7.1683 -13.4747,6.0192 z" /></g></g><g
       id="g144"><g
         clip-path="url(#clipPath150)"
         id="g146"><path
           id="path152"
           style="fill:#000000;fill-opacity:0;fill-rule:nonzero;stroke:none"
           d="m -140.7355,126.2623 h 1871.247 v 1070.85 h -1871.247 z" /><g
           transform="matrix(1.268868,0,0,-1.268868,-164.8765,1204.93)"
           id="g154"><path
             id="path156"
             style="fill:none;stroke:#000000;stroke-width:2;stroke-linecap:butt;stroke-linejoin:miter;stroke-miterlimit:4;stroke-dasharray:none;stroke-opacity:1"
             d="m 726,403 49,-19.5" /></g><g
           transform="matrix(1.268868,0,0,-1.268868,-164.8765,1204.93)"
           id="g158"><path
             id="path160"
             style="fill:none;stroke:#000000;stroke-width:2;stroke-linecap:butt;stroke-linejoin:miter;stroke-miterlimit:4;stroke-dasharray:none;stroke-opacity:1"
             d="m 726,403 49,19.5" /></g><g
           transform="matrix(1.268868,0,0,-1.268868,-164.8765,1204.93)"
           id="g162"><path
             id="path164"
             style="fill:none;stroke:#000000;stroke-width:2;stroke-linecap:butt;stroke-linejoin:miter;stroke-miterlimit:4;stroke-dasharray:none;stroke-opacity:1"
             d="m 726,403 49,58.5" /></g><g
           transform="matrix(1.268868,0,0,-1.268868,-164.8765,1204.93)"
           id="g166"><path
             id="path168"
             style="fill:none;stroke:#000000;stroke-width:2;stroke-linecap:butt;stroke-linejoin:miter;stroke-miterlimit:4;stroke-dasharray:none;stroke-opacity:1"
             d="m 726,442 49,-58.5" /></g><g
           transform="matrix(1.268868,0,0,-1.268868,-164.8765,1204.93)"
           id="g170"><path
             id="path172"
             style="fill:none;stroke:#000000;stroke-width:2;stroke-linecap:butt;stroke-linejoin:miter;stroke-miterlimit:4;stroke-dasharray:none;stroke-opacity:1"
             d="m 726,442 49,-19.5" /></g><g
           transform="matrix(1.268868,0,0,-1.268868,-164.8765,1204.93)"
           id="g174"><path
             id="path176"
             style="fill:none;stroke:#000000;stroke-width:2;stroke-linecap:butt;stroke-linejoin:miter;stroke-miterlimit:4;stroke-dasharray:none;stroke-opacity:1"
             d="m 726,442 49,19.5" /></g><g
           transform="matrix(1.268868,0,0,-1.268868,-164.8765,1204.93)"
           id="g178"><path
             id="path180"
             style="fill:none;stroke:#000000;stroke-width:2;stroke-linecap:butt;stroke-linejoin:miter;stroke-miterlimit:4;stroke-dasharray:none;stroke-opacity:1"
             d="M 775,383.5 824,403" /></g><g
           transform="matrix(1.268868,0,0,-1.268868,-164.8765,1204.93)"
           id="g182"><path
             id="path184"
             style="fill:none;stroke:#000000;stroke-width:2;stroke-linecap:butt;stroke-linejoin:miter;stroke-miterlimit:4;stroke-dasharray:none;stroke-opacity:1"
             d="M 775,383.5 824,442" /></g><g
           transform="matrix(1.268868,0,0,-1.268868,-164.8765,1204.93)"
           id="g186"><path
             id="path188"
             style="fill:none;stroke:#000000;stroke-width:2;stroke-linecap:butt;stroke-linejoin:miter;stroke-miterlimit:4;stroke-dasharray:none;stroke-opacity:1"
             d="M 775,422.5 824,403" /></g><g
           transform="matrix(1.268868,0,0,-1.268868,-164.8765,1204.93)"
           id="g190"><path
             id="path192"
             style="fill:none;stroke:#000000;stroke-width:2;stroke-linecap:butt;stroke-linejoin:miter;stroke-miterlimit:4;stroke-dasharray:none;stroke-opacity:1"
             d="M 775,422.5 824,442" /></g><g
           transform="matrix(1.268868,0,0,-1.268868,-164.8765,1204.93)"
           id="g194"><path
             id="path196"
             style="fill:none;stroke:#000000;stroke-width:2;stroke-linecap:butt;stroke-linejoin:miter;stroke-miterlimit:4;stroke-dasharray:none;stroke-opacity:1"
             d="M 775,461.5 824,403" /></g><g
           transform="matrix(1.268868,0,0,-1.268868,-164.8765,1204.93)"
           id="g198"><path
             id="path200"
             style="fill:none;stroke:#000000;stroke-width:2;stroke-linecap:butt;stroke-linejoin:miter;stroke-miterlimit:4;stroke-dasharray:none;stroke-opacity:1"
             d="M 775,461.5 824,442" /></g><path
           id="path202"
           style="fill:#ffffff;fill-opacity:1;fill-rule:nonzero;stroke:none"
           d="m 768.3758,693.5766 c 0,-6.6574 -5.3968,-12.0542 -12.0542,-12.0542 -6.6574,0 -12.0542,5.3968 -12.0542,12.0542 0,6.6573 5.3968,12.0541 12.0542,12.0541 6.6574,0 12.0542,-5.3968 12.0542,-12.0541 z" /><g
           transform="matrix(1.268868,0,0,-1.268868,-164.8765,1204.93)"
           id="g204"><path
             id="path206"
             style="fill:none;stroke:#000000;stroke-width:1;stroke-linecap:butt;stroke-linejoin:miter;stroke-miterlimit:4;stroke-dasharray:none;stroke-opacity:1"
             d="m 735.5,403 c 0,5.2467 -4.2533,9.5 -9.5,9.5 -5.2467,0 -9.5,-4.2533 -9.5,-9.5 0,-5.2467 4.2533,-9.5 9.5,-9.5 5.2467,0 9.5,4.2533 9.5,9.5 z" /></g><path
           id="path208"
           style="fill:#ffffff;fill-opacity:1;fill-rule:nonzero;stroke:none"
           d="m 768.3758,644.0907 c 0,-6.6574 -5.3968,-12.0542 -12.0542,-12.0542 -6.6574,0 -12.0542,5.3968 -12.0542,12.0542 0,6.6573 5.3968,12.0543 12.0542,12.0543 6.6574,0 12.0542,-5.397 12.0542,-12.0543 z" /><g
           transform="matrix(1.268868,0,0,-1.268868,-164.8765,1204.93)"
           id="g210"><path
             id="path212"
             style="fill:none;stroke:#000000;stroke-width:1;stroke-linecap:butt;stroke-linejoin:miter;stroke-miterlimit:4;stroke-dasharray:none;stroke-opacity:1"
             d="m 735.5,442 c 0,5.2467 -4.2533,9.5 -9.5,9.5 -5.2467,0 -9.5,-4.2533 -9.5,-9.5 0,-5.2467 4.2533,-9.5 9.5,-9.5 5.2467,0 9.5,4.2533 9.5,9.5 z" /></g><path
           id="path214"
           style="fill:#ffffff;fill-opacity:1;fill-rule:nonzero;stroke:none"
           d="m 830.5503,718.3196 c 0,-6.6576 -5.3968,-12.0544 -12.0541,-12.0544 -6.6574,0 -12.0544,5.3968 -12.0544,12.0544 0,6.6574 5.397,12.0542 12.0544,12.0542 6.6573,0 12.0541,-5.3968 12.0541,-12.0542 z" /><g
           transform="matrix(1.268868,0,0,-1.268868,-164.8765,1204.93)"
           id="g216"><path
             id="path218"
             style="fill:none;stroke:#000000;stroke-width:1;stroke-linecap:butt;stroke-linejoin:miter;stroke-miterlimit:4;stroke-dasharray:none;stroke-opacity:1"
             d="m 784.5,383.5 c 0,5.2467 -4.2533,9.5 -9.5,9.5 -5.2467,0 -9.5,-4.2533 -9.5,-9.5 0,-5.2467 4.2533,-9.5 9.5,-9.5 5.2467,0 9.5,4.2533 9.5,9.5 z" /></g><path
           id="path220"
           style="fill:#ffffff;fill-opacity:1;fill-rule:nonzero;stroke:none"
           d="m 830.5503,668.8337 c 0,-6.6574 -5.3968,-12.0544 -12.0541,-12.0544 -6.6574,0 -12.0544,5.397 -12.0544,12.0544 0,6.6574 5.397,12.0542 12.0544,12.0542 6.6573,0 12.0541,-5.3968 12.0541,-12.0542 z" /><g
           transform="matrix(1.268868,0,0,-1.268868,-164.8765,1204.93)"
           id="g222"><path
             id="path224"
             style="fill:none;stroke:#000000;stroke-width:1;stroke-linecap:butt;stroke-linejoin:miter;stroke-miterlimit:4;stroke-dasharray:none;stroke-opacity:1"
             d="m 784.5,422.5 c 0,5.2467 -4.2533,9.5 -9.5,9.5 -5.2467,0 -9.5,-4.2533 -9.5,-9.5 0,-5.2467 4.2533,-9.5 9.5,-9.5 5.2467,0 9.5,4.2533 9.5,9.5 z" /></g><path
           id="path226"
           style="fill:#ffffff;fill-opacity:1;fill-rule:nonzero;stroke:none"
           d="m 830.5503,619.3478 c 0,-6.6574 -5.3968,-12.0542 -12.0541,-12.0542 -6.6574,0 -12.0544,5.3968 -12.0544,12.0542 0,6.6574 5.397,12.0542 12.0544,12.0542 6.6573,0 12.0541,-5.3968 12.0541,-12.0542 z" /><g
           transform="matrix(1.268868,0,0,-1.268868,-164.8765,1204.93)"
           id="g228"><path
             id="path230"
             style="fill:none;stroke:#000000;stroke-width:1;stroke-linecap:butt;stroke-linejoin:miter;stroke-miterlimit:4;stroke-dasharray:none;stroke-opacity:1"
             d="m 784.5,461.5 c 0,5.2467 -4.2533,9.5 -9.5,9.5 -5.2467,0 -9.5,-4.2533 -9.5,-9.5 0,-5.2467 4.2533,-9.5 9.5,-9.5 5.2467,0 9.5,4.2533 9.5,9.5 z" /></g><path
           id="path232"
           style="fill:#ffffff;fill-opacity:1;fill-rule:nonzero;stroke:none"
           d="m 892.7249,693.5766 c 0,-6.6574 -5.3968,-12.0542 -12.0544,-12.0542 -6.6573,0 -12.0542,5.3968 -12.0542,12.0542 0,6.6573 5.3969,12.0541 12.0542,12.0541 6.6576,0 12.0544,-5.3968 12.0544,-12.0541 z" /><g
           transform="matrix(1.268868,0,0,-1.268868,-164.8765,1204.93)"
           id="g234"><path
             id="path236"
             style="fill:none;stroke:#000000;stroke-width:1;stroke-linecap:butt;stroke-linejoin:miter;stroke-miterlimit:4;stroke-dasharray:none;stroke-opacity:1"
             d="m 833.5,403 c 0,5.2467 -4.2533,9.5 -9.5,9.5 -5.2467,0 -9.5,-4.2533 -9.5,-9.5 0,-5.2467 4.2533,-9.5 9.5,-9.5 5.2467,0 9.5,4.2533 9.5,9.5 z" /></g><path
           id="path238"
           style="fill:#ffffff;fill-opacity:1;fill-rule:nonzero;stroke:none"
           d="m 892.7249,644.0907 c 0,-6.6574 -5.3968,-12.0542 -12.0544,-12.0542 -6.6573,0 -12.0542,5.3968 -12.0542,12.0542 0,6.6573 5.3969,12.0543 12.0542,12.0543 6.6576,0 12.0544,-5.397 12.0544,-12.0543 z" /><g
           transform="matrix(1.268868,0,0,-1.268868,-164.8765,1204.93)"
           id="g240"><path
             id="path242"
             style="fill:none;stroke:#000000;stroke-width:1;stroke-linecap:butt;stroke-linejoin:miter;stroke-miterlimit:4;stroke-dasharray:none;stroke-opacity:1"
             d="m 833.5,442 c 0,5.2467 -4.2533,9.5 -9.5,9.5 -5.2467,0 -9.5,-4.2533 -9.5,-9.5 0,-5.2467 4.2533,-9.5 9.5,-9.5 5.2467,0 9.5,4.2533 9.5,9.5 z" /></g></g></g><g
       id="g244"><g
         clip-path="url(#clipPath250)"
         id="g246"><g
           transform="translate(513.863,439.0478)"
           id="g252"><text
             id="text256"
             style="font-family:Poppins"
             transform="scale(1,-1)"><tspan
               id="tspan254"
               y="0"
               x="0">User</tspan></text>
</g><g
           transform="translate(402.4336,707.1007)"
           id="g258"><text
             id="text262"
             style="font-family:Poppins"
             transform="scale(1,-1)"><tspan
               id="tspan260"
               y="0"
               x="0">Documents</tspan></text>
</g><g
           transform="translate(718.3641,579.5283)"
           id="g264"><text
             id="text268"
             style="font-family:Poppins"
             transform="scale(1,-1)"><tspan
               id="tspan266"
               y="0"
               x="0">Embeddings Model</tspan></text>
</g><g
           transform="translate(796.9641,340.3329)"
           id="g270"><text
             id="text274"
             style="font-family:Poppins"
             transform="scale(1,-1)"><tspan
               id="tspan272"
               y="0"
               x="0">LLM</tspan></text>
</g><g
           transform="translate(1040.78,661.9778)"
           id="g276"><text
             id="text280"
             style="font-family:Poppins"
             transform="scale(1,-1)"><tspan
               id="tspan278"
               y="0"
               x="0">Vector Database</tspan></text>
</g></g></g><g
       id="g282"><g
         clip-path="url(#clipPath288)"
         id="g284"><path
           id="path290"
           style="fill:#000000;fill-opacity:0;fill-rule:nonzero;stroke:none"
           d="m 595.4003,756.9233 h 81.48011 v 81.48011 H 595.4003 Z" /><path
           id="path292"
           style="fill:#000000;fill-opacity:1;fill-rule:nonzero;stroke:none"
           d="m 660.3011,826.0128 c -0.2186,0.2186 -0.4439,0.3762 -0.6757,0.4743 -0.2173,0.092 -0.471,0.1371 -0.7618,0.1371 -0.2921,0 -0.5511,-0.0464 -0.771,-0.1398 -0.2279,-0.096 -0.4478,-0.251 -0.6584,-0.465 l -0.014,-0.0139 -4.1115,-4.099 c -0.6161,-0.6127 -1.5679,-0.6809 -2.2588,-0.2073 -0.4836,0.3126 -0.9989,0.614 -1.5395,0.9061 -0.5729,0.31 -1.1347,0.5882 -1.6831,0.84 -0.5717,0.261 -1.1553,0.5067 -1.7495,0.7372 -0.5385,0.2093 -1.1386,0.4226 -1.7931,0.6386 -0.7492,0.2471 -1.2255,0.9439 -1.2255,1.6931 v 0 6.3048 c 0,0.3021 -0.0477,0.569 -0.1424,0.8016 -0.0947,0.2298 -0.2391,0.4437 -0.4385,0.6425 -0.1941,0.194 -0.4047,0.3378 -0.6352,0.4312 -0.2319,0.0947 -0.4995,0.1418 -0.8022,0.1418 h -7.9125 c -0.2802,0 -0.5286,-0.0451 -0.7458,-0.1352 -0.2306,-0.0947 -0.4564,-0.2497 -0.6797,-0.4657 l -0.003,-0.002 c -0.1961,-0.196 -0.3405,-0.4047 -0.4332,-0.6266 -0.0954,-0.2272 -0.1431,-0.4895 -0.1431,-0.7876 v -5.7722 c 0,-0.8777 -0.6339,-1.607 -1.4686,-1.756 -0.6339,-0.1511 -1.2195,-0.3074 -1.7527,-0.471 -0.5842,-0.1789 -1.1718,-0.3823 -1.7607,-0.6121 -0.0291,-0.0113 -0.0583,-0.0219 -0.0874,-0.0312 -0.5147,-0.1999 -1.0572,-0.4318 -1.6269,-0.6948 -0.5789,-0.267 -1.1181,-0.5379 -1.6176,-0.8101 -0.7041,-0.3836 -1.5533,-0.2411 -2.0965,0.2934 l -7e-4,-6e-4 -4.5534,4.4878 c -0.0139,0.0139 -0.0278,0.0278 -0.0417,0.0417 v -7e-4 c -0.1941,0.2054 -0.3981,0.3558 -0.6121,0.4492 -0.2053,0.0894 -0.4484,0.1351 -0.7319,0.1351 -0.2815,0 -0.5333,-0.0477 -0.7545,-0.1424 -0.2424,-0.1033 -0.4743,-0.265 -0.6969,-0.4829 l -10e-4,-10e-4 -5.5238,-5.5365 -0.003,-0.004 0.003,-0.003 c -0.2265,-0.2266 -0.3868,-0.4518 -0.4816,-0.6757 -0.092,-0.2173 -0.1377,-0.471 -0.1377,-0.7611 0,-0.2928 0.0463,-0.5511 0.1397,-0.7724 0.0961,-0.2272 0.2504,-0.4471 0.465,-0.6577 l 0.0139,-0.0139 4.099,-4.1123 c 0.6127,-0.616 0.681,-1.5679 0.2074,-2.2588 -0.3127,-0.4842 -0.6141,-0.9989 -0.9056,-1.5394 -0.31,-0.5737 -0.5882,-1.1341 -0.8399,-1.6839 -0.2616,-0.571 -0.5074,-1.1552 -0.7386,-1.7494 -0.2093,-0.5379 -0.4219,-1.138 -0.6379,-1.7925 -0.247,-0.7498 -0.9446,-1.2254 -1.6931,-1.2254 v -7e-4 h -6.3028 c -0.3034,0 -0.5697,-0.047 -0.8022,-0.1411 -0.2292,-0.094 -0.4411,-0.2371 -0.6346,-0.4312 l -0.007,-0.008 v 0 c -0.1941,-0.1941 -0.3379,-0.4054 -0.4319,-0.6346 -0.0948,-0.2325 -0.1411,-0.4995 -0.1411,-0.8022 v -7.9131 c 0,-0.2796 0.0444,-0.5286 0.1344,-0.7452 0.0954,-0.2305 0.2504,-0.4564 0.4664,-0.6803 l 0.002,-10e-4 c 0.1954,-0.1961 0.4047,-0.3412 0.6259,-0.4333 0.2279,-0.0953 0.4902,-0.143 0.7883,-0.143 h 5.7716 c 0.8777,0 1.607,-0.634 1.756,-1.4693 0.151,-0.6332 0.3074,-1.2195 0.471,-1.7527 0.1795,-0.5842 0.3822,-1.1711 0.612,-1.76 0.216,-0.5611 0.4611,-1.144 0.734,-1.7481 0.2789,-0.618 0.5518,-1.1811 0.8167,-1.6905 0.369,-0.7061 0.216,-1.5473 -0.3219,-2.0819 l 10e-4,-0.001 -4.4884,-4.4753 -0.0285,-0.0278 h 6e-4 c -0.2053,-0.1947 -0.3557,-0.3987 -0.4484,-0.612 -0.0901,-0.2054 -0.1351,-0.4492 -0.1351,-0.7327 0,-0.2815 0.0477,-0.5325 0.1417,-0.7538 0.1033,-0.2424 0.265,-0.4749 0.4836,-0.6968 l 5.5039,-5.5676 c 0.2153,-0.1994 0.4399,-0.3451 0.675,-0.4372 0.2358,-0.0934 0.5034,-0.1391 0.8028,-0.1391 0.3021,0 0.5744,0.0471 0.8141,0.1418 0.2306,0.0907 0.4472,0.2298 0.6479,0.418 l 4.0797,4.1446 c 0.6154,0.6254 1.5792,0.7002 2.2774,0.218 0.4829,-0.3114 0.9963,-0.6114 1.5355,-0.9022 0.5736,-0.3107 1.134,-0.5889 1.6838,-0.84 0.571,-0.2623 1.1552,-0.508 1.7494,-0.7385 0.5379,-0.2087 1.1374,-0.422 1.7925,-0.6379 0.7498,-0.2471 1.2255,-0.9446 1.2255,-1.6932 h 6e-4 v -6.3047 c 0,-0.3021 0.047,-0.5691 0.1418,-0.8016 0.094,-0.2298 0.2371,-0.4411 0.4312,-0.6352 l 0.003,-0.004 0.003,0.004 c 0.3889,-0.3888 0.8658,-0.5803 1.4368,-0.5803 h 7.9118 c 0.2808,0 0.5292,0.0444 0.7465,0.1345 0.2305,0.0954 0.4564,0.2504 0.679,0.4663 l 0.003,0.002 c 0.1954,0.1961 0.3405,0.4047 0.4332,0.626 0.0961,0.2279 0.1438,0.4895 0.1438,0.7876 v 5.7729 c 0,0.877 0.6326,1.607 1.4685,1.7554 0.6326,0.151 1.2189,0.308 1.7528,0.4709 0.5836,0.1795 1.1711,0.3822 1.7593,0.6114 0.5617,0.2166 1.1453,0.4617 1.7508,0.7346 0.616,0.2789 1.1797,0.5512 1.6871,0.8161 0.7075,0.369 1.5487,0.2153 2.0833,-0.3219 l 10e-4,10e-4 4.4752,-4.4878 0.0272,-0.0285 v 7e-4 c 0.1967,-0.2067 0.4008,-0.3564 0.6134,-0.4491 0.208,-0.0894 0.459,-0.1352 0.7584,-0.1352 0.2935,0 0.5485,0.0477 0.7684,0.1425 0.2213,0.096 0.4273,0.2437 0.6148,0.4418 0.0205,0.0225 0.0423,0.0444 0.0662,0.0662 l 5.5437,5.4795 c 0.1981,0.2146 0.3445,0.4398 0.4359,0.675 0.0934,0.2358 0.1397,0.504 0.1397,0.8035 0,0.302 -0.0463,0.5743 -0.1411,0.814 -0.092,0.2306 -0.2305,0.4465 -0.4193,0.6472 l -4.144,4.0804 c -0.626,0.6154 -0.7002,1.5786 -0.2186,2.2774 0.312,0.4829 0.6121,0.9963 0.9029,1.5348 0.3106,0.573 0.5888,1.134 0.8399,1.6838 0.2617,0.571 0.5074,1.1553 0.7386,1.7495 0.208,0.5378 0.4219,1.138 0.6379,1.7931 0.2471,0.7498 0.9446,1.2255 1.6938,1.2255 v 6e-4 h 6.3034 c 0.3028,0 0.5703,0.047 0.8022,0.1418 0.2292,0.094 0.4412,0.2371 0.6353,0.4305 l 0.007,0.007 v 0 c 0.1941,0.1948 0.3391,0.4061 0.4319,0.6359 0.0947,0.2319 0.141,0.4988 0.141,0.8015 v 7.9132 c 0,0.2795 -0.0437,0.5286 -0.1345,0.7458 -0.0946,0.2299 -0.2496,0.4564 -0.4656,0.6803 l -0.003,0.002 c -0.1955,0.1961 -0.4048,0.3405 -0.626,0.4332 -0.2266,0.0954 -0.4889,0.1431 -0.7876,0.1431 h -5.7716 c -0.8889,0 -1.6249,0.6485 -1.7607,1.4984 -0.1397,0.5584 -0.2974,1.1248 -0.4762,1.6997 -0.1722,0.5518 -0.3736,1.1354 -0.6095,1.7521 -0.0119,0.0298 -0.0218,0.0603 -0.0311,0.0907 -0.2239,0.5863 -0.453,1.1374 -0.6882,1.6534 -0.255,0.5584 -0.5253,1.0983 -0.8115,1.6203 -0.3828,0.7041 -0.2404,1.5533 0.2935,2.0965 v 6e-4 l 4.4878,4.5534 c 0.0139,0.0139 0.0272,0.0279 0.0417,0.0418 v 0 c 0.2061,0.1941 0.3558,0.3981 0.4492,0.6114 0.0894,0.2053 0.1357,0.4484 0.1357,0.7319 0,0.2815 -0.0476,0.5333 -0.1424,0.7545 -0.1033,0.2425 -0.2649,0.4743 -0.4835,0.6969 l -0.001,0.001 -5.537,5.5238 -0.007,0.006 v 0 0 z m 0.7034,3.7498 c 0.6638,-0.2801 1.2666,-0.6902 1.8097,-1.2334 l 10e-4,-6e-4 5.5517,-5.5391 0.0139,-0.0139 c 0.5346,-0.5431 0.9433,-1.1413 1.2228,-1.7971 0.2888,-0.6763 0.4345,-1.3924 0.4345,-2.1482 0,-0.767 -0.149,-1.4838 -0.4425,-2.1535 -0.2861,-0.6571 -0.7041,-1.2413 -1.2446,-1.7573 l -3.5551,-3.6068 c 0.1046,-0.218 0.2093,-0.4386 0.3106,-0.6618 0.2849,-0.6213 0.5458,-1.244 0.783,-1.8673 0.0132,-0.0278 0.0245,-0.0563 0.0351,-0.0855 0.2365,-0.6206 0.463,-1.2804 0.679,-1.9746 0.0696,-0.2239 0.1371,-0.4491 0.202,-0.6763 h 4.4063 c 0.7658,0 1.4825,-0.1404 2.1542,-0.4213 0.6597,-0.2762 1.2559,-0.6836 1.7878,-1.2195 l 0.0378,-0.0378 c 0.524,-0.5418 0.9214,-1.1393 1.1916,-1.7951 0.2769,-0.667 0.4141,-1.3659 0.4141,-2.0978 v -7.9125 c 0,-0.7611 -0.1345,-1.4738 -0.4061,-2.1396 -0.2716,-0.6644 -0.6763,-1.2678 -1.2175,-1.8103 l -0.003,-0.002 -0.004,-0.005 -0.003,-0.003 c -0.5431,-0.5412 -1.1459,-0.9472 -1.8123,-1.2188 -0.6664,-0.2709 -1.3791,-0.4061 -2.1396,-0.4061 h -5.0403 c -0.0881,-0.2371 -0.1795,-0.4822 -0.2782,-0.7326 -0.2524,-0.6485 -0.5252,-1.297 -0.8213,-1.9448 -0.3067,-0.6697 -0.6188,-1.3023 -0.9367,-1.8925 -0.1046,-0.1935 -0.2119,-0.3862 -0.3219,-0.579 l 3.1464,-3.0974 c 0.0232,-0.0219 0.045,-0.0437 0.0689,-0.0676 0.516,-0.5458 0.9042,-1.1519 1.1659,-1.8143 0.2622,-0.665 0.3921,-1.3699 0.3921,-2.1104 0,-0.7379 -0.1292,-1.4368 -0.3895,-2.0992 -0.2603,-0.6604 -0.6445,-1.2639 -1.1553,-1.811 v 6e-4 c -0.0179,-0.0185 -0.0364,-0.0384 -0.0556,-0.0569 l -5.5841,-5.5199 c -0.5239,-0.5491 -1.1142,-0.9691 -1.7766,-1.2539 -0.669,-0.2888 -1.3923,-0.4352 -2.1746,-0.4352 -0.7658,0 -1.4878,0.1497 -2.1661,0.4418 -0.6717,0.2908 -1.2652,0.7115 -1.7825,1.2573 l -3.54,3.5492 c -0.2364,-0.114 -0.4683,-0.2219 -0.6935,-0.324 -0.6028,-0.2715 -1.2473,-0.5398 -1.9316,-0.8041 -0.6432,-0.2504 -1.3142,-0.4816 -2.0104,-0.6949 -0.2318,-0.0709 -0.4604,-0.1384 -0.6856,-0.2027 v -4.397 c 0,-0.7651 -0.1411,-1.4825 -0.4219,-2.1535 -0.2769,-0.6604 -0.683,-1.256 -1.2202,-1.7885 l -0.0378,-0.0384 c -0.5418,-0.5227 -1.14,-0.9195 -1.7944,-1.1911 -0.6677,-0.2762 -1.3666,-0.4133 -2.0985,-0.4133 h -7.9132 c -1.5559,0 -2.8702,0.5366 -3.9592,1.6256 l 0.003,0.003 c -0.5432,0.5438 -0.9506,1.1486 -1.2222,1.8156 -0.2716,0.6664 -0.4067,1.3785 -0.4067,2.1396 v 5.0403 c -0.2378,0.0881 -0.4822,0.1801 -0.7333,0.2782 -0.6478,0.2523 -1.2963,0.5253 -1.9442,0.822 -0.6697,0.3061 -1.3023,0.6187 -1.8931,0.9373 -0.1928,0.104 -0.3855,0.2113 -0.5783,0.3213 l -3.0974,-3.1464 c -0.0219,-0.0232 -0.0444,-0.0458 -0.0676,-0.0683 -0.5458,-0.5173 -1.1519,-0.9055 -1.8143,-1.1665 -0.6651,-0.2623 -1.3699,-0.3928 -2.1105,-0.3928 -0.7379,0 -1.4374,0.1292 -2.0991,0.3902 -0.6604,0.2603 -1.2632,0.6445 -1.8111,1.1546 l 7e-4,0.001 c -0.0192,0.0172 -0.0384,0.0357 -0.0563,0.055 l -5.5516,5.6158 c -0.5339,0.5432 -0.9426,1.142 -1.2222,1.7978 -0.2881,0.677 -0.4345,1.3924 -0.4345,2.1475 0,0.7671 0.149,1.4838 0.4418,2.1542 0.2895,0.6617 0.7095,1.2493 1.2566,1.7686 l 3.5498,3.5399 c -0.1139,0.2365 -0.2225,0.4684 -0.3245,0.6956 -0.2723,0.6021 -0.5399,1.2453 -0.8035,1.9289 -0.2504,0.6432 -0.4823,1.3142 -0.6956,2.0111 -0.0708,0.2325 -0.1384,0.4603 -0.2027,0.6856 h -4.3957 c -0.7657,0 -1.4831,0.141 -2.1535,0.4219 -0.6611,0.2762 -1.2566,0.683 -1.7885,1.2195 l -0.0384,0.0397 c -0.5233,0.5412 -0.9201,1.1394 -1.191,1.7945 -0.2762,0.6677 -0.4134,1.3665 -0.4134,2.0972 v 7.9131 c 0,0.7611 0.1352,1.4739 0.4068,2.1396 0.2716,0.6657 0.6763,1.2691 1.2181,1.8117 l 7e-4,6e-4 0.004,0.003 0.003,0.003 c 0.5432,0.5418 1.1459,0.9472 1.8123,1.2188 0.6657,0.2716 1.3785,0.406 2.1396,0.406 h 5.0403 c 0.0874,0.2378 0.1801,0.4823 0.2782,0.7333 0.2517,0.6479 0.5253,1.2964 0.822,1.9449 0.3061,0.6696 0.618,1.3022 0.9373,1.8925 0.106,0.1967 0.216,0.3934 0.3286,0.5902 l -3.1007,3.1106 -10e-4,7e-4 c -0.5478,0.5385 -0.9625,1.1446 -1.2453,1.8143 -0.2895,0.6836 -0.4325,1.403 -0.4325,2.1522 0,0.7478 0.1424,1.4606 0.4299,2.1409 0.2848,0.6736 0.6955,1.2798 1.234,1.8183 l 0.003,-0.003 5.5351,5.5483 0.0139,0.0139 c 0.5432,0.5339 1.1413,0.9426 1.7971,1.2221 0.677,0.2882 1.3924,0.4353 2.1482,0.4353 0.7664,0 1.4831,-0.1491 2.1535,-0.4419 0.6571,-0.2868 1.2414,-0.7041 1.7574,-1.2453 l 3.6041,-3.5518 c 0.2166,0.1073 0.4326,0.21 0.6479,0.3093 0.5544,0.2557 1.1665,0.5134 1.8362,0.773 0.0284,0.0133 0.0576,0.0252 0.0867,0.0365 0.6432,0.2504 1.3149,0.4822 2.0118,0.6955 0.2318,0.0709 0.4603,0.1384 0.6856,0.2027 v 4.3964 c 0,0.7651 0.1411,1.4825 0.4219,2.1529 0.2762,0.661 0.6836,1.2565 1.2195,1.7891 l 0.0378,0.0377 c 0.5418,0.5234 1.1393,0.9195 1.7944,1.1904 0.6677,0.2769 1.3666,0.414 2.0985,0.414 h 7.9118 c 0.7605,0 1.4739,-0.1345 2.1396,-0.4061 0.669,-0.2728 1.2745,-0.6802 1.8203,-1.2254 0.5392,-0.5405 0.9459,-1.1447 1.2188,-1.813 0.2716,-0.6657 0.4061,-1.3785 0.4061,-2.1389 v -5.0409 c 0.2378,-0.0881 0.4816,-0.1809 0.7333,-0.2783 0.6471,-0.2517 1.295,-0.5253 1.9435,-0.8213 0.6703,-0.3061 1.3029,-0.6187 1.8925,-0.938 0.198,-0.1067 0.3948,-0.216 0.5915,-0.3285 l 3.11,3.1006 0.001,7e-4 c 0.5386,0.5478 1.1453,0.9625 1.8137,1.2453 0.6843,0.2895 1.4023,0.4326 2.1515,0.4326 0.7492,0 1.4619,-0.1418 2.1422,-0.4293 v 0 z m -24.9058,-14.773 c 1.1797,0 2.331,-0.1126 3.4538,-0.3365 1.1035,-0.2205 2.1978,-0.559 3.2809,-1.0161 l 0.0119,-0.005 0.003,0.005 c 1.0341,-0.4465 2.0144,-0.9797 2.9418,-1.601 0.9188,-0.6154 1.7699,-1.3103 2.5503,-2.0833 l 0.007,-0.007 v 0 c 0.7737,-0.781 1.4685,-1.6315 2.0839,-2.5509 0.6214,-0.9274 1.1539,-1.9078 1.6004,-2.9418 0.0205,-0.049 0.0391,-0.098 0.0556,-0.1477 0.428,-1.0393 0.7492,-2.0879 0.9599,-3.1471 0.2252,-1.1234 0.3365,-2.274 0.3365,-3.4531 0,-1.1798 -0.1113,-2.331 -0.3365,-3.4538 -0.2199,-1.1043 -0.5591,-2.1972 -1.0155,-3.2809 l -0.005,-0.0119 0.005,-0.003 c -0.4465,-1.034 -0.9797,-2.0137 -1.6004,-2.9411 -0.616,-0.9194 -1.3109,-1.7699 -2.0839,-2.5509 l -0.007,-0.007 v 0 c -0.7817,-0.7737 -1.6315,-1.4686 -2.5516,-2.0839 -0.9261,-0.6214 -1.9071,-1.154 -2.9405,-1.6004 -0.049,-0.0205 -0.098,-0.0398 -0.149,-0.0557 -1.0386,-0.4285 -2.0879,-0.7491 -3.1464,-0.9604 -1.1228,-0.2246 -2.2747,-0.3366 -3.4538,-0.3366 -1.1798,0 -2.3304,0.112 -3.4532,0.3366 -1.1042,0.2205 -2.1978,0.5597 -3.2815,1.0161 l -0.012,0.005 -0.002,-0.005 c -1.0341,0.4464 -2.0151,0.9797 -2.9418,1.6004 -0.9194,0.6153 -1.7699,1.3102 -2.5503,2.0839 l -0.007,0.007 v 0 c -0.7737,0.7816 -1.4692,1.6315 -2.0839,2.5516 -0.6207,0.9267 -1.1539,1.9077 -1.5997,2.9404 -0.0212,0.049 -0.0398,0.098 -0.0563,0.1484 -0.4286,1.0393 -0.7492,2.0879 -0.9605,3.1471 -0.2239,1.1228 -0.3365,2.274 -0.3365,3.4538 0,1.1797 0.1119,2.3303 0.3365,3.4531 0.2206,1.1042 0.5597,2.1979 1.0168,3.2809 l 0.005,0.0119 -0.005,0.002 c 0.4458,1.034 0.9797,2.0144 1.5997,2.9411 0.6154,0.9201 1.3102,1.77 2.0839,2.5516 l 0.007,0.007 v 0 c 0.7803,0.7731 1.6309,1.4679 2.5496,2.0833 0.9274,0.6207 1.9084,1.1546 2.9424,1.601 0.0491,0.0212 0.0981,0.0398 0.1484,0.0557 1.0393,0.4286 2.0873,0.7485 3.1464,0.9598 1.1228,0.2252 2.2734,0.3378 3.4532,0.3378 v 0 z m 2.7569,-3.834 c -0.8903,0.1782 -1.8084,0.267 -2.7569,0.267 -0.9479,0 -1.866,-0.0888 -2.757,-0.267 -0.8651,-0.1729 -1.6911,-0.4206 -2.478,-0.7432 -0.0345,-0.0172 -0.0696,-0.0344 -0.106,-0.0497 -0.8598,-0.3716 -1.6507,-0.7982 -2.3714,-1.2804 -0.726,-0.4855 -1.3977,-1.0353 -2.0164,-1.6474 -0.6127,-0.6194 -1.1625,-1.2924 -1.6487,-2.019 -0.4823,-0.7201 -0.9089,-1.5103 -1.2798,-2.3701 l -0.005,0.002 c -0.3451,-0.8194 -0.6074,-1.6819 -0.7889,-2.5867 -0.1775,-0.8903 -0.2663,-1.8084 -0.2663,-2.7563 0,-0.9479 0.0888,-1.866 0.2663,-2.757 0.1729,-0.8651 0.4213,-1.6911 0.7439,-2.478 0.0172,-0.0351 0.0345,-0.0696 0.0497,-0.106 0.3709,-0.8598 0.7975,-1.6494 1.2791,-2.3694 0.4862,-0.7267 1.036,-1.3997 1.6494,-2.0191 0.6187,-0.6127 1.291,-1.1618 2.017,-1.6474 0.7201,-0.4822 1.5103,-0.9088 2.3708,-1.2804 l -0.002,-0.005 c 0.8201,-0.3452 1.6818,-0.6081 2.5867,-0.7883 0.8903,-0.1782 1.809,-0.2663 2.7569,-0.2663 0.9479,0 1.8667,0.0888 2.757,0.2663 0.8657,0.1729 1.6911,0.4206 2.4787,0.7432 0.0338,0.0172 0.0696,0.0345 0.106,0.0497 0.8591,0.3716 1.6494,0.7982 2.3701,1.2804 0.726,0.4856 1.3983,1.0354 2.017,1.6474 0.6134,0.6194 1.1632,1.2917 1.6494,2.0184 0.4816,0.72 0.9082,1.5103 1.2785,2.3701 l 0.005,-0.002 c 0.3451,0.8194 0.608,1.6819 0.7889,2.586 0.1775,0.891 0.2663,1.8091 0.2663,2.757 0,0.9479 -0.0895,1.866 -0.2663,2.7563 -0.1736,0.8657 -0.4206,1.6911 -0.7439,2.4787 -0.0179,0.0344 -0.0338,0.0695 -0.0503,0.106 -0.3703,0.8598 -0.7969,1.65 -1.2798,2.3701 -0.4849,0.7266 -1.0354,1.3996 -1.6481,2.0183 -0.6187,0.6121 -1.291,1.1619 -2.017,1.6474 -0.7207,0.4823 -1.511,0.9089 -2.3701,1.2805 l 0.001,0.005 c -0.8194,0.3451 -1.6812,0.6081 -2.5867,0.7889 v 0 z" /></g></g><g
       id="g294"><g
         clip-path="url(#clipPath300)"
         id="g296"><g
           transform="matrix(1,0,0,-1,676.7977,810.0443)"
           id="g302"><path
             id="path304"
             style="fill:none;stroke:#000000;stroke-width:3;stroke-linecap:butt;stroke-linejoin:miter;stroke-miterlimit:4;stroke-dasharray:none;stroke-opacity:1"
             d="m 127.6897,66.81626 -0.5111,-1.41025 C 105.8406,13.30628 63.44809,-7.667249 0,2.482474" /></g><path
           id="path306"
           style="fill:#000000;fill-opacity:1;fill-rule:nonzero;stroke:none"
           d="m 797.7712,742.3895 10.7026,-10.1614 1.7075,14.659 z" /><g
           transform="translate(588.0694,733.0916)"
           id="g308"><text
             id="text312"
             style="font-family:Poppins"
             transform="scale(1,-1)"><tspan
               id="tspan310"
               y="0"
               x="0">Processing</tspan></text>
</g></g></g></g></svg>