
<svg xmlns="http://www.w3.org/2000/svg" viewBox="0 150 1200 600"  style="cursor: move;">
<g transform="translate(0,0) scale(1.0)" style="opacity: 0.6">
<path class="link" marker-end="" d="M425.5,198.5C600.5,198.5 600.5,318.5 775.5,318.5" style="stroke-width: 0.17756; stroke-opacity: 0.213928; stroke: rgb(255, 200, 200); fill: none; opacity: 1;">
</path>
<path class="link" marker-end="" d="M425.5,198.5C600.5,198.5 600.5,358.5 775.5,358.5" style="stroke-width: 0.635013; stroke-opacity: 0.765075; stroke: rgb(255, 60, 60); fill: none; opacity: 1;">
</path>
<path class="link" marker-end="" d="M425.5,198.5C600.5,198.5 600.5,398.5 775.5,398.5" style="stroke-width: 0.0455798; stroke-opacity: 0.0549154; stroke: rgb(255, 241, 241); fill: none; opacity: 1;">
</path>
<path class="link" marker-end="" d="M425.5,198.5C600.5,198.5 600.5,438.5 775.5,438.5" style="stroke-width: 0.114831; stroke-opacity: 0.13835; stroke: rgb(255, 220, 220); fill: none; opacity: 1;">
</path>
<path class="link" marker-end="" d="M425.5,198.5C600.5,198.5 600.5,478.5 775.5,478.5" style="stroke-width: 0.41441; stroke-opacity: 0.49929; stroke: rgb(255, 128, 128); fill: none; opacity: 1;">
</path>
<path class="link" marker-end="" d="M425.5,198.5C600.5,198.5 600.5,518.5 775.5,518.5" style="stroke-width: 0.648092; stroke-opacity: 0.780833; stroke: rgb(255, 56, 56); fill: none; opacity: 1;">
</path>
<path class="link" marker-end="" d="M425.5,238.5C600.5,238.5 600.5,318.5 775.5,318.5" style="stroke-width: 0.442621; stroke-opacity: 0.533278; stroke: rgb(119, 119, 255); fill: none; opacity: 1;">
</path>
<path class="link" marker-end="" d="M425.5,238.5C600.5,238.5 600.5,358.5 775.5,358.5" style="stroke-width: 0.385027; stroke-opacity: 0.463888; stroke: rgb(137, 137, 255); fill: none; opacity: 1;">
</path>
<path class="link" marker-end="" d="M425.5,238.5C600.5,238.5 600.5,398.5 775.5,398.5" style="stroke-width: 0.384534; stroke-opacity: 0.463294; stroke: rgb(255, 137, 137); fill: none; opacity: 1;">
</path>
<path class="link" marker-end="" d="M425.5,238.5C600.5,238.5 600.5,438.5 775.5,438.5" style="stroke-width: 0.762221; stroke-opacity: 0.918339; stroke: rgb(255, 21, 21); fill: none; opacity: 1;">
</path>
<path class="link" marker-end="" d="M425.5,238.5C600.5,238.5 600.5,478.5 775.5,478.5" style="stroke-width: 0.319676; stroke-opacity: 0.385152; stroke: rgb(255, 157, 157); fill: none; opacity: 1;">
</path>
<path class="link" marker-end="" d="M425.5,238.5C600.5,238.5 600.5,518.5 775.5,518.5" style="stroke-width: 0.508377; stroke-opacity: 0.612502; stroke: rgb(99, 99, 255); fill: none; opacity: 1;">
</path>
<path class="link" marker-end="" d="M425.5,278.5C600.5,278.5 600.5,318.5 775.5,318.5" style="stroke-width: 0.629705; stroke-opacity: 0.758681; stroke: rgb(255, 62, 62); fill: none; opacity: 1;">
</path>
<path class="link" marker-end="" d="M425.5,278.5C600.5,278.5 600.5,358.5 775.5,358.5" style="stroke-width: 0.403602; stroke-opacity: 0.486268; stroke: rgb(255, 131, 131); fill: none; opacity: 1;">
</path>
<path class="link" marker-end="" d="M425.5,278.5C600.5,278.5 600.5,398.5 775.5,398.5" style="stroke-width: 0.0695238; stroke-opacity: 0.0837636; stroke: rgb(234, 234, 255); fill: none; opacity: 1;">
</path>
<path class="link" marker-end="" d="M425.5,278.5C600.5,278.5 600.5,438.5 775.5,438.5" style="stroke-width: 0.523366; stroke-opacity: 0.630562; stroke: rgb(94, 94, 255); fill: none; opacity: 1;">
</path>
<path class="link" marker-end="" d="M425.5,278.5C600.5,278.5 600.5,478.5 775.5,478.5" style="stroke-width: 0.306519; stroke-opacity: 0.3693; stroke: rgb(255, 161, 161); fill: none; opacity: 1;">
</path>
<path class="link" marker-end="" d="M425.5,278.5C600.5,278.5 600.5,518.5 775.5,518.5" style="stroke-width: 0.760355; stroke-opacity: 0.91609; stroke: rgb(255, 21, 21); fill: none; opacity: 1;">
</path>
<path class="link" marker-end="" d="M425.5,318.5C600.5,318.5 600.5,318.5 775.5,318.5" style="stroke-width: 0.204705; stroke-opacity: 0.246633; stroke: rgb(255, 192, 192); fill: none; opacity: 1;">
</path>
<path class="link" marker-end="" d="M425.5,318.5C600.5,318.5 600.5,358.5 775.5,358.5" style="stroke-width: 0.214097; stroke-opacity: 0.257948; stroke: rgb(255, 189, 189); fill: none; opacity: 1;">
</path>
<path class="link" marker-end="" d="M425.5,318.5C600.5,318.5 600.5,398.5 775.5,398.5" style="stroke-width: 0.552546; stroke-opacity: 0.665718; stroke: rgb(85, 85, 255); fill: none; opacity: 1;">
</path>
<path class="link" marker-end="" d="M425.5,318.5C600.5,318.5 600.5,438.5 775.5,438.5" style="stroke-width: 0.0264504; stroke-opacity: 0.031868; stroke: rgb(255, 247, 247); fill: none; opacity: 1;">
</path>
<path class="link" marker-end="" d="M425.5,318.5C600.5,318.5 600.5,478.5 775.5,478.5" style="stroke-width: 0.0168052; stroke-opacity: 0.0202473; stroke: rgb(255, 250, 250); fill: none; opacity: 1;">
</path>
<path class="link" marker-end="" d="M425.5,318.5C600.5,318.5 600.5,518.5 775.5,518.5" style="stroke-width: 0.0349553; stroke-opacity: 0.0421149; stroke: rgb(255, 244, 244); fill: none; opacity: 1;">
</path>
<path class="link" marker-end="" d="M425.5,358.5C600.5,358.5 600.5,318.5 775.5,318.5" style="stroke-width: 0.182848; stroke-opacity: 0.220298; stroke: rgb(199, 199, 255); fill: none; opacity: 1;">
</path>
<path class="link" marker-end="" d="M425.5,358.5C600.5,358.5 600.5,358.5 775.5,358.5" style="stroke-width: 0.257994; stroke-opacity: 0.310837; stroke: rgb(255, 176, 176); fill: none; opacity: 1;">
</path>
<path class="link" marker-end="" d="M425.5,358.5C600.5,358.5 600.5,398.5 775.5,398.5" style="stroke-width: 0.676665; stroke-opacity: 0.815259; stroke: rgb(47, 47, 255); fill: none; opacity: 1;">
</path>
<path class="link" marker-end="" d="M425.5,358.5C600.5,358.5 600.5,438.5 775.5,438.5" style="stroke-width: 0.176699; stroke-opacity: 0.21289; stroke: rgb(201, 201, 255); fill: none; opacity: 1;">
</path>
<path class="link" marker-end="" d="M425.5,358.5C600.5,358.5 600.5,478.5 775.5,478.5" style="stroke-width: 0.780113; stroke-opacity: 0.939895; stroke: rgb(255, 15, 15); fill: none; opacity: 1;">
</path>
<path class="link" marker-end="" d="M425.5,358.5C600.5,358.5 600.5,518.5 775.5,518.5" style="stroke-width: 0.259753; stroke-opacity: 0.312955; stroke: rgb(255, 175, 175); fill: none; opacity: 1;">
</path>
<path class="link" marker-end="" d="M425.5,398.5C600.5,398.5 600.5,318.5 775.5,318.5" style="stroke-width: 0.641971; stroke-opacity: 0.773459; stroke: rgb(255, 58, 58); fill: none; opacity: 1;">
</path>
<path class="link" marker-end="" d="M425.5,398.5C600.5,398.5 600.5,358.5 775.5,358.5" style="stroke-width: 0.280301; stroke-opacity: 0.337712; stroke: rgb(169, 169, 255); fill: none; opacity: 1;">
</path>
<path class="link" marker-end="" d="M425.5,398.5C600.5,398.5 600.5,398.5 775.5,398.5" style="stroke-width: 0.659068; stroke-opacity: 0.794058; stroke: rgb(53, 53, 255); fill: none; opacity: 1;">
</path>
<path class="link" marker-end="" d="M425.5,398.5C600.5,398.5 600.5,438.5 775.5,438.5" style="stroke-width: 0.498376; stroke-opacity: 0.600453; stroke: rgb(255, 102, 102); fill: none; opacity: 1;">
</path>
<path class="link" marker-end="" d="M425.5,398.5C600.5,398.5 600.5,478.5 775.5,478.5" style="stroke-width: 0.354509; stroke-opacity: 0.427119; stroke: rgb(255, 146, 146); fill: none; opacity: 1;">
</path>
<path class="link" marker-end="" d="M425.5,398.5C600.5,398.5 600.5,518.5 775.5,518.5" style="stroke-width: 0.477284; stroke-opacity: 0.575041; stroke: rgb(108, 108, 255); fill: none; opacity: 1;">
</path>
<path class="link" marker-end="" d="M425.5,438.5C600.5,438.5 600.5,318.5 775.5,318.5" style="stroke-width: 0.776526; stroke-opacity: 0.935574; stroke: rgb(255, 16, 16); fill: none; opacity: 1;">
</path>
<path class="link" marker-end="" d="M425.5,438.5C600.5,438.5 600.5,358.5 775.5,358.5" style="stroke-width: 0.474279; stroke-opacity: 0.57142; stroke: rgb(255, 109, 109); fill: none; opacity: 1;">
</path>
<path class="link" marker-end="" d="M425.5,438.5C600.5,438.5 600.5,398.5 775.5,398.5" style="stroke-width: 0.491823; stroke-opacity: 0.592558; stroke: rgb(255, 104, 104); fill: none; opacity: 1;">
</path>
<path class="link" marker-end="" d="M425.5,438.5C600.5,438.5 600.5,438.5 775.5,438.5" style="stroke-width: 0.70993; stroke-opacity: 0.855337; stroke: rgb(37, 37, 255); fill: none; opacity: 1;">
</path>
<path class="link" marker-end="" d="M425.5,438.5C600.5,438.5 600.5,478.5 775.5,478.5" style="stroke-width: 0.646048; stroke-opacity: 0.778371; stroke: rgb(255, 57, 57); fill: none; opacity: 1;">
</path>
<path class="link" marker-end="" d="M425.5,438.5C600.5,438.5 600.5,518.5 775.5,518.5" style="stroke-width: 0.120768; stroke-opacity: 0.145504; stroke: rgb(218, 218, 255); fill: none; opacity: 1;">
</path>
<path class="link" marker-end="" d="M425.5,478.5C600.5,478.5 600.5,318.5 775.5,318.5" style="stroke-width: 0.553264; stroke-opacity: 0.666584; stroke: rgb(255, 85, 85); fill: none; opacity: 1;">
</path>
<path class="link" marker-end="" d="M425.5,478.5C600.5,478.5 600.5,358.5 775.5,358.5" style="stroke-width: 0.0813007; stroke-opacity: 0.0979527; stroke: rgb(230, 230, 255); fill: none; opacity: 1;">
</path>
<path class="link" marker-end="" d="M425.5,478.5C600.5,478.5 600.5,398.5 775.5,398.5" style="stroke-width: 0.133309; stroke-opacity: 0.160613; stroke: rgb(255, 214, 214); fill: none; opacity: 1;">
</path>
<path class="link" marker-end="" d="M425.5,478.5C600.5,478.5 600.5,438.5 775.5,438.5" style="stroke-width: 0.463215; stroke-opacity: 0.55809; stroke: rgb(113, 113, 255); fill: none; opacity: 1;">
</path>
<path class="link" marker-end="" d="M425.5,478.5C600.5,478.5 600.5,478.5 775.5,478.5" style="stroke-width: 0.748637; stroke-opacity: 0.901973; stroke: rgb(25, 25, 255); fill: none; opacity: 1;">
</path>
<path class="link" marker-end="" d="M425.5,478.5C600.5,478.5 600.5,518.5 775.5,518.5" style="stroke-width: 0.826132; stroke-opacity: 0.99534; stroke: rgb(1, 1, 255); fill: none; opacity: 1;">
</path>
<path class="link" marker-end="" d="M425.5,518.5C600.5,518.5 600.5,318.5 775.5,318.5" style="stroke-width: 0.538862; stroke-opacity: 0.649232; stroke: rgb(255, 89, 89); fill: none; opacity: 1;">
</path>
<path class="link" marker-end="" d="M425.5,518.5C600.5,518.5 600.5,358.5 775.5,358.5" style="stroke-width: 0.708594; stroke-opacity: 0.853728; stroke: rgb(255, 37, 37); fill: none; opacity: 1;">
</path>
<path class="link" marker-end="" d="M425.5,518.5C600.5,518.5 600.5,398.5 775.5,398.5" style="stroke-width: 0.449796; stroke-opacity: 0.541922; stroke: rgb(255, 117, 117); fill: none; opacity: 1;">
</path>
<path class="link" marker-end="" d="M425.5,518.5C600.5,518.5 600.5,438.5 775.5,438.5" style="stroke-width: 0.814004; stroke-opacity: 0.980728; stroke: rgb(255, 5, 5); fill: none; opacity: 1;">
</path>
<path class="link" marker-end="" d="M425.5,518.5C600.5,518.5 600.5,478.5 775.5,478.5" style="stroke-width: 0.74088; stroke-opacity: 0.892627; stroke: rgb(27, 27, 255); fill: none; opacity: 1;">
</path>
<path class="link" marker-end="" d="M425.5,518.5C600.5,518.5 600.5,518.5 775.5,518.5" style="stroke-width: 0.105004; stroke-opacity: 0.126511; stroke: rgb(255, 223, 223); fill: none; opacity: 1;">
</path>
<path class="link" marker-end="" d="M425.5,558.5C600.5,558.5 600.5,318.5 775.5,318.5" style="stroke-width: 0.776546; stroke-opacity: 0.935598; stroke: rgb(16, 16, 255); fill: none; opacity: 1;">
</path>
<path class="link" marker-end="" d="M425.5,558.5C600.5,558.5 600.5,358.5 775.5,358.5" style="stroke-width: 0.556141; stroke-opacity: 0.67005; stroke: rgb(255, 84, 84); fill: none; opacity: 1;">
</path>
<path class="link" marker-end="" d="M425.5,558.5C600.5,558.5 600.5,398.5 775.5,398.5" style="stroke-width: 0.288206; stroke-opacity: 0.347236; stroke: rgb(166, 166, 255); fill: none; opacity: 1;">
</path>
<path class="link" marker-end="" d="M425.5,558.5C600.5,558.5 600.5,438.5 775.5,438.5" style="stroke-width: 0.54185; stroke-opacity: 0.652831; stroke: rgb(89, 89, 255); fill: none; opacity: 1;">
</path>
<path class="link" marker-end="" d="M425.5,558.5C600.5,558.5 600.5,478.5 775.5,478.5" style="stroke-width: 0.159269; stroke-opacity: 0.191891; stroke: rgb(255, 206, 206); fill: none; opacity: 1;">
</path>
<path class="link" marker-end="" d="M425.5,558.5C600.5,558.5 600.5,518.5 775.5,518.5" style="stroke-width: 0.12624; stroke-opacity: 0.152096; stroke: rgb(216, 216, 255); fill: none; opacity: 1;">
</path>
<path class="link" marker-end="" d="M425.5,598.5C600.5,598.5 600.5,318.5 775.5,318.5" style="stroke-width: 0.407036; stroke-opacity: 0.490404; stroke: rgb(130, 130, 255); fill: none; opacity: 1;">
</path>
<path class="link" marker-end="" d="M425.5,598.5C600.5,598.5 600.5,358.5 775.5,358.5" style="stroke-width: 0.313166; stroke-opacity: 0.377309; stroke: rgb(255, 159, 159); fill: none; opacity: 1;">
</path>
<path class="link" marker-end="" d="M425.5,598.5C600.5,598.5 600.5,398.5 775.5,398.5" style="stroke-width: 0.244352; stroke-opacity: 0.2944; stroke: rgb(180, 180, 255); fill: none; opacity: 1;">
</path>
<path class="link" marker-end="" d="M425.5,598.5C600.5,598.5 600.5,438.5 775.5,438.5" style="stroke-width: 0.713525; stroke-opacity: 0.859669; stroke: rgb(36, 36, 255); fill: none; opacity: 1;">
</path>
<path class="link" marker-end="" d="M425.5,598.5C600.5,598.5 600.5,478.5 775.5,478.5" style="stroke-width: 0.334178; stroke-opacity: 0.402624; stroke: rgb(152, 152, 255); fill: none; opacity: 1;">
</path>
<path class="link" marker-end="" d="M425.5,598.5C600.5,598.5 600.5,518.5 775.5,518.5" style="stroke-width: 0.33624; stroke-opacity: 0.405108; stroke: rgb(255, 152, 152); fill: none; opacity: 1;">
</path>
<path class="link" marker-end="" d="M425.5,638.5C600.5,638.5 600.5,318.5 775.5,318.5" style="stroke-width: 0.312339; stroke-opacity: 0.376312; stroke: rgb(159, 159, 255); fill: none; opacity: 1;">
</path>
<path class="link" marker-end="" d="M425.5,638.5C600.5,638.5 600.5,358.5 775.5,358.5" style="stroke-width: 0.144539; stroke-opacity: 0.174143; stroke: rgb(255, 211, 211); fill: none; opacity: 1;">
</path>
<path class="link" marker-end="" d="M425.5,638.5C600.5,638.5 600.5,398.5 775.5,398.5" style="stroke-width: 0.516831; stroke-opacity: 0.622688; stroke: rgb(96, 96, 255); fill: none; opacity: 1;">
</path>
<path class="link" marker-end="" d="M425.5,638.5C600.5,638.5 600.5,438.5 775.5,438.5" style="stroke-width: 0.392051; stroke-opacity: 0.472351; stroke: rgb(255, 135, 135); fill: none; opacity: 1;">
</path>
<path class="link" marker-end="" d="M425.5,638.5C600.5,638.5 600.5,478.5 775.5,478.5" style="stroke-width: 0.507794; stroke-opacity: 0.6118; stroke: rgb(99, 99, 255); fill: none; opacity: 1;">
</path>
<path class="link" marker-end="" d="M425.5,638.5C600.5,638.5 600.5,518.5 775.5,518.5" style="stroke-width: 0.643435; stroke-opacity: 0.775223; stroke: rgb(255, 57, 57); fill: none; opacity: 1;">
</path>
<path class="link" marker-end="" d="M775.5,318.5C950.5,318.5 950.5,198.5 1125.5,198.5" style="stroke-width: 0.044928; stroke-opacity: 0.0541302; stroke: rgb(241, 241, 255); fill: none; opacity: 1;">
</path>
<path class="link" marker-end="" d="M775.5,318.5C950.5,318.5 950.5,238.5 1125.5,238.5" style="stroke-width: 0.0942878; stroke-opacity: 0.1136; stroke: rgb(255, 226, 226); fill: none; opacity: 1;">
</path>
<path class="link" marker-end="" d="M775.5,318.5C950.5,318.5 950.5,278.5 1125.5,278.5" style="stroke-width: 0.717866; stroke-opacity: 0.864899; stroke: rgb(34, 34, 255); fill: none; opacity: 1;">
</path>
<path class="link" marker-end="" d="M775.5,318.5C950.5,318.5 950.5,318.5 1125.5,318.5" style="stroke-width: 0.438343; stroke-opacity: 0.528124; stroke: rgb(255, 120, 120); fill: none; opacity: 1;">
</path>
<path class="link" marker-end="" d="M775.5,318.5C950.5,318.5 950.5,358.5 1125.5,358.5" style="stroke-width: 0.125169; stroke-opacity: 0.150806; stroke: rgb(255, 217, 217); fill: none; opacity: 1;">
</path>
<path class="link" marker-end="" d="M775.5,318.5C950.5,318.5 950.5,398.5 1125.5,398.5" style="stroke-width: 0.828835; stroke-opacity: 0.998596; stroke: rgb(0, 0, 255); fill: none; opacity: 1;">
</path>
<path class="link" marker-end="" d="M775.5,318.5C950.5,318.5 950.5,438.5 1125.5,438.5" style="stroke-width: 0.569294; stroke-opacity: 0.685896; stroke: rgb(80, 80, 255); fill: none; opacity: 1;">
</path>
<path class="link" marker-end="" d="M775.5,318.5C950.5,318.5 950.5,478.5 1125.5,478.5" style="stroke-width: 0.124685; stroke-opacity: 0.150223; stroke: rgb(217, 217, 255); fill: none; opacity: 1;">
</path>
<path class="link" marker-end="" d="M775.5,318.5C950.5,318.5 950.5,518.5 1125.5,518.5" style="stroke-width: 0.373313; stroke-opacity: 0.449774; stroke: rgb(255, 140, 140); fill: none; opacity: 1;">
</path>
<path class="link" marker-end="" d="M775.5,318.5C950.5,318.5 950.5,558.5 1125.5,558.5" style="stroke-width: 0.758814; stroke-opacity: 0.914233; stroke: rgb(22, 22, 255); fill: none; opacity: 1;">
</path>
<path class="link" marker-end="" d="M775.5,358.5C950.5,358.5 950.5,198.5 1125.5,198.5" style="stroke-width: 0.47139; stroke-opacity: 0.56794; stroke: rgb(255, 110, 110); fill: none; opacity: 1;">
</path>
<path class="link" marker-end="" d="M775.5,358.5C950.5,358.5 950.5,238.5 1125.5,238.5" style="stroke-width: 0.119175; stroke-opacity: 0.143584; stroke: rgb(218, 218, 255); fill: none; opacity: 1;">
</path>
<path class="link" marker-end="" d="M775.5,358.5C950.5,358.5 950.5,278.5 1125.5,278.5" style="stroke-width: 0.209964; stroke-opacity: 0.252968; stroke: rgb(190, 190, 255); fill: none; opacity: 1;">
</path>
<path class="link" marker-end="" d="M775.5,358.5C950.5,358.5 950.5,318.5 1125.5,318.5" style="stroke-width: 0.468935; stroke-opacity: 0.564982; stroke: rgb(255, 111, 111); fill: none; opacity: 1;">
</path>
<path class="link" marker-end="" d="M775.5,358.5C950.5,358.5 950.5,358.5 1125.5,358.5" style="stroke-width: 0.553518; stroke-opacity: 0.666889; stroke: rgb(255, 85, 85); fill: none; opacity: 1;">
</path>
<path class="link" marker-end="" d="M775.5,358.5C950.5,358.5 950.5,398.5 1125.5,398.5" style="stroke-width: 0.315172; stroke-opacity: 0.379726; stroke: rgb(158, 158, 255); fill: none; opacity: 1;">
</path>
<path class="link" marker-end="" d="M775.5,358.5C950.5,358.5 950.5,438.5 1125.5,438.5" style="stroke-width: 0.248471; stroke-opacity: 0.299363; stroke: rgb(255, 179, 179); fill: none; opacity: 1;">
</path>
<path class="link" marker-end="" d="M775.5,358.5C950.5,358.5 950.5,478.5 1125.5,478.5" style="stroke-width: 0.214917; stroke-opacity: 0.258936; stroke: rgb(189, 189, 255); fill: none; opacity: 1;">
</path>
<path class="link" marker-end="" d="M775.5,358.5C950.5,358.5 950.5,518.5 1125.5,518.5" style="stroke-width: 0.0153075; stroke-opacity: 0.0184427; stroke: rgb(250, 250, 255); fill: none; opacity: 1;">
</path>
<path class="link" marker-end="" d="M775.5,358.5C950.5,358.5 950.5,558.5 1125.5,558.5" style="stroke-width: 0.810678; stroke-opacity: 0.976721; stroke: rgb(6, 6, 255); fill: none; opacity: 1;">
</path>
<path class="link" marker-end="" d="M775.5,398.5C950.5,398.5 950.5,198.5 1125.5,198.5" style="stroke-width: 0.480105; stroke-opacity: 0.578439; stroke: rgb(255, 107, 107); fill: none; opacity: 1;">
</path>
<path class="link" marker-end="" d="M775.5,398.5C950.5,398.5 950.5,238.5 1125.5,238.5" style="stroke-width: 0.224847; stroke-opacity: 0.2709; stroke: rgb(255, 186, 186); fill: none; opacity: 1;">
</path>
<path class="link" marker-end="" d="M775.5,398.5C950.5,398.5 950.5,278.5 1125.5,278.5" style="stroke-width: 0.795379; stroke-opacity: 0.958288; stroke: rgb(11, 11, 255); fill: none; opacity: 1;">
</path>
<path class="link" marker-end="" d="M775.5,398.5C950.5,398.5 950.5,318.5 1125.5,318.5" style="stroke-width: 0.368172; stroke-opacity: 0.44358; stroke: rgb(142, 142, 255); fill: none; opacity: 1;">
</path>
<path class="link" marker-end="" d="M775.5,398.5C950.5,398.5 950.5,358.5 1125.5,358.5" style="stroke-width: 0.433515; stroke-opacity: 0.522307; stroke: rgb(122, 122, 255); fill: none; opacity: 1;">
</path>
<path class="link" marker-end="" d="M775.5,398.5C950.5,398.5 950.5,398.5 1125.5,398.5" style="stroke-width: 0.598621; stroke-opacity: 0.72123; stroke: rgb(71, 71, 255); fill: none; opacity: 1;">
</path>
<path class="link" marker-end="" d="M775.5,398.5C950.5,398.5 950.5,438.5 1125.5,438.5" style="stroke-width: 0.344714; stroke-opacity: 0.415318; stroke: rgb(149, 149, 255); fill: none; opacity: 1;">
</path>
<path class="link" marker-end="" d="M775.5,398.5C950.5,398.5 950.5,478.5 1125.5,478.5" style="stroke-width: 0.0233299; stroke-opacity: 0.0281083; stroke: rgb(255, 248, 248); fill: none; opacity: 1;">
</path>
<path class="link" marker-end="" d="M775.5,398.5C950.5,398.5 950.5,518.5 1125.5,518.5" style="stroke-width: 0.451248; stroke-opacity: 0.543673; stroke: rgb(255, 116, 116); fill: none; opacity: 1;">
</path>
<path class="link" marker-end="" d="M775.5,398.5C950.5,398.5 950.5,558.5 1125.5,558.5" style="stroke-width: 0.453808; stroke-opacity: 0.546757; stroke: rgb(116, 116, 255); fill: none; opacity: 1;">
</path>
<path class="link" marker-end="" d="M775.5,438.5C950.5,438.5 950.5,198.5 1125.5,198.5" style="stroke-width: 0.572885; stroke-opacity: 0.690223; stroke: rgb(79, 79, 255); fill: none; opacity: 1;">
</path>
<path class="link" marker-end="" d="M775.5,438.5C950.5,438.5 950.5,238.5 1125.5,238.5" style="stroke-width: 0.596368; stroke-opacity: 0.718516; stroke: rgb(72, 72, 255); fill: none; opacity: 1;">
</path>
<path class="link" marker-end="" d="M775.5,438.5C950.5,438.5 950.5,278.5 1125.5,278.5" style="stroke-width: 0.463235; stroke-opacity: 0.558114; stroke: rgb(255, 113, 113); fill: none; opacity: 1;">
</path>
<path class="link" marker-end="" d="M775.5,438.5C950.5,438.5 950.5,318.5 1125.5,318.5" style="stroke-width: 0.799393; stroke-opacity: 0.963124; stroke: rgb(9, 9, 255); fill: none; opacity: 1;">
</path>
<path class="link" marker-end="" d="M775.5,438.5C950.5,438.5 950.5,358.5 1125.5,358.5" style="stroke-width: 0.28192; stroke-opacity: 0.339662; stroke: rgb(168, 168, 255); fill: none; opacity: 1;">
</path>
<path class="link" marker-end="" d="M775.5,438.5C950.5,438.5 950.5,398.5 1125.5,398.5" style="stroke-width: 0.192086; stroke-opacity: 0.231429; stroke: rgb(196, 196, 255); fill: none; opacity: 1;">
</path>
<path class="link" marker-end="" d="M775.5,438.5C950.5,438.5 950.5,438.5 1125.5,438.5" style="stroke-width: 0.623956; stroke-opacity: 0.751755; stroke: rgb(255, 63, 63); fill: none; opacity: 1;">
</path>
<path class="link" marker-end="" d="M775.5,438.5C950.5,438.5 950.5,478.5 1125.5,478.5" style="stroke-width: 0.536652; stroke-opacity: 0.646569; stroke: rgb(90, 90, 255); fill: none; opacity: 1;">
</path>
<path class="link" marker-end="" d="M775.5,438.5C950.5,438.5 950.5,518.5 1125.5,518.5" style="stroke-width: 0.161241; stroke-opacity: 0.194266; stroke: rgb(205, 205, 255); fill: none; opacity: 1;">
</path>
<path class="link" marker-end="" d="M775.5,438.5C950.5,438.5 950.5,558.5 1125.5,558.5" style="stroke-width: 0.176199; stroke-opacity: 0.212288; stroke: rgb(255, 201, 201); fill: none; opacity: 1;">
</path>
<path class="link" marker-end="" d="M775.5,478.5C950.5,478.5 950.5,198.5 1125.5,198.5" style="stroke-width: 0.732357; stroke-opacity: 0.882358; stroke: rgb(255, 30, 30); fill: none; opacity: 1;">
</path>
<path class="link" marker-end="" d="M775.5,478.5C950.5,478.5 950.5,238.5 1125.5,238.5" style="stroke-width: 0.776786; stroke-opacity: 0.935887; stroke: rgb(255, 16, 16); fill: none; opacity: 1;">
</path>
<path class="link" marker-end="" d="M775.5,478.5C950.5,478.5 950.5,278.5 1125.5,278.5" style="stroke-width: 0.310656; stroke-opacity: 0.374285; stroke: rgb(160, 160, 255); fill: none; opacity: 1;">
</path>
<path class="link" marker-end="" d="M775.5,478.5C950.5,478.5 950.5,318.5 1125.5,318.5" style="stroke-width: 0.646705; stroke-opacity: 0.779162; stroke: rgb(255, 56, 56); fill: none; opacity: 1;">
</path>
<path class="link" marker-end="" d="M775.5,478.5C950.5,478.5 950.5,358.5 1125.5,358.5" style="stroke-width: 0.231766; stroke-opacity: 0.279236; stroke: rgb(184, 184, 255); fill: none; opacity: 1;">
</path>
<path class="link" marker-end="" d="M775.5,478.5C950.5,478.5 950.5,398.5 1125.5,398.5" style="stroke-width: 0.653592; stroke-opacity: 0.78746; stroke: rgb(54, 54, 255); fill: none; opacity: 1;">
</path>
<path class="link" marker-end="" d="M775.5,478.5C950.5,478.5 950.5,438.5 1125.5,438.5" style="stroke-width: 0.181872; stroke-opacity: 0.219122; stroke: rgb(255, 199, 199); fill: none; opacity: 1;">
</path>
<path class="link" marker-end="" d="M775.5,478.5C950.5,478.5 950.5,478.5 1125.5,478.5" style="stroke-width: 0.576582; stroke-opacity: 0.694677; stroke: rgb(78, 78, 255); fill: none; opacity: 1;">
</path>
<path class="link" marker-end="" d="M775.5,478.5C950.5,478.5 950.5,518.5 1125.5,518.5" style="stroke-width: 0.604122; stroke-opacity: 0.727858; stroke: rgb(255, 69, 69); fill: none; opacity: 1;">
</path>
<path class="link" marker-end="" d="M775.5,478.5C950.5,478.5 950.5,558.5 1125.5,558.5" style="stroke-width: 0.180624; stroke-opacity: 0.21762; stroke: rgb(255, 200, 200); fill: none; opacity: 1;">
</path>
<path class="link" marker-end="" d="M775.5,518.5C950.5,518.5 950.5,198.5 1125.5,198.5" style="stroke-width: 0.409417; stroke-opacity: 0.493274; stroke: rgb(255, 129, 129); fill: none; opacity: 1;">
</path>
<path class="link" marker-end="" d="M775.5,518.5C950.5,518.5 950.5,238.5 1125.5,238.5" style="stroke-width: 0.392053; stroke-opacity: 0.472354; stroke: rgb(135, 135, 255); fill: none; opacity: 1;">
</path>
<path class="link" marker-end="" d="M775.5,518.5C950.5,518.5 950.5,278.5 1125.5,278.5" style="stroke-width: 0.571715; stroke-opacity: 0.688813; stroke: rgb(79, 79, 255); fill: none; opacity: 1;">
</path>
<path class="link" marker-end="" d="M775.5,518.5C950.5,518.5 950.5,318.5 1125.5,318.5" style="stroke-width: 0.623067; stroke-opacity: 0.750683; stroke: rgb(255, 64, 64); fill: none; opacity: 1;">
</path>
<path class="link" marker-end="" d="M775.5,518.5C950.5,518.5 950.5,358.5 1125.5,358.5" style="stroke-width: 0.191678; stroke-opacity: 0.230937; stroke: rgb(255, 196, 196); fill: none; opacity: 1;">
</path>
<path class="link" marker-end="" d="M775.5,518.5C950.5,518.5 950.5,398.5 1125.5,398.5" style="stroke-width: 0.672871; stroke-opacity: 0.810688; stroke: rgb(255, 48, 48); fill: none; opacity: 1;">
</path>
<path class="link" marker-end="" d="M775.5,518.5C950.5,518.5 950.5,438.5 1125.5,438.5" style="stroke-width: 0.17414; stroke-opacity: 0.209808; stroke: rgb(255, 201, 201); fill: none; opacity: 1;">
</path>
<path class="link" marker-end="" d="M775.5,518.5C950.5,518.5 950.5,478.5 1125.5,478.5" style="stroke-width: 0.520905; stroke-opacity: 0.627596; stroke: rgb(255, 95, 95); fill: none; opacity: 1;">
</path>
<path class="link" marker-end="" d="M775.5,518.5C950.5,518.5 950.5,518.5 1125.5,518.5" style="stroke-width: 0.105045; stroke-opacity: 0.12656; stroke: rgb(223, 223, 255); fill: none; opacity: 1;">
</path>
<path class="link" marker-end="" d="M775.5,518.5C950.5,518.5 950.5,558.5 1125.5,558.5" style="stroke-width: 0.0912434; stroke-opacity: 0.109932; stroke: rgb(255, 227, 227); fill: none; opacity: 1;">
</path>
<path class="link" marker-end="" d="M775.5,318.5C950.5,318.5 950.5,598.5 1125.5,598.5" style="stroke-width: 0.0795918; stroke-opacity: 0.0958937; stroke: rgb(231, 231, 255); fill: none;">
</path>
<path class="link" marker-end="" d="M775.5,318.5C950.5,318.5 950.5,638.5 1125.5,638.5" style="stroke-width: 0.387803; stroke-opacity: 0.467233; stroke: rgb(255, 136, 136); fill: none;">
</path>
<path class="link" marker-end="" d="M775.5,358.5C950.5,358.5 950.5,598.5 1125.5,598.5" style="stroke-width: 0.378947; stroke-opacity: 0.456562; stroke: rgb(139, 139, 255); fill: none;">
</path>
<path class="link" marker-end="" d="M775.5,358.5C950.5,358.5 950.5,638.5 1125.5,638.5" style="stroke-width: 0.158361; stroke-opacity: 0.190797; stroke: rgb(206, 206, 255); fill: none;">
</path>
<path class="link" marker-end="" d="M775.5,398.5C950.5,398.5 950.5,598.5 1125.5,598.5" style="stroke-width: 0.804924; stroke-opacity: 0.969788; stroke: rgb(255, 8, 8); fill: none;">
</path>
<path class="link" marker-end="" d="M775.5,398.5C950.5,398.5 950.5,638.5 1125.5,638.5" style="stroke-width: 0.0654733; stroke-opacity: 0.0788835; stroke: rgb(255, 235, 235); fill: none;">
</path>
<path class="link" marker-end="" d="M775.5,438.5C950.5,438.5 950.5,598.5 1125.5,598.5" style="stroke-width: 0.0443908; stroke-opacity: 0.0534829; stroke: rgb(241, 241, 255); fill: none;">
</path>
<path class="link" marker-end="" d="M775.5,438.5C950.5,438.5 950.5,638.5 1125.5,638.5" style="stroke-width: 0.167773; stroke-opacity: 0.202136; stroke: rgb(203, 203, 255); fill: none;">
</path>
<path class="link" marker-end="" d="M775.5,478.5C950.5,478.5 950.5,598.5 1125.5,598.5" style="stroke-width: 0.107358; stroke-opacity: 0.129347; stroke: rgb(222, 222, 255); fill: none;">
</path>
<path class="link" marker-end="" d="M775.5,478.5C950.5,478.5 950.5,638.5 1125.5,638.5" style="stroke-width: 0.422375; stroke-opacity: 0.508885; stroke: rgb(125, 125, 255); fill: none;">
</path>
<path class="link" marker-end="" d="M775.5,518.5C950.5,518.5 950.5,598.5 1125.5,598.5" style="stroke-width: 0.223329; stroke-opacity: 0.269071; stroke: rgb(186, 186, 255); fill: none;">
</path>
<path class="link" marker-end="" d="M775.5,518.5C950.5,518.5 950.5,638.5 1125.5,638.5" style="stroke-width: 0.262936; stroke-opacity: 0.316791; stroke: rgb(174, 174, 255); fill: none;">
</path>
<circle r="13" class="node" id="0_0" cx="425.5" cy="198.5" style="fill: rgb(255, 255, 255); stroke: rgb(51, 51, 51); opacity: 1;">
</circle>
<circle r="13" class="node" id="0_1" cx="425.5" cy="238.5" style="fill: rgb(255, 255, 255); stroke: rgb(51, 51, 51); opacity: 1;">
</circle>
<circle r="13" class="node" id="0_2" cx="425.5" cy="278.5" style="fill: rgb(255, 255, 255); stroke: rgb(51, 51, 51); opacity: 1;">
</circle>
<circle r="13" class="node" id="0_3" cx="425.5" cy="318.5" style="fill: rgb(255, 255, 255); stroke: rgb(51, 51, 51); opacity: 1;">
</circle>
<circle r="13" class="node" id="0_4" cx="425.5" cy="358.5" style="fill: rgb(255, 255, 255); stroke: rgb(51, 51, 51); opacity: 1;">
</circle>
<circle r="13" class="node" id="0_5" cx="425.5" cy="398.5" style="fill: rgb(255, 255, 255); stroke: rgb(51, 51, 51); opacity: 1;">
</circle>
<circle r="13" class="node" id="0_6" cx="425.5" cy="438.5" style="fill: rgb(255, 255, 255); stroke: rgb(51, 51, 51); opacity: 1;">
</circle>
<circle r="13" class="node" id="0_7" cx="425.5" cy="478.5" style="fill: rgb(255, 255, 255); stroke: rgb(51, 51, 51); opacity: 1;">
</circle>
<circle r="13" class="node" id="0_8" cx="425.5" cy="518.5" style="fill: rgb(255, 255, 255); stroke: rgb(51, 51, 51); opacity: 1;">
</circle>
<circle r="13" class="node" id="0_9" cx="425.5" cy="558.5" style="fill: rgb(255, 255, 255); stroke: rgb(51, 51, 51); opacity: 1;">
</circle>
<circle r="13" class="node" id="0_10" cx="425.5" cy="598.5" style="fill: rgb(255, 255, 255); stroke: rgb(51, 51, 51); opacity: 1;">
</circle>
<circle r="13" class="node" id="0_11" cx="425.5" cy="638.5" style="fill: rgb(255, 255, 255); stroke: rgb(51, 51, 51); opacity: 1;">
</circle>
<circle r="13" class="node" id="1_0" cx="775.5" cy="318.5" style="fill: rgb(255, 255, 255); stroke: rgb(51, 51, 51); opacity: 1;">
</circle>
<circle r="13" class="node" id="1_1" cx="775.5" cy="358.5" style="fill: rgb(255, 255, 255); stroke: rgb(51, 51, 51); opacity: 1;">
</circle>
<circle r="13" class="node" id="1_2" cx="775.5" cy="398.5" style="fill: rgb(255, 255, 255); stroke: rgb(51, 51, 51); opacity: 1;">
</circle>
<circle r="13" class="node" id="1_3" cx="775.5" cy="438.5" style="fill: rgb(255, 255, 255); stroke: rgb(51, 51, 51); opacity: 1;">
</circle>
<circle r="13" class="node" id="1_4" cx="775.5" cy="478.5" style="fill: rgb(255, 255, 255); stroke: rgb(51, 51, 51); opacity: 1;">
</circle>
<circle r="13" class="node" id="1_5" cx="775.5" cy="518.5" style="fill: rgb(255, 255, 255); stroke: rgb(51, 51, 51); opacity: 1;">
</circle>
<circle r="13" class="node" id="2_0" cx="1125.5" cy="198.5" style="fill: rgb(255, 255, 255); stroke: rgb(51, 51, 51); opacity: 1;">
</circle>
<circle r="13" class="node" id="2_1" cx="1125.5" cy="238.5" style="fill: rgb(255, 255, 255); stroke: rgb(51, 51, 51); opacity: 1;">
</circle>
<circle r="13" class="node" id="2_2" cx="1125.5" cy="278.5" style="fill: rgb(255, 255, 255); stroke: rgb(51, 51, 51); opacity: 1;">
</circle>
<circle r="13" class="node" id="2_3" cx="1125.5" cy="318.5" style="fill: rgb(255, 255, 255); stroke: rgb(51, 51, 51); opacity: 1;">
</circle>
<circle r="13" class="node" id="2_4" cx="1125.5" cy="358.5" style="fill: rgb(255, 255, 255); stroke: rgb(51, 51, 51); opacity: 1;">
</circle>
<circle r="13" class="node" id="2_5" cx="1125.5" cy="398.5" style="fill: rgb(255, 255, 255); stroke: rgb(51, 51, 51); opacity: 1;">
</circle>
<circle r="13" class="node" id="2_6" cx="1125.5" cy="438.5" style="fill: rgb(255, 255, 255); stroke: rgb(51, 51, 51); opacity: 1;">
</circle>
<circle r="13" class="node" id="2_7" cx="1125.5" cy="478.5" style="fill: rgb(255, 255, 255); stroke: rgb(51, 51, 51); opacity: 1;">
</circle>
<circle r="13" class="node" id="2_8" cx="1125.5" cy="518.5" style="fill: rgb(255, 255, 255); stroke: rgb(51, 51, 51); opacity: 1;">
</circle>
<circle r="13" class="node" id="2_9" cx="1125.5" cy="558.5" style="fill: rgb(255, 255, 255); stroke: rgb(51, 51, 51); opacity: 1;">
</circle>
<text class="text" dy=".35em" x="390.5" y="678.5" style="font-size: 12px;">Input Layer ∈ ℝ¹²
</text>
<text class="text" dy=".35em" x="740.5" y="678.5" style="font-size: 12px;">Hidden Layer ∈ ℝ⁶
</text>
<text class="text" dy=".35em" x="1090.5" y="678.5" style="font-size: 12px;">Output Layer ∈ ℝ¹²
</text>
<circle r="13" class="node" id="2_10" cx="1125.5" cy="598.5" style="fill: rgb(255, 255, 255); stroke: rgb(51, 51, 51);">
</circle>
<circle r="13" class="node" id="2_11" cx="1125.5" cy="638.5" style="fill: rgb(255, 255, 255); stroke: rgb(51, 51, 51);">
</circle>
</g>
<rect x="725" y="260" width="100" height="320" style="stroke-width: 3.0; stroke-opacity: 1; stroke: rgb(0, 0, 0); fill: rgb(0,0,0,0); opacity: 1;">
</rect>
<defs>
<marker id="arrow" markerWidth="7" markerHeight="7" orient="auto" refX="48.4">
<path d="M0,-5L10,0L0,5" style="stroke: rgb(80, 80, 80); fill: none;">
</path>
</marker>
</defs>
</svg>