<?xml version="1.0" encoding="UTF-8" standalone="no"?>
<svg
   xmlns:dc="http://purl.org/dc/elements/1.1/"
   xmlns:cc="http://creativecommons.org/ns#"
   xmlns:rdf="http://www.w3.org/1999/02/22-rdf-syntax-ns#"
   xmlns:svg="http://www.w3.org/2000/svg"
   xmlns="http://www.w3.org/2000/svg"
   viewBox="0 0 1181.6831 599.92731"
   height="599.92731"
   width="1181.6831"
   xml:space="preserve"
   id="svg2"
   version="1.1"><metadata
     id="metadata8"><rdf:RDF><cc:Work
         rdf:about=""><dc:format>image/svg+xml</dc:format><dc:type
           rdf:resource="http://purl.org/dc/dcmitype/StillImage" /></cc:Work></rdf:RDF></metadata><defs
     id="defs6"><clipPath
       id="clipPath14"
       clipPathUnits="userSpaceOnUse"><path
         id="path12"
         d="M 0,0 H 1920 V 1080 H 0 Z" /></clipPath><clipPath
       id="clipPath24"
       clipPathUnits="userSpaceOnUse"><path
         id="path22"
         d="M 0,0 H 1920 V 1080 H 0 Z" /></clipPath><clipPath
       id="clipPath34"
       clipPathUnits="userSpaceOnUse"><path
         id="path32"
         d="M 520.2489,317.3833 H 868.7862 V 762.6168 H 520.2489 Z" /></clipPath><clipPath
       id="clipPath46"
       clipPathUnits="userSpaceOnUse"><path
         id="path44"
         d="m 550.8133,673.454 h 138.7235 v 5 H 550.8133 Z" /></clipPath><clipPath
       id="clipPath58"
       clipPathUnits="userSpaceOnUse"><path
         id="path56"
         d="m 550.8133,660.2606 h 138.7235 v 5 H 550.8133 Z" /></clipPath><clipPath
       id="clipPath70"
       clipPathUnits="userSpaceOnUse"><path
         id="path68"
         d="m 550.8133,647.0672 h 138.7235 v 5 H 550.8133 Z" /></clipPath><clipPath
       id="clipPath82"
       clipPathUnits="userSpaceOnUse"><path
         id="path80"
         d="m 550.8133,633.8737 h 138.7235 v 5 H 550.8133 Z" /></clipPath><clipPath
       id="clipPath94"
       clipPathUnits="userSpaceOnUse"><path
         id="path92"
         d="m 550.8133,620.6803 h 138.7235 v 5 H 550.8133 Z" /></clipPath><clipPath
       id="clipPath106"
       clipPathUnits="userSpaceOnUse"><path
         id="path104"
         d="m 550.8133,607.4869 h 138.7235 v 5 H 550.8133 Z" /></clipPath><clipPath
       id="clipPath118"
       clipPathUnits="userSpaceOnUse"><path
         id="path116"
         d="m 550.8133,594.2935 h 138.7235 v 5 H 550.8133 Z" /></clipPath><clipPath
       id="clipPath130"
       clipPathUnits="userSpaceOnUse"><path
         id="path128"
         d="m 617.0286,408.7726 h 102.3946 v 89.15693 H 617.0286 Z" /></clipPath><clipPath
       id="clipPath136"
       clipPathUnits="userSpaceOnUse"><path
         id="path134"
         d="m 617,408 h 103 v 90 H 617 Z" /></clipPath><clipPath
       id="clipPath140"
       clipPathUnits="userSpaceOnUse"><path
         id="path138"
         d="m 617,408 h 103 v 90 H 617 Z" /></clipPath><clipPath
       id="clipPath162"
       clipPathUnits="userSpaceOnUse"><path
         id="path160"
         d="m 592.7648,378.0453 h 207.276 v 136.9838 h -207.276 z" /></clipPath><clipPath
       id="clipPath174"
       clipPathUnits="userSpaceOnUse"><path
         id="path172"
         d="m 736.1121,387.7654 h 51.78554 v 18.66547 H 736.1121 Z" /></clipPath><clipPath
       id="clipPath186"
       clipPathUnits="userSpaceOnUse"><path
         id="path184"
         d="m 708.0495,540.756 h 131 v 140 h -131 z" /></clipPath><clipPath
       id="clipPath264"
       clipPathUnits="userSpaceOnUse"><path
         id="path262"
         d="m 550.8133,579.7151 h 138.7235 v 5 H 550.8133 Z" /></clipPath><clipPath
       id="clipPath276"
       clipPathUnits="userSpaceOnUse"><path
         id="path274"
         d="m 550.8133,566.5217 h 138.7235 v 5 H 550.8133 Z" /></clipPath><clipPath
       id="clipPath288"
       clipPathUnits="userSpaceOnUse"><path
         id="path286"
         d="m 630.9378,705.8935 h 130.93 v 19.13363 h -130.93 z" /></clipPath><clipPath
       id="clipPath300"
       clipPathUnits="userSpaceOnUse"><path
         id="path298"
         d="m 764.2748,340.635 h 78.09929 v 19.13363 H 764.2748 Z" /></clipPath><clipPath
       id="clipPath312"
       clipPathUnits="userSpaceOnUse"><path
         id="path310"
         d="m 1051.214,317.3833 h 348.5373 V 762.6168 H 1051.214 Z" /></clipPath><clipPath
       id="clipPath324"
       clipPathUnits="userSpaceOnUse"><path
         id="path322"
         d="m 1081.778,673.454 h 138.7235 v 5 H 1081.778 Z" /></clipPath><clipPath
       id="clipPath336"
       clipPathUnits="userSpaceOnUse"><path
         id="path334"
         d="m 1081.778,660.2606 h 138.7235 v 5 H 1081.778 Z" /></clipPath><clipPath
       id="clipPath348"
       clipPathUnits="userSpaceOnUse"><path
         id="path346"
         d="m 1081.778,647.0672 h 138.7235 v 5 H 1081.778 Z" /></clipPath><clipPath
       id="clipPath360"
       clipPathUnits="userSpaceOnUse"><path
         id="path358"
         d="m 1081.778,633.8737 h 138.7235 v 5 H 1081.778 Z" /></clipPath><clipPath
       id="clipPath372"
       clipPathUnits="userSpaceOnUse"><path
         id="path370"
         d="m 1081.778,620.6803 h 138.7235 v 5 H 1081.778 Z" /></clipPath><clipPath
       id="clipPath384"
       clipPathUnits="userSpaceOnUse"><path
         id="path382"
         d="m 1081.778,607.4869 h 138.7235 v 5 H 1081.778 Z" /></clipPath><clipPath
       id="clipPath396"
       clipPathUnits="userSpaceOnUse"><path
         id="path394"
         d="m 1081.778,594.2935 h 138.7235 v 5 H 1081.778 Z" /></clipPath><clipPath
       id="clipPath408"
       clipPathUnits="userSpaceOnUse"><path
         id="path406"
         d="m 1147.993,408.7726 h 102.3946 v 89.15693 H 1147.993 Z" /></clipPath><clipPath
       id="clipPath414"
       clipPathUnits="userSpaceOnUse"><path
         id="path412"
         d="m 1147,408 h 104 v 90 h -104 z" /></clipPath><clipPath
       id="clipPath418"
       clipPathUnits="userSpaceOnUse"><path
         id="path416"
         d="m 1147,408 h 104 v 90 h -104 z" /></clipPath><clipPath
       id="clipPath440"
       clipPathUnits="userSpaceOnUse"><path
         id="path438"
         d="m 1123.73,378.0453 h 207.276 V 515.0291 H 1123.73 Z" /></clipPath><clipPath
       id="clipPath452"
       clipPathUnits="userSpaceOnUse"><path
         id="path450"
         d="m 1267.077,387.7654 h 51.7855 v 18.66547 h -51.7855 z" /></clipPath><clipPath
       id="clipPath464"
       clipPathUnits="userSpaceOnUse"><path
         id="path462"
         d="m 1239.014,540.756 h 131 v 140 h -131 z" /></clipPath><clipPath
       id="clipPath542"
       clipPathUnits="userSpaceOnUse"><path
         id="path540"
         d="m 1081.778,579.7151 h 138.7235 v 5 H 1081.778 Z" /></clipPath><clipPath
       id="clipPath554"
       clipPathUnits="userSpaceOnUse"><path
         id="path552"
         d="m 1081.778,566.5217 h 138.7235 v 5 H 1081.778 Z" /></clipPath><clipPath
       id="clipPath566"
       clipPathUnits="userSpaceOnUse"><path
         id="path564"
         d="m 1161.903,705.8935 h 130.93 v 19.13363 h -130.93 z" /></clipPath><clipPath
       id="clipPath578"
       clipPathUnits="userSpaceOnUse"><path
         id="path576"
         d="m 1295.24,340.635 h 78.0993 v 19.13363 H 1295.24 Z" /></clipPath><clipPath
       id="clipPath590"
       clipPathUnits="userSpaceOnUse"><path
         id="path588"
         d="m 1076.789,561.4969 h 148.4836 V 685.198 H 1076.789 Z" /></clipPath><clipPath
       id="clipPath600"
       clipPathUnits="userSpaceOnUse"><path
         id="path598"
         d="M 1234.929,535.4386 H 1373.19 V 685.198 h -138.261 z" /></clipPath><clipPath
       id="clipPath610"
       clipPathUnits="userSpaceOnUse"><path
         id="path608"
         d="m 1121.45,374.5052 h 212.0643 V 519.9548 H 1121.45 Z" /></clipPath><clipPath
       id="clipPath620"
       clipPathUnits="userSpaceOnUse"><path
         id="path618"
         d="m 1292.698,338.342 h 83.6134 v 23.84951 h -83.6134 z" /></clipPath><clipPath
       id="clipPath630"
       clipPathUnits="userSpaceOnUse"><path
         id="path628"
         d="m 1159.197,703.2501 h 136.571 v 23.84951 h -136.571 z" /></clipPath><clipPath
       id="clipPath640"
       clipPathUnits="userSpaceOnUse"><path
         id="path638"
         d="M 0,0 H 1920 V 1080 H 0 Z" /></clipPath></defs><g
     clip-path="url(#clipPath14)"
     transform="matrix(1.3333333,0,0,-1.3333333,-690.82093,1018.1639)"
     id="g10"><g
       id="g16" /><g
       id="g18"><g
         clip-path="url(#clipPath24)"
         id="g20"><path
           id="path26"
           style="fill:#ffffff;fill-opacity:1;fill-rule:nonzero;stroke:none"
           d="M 0,0 H 1920 V 1080 H 0 Z" /></g></g><g
       id="g28"><g
         clip-path="url(#clipPath34)"
         id="g30"><g
           transform="matrix(1,0,0,-1,522.7489,760.1167)"
           id="g36"><path
             id="path38"
             style="fill:none;stroke:#000000;stroke-width:3;stroke-linecap:butt;stroke-linejoin:miter;stroke-miterlimit:4;stroke-dasharray:none;stroke-opacity:1"
             d="M 0,0 H 343.5373 V 440.2335 H 0 Z" /></g></g></g><g
       id="g40"><g
         clip-path="url(#clipPath46)"
         id="g42"><g
           transform="matrix(1,0,0,-1,551.8133,675.954)"
           id="g48"><path
             id="path50"
             style="fill:none;stroke:#929292;stroke-width:3;stroke-linecap:butt;stroke-linejoin:miter;stroke-miterlimit:4;stroke-dasharray:none;stroke-opacity:1"
             d="M 0,0 H 136.7235" /></g></g></g><g
       id="g52"><g
         clip-path="url(#clipPath58)"
         id="g54"><g
           transform="matrix(1,0,0,-1,551.8133,662.7606)"
           id="g60"><path
             id="path62"
             style="fill:none;stroke:#929292;stroke-width:3;stroke-linecap:butt;stroke-linejoin:miter;stroke-miterlimit:4;stroke-dasharray:none;stroke-opacity:1"
             d="M 0,0 H 136.7235" /></g></g></g><g
       id="g64"><g
         clip-path="url(#clipPath70)"
         id="g66"><g
           transform="matrix(1,0,0,-1,551.8133,649.5672)"
           id="g72"><path
             id="path74"
             style="fill:none;stroke:#929292;stroke-width:3;stroke-linecap:butt;stroke-linejoin:miter;stroke-miterlimit:4;stroke-dasharray:none;stroke-opacity:1"
             d="M 0,0 H 136.7235" /></g></g></g><g
       id="g76"><g
         clip-path="url(#clipPath82)"
         id="g78"><g
           transform="matrix(1,0,0,-1,551.8133,636.3737)"
           id="g84"><path
             id="path86"
             style="fill:none;stroke:#929292;stroke-width:3;stroke-linecap:butt;stroke-linejoin:miter;stroke-miterlimit:4;stroke-dasharray:none;stroke-opacity:1"
             d="M 0,0 H 136.7235" /></g></g></g><g
       id="g88"><g
         clip-path="url(#clipPath94)"
         id="g90"><g
           transform="matrix(1,0,0,-1,551.8133,623.1803)"
           id="g96"><path
             id="path98"
             style="fill:none;stroke:#929292;stroke-width:3;stroke-linecap:butt;stroke-linejoin:miter;stroke-miterlimit:4;stroke-dasharray:none;stroke-opacity:1"
             d="M 0,0 H 136.7235" /></g></g></g><g
       id="g100"><g
         clip-path="url(#clipPath106)"
         id="g102"><g
           transform="matrix(1,0,0,-1,551.8133,609.9869)"
           id="g108"><path
             id="path110"
             style="fill:none;stroke:#929292;stroke-width:3;stroke-linecap:butt;stroke-linejoin:miter;stroke-miterlimit:4;stroke-dasharray:none;stroke-opacity:1"
             d="M 0,0 H 136.7235" /></g></g></g><g
       id="g112"><g
         clip-path="url(#clipPath118)"
         id="g114"><g
           transform="matrix(1,0,0,-1,551.8133,596.7935)"
           id="g120"><path
             id="path122"
             style="fill:none;stroke:#929292;stroke-width:3;stroke-linecap:butt;stroke-linejoin:miter;stroke-miterlimit:4;stroke-dasharray:none;stroke-opacity:1"
             d="M 0,0 H 136.7235" /></g></g></g><g
       id="g124"><g
         clip-path="url(#clipPath130)"
         id="g126"><g
           id="g132" /><g
           id="g154"><g
             style="opacity:0.35820001"
             id="g152"
             clip-path="url(#clipPath136)"><g
               id="g142" /><g
               id="g150"><g
                 id="g148"
                 clip-path="url(#clipPath140)"><path
                   id="path144"
                   style="fill:#000000;fill-opacity:0;fill-rule:nonzero;stroke:none"
                   d="M 582.7789,394.2666 H 728.7066 V 525.9574 H 582.7789 Z" /><path
                   id="path146"
                   style="fill:#000000;fill-opacity:1;fill-rule:nonzero;stroke:none"
                   d="m 695.0958,416.9743 c -1.6381,0 -2.9661,1.328 -2.9661,2.9661 0,1.638 1.328,2.966 2.9661,2.966 h 5.6828 v 22.3755 h -5.5049 c -1.6381,0 -2.966,1.328 -2.966,2.9661 0,1.638 1.3279,2.966 2.966,2.966 h 5.5049 v 31.4159 h -23.2772 v -31.4753 h 5.5168 c 1.6365,-0.002 2.9619,-1.3295 2.9619,-2.966 0,-1.6365 -1.3254,-2.9637 -2.9619,-2.966 h -5.5168 v -6.1455 c 0,-1.6381 -1.3279,-2.9661 -2.966,-2.9661 -1.6381,0 -2.966,1.328 -2.966,2.9661 v 43.5528 H 631.813 v -21.1535 h 19.4807 c 0.7824,0.003 1.5339,-0.3055 2.0882,-0.8576 0.5544,-0.5521 0.866,-1.3023 0.866,-2.0847 v -35.6515 h 17.2503 v 5.505 c 0,1.638 1.3279,2.966 2.966,2.966 1.6381,0 2.966,-1.328 2.966,-2.966 v -5.505 h 6.9879 c 1.6381,0 2.966,-1.3279 2.966,-2.966 0,-1.6381 -1.3279,-2.966 -2.966,-2.966 h -55.5593 c -1.6315,0 -2.9541,1.3226 -2.9541,2.9542 v 65.7149 c 0.006,1.6288 1.3253,2.9476 2.9541,2.9541 h 74.9333 c 1.6056,-0.0385 2.8889,-1.3481 2.8948,-2.9541 v -65.6912 c 4e-4,-1.6086 -1.2865,-2.9218 -2.8948,-2.9541 z m -106.0171,11.4607 0.3322,0.2373 c 0.6053,0.5349 1.2476,1.0265 1.922,1.4711 1.3714,0.9004 2.8501,1.6258 4.4015,2.1593 1.3629,0.4735 2.7587,0.8463 4.1762,1.1152 v 86.4889 c -10.9861,-1.6847 -10.915,-12.7183 -10.8556,-22.9926 0.2847,-14.2368 -0.6407,-51.7509 0,-68.4792 z m 16.6097,2.444 c -0.0456,-0.633 -0.2907,-1.2353 -0.7,-1.7203 -0.4558,-0.5291 -1.0882,-0.8748 -1.7796,-0.9728 v 0 c -1.605,-0.2278 -3.1911,-0.5728 -4.7456,-1.0322 -1.3805,-0.401 -2.6953,-1.0005 -3.9033,-1.7796 -1.1661,-0.7849 -2.1927,-1.7593 -3.0372,-2.883 -1.0236,-1.3834 -1.8612,-2.8951 -2.4915,-4.4964 -0.1135,-2.1791 0.05,-4.3637 0.4865,-6.5016 0.3722,-1.8478 1.1104,-3.6026 2.1711,-5.1608 v 0 c 1.0969,-1.5296 2.5295,-2.7877 4.188,-3.6778 2.0993,-1.1155 4.3747,-1.862 6.7269,-2.2068 h 120.0641 v 102.968 H 605.7477 V 430.879 Z m 0,78.3027 h 118.6404 c 0.5495,-0.003 1.0932,-0.1118 1.6016,-0.3204 1.0342,-0.4331 1.8566,-1.2555 2.2898,-2.2897 0.2097,-0.5122 0.3185,-1.0601 0.3203,-1.6135 v -106.29 c -0.003,-0.5495 -0.1118,-1.0932 -0.3203,-1.6016 -0.217,-0.5077 -0.5268,-0.9704 -0.9136,-1.3644 v 0 c -0.394,-0.3867 -0.8567,-0.6965 -1.3643,-0.9135 -0.5067,-0.2139 -1.0517,-0.3229 -1.6017,-0.3203 H 602.4495 c -2.9867,0.1558 -5.8939,1.0178 -8.4828,2.5152 -2.7524,1.4316 -5.1516,3.458 -7.0235,5.932 -1.4843,2.148 -2.5323,4.5666 -3.0847,7.1184 -0.5819,2.8077 -0.7893,5.68 -0.6169,8.5421 0,25.4958 -1.044,53.1272 0,78.3027 0,6.7625 -0.0831,13.7978 2.2779,19.2672 2.3609,5.4693 7.2845,9.6217 17.0012,9.8115 h 0.3084 c 1.6119,0 2.9186,-1.3067 2.9186,-2.9185 v -13.8216 z m 26.1008,-53.6374 v -32.6617 h 16.5504 v 32.6973 z" /></g></g></g></g></g></g><g
       id="g156"><g
         clip-path="url(#clipPath162)"
         id="g158"><g
           transform="matrix(1,0,0,-1,595.2648,512.5292)"
           id="g164"><path
             id="path166"
             style="fill:none;stroke:#929292;stroke-width:3;stroke-linecap:butt;stroke-linejoin:miter;stroke-miterlimit:4;stroke-dasharray:none;stroke-opacity:1"
             d="M 0,0 H 202.276 V 131.9838 H 0 Z" /></g></g></g><g
       id="g168"><g
         clip-path="url(#clipPath174)"
         id="g170"><g
           transform="matrix(1,0,0,-1,738.1121,404.4309)"
           id="g176"><path
             id="path178"
             style="fill:none;stroke:#929292;stroke-width:2;stroke-linecap:butt;stroke-linejoin:miter;stroke-miterlimit:4;stroke-dasharray:none;stroke-opacity:1"
             d="M 0,0 H 47.78554 V 14.66547 H 0 Z" /></g></g></g><g
       id="g180"><g
         clip-path="url(#clipPath186)"
         id="g182"><path
           id="path188"
           style="fill:#5aceea;fill-opacity:0;fill-rule:nonzero;stroke:none"
           d="M 711.0495,662.5174 H 752.558 V 677.756 H 711.0495 Z" /><path
           id="path190"
           style="fill:#11f286;fill-opacity:0;fill-rule:nonzero;stroke:none"
           d="m 752.558,662.5174 h 41.5086 V 677.756 H 752.558 Z" /><path
           id="path192"
           style="fill:#1631a9;fill-opacity:0;fill-rule:nonzero;stroke:none"
           d="m 794.0666,662.5174 h 41.5085 v 15.2386 h -41.5085 z" /><path
           id="path194"
           style="fill:#e35910;fill-opacity:0;fill-rule:nonzero;stroke:none"
           d="m 711.0495,632.3316 h 41.5085 v 30.1858 h -41.5085 z" /><path
           id="path196"
           style="fill:#057510;fill-opacity:0;fill-rule:nonzero;stroke:none"
           d="m 752.558,632.3316 h 41.5086 v 30.1858 H 752.558 Z" /><path
           id="path198"
           style="fill:#3df8e6;fill-opacity:0;fill-rule:nonzero;stroke:none"
           d="m 794.0666,632.3316 h 41.5085 v 30.1858 h -41.5085 z" /><path
           id="path200"
           style="fill:#d9448a;fill-opacity:0;fill-rule:nonzero;stroke:none"
           d="m 711.0495,601.2467 h 41.5085 v 31.0849 h -41.5085 z" /><path
           id="path202"
           style="fill:#60c283;fill-opacity:0;fill-rule:nonzero;stroke:none"
           d="m 752.558,601.2467 h 41.5086 v 31.0849 H 752.558 Z" /><path
           id="path204"
           style="fill:#aa880a;fill-opacity:0;fill-rule:nonzero;stroke:none"
           d="m 794.0666,601.2467 h 41.5085 v 31.0849 h -41.5085 z" /><path
           id="path206"
           style="fill:#70eeed;fill-opacity:0;fill-rule:nonzero;stroke:none"
           d="m 711.0495,570.3477 h 41.5085 v 30.899 h -41.5085 z" /><path
           id="path208"
           style="fill:#b848bc;fill-opacity:0;fill-rule:nonzero;stroke:none"
           d="m 752.558,570.3477 h 41.5086 v 30.899 H 752.558 Z" /><path
           id="path210"
           style="fill:#a35aaf;fill-opacity:0;fill-rule:nonzero;stroke:none"
           d="m 794.0666,570.3477 h 41.5085 v 30.899 h -41.5085 z" /><path
           id="path212"
           style="fill:#2a70e0;fill-opacity:0;fill-rule:nonzero;stroke:none"
           d="m 711.0495,543.4957 h 41.5085 v 26.852 h -41.5085 z" /><path
           id="path214"
           style="fill:#d3543a;fill-opacity:0;fill-rule:nonzero;stroke:none"
           d="m 752.558,543.4957 h 41.5086 v 26.852 H 752.558 Z" /><path
           id="path216"
           style="fill:#e459af;fill-opacity:0;fill-rule:nonzero;stroke:none"
           d="m 794.0666,543.4957 h 41.5085 v 26.852 h -41.5085 z" /><g
           transform="matrix(1,0,0,-1,708.0495,680.756)"
           id="g218"><path
             id="path220"
             style="fill:none;stroke:#929292;stroke-width:2;stroke-linecap:butt;stroke-linejoin:miter;stroke-miterlimit:4;stroke-dasharray:none;stroke-opacity:1"
             d="M 44.50852,1.5 V 138.7603" /></g><g
           transform="matrix(1,0,0,-1,708.0495,680.756)"
           id="g222"><path
             id="path224"
             style="fill:none;stroke:#929292;stroke-width:2;stroke-linecap:butt;stroke-linejoin:miter;stroke-miterlimit:4;stroke-dasharray:none;stroke-opacity:1"
             d="M 86.01704,1.5 V 138.7603" /></g><g
           transform="matrix(1,0,0,-1,708.0495,680.756)"
           id="g226"><path
             id="path228"
             style="fill:none;stroke:#929292;stroke-width:2;stroke-linecap:butt;stroke-linejoin:miter;stroke-miterlimit:4;stroke-dasharray:none;stroke-opacity:1"
             d="M 1.5,18.23863 H 129.0256" /></g><g
           transform="matrix(1,0,0,-1,708.0495,680.756)"
           id="g230"><path
             id="path232"
             style="fill:none;stroke:#929292;stroke-width:2;stroke-linecap:butt;stroke-linejoin:miter;stroke-miterlimit:4;stroke-dasharray:none;stroke-opacity:1"
             d="M 1.5,48.42442 H 129.0256" /></g><g
           transform="matrix(1,0,0,-1,708.0495,680.756)"
           id="g234"><path
             id="path236"
             style="fill:none;stroke:#929292;stroke-width:2;stroke-linecap:butt;stroke-linejoin:miter;stroke-miterlimit:4;stroke-dasharray:none;stroke-opacity:1"
             d="M 1.5,79.50928 H 129.0256" /></g><g
           transform="matrix(1,0,0,-1,708.0495,680.756)"
           id="g238"><path
             id="path240"
             style="fill:none;stroke:#929292;stroke-width:2;stroke-linecap:butt;stroke-linejoin:miter;stroke-miterlimit:4;stroke-dasharray:none;stroke-opacity:1"
             d="M 1.5,110.4083 H 129.0256" /></g><g
           transform="matrix(1,0,0,-1,708.0495,680.756)"
           id="g242"><path
             id="path244"
             style="fill:none;stroke:#929292;stroke-width:3;stroke-linecap:butt;stroke-linejoin:miter;stroke-miterlimit:4;stroke-dasharray:none;stroke-opacity:1"
             d="M 3,1.5 V 138.7603" /></g><g
           transform="matrix(1,0,0,-1,708.0495,680.756)"
           id="g246"><path
             id="path248"
             style="fill:none;stroke:#929292;stroke-width:3;stroke-linecap:butt;stroke-linejoin:miter;stroke-miterlimit:4;stroke-dasharray:none;stroke-opacity:1"
             d="M 127.5256,1.5 V 138.7603" /></g><g
           transform="matrix(1,0,0,-1,708.0495,680.756)"
           id="g250"><path
             id="path252"
             style="fill:none;stroke:#929292;stroke-width:3;stroke-linecap:butt;stroke-linejoin:miter;stroke-miterlimit:4;stroke-dasharray:none;stroke-opacity:1"
             d="M 1.5,3 H 129.0256" /></g><g
           transform="matrix(1,0,0,-1,708.0495,680.756)"
           id="g254"><path
             id="path256"
             style="fill:none;stroke:#929292;stroke-width:3;stroke-linecap:butt;stroke-linejoin:miter;stroke-miterlimit:4;stroke-dasharray:none;stroke-opacity:1"
             d="M 1.5,137.2603 H 129.0256" /></g></g></g><g
       id="g258"><g
         clip-path="url(#clipPath264)"
         id="g260"><g
           transform="matrix(1,0,0,-1,551.8133,582.2151)"
           id="g266"><path
             id="path268"
             style="fill:none;stroke:#929292;stroke-width:3;stroke-linecap:butt;stroke-linejoin:miter;stroke-miterlimit:4;stroke-dasharray:none;stroke-opacity:1"
             d="M 0,0 H 136.7235" /></g></g></g><g
       id="g270"><g
         clip-path="url(#clipPath276)"
         id="g272"><g
           transform="matrix(1,0,0,-1,551.8133,569.0217)"
           id="g278"><path
             id="path280"
             style="fill:none;stroke:#929292;stroke-width:3;stroke-linecap:butt;stroke-linejoin:miter;stroke-miterlimit:4;stroke-dasharray:none;stroke-opacity:1"
             d="M 0,0 H 136.7235" /></g></g></g><g
       id="g282"><g
         clip-path="url(#clipPath288)"
         id="g284"><g
           transform="matrix(1,0,0,-1,633.4378,722.5271)"
           id="g290"><path
             id="path292"
             style="fill:none;stroke:#929292;stroke-width:3;stroke-linecap:butt;stroke-linejoin:miter;stroke-miterlimit:4;stroke-dasharray:none;stroke-opacity:1"
             d="M 0,0 H 125.93 V 14.13363 H 0 Z" /></g></g></g><g
       id="g294"><g
         clip-path="url(#clipPath300)"
         id="g296"><g
           transform="matrix(1,0,0,-1,766.7748,357.2686)"
           id="g302"><path
             id="path304"
             style="fill:none;stroke:#929292;stroke-width:3;stroke-linecap:butt;stroke-linejoin:miter;stroke-miterlimit:4;stroke-dasharray:none;stroke-opacity:1"
             d="M 0,0 H 73.09929 V 14.13363 H 0 Z" /></g></g></g><g
       id="g306"><g
         clip-path="url(#clipPath312)"
         id="g308"><g
           transform="matrix(1,0,0,-1,1053.714,760.1167)"
           id="g314"><path
             id="path316"
             style="fill:none;stroke:#000000;stroke-width:3;stroke-linecap:butt;stroke-linejoin:miter;stroke-miterlimit:4;stroke-dasharray:none;stroke-opacity:1"
             d="M 0,0 H 343.5373 V 440.2335 H 0 Z" /></g></g></g><g
       id="g318"><g
         clip-path="url(#clipPath324)"
         id="g320"><g
           transform="matrix(1,0,0,-1,1082.778,675.954)"
           id="g326"><path
             id="path328"
             style="fill:none;stroke:#929292;stroke-width:3;stroke-linecap:butt;stroke-linejoin:miter;stroke-miterlimit:4;stroke-dasharray:none;stroke-opacity:1"
             d="M 0,0 H 136.7235" /></g></g></g><g
       id="g330"><g
         clip-path="url(#clipPath336)"
         id="g332"><g
           transform="matrix(1,0,0,-1,1082.778,662.7606)"
           id="g338"><path
             id="path340"
             style="fill:none;stroke:#929292;stroke-width:3;stroke-linecap:butt;stroke-linejoin:miter;stroke-miterlimit:4;stroke-dasharray:none;stroke-opacity:1"
             d="M 0,0 H 136.7235" /></g></g></g><g
       id="g342"><g
         clip-path="url(#clipPath348)"
         id="g344"><g
           transform="matrix(1,0,0,-1,1082.778,649.5672)"
           id="g350"><path
             id="path352"
             style="fill:none;stroke:#929292;stroke-width:3;stroke-linecap:butt;stroke-linejoin:miter;stroke-miterlimit:4;stroke-dasharray:none;stroke-opacity:1"
             d="M 0,0 H 136.7235" /></g></g></g><g
       id="g354"><g
         clip-path="url(#clipPath360)"
         id="g356"><g
           transform="matrix(1,0,0,-1,1082.778,636.3737)"
           id="g362"><path
             id="path364"
             style="fill:none;stroke:#929292;stroke-width:3;stroke-linecap:butt;stroke-linejoin:miter;stroke-miterlimit:4;stroke-dasharray:none;stroke-opacity:1"
             d="M 0,0 H 136.7235" /></g></g></g><g
       id="g366"><g
         clip-path="url(#clipPath372)"
         id="g368"><g
           transform="matrix(1,0,0,-1,1082.778,623.1803)"
           id="g374"><path
             id="path376"
             style="fill:none;stroke:#929292;stroke-width:3;stroke-linecap:butt;stroke-linejoin:miter;stroke-miterlimit:4;stroke-dasharray:none;stroke-opacity:1"
             d="M 0,0 H 136.7235" /></g></g></g><g
       id="g378"><g
         clip-path="url(#clipPath384)"
         id="g380"><g
           transform="matrix(1,0,0,-1,1082.778,609.9869)"
           id="g386"><path
             id="path388"
             style="fill:none;stroke:#929292;stroke-width:3;stroke-linecap:butt;stroke-linejoin:miter;stroke-miterlimit:4;stroke-dasharray:none;stroke-opacity:1"
             d="M 0,0 H 136.7235" /></g></g></g><g
       id="g390"><g
         clip-path="url(#clipPath396)"
         id="g392"><g
           transform="matrix(1,0,0,-1,1082.778,596.7935)"
           id="g398"><path
             id="path400"
             style="fill:none;stroke:#929292;stroke-width:3;stroke-linecap:butt;stroke-linejoin:miter;stroke-miterlimit:4;stroke-dasharray:none;stroke-opacity:1"
             d="M 0,0 H 136.7235" /></g></g></g><g
       id="g402"><g
         clip-path="url(#clipPath408)"
         id="g404"><g
           id="g410" /><g
           id="g432"><g
             style="opacity:0.35820001"
             id="g430"
             clip-path="url(#clipPath414)"><g
               id="g420" /><g
               id="g428"><g
                 id="g426"
                 clip-path="url(#clipPath418)"><path
                   id="path422"
                   style="fill:#000000;fill-opacity:0;fill-rule:nonzero;stroke:none"
                   d="m 1113.744,394.2666 h 145.9277 V 525.9574 H 1113.744 Z" /><path
                   id="path424"
                   style="fill:#000000;fill-opacity:1;fill-rule:nonzero;stroke:none"
                   d="m 1226.061,416.9743 c -1.639,0 -2.966,1.328 -2.966,2.9661 0,1.638 1.327,2.966 2.966,2.966 h 5.682 v 22.3755 h -5.504 c -1.639,0 -2.966,1.328 -2.966,2.9661 0,1.638 1.327,2.966 2.966,2.966 h 5.504 v 31.4159 h -23.277 v -31.4753 h 5.517 c 1.636,-0.002 2.962,-1.3295 2.962,-2.966 0,-1.6365 -1.326,-2.9637 -2.962,-2.966 h -5.517 v -6.1455 c 0,-1.6381 -1.328,-2.9661 -2.966,-2.9661 -1.638,0 -2.966,1.328 -2.966,2.9661 v 43.5528 h -39.756 v -21.1535 h 19.481 c 0.782,0.003 1.533,-0.3055 2.088,-0.8576 0.554,-0.5521 0.866,-1.3023 0.866,-2.0847 v -35.6515 h 17.25 v 5.505 c 0,1.638 1.328,2.966 2.966,2.966 1.638,0 2.966,-1.328 2.966,-2.966 v -5.505 h 6.988 c 1.638,0 2.966,-1.3279 2.966,-2.966 0,-1.6381 -1.328,-2.966 -2.966,-2.966 h -55.559 c -1.632,0 -2.955,1.3226 -2.955,2.9542 v 65.7149 c 0.01,1.6288 1.326,2.9476 2.955,2.9541 h 74.933 c 1.605,-0.0385 2.889,-1.3481 2.895,-2.9541 v -65.6912 c 0,-1.6086 -1.287,-2.9218 -2.895,-2.9541 z m -106.018,11.4607 0.333,0.2373 c 0.605,0.5349 1.247,1.0265 1.922,1.4711 1.371,0.9004 2.85,1.6258 4.401,2.1593 1.363,0.4735 2.759,0.8463 4.176,1.1152 v 86.4889 c -10.986,-1.6847 -10.915,-12.7183 -10.855,-22.9926 0.284,-14.2368 -0.641,-51.7509 0,-68.4792 z m 16.61,2.444 c -0.045,-0.633 -0.291,-1.2353 -0.7,-1.7203 -0.456,-0.5291 -1.088,-0.8748 -1.779,-0.9728 v 0 c -1.605,-0.2278 -3.191,-0.5728 -4.746,-1.0322 -1.38,-0.401 -2.695,-1.0005 -3.903,-1.7796 -1.166,-0.7849 -2.193,-1.7593 -3.038,-2.883 -1.023,-1.3834 -1.861,-2.8951 -2.491,-4.4964 -0.113,-2.1791 0.05,-4.3637 0.486,-6.5016 0.373,-1.8478 1.111,-3.6026 2.172,-5.1608 v 0 c 1.096,-1.5296 2.529,-2.7877 4.188,-3.6778 2.099,-1.1155 4.374,-1.862 6.726,-2.2068 h 120.065 v 102.968 H 1136.712 V 430.879 Z m 0,78.3027 h 118.641 c 0.549,-0.003 1.093,-0.1118 1.601,-0.3204 1.034,-0.4331 1.857,-1.2555 2.29,-2.2897 0.21,-0.5122 0.318,-1.0601 0.32,-1.6135 v -106.29 c 0,-0.5495 -0.111,-1.0932 -0.32,-1.6016 -0.217,-0.5077 -0.527,-0.9704 -0.914,-1.3644 v 0 c -0.394,-0.3867 -0.856,-0.6965 -1.364,-0.9135 -0.507,-0.2139 -1.052,-0.3229 -1.602,-0.3203 h -121.891 c -2.986,0.1558 -5.894,1.0178 -8.483,2.5152 -2.752,1.4316 -5.151,3.458 -7.023,5.932 -1.484,2.148 -2.532,4.5666 -3.085,7.1184 -0.582,2.8077 -0.789,5.68 -0.617,8.5421 0,25.4958 -1.044,53.1272 0,78.3027 0,6.7625 -0.083,13.7978 2.278,19.2672 2.361,5.4693 7.285,9.6217 17.001,9.8115 h 0.309 c 1.612,0 2.918,-1.3067 2.918,-2.9185 v -13.8216 z m 26.101,-53.6374 v -32.6617 h 16.55 v 32.6973 z" /></g></g></g></g></g></g><g
       id="g434"><g
         clip-path="url(#clipPath440)"
         id="g436"><g
           transform="matrix(1,0,0,-1,1126.23,512.5292)"
           id="g442"><path
             id="path444"
             style="fill:none;stroke:#929292;stroke-width:3;stroke-linecap:butt;stroke-linejoin:miter;stroke-miterlimit:4;stroke-dasharray:none;stroke-opacity:1"
             d="M 0,0 H 202.276 V 131.9838 H 0 Z" /></g></g></g><g
       id="g446"><g
         clip-path="url(#clipPath452)"
         id="g448"><g
           transform="matrix(1,0,0,-1,1269.077,404.4309)"
           id="g454"><path
             id="path456"
             style="fill:none;stroke:#929292;stroke-width:2;stroke-linecap:butt;stroke-linejoin:miter;stroke-miterlimit:4;stroke-dasharray:none;stroke-opacity:1"
             d="M 0,0 H 47.78554 V 14.66547 H 0 Z" /></g></g></g><g
       id="g458"><g
         clip-path="url(#clipPath464)"
         id="g460"><path
           id="path466"
           style="fill:#f496a8;fill-opacity:0;fill-rule:nonzero;stroke:none"
           d="m 1242.014,662.5174 h 41.509 v 15.2386 h -41.509 z" /><path
           id="path468"
           style="fill:#db70ec;fill-opacity:0;fill-rule:nonzero;stroke:none"
           d="m 1283.523,662.5174 h 41.508 v 15.2386 h -41.508 z" /><path
           id="path470"
           style="fill:#66d0ae;fill-opacity:0;fill-rule:nonzero;stroke:none"
           d="m 1325.031,662.5174 h 41.509 v 15.2386 h -41.509 z" /><path
           id="path472"
           style="fill:#e87b37;fill-opacity:0;fill-rule:nonzero;stroke:none"
           d="m 1242.014,632.3316 h 41.509 v 30.1858 h -41.509 z" /><path
           id="path474"
           style="fill:#f2eb26;fill-opacity:0;fill-rule:nonzero;stroke:none"
           d="m 1283.523,632.3316 h 41.508 v 30.1858 h -41.508 z" /><path
           id="path476"
           style="fill:#e1a36e;fill-opacity:0;fill-rule:nonzero;stroke:none"
           d="m 1325.031,632.3316 h 41.509 v 30.1858 h -41.509 z" /><path
           id="path478"
           style="fill:#9e48c8;fill-opacity:0;fill-rule:nonzero;stroke:none"
           d="m 1242.014,601.2467 h 41.509 v 31.0849 h -41.509 z" /><path
           id="path480"
           style="fill:#4e723a;fill-opacity:0;fill-rule:nonzero;stroke:none"
           d="m 1283.523,601.2467 h 41.508 v 31.0849 h -41.508 z" /><path
           id="path482"
           style="fill:#30468e;fill-opacity:0;fill-rule:nonzero;stroke:none"
           d="m 1325.031,601.2467 h 41.509 v 31.0849 h -41.509 z" /><path
           id="path484"
           style="fill:#6a2be7;fill-opacity:0;fill-rule:nonzero;stroke:none"
           d="m 1242.014,570.3477 h 41.509 v 30.899 h -41.509 z" /><path
           id="path486"
           style="fill:#1a207e;fill-opacity:0;fill-rule:nonzero;stroke:none"
           d="m 1283.523,570.3477 h 41.508 v 30.899 h -41.508 z" /><path
           id="path488"
           style="fill:#c2fbee;fill-opacity:0;fill-rule:nonzero;stroke:none"
           d="m 1325.031,570.3477 h 41.509 v 30.899 h -41.509 z" /><path
           id="path490"
           style="fill:#af62bf;fill-opacity:0;fill-rule:nonzero;stroke:none"
           d="m 1242.014,543.4957 h 41.509 v 26.852 h -41.509 z" /><path
           id="path492"
           style="fill:#5e4b3b;fill-opacity:0;fill-rule:nonzero;stroke:none"
           d="m 1283.523,543.4957 h 41.508 v 26.852 h -41.508 z" /><path
           id="path494"
           style="fill:#953e27;fill-opacity:0;fill-rule:nonzero;stroke:none"
           d="m 1325.031,543.4957 h 41.509 v 26.852 h -41.509 z" /><g
           transform="matrix(1,0,0,-1,1239.014,680.756)"
           id="g496"><path
             id="path498"
             style="fill:none;stroke:#929292;stroke-width:2;stroke-linecap:butt;stroke-linejoin:miter;stroke-miterlimit:4;stroke-dasharray:none;stroke-opacity:1"
             d="M 44.50852,1.5 V 138.7603" /></g><g
           transform="matrix(1,0,0,-1,1239.014,680.756)"
           id="g500"><path
             id="path502"
             style="fill:none;stroke:#929292;stroke-width:2;stroke-linecap:butt;stroke-linejoin:miter;stroke-miterlimit:4;stroke-dasharray:none;stroke-opacity:1"
             d="M 86.01704,1.5 V 138.7603" /></g><g
           transform="matrix(1,0,0,-1,1239.014,680.756)"
           id="g504"><path
             id="path506"
             style="fill:none;stroke:#929292;stroke-width:2;stroke-linecap:butt;stroke-linejoin:miter;stroke-miterlimit:4;stroke-dasharray:none;stroke-opacity:1"
             d="M 1.5,18.23863 H 129.0256" /></g><g
           transform="matrix(1,0,0,-1,1239.014,680.756)"
           id="g508"><path
             id="path510"
             style="fill:none;stroke:#929292;stroke-width:2;stroke-linecap:butt;stroke-linejoin:miter;stroke-miterlimit:4;stroke-dasharray:none;stroke-opacity:1"
             d="M 1.5,48.42442 H 129.0256" /></g><g
           transform="matrix(1,0,0,-1,1239.014,680.756)"
           id="g512"><path
             id="path514"
             style="fill:none;stroke:#929292;stroke-width:2;stroke-linecap:butt;stroke-linejoin:miter;stroke-miterlimit:4;stroke-dasharray:none;stroke-opacity:1"
             d="M 1.5,79.50928 H 129.0256" /></g><g
           transform="matrix(1,0,0,-1,1239.014,680.756)"
           id="g516"><path
             id="path518"
             style="fill:none;stroke:#929292;stroke-width:2;stroke-linecap:butt;stroke-linejoin:miter;stroke-miterlimit:4;stroke-dasharray:none;stroke-opacity:1"
             d="M 1.5,110.4083 H 129.0256" /></g><g
           transform="matrix(1,0,0,-1,1239.014,680.756)"
           id="g520"><path
             id="path522"
             style="fill:none;stroke:#929292;stroke-width:3;stroke-linecap:butt;stroke-linejoin:miter;stroke-miterlimit:4;stroke-dasharray:none;stroke-opacity:1"
             d="M 3,1.5 V 138.7603" /></g><g
           transform="matrix(1,0,0,-1,1239.014,680.756)"
           id="g524"><path
             id="path526"
             style="fill:none;stroke:#929292;stroke-width:3;stroke-linecap:butt;stroke-linejoin:miter;stroke-miterlimit:4;stroke-dasharray:none;stroke-opacity:1"
             d="M 127.5256,1.5 V 138.7603" /></g><g
           transform="matrix(1,0,0,-1,1239.014,680.756)"
           id="g528"><path
             id="path530"
             style="fill:none;stroke:#929292;stroke-width:3;stroke-linecap:butt;stroke-linejoin:miter;stroke-miterlimit:4;stroke-dasharray:none;stroke-opacity:1"
             d="M 1.5,3 H 129.0256" /></g><g
           transform="matrix(1,0,0,-1,1239.014,680.756)"
           id="g532"><path
             id="path534"
             style="fill:none;stroke:#929292;stroke-width:3;stroke-linecap:butt;stroke-linejoin:miter;stroke-miterlimit:4;stroke-dasharray:none;stroke-opacity:1"
             d="M 1.5,137.2603 H 129.0256" /></g></g></g><g
       id="g536"><g
         clip-path="url(#clipPath542)"
         id="g538"><g
           transform="matrix(1,0,0,-1,1082.778,582.2151)"
           id="g544"><path
             id="path546"
             style="fill:none;stroke:#929292;stroke-width:3;stroke-linecap:butt;stroke-linejoin:miter;stroke-miterlimit:4;stroke-dasharray:none;stroke-opacity:1"
             d="M 0,0 H 136.7235" /></g></g></g><g
       id="g548"><g
         clip-path="url(#clipPath554)"
         id="g550"><g
           transform="matrix(1,0,0,-1,1082.778,569.0217)"
           id="g556"><path
             id="path558"
             style="fill:none;stroke:#929292;stroke-width:3;stroke-linecap:butt;stroke-linejoin:miter;stroke-miterlimit:4;stroke-dasharray:none;stroke-opacity:1"
             d="M 0,0 H 136.7235" /></g></g></g><g
       id="g560"><g
         clip-path="url(#clipPath566)"
         id="g562"><g
           transform="matrix(1,0,0,-1,1164.403,722.5271)"
           id="g568"><path
             id="path570"
             style="fill:none;stroke:#929292;stroke-width:3;stroke-linecap:butt;stroke-linejoin:miter;stroke-miterlimit:4;stroke-dasharray:none;stroke-opacity:1"
             d="M 0,0 H 125.93 V 14.13363 H 0 Z" /></g></g></g><g
       id="g572"><g
         clip-path="url(#clipPath578)"
         id="g574"><g
           transform="matrix(1,0,0,-1,1297.74,357.2686)"
           id="g580"><path
             id="path582"
             style="fill:none;stroke:#929292;stroke-width:3;stroke-linecap:butt;stroke-linejoin:miter;stroke-miterlimit:4;stroke-dasharray:none;stroke-opacity:1"
             d="M 0,0 H 73.09929 V 14.13363 H 0 Z" /></g></g></g><g
       id="g584"><g
         clip-path="url(#clipPath590)"
         id="g586"><path
           id="path592"
           style="fill:#fae232;fill-opacity:0.69660004;fill-rule:nonzero;stroke:none"
           d="m 1077.789,562.4969 h 146.4836 V 684.198 H 1077.789 Z" /></g></g><g
       id="g594"><g
         clip-path="url(#clipPath600)"
         id="g596"><path
           id="path602"
           style="fill:#fae232;fill-opacity:0.69660004;fill-rule:nonzero;stroke:none"
           d="M 1235.929,536.4386 H 1372.19 V 684.198 h -136.261 z" /></g></g><g
       id="g604"><g
         clip-path="url(#clipPath610)"
         id="g606"><path
           id="path612"
           style="fill:#fae232;fill-opacity:0.69660004;fill-rule:nonzero;stroke:none"
           d="m 1122.45,375.5052 h 210.0643 V 518.9548 H 1122.45 Z" /></g></g><g
       id="g614"><g
         clip-path="url(#clipPath620)"
         id="g616"><path
           id="path622"
           style="fill:#fae232;fill-opacity:0.69660004;fill-rule:nonzero;stroke:none"
           d="m 1293.698,339.342 h 81.6134 v 21.84951 h -81.6134 z" /></g></g><g
       id="g624"><g
         clip-path="url(#clipPath630)"
         id="g626"><path
           id="path632"
           style="fill:#fae232;fill-opacity:0.69660004;fill-rule:nonzero;stroke:none"
           d="m 1160.197,704.2501 h 134.571 v 21.84951 h -134.571 z" /></g></g><g
       id="g634"><g
         clip-path="url(#clipPath640)"
         id="g636"><g
           transform="matrix(1,0,0,-1,906.8073,540)"
           id="g642"><path
             id="path644"
             style="fill:none;stroke:#000000;stroke-width:9;stroke-linecap:butt;stroke-linejoin:miter;stroke-miterlimit:4;stroke-dasharray:none;stroke-opacity:1"
             d="m 0,0 h 71.58542 4.5" /></g><path
           id="path646"
           style="fill:#000000;fill-opacity:1;fill-rule:nonzero;stroke:none"
           d="m 978.3927,522.6 34.8003,17.4 -34.8003,17.4 z" /></g></g></g></svg>