<?xml version="1.0" encoding="UTF-8" standalone="no"?>
<svg
   xmlns:dc="http://purl.org/dc/elements/1.1/"
   xmlns:cc="http://creativecommons.org/ns#"
   xmlns:rdf="http://www.w3.org/1999/02/22-rdf-syntax-ns#"
   xmlns:svg="http://www.w3.org/2000/svg"
   xmlns="http://www.w3.org/2000/svg"
   viewBox="0 0 861.79279 559.32349"
   height="559.32349"
   width="861.79279"
   xml:space="preserve"
   id="svg2"
   version="1.1"><metadata
     id="metadata8"><rdf:RDF><cc:Work
         rdf:about=""><dc:format>image/svg+xml</dc:format><dc:type
           rdf:resource="http://purl.org/dc/dcmitype/StillImage" /></cc:Work></rdf:RDF></metadata><defs
     id="defs6"><clipPath
       id="clipPath14"
       clipPathUnits="userSpaceOnUse"><path
         id="path12"
         d="M 0,0 H 1920 V 1080 H 0 Z" /></clipPath><clipPath
       id="clipPath24"
       clipPathUnits="userSpaceOnUse"><path
         id="path22"
         d="M 0,0 H 1920 V 1080 H 0 Z" /></clipPath><clipPath
       id="clipPath34"
       clipPathUnits="userSpaceOnUse"><path
         id="path32"
         d="m 642.3879,338.99 h 331.508 v 402.02 h -331.508 z" /></clipPath><clipPath
       id="clipPath54"
       clipPathUnits="userSpaceOnUse"><path
         id="path52"
         d="m 1159.9,352.7096 h 117.712 v 387.556 H 1159.9 Z" /></clipPath><clipPath
       id="clipPath68"
       clipPathUnits="userSpaceOnUse"><path
         id="path66"
         d="m 958.7567,405.8374 h 216.7866 V 682.236 H 958.7567 Z" /></clipPath><clipPath
       id="clipPath80"
       clipPathUnits="userSpaceOnUse"><path
         id="path78"
         d="m 978.1745,625.3507 h 86.2884 v 5 h -86.2884 z" /></clipPath><clipPath
       id="clipPath92"
       clipPathUnits="userSpaceOnUse"><path
         id="path90"
         d="m 978.1745,617.2172 h 86.2884 v 5 h -86.2884 z" /></clipPath><clipPath
       id="clipPath104"
       clipPathUnits="userSpaceOnUse"><path
         id="path102"
         d="m 978.1745,609.0836 h 86.2884 v 5 h -86.2884 z" /></clipPath><clipPath
       id="clipPath116"
       clipPathUnits="userSpaceOnUse"><path
         id="path114"
         d="m 978.1745,600.95 h 86.2884 v 5 h -86.2884 z" /></clipPath><clipPath
       id="clipPath128"
       clipPathUnits="userSpaceOnUse"><path
         id="path126"
         d="m 978.1745,592.8164 h 86.2884 v 5 h -86.2884 z" /></clipPath><clipPath
       id="clipPath140"
       clipPathUnits="userSpaceOnUse"><path
         id="path138"
         d="m 978.1745,584.6828 h 86.2884 v 5 h -86.2884 z" /></clipPath><clipPath
       id="clipPath152"
       clipPathUnits="userSpaceOnUse"><path
         id="path150"
         d="m 978.1745,576.5492 h 86.2884 v 5 h -86.2884 z" /></clipPath><clipPath
       id="clipPath164"
       clipPathUnits="userSpaceOnUse"><path
         id="path162"
         d="m 1019.379,463.1366 h 63.1251 v 54.96418 h -63.1251 z" /></clipPath><clipPath
       id="clipPath170"
       clipPathUnits="userSpaceOnUse"><path
         id="path168"
         d="m 1019,463 h 64 v 56 h -64 z" /></clipPath><clipPath
       id="clipPath174"
       clipPathUnits="userSpaceOnUse"><path
         id="path172"
         d="m 1019,463 h 64 v 56 h -64 z" /></clipPath><clipPath
       id="clipPath196"
       clipPathUnits="userSpaceOnUse"><path
         id="path194"
         d="m 1003.462,443.2349 h 129.7007 v 86.36644 H 1003.462 Z" /></clipPath><clipPath
       id="clipPath208"
       clipPathUnits="userSpaceOnUse"><path
         id="path206"
         d="m 1092.025,449.4189 h 33.4592 v 13.04108 h -33.4592 z" /></clipPath><clipPath
       id="clipPath220"
       clipPathUnits="userSpaceOnUse"><path
         id="path218"
         d="m 1074.342,543.9617 h 81 v 88 h -81 z" /></clipPath><clipPath
       id="clipPath298"
       clipPathUnits="userSpaceOnUse"><path
         id="path296"
         d="m 978.1745,567.5618 h 86.2884 v 5 h -86.2884 z" /></clipPath><clipPath
       id="clipPath310"
       clipPathUnits="userSpaceOnUse"><path
         id="path308"
         d="m 978.1745,559.4283 h 86.2884 v 5 h -86.2884 z" /></clipPath><clipPath
       id="clipPath322"
       clipPathUnits="userSpaceOnUse"><path
         id="path320"
         d="m 1026.995,645.3493 h 82.6344 v 13.71321 h -82.6344 z" /></clipPath><clipPath
       id="clipPath334"
       clipPathUnits="userSpaceOnUse"><path
         id="path332"
         d="m 1109.196,420.1718 h 50.0648 v 13.71321 h -50.0648 z" /></clipPath></defs><g
     clip-path="url(#clipPath14)"
     transform="matrix(1.3333333,0,0,-1.3333333,-850.70053,1006.7291)"
     id="g10"><g
       id="g16" /><g
       id="g18"><g
         clip-path="url(#clipPath24)"
         id="g20"><path
           id="path26"
           style="fill:#ffffff;fill-opacity:1;fill-rule:nonzero;stroke:none"
           d="M 0,0 H 1920 V 1080 H 0 Z" /></g></g><g
       id="g28"><g
         clip-path="url(#clipPath34)"
         id="g30"><g
           transform="translate(709.8319,-63.64701)"
           id="g36"><text
             id="text40"
             style="font-style:italic;font-variant:normal;font-size:452px;font-family:STIXGeneral;-inkscape-font-specification:STIXGeneral-Italic;writing-mode:lr-tb;fill:#000000;fill-opacity:1;fill-rule:nonzero;stroke:none"
             transform="matrix(1,0,0,-1,0,497.201)"><tspan
               id="tspan38"
               y="0"
               x="0">f</tspan></text>
</g><g
           transform="translate(709.8319,-63.64701)"
           id="g42"><text
             id="text46"
             style="font-variant:normal;font-weight:normal;font-size:452px;font-family:STIXGeneral;-inkscape-font-specification:STIXGeneral-Regular;writing-mode:lr-tb;fill:#000000;fill-opacity:1;fill-rule:nonzero;stroke:none"
             transform="matrix(1,0,0,-1,125.656,497.201)"><tspan
               id="tspan44"
               y="0"
               x="0">(</tspan></text>
</g></g></g><g
       id="g48"><g
         clip-path="url(#clipPath54)"
         id="g50"><g
           transform="translate(1147.792,-63.48737)"
           id="g56"><text
             id="text60"
             style="font-variant:normal;font-weight:normal;font-size:452px;font-family:STIXGeneral;-inkscape-font-specification:STIXGeneral-Regular;writing-mode:lr-tb;fill:#000000;fill-opacity:1;fill-rule:nonzero;stroke:none"
             transform="matrix(1,0,0,-1,0,497.201)"><tspan
               id="tspan58"
               y="0"
               x="0">)</tspan></text>
</g></g></g><g
       id="g62"><g
         clip-path="url(#clipPath68)"
         id="g64"><g
           transform="matrix(1,0,0,-1,961.2567,679.7361)"
           id="g70"><path
             id="path72"
             style="fill:none;stroke:#000000;stroke-width:3;stroke-linecap:butt;stroke-linejoin:miter;stroke-miterlimit:4;stroke-dasharray:none;stroke-opacity:1"
             d="M 0,0 H 211.7866 V 271.3986 H 0 Z" /></g></g></g><g
       id="g74"><g
         clip-path="url(#clipPath80)"
         id="g76"><g
           transform="matrix(1,0,0,-1,979.1745,627.8507)"
           id="g82"><path
             id="path84"
             style="fill:none;stroke:#929292;stroke-width:3;stroke-linecap:butt;stroke-linejoin:miter;stroke-miterlimit:4;stroke-dasharray:none;stroke-opacity:1"
             d="M 0,0 H 84.2884" /></g></g></g><g
       id="g86"><g
         clip-path="url(#clipPath92)"
         id="g88"><g
           transform="matrix(1,0,0,-1,979.1745,619.7172)"
           id="g94"><path
             id="path96"
             style="fill:none;stroke:#929292;stroke-width:3;stroke-linecap:butt;stroke-linejoin:miter;stroke-miterlimit:4;stroke-dasharray:none;stroke-opacity:1"
             d="M 0,0 H 84.2884" /></g></g></g><g
       id="g98"><g
         clip-path="url(#clipPath104)"
         id="g100"><g
           transform="matrix(1,0,0,-1,979.1745,611.5836)"
           id="g106"><path
             id="path108"
             style="fill:none;stroke:#929292;stroke-width:3;stroke-linecap:butt;stroke-linejoin:miter;stroke-miterlimit:4;stroke-dasharray:none;stroke-opacity:1"
             d="M 0,0 H 84.2884" /></g></g></g><g
       id="g110"><g
         clip-path="url(#clipPath116)"
         id="g112"><g
           transform="matrix(1,0,0,-1,979.1745,603.45)"
           id="g118"><path
             id="path120"
             style="fill:none;stroke:#929292;stroke-width:3;stroke-linecap:butt;stroke-linejoin:miter;stroke-miterlimit:4;stroke-dasharray:none;stroke-opacity:1"
             d="M 0,0 H 84.2884" /></g></g></g><g
       id="g122"><g
         clip-path="url(#clipPath128)"
         id="g124"><g
           transform="matrix(1,0,0,-1,979.1745,595.3164)"
           id="g130"><path
             id="path132"
             style="fill:none;stroke:#929292;stroke-width:3;stroke-linecap:butt;stroke-linejoin:miter;stroke-miterlimit:4;stroke-dasharray:none;stroke-opacity:1"
             d="M 0,0 H 84.2884" /></g></g></g><g
       id="g134"><g
         clip-path="url(#clipPath140)"
         id="g136"><g
           transform="matrix(1,0,0,-1,979.1745,587.1828)"
           id="g142"><path
             id="path144"
             style="fill:none;stroke:#929292;stroke-width:3;stroke-linecap:butt;stroke-linejoin:miter;stroke-miterlimit:4;stroke-dasharray:none;stroke-opacity:1"
             d="M 0,0 H 84.2884" /></g></g></g><g
       id="g146"><g
         clip-path="url(#clipPath152)"
         id="g148"><g
           transform="matrix(1,0,0,-1,979.1745,579.0492)"
           id="g154"><path
             id="path156"
             style="fill:none;stroke:#929292;stroke-width:3;stroke-linecap:butt;stroke-linejoin:miter;stroke-miterlimit:4;stroke-dasharray:none;stroke-opacity:1"
             d="M 0,0 H 84.2884" /></g></g></g><g
       id="g158"><g
         clip-path="url(#clipPath164)"
         id="g160"><g
           id="g166" /><g
           id="g188"><g
             style="opacity:0.35820001"
             id="g186"
             clip-path="url(#clipPath170)"><g
               id="g176" /><g
               id="g184"><g
                 id="g182"
                 clip-path="url(#clipPath174)"><path
                   id="path178"
                   style="fill:#000000;fill-opacity:0;fill-rule:nonzero;stroke:none"
                   d="m 998.2644,454.1938 h 89.9627 v 81.18583 h -89.9627 z" /><path
                   id="path180"
                   style="fill:#000000;fill-opacity:1;fill-rule:nonzero;stroke:none"
                   d="m 1067.506,468.1929 c -1.009,0 -1.828,0.8187 -1.828,1.8285 0,1.0099 0.819,1.8285 1.828,1.8285 h 3.504 v 13.7943 h -3.394 c -1.01,0 -1.828,0.8186 -1.828,1.8285 0,1.0099 0.818,1.8285 1.828,1.8285 h 3.394 v 19.3676 h -14.35 v -19.4042 h 3.401 c 1.009,-10e-4 1.826,-0.8196 1.826,-1.8285 0,-1.0088 -0.817,-1.8271 -1.826,-1.8285 h -3.401 v -3.7886 c 0,-1.0099 -0.819,-1.8286 -1.829,-1.8286 -1.01,0 -1.828,0.8187 -1.828,1.8286 v 26.8498 h -24.51 v -13.0409 h 12.01 c 0.482,0.002 0.946,-0.1883 1.287,-0.5287 0.342,-0.3404 0.534,-0.8029 0.534,-1.2852 v -21.9787 h 10.635 v 3.3937 c 0,1.0099 0.818,1.8285 1.828,1.8285 1.01,0 1.829,-0.8186 1.829,-1.8285 v -3.3937 h 4.308 c 1.01,0 1.828,-0.8187 1.828,-1.8285 0,-1.0099 -0.818,-1.8285 -1.828,-1.8285 h -34.252 c -1.006,0 -1.821,0.8154 -1.821,1.8212 v 40.5124 c 0,1.0042 0.817,1.8172 1.821,1.8212 h 46.196 c 0.989,-0.0237 1.781,-0.8311 1.784,-1.8212 v -40.4978 c 0,-0.9917 -0.793,-1.8013 -1.784,-1.8212 z m -65.358,7.0654 0.205,0.1462 c 0.373,0.3298 0.769,0.6329 1.185,0.907 0.845,0.5551 1.757,1.0022 2.713,1.3311 0.841,0.292 1.701,0.5218 2.575,0.6876 v 53.3193 c -6.773,-1.0386 -6.729,-7.8407 -6.692,-14.1746 0.175,-8.7769 -0.395,-31.9038 0,-42.2166 z m 10.24,1.5067 c -0.028,-0.3903 -0.179,-0.7616 -0.432,-1.0606 -0.281,-0.3262 -0.671,-0.5393 -1.097,-0.5997 v 0 c -0.989,-0.1405 -1.967,-0.3531 -2.925,-0.6364 -0.851,-0.2472 -1.662,-0.6168 -2.407,-1.0971 -0.719,-0.4838 -1.352,-1.0845 -1.872,-1.7773 -0.631,-0.8528 -1.148,-1.7848 -1.536,-2.772 -0.07,-1.3433 0.031,-2.6901 0.3,-4.0081 0.229,-1.1392 0.684,-2.221 1.338,-3.1816 v 0 c 0.676,-0.943 1.56,-1.7186 2.582,-2.2673 1.294,-0.6877 2.697,-1.1479 4.147,-1.3605 h 74.018 v 63.4786 h -72.08 v -44.718 z m 0,48.2726 h 73.14 c 0.339,-0.002 0.674,-0.0689 0.988,-0.1975 0.637,-0.267 1.144,-0.774 1.411,-1.4116 0.13,-0.3157 0.197,-0.6535 0.198,-0.9947 v -65.5265 c 0,-0.3387 -0.069,-0.6739 -0.198,-0.9874 -0.134,-0.3129 -0.325,-0.5982 -0.563,-0.8411 v 0 c -0.243,-0.2384 -0.528,-0.4294 -0.841,-0.5631 -0.312,-0.1319 -0.648,-0.1991 -0.987,-0.1975 h -75.145 c -1.841,0.096 -3.633,0.6274 -5.229,1.5506 -1.697,0.8826 -3.176,2.1318 -4.33,3.657 -0.9154,1.3242 -1.5615,2.8152 -1.902,4.3884 -0.3587,1.7309 -0.4866,3.5016 -0.3803,5.2661 0,15.7179 -0.6437,32.7523 0,48.2727 0,4.169 -0.0512,8.5062 1.4043,11.8779 1.455,3.3718 4.491,5.9317 10.481,6.0488 h 0.19 c 0.994,0 1.799,-0.8056 1.799,-1.7993 v -8.5209 z m 16.091,-33.0668 v -20.1355 h 10.203 v 20.1575 z" /></g></g></g></g></g></g><g
       id="g190"><g
         clip-path="url(#clipPath196)"
         id="g192"><g
           transform="matrix(1,0,0,-1,1005.962,527.1013)"
           id="g198"><path
             id="path200"
             style="fill:none;stroke:#929292;stroke-width:3;stroke-linecap:butt;stroke-linejoin:miter;stroke-miterlimit:4;stroke-dasharray:none;stroke-opacity:1"
             d="M 0,0 H 124.7007 V 81.36644 H 0 Z" /></g></g></g><g
       id="g202"><g
         clip-path="url(#clipPath208)"
         id="g204"><g
           transform="matrix(1,0,0,-1,1094.025,460.46)"
           id="g210"><path
             id="path212"
             style="fill:none;stroke:#929292;stroke-width:2;stroke-linecap:butt;stroke-linejoin:miter;stroke-miterlimit:4;stroke-dasharray:none;stroke-opacity:1"
             d="M 0,0 H 29.4592 V 9.041083 H 0 Z" /></g></g></g><g
       id="g214"><g
         clip-path="url(#clipPath220)"
         id="g216"><path
           id="path222"
           style="fill:#bb20ca;fill-opacity:0;fill-rule:nonzero;stroke:none"
           d="m 1077.342,614.2265 h 24.888 v 14.7352 h -24.888 z" /><path
           id="path224"
           style="fill:#2abe13;fill-opacity:0;fill-rule:nonzero;stroke:none"
           d="m 1102.23,614.2265 h 24.888 v 14.7352 h -24.888 z" /><path
           id="path226"
           style="fill:#f20d85;fill-opacity:0;fill-rule:nonzero;stroke:none"
           d="m 1127.118,614.2265 h 24.889 v 14.7352 h -24.889 z" /><path
           id="path228"
           style="fill:#2d3dcb;fill-opacity:0;fill-rule:nonzero;stroke:none"
           d="m 1077.342,597.1515 h 24.888 v 17.075 h -24.888 z" /><path
           id="path230"
           style="fill:#bba7f7;fill-opacity:0;fill-rule:nonzero;stroke:none"
           d="m 1102.23,597.1515 h 24.888 v 17.075 h -24.888 z" /><path
           id="path232"
           style="fill:#a3c218;fill-opacity:0;fill-rule:nonzero;stroke:none"
           d="m 1127.118,597.1515 h 24.889 v 17.075 h -24.889 z" /><path
           id="path234"
           style="fill:#228514;fill-opacity:0;fill-rule:nonzero;stroke:none"
           d="m 1077.342,579.5678 h 24.888 v 17.5837 h -24.888 z" /><path
           id="path236"
           style="fill:#123476;fill-opacity:0;fill-rule:nonzero;stroke:none"
           d="m 1102.23,579.5678 h 24.888 v 17.5837 h -24.888 z" /><path
           id="path238"
           style="fill:#d192c1;fill-opacity:0;fill-rule:nonzero;stroke:none"
           d="m 1127.118,579.5678 h 24.889 v 17.5837 h -24.889 z" /><path
           id="path240"
           style="fill:#0d28ff;fill-opacity:0;fill-rule:nonzero;stroke:none"
           d="m 1077.342,562.0893 h 24.888 v 17.4785 h -24.888 z" /><path
           id="path242"
           style="fill:#34e320;fill-opacity:0;fill-rule:nonzero;stroke:none"
           d="m 1102.23,562.0893 h 24.888 v 17.4785 h -24.888 z" /><path
           id="path244"
           style="fill:#fe0ede;fill-opacity:0;fill-rule:nonzero;stroke:none"
           d="m 1127.118,562.0893 h 24.889 v 17.4785 h -24.889 z" /><path
           id="path246"
           style="fill:#1201eb;fill-opacity:0;fill-rule:nonzero;stroke:none"
           d="m 1077.342,546.9 h 24.888 v 15.1893 h -24.888 z" /><path
           id="path248"
           style="fill:#972e2a;fill-opacity:0;fill-rule:nonzero;stroke:none"
           d="m 1102.23,546.9 h 24.888 v 15.1893 h -24.888 z" /><path
           id="path250"
           style="fill:#64e9d1;fill-opacity:0;fill-rule:nonzero;stroke:none"
           d="m 1127.118,546.9 h 24.889 v 15.1893 h -24.889 z" /><g
           transform="matrix(1,0,0,-1,1074.342,631.9617)"
           id="g252"><path
             id="path254"
             style="fill:none;stroke:#929292;stroke-width:2;stroke-linecap:butt;stroke-linejoin:miter;stroke-miterlimit:4;stroke-dasharray:none;stroke-opacity:1"
             d="M 27.88832,1.5 V 86.56163" /></g><g
           transform="matrix(1,0,0,-1,1074.342,631.9617)"
           id="g256"><path
             id="path258"
             style="fill:none;stroke:#929292;stroke-width:2;stroke-linecap:butt;stroke-linejoin:miter;stroke-miterlimit:4;stroke-dasharray:none;stroke-opacity:1"
             d="M 52.77664,1.5 V 86.56163" /></g><g
           transform="matrix(1,0,0,-1,1074.342,631.9617)"
           id="g260"><path
             id="path262"
             style="fill:none;stroke:#929292;stroke-width:2;stroke-linecap:butt;stroke-linejoin:miter;stroke-miterlimit:4;stroke-dasharray:none;stroke-opacity:1"
             d="M 1.5,17.73514 H 79.16496" /></g><g
           transform="matrix(1,0,0,-1,1074.342,631.9617)"
           id="g264"><path
             id="path266"
             style="fill:none;stroke:#929292;stroke-width:2;stroke-linecap:butt;stroke-linejoin:miter;stroke-miterlimit:4;stroke-dasharray:none;stroke-opacity:1"
             d="M 1.5,34.8102 H 79.16496" /></g><g
           transform="matrix(1,0,0,-1,1074.342,631.9617)"
           id="g268"><path
             id="path270"
             style="fill:none;stroke:#929292;stroke-width:2;stroke-linecap:butt;stroke-linejoin:miter;stroke-miterlimit:4;stroke-dasharray:none;stroke-opacity:1"
             d="M 1.5,52.39384 H 79.16496" /></g><g
           transform="matrix(1,0,0,-1,1074.342,631.9617)"
           id="g272"><path
             id="path274"
             style="fill:none;stroke:#929292;stroke-width:2;stroke-linecap:butt;stroke-linejoin:miter;stroke-miterlimit:4;stroke-dasharray:none;stroke-opacity:1"
             d="M 1.5,69.87234 H 79.16496" /></g><g
           transform="matrix(1,0,0,-1,1074.342,631.9617)"
           id="g276"><path
             id="path278"
             style="fill:none;stroke:#929292;stroke-width:3;stroke-linecap:butt;stroke-linejoin:miter;stroke-miterlimit:4;stroke-dasharray:none;stroke-opacity:1"
             d="M 3,1.5 V 86.56163" /></g><g
           transform="matrix(1,0,0,-1,1074.342,631.9617)"
           id="g280"><path
             id="path282"
             style="fill:none;stroke:#929292;stroke-width:3;stroke-linecap:butt;stroke-linejoin:miter;stroke-miterlimit:4;stroke-dasharray:none;stroke-opacity:1"
             d="M 77.66496,1.5 V 86.56163" /></g><g
           transform="matrix(1,0,0,-1,1074.342,631.9617)"
           id="g284"><path
             id="path286"
             style="fill:none;stroke:#929292;stroke-width:3;stroke-linecap:butt;stroke-linejoin:miter;stroke-miterlimit:4;stroke-dasharray:none;stroke-opacity:1"
             d="M 1.5,3 H 79.16496" /></g><g
           transform="matrix(1,0,0,-1,1074.342,631.9617)"
           id="g288"><path
             id="path290"
             style="fill:none;stroke:#929292;stroke-width:3;stroke-linecap:butt;stroke-linejoin:miter;stroke-miterlimit:4;stroke-dasharray:none;stroke-opacity:1"
             d="M 1.5,85.06163 H 79.16496" /></g></g></g><g
       id="g292"><g
         clip-path="url(#clipPath298)"
         id="g294"><g
           transform="matrix(1,0,0,-1,979.1745,570.0618)"
           id="g300"><path
             id="path302"
             style="fill:none;stroke:#929292;stroke-width:3;stroke-linecap:butt;stroke-linejoin:miter;stroke-miterlimit:4;stroke-dasharray:none;stroke-opacity:1"
             d="M 0,0 H 84.28841" /></g></g></g><g
       id="g304"><g
         clip-path="url(#clipPath310)"
         id="g306"><g
           transform="matrix(1,0,0,-1,979.1745,561.9283)"
           id="g312"><path
             id="path314"
             style="fill:none;stroke:#929292;stroke-width:3;stroke-linecap:butt;stroke-linejoin:miter;stroke-miterlimit:4;stroke-dasharray:none;stroke-opacity:1"
             d="M 0,0 H 84.28841" /></g></g></g><g
       id="g316"><g
         clip-path="url(#clipPath322)"
         id="g318"><g
           transform="matrix(1,0,0,-1,1029.495,656.5625)"
           id="g324"><path
             id="path326"
             style="fill:none;stroke:#929292;stroke-width:3;stroke-linecap:butt;stroke-linejoin:miter;stroke-miterlimit:4;stroke-dasharray:none;stroke-opacity:1"
             d="M 0,0 H 77.63435 V 8.713212 H 0 Z" /></g></g></g><g
       id="g328"><g
         clip-path="url(#clipPath334)"
         id="g330"><g
           transform="matrix(1,0,0,-1,1111.696,431.385)"
           id="g336"><path
             id="path338"
             style="fill:none;stroke:#929292;stroke-width:3;stroke-linecap:butt;stroke-linejoin:miter;stroke-miterlimit:4;stroke-dasharray:none;stroke-opacity:1"
             d="M 0,0 H 45.06482 V 8.713212 H 0 Z" /></g></g></g></g></svg>