<?xml version="1.0" encoding="UTF-8" standalone="no"?>
<svg
   xmlns:dc="http://purl.org/dc/elements/1.1/"
   xmlns:cc="http://creativecommons.org/ns#"
   xmlns:rdf="http://www.w3.org/1999/02/22-rdf-syntax-ns#"
   xmlns:svg="http://www.w3.org/2000/svg"
   xmlns="http://www.w3.org/2000/svg"
   viewBox="0 0 2560 1440"
   height="1440"
   width="2560"
   xml:space="preserve"
   id="svg2"
   version="1.1"><metadata
     id="metadata8"><rdf:RDF><cc:Work
         rdf:about=""><dc:format>image/svg+xml</dc:format><dc:type
           rdf:resource="http://purl.org/dc/dcmitype/StillImage" /></cc:Work></rdf:RDF></metadata><defs
     id="defs6"><clipPath
       id="clipPath20"
       clipPathUnits="userSpaceOnUse"><path
         id="path18"
         d="M 0,0 H 1920 V 1080 H 0 Z" /></clipPath><clipPath
       id="clipPath30"
       clipPathUnits="userSpaceOnUse"><path
         id="path28"
         d="m 650.4314,420.2148 h 78.16934 v 93.04 H 650.4314 Z" /></clipPath><clipPath
       id="clipPath40"
       clipPathUnits="userSpaceOnUse"><path
         id="path38"
         d="m 650.4314,420.2148 h 78.16934 v 93.04 H 650.4314 Z" /></clipPath><clipPath
       id="clipPath50"
       clipPathUnits="userSpaceOnUse"><path
         id="path48"
         d="m 574.802,686.9173 h 78.16934 v 91.46304 H 574.802 Z" /></clipPath><clipPath
       id="clipPath60"
       clipPathUnits="userSpaceOnUse"><path
         id="path58"
         d="m 574.802,686.9173 h 78.16934 v 91.46303 H 574.802 Z" /></clipPath><clipPath
       id="clipPath70"
       clipPathUnits="userSpaceOnUse"><path
         id="path68"
         d="m 1147.562,637.5337 h 67.0031 v 81.39731 h -67.0031 z" /></clipPath><clipPath
       id="clipPath80"
       clipPathUnits="userSpaceOnUse"><path
         id="path78"
         d="m 1147.562,637.5337 h 67.0031 v 81.39731 h -67.0031 z" /></clipPath><clipPath
       id="clipPath90"
       clipPathUnits="userSpaceOnUse"><path
         id="path88"
         d="m 920.7225,325.3998 h 103.7894 v 78.58537 H 920.7225 Z" /></clipPath><clipPath
       id="clipPath102"
       clipPathUnits="userSpaceOnUse"><path
         id="path100"
         d="M 0,0 H 1920 V 1080 H 0 Z" /></clipPath><clipPath
       id="clipPath146"
       clipPathUnits="userSpaceOnUse"><path
         id="path144"
         d="m 895.211,561.8729 h 154.7999 V 688.3596 H 895.211 Z" /></clipPath><clipPath
       id="clipPath246"
       clipPathUnits="userSpaceOnUse"><path
         id="path244"
         d="M 0,0 H 1920 V 1080 H 0 Z" /></clipPath><clipPath
       id="clipPath284"
       clipPathUnits="userSpaceOnUse"><path
         id="path282"
         d="m 748.6534,713.138 h 81.39731 v 81.39731 H 748.6534 Z" /></clipPath><clipPath
       id="clipPath296"
       clipPathUnits="userSpaceOnUse"><path
         id="path294"
         d="M 0,0 H 1920 V 1080 H 0 Z" /></clipPath></defs><g
     transform="matrix(1.3333333,0,0,-1.3333333,0,1440)"
     id="g10"><g
       id="g12" /><g
       id="g14"><g
         clip-path="url(#clipPath20)"
         id="g16"><path
           id="path22"
           style="fill:#ffffff;fill-opacity:1;fill-rule:nonzero;stroke:none"
           d="M 0,1080 H 1920 V 0 H 0 Z" /></g></g><g
       id="g24"><g
         clip-path="url(#clipPath30)"
         id="g26"><path
           id="path32"
           style="fill:#000000;fill-opacity:0;fill-rule:nonzero;stroke:none"
           d="m 650.4314,420.1239 h 78.74478 v 93.13086 H 650.4314 Z" /></g></g><g
       id="g34"><g
         clip-path="url(#clipPath40)"
         id="g36"><path
           id="path42"
           style="fill:#000000;fill-opacity:1;fill-rule:evenodd;stroke:none"
           d="m 659.7142,497.0212 c 13.3336,14.7117 28.7116,22.7149 40.2583,9.6235 3.0286,-0.1438 5.7317,-1.1508 8.0032,-3.286 4.755,-4.4597 5.4743,-12.8112 3.3164,-19.4515 V 478.13 c 1.4689,-0.9615 2.4077,-2.7712 2.8469,-4.8382 0.2801,-1.3326 0.3483,-2.7939 0.2196,-4.1947 -0.1363,-1.4462 -0.4922,-2.8393 -1.0676,-3.9675 -0.8253,-1.6279 -2.0822,-2.7712 -3.7858,-3.0211 -1.6658,-1.7717 -3.2937,-3.6646 -4.755,-5.497 -1.5976,-2.0065 -2.9681,-3.9069 -3.907,-5.4591 -0.7268,-1.2039 -0.4997,-1.9913 -0.2347,-2.8848 0.1287,-0.4467 0.265,-0.9086 0.3635,-1.4235 2.915,-0.636 5.5575,-1.1281 7.9274,-1.5749 15.0448,-2.8166 19.7089,-3.6873 19.7089,-23.2524 0,-0.9994 -0.8101,-1.802 -1.802,-1.802 h -37.2902 -37.2826 c -0.9995,0 -1.8021,0.8101 -1.8021,1.802 0,19.5651 4.6641,20.4434 19.7089,23.26 2.3851,0.4467 5.0427,0.9465 7.9805,1.5825 0.0985,0.3861 0.2272,0.7496 0.3559,1.113 0.3029,0.8632 0.6057,1.7263 -0.2802,3.1801 -0.9388,1.5522 -2.3093,3.4526 -3.9069,5.4591 -1.4538,1.8323 -3.0892,3.7252 -4.755,5.497 -1.7036,0.2499 -2.9605,1.4008 -3.7858,3.0211 -0.5754,1.1357 -0.9313,2.5289 -1.0676,3.9675 -0.1363,1.4008 -0.0606,2.8621 0.2196,4.1947 0.4316,2.0595 1.3629,3.8539 2.8166,4.8231 l -1.9535,1.1585 c -0.5224,5.7922 0.9995,15.8474 -6.0497,17.7478 z m 47.9738,-11.5543 c -0.3256,2.3851 -0.9465,4.384 -1.8324,6.0573 -1.1357,1.4159 -2.7863,2.6198 -4.9064,4.172 l -0.2423,0.1741 c -0.4467,0.3332 -0.901,0.6436 -1.3553,0.9314 -7.1324,-4.6263 -10.5851,-3.5436 -16.3395,-4.49 -5.2169,-0.8556 -9.4494,-2.7939 -11.6679,-6.3375 0,-0.0908 0,-0.1892 0,-0.2801 v -8.7074 c 0,-0.8556 -0.5981,-1.5749 -1.4007,-1.7566 -0.7269,-0.2196 -1.2493,-1.3099 -1.5295,-2.6728 -0.2044,-0.9918 -0.2574,-2.0822 -0.159,-3.127 0.0984,-0.9995 0.3256,-1.9384 0.7042,-2.6728 0.3331,-0.6587 0.7647,-1.1055 1.2644,-1.113 h 0.106 c 0.5225,0.007 0.9995,-0.2045 1.3326,-0.5603 v 0 c 1.9081,-2.0065 3.7934,-4.172 5.444,-6.2466 1.6582,-2.0822 3.112,-4.1114 4.1568,-5.8377 1.7642,-2.9075 1.1812,-4.5657 0.6058,-6.2239 -0.1666,-0.477 -0.3332,-0.9616 -0.3332,-1.4159 0,-0.9086 -0.6739,-1.6582 -1.5446,-1.7869 -3.4754,-0.7799 -6.504,-1.3478 -9.1844,-1.8475 -12.319,-2.2942 -16.4531,-3.0741 -16.7484,-17.9068 h 35.4579 35.4579 c -0.2953,14.8327 -4.4294,15.6126 -16.7409,17.922 -2.7106,0.5073 -5.7847,1.0827 -9.3206,1.8777 -0.8329,0.1893 -1.4083,0.9313 -1.4008,1.7567 h -0.008 c 0,0.7041 -0.1818,1.3174 -0.3483,1.8929 -0.4922,1.6884 -0.9314,3.1876 0.6133,5.7392 1.0448,1.7264 2.4986,3.7556 4.1568,5.8378 1.6506,2.0746 3.5359,4.2401 5.444,6.2465 0.3861,0.4013 0.9086,0.5906 1.4234,0.5528 h 0.008 c 0.4997,0.007 0.9313,0.4543 1.2645,1.113 0.371,0.7344 0.6057,1.6733 0.7041,2.6728 0.0985,1.0449 0.0454,2.1352 -0.159,3.127 -0.2877,1.3857 -0.8253,2.4911 -1.5673,2.6804 -0.8177,0.2044 -1.3629,0.9389 -1.3629,1.749 v 0 8.4802 h 0.008 z" /></g></g><g
       id="g44"><g
         clip-path="url(#clipPath50)"
         id="g46"><path
           id="path52"
           style="fill:#000000;fill-opacity:0;fill-rule:nonzero;stroke:none"
           d="m 574.802,686.828 h 78.89878 v 91.55235 H 574.802 Z" /></g></g><g
       id="g54"><g
         clip-path="url(#clipPath60)"
         id="g56"><path
           id="path62"
           style="fill:#000000;fill-opacity:1;fill-rule:nonzero;stroke:none"
           d="m 578.7618,767.4834 h 15.2662 v 6.9372 0 h 0.007 c 0,1.0941 0.4466,2.0841 1.1612,2.7986 0.7071,0.7071 1.697,1.1537 2.7912,1.1537 v 0.008 0 h 29.4828 0.9081 l 0.655,-0.655 23.29,-23.3794 0.6476,-1.5556 v -51.5075 0 h -0.007 c 0,-1.0942 -0.4392,-2.0841 -1.1537,-2.7987 h -0.008 c -0.7071,-0.7146 -1.697,-1.1537 -2.7912,-1.1537 v -0.008 0 h -15.2662 v -6.4384 0 h -0.007 c 0,-1.0942 -0.4392,-2.0841 -1.1537,-2.7987 h -0.008 c -0.7145,-0.7071 -1.697,-1.1537 -2.7912,-1.1537 v -0.007 0 h -51.0237 v 0 0.007 c -1.0942,0 -2.0841,0.4466 -2.7987,1.1612 -0.7071,0.7145 -1.1537,1.697 -1.1537,2.7912 h -0.007 v 0 72.6315 0 h 0.007 c 0,1.0942 0.4466,2.0842 1.1612,2.7987 0.7071,0.7071 1.697,1.1537 2.7912,1.1537 v 0.0149 0 0 z m 19.68,0 h 9.8028 0.9081 l 0.655,-0.655 23.2901,-23.3793 0.6475,-1.5557 V 701.7369 H 648.55 v 49.669 h -18.1244 v 0 0 c -1.3249,0 -2.5233,0.5508 -3.3941,1.444 -0.8709,0.8858 -1.4142,2.1139 -1.4142,3.4612 v 0 0 17.648 h -27.1755 v -6.4757 z m 27.2648,8.6863 h 1.764 l 23.2901,-23.3793 v -1.2952 h -20.3351 c -2.5977,0 -4.7265,2.1735 -4.7265,4.8233 v 19.8512 h 0.007 z m 3.6249,-35.6607 h -18.1244 v 0 0 c -1.3249,0 -2.5233,0.5508 -3.3942,1.444 -0.8708,0.8857 -1.4142,2.1139 -1.4142,3.4611 v 0 0 17.648 H 594.028 579.2233 v -71.7235 h 50.1082 v 5.9845 2.2106 40.9753 z" /></g></g><g
       id="g64"><g
         clip-path="url(#clipPath70)"
         id="g66"><path
           id="path72"
           style="fill:#000000;fill-opacity:0;fill-rule:nonzero;stroke:none"
           d="m 1147.562,637.4542 h 67.5661 v 81.4768 h -67.5661 z" /></g></g><g
       id="g74"><g
         clip-path="url(#clipPath80)"
         id="g76"><path
           id="path82"
           style="fill:#000000;fill-opacity:1;fill-rule:nonzero;stroke:none"
           d="m 1159.505,700.92 c 5.471,-1.8282 13.089,-2.9543 21.548,-2.9543 8.459,0 16.077,1.1327 21.549,2.9543 4.802,1.6031 7.776,3.5439 7.776,5.4451 0,1.9011 -2.967,3.842 -7.776,5.445 -5.472,1.8216 -13.09,2.9544 -21.549,2.9544 -8.459,0 -16.077,-1.1328 -21.548,-2.9544 -10.188,-3.4048 -10.473,-7.3925 0,-10.8901 z m 50.88,-38.6849 c -1.709,-1.1725 -3.889,-2.1992 -6.465,-3.0603 -5.896,-1.9674 -13.984,-3.1862 -22.867,-3.1862 -8.883,0 -16.971,1.2188 -22.866,3.1862 -2.544,0.8479 -4.71,1.868 -6.412,3.0139 v -12.4864 c 0.377,-1.7687 3.259,-3.5572 7.73,-5.0476 5.471,-1.8283 13.089,-2.9544 21.548,-2.9544 8.459,0 16.077,1.1327 21.549,2.9544 3.318,1.1062 5.756,2.378 6.955,3.6764 0.987,1.0731 0.828,1.7819 0.828,3.0736 v 10.8304 z m -62.823,44.13 c 0,3.8883 4.06,7.1871 10.625,9.3797 5.895,1.9674 13.983,3.1862 22.866,3.1862 8.883,0 16.971,-1.2188 22.867,-3.1862 5.975,-1.9938 9.876,-4.9084 10.525,-8.353 0.08,-0.2186 0.12,-0.4571 0.12,-0.7022 v -57.4577 c 0,-3.9811 -7.611,-7.5051 -10.645,-8.5186 -5.896,-1.9674 -13.984,-3.1862 -22.867,-3.1862 -8.883,0 -16.971,1.2188 -22.866,3.1862 -3.107,1.04 -10.579,4.4448 -10.579,8.5186 0,0.477 0,0.8744 0,1.3315 0,18.6072 -0.046,37.2077 -0.046,55.8017 z m 4.213,-38.2014 c 0.377,-1.7686 3.259,-3.5572 7.73,-5.0476 5.471,-1.8282 13.089,-2.9543 21.548,-2.9543 8.459,0 16.077,1.1327 21.549,2.9543 4.802,1.6031 7.776,3.5439 7.776,5.4451 h 0.02 v 12.1287 c -1.709,-1.1724 -3.902,-2.1992 -6.478,-3.0603 -5.896,-1.9674 -13.984,-3.1862 -22.867,-3.1862 -8.883,0 -16.971,1.2188 -22.866,3.1862 -2.544,0.8479 -4.71,1.868 -6.412,3.014 v -12.4799 z m 0,18.4548 c 0.377,-1.7686 3.259,-3.5571 7.73,-5.0476 5.471,-1.8282 13.089,-2.9543 21.548,-2.9543 8.459,0 16.077,1.1327 21.549,2.9543 4.802,1.6031 7.776,3.544 7.776,5.4451 h 0.02 v 13.023 c -1.709,-1.1725 -3.902,-2.1992 -6.478,-3.0603 -5.896,-1.9674 -13.984,-3.1862 -22.867,-3.1862 -8.883,0 -16.971,1.2188 -22.866,3.1862 -2.544,0.8479 -4.71,1.868 -6.412,3.014 v -13.3742 z" /></g></g><g
       id="g84"><g
         clip-path="url(#clipPath90)"
         id="g86"><path
           id="path92"
           style="fill:#000000;fill-opacity:0;fill-rule:nonzero;stroke:none"
           d="m 920.7225,324.5889 h 103.8908 v 79.39622 H 920.7225 Z" /><path
           id="path94"
           style="fill:#000000;fill-opacity:1;fill-rule:nonzero;stroke:none"
           d="m 926.711,366.9307 h 6.0054 v 1.3937 c 0,1.8582 0.3716,3.6319 1.0474,5.2537 0.701,1.6808 1.723,3.2011 2.9984,4.4681 1.267,1.267 2.7873,2.2974 4.4682,2.9985 1.6217,0.6757 3.3954,1.0473 5.2536,1.0473 h 23.8949 v 0.1183 8.5562 c -0.3885,0.1436 -0.7601,0.321 -1.1149,0.5237 -0.4983,0.2956 -0.9544,0.6503 -1.3599,1.0558 -0.625,0.625 -1.1318,1.3767 -1.4781,2.2129 -0.3294,0.8024 -0.5152,1.6893 -0.5152,2.6015 0,0.9207 0.1858,1.7991 0.5152,2.6015 0.3463,0.8362 0.8531,1.5879 1.4781,2.213 0.6251,0.625 1.3768,1.1318 2.213,1.4781 0.8024,0.3378 1.6893,0.5152 2.6015,0.5152 0.9122,0 1.7991,-0.1858 2.6015,-0.5152 0.8362,-0.3463 1.5879,-0.8531 2.2129,-1.4781 0.6251,-0.6251 1.1319,-1.3768 1.4782,-2.213 0.3294,-0.8024 0.5152,-1.6893 0.5152,-2.6015 0,-0.9206 -0.1858,-1.7991 -0.5152,-2.6015 -0.3463,-0.8362 -0.8531,-1.5879 -1.4782,-2.2129 l -0.0337,-0.0338 c -0.397,-0.3886 -0.8447,-0.7349 -1.3261,-1.022 -0.3548,-0.2112 -0.7264,-0.3886 -1.115,-0.5237 v -8.5562 -0.1183 h 23.8949 c 1.8579,0 3.6319,-0.3716 5.2539,-1.0473 1.689,-0.7011 3.201,-1.7231 4.468,-2.9985 1.267,-1.267 2.297,-2.7873 2.998,-4.4681 0.676,-1.6218 1.048,-3.3955 1.048,-5.2537 v -1.3937 h 5.794 c 0.802,0 1.579,-0.1605 2.289,-0.4561 0.735,-0.304 1.394,-0.7517 1.943,-1.3007 l 0.033,-0.0338 c 0.541,-0.549 0.972,-1.191 1.267,-1.9089 0.296,-0.7095 0.457,-1.4781 0.457,-2.289 v -15.9806 c 0,-0.8024 -0.161,-1.5795 -0.457,-2.2889 -0.304,-0.7264 -0.751,-1.3937 -1.3,-1.9427 v 0 c -1.081,-1.0812 -2.585,-1.7569 -4.232,-1.7569 h -5.803 c -0.025,-1.7822 -0.397,-3.4968 -1.047,-5.0594 -0.701,-1.6893 -1.723,-3.2012 -2.999,-4.4681 -1.266,-1.267 -2.787,-2.2974 -4.468,-2.9985 -1.621,-0.6757 -3.395,-1.0473 -5.2533,-1.0473 H 946.484 c -1.8582,0 -3.6319,0.3716 -5.2536,1.0473 -1.6893,0.7011 -3.2012,1.7231 -4.4682,2.9985 -1.2669,1.2669 -2.2974,2.7873 -2.9984,4.4681 -0.6504,1.5626 -1.0221,3.2772 -1.0474,5.0594 h -6.0054 c -0.8024,0 -1.5795,0.1605 -2.289,0.4561 -0.7348,0.3041 -1.3936,0.7518 -1.9426,1.3008 l -0.0338,0.0338 c -0.5406,0.549 -0.9714,1.1909 -1.267,1.9089 -0.2956,0.7094 -0.4561,1.4865 -0.4561,2.2889 v 15.9806 c 0,0.8024 0.1605,1.5795 0.4561,2.289 0.3041,0.7348 0.7517,1.3937 1.3008,1.9427 v 0 c 0.549,0.549 1.2078,0.9967 1.9426,1.3007 0.7095,0.2956 1.4782,0.4561 2.289,0.4561 z m 33.7096,-25.7024 c -0.1182,0.0929 -0.2196,0.1943 -0.3125,0.3125 -0.2787,0.3379 -0.4223,0.7264 -0.4308,1.1234 -0.008,0.397 0.1183,0.794 0.3801,1.1403 0.0929,0.1182 0.1943,0.228 0.321,0.3294 0.4392,0.3632 1.022,0.5574 1.5964,0.5659 0.5743,0.008 1.1487,-0.1605 1.6048,-0.5068 1.571,-1.2078 3.1252,-2.0863 4.6624,-2.6691 1.5204,-0.5743 3.0238,-0.8446 4.5104,-0.8277 1.495,0.0169 3.0069,0.3294 4.5526,0.9122 1.5626,0.5912 3.1336,1.4781 4.73,2.6184 0.473,0.3378 1.0558,0.4899 1.6301,0.4645 0.5744,-0.0253 1.1487,-0.228 1.5795,-0.6081 0.1098,-0.1014 0.2112,-0.2112 0.3041,-0.3379 0.2534,-0.3547 0.3716,-0.7601 0.3463,-1.1571 -0.0254,-0.397 -0.1858,-0.7855 -0.473,-1.1149 -0.1014,-0.1098 -0.2196,-0.2197 -0.3548,-0.3126 -2.0018,-1.4443 -4.012,-2.5423 -6.0476,-3.2941 -2.044,-0.7517 -4.1134,-1.1487 -6.2081,-1.174 -2.1031,-0.0254 -4.181,0.3294 -6.2503,1.0811 -2.0525,0.7433 -4.0965,1.8836 -6.1068,3.4293 l -0.0338,0.0253 z m -5.2621,25.8291 c 0.5068,0 1.0136,-0.0507 1.495,-0.152 0.4899,-0.1014 0.9714,-0.245 1.4359,-0.4392 0.473,-0.1943 0.9207,-0.4308 1.3345,-0.7095 0.4055,-0.2703 0.7856,-0.5744 1.1234,-0.9122 l 0.0507,-0.0423 c 0.3547,-0.3547 0.6757,-0.7432 0.9544,-1.1656 l 0.0169,-0.0253 c 0.2703,-0.4054 0.5068,-0.8446 0.6926,-1.3092 0.1943,-0.4646 0.3379,-0.946 0.4392,-1.4359 0.093,-0.4899 0.1521,-0.9882 0.1521,-1.495 0,-0.5068 -0.0507,-1.0136 -0.1521,-1.495 -0.1013,-0.4899 -0.2449,-0.9714 -0.4392,-1.4444 -0.1942,-0.473 -0.4307,-0.9206 -0.7095,-1.3345 -0.2871,-0.4308 -0.6081,-0.8193 -0.9544,-1.1656 -0.7011,-0.701 -1.5541,-1.2754 -2.5086,-1.6639 -0.4645,-0.1943 -0.946,-0.3379 -1.4443,-0.4393 -0.4899,-0.0929 -0.9883,-0.1435 -1.495,-0.1435 -0.5068,0 -1.0136,0.0506 -1.4951,0.1435 -0.4898,0.1014 -0.9713,0.245 -1.4443,0.4393 -0.473,0.1942 -0.9206,0.4307 -1.3345,0.7095 -0.4308,0.2871 -0.8193,0.6081 -1.1656,0.9544 -0.3548,0.3548 -0.6757,0.7433 -0.9545,1.1656 l -0.0169,0.0253 c -0.2702,0.4055 -0.5067,0.8447 -0.6926,1.3092 -0.1942,0.4646 -0.3378,0.946 -0.4392,1.4359 -0.0929,0.4899 -0.1436,0.9883 -0.1436,1.495 0,0.5068 0.0507,1.0136 0.1436,1.4951 0.1014,0.4899 0.245,0.9713 0.4392,1.4359 0.1943,0.473 0.4308,0.9206 0.7095,1.3345 0.2872,0.4307 0.6082,0.8193 0.9545,1.1656 0.3547,0.3547 0.7433,0.6757 1.1656,0.9544 l 0.0253,0.0169 c 0.4054,0.2703 0.8447,0.5068 1.3092,0.6926 0.4646,0.1943 0.946,0.3379 1.4359,0.4392 0.4983,0.1098 1.0051,0.1605 1.5119,0.1605 z m 1.6555,-3.6995 c -0.2534,0.1014 -0.5237,0.1858 -0.8024,0.2449 -0.2703,0.0507 -0.5575,0.0845 -0.8531,0.0845 -0.2956,0 -0.5828,-0.0253 -0.8531,-0.0845 -0.2872,-0.0591 -0.5574,-0.1351 -0.8024,-0.2449 -0.2618,-0.1098 -0.5068,-0.2365 -0.7433,-0.397 -0.228,-0.152 -0.4476,-0.3378 -0.6588,-0.549 -0.2112,-0.2112 -0.3885,-0.4308 -0.549,-0.6588 -0.1605,-0.2365 -0.2872,-0.4815 -0.397,-0.7349 -0.1013,-0.2533 -0.1858,-0.5236 -0.2449,-0.8024 -0.0507,-0.2702 -0.0845,-0.5574 -0.0845,-0.853 0,-0.2957 0.0253,-0.5829 0.0845,-0.8531 0.0591,-0.2872 0.1351,-0.5575 0.2449,-0.8024 0.1098,-0.2619 0.2365,-0.5068 0.397,-0.7349 0.152,-0.228 0.3378,-0.4476 0.549,-0.6588 0.2112,-0.2112 0.4308,-0.3885 0.6588,-0.549 0.2281,-0.1521 0.4815,-0.2872 0.7433,-0.397 l 0.0253,-0.0169 c 0.245,-0.1013 0.4984,-0.1774 0.7771,-0.228 0.2703,-0.0507 0.5575,-0.0845 0.8531,-0.0845 0.2956,0 0.5828,0.0253 0.8531,0.0845 0.2872,0.0591 0.549,0.1351 0.8024,0.2365 0.2618,0.1098 0.5068,0.2449 0.7433,0.3969 0.228,0.1521 0.4476,0.3379 0.6588,0.5491 0.2112,0.2111 0.3885,0.4307 0.549,0.6588 0.1605,0.2365 0.2872,0.4814 0.397,0.7348 0.1014,0.2534 0.1858,0.5237 0.2449,0.8024 0.0507,0.2703 0.0845,0.5575 0.0845,0.8531 0,0.2956 -0.0253,0.5828 -0.0845,0.8531 -0.0591,0.2872 -0.1351,0.5575 -0.2449,0.8024 -0.1098,0.2618 -0.2365,0.5068 -0.397,0.7433 -0.1605,0.2365 -0.3378,0.4561 -0.5405,0.6588 l -0.0423,0.0422 c -0.1942,0.1859 -0.397,0.3548 -0.6166,0.4984 -0.2365,0.1689 -0.4899,0.304 -0.7517,0.4054 z m 33.4647,3.6995 c 0.5067,0 1.0135,-0.0507 1.495,-0.152 0.4899,-0.1014 0.9713,-0.245 1.4359,-0.4392 0.473,-0.1943 0.9206,-0.4308 1.3345,-0.7095 0.397,-0.2703 0.7686,-0.5659 1.1065,-0.9038 0.0169,-0.0169 0.0422,-0.0338 0.0591,-0.0507 0.3547,-0.3547 0.6757,-0.7432 0.9544,-1.1656 l 0.0169,-0.0253 c 0.2703,-0.4054 0.5068,-0.8446 0.6926,-1.3092 0.1943,-0.4646 0.3379,-0.946 0.4392,-1.4359 0.093,-0.4899 0.1436,-0.9882 0.1436,-1.495 0,-0.5068 -0.0506,-1.0136 -0.1436,-1.495 -0.1013,-0.4899 -0.2449,-0.9714 -0.4392,-1.4444 -0.1942,-0.473 -0.4307,-0.9206 -0.7095,-1.3345 -0.2871,-0.4308 -0.6081,-0.8193 -0.9544,-1.1656 -0.3548,-0.3547 -0.7433,-0.6757 -1.1656,-0.9544 l -0.0253,-0.0169 c -0.4139,-0.2703 -0.8447,-0.5068 -1.3092,-0.6926 -0.4646,-0.1943 -0.946,-0.3379 -1.4444,-0.4393 -0.4899,-0.0929 -0.9882,-0.1435 -1.495,-0.1435 -0.5068,0 -1.0136,0.0506 -1.495,0.1435 -0.4899,0.1014 -0.9713,0.245 -1.4443,0.4393 -0.4815,0.2027 -0.9291,0.4392 -1.3346,0.7095 l -0.0422,0.0337 c -0.4054,0.2788 -0.7855,0.5828 -1.1234,0.9207 -0.3547,0.3548 -0.6757,0.7433 -0.9544,1.1656 l -0.0169,0.0253 c -0.2703,0.4055 -0.5068,0.8447 -0.6926,1.3092 -0.1943,0.4646 -0.3379,0.946 -0.4392,1.4359 -0.0929,0.4899 -0.1521,0.9883 -0.1521,1.495 0,0.5068 0.0507,1.0136 0.1521,1.4951 0.1013,0.4899 0.2449,0.9713 0.4392,1.4359 0.1943,0.473 0.4308,0.9206 0.7095,1.3345 0.2872,0.4307 0.6081,0.8193 0.9544,1.1656 0.3463,0.3463 0.7433,0.6673 1.1656,0.9544 0.4139,0.2788 0.8616,0.5153 1.3346,0.718 0.4645,0.1942 0.946,0.3378 1.4358,0.4392 0.5068,0.1013 1.0052,0.152 1.512,0.152 z m 1.6639,-3.6995 c -0.2534,0.1014 -0.5237,0.1858 -0.8024,0.2449 -0.2703,0.0507 -0.5575,0.0845 -0.8531,0.0845 -0.2956,0 -0.5828,-0.0253 -0.8531,-0.0845 -0.2872,-0.0591 -0.5574,-0.1351 -0.8024,-0.2449 -0.2618,-0.1098 -0.5068,-0.2365 -0.7433,-0.397 -0.228,-0.152 -0.4476,-0.3378 -0.6588,-0.549 -0.2111,-0.2112 -0.3885,-0.4308 -0.549,-0.6588 -0.1605,-0.2365 -0.2872,-0.4815 -0.397,-0.7349 -0.1013,-0.2533 -0.1858,-0.5236 -0.2449,-0.8024 -0.0507,-0.2702 -0.0845,-0.5574 -0.0845,-0.853 0,-0.2957 0.0253,-0.5829 0.0845,-0.8531 0.0591,-0.2872 0.1351,-0.5575 0.2449,-0.8024 0.1098,-0.2619 0.2365,-0.5068 0.397,-0.7349 0.152,-0.228 0.3379,-0.4476 0.549,-0.6588 0.2112,-0.2112 0.4308,-0.3885 0.6588,-0.549 0.2281,-0.1521 0.4815,-0.2872 0.7433,-0.397 l 0.0254,-0.0169 c 0.2449,-0.1013 0.4983,-0.1774 0.777,-0.228 0.2703,-0.0507 0.5575,-0.0845 0.8531,-0.0845 0.2956,0 0.5828,0.0253 0.8531,0.0845 0.2872,0.0591 0.549,0.1351 0.8024,0.2365 0.2618,0.1098 0.5068,0.2449 0.7433,0.3969 0.2365,0.1605 0.4561,0.3379 0.6588,0.5406 v 0 c 0.2112,0.2112 0.3885,0.4308 0.549,0.6588 0.1605,0.2365 0.2872,0.4815 0.397,0.7349 0.1014,0.2534 0.1858,0.5236 0.245,0.8024 0.0506,0.2703 0.0844,0.5574 0.0844,0.8531 0,0.2956 -0.0253,0.5828 -0.0844,0.853 -0.0592,0.2872 -0.1352,0.5575 -0.245,0.8025 -0.1098,0.2618 -0.2365,0.5067 -0.397,0.7432 -0.1605,0.2365 -0.3378,0.4561 -0.5405,0.6589 l -0.0423,0.0422 c -0.1943,0.1858 -0.397,0.3547 -0.6166,0.4983 -0.2449,0.1774 -0.4899,0.3125 -0.7517,0.4139 z m -55.8561,1.8835 v -26.074 c 0,-1.4021 0.2788,-2.7366 0.7855,-3.9614 0.5322,-1.2669 1.3008,-2.4156 2.2637,-3.3785 0.9629,-0.9629 2.1116,-1.74 3.3785,-2.2637 1.2163,-0.5068 2.5593,-0.7855 3.9614,-0.7855 h 52.4775 c 1.4019,0 2.7369,0.2787 3.9609,0.7855 1.267,0.5322 2.416,1.3008 3.379,2.2637 0.963,0.9629 1.74,2.1116 2.264,3.3785 0.506,1.2163 0.785,2.5593 0.785,3.9614 v 29.157 c 0,1.4021 -0.279,2.7451 -0.785,3.9614 -0.532,1.2669 -1.301,2.4156 -2.264,3.3785 -0.963,0.9629 -2.112,1.74 -3.379,2.2637 -1.216,0.5067 -2.559,0.7855 -3.9609,0.7855 H 946.484 c -1.4021,0 -2.7366,-0.2788 -3.9613,-0.7855 -1.267,-0.5322 -2.4157,-1.3008 -3.3786,-2.2637 -0.9629,-0.9629 -1.7399,-2.1116 -2.2636,-3.3785 -0.5068,-1.2163 -0.7855,-2.5593 -0.7855,-3.9614 v -3.083 h -0.009 z m -3.3701,-1.6808 h -6.0054 c -0.3547,0 -0.6926,-0.0676 -0.9967,-0.1943 -0.3209,-0.1351 -0.6081,-0.3294 -0.8531,-0.5743 l -0.0337,-0.0253 c -0.2281,-0.2365 -0.4139,-0.5153 -0.5406,-0.8193 -0.1267,-0.3041 -0.1943,-0.642 -0.1943,-0.9967 v -15.9806 c 0,-0.3548 0.0676,-0.6926 0.1943,-0.9967 0.1351,-0.321 0.3294,-0.6081 0.5743,-0.8531 0.473,-0.473 1.1234,-0.7686 1.8414,-0.7686 h 6.0054 v 21.2089 h 0.008 z m 85.8066,0 h -5.794 v -21.2089 h 5.794 c 0.355,0 0.693,0.0676 0.997,0.1943 0.321,0.1351 0.608,0.3294 0.853,0.5743 0.245,0.245 0.439,0.5321 0.575,0.8531 0.126,0.3041 0.194,0.6419 0.194,0.9967 v 15.9721 c 0,0.3548 -0.068,0.6926 -0.194,0.9967 -0.136,0.321 -0.33,0.6081 -0.575,0.8531 v 0 c -0.245,0.2449 -0.532,0.4392 -0.853,0.5743 -0.304,0.1183 -0.642,0.1943 -0.997,0.1943 z" /></g></g><g
       id="g96"><g
         clip-path="url(#clipPath102)"
         id="g98"><g
           transform="matrix(1,0,0,-1,652.9707,731.4929)"
           id="g104"><path
             id="path106"
             style="fill:none;stroke:#000000;stroke-width:3;stroke-linecap:butt;stroke-linejoin:miter;stroke-miterlimit:4;stroke-dasharray:none;stroke-opacity:1"
             d="M 84.8286,4.368905 83.4371,4.929021 C 54.30476,15.61534 26.49344,18.30146 0,12.98866" /></g><path
           id="path108"
           style="fill:#000000;fill-opacity:1;fill-rule:nonzero;stroke:none"
           d="m 738.8723,720.4413 9.7807,11.0516 -14.7097,1.1936 z" /><g
           transform="matrix(1,0,0,-1,1050.024,637.5337)"
           id="g110"><path
             id="path112"
             style="fill:none;stroke:#000000;stroke-width:3;stroke-linecap:butt;stroke-linejoin:miter;stroke-miterlimit:4;stroke-dasharray:none;stroke-opacity:1"
             d="m 11.66471,29.92826 1.49547,0.11642 c 36.63491,1.88268 65.21105,-5.1647 85.72868,-21.142133 l 1.10776,-1.011846" /></g><path
           id="path114"
           style="fill:#000000;fill-opacity:1;fill-rule:nonzero;stroke:none"
           d="m 1153.364,623.7583 5.295,13.7754 -14.198,-4.0292 z" /><path
           id="path116"
           style="fill:#000000;fill-opacity:1;fill-rule:nonzero;stroke:none"
           d="m 1063.696,614.0691 -13.672,-5.5555 12.647,-7.6046 z" /><g
           transform="matrix(1,0,0,-1,1024.512,637.5337)"
           id="g118"><path
             id="path120"
             style="fill:none;stroke:#000000;stroke-width:3;stroke-linecap:butt;stroke-linejoin:miter;stroke-miterlimit:4;stroke-dasharray:none;stroke-opacity:1"
             d="m 156.4929,11.68942 -0.0638,1.49865 C 149.9193,127.7092 101.7821,206.5901 12.01751,249.8309 l -1.36851,0.6228" /></g><path
           id="path122"
           style="fill:#000000;fill-opacity:1;fill-rule:nonzero;stroke:none"
           d="m 1033.792,393.7085 -9.28,-11.475 14.748,-0.5393 z" /><path
           id="path124"
           style="fill:#000000;fill-opacity:1;fill-rule:nonzero;stroke:none"
           d="m 1187.535,624.0651 -6.033,13.4686 -7.155,-12.9075 z" /><g
           transform="matrix(1,0,0,-1,695.812,629.4806)"
           id="g126"><path
             id="path128"
             style="fill:none;stroke:#000000;stroke-width:3;stroke-linecap:butt;stroke-linejoin:miter;stroke-miterlimit:4;stroke-dasharray:none;stroke-opacity:1"
             d="m 187.702,0.2623679 -1.4997,0.0336369 C 81.2189,4.125058 19.15147,42.76833 0,116.2258" /></g><path
           id="path130"
           style="fill:#000000;fill-opacity:1;fill-rule:nonzero;stroke:none"
           d="m 882.1623,622.5863 13.0487,6.8943 -13.3447,6.3023 z" /><g
           transform="matrix(1,0,0,-1,728.6008,424.401)"
           id="g132"><path
             id="path134"
             style="fill:none;stroke:#000000;stroke-width:3;stroke-linecap:round;stroke-linejoin:round;stroke-miterlimit:4;stroke-dasharray:0.003, 9;stroke-dashoffset:0.5;stroke-opacity:1"
             d="m 180.4295,67.78618 -1.4986,0.06528 C 115.2424,69.20437 58.91658,49.47963 9.953495,8.677244 L 8.819212,7.6884" /></g><path
           id="path136"
           style="fill:#000000;fill-opacity:1;fill-rule:nonzero;stroke:none"
           d="m 742.8877,420.7018 -14.2869,3.6992 5.6128,-13.6491 z" /><path
           id="path138"
           style="fill:#000000;fill-opacity:1;fill-rule:nonzero;stroke:none"
           d="m 907.8189,349.9557 12.9003,7.1683 -13.4747,6.0192 z" /></g></g><g
       id="g140"><g
         clip-path="url(#clipPath146)"
         id="g142"><path
           id="path148"
           style="fill:#000000;fill-opacity:0;fill-rule:nonzero;stroke:none"
           d="M 12.51756,82.39418 H 1883.7646 V 1153.2442 H 12.51756 Z" /><g
           transform="matrix(1.268868,0,0,-1.268868,-11.62339,1161.062)"
           id="g150"><path
             id="path152"
             style="fill:none;stroke:#000000;stroke-width:2;stroke-linecap:butt;stroke-linejoin:miter;stroke-miterlimit:4;stroke-dasharray:none;stroke-opacity:1"
             d="m 726,403 49,-19.5" /></g><g
           transform="matrix(1.268868,0,0,-1.268868,-11.62339,1161.062)"
           id="g154"><path
             id="path156"
             style="fill:none;stroke:#000000;stroke-width:2;stroke-linecap:butt;stroke-linejoin:miter;stroke-miterlimit:4;stroke-dasharray:none;stroke-opacity:1"
             d="m 726,403 49,19.5" /></g><g
           transform="matrix(1.268868,0,0,-1.268868,-11.62339,1161.062)"
           id="g158"><path
             id="path160"
             style="fill:none;stroke:#000000;stroke-width:2;stroke-linecap:butt;stroke-linejoin:miter;stroke-miterlimit:4;stroke-dasharray:none;stroke-opacity:1"
             d="m 726,403 49,58.5" /></g><g
           transform="matrix(1.268868,0,0,-1.268868,-11.62339,1161.062)"
           id="g162"><path
             id="path164"
             style="fill:none;stroke:#000000;stroke-width:2;stroke-linecap:butt;stroke-linejoin:miter;stroke-miterlimit:4;stroke-dasharray:none;stroke-opacity:1"
             d="m 726,442 49,-58.5" /></g><g
           transform="matrix(1.268868,0,0,-1.268868,-11.62339,1161.062)"
           id="g166"><path
             id="path168"
             style="fill:none;stroke:#000000;stroke-width:2;stroke-linecap:butt;stroke-linejoin:miter;stroke-miterlimit:4;stroke-dasharray:none;stroke-opacity:1"
             d="m 726,442 49,-19.5" /></g><g
           transform="matrix(1.268868,0,0,-1.268868,-11.62339,1161.062)"
           id="g170"><path
             id="path172"
             style="fill:none;stroke:#000000;stroke-width:2;stroke-linecap:butt;stroke-linejoin:miter;stroke-miterlimit:4;stroke-dasharray:none;stroke-opacity:1"
             d="m 726,442 49,19.5" /></g><g
           transform="matrix(1.268868,0,0,-1.268868,-11.62339,1161.062)"
           id="g174"><path
             id="path176"
             style="fill:none;stroke:#000000;stroke-width:2;stroke-linecap:butt;stroke-linejoin:miter;stroke-miterlimit:4;stroke-dasharray:none;stroke-opacity:1"
             d="M 775,383.5 824,403" /></g><g
           transform="matrix(1.268868,0,0,-1.268868,-11.62339,1161.062)"
           id="g178"><path
             id="path180"
             style="fill:none;stroke:#000000;stroke-width:2;stroke-linecap:butt;stroke-linejoin:miter;stroke-miterlimit:4;stroke-dasharray:none;stroke-opacity:1"
             d="M 775,383.5 824,442" /></g><g
           transform="matrix(1.268868,0,0,-1.268868,-11.62339,1161.062)"
           id="g182"><path
             id="path184"
             style="fill:none;stroke:#000000;stroke-width:2;stroke-linecap:butt;stroke-linejoin:miter;stroke-miterlimit:4;stroke-dasharray:none;stroke-opacity:1"
             d="M 775,422.5 824,403" /></g><g
           transform="matrix(1.268868,0,0,-1.268868,-11.62339,1161.062)"
           id="g186"><path
             id="path188"
             style="fill:none;stroke:#000000;stroke-width:2;stroke-linecap:butt;stroke-linejoin:miter;stroke-miterlimit:4;stroke-dasharray:none;stroke-opacity:1"
             d="M 775,422.5 824,442" /></g><g
           transform="matrix(1.268868,0,0,-1.268868,-11.62339,1161.062)"
           id="g190"><path
             id="path192"
             style="fill:none;stroke:#000000;stroke-width:2;stroke-linecap:butt;stroke-linejoin:miter;stroke-miterlimit:4;stroke-dasharray:none;stroke-opacity:1"
             d="M 775,461.5 824,403" /></g><g
           transform="matrix(1.268868,0,0,-1.268868,-11.62339,1161.062)"
           id="g194"><path
             id="path196"
             style="fill:none;stroke:#000000;stroke-width:2;stroke-linecap:butt;stroke-linejoin:miter;stroke-miterlimit:4;stroke-dasharray:none;stroke-opacity:1"
             d="M 775,461.5 824,442" /></g><path
           id="path198"
           style="fill:#ffffff;fill-opacity:1;fill-rule:nonzero;stroke:none"
           d="m 921.6289,649.7085 c 0,-6.6574 -5.3968,-12.0542 -12.0542,-12.0542 -6.6574,0 -12.0542,5.3968 -12.0542,12.0542 0,6.6573 5.3968,12.0542 12.0542,12.0542 6.6574,0 12.0542,-5.3969 12.0542,-12.0542 z" /><g
           transform="matrix(1.268868,0,0,-1.268868,-11.62339,1161.062)"
           id="g200"><path
             id="path202"
             style="fill:none;stroke:#000000;stroke-width:1;stroke-linecap:butt;stroke-linejoin:miter;stroke-miterlimit:4;stroke-dasharray:none;stroke-opacity:1"
             d="m 735.5,403 c 0,5.2467 -4.2533,9.5 -9.5,9.5 -5.2467,0 -9.5,-4.2533 -9.5,-9.5 0,-5.2467 4.2533,-9.5 9.5,-9.5 5.2467,0 9.5,4.2533 9.5,9.5 z" /></g><path
           id="path204"
           style="fill:#ffffff;fill-opacity:1;fill-rule:nonzero;stroke:none"
           d="m 921.6289,600.2226 c 0,-6.6574 -5.3968,-12.0542 -12.0542,-12.0542 -6.6574,0 -12.0542,5.3968 -12.0542,12.0542 0,6.6573 5.3968,12.0543 12.0542,12.0543 6.6574,0 12.0542,-5.397 12.0542,-12.0543 z" /><g
           transform="matrix(1.268868,0,0,-1.268868,-11.62339,1161.062)"
           id="g206"><path
             id="path208"
             style="fill:none;stroke:#000000;stroke-width:1;stroke-linecap:butt;stroke-linejoin:miter;stroke-miterlimit:4;stroke-dasharray:none;stroke-opacity:1"
             d="m 735.5,442 c 0,5.2467 -4.2533,9.5 -9.5,9.5 -5.2467,0 -9.5,-4.2533 -9.5,-9.5 0,-5.2467 4.2533,-9.5 9.5,-9.5 5.2467,0 9.5,4.2533 9.5,9.5 z" /></g><path
           id="path210"
           style="fill:#ffffff;fill-opacity:1;fill-rule:nonzero;stroke:none"
           d="m 983.8035,674.4515 c 0,-6.6575 -5.3969,-12.0544 -12.0542,-12.0544 -6.6574,0 -12.0544,5.3969 -12.0544,12.0544 0,6.6574 5.397,12.0542 12.0544,12.0542 6.6573,0 12.0542,-5.3968 12.0542,-12.0542 z" /><g
           transform="matrix(1.268868,0,0,-1.268868,-11.62339,1161.062)"
           id="g212"><path
             id="path214"
             style="fill:none;stroke:#000000;stroke-width:1;stroke-linecap:butt;stroke-linejoin:miter;stroke-miterlimit:4;stroke-dasharray:none;stroke-opacity:1"
             d="m 784.5,383.5 c 0,5.2467 -4.2533,9.5 -9.5,9.5 -5.2467,0 -9.5,-4.2533 -9.5,-9.5 0,-5.2467 4.2533,-9.5 9.5,-9.5 5.2467,0 9.5,4.2533 9.5,9.5 z" /></g><path
           id="path216"
           style="fill:#ffffff;fill-opacity:1;fill-rule:nonzero;stroke:none"
           d="m 983.8035,624.9656 c 0,-6.6574 -5.3969,-12.0544 -12.0542,-12.0544 -6.6574,0 -12.0544,5.397 -12.0544,12.0544 0,6.6574 5.397,12.0542 12.0544,12.0542 6.6573,0 12.0542,-5.3968 12.0542,-12.0542 z" /><g
           transform="matrix(1.268868,0,0,-1.268868,-11.62339,1161.062)"
           id="g218"><path
             id="path220"
             style="fill:none;stroke:#000000;stroke-width:1;stroke-linecap:butt;stroke-linejoin:miter;stroke-miterlimit:4;stroke-dasharray:none;stroke-opacity:1"
             d="m 784.5,422.5 c 0,5.2467 -4.2533,9.5 -9.5,9.5 -5.2467,0 -9.5,-4.2533 -9.5,-9.5 0,-5.2467 4.2533,-9.5 9.5,-9.5 5.2467,0 9.5,4.2533 9.5,9.5 z" /></g><path
           id="path222"
           style="fill:#ffffff;fill-opacity:1;fill-rule:nonzero;stroke:none"
           d="m 983.8035,575.4797 c 0,-6.6573 -5.3969,-12.0542 -12.0542,-12.0542 -6.6574,0 -12.0544,5.3969 -12.0544,12.0542 0,6.6574 5.397,12.0542 12.0544,12.0542 6.6573,0 12.0542,-5.3968 12.0542,-12.0542 z" /><g
           transform="matrix(1.268868,0,0,-1.268868,-11.62339,1161.062)"
           id="g224"><path
             id="path226"
             style="fill:none;stroke:#000000;stroke-width:1;stroke-linecap:butt;stroke-linejoin:miter;stroke-miterlimit:4;stroke-dasharray:none;stroke-opacity:1"
             d="m 784.5,461.5 c 0,5.2467 -4.2533,9.5 -9.5,9.5 -5.2467,0 -9.5,-4.2533 -9.5,-9.5 0,-5.2467 4.2533,-9.5 9.5,-9.5 5.2467,0 9.5,4.2533 9.5,9.5 z" /></g><path
           id="path228"
           style="fill:#ffffff;fill-opacity:1;fill-rule:nonzero;stroke:none"
           d="m 1045.978,649.7085 c 0,-6.6574 -5.397,-12.0542 -12.054,-12.0542 -6.658,0 -12.055,5.3968 -12.055,12.0542 0,6.6573 5.397,12.0542 12.055,12.0542 6.657,0 12.054,-5.3969 12.054,-12.0542 z" /><g
           transform="matrix(1.268868,0,0,-1.268868,-11.62339,1161.062)"
           id="g230"><path
             id="path232"
             style="fill:none;stroke:#000000;stroke-width:1;stroke-linecap:butt;stroke-linejoin:miter;stroke-miterlimit:4;stroke-dasharray:none;stroke-opacity:1"
             d="m 833.5,403 c 0,5.2467 -4.2533,9.5 -9.5,9.5 -5.2467,0 -9.5,-4.2533 -9.5,-9.5 0,-5.2467 4.2533,-9.5 9.5,-9.5 5.2467,0 9.5,4.2533 9.5,9.5 z" /></g><path
           id="path234"
           style="fill:#ffffff;fill-opacity:1;fill-rule:nonzero;stroke:none"
           d="m 1045.978,600.2226 c 0,-6.6574 -5.397,-12.0542 -12.054,-12.0542 -6.658,0 -12.055,5.3968 -12.055,12.0542 0,6.6573 5.397,12.0543 12.055,12.0543 6.657,0 12.054,-5.397 12.054,-12.0543 z" /><g
           transform="matrix(1.268868,0,0,-1.268868,-11.62339,1161.062)"
           id="g236"><path
             id="path238"
             style="fill:none;stroke:#000000;stroke-width:1;stroke-linecap:butt;stroke-linejoin:miter;stroke-miterlimit:4;stroke-dasharray:none;stroke-opacity:1"
             d="m 833.5,442 c 0,5.2467 -4.2533,9.5 -9.5,9.5 -5.2467,0 -9.5,-4.2533 -9.5,-9.5 0,-5.2467 4.2533,-9.5 9.5,-9.5 5.2467,0 9.5,4.2533 9.5,9.5 z" /></g></g></g><g
       id="g240"><g
         clip-path="url(#clipPath246)"
         id="g242"><g
           transform="translate(667.1161,395.1796)"
           id="g248"><text
             id="text252"
             style="font-variant:normal;font-weight:normal;font-size:20px;font-family:Poppins;-inkscape-font-specification:Poppins-Regular;writing-mode:lr-tb;fill:#000000;fill-opacity:1;fill-rule:nonzero;stroke:none"
             transform="scale(1,-1)"><tspan
               id="tspan250"
               y="0"
               x="0 13.5 23.940001 36.34">User</tspan></text>
</g><g
           transform="translate(555.6866,663.2326)"
           id="g254"><text
             id="text258"
             style="font-variant:normal;font-weight:normal;font-size:20px;font-family:Poppins;-inkscape-font-specification:Poppins-Regular;writing-mode:lr-tb;fill:#000000;fill-opacity:1;fill-rule:nonzero;stroke:none"
             transform="scale(1,-1)"><tspan
               id="tspan256"
               y="0"
               x="0 14.14 26.940001 39.080002 51.880001 72.480003 84.879997 97.68 104.96">Documents</tspan></text>
</g><g
           transform="translate(871.6172,535.6602)"
           id="g260"><text
             id="text264"
             style="font-variant:normal;font-weight:normal;font-size:20px;font-family:Poppins;-inkscape-font-specification:Poppins-Regular;writing-mode:lr-tb;fill:#000000;fill-opacity:1;fill-rule:nonzero;stroke:none"
             transform="scale(1,-1)"><tspan
               id="tspan262"
               y="0"
               x="0 10.26 30.860001 44.380001 56.779999 70.300003 83.82 88.739998 101.54 115.06 125.5 130.84 148.06 160.86 174.38 186.78">Embeddings Model</tspan></text>
</g><g
           transform="translate(950.2172,296.4648)"
           id="g266"><text
             id="text270"
             style="font-variant:normal;font-weight:normal;font-size:20px;font-family:Poppins;-inkscape-font-specification:Poppins-Regular;writing-mode:lr-tb;fill:#000000;fill-opacity:1;fill-rule:nonzero;stroke:none"
             transform="scale(1,-1)"><tspan
               id="tspan268"
               y="0"
               x="0 8.6400003 17.280001">LLM</tspan></text>
</g><g
           transform="translate(1194.033,618.1097)"
           id="g272"><text
             id="text276"
             style="font-variant:normal;font-weight:normal;font-size:20px;font-family:Poppins;-inkscape-font-specification:Poppins-Regular;writing-mode:lr-tb;fill:#000000;fill-opacity:1;fill-rule:nonzero;stroke:none"
             transform="scale(1,-1)"><tspan
               id="tspan274"
               y="0"
               x="0 13.52 25.92 38.060001 45.34 58.139999 65.599998 70.940002 85.080002 98.599998 105.88 119.4 132.92 146.44 156.88">Vector Database</tspan></text>
</g></g></g><g
       id="g278"><g
         clip-path="url(#clipPath284)"
         id="g280"><path
           id="path286"
           style="fill:#000000;fill-opacity:0;fill-rule:nonzero;stroke:none"
           d="m 748.6534,713.0552 h 81.48011 v 81.48011 H 748.6534 Z" /><path
           id="path288"
           style="fill:#000000;fill-opacity:1;fill-rule:nonzero;stroke:none"
           d="m 813.5541,782.1447 c -0.2186,0.2186 -0.4438,0.3762 -0.6756,0.4743 -0.2173,0.092 -0.471,0.1371 -0.7618,0.1371 -0.2921,0 -0.5511,-0.0464 -0.771,-0.1398 -0.2279,-0.096 -0.4478,-0.251 -0.6585,-0.465 l -0.0139,-0.0139 -4.1116,-4.099 c -0.616,-0.6127 -1.5679,-0.681 -2.2588,-0.2073 -0.4835,0.3126 -0.9989,0.614 -1.5394,0.9061 -0.573,0.31 -1.1347,0.5882 -1.6832,0.84 -0.5716,0.261 -1.1552,0.5067 -1.7494,0.7372 -0.5385,0.2093 -1.1387,0.4226 -1.7931,0.6386 -0.7492,0.2471 -1.2255,0.9439 -1.2255,1.6931 v 0 6.3048 c 0,0.3021 -0.0477,0.569 -0.1424,0.8015 -0.0947,0.2299 -0.2391,0.4438 -0.4385,0.6426 -0.1941,0.194 -0.4048,0.3378 -0.6353,0.4312 -0.2318,0.0947 -0.4994,0.1418 -0.8021,0.1418 h -7.9125 c -0.2802,0 -0.5286,-0.0451 -0.7459,-0.1352 -0.2305,-0.0947 -0.4564,-0.2497 -0.6796,-0.4657 l -0.003,-0.002 c -0.196,-0.196 -0.3404,-0.4047 -0.4332,-0.6266 -0.0954,-0.2272 -0.143,-0.4895 -0.143,-0.7876 v -5.7722 c 0,-0.8777 -0.634,-1.607 -1.4686,-1.756 -0.6339,-0.1511 -1.2195,-0.3074 -1.7527,-0.471 -0.5843,-0.1789 -1.1718,-0.3823 -1.7607,-0.6121 -0.0292,-0.0113 -0.0583,-0.0219 -0.0875,-0.0312 -0.5146,-0.1999 -1.0572,-0.4318 -1.6268,-0.6948 -0.579,-0.267 -1.1182,-0.5379 -1.6176,-0.8101 -0.7042,-0.3836 -1.5534,-0.2411 -2.0965,0.2934 l -7e-4,-6e-4 -4.5534,4.4878 c -0.0139,0.0139 -0.0278,0.0278 -0.0417,0.0417 v -7e-4 c -0.1941,0.2054 -0.3981,0.3558 -0.6121,0.4492 -0.2053,0.0894 -0.4484,0.1351 -0.732,0.1351 -0.2815,0 -0.5332,-0.0477 -0.7544,-0.1424 -0.2425,-0.1033 -0.4743,-0.265 -0.6969,-0.4829 l -10e-4,-0.001 -5.5238,-5.5364 -0.003,-0.004 0.003,-0.003 c -0.2266,-0.2266 -0.3869,-0.4518 -0.4816,-0.6757 -0.0921,-0.2173 -0.1378,-0.471 -0.1378,-0.7611 0,-0.2928 0.0464,-0.5511 0.1398,-0.7724 0.096,-0.2272 0.2504,-0.4471 0.465,-0.6577 l 0.0139,-0.0139 4.099,-4.1123 c 0.6127,-0.616 0.6809,-1.5679 0.2073,-2.2588 -0.3126,-0.4842 -0.614,-0.9989 -0.9055,-1.5394 -0.31,-0.5737 -0.5882,-1.1341 -0.8399,-1.6839 -0.2617,-0.571 -0.5074,-1.1552 -0.7386,-1.7494 -0.2093,-0.5379 -0.422,-1.138 -0.6379,-1.7925 -0.2471,-0.7498 -0.9446,-1.2254 -1.6931,-1.2254 v -7e-4 h -6.3028 c -0.3034,0 -0.5697,-0.047 -0.8022,-0.1411 -0.2292,-0.094 -0.4412,-0.2371 -0.6346,-0.4312 l -0.007,-0.008 v 0 c -0.1941,-0.1941 -0.3378,-0.4054 -0.4319,-0.6346 -0.0947,-0.2325 -0.1411,-0.4995 -0.1411,-0.8022 v -7.9131 c 0,-0.2796 0.0444,-0.5286 0.1345,-0.7452 0.0954,-0.2305 0.2504,-0.4564 0.4663,-0.6803 l 0.002,-10e-4 c 0.1954,-0.1961 0.4048,-0.3412 0.626,-0.4333 0.2279,-0.0953 0.4902,-0.143 0.7883,-0.143 h 5.7715 c 0.8777,0 1.607,-0.634 1.7561,-1.4693 0.151,-0.6332 0.3073,-1.2195 0.4709,-1.7527 0.1796,-0.5842 0.3823,-1.1711 0.6121,-1.76 0.216,-0.5611 0.461,-1.144 0.734,-1.7481 0.2788,-0.618 0.5517,-1.1811 0.8167,-1.6905 0.369,-0.7061 0.216,-1.5474 -0.3219,-2.0819 l 10e-4,-10e-4 -4.4885,-4.4753 -0.0285,-0.0278 h 7e-4 c -0.2053,-0.1947 -0.3557,-0.3987 -0.4484,-0.612 -0.0901,-0.2054 -0.1352,-0.4492 -0.1352,-0.7327 0,-0.2815 0.0477,-0.5325 0.1418,-0.7538 0.1033,-0.2424 0.2649,-0.4749 0.4835,-0.6969 l 5.504,-5.5675 c 0.2153,-0.1994 0.4398,-0.3451 0.675,-0.4372 0.2358,-0.0934 0.5034,-0.1391 0.8028,-0.1391 0.3021,0 0.5743,0.0471 0.8141,0.1418 0.2305,0.0907 0.4471,0.2298 0.6478,0.418 l 4.0798,4.1446 c 0.6154,0.6254 1.5792,0.7002 2.2774,0.218 0.4829,-0.3114 0.9962,-0.6114 1.5354,-0.9022 0.5737,-0.3107 1.1341,-0.5889 1.6839,-0.84 0.571,-0.2623 1.1552,-0.508 1.7494,-0.7385 0.5379,-0.2087 1.1373,-0.422 1.7925,-0.6379 0.7498,-0.2471 1.2254,-0.9446 1.2254,-1.6932 h 7e-4 v -6.3047 c 0,-0.3021 0.047,-0.5691 0.1417,-0.8016 0.0941,-0.2298 0.2372,-0.4411 0.4313,-0.6352 l 0.003,-0.004 0.003,0.004 c 0.3888,-0.3888 0.8658,-0.5803 1.4368,-0.5803 h 7.9117 c 0.2809,0 0.5293,0.0444 0.7466,0.1345 0.2305,0.0954 0.4564,0.2504 0.6789,0.4663 l 0.003,0.002 c 0.1954,0.1961 0.3405,0.4047 0.4332,0.626 0.0961,0.2279 0.1438,0.4895 0.1438,0.7876 v 5.7729 c 0,0.877 0.6326,1.607 1.4685,1.7554 0.6326,0.151 1.2188,0.308 1.7527,0.4709 0.5836,0.1795 1.1712,0.3822 1.7594,0.6114 0.5617,0.2166 1.1453,0.4617 1.7507,0.7346 0.6161,0.2789 1.1798,0.5512 1.6872,0.8161 0.7074,0.369 1.5487,0.2153 2.0833,-0.3219 l 10e-4,10e-4 4.4752,-4.4878 0.0272,-0.0285 v 7e-4 c 0.1967,-0.2067 0.4007,-0.3564 0.6134,-0.4491 0.208,-0.0895 0.459,-0.1352 0.7584,-0.1352 0.2935,0 0.5485,0.0477 0.7684,0.1425 0.2212,0.096 0.4273,0.2437 0.6147,0.4418 0.0206,0.0225 0.0424,0.0444 0.0663,0.0662 l 5.5437,5.4795 c 0.198,0.2146 0.3444,0.4398 0.4358,0.6749 0.0934,0.2359 0.1398,0.5041 0.1398,0.8035 0,0.3021 -0.0464,0.5744 -0.1411,0.8141 -0.0921,0.2306 -0.2305,0.4465 -0.4193,0.6472 l -4.144,4.0804 c -0.626,0.6154 -0.7002,1.5786 -0.2186,2.2774 0.312,0.4829 0.612,0.9963 0.9028,1.5348 0.3107,0.573 0.5889,1.134 0.84,1.6838 0.2616,0.571 0.5073,1.1553 0.7385,1.7495 0.208,0.5378 0.422,1.138 0.638,1.7931 0.247,0.7498 0.9445,1.2255 1.6937,1.2255 v 6e-4 h 6.3035 c 0.3027,0 0.5703,0.047 0.8021,0.1418 0.2292,0.094 0.4412,0.2371 0.6353,0.4305 l 0.007,0.007 v 0 c 0.1941,0.1948 0.3392,0.4061 0.432,0.6359 0.0946,0.2319 0.141,0.4988 0.141,0.8015 v 7.9132 c 0,0.2795 -0.0437,0.5286 -0.1345,0.7458 -0.0946,0.2299 -0.2497,0.4564 -0.4656,0.6803 l -0.003,0.002 c -0.1954,0.1961 -0.4047,0.3405 -0.626,0.4332 -0.2265,0.0954 -0.4888,0.1431 -0.7875,0.1431 h -5.7716 c -0.8889,0 -1.6249,0.6485 -1.7607,1.4984 -0.1397,0.5584 -0.2974,1.1248 -0.4762,1.6997 -0.1723,0.5518 -0.3737,1.1354 -0.6095,1.7521 -0.0119,0.0298 -0.0219,0.0603 -0.0311,0.0907 -0.2239,0.5863 -0.4531,1.1374 -0.6882,1.6534 -0.2551,0.5584 -0.5253,1.0983 -0.8115,1.6203 -0.3829,0.7041 -0.2405,1.5533 0.2935,2.0965 v 6e-4 l 4.4878,4.5534 c 0.0139,0.0139 0.0271,0.0278 0.0417,0.0418 v 0 c 0.206,0.194 0.3557,0.3981 0.4491,0.6114 0.0895,0.2053 0.1358,0.4484 0.1358,0.7319 0,0.2815 -0.0477,0.5333 -0.1424,0.7545 -0.1033,0.2424 -0.265,0.4743 -0.4836,0.6969 l -10e-4,10e-4 -5.5371,5.5238 -0.007,0.006 v 0 0 z m 0.7035,3.7498 c 0.6637,-0.2801 1.2665,-0.6902 1.8097,-1.2334 l 10e-4,-6e-4 5.5516,-5.5391 0.014,-0.0139 c 0.5345,-0.5431 0.9433,-1.1413 1.2228,-1.7971 0.2888,-0.6763 0.4345,-1.3924 0.4345,-2.1482 0,-0.767 -0.149,-1.4838 -0.4425,-2.1535 -0.2861,-0.6571 -0.7041,-1.2413 -1.2447,-1.7573 l -3.5551,-3.6068 c 0.1047,-0.218 0.2094,-0.4386 0.3107,-0.6618 0.2849,-0.6213 0.5458,-1.244 0.783,-1.8673 0.0132,-0.0278 0.0245,-0.0563 0.0351,-0.0855 0.2365,-0.6206 0.463,-1.2804 0.679,-1.9746 0.0695,-0.2239 0.1371,-0.4491 0.202,-0.6763 h 4.4063 c 0.7658,0 1.4825,-0.1404 2.1542,-0.4213 0.6597,-0.2762 1.2559,-0.6836 1.7878,-1.2195 l 0.0377,-0.0378 c 0.524,-0.5418 0.9215,-1.1393 1.1917,-1.7951 0.2769,-0.667 0.414,-1.3659 0.414,-2.0978 v -7.9125 c 0,-0.7611 -0.1345,-1.4738 -0.4061,-2.1396 -0.2715,-0.6644 -0.6762,-1.2678 -1.2175,-1.8103 l -0.003,-0.002 -0.004,-0.005 -0.003,-0.003 c -0.5432,-0.5412 -1.146,-0.9472 -1.8123,-1.2188 -0.6664,-0.2709 -1.3792,-0.4061 -2.1396,-0.4061 h -5.0403 c -0.0881,-0.2371 -0.1795,-0.4822 -0.2782,-0.7326 -0.2524,-0.6485 -0.5253,-1.297 -0.8214,-1.9448 -0.3067,-0.6697 -0.6187,-1.3023 -0.9366,-1.8925 -0.1047,-0.1935 -0.212,-0.3862 -0.3219,-0.579 l 3.1464,-3.0974 c 0.0231,-0.0219 0.045,-0.0437 0.0688,-0.0676 0.5161,-0.5458 0.9043,-1.1519 1.1659,-1.8143 0.2623,-0.665 0.3921,-1.3699 0.3921,-2.1104 0,-0.7379 -0.1291,-1.4368 -0.3894,-2.0992 -0.2603,-0.6604 -0.6446,-1.2639 -1.1553,-1.811 v 6e-4 c -0.0179,-0.0185 -0.0364,-0.0384 -0.0557,-0.0569 l -5.584,-5.5199 c -0.524,-0.5491 -1.1142,-0.9691 -1.7766,-1.2539 -0.669,-0.2888 -1.3924,-0.4352 -2.1747,-0.4352 -0.7657,0 -1.4877,0.1497 -2.166,0.4418 -0.6717,0.2908 -1.2652,0.7115 -1.7826,1.2573 l -3.5399,3.5492 c -0.2365,-0.114 -0.4683,-0.2219 -0.6935,-0.324 -0.6028,-0.2715 -1.2473,-0.5398 -1.9316,-0.8041 -0.6432,-0.2504 -1.3142,-0.4816 -2.0104,-0.6949 -0.2319,-0.0709 -0.4604,-0.1384 -0.6856,-0.2027 v -4.397 c 0,-0.7651 -0.1411,-1.4825 -0.422,-2.1535 -0.2769,-0.6605 -0.6829,-1.256 -1.2201,-1.7885 l -0.0378,-0.0384 c -0.5418,-0.5227 -1.14,-0.9195 -1.7944,-1.1911 -0.6678,-0.2762 -1.3666,-0.4133 -2.0986,-0.4133 h -7.9131 c -1.556,0 -2.8702,0.5366 -3.9592,1.6256 l 0.003,0.003 c -0.5432,0.5438 -0.9505,1.1486 -1.2221,1.8156 -0.2716,0.6664 -0.4067,1.3785 -0.4067,2.1396 v 5.0403 c -0.2379,0.0881 -0.4823,0.1801 -0.7333,0.2782 -0.6479,0.2523 -1.2964,0.5253 -1.9442,0.822 -0.6697,0.3061 -1.3023,0.6187 -1.8932,0.9373 -0.1927,0.104 -0.3855,0.2113 -0.5782,0.3213 l -3.0975,-3.1464 c -0.0218,-0.0232 -0.0443,-0.0458 -0.0675,-0.0683 -0.5458,-0.5173 -1.152,-0.9055 -1.8144,-1.1665 -0.665,-0.2623 -1.3698,-0.3928 -2.1104,-0.3928 -0.7379,0 -1.4374,0.1292 -2.0992,0.3902 -0.6604,0.2603 -1.2632,0.6445 -1.811,1.1546 l 7e-4,10e-4 c -0.0192,0.0172 -0.0384,0.0357 -0.0563,0.055 l -5.5517,5.6158 c -0.5339,0.5432 -0.9426,1.142 -1.2221,1.7978 -0.2882,0.677 -0.4345,1.3924 -0.4345,2.1475 0,0.7671 0.149,1.4838 0.4418,2.1542 0.2895,0.6617 0.7094,1.2493 1.2566,1.7686 l 3.5498,3.5399 c -0.1139,0.2365 -0.2226,0.4683 -0.3246,0.6956 -0.2722,0.6021 -0.5398,1.2453 -0.8035,1.9289 -0.2504,0.6432 -0.4822,1.3142 -0.6955,2.0111 -0.0709,0.2325 -0.1384,0.4603 -0.2027,0.6856 h -4.3957 c -0.7658,0 -1.4832,0.141 -2.1535,0.4219 -0.6611,0.2762 -1.2566,0.6829 -1.7885,1.2195 l -0.0384,0.0397 c -0.5233,0.5412 -0.9201,1.1394 -1.191,1.7945 -0.2763,0.6677 -0.4134,1.3665 -0.4134,2.0972 v 7.9131 c 0,0.7611 0.1351,1.4739 0.4067,2.1396 0.2716,0.6657 0.6763,1.2691 1.2182,1.8117 l 7e-4,6e-4 0.004,0.003 0.003,0.003 c 0.5432,0.5418 1.146,0.9472 1.8124,1.2188 0.6657,0.2716 1.3785,0.406 2.1396,0.406 h 5.0402 c 0.0875,0.2378 0.1802,0.4823 0.2782,0.7333 0.2518,0.6479 0.5253,1.2963 0.8221,1.9449 0.306,0.6696 0.618,1.3022 0.9373,1.8924 0.106,0.1968 0.2159,0.3935 0.3285,0.5903 l -3.1007,3.1106 -10e-4,7e-4 c -0.5478,0.5385 -0.9625,1.1446 -1.2453,1.8143 -0.2895,0.6836 -0.4326,1.403 -0.4326,2.1522 0,0.7478 0.1424,1.4606 0.4299,2.1409 0.2849,0.6736 0.6955,1.2798 1.2341,1.8183 l 0.003,-0.003 5.5351,5.5483 0.0139,0.0139 c 0.5432,0.5339 1.1413,0.9426 1.7971,1.2221 0.677,0.2882 1.3924,0.4353 2.1482,0.4353 0.7664,0 1.4831,-0.1491 2.1535,-0.4419 0.6571,-0.2868 1.2413,-0.7041 1.7573,-1.2453 l 3.6042,-3.5518 c 0.2166,0.1073 0.4326,0.21 0.6478,0.3093 0.5545,0.2557 1.1665,0.5134 1.8362,0.773 0.0285,0.0133 0.0577,0.0252 0.0868,0.0365 0.6432,0.2504 1.3149,0.4822 2.0117,0.6955 0.2319,0.0709 0.4604,0.1384 0.6856,0.2027 v 4.3964 c 0,0.7651 0.1411,1.4825 0.422,2.1529 0.2762,0.661 0.6836,1.2565 1.2195,1.7891 l 0.0377,0.0377 c 0.5419,0.5234 1.1394,0.9195 1.7945,1.1904 0.6677,0.2769 1.3665,0.414 2.0985,0.414 h 7.9118 c 0.7604,0 1.4739,-0.1345 2.1396,-0.4061 0.669,-0.2728 1.2744,-0.6802 1.8203,-1.2254 0.5392,-0.5405 0.9459,-1.1447 1.2188,-1.813 0.2716,-0.6657 0.4061,-1.3785 0.4061,-2.1389 v -5.0409 c 0.2378,-0.0881 0.4815,-0.1809 0.7332,-0.2783 0.6472,-0.2517 1.2951,-0.5253 1.9435,-0.8213 0.6704,-0.3061 1.303,-0.6187 1.8925,-0.938 0.1981,-0.1067 0.3948,-0.216 0.5916,-0.3285 l 3.11,3.1006 10e-4,7e-4 c 0.5385,0.5478 1.1453,0.9625 1.8137,1.2453 0.6842,0.2895 1.4023,0.4326 2.1515,0.4326 0.7492,0 1.4619,-0.1418 2.1422,-0.4293 v 0 z m -24.9059,-14.773 c 1.1798,0 2.3311,-0.1126 3.4538,-0.3365 1.1036,-0.2205 2.1979,-0.559 3.2809,-1.0161 l 0.012,-0.005 0.003,0.005 c 1.034,-0.4465 2.0144,-0.9797 2.9418,-1.601 0.9187,-0.6154 1.7699,-1.3103 2.5502,-2.0833 l 0.007,-0.007 v 0 c 0.7736,-0.781 1.4685,-1.6315 2.0839,-2.5509 0.6213,-0.9274 1.1539,-1.9078 1.6004,-2.9418 0.0205,-0.049 0.0391,-0.098 0.0556,-0.1477 0.4279,-1.0393 0.7492,-2.0879 0.9598,-3.1471 0.2253,-1.1234 0.3365,-2.274 0.3365,-3.4531 0,-1.1798 -0.1112,-2.331 -0.3365,-3.4538 -0.2199,-1.1043 -0.559,-2.1972 -1.0154,-3.2809 l -0.005,-0.0119 0.005,-0.003 c -0.4465,-1.034 -0.9797,-2.0137 -1.6004,-2.9411 -0.6161,-0.9194 -1.3109,-1.7699 -2.0839,-2.5509 l -0.007,-0.007 v 0 c -0.7816,-0.7737 -1.6315,-1.4686 -2.5516,-2.0839 -0.926,-0.6214 -1.907,-1.154 -2.9404,-1.6004 -0.049,-0.0206 -0.098,-0.0398 -0.149,-0.0557 -1.0387,-0.4285 -2.0879,-0.7491 -3.1465,-0.9605 -1.1227,-0.2245 -2.2747,-0.3365 -3.4538,-0.3365 -1.1797,0 -2.3303,0.112 -3.4531,0.3365 -1.1042,0.2206 -2.1979,0.5598 -3.2816,1.0162 l -0.0119,0.005 -0.002,-0.005 c -1.034,0.4464 -2.015,0.9797 -2.9417,1.6004 -0.9194,0.6153 -1.77,1.3102 -2.5503,2.0839 l -0.007,0.007 v 0 c -0.7737,0.7816 -1.4692,1.6315 -2.0839,2.5516 -0.6207,0.9267 -1.154,1.9077 -1.5998,2.9404 -0.0212,0.049 -0.0397,0.098 -0.0563,0.1484 -0.4285,1.0393 -0.7491,2.0879 -0.9605,3.1471 -0.2239,1.1228 -0.3365,2.274 -0.3365,3.4538 0,1.1797 0.112,2.3303 0.3365,3.4531 0.2206,1.1042 0.5598,2.1979 1.0168,3.2809 l 0.005,0.0119 -0.005,0.002 c 0.4458,1.034 0.9797,2.0144 1.5998,2.9411 0.6153,0.9201 1.3102,1.77 2.0839,2.5516 l 0.007,0.007 v 0 c 0.7803,0.773 1.6308,1.4679 2.5496,2.0833 0.9274,0.6207 1.9084,1.1546 2.9424,1.601 0.049,0.0212 0.098,0.0398 0.1484,0.0557 1.0393,0.4286 2.0872,0.7485 3.1464,0.9598 1.1228,0.2252 2.2734,0.3378 3.4531,0.3378 v 0 z m 2.757,-3.834 c -0.8903,0.1782 -1.8084,0.267 -2.757,0.267 -0.9479,0 -1.866,-0.0888 -2.7569,-0.267 -0.8651,-0.1729 -1.6911,-0.4206 -2.4781,-0.7432 -0.0344,-0.0172 -0.0695,-0.0344 -0.106,-0.0497 -0.8598,-0.3716 -1.6507,-0.7982 -2.3714,-1.2804 -0.726,-0.4856 -1.3977,-1.0354 -2.0163,-1.6474 -0.6128,-0.6194 -1.1626,-1.2924 -1.6488,-2.019 -0.4822,-0.7201 -0.9088,-1.5103 -1.2797,-2.3701 l -0.005,0.002 c -0.3451,-0.8194 -0.6074,-1.6819 -0.7889,-2.5867 -0.1775,-0.8903 -0.2663,-1.8084 -0.2663,-2.7563 0,-0.9479 0.0888,-1.866 0.2663,-2.757 0.1729,-0.8651 0.4213,-1.6911 0.7439,-2.478 0.0172,-0.0351 0.0344,-0.0696 0.0497,-0.106 0.3709,-0.8598 0.7975,-1.6494 1.2791,-2.3694 0.4862,-0.7267 1.036,-1.3997 1.6494,-2.0191 0.6187,-0.6127 1.291,-1.1618 2.017,-1.6474 0.72,-0.4822 1.5103,-0.9088 2.3707,-1.2804 l -0.002,-0.005 c 0.82,-0.3452 1.6818,-0.6081 2.5867,-0.7883 0.8902,-0.1782 1.809,-0.2663 2.7569,-0.2663 0.9479,0 1.8667,0.0888 2.7569,0.2663 0.8658,0.1729 1.6912,0.4206 2.4788,0.7432 0.0338,0.0172 0.0695,0.0345 0.106,0.0497 0.8591,0.3716 1.6494,0.7982 2.3701,1.2804 0.726,0.4856 1.3983,1.0354 2.017,1.6474 0.6134,0.6194 1.1632,1.2917 1.6494,2.0184 0.4815,0.72 0.9081,1.5103 1.2784,2.3701 l 0.005,-0.002 c 0.3451,0.8194 0.6081,1.6819 0.789,2.586 0.1775,0.891 0.2662,1.8091 0.2662,2.757 0,0.9479 -0.0894,1.866 -0.2662,2.7563 -0.1736,0.8657 -0.4207,1.6911 -0.7439,2.4787 -0.0179,0.0344 -0.0338,0.0695 -0.0504,0.106 -0.3703,0.8598 -0.7968,1.65 -1.2797,2.3701 -0.4849,0.7266 -1.0354,1.3996 -1.6481,2.0183 -0.6187,0.6121 -1.291,1.1619 -2.017,1.6474 -0.7207,0.4823 -1.511,0.9088 -2.3701,1.2805 l 10e-4,0.005 c -0.8194,0.3451 -1.6812,0.6081 -2.5867,0.7889 v 0 z" /></g></g><g
       id="g290"><g
         clip-path="url(#clipPath296)"
         id="g292"><g
           transform="matrix(1,0,0,-1,830.0507,766.1762)"
           id="g298"><path
             id="path300"
             style="fill:none;stroke:#000000;stroke-width:3;stroke-linecap:butt;stroke-linejoin:miter;stroke-miterlimit:4;stroke-dasharray:none;stroke-opacity:1"
             d="m 127.6897,66.81626 -0.5111,-1.41025 C 105.8406,13.30627 63.4481,-7.667252 0,2.482476" /></g><path
           id="path302"
           style="fill:#000000;fill-opacity:1;fill-rule:nonzero;stroke:none"
           d="m 951.0243,698.5214 10.7026,-10.1613 1.7075,14.6589 z" /><g
           transform="translate(741.3225,689.2236)"
           id="g304"><text
             id="text308"
             style="font-variant:normal;font-weight:normal;font-size:20px;font-family:Poppins;-inkscape-font-specification:Poppins-Regular;writing-mode:lr-tb;fill:#000000;fill-opacity:1;fill-rule:nonzero;stroke:none"
             transform="scale(1,-1)"><tspan
               id="tspan306"
               y="0"
               x="0 11.58 19.040001 31.84 43.98 56.380001 66.82 77.260002 82.18 94.980003">Processing</tspan></text>
</g></g></g></g></svg>