<svg xmlns="http://www.w3.org/2000/svg" xmlns:xlink="http://www.w3.org/1999/xlink" version="1.1" width="1130.2105" height="796.91006" viewBox="0 0 1130.2105 796.91006">
<defs>
<clipPath id="clip_0">
<path transform="matrix(1,0,0,-1,-293.7635,932.9146)" d="M293.7635 136.0046H1423.974V932.9146H293.7635Z" fill-rule="evenodd"/>
</clipPath>
<clipPath id="clip_1">
<path transform="matrix(1,0,0,-1,-293.7635,932.9146)" d="M0 0H1920V1080H0Z"/>
</clipPath>
<clipPath id="clip_2">
<path transform="matrix(1,0,0,-1,-293.7635,932.9146)" d="M650.4315 420.2148H728.6008V513.2548H650.4315Z"/>
</clipPath>
<clipPath id="clip_3">
<path transform="matrix(1,0,0,-1,-293.7635,932.9146)" d="M650.4315 420.2148H728.6008V513.2548H650.4315Z"/>
</clipPath>
<clipPath id="clip_4">
<path transform="matrix(1,0,0,-1,-293.7635,932.9146)" d="M574.802 686.9173H652.9713V778.3804H574.802Z"/>
</clipPath>
<clipPath id="clip_5">
<path transform="matrix(1,0,0,-1,-293.7635,932.9146)" d="M574.802 686.9173H652.9713V778.3803H574.802Z"/>
</clipPath>
<clipPath id="clip_6">
<path transform="matrix(1,0,0,-1,-293.7635,932.9146)" d="M1147.562 637.5337H1214.5651V718.931H1147.562Z"/>
</clipPath>
<clipPath id="clip_7">
<path transform="matrix(1,0,0,-1,-293.7635,932.9146)" d="M1147.562 637.5337H1214.5651V718.931H1147.562Z"/>
</clipPath>
<clipPath id="clip_8">
<path transform="matrix(1,0,0,-1,-293.7635,932.9146)" d="M920.7225 325.3997H1024.5119V403.98506H920.7225Z"/>
</clipPath>
<clipPath id="clip_9">
<path transform="matrix(1,0,0,-1,-293.7635,932.9146)" d="M0 0H1920V1080H0Z"/>
</clipPath>
<clipPath id="clip_10">
<path transform="matrix(1,0,0,-1,-293.7635,932.9146)" d="M895.211 561.8729H1050.0109V688.3596H895.211Z"/>
</clipPath>
<clipPath id="clip_11">
<path transform="matrix(1,0,0,-1,-293.7635,932.9146)" d="M0 0H1920V1080H0Z"/>
</clipPath>
<clipPath id="clip_12">
<path transform="matrix(1,0,0,-1,-293.7635,932.9146)" d="M748.6534 713.138H830.05068V794.5353H748.6534Z"/>
</clipPath>
<clipPath id="clip_13">
<path transform="matrix(1,0,0,-1,-293.7635,932.9146)" d="M0 0H1920V1080H0Z"/>
</clipPath>
</defs>
<g clip-path="url(#clip_0)">
<g clip-path="url(#clip_1)">
<path transform="matrix(1,0,0,-1,-293.7635,932.9146)" d="M0 0H1920V1080H0Z" fill="#ffffff"/>
</g>
<g clip-path="url(#clip_2)">
<path transform="matrix(1,0,0,-1,-293.7635,932.9146)" d="M650.4315 420.1239H729.1763V513.25479H650.4315Z" fill-opacity="0"/>
</g>
<g clip-path="url(#clip_3)">
<path transform="matrix(1,0,0,-1,-293.7635,932.9146)" d="M659.7143 497.0212C673.0479 511.7329 688.4258 519.7361 699.9725 506.6447 703.0012 506.5009 705.7042 505.4939 707.9757 503.3587 712.7307 498.899 713.45 490.5475 711.2921 483.9072V478.13C712.761 477.1684 713.6999 475.3588 714.139 473.2918 714.4192 471.9592 714.4873 470.4979 714.3586 469.0971 714.2223 467.6509 713.8664 466.2577 713.291 465.1296 712.4657 463.5017 711.2088 462.3584 709.5052 462.1085 707.8394 460.3367 706.2115 458.4438 704.7502 456.6115 703.1526 454.605 701.7821 452.7046 700.8433 451.1524 700.1164 449.9485 700.3435 449.161 700.6085 448.2676 700.7373 447.8209 700.8735 447.359 700.972 446.8441 703.8871 446.2081 706.5296 445.716 708.8995 445.2692 723.9443 442.4526 728.6084 441.5819 728.6084 422.0168 728.6084 421.0173 727.7982 420.2148 726.8063 420.2148H689.5161 652.2335C651.234 420.2148 650.4315 421.0249 650.4315 422.0168 650.4315 441.5819 655.0956 442.4602 670.1404 445.2768 672.5254 445.7235 675.1831 446.2233 678.1208 446.8593 678.2193 447.2454 678.348 447.6089 678.4767 447.9723 678.7796 448.8355 679.0824 449.6986 678.1966 451.1524 677.2577 452.7046 675.8872 454.605 674.2896 456.6115 672.8359 458.4438 671.2004 460.3367 669.5346 462.1085 667.831 462.3584 666.5741 463.5093 665.7488 465.1296 665.1734 466.2653 664.8175 467.6585 664.6812 469.0971 664.5449 470.4979 664.6207 471.9592 664.9008 473.2918 665.3324 475.3513 666.2637 477.1457 667.7175 478.1149L665.764 479.2734C665.2415 485.0656 666.7634 495.1207 659.7143 497.0212ZM707.688 485.4669C707.3624 487.852 706.7416 489.8509 705.8557 491.5242 704.7199 492.9401 703.0693 494.144 700.9493 495.6962L700.707 495.8703C700.2603 496.2035 699.806 496.5139 699.3517 496.8016 692.2192 492.1754 688.7665 493.2581 683.0121 492.3117 677.7953 491.4561 673.5627 489.5177 671.3443 485.9742 671.3443 485.8834 671.3443 485.7849 671.3443 485.6941V476.9867C671.3443 476.1311 670.7461 475.4118 669.9435 475.2301 669.2166 475.0105 668.6942 473.9202 668.414 472.5573 668.2096 471.5655 668.1566 470.4751 668.255 469.4303 668.3535 468.4308 668.5806 467.4919 668.9592 466.7575 669.2923 466.0987 669.7239 465.652 670.2237 465.6444H670.3297C670.8521 465.652 671.3291 465.44 671.6623 465.0841 673.5703 463.0777 675.4556 460.9122 677.1063 458.8376 678.7644 456.7554 680.2182 454.7262 681.2631 452.9999 683.0273 450.0924 682.4442 448.4342 681.8688 446.776 681.7022 446.299 681.5356 445.8144 681.5356 445.3601 681.5356 444.4515 680.8618 443.7019 679.991 443.5732 676.5157 442.7933 673.487 442.2254 670.8067 441.7257 658.4877 439.4315 654.3536 438.6516 654.0583 423.8188H689.5161 724.974C724.6787 438.6516 720.5446 439.4315 708.2332 441.7409 705.5225 442.2482 702.4484 442.8236 698.9125 443.6186 698.0796 443.8079 697.5042 444.5499 697.5118 445.3752H697.5042C697.5042 446.0794 697.3225 446.6927 697.1559 447.2681 696.6637 448.9566 696.2246 450.4558 697.7692 453.0074 698.8141 454.7338 700.2678 456.763 701.926 458.8451 703.5766 460.9198 705.4619 463.0852 707.37 465.0917 707.7562 465.493 708.2786 465.6823 708.7935 465.6445H708.801C709.3008 465.652 709.7323 466.0988 710.0655 466.7575 710.4365 467.4919 710.6712 468.4308 710.7696 469.4303 710.8681 470.4751 710.8151 471.5655 710.6106 472.5573 710.3229 473.9429 709.7853 475.0484 709.0433 475.2377 708.2256 475.4421 707.6804 476.1766 707.6804 476.9867V485.4669H707.688Z" fill-rule="evenodd"/>
</g>
<g clip-path="url(#clip_4)">
<path transform="matrix(1,0,0,-1,-293.7635,932.9146)" d="M574.802 686.828H653.7008V778.3804H574.802Z" fill-opacity="0"/>
</g>
<g clip-path="url(#clip_5)">
<path transform="matrix(1,0,0,-1,-293.7635,932.9146)" d="M578.7618 767.4834H594.028V774.4205H594.0354C594.0354 775.5147 594.482 776.5047 595.1966 777.2192 595.9037 777.9263 596.8937 778.3729 597.9878 778.3729V778.3804H627.4707 628.3787L629.0338 777.7254 652.3238 754.346 652.9713 752.7904V701.2829H652.9639C652.9639 700.1887 652.5247 699.1987 651.8102 698.4842H651.8027C651.0956 697.7696 650.1057 697.3305 649.0115 697.3305V697.323H633.7453V690.8846H633.7379C633.7379 689.7904 633.2988 688.8005 632.5842 688.0859H632.5768C631.8622 687.3788 630.8797 686.9322 629.7855 686.9322V686.9248H578.7618V686.9322C577.6677 686.9322 576.6777 687.3788 575.9632 688.0934 575.256 688.8079 574.8094 689.7904 574.8094 690.8846H574.802V763.5161H574.8094C574.8094 764.6103 575.256 765.6003 575.9706 766.3148 576.6777 767.0219 577.6677 767.4685 578.7618 767.4685V767.4834ZM598.4419 767.4834H608.2447 609.1527L609.8078 766.8284 633.0978 743.4491 633.7454 741.8934V701.7369H648.55V751.4059H630.4256C629.1007 751.4059 627.9024 751.9567 627.0315 752.8499 626.1607 753.7357 625.6173 754.9638 625.6173 756.311V773.9591H598.4419V767.4834ZM625.7066 776.1697H627.4707L650.7607 752.7904V751.4952H630.4256C627.8279 751.4952 625.6992 753.6687 625.6992 756.3185V776.1697H625.7066ZM629.3315 740.509H611.2071C609.8822 740.509 608.6838 741.0598 607.813 741.953 606.9421 742.8387 606.3987 744.0668 606.3987 745.4141V763.0621H594.028 579.2233V691.3386H629.3315V697.323 699.5337 740.509Z"/>
</g>
<g clip-path="url(#clip_6)">
<path transform="matrix(1,0,0,-1,-293.7635,932.9146)" d="M1147.562 637.4542H1215.1282V718.931H1147.562Z" fill-opacity="0"/>
</g>
<g clip-path="url(#clip_7)">
<path transform="matrix(1,0,0,-1,-293.7635,932.9146)" d="M1159.505 700.92C1164.976 699.0918 1172.594 697.9657 1181.053 697.9657 1189.512 697.9657 1197.13 699.0984 1202.602 700.92 1207.404 702.5231 1210.378 704.4639 1210.378 706.3651 1210.378 708.2662 1207.411 710.2071 1202.602 711.8101 1197.13 713.6317 1189.512 714.7645 1181.053 714.7645 1172.594 714.7645 1164.976 713.6317 1159.505 711.8101 1149.317 708.4053 1149.032 704.4176 1159.505 700.92ZM1210.385 662.2351C1208.676 661.0626 1206.497 660.0359 1203.92 659.1748 1198.024 657.2074 1189.936 655.9885 1181.053 655.9885 1172.17 655.9885 1164.082 657.2074 1158.187 659.1748 1155.643 660.0226 1153.477 661.0428 1151.775 662.1887V649.7023C1152.152 647.9336 1155.034 646.1451 1159.505 644.6547 1164.976 642.8264 1172.594 641.7003 1181.053 641.7003 1189.512 641.7003 1197.13 642.833 1202.602 644.6547 1205.92 645.7609 1208.358 647.0327 1209.557 648.3311 1210.544 649.4042 1210.385 650.113 1210.385 651.4047V662.2351ZM1147.562 706.3651C1147.562 710.2534 1151.622 713.5522 1158.187 715.7448 1164.082 717.7122 1172.17 718.931 1181.053 718.931 1189.936 718.931 1198.024 717.7122 1203.92 715.7448 1209.895 713.751 1213.796 710.8363 1214.445 707.3918 1214.525 707.1732 1214.565 706.9347 1214.565 706.6896V649.2319C1214.565 645.2508 1206.954 641.7268 1203.92 640.7133 1198.024 638.7459 1189.936 637.5271 1181.053 637.5271 1172.17 637.5271 1164.082 638.7459 1158.187 640.7133 1155.08 641.7533 1147.608 645.1581 1147.608 649.2319 1147.608 649.7089 1147.608 650.1063 1147.608 650.5634 1147.608 669.1706 1147.562 687.7711 1147.562 706.3651ZM1151.775 668.1637C1152.152 666.3951 1155.034 664.6065 1159.505 663.1161 1164.976 661.2879 1172.594 660.1617 1181.053 660.1617 1189.512 660.1617 1197.13 661.2945 1202.602 663.1161 1207.404 664.7192 1210.378 666.66 1210.378 668.5611H1210.398V680.6899C1208.689 679.5175 1206.497 678.4907 1203.92 677.6296 1198.024 675.6622 1189.936 674.4434 1181.053 674.4434 1172.17 674.4434 1164.082 675.6622 1158.187 677.6296 1155.643 678.4775 1153.477 679.4976 1151.775 680.6436V668.1637ZM1151.775 686.6185C1152.152 684.8499 1155.034 683.0614 1159.505 681.5709 1164.976 679.7427 1172.594 678.6166 1181.053 678.6166 1189.512 678.6166 1197.13 679.7493 1202.602 681.5709 1207.404 683.174 1210.378 685.1148 1210.378 687.016H1210.398V700.039C1208.689 698.8665 1206.497 697.8398 1203.92 696.9787 1198.024 695.0113 1189.936 693.7925 1181.053 693.7925 1172.17 693.7925 1164.082 695.0113 1158.187 696.9787 1155.643 697.8266 1153.477 698.8467 1151.775 699.9926V686.6185Z"/>
</g>
<g clip-path="url(#clip_8)">
<path transform="matrix(1,0,0,-1,-293.7635,932.9146)" d="M920.7225 324.5889H1024.6133V403.9851H920.7225Z" fill-opacity="0"/>
<path transform="matrix(1,0,0,-1,-293.7635,932.9146)" d="M926.711 366.9307H932.7164V368.3244C932.7164 370.1826 933.0881 371.9563 933.7638 373.578 934.4648 375.2589 935.4869 376.7792 936.7623 378.0462 938.0292 379.3132 939.5496 380.3436 941.2304 381.0447 942.8521 381.7204 944.6259 382.092 946.4841 382.092H970.379V382.2103 390.7665C969.9904 390.9101 969.6188 391.0874 969.264 391.2902 968.7657 391.5858 968.3096 391.9405 967.9042 392.346 967.2791 392.971 966.7723 393.7227 966.426 394.5589 966.0966 395.3613 965.9108 396.2482 965.9108 397.1604 965.9108 398.0811 966.0966 398.9595 966.426 399.7619 966.7723 400.5981 967.2791 401.3498 967.9042 401.9749 968.5292 402.5999 969.2809 403.1067 970.1171 403.453 970.9195 403.7908 971.8064 403.9682 972.7186 403.9682 973.6308 403.9682 974.5177 403.7824 975.3201 403.453 976.1563 403.1067 976.908 402.5999 977.5331 401.9749 978.1581 401.3498 978.6649 400.5981 979.0112 399.7619 979.3406 398.9595 979.5264 398.0726 979.5264 397.1604 979.5264 396.2398 979.3406 395.3613 979.0112 394.5589 978.6649 393.7227 978.1581 392.971 977.5331 392.346L977.4993 392.3122C977.1023 391.9236 976.6546 391.5773 976.1732 391.2902 975.8184 391.079 975.4468 390.9016 975.0583 390.7665V382.2103 382.092H998.9532C1000.811 382.092 1002.585 381.7204 1004.207 381.0447 1005.896 380.3436 1007.408 379.3216 1008.675 378.0462 1009.942 376.7792 1010.972 375.2589 1011.673 373.578 1012.349 371.9563 1012.721 370.1826 1012.721 368.3244V366.9307H1018.515C1019.317 366.9307 1020.095 366.7702 1020.804 366.4746 1021.539 366.1705 1022.198 365.7229 1022.747 365.1739L1022.78 365.1401C1023.321 364.5911 1023.752 363.9491 1024.047 363.2312 1024.343 362.5217 1024.504 361.7531 1024.504 360.9422V344.9616C1024.504 344.1592 1024.343 343.3821 1024.047 342.6726 1023.743 341.9463 1023.296 341.279 1022.747 340.73 1021.666 339.6488 1020.162 338.9731 1018.515 338.9731H1012.712C1012.687 337.1909 1012.315 335.4763 1011.665 333.9137 1010.964 332.2244 1009.942 330.7125 1008.667 329.4456 1007.4 328.1786 1005.879 327.1481 1004.198 326.4471 1002.577 325.7714 1000.803 325.3997 998.9447 325.3997H946.4841C944.6259 325.3997 942.8521 325.7714 941.2304 326.4471 939.5411 327.1481 938.0292 328.1702 936.7623 329.4456 935.4953 330.7125 934.4648 332.2329 933.7638 333.9137 933.1134 335.4763 932.7418 337.1909 932.7164 338.9731H926.711C925.9086 338.9731 925.1316 339.1336 924.4221 339.4292 923.6872 339.7333 923.0284 340.181 922.4794 340.73L922.4456 340.7638C921.905 341.3128 921.4743 341.9547 921.1786 342.6726 920.883 343.3821 920.7225 344.1592 920.7225 344.9616V360.9422C920.7225 361.7446 920.883 362.5217 921.1786 363.2312 921.4827 363.966 921.9304 364.6249 922.4794 365.1739 923.0284 365.7229 923.6872 366.1705 924.4221 366.4746 925.1316 366.7702 925.9002 366.9307 926.711 366.9307ZM960.4206 341.2283C960.3024 341.3212 960.201 341.4226 960.1081 341.5408 959.8294 341.8787 959.6858 342.2672 959.6774 342.6642 959.6689 343.0612 959.7956 343.4582 960.0574 343.8045 960.1504 343.9227 960.2517 344.0325 960.3784 344.1339 960.8176 344.4971 961.4004 344.6913 961.9748 344.6998 962.5491 344.7082 963.1235 344.5393 963.5796 344.193 965.1506 342.9852 966.7048 342.1067 968.242 341.5239 969.7624 340.9496 971.2658 340.6793 972.7524 340.6962 974.2474 340.7131 975.7593 341.0256 977.305 341.6084 978.8676 342.1996 980.4386 343.0865 982.035 344.2268 982.508 344.5646 983.0908 344.7167 983.6652 344.6913 984.2395 344.666 984.8139 344.4633 985.2446 344.0832 985.3544 343.9818 985.4558 343.872 985.5487 343.7453 985.8021 343.3906 985.9204 342.9852 985.895 342.5882 985.8697 342.1912 985.7092 341.8027 985.422 341.4732 985.3207 341.3634 985.2024 341.2536 985.0673 341.1607 983.0655 339.7164 981.0552 338.6184 979.0196 337.8666 976.9756 337.1149 974.9062 336.7179 972.8115 336.6926 970.7084 336.6672 968.6306 337.022 966.5612 337.7737 964.5087 338.517 962.4647 339.6573 960.4544 341.203L960.4206 341.2283ZM955.1585 367.0574C955.6653 367.0574 956.1721 367.0067 956.6535 366.9054 957.1434 366.804 957.6249 366.6604 958.0894 366.4662 958.5624 366.2719 959.0101 366.0354 959.424 365.7567 959.8294 365.4864 960.2095 365.1823 960.5473 364.8445L960.598 364.8022C960.9528 364.4475 961.2737 364.0589 961.5525 363.6366L961.5694 363.6113C961.8396 363.2059 962.0761 362.7666 962.262 362.3021 962.4562 361.8375 962.5998 361.3561 962.7012 360.8662 962.7941 360.3763 962.8532 359.878 962.8532 359.3712 962.8532 358.8644 962.8025 358.3576 962.7012 357.8762 962.5998 357.3863 962.4562 356.9048 962.262 356.4318 962.0677 355.9588 961.8312 355.5112 961.5525 355.0973 961.2653 354.6665 960.9443 354.278 960.598 353.9317 959.897 353.2306 959.0439 352.6563 958.0894 352.2678 957.6249 352.0735 957.1434 351.9299 956.6451 351.8285 956.1552 351.7356 955.6569 351.685 955.1501 351.685 954.6433 351.685 954.1365 351.7356 953.6551 351.8285 953.1652 351.9299 952.6837 352.0735 952.2107 352.2678 951.7377 352.462 951.2901 352.6985 950.8762 352.9773 950.4454 353.2644 950.0569 353.5854 949.7106 353.9317 949.3559 354.2864 949.0349 354.675 948.7562 355.0973L948.7393 355.1226C948.469 355.5281 948.2325 355.9673 948.0467 356.4318 947.8524 356.8964 947.7088 357.3778 947.6074 357.8677 947.5145 358.3576 947.4639 358.8559 947.4639 359.3627 947.4639 359.8695 947.5145 360.3763 947.6074 360.8577 947.7088 361.3476 947.8524 361.8291 948.0467 362.2936 948.2409 362.7666 948.4774 363.2143 948.7562 363.6282 949.0433 364.0589 949.3643 364.4475 949.7106 364.7938 950.0654 365.1485 950.4539 365.4695 950.8762 365.7482L950.9015 365.7651C951.307 366.0354 951.7462 366.2719 952.2107 366.4577 952.6753 366.652 953.1567 366.7956 953.6466 366.8969 954.145 367.0067 954.6517 367.0574 955.1585 367.0574ZM956.814 363.3579C956.5606 363.4592 956.2904 363.5437 956.0116 363.6028 955.7413 363.6535 955.4542 363.6873 955.1585 363.6873 954.8629 363.6873 954.5757 363.662 954.3054 363.6028 954.0183 363.5437 953.748 363.4677 953.503 363.3579 953.2412 363.2481 952.9963 363.1214 952.7598 362.9609 952.5317 362.8089 952.3121 362.6231 952.1009 362.4119 951.8898 362.2007 951.7124 361.9811 951.5519 361.7531 951.3914 361.5166 951.2647 361.2716 951.1549 361.0182 951.0536 360.7648 950.9691 360.4946 950.91 360.2158 950.8593 359.9455 950.8255 359.6584 950.8255 359.3627 950.8255 359.0671 950.8509 358.7799 950.91 358.5097 950.9691 358.2225 951.0451 357.9522 951.1549 357.7072 951.2647 357.4454 951.3914 357.2005 951.5519 356.9724 951.704 356.7444 951.8898 356.5248 952.1009 356.3136 952.3121 356.1024 952.5317 355.9251 952.7598 355.7646 952.9878 355.6125 953.2412 355.4774 953.503 355.3676L953.5284 355.3507C953.7733 355.2493 954.0267 355.1733 954.3054 355.1226 954.5757 355.072 954.8629 355.0382 955.1585 355.0382 955.4542 355.0382 955.7413 355.0635 956.0116 355.1226 956.2988 355.1818 956.5606 355.2578 956.814 355.3591 957.0759 355.4689 957.3208 355.6041 957.5573 355.7561 957.7854 355.9082 958.005 356.094 958.2161 356.3051 958.4273 356.5163 958.6047 356.7359 958.7651 356.964 958.9256 357.2005 959.0523 357.4454 959.1621 357.6988 959.2635 357.9522 959.348 358.2225 959.4071 358.5012 959.4578 358.7715 959.4915 359.0587 959.4915 359.3543 959.4915 359.6499 959.4662 359.9371 959.4071 360.2074 959.348 360.4946 959.2719 360.7648 959.1621 361.0098 959.0523 361.2716 958.9256 361.5166 958.7651 361.7531 958.6047 361.9896 958.4273 362.2092 958.2246 362.4119L958.1823 362.4541C957.9881 362.6399 957.7854 362.8089 957.5658 362.9525 957.3293 363.1214 957.0759 363.2565 956.814 363.3579ZM990.2787 367.0574C990.7855 367.0574 991.2923 367.0067 991.7737 366.9054 992.2636 366.804 992.745 366.6604 993.2096 366.4662 993.6826 366.2719 994.1302 366.0354 994.5441 365.7567 994.9411 365.4864 995.3128 365.1908 995.6506 364.8529 995.6675 364.836 995.6928 364.8191 995.7097 364.8022 996.0645 364.4475 996.3854 364.0589 996.6642 363.6366L996.6811 363.6113C996.9513 363.2059 997.1878 362.7666 997.3737 362.3021 997.5679 361.8375 997.7115 361.3561 997.8129 360.8662 997.9058 360.3763 997.9565 359.878 997.9565 359.3712 997.9565 358.8644 997.9058 358.3576 997.8129 357.8762 997.7115 357.3863 997.5679 356.9048 997.3737 356.4318 997.1794 355.9588 996.9429 355.5112 996.6642 355.0973 996.377 354.6665 996.056 354.278 995.7097 353.9317 995.355 353.577 994.9664 353.256 994.5441 352.9773L994.5188 352.9604C994.1049 352.6901 993.6741 352.4536 993.2096 352.2678 992.745 352.0735 992.2636 351.9299 991.7653 351.8285 991.2754 351.7356 990.777 351.685 990.2702 351.685 989.7635 351.685 989.2567 351.7356 988.7752 351.8285 988.2853 351.9299 987.8039 352.0735 987.3309 352.2678 986.8495 352.4705 986.4018 352.707 985.9964 352.9773L985.9541 353.011C985.5487 353.2898 985.1686 353.5938 984.8308 353.9317 984.476 354.2864 984.155 354.675 983.8763 355.0973L983.8594 355.1226C983.5891 355.5281 983.3526 355.9673 983.1668 356.4318 982.9726 356.8964 982.829 357.3778 982.7276 357.8677 982.6347 358.3576 982.5756 358.8559 982.5756 359.3627 982.5756 359.8695 982.6262 360.3763 982.7276 360.8577 982.829 361.3476 982.9726 361.8291 983.1668 362.2936 983.3611 362.7666 983.5976 363.2143 983.8763 363.6282 984.1635 364.0589 984.4845 364.4475 984.8308 364.7938 985.1771 365.1401 985.574 365.461 985.9964 365.7482 986.4102 366.027 986.8579 366.2635 987.3309 366.4662 987.7954 366.6604 988.2769 366.804 988.7668 366.9054 989.2736 367.0067 989.7719 367.0574 990.2787 367.0574ZM991.9426 363.3579C991.6892 363.4592 991.419 363.5437 991.1402 363.6028 990.8699 363.6535 990.5828 363.6873 990.2871 363.6873 989.9915 363.6873 989.7043 363.662 989.4341 363.6028 989.1469 363.5437 988.8766 363.4677 988.6316 363.3579 988.3698 363.2481 988.1249 363.1214 987.8884 362.9609 987.6603 362.8089 987.4407 362.6231 987.2295 362.4119 987.0184 362.2007 986.841 361.9811 986.6805 361.7531 986.52 361.5166 986.3934 361.2716 986.2835 361.0182 986.1822 360.7648 986.0977 360.4946 986.0386 360.2158 985.9879 359.9455 985.9541 359.6584 985.9541 359.3627 985.9541 359.0671 985.9795 358.7799 986.0386 358.5097 986.0977 358.2225 986.1737 357.9522 986.2835 357.7072 986.3933 357.4454 986.52 357.2005 986.6805 356.9724 986.8326 356.7444 987.0184 356.5248 987.2295 356.3136 987.4407 356.1024 987.6603 355.9251 987.8884 355.7646 988.1164 355.6125 988.3698 355.4774 988.6316 355.3676L988.657 355.3507C988.9019 355.2493 989.1553 355.1733 989.4341 355.1226 989.7043 355.072 989.9915 355.0382 990.2871 355.0382 990.5828 355.0382 990.8699 355.0635 991.1402 355.1226 991.4274 355.1818 991.6892 355.2578 991.9426 355.3591 992.2045 355.4689 992.4494 355.6041 992.6859 355.7561 992.9224 355.9166 993.142 356.094 993.3447 356.2967 993.5559 356.5079 993.7333 356.7275 993.8938 356.9555 994.0542 357.192 994.1809 357.437 994.2907 357.6904 994.3921 357.9437 994.4766 358.214 994.5357 358.4928 994.5864 358.763 994.6201 359.0502 994.6201 359.3458 994.6201 359.6415 994.5948 359.9287 994.5357 360.1989 994.4766 360.4861 994.4005 360.7564 994.2907 361.0013 994.1809 361.2632 994.0542 361.5081 993.8938 361.7446 993.7333 361.9811 993.5559 362.2007 993.3532 362.4034L993.3109 362.4457C993.1167 362.6315 992.914 362.8004 992.6944 362.944 992.4494 363.1214 992.2045 363.2565 991.9426 363.3579ZM936.0865 365.2414V339.1674C936.0865 337.7653 936.3653 336.4307 936.8721 335.206 937.4042 333.9391 938.1728 332.7903 939.1357 331.8275 940.0986 330.8646 941.2473 330.0875 942.5143 329.5638 943.7305 329.057 945.0735 328.7783 946.4756 328.7783H998.9532C1000.355 328.7783 1001.69 329.057 1002.915 329.5638 1004.181 330.0959 1005.33 330.8646 1006.293 331.8275 1007.256 332.7903 1008.033 333.9391 1008.557 335.206 1009.064 336.4223 1009.342 337.7653 1009.342 339.1674V368.3244C1009.342 369.7265 1009.064 371.0695 1008.557 372.2857 1008.025 373.5527 1007.256 374.7014 1006.293 375.6643 1005.33 376.6272 1004.181 377.4043 1002.915 377.9279 1001.698 378.4347 1000.355 378.7135 998.9532 378.7135H946.4841C945.082 378.7135 943.7474 378.4347 942.5227 377.9279 941.2557 377.3958 940.107 376.6272 939.1441 375.6643 938.1813 374.7014 937.4042 373.5527 936.8805 372.2857 936.3737 371.0695 936.095 369.7265 936.095 368.3244V365.2414H936.0865ZM932.7164 363.5606H926.711C926.3563 363.5606 926.0184 363.493 925.7144 363.3663 925.3934 363.2312 925.1062 363.0369 924.8613 362.792L924.8275 362.7666C924.5994 362.5301 924.4136 362.2514 924.2869 361.9473 924.1602 361.6433 924.0927 361.3054 924.0927 360.9507V344.9701C924.0927 344.6153 924.1602 344.2775 924.2869 343.9734 924.4221 343.6524 924.6163 343.3652 924.8613 343.1203 925.3343 342.6473 925.9846 342.3517 926.7026 342.3517H932.708V363.5606H932.7164ZM1018.523 363.5606H1012.729V342.3517H1018.523C1018.878 342.3517 1019.216 342.4193 1019.52 342.5459 1019.841 342.6811 1020.128 342.8754 1020.373 343.1203 1020.618 343.3652 1020.812 343.6524 1020.948 343.9734 1021.074 344.2775 1021.142 344.6153 1021.142 344.9701V360.9422C1021.142 361.297 1021.074 361.6348 1020.948 361.9389 1020.812 362.2599 1020.618 362.547 1020.373 362.792 1020.128 363.0369 1019.841 363.2312 1019.52 363.3663 1019.216 363.4846 1018.878 363.5606 1018.523 363.5606Z"/>
</g>
<g clip-path="url(#clip_9)">
<path transform="matrix(1,0,0,1,359.2072,201.42169)" stroke-width="3" stroke-linecap="butt" stroke-miterlimit="4" stroke-linejoin="miter" fill="none" stroke="#000000" d="M84.8286 4.368905 83.4371 4.929021C54.30476 15.61534 26.49344 18.30147 0 12.98867"/>
<path transform="matrix(1,0,0,-1,-293.7635,932.9146)" d="M738.8723 720.4413 748.653 731.4929 733.9433 732.6865Z"/>
<path transform="matrix(1,0,0,1,756.26058,295.38093)" stroke-width="3" stroke-linecap="butt" stroke-miterlimit="4" stroke-linejoin="miter" fill="none" stroke="#000000" d="M11.66471 29.92825 13.16018 30.04467C49.7951 31.92736 78.37125 24.87998 98.88888 8.902546L99.99664 7.8907"/>
<path transform="matrix(1,0,0,-1,-293.7635,932.9146)" d="M1153.364 623.7583 1158.659 637.5337 1144.461 633.5045Z"/>
<path transform="matrix(1,0,0,-1,-293.7635,932.9146)" d="M1063.696 614.0691 1050.024 608.5136 1062.671 600.909Z"/>
<path transform="matrix(1,0,0,1,730.7485,295.38093)" stroke-width="3" stroke-linecap="butt" stroke-miterlimit="4" stroke-linejoin="miter" fill="none" stroke="#000000" d="M156.9903 0C153.5119 121.6727 105.1877 204.9496 12.01751 249.8309L10.649 250.4537"/>
<path transform="matrix(1,0,0,-1,-293.7635,932.9146)" d="M1033.792 393.7085 1024.512 382.2335 1039.26 381.6942Z"/>
<path transform="matrix(1,0,0,1,402.04853,303.43403)" stroke-width="3" stroke-linecap="butt" stroke-miterlimit="4" stroke-linejoin="miter" fill="none" stroke="#000000" d="M187.7019 .2623684 186.2023 .2960054C81.21889 4.125063 19.15146 42.76834 0 116.2258"/>
<path transform="matrix(1,0,0,-1,-293.7635,932.9146)" d="M882.1623 622.5863 895.211 629.4806 881.8663 635.7829Z"/>
<path transform="matrix(1,0,0,1,434.83735,508.5137)" stroke-width="3" stroke-linecap="round" stroke-dasharray=".003,9" stroke-dashoffset=".5" stroke-linejoin="round" fill="none" stroke="#000000" d="M180.4295 67.78618 178.9309 67.85146C115.2424 69.20437 58.91658 49.47963 9.953495 8.677244L8.819212 7.6884"/>
<path transform="matrix(1,0,0,-1,-293.7635,932.9146)" d="M742.8877 420.7018 728.6008 424.4009 734.2136 410.7519Z"/>
<path transform="matrix(1,0,0,-1,-293.7635,932.9146)" d="M907.819 349.9557 920.7192 357.1239 907.2445 363.1432Z"/>
</g>
<g clip-path="url(#clip_10)">
<path transform="matrix(1,0,0,-1,-293.7635,932.9146)" d="M12.51756 82.39418H1883.7645V1153.2442H12.51756Z" fill-opacity="0"/>
<path transform="matrix(1.268868,0,0,1.268868,-305.38688,-228.1474)" stroke-width="2" stroke-linecap="butt" stroke-miterlimit="4" stroke-linejoin="miter" fill="none" stroke="#000000" d="M726 403 775 383.5"/>
<path transform="matrix(1.268868,0,0,1.268868,-305.38688,-228.1474)" stroke-width="2" stroke-linecap="butt" stroke-miterlimit="4" stroke-linejoin="miter" fill="none" stroke="#000000" d="M726 403 775 422.5"/>
<path transform="matrix(1.268868,0,0,1.268868,-305.38688,-228.1474)" stroke-width="2" stroke-linecap="butt" stroke-miterlimit="4" stroke-linejoin="miter" fill="none" stroke="#000000" d="M726 403 775 461.5"/>
<path transform="matrix(1.268868,0,0,1.268868,-305.38688,-228.1474)" stroke-width="2" stroke-linecap="butt" stroke-miterlimit="4" stroke-linejoin="miter" fill="none" stroke="#000000" d="M726 442 775 383.5"/>
<path transform="matrix(1.268868,0,0,1.268868,-305.38688,-228.1474)" stroke-width="2" stroke-linecap="butt" stroke-miterlimit="4" stroke-linejoin="miter" fill="none" stroke="#000000" d="M726 442 775 422.5"/>
<path transform="matrix(1.268868,0,0,1.268868,-305.38688,-228.1474)" stroke-width="2" stroke-linecap="butt" stroke-miterlimit="4" stroke-linejoin="miter" fill="none" stroke="#000000" d="M726 442 775 461.5"/>
<path transform="matrix(1.268868,0,0,1.268868,-305.38688,-228.1474)" stroke-width="2" stroke-linecap="butt" stroke-miterlimit="4" stroke-linejoin="miter" fill="none" stroke="#000000" d="M775 383.5 824 403"/>
<path transform="matrix(1.268868,0,0,1.268868,-305.38688,-228.1474)" stroke-width="2" stroke-linecap="butt" stroke-miterlimit="4" stroke-linejoin="miter" fill="none" stroke="#000000" d="M775 383.5 824 442"/>
<path transform="matrix(1.268868,0,0,1.268868,-305.38688,-228.1474)" stroke-width="2" stroke-linecap="butt" stroke-miterlimit="4" stroke-linejoin="miter" fill="none" stroke="#000000" d="M775 422.5 824 403"/>
<path transform="matrix(1.268868,0,0,1.268868,-305.38688,-228.1474)" stroke-width="2" stroke-linecap="butt" stroke-miterlimit="4" stroke-linejoin="miter" fill="none" stroke="#000000" d="M775 422.5 824 442"/>
<path transform="matrix(1.268868,0,0,1.268868,-305.38688,-228.1474)" stroke-width="2" stroke-linecap="butt" stroke-miterlimit="4" stroke-linejoin="miter" fill="none" stroke="#000000" d="M775 461.5 824 403"/>
<path transform="matrix(1.268868,0,0,1.268868,-305.38688,-228.1474)" stroke-width="2" stroke-linecap="butt" stroke-miterlimit="4" stroke-linejoin="miter" fill="none" stroke="#000000" d="M775 461.5 824 442"/>
<path transform="matrix(1,0,0,-1,-293.7635,932.9146)" d="M921.6289 649.7085C921.6289 643.0511 916.2321 637.6543 909.5747 637.6543 902.9173 637.6543 897.5205 643.0511 897.5205 649.7085 897.5205 656.3658 902.9173 661.7627 909.5747 661.7627 916.2321 661.7627 921.6289 656.3658 921.6289 649.7085Z" fill="#ffffff"/>
<path transform="matrix(1.268868,0,0,1.268868,-305.38688,-228.1474)" stroke-width="1" stroke-linecap="butt" stroke-miterlimit="4" stroke-linejoin="miter" fill="none" stroke="#000000" d="M735.5 403C735.5 408.2467 731.2467 412.5 726 412.5 720.7533 412.5 716.5 408.2467 716.5 403 716.5 397.7533 720.7533 393.5 726 393.5 731.2467 393.5 735.5 397.7533 735.5 403Z"/>
<path transform="matrix(1,0,0,-1,-293.7635,932.9146)" d="M921.6289 600.2226C921.6289 593.5652 916.2321 588.1684 909.5747 588.1684 902.9173 588.1684 897.5205 593.5652 897.5205 600.2226 897.5205 606.8799 902.9173 612.2769 909.5747 612.2769 916.2321 612.2769 921.6289 606.8799 921.6289 600.2226Z" fill="#ffffff"/>
<path transform="matrix(1.268868,0,0,1.268868,-305.38688,-228.1474)" stroke-width="1" stroke-linecap="butt" stroke-miterlimit="4" stroke-linejoin="miter" fill="none" stroke="#000000" d="M735.5 442C735.5 447.2467 731.2467 451.5 726 451.5 720.7533 451.5 716.5 447.2467 716.5 442 716.5 436.7533 720.7533 432.5 726 432.5 731.2467 432.5 735.5 436.7533 735.5 442Z"/>
<path transform="matrix(1,0,0,-1,-293.7635,932.9146)" d="M983.8035 674.4515C983.8035 667.794 978.4066 662.3971 971.7493 662.3971 965.0919 662.3971 959.6949 667.794 959.6949 674.4515 959.6949 681.1089 965.0919 686.5057 971.7493 686.5057 978.4066 686.5057 983.8035 681.1089 983.8035 674.4515Z" fill="#ffffff"/>
<path transform="matrix(1.268868,0,0,1.268868,-305.38688,-228.1474)" stroke-width="1" stroke-linecap="butt" stroke-miterlimit="4" stroke-linejoin="miter" fill="none" stroke="#000000" d="M784.5 383.5C784.5 388.7467 780.2467 393 775 393 769.7533 393 765.5 388.7467 765.5 383.5 765.5 378.2533 769.7533 374 775 374 780.2467 374 784.5 378.2533 784.5 383.5Z"/>
<path transform="matrix(1,0,0,-1,-293.7635,932.9146)" d="M983.8035 624.9656C983.8035 618.3082 978.4066 612.9112 971.7493 612.9112 965.0919 612.9112 959.6949 618.3082 959.6949 624.9656 959.6949 631.623 965.0919 637.0198 971.7493 637.0198 978.4066 637.0198 983.8035 631.623 983.8035 624.9656Z" fill="#ffffff"/>
<path transform="matrix(1.268868,0,0,1.268868,-305.38688,-228.1474)" stroke-width="1" stroke-linecap="butt" stroke-miterlimit="4" stroke-linejoin="miter" fill="none" stroke="#000000" d="M784.5 422.5C784.5 427.7467 780.2467 432 775 432 769.7533 432 765.5 427.7467 765.5 422.5 765.5 417.2533 769.7533 413 775 413 780.2467 413 784.5 417.2533 784.5 422.5Z"/>
<path transform="matrix(1,0,0,-1,-293.7635,932.9146)" d="M983.8035 575.4797C983.8035 568.8224 978.4066 563.4255 971.7493 563.4255 965.0919 563.4255 959.6949 568.8224 959.6949 575.4797 959.6949 582.1371 965.0919 587.5339 971.7493 587.5339 978.4066 587.5339 983.8035 582.1371 983.8035 575.4797Z" fill="#ffffff"/>
<path transform="matrix(1.268868,0,0,1.268868,-305.38688,-228.1474)" stroke-width="1" stroke-linecap="butt" stroke-miterlimit="4" stroke-linejoin="miter" fill="none" stroke="#000000" d="M784.5 461.5C784.5 466.7467 780.2467 471 775 471 769.7533 471 765.5 466.7467 765.5 461.5 765.5 456.2533 769.7533 452 775 452 780.2467 452 784.5 456.2533 784.5 461.5Z"/>
<path transform="matrix(1,0,0,-1,-293.7635,932.9146)" d="M1045.978 649.7085C1045.978 643.0511 1040.581 637.6543 1033.924 637.6543 1027.266 637.6543 1021.869 643.0511 1021.869 649.7085 1021.869 656.3658 1027.266 661.7627 1033.924 661.7627 1040.581 661.7627 1045.978 656.3658 1045.978 649.7085Z" fill="#ffffff"/>
<path transform="matrix(1.268868,0,0,1.268868,-305.38688,-228.1474)" stroke-width="1" stroke-linecap="butt" stroke-miterlimit="4" stroke-linejoin="miter" fill="none" stroke="#000000" d="M833.5 403C833.5 408.2467 829.2467 412.5 824 412.5 818.7533 412.5 814.5 408.2467 814.5 403 814.5 397.7533 818.7533 393.5 824 393.5 829.2467 393.5 833.5 397.7533 833.5 403Z"/>
<path transform="matrix(1,0,0,-1,-293.7635,932.9146)" d="M1045.978 600.2226C1045.978 593.5652 1040.581 588.1684 1033.924 588.1684 1027.266 588.1684 1021.869 593.5652 1021.869 600.2226 1021.869 606.8799 1027.266 612.2769 1033.924 612.2769 1040.581 612.2769 1045.978 606.8799 1045.978 600.2226Z" fill="#ffffff"/>
<path transform="matrix(1.268868,0,0,1.268868,-305.38688,-228.1474)" stroke-width="1" stroke-linecap="butt" stroke-miterlimit="4" stroke-linejoin="miter" fill="none" stroke="#000000" d="M833.5 442C833.5 447.2467 829.2467 451.5 824 451.5 818.7533 451.5 814.5 447.2467 814.5 442 814.5 436.7533 818.7533 432.5 824 432.5 829.2467 432.5 833.5 436.7533 833.5 442Z"/>
</g>
<g clip-path="url(#clip_11)">
<text xml:space="preserve" transform="matrix(1 0 -0 1 373.3526 537.735)" font-size="20" font-family="Poppins"><tspan y="0" x="0 13.5 23.94 36.34">User</tspan></text>
<text xml:space="preserve" transform="matrix(1 0 -0 1 261.9231 269.682)" font-size="20" font-family="Poppins"><tspan y="0" x="0 14.14 26.940003 39.08 51.880006 72.48001 84.88001 97.680019 104.960018">Documents</tspan></text>
<text xml:space="preserve" transform="matrix(1 0 -0 1 577.8537 397.2544)" font-size="20" font-family="Poppins"><tspan y="0" x="0 10.26 30.860003 44.380006 56.780008 70.30001 83.820018 88.74001 101.540019 115.06002 125.50002 130.84003 148.06003 160.86003 174.38004 186.78003">Embeddings Model</tspan></text>
<text xml:space="preserve" transform="matrix(1 0 -0 1 656.45376 636.4498)" font-size="20" font-family="Poppins"><tspan y="0" x="0 8.64 17.28">LLM</tspan></text>
<text xml:space="preserve" transform="matrix(1 0 -0 1 900.2695 314.80494)" font-size="20" font-family="Poppins"><tspan y="0" x="0 13.520001 25.920002 38.060007 45.340005 58.140008 65.600009">Vector </tspan></text>
<text fill="#385bf6" xml:space="preserve" transform="matrix(1 0 -0 1 900.2695 314.80494)" font-size="20" font-family="Poppins"><tspan y="0" x="70.94 85.72 91.06 101.14 111.96">&#x0026; FTS</tspan></text>
<text xml:space="preserve" transform="matrix(1 0 -0 1 900.2695 314.80494)" font-size="20" font-family="Poppins"><tspan y="0" x="123.7 129.04 143.18 156.7 163.98 177.5 191.02 204.54001 214.98001"> Database</tspan></text>
</g>
<g clip-path="url(#clip_12)">
<path transform="matrix(1,0,0,-1,-293.7635,932.9146)" d="M748.6534 713.0552H830.1335V794.5353H748.6534Z" fill-opacity="0"/>
<path transform="matrix(1,0,0,-1,-293.7635,932.9146)" d="M813.5541 782.1447C813.3356 782.3633 813.1103 782.5209 812.8785 782.619 812.6612 782.7111 812.4075 782.7561 812.1167 782.7561 811.8246 782.7561 811.5656 782.7097 811.3457 782.6163 811.1178 782.5203 810.8979 782.3653 810.6872 782.1513L810.6733 782.1374 806.5618 778.0384C805.9457 777.4257 804.9939 777.3575 804.303 777.8311 803.8194 778.1437 803.304 778.4451 802.7635 778.7373 802.1905 779.0473 801.6288 779.3255 801.0804 779.5772 800.5087 779.8382 799.9251 780.0839 799.3309 780.3144 798.7924 780.5237 798.1923 780.737 797.5378 780.953 796.7886 781.2001 796.3123 781.8969 796.3123 782.6461V788.9509C796.3123 789.253 796.2646 789.5199 796.1699 789.7525 796.0752 789.9823 795.9308 790.1962 795.7314 790.395 795.5373 790.5891 795.3267 790.7328 795.0962 790.8262 794.8643 790.9209 794.5967 790.968 794.294 790.968H786.3815C786.1013 790.968 785.8529 790.9229 785.6357 790.8328 785.4051 790.7381 785.1793 790.5831 784.956 790.3671L784.9534 790.3651C784.7573 790.1691 784.6129 789.9604 784.5202 789.7385 784.4248 789.5113 784.3771 789.249 784.3771 788.9509V783.1787C784.3771 782.301 783.7432 781.5717 782.9085 781.4227 782.2746 781.2716 781.689 781.1153 781.1558 780.9517 780.5716 780.7728 779.984 780.5694 779.3951 780.3396 779.366 780.3283 779.3368 780.3177 779.3077 780.3084 778.793 780.1085 778.2505 779.8766 777.6808 779.6136 777.1019 779.3467 776.5627 779.0757 776.0632 778.8035 775.3591 778.42 774.5099 778.5624 773.9667 779.0969L773.966 779.0963 769.4126 783.5841C769.3987 783.598 769.3848 783.6119 769.3709 783.6258V783.6252C769.1768 783.8305 768.9728 783.9809 768.7588 784.0743 768.5535 784.1637 768.3104 784.2094 768.0269 784.2094 767.7454 784.2094 767.4936 784.1617 767.2724 784.067 767.03 783.9637 766.7981 783.802 766.5755 783.5841L766.5742 783.5828 761.0504 778.0464 761.0471 778.0424 761.0504 778.0391C760.8239 777.8125 760.6636 777.5873 760.5688 777.3634 760.4768 777.1461 760.431 776.8924 760.431 776.6023 760.431 776.3095 760.4774 776.0512 760.5708 775.8299 760.6669 775.6027 760.8212 775.3828 761.0358 775.1722L761.0497 775.1583 765.1487 771.046C765.7614 770.43 765.8297 769.4781 765.3561 768.7872 765.0434 768.303 764.742 767.7883 764.4505 767.2478 764.1405 766.6741 763.8623 766.1137 763.6106 765.5639 763.349 764.9929 763.1032 764.4087 762.872 763.8145 762.6627 763.2767 762.4501 762.6765 762.2341 762.0221 761.987 761.2722 761.2895 760.7966 760.541 760.7966V760.7959H754.2382C753.9348 760.7959 753.6685 760.7489 753.436 760.6548 753.2068 760.5608 752.9949 760.4177 752.8014 760.2236L752.7942 760.2157C752.6001 760.0216 752.4563 759.8103 752.3623 759.5811 752.2675 759.3486 752.2212 759.0816 752.2212 758.7789V750.8658C752.2212 750.5863 752.2656 750.3372 752.3556 750.1206 752.451 749.8901 752.606 749.6642 752.822 749.4403L752.824 749.439C753.0194 749.2429 753.2287 749.0978 753.4499 749.0057 753.6778 748.9104 753.9401 748.8627 754.2382 748.8627H760.0098C760.8874 748.8627 761.6168 748.2287 761.7658 747.3934 761.9168 746.7602 762.0732 746.1739 762.2368 745.6407 762.4163 745.0565 762.619 744.4696 762.8488 743.8807 763.0648 743.3196 763.3099 742.7367 763.5828 742.1326 763.8617 741.5146 764.1346 740.9515 764.3995 740.4421 764.7685 739.736 764.6155 738.8948 764.0776 738.3602L764.0789 738.3589 759.5905 733.8836 759.562 733.8558H759.5626C759.3573 733.6611 759.2069 733.4571 759.1142 733.2438 759.0241 733.0384 758.9791 732.7946 758.9791 732.5111 758.9791 732.2296 759.0267 731.9786 759.1208 731.7573 759.2241 731.5149 759.3858 731.2824 759.6044 731.0605L765.1083 725.4929C765.3236 725.2935 765.5482 725.1478 765.7833 725.0557 766.0191 724.9623 766.2867 724.9166 766.5861 724.9166 766.8882 724.9166 767.1605 724.9637 767.4002 725.0584 767.6308 725.1491 767.8474 725.2882 768.0481 725.4764L772.1278 729.621C772.7432 730.2464 773.707 730.3212 774.4052 729.839 774.8881 729.5276 775.4015 729.2276 775.9407 728.9368 776.5143 728.6261 777.0747 728.3479 777.6245 728.0968 778.1955 727.8345 778.7797 727.5888 779.3739 727.3583 779.9118 727.1496 780.5113 726.9363 781.1664 726.7204 781.9162 726.4733 782.3918 725.7758 782.3918 725.0273H782.3925V718.7225C782.3925 718.4204 782.4395 718.1535 782.5343 717.9209 782.6283 717.6911 782.7714 717.4798 782.9655 717.2857L782.9688 717.2817 782.9721 717.2857C783.361 716.8969 783.8379 716.7054 784.4089 716.7054H792.3207C792.6015 716.7054 792.8499 716.7498 793.0672 716.8399 793.2977 716.9353 793.5236 717.0903 793.7462 717.3062L793.7488 717.3082C793.9442 717.5043 794.0893 717.713 794.182 717.9342 794.2781 718.1621 794.3258 718.4237 794.3258 718.7218V724.4947C794.3258 725.3717 794.9584 726.1017 795.7943 726.2501 796.4269 726.4011 797.0132 726.5581 797.5471 726.721 798.1307 726.9006 798.7182 727.1032 799.3064 727.3324 799.8681 727.549 800.4517 727.7941 801.0572 728.067 801.6732 728.3459 802.2369 728.6182 802.7443 728.8831 803.4518 729.2521 804.293 729.0984 804.8276 728.5612L804.8289 728.5625 809.3041 724.0747 809.3313 724.0462V724.0469C809.528 723.8402 809.732 723.6905 809.9447 723.5978 810.1527 723.5084 810.4037 723.4626 810.7031 723.4626 810.9966 723.4626 811.2516 723.5103 811.4715 723.6051 811.6928 723.7011 811.8988 723.8488 812.0862 724.0469 812.1068 724.0694 812.1286 724.0913 812.1525 724.1131L817.6962 729.5926C817.8942 729.8072 818.0406 730.0324 818.1321 730.2676 818.2255 730.5034 818.2718 730.7717 818.2718 731.0711 818.2718 731.3731 818.2255 731.6454 818.1307 731.8852 818.0387 732.1157 817.9002 732.3316 817.7114 732.5323L813.5674 736.6127C812.9414 737.2281 812.8672 738.1913 813.3488 738.8901 813.6608 739.373 813.9609 739.8864 814.2517 740.4249 814.5623 740.9979 814.8405 741.559 815.0916 742.1087 815.3533 742.6797 815.599 743.264 815.8302 743.8582 816.0382 744.396 816.2521 744.9962 816.4681 745.6513 816.7152 746.4012 817.4127 746.8768 818.1619 746.8768V746.8774H824.4653C824.7681 746.8774 825.0356 746.9244 825.2675 747.0192 825.4967 747.1132 825.7087 747.2563 825.9028 747.4497L825.9094 747.457C826.1035 747.6518 826.2485 747.8631 826.3413 748.0929 826.4359 748.3248 826.4823 748.5917 826.4823 748.8945V756.8076C826.4823 757.0871 826.4386 757.3362 826.3478 757.5535 826.2532 757.7833 826.0982 758.0099 825.8822 758.2337L825.8796 758.2357C825.6841 758.4318 825.4748 758.5762 825.2536 758.6689 825.027 758.7643 824.7647 758.812 824.466 758.812H818.6944C817.8055 758.812 817.0695 759.4605 816.9337 760.3104 816.794 760.8688 816.6363 761.4352 816.4575 762.0101 816.2852 762.5619 816.0839 763.1455 815.848 763.7622 815.8361 763.792 815.8262 763.8225 815.8169 763.8529 815.593 764.4392 815.3639 764.9903 815.1287 765.5063 814.8736 766.0647 814.6034 766.6046 814.3172 767.1266 813.9344 767.8307 814.0768 768.6799 814.6107 769.2231V769.2237L819.0985 773.7771C819.1124 773.791 819.1257 773.805 819.1402 773.8189 819.3463 774.013 819.496 774.217 819.5894 774.4303 819.6788 774.6356 819.7251 774.8787 819.7251 775.1622 819.7251 775.4438 819.6775 775.6955 819.5827 775.9167 819.4794 776.1592 819.3178 776.391 819.0992 776.6136L819.0978 776.6149 813.5608 782.1387 813.5541 782.1447ZM814.2576 785.8945C814.9214 785.6144 815.5242 785.2043 816.0673 784.6611L816.0686 784.6605 821.6203 779.1214 821.6342 779.1075C822.1688 778.5644 822.5775 777.9662 822.857 777.3104 823.1458 776.6341 823.2915 775.918 823.2915 775.1622 823.2915 774.3952 823.1425 773.6784 822.849 773.0087 822.5629 772.3516 822.1449 771.7674 821.6044 771.2514L818.0493 767.6446C818.1539 767.4266 818.2586 767.2061 818.3599 766.9828 818.6448 766.3615 818.9057 765.7388 819.1429 765.1155 819.1561 765.0877 819.1674 765.0592 819.178 765.03 819.4145 764.4094 819.641 763.7496 819.857 763.0554 819.9265 762.8315 819.9941 762.6063 820.059 762.3791H824.4653C825.2311 762.3791 825.9478 762.2387 826.6195 761.9578 827.2792 761.6816 827.8754 761.2742 828.4073 760.7383L828.4451 760.7006C828.9691 760.1587 829.3665 759.5612 829.6367 758.9054 829.9136 758.2384 830.0508 757.5395 830.0508 756.8076V748.8951C830.0508 748.134 829.9163 747.4213 829.6447 746.7555 829.3731 746.0912 828.9684 745.4877 828.4272 744.9452L828.4245 744.9432 828.4206 744.9386 828.4179 744.9359C827.8748 744.3947 827.2719 743.9887 826.6056 743.7171 825.9392 743.4462 825.2265 743.311 824.466 743.311H819.4257C819.3376 743.0739 819.2462 742.8288 819.1475 742.5784 818.8951 741.9299 818.6223 741.2814 818.3262 740.6336 818.0195 739.9639 817.7074 739.3313 817.3895 738.7411 817.2849 738.5477 817.1776 738.3549 817.0676 738.1621L820.214 735.0647C820.2372 735.0429 820.259 735.021 820.2829 734.9971 820.7989 734.4513 821.1871 733.8452 821.4488 733.1828 821.711 732.5178 821.8409 731.813 821.8409 731.0724 821.8409 730.3345 821.7117 729.6356 821.4514 728.9732 821.1911 728.3128 820.8069 727.7093 820.2961 727.1622V727.1629C820.2782 727.1443 820.2597 727.1244 820.2405 727.1059L814.6564 721.586C814.1325 721.0369 813.5422 720.6169 812.8798 720.3321 812.2108 720.0433 811.4875 719.8969 810.7052 719.8969 809.9394 719.8969 809.2174 720.0466 808.5391 720.3387 807.8674 720.6295 807.2739 721.0502 806.7565 721.596L803.2166 725.1452C802.9802 725.0312 802.7483 724.9233 802.5231 724.8213 801.9203 724.5497 801.2758 724.2814 800.5915 724.0171 799.9483 723.7667 799.2773 723.5355 798.5811 723.3222 798.3493 723.2513 798.1207 723.1838 797.8955 723.1195V718.7225C797.8955 717.9574 797.7544 717.24 797.4736 716.569 797.1967 715.9086 796.7906 715.3131 796.2534 714.7805L796.2156 714.7421C795.6738 714.2194 795.0756 713.8226 794.4212 713.5511 793.7535 713.2748 793.0546 713.1377 792.3227 713.1377H784.4095C782.8535 713.1377 781.5393 713.6743 780.4503 714.7633L780.4536 714.7666C779.9105 715.3104 779.5031 715.9152 779.2315 716.5822 778.9599 717.2486 778.8248 717.9607 778.8248 718.7218V723.7621C778.587 723.8502 778.3426 723.9422 778.0915 724.0403 777.4437 724.2927 776.7952 724.5656 776.1473 724.8623 775.4776 725.1684 774.845 725.481 774.2542 725.7996 774.0614 725.9036 773.8686 726.0109 773.6759 726.1209L770.5785 722.9745C770.5566 722.9513 770.5341 722.9288 770.5109 722.9062 769.9651 722.3889 769.359 722.0007 768.6966 721.7397 768.0315 721.4774 767.3267 721.3469 766.5861 721.3469 765.8482 721.3469 765.1487 721.4761 764.487 721.7371 763.8265 721.9974 763.2238 722.3816 762.6759 722.8917L762.6766 722.893C762.6574 722.9102 762.6382 722.9288 762.6203 722.948L757.0687 728.5639C756.5348 729.107 756.1261 729.7058 755.8465 730.3616 755.5584 731.0386 755.412 731.754 755.412 732.5091 755.412 733.2762 755.561 733.9929 755.8538 734.6633 756.1433 735.325 756.5632 735.9126 757.1104 736.4319L760.6602 739.9718C760.5463 740.2083 760.4377 740.4402 760.3357 740.6674 760.0634 741.2695 759.7958 741.9127 759.5322 742.5963 759.2818 743.2395 759.0499 743.9105 758.8366 744.6074 758.7658 744.8399 758.6982 745.0677 758.6339 745.293H754.2382C753.4725 745.293 752.7551 745.4341 752.0847 745.7149 751.4236 745.9911 750.8281 746.3979 750.2962 746.9344L750.2578 746.9741C749.7345 747.5153 749.3377 748.1135 749.0668 748.7686 748.7906 749.4363 748.6534 750.1351 748.6534 750.8658V758.7789C748.6534 759.54 748.7886 760.2528 749.0602 760.9185 749.3317 761.5842 749.7365 762.1877 750.2783 762.7302L750.279 762.7308 750.283 762.7341 750.2863 762.7375C750.8295 763.2793 751.4322 763.6847 752.0986 763.9563 752.7643 764.2279 753.4771 764.3623 754.2382 764.3623H759.2785C759.3659 764.6001 759.4586 764.8446 759.5567 765.0956 759.8084 765.7435 760.082 766.392 760.3787 767.0405 760.6847 767.7102 760.9967 768.3427 761.316 768.933 761.422 769.1297 761.532 769.3264 761.6446 769.5232L758.5438 772.6338 758.5425 772.6345C757.9947 773.173 757.58 773.7791 757.2972 774.4488 757.0077 775.1324 756.8647 775.8518 756.8647 776.601 756.8647 777.3488 757.0071 778.0616 757.2946 778.7419 757.5794 779.4155 757.9901 780.0217 758.5286 780.5602L758.5319 780.5569 764.067 786.1052 764.0809 786.1191C764.6241 786.653 765.2222 787.0617 765.878 787.3412 766.555 787.6294 767.2704 787.7765 768.0262 787.7765 768.7926 787.7765 769.5093 787.6274 770.1797 787.3346 770.8368 787.0478 771.4211 786.6305 771.9371 786.0893L775.5412 782.5375C775.7578 782.6448 775.9738 782.7475 776.1891 782.8469 776.7435 783.1025 777.3556 783.3602 778.0253 783.6199 778.0537 783.6331 778.0829 783.645 778.112 783.6563 778.7552 783.9067 779.4269 784.1385 780.1238 784.3518 780.3556 784.4227 780.5841 784.4902 780.8094 784.5545V788.9509C780.8094 789.716 780.9505 790.4334 781.2313 791.1038 781.5075 791.7648 781.9149 792.3604 782.4508 792.8929L782.4886 792.9306C783.0304 793.454 783.6279 793.8501 784.283 794.121 784.9507 794.3979 785.6496 794.535 786.3815 794.535H794.2933C795.0538 794.535 795.7672 794.4005 796.4329 794.1289 797.1019 793.8561 797.7074 793.4487 798.2532 792.9035 798.7924 792.363 799.1991 791.7589 799.472 791.0905 799.7436 790.4248 799.8781 789.712 799.8781 788.9516V783.9107C800.1159 783.8226 800.3597 783.7298 800.6114 783.6324 801.2585 783.3807 801.9064 783.1071 802.5549 782.8111 803.2252 782.505 803.8578 782.1924 804.4474 781.8731 804.6454 781.7664 804.8422 781.6571 805.0389 781.5446L808.1489 784.6452 808.1502 784.6459C808.6888 785.1937 809.2955 785.6084 809.9639 785.8912 810.6482 786.1807 811.3662 786.3238 812.1154 786.3238 812.8646 786.3238 813.5773 786.182 814.2576 785.8945ZM789.3518 771.1215C790.5315 771.1215 791.6828 771.0089 792.8056 770.785 793.9091 770.5645 795.0034 770.226 796.0865 769.7689L796.0984 769.7636 796.101 769.7689C797.1351 769.3225 798.1154 768.7892 799.0428 768.1679 799.9615 767.5525 800.8127 766.8576 801.5931 766.0846L801.5997 766.0773C802.3734 765.2963 803.0682 764.4458 803.6836 763.5264 804.305 762.599 804.8375 761.6186 805.284 760.5846 805.3045 760.5356 805.3231 760.4866 805.3396 760.4369 805.7676 759.3976 806.0888 758.349 806.2995 757.2898 806.5247 756.1664 806.636 755.0158 806.636 753.8367 806.636 752.6569 806.5247 751.5057 806.2995 750.3829 806.0795 749.2787 805.7404 748.1857 805.284 747.102L805.2787 747.0901 805.284 747.0874C804.8375 746.0534 804.3043 745.0737 803.6836 744.1463 803.0676 743.2269 802.3727 742.3764 801.5997 741.5954L801.5931 741.5881C800.8114 740.8144 799.9616 740.1195 799.0415 739.5042 798.1154 738.8828 797.1344 738.3503 796.101 737.9038 796.052 737.8833 796.003 737.864 795.952 737.8481 794.9133 737.4196 793.8641 737.099 792.8056 736.8877 791.6828 736.6631 790.5309 736.5511 789.3518 736.5511 788.172 736.5511 787.0214 736.6631 785.8986 736.8877 784.7944 737.1082 783.7008 737.4474 782.6171 737.9038L782.6051 737.9091 782.6032 737.9038C781.5691 738.3503 780.5881 738.8835 779.6614 739.5042 778.742 740.1195 777.8915 740.8144 777.1111 741.5881L777.1045 741.5954C776.3308 742.377 775.6353 743.2269 775.0206 744.147 774.3999 745.0737 773.8667 746.0547 773.4209 747.0874 773.3997 747.1364 773.3811 747.1854 773.3646 747.2358 772.936 748.2751 772.6154 749.3237 772.4041 750.3829 772.1802 751.5057 772.0676 752.6569 772.0676 753.8367 772.0676 755.0164 772.1795 756.167 772.4041 757.2898 772.6247 758.394 772.9638 759.4877 773.4209 760.5707L773.4255 760.5826 773.4209 760.5846C773.8667 761.6186 774.4006 762.599 775.0206 763.5257 775.636 764.4458 776.3308 765.2957 777.1045 766.0773L777.1118 766.0839C777.8921 766.857 778.7427 767.5518 779.6614 768.1672 780.5888 768.7879 781.5698 769.3218 782.6038 769.7682 782.6528 769.7894 782.7019 769.808 782.7522 769.8239 783.7915 770.2525 784.8394 770.5724 785.8986 770.7837 787.0214 771.0089 788.172 771.1215 789.3518 771.1215ZM792.1087 767.2875C791.2184 767.4657 790.3003 767.5545 789.3518 767.5545 788.4039 767.5545 787.4858 767.4657 786.5948 767.2875 785.7297 767.1146 784.9037 766.8669 784.1168 766.5443 784.0823 766.5271 784.0472 766.5099 784.0108 766.4946 783.151 766.123 782.36 765.6964 781.6394 765.2142 780.9134 764.7287 780.2417 764.1789 779.623 763.5668 779.0103 762.9474 778.4605 762.2744 777.9743 761.5478 777.492 760.8277 777.0654 760.0375 776.6945 759.1777L776.6898 759.1797C776.3447 758.3603 776.0824 757.4978 775.9009 756.593 775.7234 755.7027 775.6346 754.7846 775.6346 753.8367 775.6346 752.8888 775.7234 751.9707 775.9009 751.0797 776.0738 750.2146 776.3222 749.3886 776.6448 748.6017 776.662 748.5666 776.6792 748.5321 776.6945 748.4957 777.0654 747.6359 777.492 746.8463 777.9736 746.1263 778.4598 745.3996 779.0096 744.7266 779.623 744.1072 780.2417 743.4945 780.914 742.9454 781.64 742.4598 782.3601 741.9776 783.1503 741.551 784.0108 741.1794L784.0088 741.1748C784.8289 740.8296 785.6906 740.5667 786.5955 740.3865 787.4858 740.2083 788.4045 740.1202 789.3524 740.1202 790.3003 740.1202 791.2191 740.209 792.1094 740.3865 792.9751 740.5594 793.8005 740.8071 794.5881 741.1297 794.6219 741.1469 794.6577 741.1642 794.6941 741.1794 795.5532 741.551 796.3435 741.9776 797.0642 742.4598 797.7902 742.9454 798.4625 743.4952 799.0812 744.1072 799.6946 744.7266 800.2444 745.3989 800.7306 746.1256 801.2122 746.8456 801.6388 747.6359 802.0091 748.4957L802.0144 748.4937C802.3595 749.3131 802.6224 750.1756 802.8033 751.0797 802.9808 751.9707 803.0696 752.8888 803.0696 753.8367 803.0696 754.7846 802.9801 755.7027 802.8033 756.593 802.6297 757.4587 802.3827 758.2841 802.0594 759.0717 802.0415 759.1061 802.0256 759.1412 802.0091 759.1777 801.6388 760.0375 801.2122 760.8277 800.7293 761.5478 800.2444 762.2744 799.6939 762.9474 799.0812 763.5661 798.4625 764.1782 797.7902 764.728 797.0642 765.2135 796.3435 765.6958 795.5532 766.1224 794.6941 766.494L794.6954 766.4986C793.876 766.8437 793.0142 767.1067 792.1087 767.2875Z"/>
</g>
<g clip-path="url(#clip_13)">
<path transform="matrix(1,0,0,1,536.2873,166.7384)" stroke-width="3" stroke-linecap="butt" stroke-miterlimit="4" stroke-linejoin="miter" fill="none" stroke="#000000" d="M127.6897 66.81626 127.1786 65.40601C105.8406 13.30628 63.44809-7.667249 0 2.482474"/>
<path transform="matrix(1,0,0,-1,-293.7635,932.9146)" d="M951.0243 698.5214 961.7269 688.3601 963.4344 703.019Z"/>
<text xml:space="preserve" transform="matrix(1 0 -0 1 447.55909 243.6911)" font-size="20" font-family="Poppins"><tspan y="0" x="0 11.580001 19.04 31.840003 43.980005 56.380006 66.82001 77.26001 82.18001 94.98001">Processing</tspan></text>
<path transform="matrix(1,0,0,1,434.8424,295.38093)" stroke-width="3" stroke-linecap="butt" stroke-miterlimit="4" stroke-linejoin="miter" fill="none" stroke="#385bf6" d="M438.8684 11.17511 438.4241 12.60781C380.301 190.6374 234.1599 247.2603 0 182.479"/>
<path transform="matrix(1,0,0,-1,-293.7635,932.9146)" d="M1173.334 622.9712 1170.939 637.5337 1160.726 626.8806Z" fill="#385bf6"/>
</g>
</g>
</svg>
