<?xml version="1.0" encoding="UTF-8" standalone="no"?>
<svg
   xmlns:dc="http://purl.org/dc/elements/1.1/"
   xmlns:cc="http://creativecommons.org/ns#"
   xmlns:rdf="http://www.w3.org/1999/02/22-rdf-syntax-ns#"
   xmlns:svg="http://www.w3.org/2000/svg"
   xmlns="http://www.w3.org/2000/svg"
   viewBox="0 0 590.6333 554.28571"
   height="554.28571"
   width="590.6333"
   xml:space="preserve"
   id="svg2"
   version="1.1"><metadata
     id="metadata8"><rdf:RDF><cc:Work
         rdf:about=""><dc:format>image/svg+xml</dc:format><dc:type
           rdf:resource="http://purl.org/dc/dcmitype/StillImage" /></cc:Work></rdf:RDF></metadata><defs
     id="defs6"><clipPath
       id="clipPath14"
       clipPathUnits="userSpaceOnUse"><path
         id="path12"
         d="M 0,0 H 1920 V 1080 H 0 Z" /></clipPath><clipPath
       id="clipPath24"
       clipPathUnits="userSpaceOnUse"><path
         id="path22"
         d="M 0,0 H 1920 V 1080 H 0 Z" /></clipPath><clipPath
       id="clipPath34"
       clipPathUnits="userSpaceOnUse"><path
         id="path32"
         d="m 202.0665,479.8383 h 6.1871 v 6.1871 h -6.1871 z" /></clipPath><clipPath
       id="clipPath44"
       clipPathUnits="userSpaceOnUse"><path
         id="path42"
         d="m 202.7325,484.0118 h 11.59915 V 746.5337 H 202.7325 Z" /></clipPath><clipPath
       id="clipPath58"
       clipPathUnits="userSpaceOnUse"><path
         id="path56"
         d="M 81.4489,332.8449 H 205.6038 V 482.9486 H 81.4489 Z" /></clipPath><clipPath
       id="clipPath72"
       clipPathUnits="userSpaceOnUse"><path
         id="path70"
         d="m 206.0841,431.3095 h 318.6496 v 53.30393 H 206.0841 Z" /></clipPath><clipPath
       id="clipPath86"
       clipPathUnits="userSpaceOnUse"><path
         id="path84"
         d="m 103.3391,542.7569 h 13.40108 v 13.40108 H 103.3391 Z" /></clipPath><clipPath
       id="clipPath96"
       clipPathUnits="userSpaceOnUse"><path
         id="path94"
         d="m 118.3391,530.2569 h 13.40108 v 13.40108 H 118.3391 Z" /></clipPath><clipPath
       id="clipPath106"
       clipPathUnits="userSpaceOnUse"><path
         id="path104"
         d="m 304.3391,578.7569 h 13.40108 v 13.40108 H 304.3391 Z" /></clipPath><clipPath
       id="clipPath116"
       clipPathUnits="userSpaceOnUse"><path
         id="path114"
         d="m 314.3391,552.2569 h 13.40108 v 13.40108 H 314.3391 Z" /></clipPath><clipPath
       id="clipPath126"
       clipPathUnits="userSpaceOnUse"><path
         id="path124"
         d="m 240.8391,679.2569 h 13.40108 v 13.40108 H 240.8391 Z" /></clipPath><clipPath
       id="clipPath136"
       clipPathUnits="userSpaceOnUse"><path
         id="path134"
         d="m 396.8391,651.2569 h 13.40108 v 13.40108 H 396.8391 Z" /></clipPath><clipPath
       id="clipPath146"
       clipPathUnits="userSpaceOnUse"><path
         id="path144"
         d="m 396.8391,633.2569 h 13.40108 v 13.40108 H 396.8391 Z" /></clipPath><clipPath
       id="clipPath156"
       clipPathUnits="userSpaceOnUse"><path
         id="path154"
         d="m 459.8391,620.2569 h 13.40108 v 13.40108 H 459.8391 Z" /></clipPath><clipPath
       id="clipPath166"
       clipPathUnits="userSpaceOnUse"><path
         id="path164"
         d="m 470.8391,607.2569 h 13.40108 v 13.40108 H 470.8391 Z" /></clipPath><clipPath
       id="clipPath176"
       clipPathUnits="userSpaceOnUse"><path
         id="path174"
         d="m 103.3391,521.2569 h 13.40108 v 13.40108 H 103.3391 Z" /></clipPath><clipPath
       id="clipPath186"
       clipPathUnits="userSpaceOnUse"><path
         id="path184"
         d="m 118.3391,498.257 h 13.40108 v 13.40108 H 118.3391 Z" /></clipPath><clipPath
       id="clipPath196"
       clipPathUnits="userSpaceOnUse"><path
         id="path194"
         d="m 855.8783,479.8383 h 6.1871 v 6.1871 h -6.1871 z" /></clipPath><clipPath
       id="clipPath206"
       clipPathUnits="userSpaceOnUse"><path
         id="path204"
         d="m 856.5443,484.0119 h 11.59915 V 746.5337 H 856.5443 Z" /></clipPath><clipPath
       id="clipPath220"
       clipPathUnits="userSpaceOnUse"><path
         id="path218"
         d="M 735.2607,332.8449 H 859.4156 V 482.9486 H 735.2607 Z" /></clipPath><clipPath
       id="clipPath234"
       clipPathUnits="userSpaceOnUse"><path
         id="path232"
         d="m 859.8959,431.3095 h 318.6497 v 53.30395 H 859.8959 Z" /></clipPath><clipPath
       id="clipPath248"
       clipPathUnits="userSpaceOnUse"><path
         id="path246"
         d="m 757.1509,542.7569 h 13.40108 v 13.40108 H 757.1509 Z" /></clipPath><clipPath
       id="clipPath258"
       clipPathUnits="userSpaceOnUse"><path
         id="path256"
         d="m 772.1509,530.2569 h 13.40108 v 13.40108 H 772.1509 Z" /></clipPath><clipPath
       id="clipPath268"
       clipPathUnits="userSpaceOnUse"><path
         id="path266"
         d="m 958.1509,578.7569 h 13.40108 v 13.40108 H 958.1509 Z" /></clipPath><clipPath
       id="clipPath278"
       clipPathUnits="userSpaceOnUse"><path
         id="path276"
         d="m 968.1509,552.2569 h 13.40108 v 13.40108 H 968.1509 Z" /></clipPath><clipPath
       id="clipPath288"
       clipPathUnits="userSpaceOnUse"><path
         id="path286"
         d="m 894.6509,679.2569 h 13.40108 v 13.40108 H 894.6509 Z" /></clipPath><clipPath
       id="clipPath298"
       clipPathUnits="userSpaceOnUse"><path
         id="path296"
         d="m 1050.651,651.2569 h 13.4011 v 13.40108 h -13.4011 z" /></clipPath><clipPath
       id="clipPath308"
       clipPathUnits="userSpaceOnUse"><path
         id="path306"
         d="m 1050.651,633.2569 h 13.4011 v 13.40108 h -13.4011 z" /></clipPath><clipPath
       id="clipPath318"
       clipPathUnits="userSpaceOnUse"><path
         id="path316"
         d="m 1113.651,620.2569 h 13.4011 v 13.40108 h -13.4011 z" /></clipPath><clipPath
       id="clipPath328"
       clipPathUnits="userSpaceOnUse"><path
         id="path326"
         d="m 1124.651,607.2569 h 13.4011 v 13.40108 h -13.4011 z" /></clipPath><clipPath
       id="clipPath338"
       clipPathUnits="userSpaceOnUse"><path
         id="path336"
         d="m 757.1509,521.2569 h 13.40108 v 13.40108 H 757.1509 Z" /></clipPath><clipPath
       id="clipPath348"
       clipPathUnits="userSpaceOnUse"><path
         id="path346"
         d="m 772.1509,498.257 h 13.40108 v 13.40108 H 772.1509 Z" /></clipPath><clipPath
       id="clipPath358"
       clipPathUnits="userSpaceOnUse"><path
         id="path356"
         d="m 857.9102,483.8793 h 44.98704 V 681.4788 H 857.9102 Z" /></clipPath><clipPath
       id="clipPath372"
       clipPathUnits="userSpaceOnUse"><path
         id="path370"
         d="m 859.4483,482.6624 h 111.9101 v 74.58543 H 859.4483 Z" /></clipPath><clipPath
       id="clipPath386"
       clipPathUnits="userSpaceOnUse"><path
         id="path384"
         d="m 865.8741,501.7516 h 26.3264 v 22.02312 h -26.3264 z" /></clipPath><clipPath
       id="clipPath402"
       clipPathUnits="userSpaceOnUse"><path
         id="path400"
         d="m 1509.69,479.8383 h 6.1871 v 6.1871 h -6.1871 z" /></clipPath><clipPath
       id="clipPath412"
       clipPathUnits="userSpaceOnUse"><path
         id="path410"
         d="m 1510.356,484.0119 h 11.5992 v 262.5218 h -11.5992 z" /></clipPath><clipPath
       id="clipPath426"
       clipPathUnits="userSpaceOnUse"><path
         id="path424"
         d="m 1389.073,332.8449 h 124.1549 V 482.9486 H 1389.073 Z" /></clipPath><clipPath
       id="clipPath440"
       clipPathUnits="userSpaceOnUse"><path
         id="path438"
         d="m 1513.708,431.3095 h 318.6497 v 53.30393 H 1513.708 Z" /></clipPath><clipPath
       id="clipPath454"
       clipPathUnits="userSpaceOnUse"><path
         id="path452"
         d="m 1410.963,542.7569 h 13.4011 v 13.40108 h -13.4011 z" /></clipPath><clipPath
       id="clipPath464"
       clipPathUnits="userSpaceOnUse"><path
         id="path462"
         d="m 1425.963,530.2569 h 13.4011 v 13.40108 h -13.4011 z" /></clipPath><clipPath
       id="clipPath474"
       clipPathUnits="userSpaceOnUse"><path
         id="path472"
         d="m 1611.963,578.7569 h 13.4011 v 13.40108 h -13.4011 z" /></clipPath><clipPath
       id="clipPath484"
       clipPathUnits="userSpaceOnUse"><path
         id="path482"
         d="m 1621.963,552.2569 h 13.4011 v 13.40108 h -13.4011 z" /></clipPath><clipPath
       id="clipPath494"
       clipPathUnits="userSpaceOnUse"><path
         id="path492"
         d="m 1548.463,679.2569 h 13.4011 v 13.40108 h -13.4011 z" /></clipPath><clipPath
       id="clipPath504"
       clipPathUnits="userSpaceOnUse"><path
         id="path502"
         d="m 1704.463,651.2569 h 13.4011 v 13.40108 h -13.4011 z" /></clipPath><clipPath
       id="clipPath514"
       clipPathUnits="userSpaceOnUse"><path
         id="path512"
         d="m 1704.463,633.2569 h 13.4011 v 13.40108 h -13.4011 z" /></clipPath><clipPath
       id="clipPath524"
       clipPathUnits="userSpaceOnUse"><path
         id="path522"
         d="m 1767.463,620.2569 h 13.4011 v 13.40108 h -13.4011 z" /></clipPath><clipPath
       id="clipPath534"
       clipPathUnits="userSpaceOnUse"><path
         id="path532"
         d="m 1778.463,607.2569 h 13.4011 v 13.40108 h -13.4011 z" /></clipPath><clipPath
       id="clipPath544"
       clipPathUnits="userSpaceOnUse"><path
         id="path542"
         d="m 1410.963,521.2569 h 13.4011 v 13.40108 h -13.4011 z" /></clipPath><clipPath
       id="clipPath554"
       clipPathUnits="userSpaceOnUse"><path
         id="path552"
         d="m 1425.963,498.257 h 13.4011 v 13.40108 h -13.4011 z" /></clipPath><clipPath
       id="clipPath564"
       clipPathUnits="userSpaceOnUse"><path
         id="path562"
         d="m 1594.007,601.2485 36.931,11.2907 20.381,-66.6656 -36.93,-11.2907 z" /></clipPath><clipPath
       id="clipPath570"
       clipPathUnits="userSpaceOnUse"><path
         id="path568"
         d="M 0,0 H 1920 V 1080 H 0 Z" /></clipPath><clipPath
       id="clipPath580"
       clipPathUnits="userSpaceOnUse"><path
         id="path578"
         d="m 1691.854,614.7514 h 38.6178 v 69.71169 h -38.6178 z" /></clipPath><clipPath
       id="clipPath590"
       clipPathUnits="userSpaceOnUse"><path
         id="path588"
         d="m 1742.222,635.3371 30.012,24.3029 43.871,-54.1761 -30.012,-24.303 z" /></clipPath><clipPath
       id="clipPath596"
       clipPathUnits="userSpaceOnUse"><path
         id="path594"
         d="M 0,0 H 1920 V 1080 H 0 Z" /></clipPath><clipPath
       id="clipPath606"
       clipPathUnits="userSpaceOnUse"><path
         id="path604"
         d="m 1535.854,667.9702 h 38.6178 v 35.97454 h -38.6178 z" /></clipPath><clipPath
       id="clipPath616"
       clipPathUnits="userSpaceOnUse"><path
         id="path614"
         d="m 1392.058,567.4886 49.017,9.5278 16.652,-85.6704 -49.016,-9.5278 z" /></clipPath><clipPath
       id="clipPath622"
       clipPathUnits="userSpaceOnUse"><path
         id="path620"
         d="M 0,0 H 1920 V 1080 H 0 Z" /></clipPath></defs><g
     clip-path="url(#clipPath14)"
     transform="matrix(1.3333333,0,0,-1.3333333,-1852.4547,996.9604)"
     id="g10"><g
       id="g16" /><g
       id="g18"><g
         clip-path="url(#clipPath24)"
         id="g20"><path
           id="path26"
           style="fill:#ffffff;fill-opacity:1;fill-rule:nonzero;stroke:none"
           d="M 0,0 H 1920 V 1080 H 0 Z" /></g></g><g
       id="g28"><g
         clip-path="url(#clipPath34)"
         id="g30"><path
           id="path36"
           style="fill:#000000;fill-opacity:1;fill-rule:nonzero;stroke:none"
           d="m 206.6404,484.4122 c 0.8176,-0.8176 0.8176,-2.1432 0,-2.9608 -0.8176,-0.8175 -2.1432,-0.8175 -2.9608,0 -0.8175,0.8176 -0.8175,2.1432 0,2.9608 0.8176,0.8176 2.1432,0.8176 2.9608,0 z" /></g></g><g
       id="g38"><g
         clip-path="url(#clipPath44)"
         id="g40"><g
           transform="matrix(1,0,0,-1,205.1879,745.5204)"
           id="g46"><path
             id="path48"
             style="fill:none;stroke:#000000;stroke-width:2;stroke-linecap:butt;stroke-linejoin:miter;stroke-miterlimit:4;stroke-dasharray:none;stroke-opacity:1"
             d="M 0,260.4952 3.344134,9.599153 3.357462,8.599236" /></g><path
           id="path50"
           style="fill:#000000;fill-opacity:1;fill-rule:nonzero;stroke:none"
           d="m 213.3316,735.8572 -4.6716,9.6632 -4.9275,-9.5352 z" /></g></g><g
       id="g52"><g
         clip-path="url(#clipPath58)"
         id="g54"><g
           transform="matrix(1,0,0,-1,83.22164,481.3139)"
           id="g60"><path
             id="path62"
             style="fill:none;stroke:#000000;stroke-width:2;stroke-linecap:butt;stroke-linejoin:miter;stroke-miterlimit:4;stroke-dasharray:none;stroke-opacity:1"
             d="M 120.6094,0 6.093802,139.4155 5.458628,140.1887" /></g><path
           id="path64"
           style="fill:#000000;fill-opacity:1;fill-rule:nonzero;stroke:none"
           d="m 85.60585,344.9446 -2.38421,-10.465 9.8025,4.3717 z" /></g></g><g
       id="g66"><g
         clip-path="url(#clipPath72)"
         id="g68"><g
           transform="matrix(1,0,0,-1,207.231,482.6243)"
           id="g74"><path
             id="path76"
             style="fill:none;stroke:#000000;stroke-width:2;stroke-linecap:butt;stroke-linejoin:miter;stroke-miterlimit:4;stroke-dasharray:none;stroke-opacity:1"
             d="m 0,0 306.8594,45.56663 0.9897,0.14707" /></g><path
           id="path78"
           style="fill:#000000;fill-opacity:1;fill-rule:nonzero;stroke:none"
           d="m 513.386,432.3095 10.2009,3.338 -8.7909,6.1579 z" /></g></g><g
       id="g80"><g
         clip-path="url(#clipPath86)"
         id="g82"><path
           id="path88"
           style="fill:#929292;fill-opacity:1;fill-rule:nonzero;stroke:none"
           d="m 114.0705,553.4884 c 2.2262,-2.2262 2.2262,-5.8356 0,-8.0618 -2.2262,-2.2262 -5.8356,-2.2262 -8.0618,0 -2.2262,2.2262 -2.2262,5.8356 0,8.0618 2.2262,2.2262 5.8356,2.2262 8.0618,0 z" /></g></g><g
       id="g90"><g
         clip-path="url(#clipPath96)"
         id="g92"><path
           id="path98"
           style="fill:#929292;fill-opacity:1;fill-rule:nonzero;stroke:none"
           d="m 129.0705,540.9884 c 2.2262,-2.2262 2.2262,-5.8356 0,-8.0618 -2.2262,-2.2262 -5.8356,-2.2262 -8.0618,0 -2.2262,2.2262 -2.2262,5.8356 0,8.0618 2.2262,2.2262 5.8356,2.2262 8.0618,0 z" /></g></g><g
       id="g100"><g
         clip-path="url(#clipPath106)"
         id="g102"><path
           id="path108"
           style="fill:#929292;fill-opacity:1;fill-rule:nonzero;stroke:none"
           d="m 315.0705,589.4884 c 2.2262,-2.2262 2.2262,-5.8356 0,-8.0618 -2.2262,-2.2262 -5.8356,-2.2262 -8.0618,0 -2.2262,2.2262 -2.2262,5.8356 0,8.0618 2.2262,2.2262 5.8356,2.2262 8.0618,0 z" /></g></g><g
       id="g110"><g
         clip-path="url(#clipPath116)"
         id="g112"><path
           id="path118"
           style="fill:#929292;fill-opacity:1;fill-rule:nonzero;stroke:none"
           d="m 325.0705,562.9884 c 2.2262,-2.2262 2.2262,-5.8356 0,-8.0618 -2.2262,-2.2262 -5.8356,-2.2262 -8.0618,0 -2.2262,2.2262 -2.2262,5.8356 0,8.0618 2.2262,2.2262 5.8356,2.2262 8.0618,0 z" /></g></g><g
       id="g120"><g
         clip-path="url(#clipPath126)"
         id="g122"><path
           id="path128"
           style="fill:#929292;fill-opacity:1;fill-rule:nonzero;stroke:none"
           d="m 251.5705,689.9884 c 2.2262,-2.2262 2.2262,-5.8356 0,-8.0618 -2.2262,-2.2262 -5.8356,-2.2262 -8.0618,0 -2.2262,2.2262 -2.2262,5.8356 0,8.0618 2.2262,2.2262 5.8356,2.2262 8.0618,0 z" /></g></g><g
       id="g130"><g
         clip-path="url(#clipPath136)"
         id="g132"><path
           id="path138"
           style="fill:#929292;fill-opacity:1;fill-rule:nonzero;stroke:none"
           d="m 407.5705,661.9884 c 2.2262,-2.2262 2.2262,-5.8356 0,-8.0618 -2.2262,-2.2262 -5.8356,-2.2262 -8.0618,0 -2.2262,2.2262 -2.2262,5.8356 0,8.0618 2.2262,2.2262 5.8356,2.2262 8.0618,0 z" /></g></g><g
       id="g140"><g
         clip-path="url(#clipPath146)"
         id="g142"><path
           id="path148"
           style="fill:#929292;fill-opacity:1;fill-rule:nonzero;stroke:none"
           d="m 407.5705,643.9884 c 2.2262,-2.2262 2.2262,-5.8356 0,-8.0618 -2.2262,-2.2262 -5.8356,-2.2262 -8.0618,0 -2.2262,2.2262 -2.2262,5.8356 0,8.0618 2.2262,2.2262 5.8356,2.2262 8.0618,0 z" /></g></g><g
       id="g150"><g
         clip-path="url(#clipPath156)"
         id="g152"><path
           id="path158"
           style="fill:#929292;fill-opacity:1;fill-rule:nonzero;stroke:none"
           d="m 470.5705,630.9884 c 2.2262,-2.2262 2.2262,-5.8356 0,-8.0618 -2.2262,-2.2262 -5.8356,-2.2262 -8.0618,0 -2.2262,2.2262 -2.2262,5.8356 0,8.0618 2.2262,2.2262 5.8356,2.2262 8.0618,0 z" /></g></g><g
       id="g160"><g
         clip-path="url(#clipPath166)"
         id="g162"><path
           id="path168"
           style="fill:#929292;fill-opacity:1;fill-rule:nonzero;stroke:none"
           d="m 481.5705,617.9884 c 2.2262,-2.2262 2.2262,-5.8356 0,-8.0618 -2.2262,-2.2262 -5.8356,-2.2262 -8.0618,0 -2.2262,2.2262 -2.2262,5.8356 0,8.0618 2.2262,2.2262 5.8356,2.2262 8.0618,0 z" /></g></g><g
       id="g170"><g
         clip-path="url(#clipPath176)"
         id="g172"><path
           id="path178"
           style="fill:#929292;fill-opacity:1;fill-rule:nonzero;stroke:none"
           d="m 114.0705,531.9884 c 2.2262,-2.2262 2.2262,-5.8356 0,-8.0618 -2.2262,-2.2262 -5.8356,-2.2262 -8.0618,0 -2.2262,2.2262 -2.2262,5.8356 0,8.0618 2.2262,2.2262 5.8356,2.2262 8.0618,0 z" /></g></g><g
       id="g180"><g
         clip-path="url(#clipPath186)"
         id="g182"><path
           id="path188"
           style="fill:#929292;fill-opacity:1;fill-rule:nonzero;stroke:none"
           d="m 129.0705,508.9884 c 2.2262,-2.2262 2.2262,-5.8356 0,-8.0618 -2.2262,-2.2262 -5.8356,-2.2262 -8.0618,0 -2.2262,2.2262 -2.2262,5.8356 0,8.0618 2.2262,2.2262 5.8356,2.2262 8.0618,0 z" /></g></g><g
       id="g190"><g
         clip-path="url(#clipPath196)"
         id="g192"><path
           id="path198"
           style="fill:#000000;fill-opacity:1;fill-rule:nonzero;stroke:none"
           d="m 860.4522,484.4122 c 0.8176,-0.8176 0.8176,-2.1432 0,-2.9607 -0.8176,-0.8176 -2.1432,-0.8176 -2.9607,0 -0.8176,0.8175 -0.8176,2.1431 0,2.9607 0.8175,0.8176 2.1431,0.8176 2.9607,0 z" /></g></g><g
       id="g200"><g
         clip-path="url(#clipPath206)"
         id="g202"><g
           transform="matrix(1,0,0,-1,858.9997,745.5204)"
           id="g208"><path
             id="path210"
             style="fill:none;stroke:#000000;stroke-width:2;stroke-linecap:butt;stroke-linejoin:miter;stroke-miterlimit:4;stroke-dasharray:none;stroke-opacity:1"
             d="M 0,260.4952 3.344143,9.599153 3.357471,8.599236" /></g><path
           id="path212"
           style="fill:#000000;fill-opacity:1;fill-rule:nonzero;stroke:none"
           d="m 867.1434,735.8572 -4.6716,9.6632 -4.9275,-9.5352 z" /></g></g><g
       id="g214"><g
         clip-path="url(#clipPath220)"
         id="g216"><g
           transform="matrix(1,0,0,-1,737.0335,481.3139)"
           id="g222"><path
             id="path224"
             style="fill:none;stroke:#000000;stroke-width:2;stroke-linecap:butt;stroke-linejoin:miter;stroke-miterlimit:4;stroke-dasharray:none;stroke-opacity:1"
             d="M 120.6094,0 6.093802,139.4155 5.458628,140.1887" /></g><path
           id="path226"
           style="fill:#000000;fill-opacity:1;fill-rule:nonzero;stroke:none"
           d="m 739.4177,344.9446 -2.3842,-10.465 9.8025,4.3717 z" /></g></g><g
       id="g228"><g
         clip-path="url(#clipPath234)"
         id="g230"><g
           transform="matrix(1,0,0,-1,861.0428,482.6243)"
           id="g236"><path
             id="path238"
             style="fill:none;stroke:#000000;stroke-width:2;stroke-linecap:butt;stroke-linejoin:miter;stroke-miterlimit:4;stroke-dasharray:none;stroke-opacity:1"
             d="m 0,0 306.8594,45.56665 0.9898,0.14707" /></g><path
           id="path240"
           style="fill:#000000;fill-opacity:1;fill-rule:nonzero;stroke:none"
           d="m 1167.198,432.3095 10.201,3.338 -8.791,6.1579 z" /></g></g><g
       id="g242"><g
         clip-path="url(#clipPath248)"
         id="g244"><path
           id="path250"
           style="fill:#929292;fill-opacity:1;fill-rule:nonzero;stroke:none"
           d="m 767.8823,553.4884 c 2.2262,-2.2262 2.2262,-5.8356 0,-8.0618 -2.2262,-2.2262 -5.8356,-2.2262 -8.0618,0 -2.2262,2.2262 -2.2262,5.8356 0,8.0618 2.2262,2.2262 5.8356,2.2262 8.0618,0 z" /></g></g><g
       id="g252"><g
         clip-path="url(#clipPath258)"
         id="g254"><path
           id="path260"
           style="fill:#929292;fill-opacity:1;fill-rule:nonzero;stroke:none"
           d="m 782.8823,540.9884 c 2.2262,-2.2262 2.2262,-5.8356 0,-8.0618 -2.2262,-2.2262 -5.8356,-2.2262 -8.0618,0 -2.2262,2.2262 -2.2262,5.8356 0,8.0618 2.2262,2.2262 5.8356,2.2262 8.0618,0 z" /></g></g><g
       id="g262"><g
         clip-path="url(#clipPath268)"
         id="g264"><path
           id="path270"
           style="fill:#929292;fill-opacity:1;fill-rule:nonzero;stroke:none"
           d="m 968.8823,589.4884 c 2.2262,-2.2262 2.2262,-5.8356 0,-8.0618 -2.2262,-2.2262 -5.8356,-2.2262 -8.0618,0 -2.2262,2.2262 -2.2262,5.8356 0,8.0618 2.2262,2.2262 5.8356,2.2262 8.0618,0 z" /></g></g><g
       id="g272"><g
         clip-path="url(#clipPath278)"
         id="g274"><path
           id="path280"
           style="fill:#ee220d;fill-opacity:1;fill-rule:nonzero;stroke:none"
           d="m 978.8823,562.9884 c 2.2262,-2.2262 2.2262,-5.8356 0,-8.0618 -2.2262,-2.2262 -5.8356,-2.2262 -8.0618,0 -2.2262,2.2262 -2.2262,5.8356 0,8.0618 2.2262,2.2262 5.8356,2.2262 8.0618,0 z" /></g></g><g
       id="g282"><g
         clip-path="url(#clipPath288)"
         id="g284"><path
           id="path290"
           style="fill:#ee220d;fill-opacity:1;fill-rule:nonzero;stroke:none"
           d="m 905.3823,689.9884 c 2.2262,-2.2262 2.2262,-5.8356 0,-8.0618 -2.2262,-2.2262 -5.8356,-2.2262 -8.0618,0 -2.2262,2.2262 -2.2262,5.8356 0,8.0618 2.2262,2.2262 5.8356,2.2262 8.0618,0 z" /></g></g><g
       id="g292"><g
         clip-path="url(#clipPath298)"
         id="g294"><path
           id="path300"
           style="fill:#929292;fill-opacity:1;fill-rule:nonzero;stroke:none"
           d="m 1061.382,661.9884 c 2.227,-2.2262 2.227,-5.8356 0,-8.0618 -2.226,-2.2262 -5.835,-2.2262 -8.061,0 -2.227,2.2262 -2.227,5.8356 0,8.0618 2.226,2.2262 5.835,2.2262 8.061,0 z" /></g></g><g
       id="g302"><g
         clip-path="url(#clipPath308)"
         id="g304"><path
           id="path310"
           style="fill:#929292;fill-opacity:1;fill-rule:nonzero;stroke:none"
           d="m 1061.382,643.9884 c 2.227,-2.2262 2.227,-5.8356 0,-8.0618 -2.226,-2.2262 -5.835,-2.2262 -8.061,0 -2.227,2.2262 -2.227,5.8356 0,8.0618 2.226,2.2262 5.835,2.2262 8.061,0 z" /></g></g><g
       id="g312"><g
         clip-path="url(#clipPath318)"
         id="g314"><path
           id="path320"
           style="fill:#929292;fill-opacity:1;fill-rule:nonzero;stroke:none"
           d="m 1124.382,630.9884 c 2.227,-2.2262 2.227,-5.8356 0,-8.0618 -2.226,-2.2262 -5.835,-2.2262 -8.061,0 -2.227,2.2262 -2.227,5.8356 0,8.0618 2.226,2.2262 5.835,2.2262 8.061,0 z" /></g></g><g
       id="g322"><g
         clip-path="url(#clipPath328)"
         id="g324"><path
           id="path330"
           style="fill:#929292;fill-opacity:1;fill-rule:nonzero;stroke:none"
           d="m 1135.382,617.9884 c 2.227,-2.2262 2.227,-5.8356 0,-8.0618 -2.226,-2.2262 -5.835,-2.2262 -8.061,0 -2.227,2.2262 -2.227,5.8356 0,8.0618 2.226,2.2262 5.835,2.2262 8.061,0 z" /></g></g><g
       id="g332"><g
         clip-path="url(#clipPath338)"
         id="g334"><path
           id="path340"
           style="fill:#929292;fill-opacity:1;fill-rule:nonzero;stroke:none"
           d="m 767.8823,531.9884 c 2.2262,-2.2262 2.2262,-5.8356 0,-8.0618 -2.2262,-2.2262 -5.8356,-2.2262 -8.0618,0 -2.2262,2.2262 -2.2262,5.8356 0,8.0618 2.2262,2.2262 5.8356,2.2262 8.0618,0 z" /></g></g><g
       id="g342"><g
         clip-path="url(#clipPath348)"
         id="g344"><path
           id="path350"
           style="fill:#929292;fill-opacity:1;fill-rule:nonzero;stroke:none"
           d="m 782.8823,508.9884 c 2.2262,-2.2262 2.2262,-5.8356 0,-8.0618 -2.2262,-2.2262 -5.8356,-2.2262 -8.0618,0 -2.2262,2.2262 -2.2262,5.8356 0,8.0618 2.2262,2.2262 5.8356,2.2262 8.0618,0 z" /></g></g><g
       id="g352"><g
         clip-path="url(#clipPath358)"
         id="g354"><g
           transform="matrix(1,0,0,-1,859.3997,680.3766)"
           id="g360"><path
             id="path362"
             style="fill:none;stroke:#000000;stroke-width:1;stroke-linecap:butt;stroke-linejoin:miter;stroke-miterlimit:4;stroke-dasharray:1, 1;stroke-dashoffset:0;stroke-opacity:1"
             d="M 0,195.3952 39.56065,5.874072 39.66304,5.38397" /></g><path
           id="path364"
           style="fill:#000000;fill-opacity:1;fill-rule:nonzero;stroke:none"
           d="m 901.8972,673.8902 -1.7107,6.4864 -4.1627,-5.2605 z" /></g></g><g
       id="g366"><g
         clip-path="url(#clipPath372)"
         id="g368"><g
           transform="matrix(1,0,0,-1,860.7226,555.8298)"
           id="g374"><path
             id="path376"
             style="fill:none;stroke:#000000;stroke-width:1;stroke-linecap:butt;stroke-linejoin:miter;stroke-miterlimit:4;stroke-dasharray:1, 1;stroke-dashoffset:0;stroke-opacity:1"
             d="M 0,71.74932 104.3438,3.291982 104.7629,3.017028" /></g><path
           id="path378"
           style="fill:#000000;fill-opacity:1;fill-rule:nonzero;stroke:none"
           d="m 966.7131,550.0301 3.3711,5.7997 -6.6624,-0.783 z" /></g></g><g
       id="g380"><g
         clip-path="url(#clipPath386)"
         id="g382"><g
           transform="matrix(1,0,0,-1,866.9154,520.1733)"
           id="g388"><path
             id="path390"
             style="fill:none;stroke:#ee220d;stroke-width:1.5;stroke-linecap:butt;stroke-linejoin:miter;stroke-miterlimit:4;stroke-dasharray:none;stroke-opacity:1"
             d="M 6.959126,1.1283 7.699459,1.248332 C 13.1013,2.815187 17.27771,5.780268 20.2293,10.14367 l 0.3221,0.67974" /></g><path
           id="path392"
           style="fill:#ee220d;fill-opacity:1;fill-rule:nonzero;stroke:none"
           d="m 883.6213,508.3576 6.8645,-5.3786 0.1842,8.7187 z" /><path
           id="path394"
           style="fill:#ee220d;fill-opacity:1;fill-rule:nonzero;stroke:none"
           d="m 875.2391,522.7747 -8.3237,-2.6014 7.0753,-5.098 z" /></g></g><g
       id="g396"><g
         clip-path="url(#clipPath402)"
         id="g398"><path
           id="path404"
           style="fill:#000000;fill-opacity:1;fill-rule:nonzero;stroke:none"
           d="m 1514.264,484.4122 c 0.818,-0.8176 0.818,-2.1432 0,-2.9608 -0.818,-0.8175 -2.143,-0.8175 -2.961,0 -0.817,0.8176 -0.817,2.1432 0,2.9608 0.818,0.8176 2.143,0.8176 2.961,0 z" /></g></g><g
       id="g406"><g
         clip-path="url(#clipPath412)"
         id="g408"><g
           transform="matrix(1,0,0,-1,1512.812,745.5204)"
           id="g414"><path
             id="path416"
             style="fill:none;stroke:#000000;stroke-width:2;stroke-linecap:butt;stroke-linejoin:miter;stroke-miterlimit:4;stroke-dasharray:none;stroke-opacity:1"
             d="M 0,260.4952 3.344149,9.599153 3.357476,8.599236" /></g><path
           id="path418"
           style="fill:#000000;fill-opacity:1;fill-rule:nonzero;stroke:none"
           d="m 1520.955,735.8572 -4.671,9.6632 -4.928,-9.5352 z" /></g></g><g
       id="g420"><g
         clip-path="url(#clipPath426)"
         id="g422"><g
           transform="matrix(1,0,0,-1,1390.845,481.3139)"
           id="g428"><path
             id="path430"
             style="fill:none;stroke:#000000;stroke-width:2;stroke-linecap:butt;stroke-linejoin:miter;stroke-miterlimit:4;stroke-dasharray:none;stroke-opacity:1"
             d="M 120.6094,0 6.093802,139.4155 5.458628,140.1887" /></g><path
           id="path432"
           style="fill:#000000;fill-opacity:1;fill-rule:nonzero;stroke:none"
           d="m 1393.229,344.9446 -2.384,-10.465 9.803,4.3717 z" /></g></g><g
       id="g434"><g
         clip-path="url(#clipPath440)"
         id="g436"><g
           transform="matrix(1,0,0,-1,1514.855,482.6243)"
           id="g442"><path
             id="path444"
             style="fill:none;stroke:#000000;stroke-width:2;stroke-linecap:butt;stroke-linejoin:miter;stroke-miterlimit:4;stroke-dasharray:none;stroke-opacity:1"
             d="m 0,0 306.8594,45.56663 0.9898,0.14707" /></g><path
           id="path446"
           style="fill:#000000;fill-opacity:1;fill-rule:nonzero;stroke:none"
           d="m 1821.01,432.3095 10.201,3.338 -8.791,6.1579 z" /></g></g><g
       id="g448"><g
         clip-path="url(#clipPath454)"
         id="g450"><path
           id="path456"
           style="fill:#929292;fill-opacity:1;fill-rule:nonzero;stroke:none"
           d="m 1421.694,553.4883 c 2.226,-2.2262 2.226,-5.8355 0,-8.0617 -2.226,-2.2262 -5.835,-2.2262 -8.062,0 -2.226,2.2262 -2.226,5.8355 0,8.0617 2.227,2.2262 5.836,2.2262 8.062,0 z" /></g></g><g
       id="g458"><g
         clip-path="url(#clipPath464)"
         id="g460"><path
           id="path466"
           style="fill:#929292;fill-opacity:1;fill-rule:nonzero;stroke:none"
           d="m 1436.694,540.9883 c 2.226,-2.2262 2.226,-5.8355 0,-8.0617 -2.226,-2.2262 -5.835,-2.2262 -8.062,0 -2.226,2.2262 -2.226,5.8355 0,8.0617 2.227,2.2262 5.836,2.2262 8.062,0 z" /></g></g><g
       id="g468"><g
         clip-path="url(#clipPath474)"
         id="g470"><path
           id="path476"
           style="fill:#929292;fill-opacity:1;fill-rule:nonzero;stroke:none"
           d="m 1622.694,589.4883 c 2.226,-2.2262 2.226,-5.8355 0,-8.0617 -2.226,-2.2262 -5.835,-2.2262 -8.062,0 -2.226,2.2262 -2.226,5.8355 0,8.0617 2.227,2.2262 5.836,2.2262 8.062,0 z" /></g></g><g
       id="g478"><g
         clip-path="url(#clipPath484)"
         id="g480"><path
           id="path486"
           style="fill:#929292;fill-opacity:1;fill-rule:nonzero;stroke:none"
           d="m 1632.694,562.9883 c 2.226,-2.2262 2.226,-5.8355 0,-8.0617 -2.226,-2.2262 -5.835,-2.2262 -8.062,0 -2.226,2.2262 -2.226,5.8355 0,8.0617 2.227,2.2262 5.836,2.2262 8.062,0 z" /></g></g><g
       id="g488"><g
         clip-path="url(#clipPath494)"
         id="g490"><path
           id="path496"
           style="fill:#929292;fill-opacity:1;fill-rule:nonzero;stroke:none"
           d="m 1559.194,689.9883 c 2.226,-2.2262 2.226,-5.8355 0,-8.0617 -2.226,-2.2262 -5.835,-2.2262 -8.062,0 -2.226,2.2262 -2.226,5.8355 0,8.0617 2.227,2.2262 5.836,2.2262 8.062,0 z" /></g></g><g
       id="g498"><g
         clip-path="url(#clipPath504)"
         id="g500"><path
           id="path506"
           style="fill:#929292;fill-opacity:1;fill-rule:nonzero;stroke:none"
           d="m 1715.194,661.9883 c 2.226,-2.2262 2.226,-5.8355 0,-8.0617 -2.226,-2.2262 -5.835,-2.2262 -8.062,0 -2.226,2.2262 -2.226,5.8355 0,8.0617 2.227,2.2262 5.836,2.2262 8.062,0 z" /></g></g><g
       id="g508"><g
         clip-path="url(#clipPath514)"
         id="g510"><path
           id="path516"
           style="fill:#929292;fill-opacity:1;fill-rule:nonzero;stroke:none"
           d="m 1715.194,643.9883 c 2.226,-2.2262 2.226,-5.8355 0,-8.0617 -2.226,-2.2262 -5.835,-2.2262 -8.062,0 -2.226,2.2262 -2.226,5.8355 0,8.0617 2.227,2.2262 5.836,2.2262 8.062,0 z" /></g></g><g
       id="g518"><g
         clip-path="url(#clipPath524)"
         id="g520"><path
           id="path526"
           style="fill:#929292;fill-opacity:1;fill-rule:nonzero;stroke:none"
           d="m 1778.194,630.9883 c 2.226,-2.2262 2.226,-5.8355 0,-8.0617 -2.226,-2.2262 -5.835,-2.2262 -8.062,0 -2.226,2.2262 -2.226,5.8355 0,8.0617 2.227,2.2262 5.836,2.2262 8.062,0 z" /></g></g><g
       id="g528"><g
         clip-path="url(#clipPath534)"
         id="g530"><path
           id="path536"
           style="fill:#929292;fill-opacity:1;fill-rule:nonzero;stroke:none"
           d="m 1789.194,617.9883 c 2.226,-2.2262 2.226,-5.8355 0,-8.0617 -2.226,-2.2262 -5.835,-2.2262 -8.062,0 -2.226,2.2262 -2.226,5.8355 0,8.0617 2.227,2.2262 5.836,2.2262 8.062,0 z" /></g></g><g
       id="g538"><g
         clip-path="url(#clipPath544)"
         id="g540"><path
           id="path546"
           style="fill:#929292;fill-opacity:1;fill-rule:nonzero;stroke:none"
           d="m 1421.694,531.9883 c 2.226,-2.2262 2.226,-5.8355 0,-8.0617 -2.226,-2.2262 -5.835,-2.2262 -8.062,0 -2.226,2.2262 -2.226,5.8355 0,8.0617 2.227,2.2262 5.836,2.2262 8.062,0 z" /></g></g><g
       id="g548"><g
         clip-path="url(#clipPath554)"
         id="g550"><path
           id="path556"
           style="fill:#929292;fill-opacity:1;fill-rule:nonzero;stroke:none"
           d="m 1436.694,508.9884 c 2.226,-2.2262 2.226,-5.8356 0,-8.0618 -2.226,-2.2262 -5.835,-2.2262 -8.062,0 -2.226,2.2262 -2.226,5.8356 0,8.0618 2.227,2.2262 5.836,2.2262 8.062,0 z" /></g></g><g
       id="g558"><g
         clip-path="url(#clipPath564)"
         id="g560"><g
           clip-path="url(#clipPath570)"
           id="g566"><path
             id="path572"
             style="fill:#ee220d;fill-opacity:0.29649999;fill-rule:nonzero;stroke:none"
             d="m 1628.045,600.2399 c 10.703,-10.5534 16.97,-31.0531 13.998,-45.7873 -2.972,-14.7343 -14.058,-18.1237 -24.761,-7.5703 -10.703,10.5533 -16.971,31.053 -13.999,45.7873 2.972,14.7342 14.058,18.1236 24.762,7.5703 z" /></g></g></g><g
       id="g574"><g
         clip-path="url(#clipPath580)"
         id="g576"><path
           id="path582"
           style="fill:#ee220d;fill-opacity:0.29649999;fill-rule:nonzero;stroke:none"
           d="m 1724.11,673.5469 c 7.15,-13.2215 7.15,-34.6579 0,-47.8794 -7.15,-13.2215 -18.743,-13.2215 -25.893,0 -7.15,13.2215 -7.15,34.6579 0,47.8794 7.15,13.2215 18.743,13.2215 25.893,0 z" /></g></g><g
       id="g584"><g
         clip-path="url(#clipPath590)"
         id="g586"><g
           clip-path="url(#clipPath596)"
           id="g592"><path
             id="path598"
             style="fill:#ee220d;fill-opacity:0.29649999;fill-rule:nonzero;stroke:none"
             d="m 1774.159,647.1525 c 13.877,-5.7754 27.367,-22.4345 30.131,-37.2093 2.764,-14.7747 -6.245,-22.0701 -20.122,-16.2948 -13.877,5.7754 -27.368,22.4346 -30.132,37.2093 -2.764,14.7748 6.245,22.0702 20.123,16.2948 z" /></g></g></g><g
       id="g600"><g
         clip-path="url(#clipPath606)"
         id="g602"><path
           id="path608"
           style="fill:#ee220d;fill-opacity:0.29649999;fill-rule:nonzero;stroke:none"
           d="m 1568.11,697.9693 c 7.15,-6.634 7.15,-17.3897 0,-24.0236 -7.15,-6.634 -18.743,-6.634 -25.893,0 -7.15,6.6339 -7.15,17.3896 0,24.0236 7.15,6.6339 18.743,6.6339 25.893,0 z" /></g></g><g
       id="g610"><g
         clip-path="url(#clipPath616)"
         id="g612"><g
           clip-path="url(#clipPath622)"
           id="g618"><path
             id="path624"
             style="fill:#ee220d;fill-opacity:0.29649999;fill-rule:nonzero;stroke:none"
             d="m 1435.776,562.2459 c 12.365,-14.5589 17.516,-41.0591 11.505,-59.1898 -6.01,-18.1308 -20.907,-21.0263 -33.271,-6.4674 -12.365,14.5589 -17.516,41.0591 -11.506,59.1899 6.011,18.1307 20.907,21.0262 33.272,6.4673 z" /></g></g></g></g></svg>