<?xml version="1.0" encoding="UTF-8" standalone="no"?>
<svg
   width="415.73434"
   height="117.11573"
   viewBox="0 0 415.73434 117.11573"
   version="1.1"
   id="svg4471"
   sodipodi:docname="logo.svg"
   inkscape:version="1.2 (dc2aeda, 2022-05-15)"
   xmlns:inkscape="http://www.inkscape.org/namespaces/inkscape"
   xmlns:sodipodi="http://sodipodi.sourceforge.net/DTD/sodipodi-0.dtd"
   xmlns="http://www.w3.org/2000/svg"
   xmlns:svg="http://www.w3.org/2000/svg">
  <sodipodi:namedview
     id="namedview4473"
     pagecolor="#ffffff"
     bordercolor="#000000"
     borderopacity="0.25"
     inkscape:showpageshadow="2"
     inkscape:pageopacity="0.0"
     inkscape:pagecheckerboard="0"
     inkscape:deskcolor="#d1d1d1"
     showgrid="false"
     inkscape:zoom="2.492"
     inkscape:cx="69.823435"
     inkscape:cy="52.76886"
     inkscape:window-width="1390"
     inkscape:window-height="1205"
     inkscape:window-x="0"
     inkscape:window-y="25"
     inkscape:window-maximized="0"
     inkscape:current-layer="Qaecy-Logo" />
  <defs
     id="defs4455">
    <clipPath
       id="clip-Qaecy-Logo">
      <rect
         width="500"
         height="220"
         id="rect4452"
         x="0"
         y="0" />
    </clipPath>
  </defs>
  <g
     id="Qaecy-Logo"
     clip-path="url(#clip-Qaecy-Logo)"
     transform="translate(-33.837654,-57.27327)">
    <g
       id="Gruppe_242"
       data-name="Gruppe 242"
       transform="translate(34.001,57.61)">
      <path
         id="Pfad_21"
         data-name="Pfad 21"
         d="m 41.84,101.505 h 12.74 l 26.12,-68.987 26.113,68.987 h 12.745 L 80.7,0.257 Z"
         transform="translate(63.019,0.409)"
         fill="#00347a" />
      <g
         id="Gruppe_239"
         data-name="Gruppe 239">
        <g
           id="Gruppe_241"
           data-name="Gruppe 241">
          <path
             id="Pfad_22"
             data-name="Pfad 22"
             d="m 176.156,75.978 -0.911,-0.893 -0.9,0.9 A 36.464,36.464 0 0 1 148.4,86.73 h -0.015 a 36.704501,36.704501 0 0 1 0.013,-73.409 h 0.015 a 36.468,36.468 0 0 1 25.949,10.759 l 0.893,0.893 8.272,-8.272 -0.878,-0.893 A 48.177,48.177 0 0 0 148.525,1.52 h -0.172 A 48.668,48.668 0 0 0 99.8,50.09 v 0.01 a 48.6,48.6 0 0 0 82.84,34.279 l 0.891,-0.883 z"
             transform="translate(151.963,2.314)"
             fill="#09c8cc" />
          <path
             id="Pfad_23"
             data-name="Pfad 23"
             d="M 55.8,88.333 A 38.485,38.485 0 0 1 19.5,27.187 38.484,38.484 0 1 1 78.957,75.943 l -0.618,0.689 6.173,10.421 1.148,-1.138 a 50.4,50.4 0 1 0 -24.4,13.328 l 1.693,-0.378 -6.317,-10.654 z"
             fill="#09c8cc" />
          <path
             id="Pfad_24"
             data-name="Pfad 24"
             d="m 23.691,35.6 21.33,36 H 58.537 L 33.7,29.671 Z"
             transform="translate(36.075,45.179)"
             fill="#09c8cc" />
          <path
             id="Pfad_25"
             data-name="Pfad 25"
             d="M 135.174,2.256 166.761,54.62 V 95.549 H 178.29 V 54.618 l 0.966,-1.609 -30.669,-50.753 z"
             transform="translate(205.833,3.434)"
             fill="#0f5be9" />
          <path
             id="Pfad_26"
             data-name="Pfad 26"
             d="M 171.22,2.256 151.664,34.706 158.4,45.927 184.628,2.256 Z"
             transform="translate(230.943,3.434)"
             fill="#0f5be9" />
          <rect
             id="Rechteck_311"
             data-name="Rechteck 311"
             width="17.662001"
             height="11.536"
             transform="translate(213.476,46.505)"
             fill="#cfe602"
             x="0"
             y="0" />
          <path
             id="Pfad_27"
             data-name="Pfad 27"
             d="M 119.554,2.256 H 77.677 v 93.293 h 41.877 V 84.02 H 89.211 V 13.79 h 30.343 z"
             transform="translate(118.282,3.434)"
             fill="#cfe602" />
        </g>
      </g>
    </g>
  </g>
</svg>
