<svg version="1.1" viewBox="0.0 0.0 960.0 540.0" fill="none" stroke="none" stroke-linecap="square" stroke-miterlimit="10" xmlns:xlink="http://www.w3.org/1999/xlink" xmlns="http://www.w3.org/2000/svg"><clipPath id="p.0"><path d="m0 0l960.0 0l0 540.0l-960.0 0l0 -540.0z" clip-rule="nonzero"/></clipPath><g clip-path="url(#p.0)"><path fill="#ffffff" d="m0 0l960.0 0l0 540.0l-960.0 0z" fill-rule="evenodd"/><path fill="#000000" fill-opacity="0.0" d="m455.4413 203.35251l0 41.718567l280.189 0l0 40.108215" fill-rule="evenodd"/><path stroke="#000000" stroke-width="1.0" stroke-linejoin="round" stroke-linecap="butt" d="m455.4413 207.14252l0 37.92856l280.18893 0l0 36.318207" fill-rule="evenodd"/><path stroke="#000000" stroke-width="1.0" stroke-linecap="butt" d="m453.79633 207.1425l0 -3.2899933l3.289978 0l0 3.2899933l-3.289978 0z" fill-rule="nonzero"/><path stroke="#000000" stroke-width="1.0" stroke-linecap="butt" d="m737.27527 281.38928l0 3.2900085l-3.290039 0l0 -3.2900085l3.290039 0z" fill-rule="nonzero"/><path fill="#000000" fill-opacity="0.0" d="m238.58894 328.6926l0 42.523956l-51.02362 0l0 42.51541" fill-rule="evenodd"/><path stroke="#000000" stroke-width="1.0" stroke-linejoin="round" stroke-linecap="butt" d="m238.58893 332.4826l0 38.733917l-51.02362 0l0 38.725433" fill-rule="evenodd"/><path stroke="#000000" stroke-width="1.0" stroke-linecap="butt" d="m236.94392 332.4826l0 -3.2900085l3.2900085 0l0 3.2900085l-3.2900085 0z" fill-rule="nonzero"/><path stroke="#000000" stroke-width="1.0" stroke-linecap="butt" d="m189.21031 409.94196l0 3.2900085l-3.2900085 0l0 -3.2900085l3.2900085 0z" fill-rule="nonzero"/><path fill="#000000" fill-opacity="0.0" d="m82.6876 413.73694l0 -42.513733l155.90552 0l0 -42.525635" fill-rule="evenodd"/><path stroke="#000000" stroke-width="1.0" stroke-linejoin="round" stroke-linecap="butt" d="m82.6876 409.94693l0 -38.723755l155.90552 0l0 -38.735596" fill-rule="evenodd"/><path stroke="#000000" stroke-width="1.0" stroke-linecap="butt" d="m84.332596 409.94693l0 3.289978l-3.290001 0l0 -3.289978l3.290001 0z" fill-rule="nonzero"/><path stroke="#000000" stroke-width="1.0" stroke-linecap="butt" d="m236.94812 332.48758l0 -3.2900085l3.2899933 0l0 3.2900085l-3.2899933 0z" fill-rule="nonzero"/><path fill="#000000" fill-opacity="0.0" d="m238.58894 287.02332l0 -41.85005l216.85039 0l0 -41.83499" fill-rule="evenodd"/><path stroke="#000000" stroke-width="1.0" stroke-linejoin="round" stroke-linecap="butt" d="m238.58893 283.2333l0 -38.060043l216.8504 0l0 -38.044983" fill-rule="evenodd"/><path stroke="#000000" stroke-width="1.0" stroke-linecap="butt" d="m240.23393 283.2333l0 3.2900085l-3.2900085 0l0 -3.2900085l3.2900085 0z" fill-rule="nonzero"/><path stroke="#000000" stroke-width="1.0" stroke-linecap="butt" d="m453.79434 207.12828l0 -3.2900085l3.2900085 0l0 3.2900085l-3.2900085 0z" fill-rule="nonzero"/><path fill="#d9d9d9" d="m349.64603 161.68323l211.59055 0l0 41.66928l-211.59055 0z" fill-rule="evenodd"/><path stroke="#000000" stroke-width="1.0" stroke-linejoin="round" stroke-linecap="butt" d="m349.64603 161.68323l211.59055 0l0 41.66928l-211.59055 0z" fill-rule="evenodd"/><path fill="#000000" d="m434.79834 175.44287l-3.75 0l0 3.875l-1.953125 0l0 -9.46875l6.171875 0l0 1.578125l-4.21875 0l0 2.4375l3.75 0l0 1.578125zm5.549225 3.15625q-0.6875 0.84375 -1.921875 0.84375q-1.140625 0 -1.734375 -0.640625q-0.59375 -0.65625 -0.609375 -1.90625l0 -4.625l1.890625 0l0 4.546875q0 1.109375 1.0 1.109375q0.953125 0 1.3125 -0.671875l0 -4.984375l1.890625 0l0 7.046875l-1.78125 0l-0.046875 -0.71875zm7.192383 -4.5625q-0.375 -0.046875 -0.671875 -0.046875q-1.0625 0 -1.390625 0.71875l0 4.609375l-1.890625 0l0 -7.046875l1.78125 0l0.046875 0.84375q0.578125 -0.96875 1.578125 -0.96875q0.3125 0 0.578125 0.078125l-0.03125 1.8125zm2.6426392 -1.765625l0.0625 0.8125q0.75 -0.9375 2.015625 -0.9375q1.125 0 1.671875 0.65625q0.546875 0.65625 0.5625 1.96875l0 4.546875l-1.890625 0l0 -4.5q0 -0.609375 -0.265625 -0.875q-0.25 -0.265625 -0.859375 -0.265625q-0.78125 0 -1.1875 0.671875l0 4.96875l-1.875 0l0 -7.046875l1.765625 0zm7.7145386 7.046875l-1.890625 0l0 -7.046875l1.890625 0l0 7.046875zm-2.0 -8.859375q0 -0.421875 0.28125 -0.6875q0.296875 -0.28125 0.78125 -0.28125q0.484375 0 0.765625 0.28125q0.28125 0.265625 0.28125 0.6875q0 0.421875 -0.296875 0.703125q-0.28125 0.265625 -0.765625 0.265625q-0.46875 0 -0.765625 -0.265625q-0.28125 -0.28125 -0.28125 -0.703125zm5.799408 0.09375l0 1.71875l1.203125 0l0 1.390625l-1.203125 0l0 3.515625q0 0.390625 0.15625 0.5625q0.15625 0.15625 0.578125 0.15625q0.3125 0 0.546875 -0.046875l0 1.4375q-0.546875 0.15625 -1.140625 0.15625q-1.984375 0 -2.015625 -2.0l0 -3.78125l-1.03125 0l0 -1.390625l1.03125 0l0 -1.71875l1.875 0zm6.4721985 8.046875q-0.6875 0.84375 -1.921875 0.84375q-1.140625 0 -1.734375 -0.640625q-0.59375 -0.65625 -0.609375 -1.90625l0 -4.625l1.890625 0l0 4.546875q0 1.109375 1.0 1.109375q0.953125 0 1.3125 -0.671875l0 -4.984375l1.890625 0l0 7.046875l-1.78125 0l-0.046875 -0.71875zm7.1924133 -4.5625q-0.375 -0.046875 -0.671875 -0.046875q-1.0625 0 -1.390625 0.71875l0 4.609375l-1.890625 0l0 -7.046875l1.78125 0l0.046875 0.84375q0.578125 -0.96875 1.578125 -0.96875q0.3125 0 0.578125 0.078125l-0.03125 1.8125zm4.034546 5.40625q-1.546875 0 -2.53125 -0.9375q-0.96875 -0.953125 -0.96875 -2.53125l0 -0.1875q0 -1.0625 0.40625 -1.890625q0.40625 -0.84375 1.15625 -1.296875q0.765625 -0.453125 1.71875 -0.453125q1.453125 0 2.28125 0.921875q0.828125 0.90625 0.828125 2.578125l0 0.765625l-4.484375 0q0.09375 0.6875 0.546875 1.109375q0.46875 0.40625 1.171875 0.40625q1.078125 0 1.6875 -0.78125l0.921875 1.03125q-0.421875 0.59375 -1.140625 0.9375q-0.71875 0.328125 -1.59375 0.328125zm-0.21875 -5.78125q-0.5625 0 -0.90625 0.390625q-0.34375 0.375 -0.453125 1.078125l2.625 0l0 -0.15625q-0.015625 -0.625 -0.34375 -0.96875q-0.328125 -0.34375 -0.921875 -0.34375z" fill-rule="nonzero"/><path fill="#000000" d="m424.18625 191.4585q0 -1.484375 0.390625 -2.828125q0.390625 -1.34375 1.171875 -2.375q0.78125 -1.046875 1.671875 -1.453125l0.375 1.015625q-0.953125 0.703125 -1.484375 2.171875q-0.53125 1.46875 -0.53125 3.4375l0 0.203125q0 1.96875 0.515625 3.453125q0.53125 1.46875 1.5 2.203125l-0.375 1.0q-0.875 -0.40625 -1.640625 -1.421875q-0.765625 -1.0 -1.171875 -2.3125q-0.40625 -1.3125 -0.421875 -2.734375l0 -0.359375zm10.569794 -1.0l-5.8125 0l0 -1.53125l5.8125 0l0 1.53125zm0 2.828125l-5.8125 0l0 -1.546875l5.8125 0l0 1.546875zm9.142853 -0.703125l1.28125 -6.734375l1.953125 0l-2.109375 9.46875l-1.96875 0l-1.53125 -6.34375l-1.546875 6.34375l-1.96875 0l-2.09375 -9.46875l1.9375 0l1.28125 6.71875l1.5625 -6.71875l1.65625 0l1.546875 6.734375zm4.280609 2.734375l0 -9.46875l3.328125 0q1.71875 0 2.609375 0.65625q0.890625 0.65625 0.890625 1.9375q0 0.6875 -0.359375 1.21875q-0.359375 0.53125 -1.0 0.78125q0.734375 0.1875 1.15625 0.75q0.421875 0.546875 0.421875 1.34375q0 1.359375 -0.875 2.0625q-0.875 0.703125 -2.484375 0.71875l-3.6875 0zm1.953125 -4.125l0 2.5625l1.671875 0q0.6875 0 1.078125 -0.328125q0.390625 -0.328125 0.390625 -0.921875q0 -1.296875 -1.34375 -1.3125l-1.796875 0zm0 -1.375l1.453125 0q1.46875 -0.03125 1.46875 -1.1875q0 -0.640625 -0.375 -0.921875q-0.375 -0.28125 -1.171875 -0.28125l-1.375 0l0 2.390625zm9.099548 -3.96875l2.4375 6.859375l2.421875 -6.859375l2.5625 0l0 9.46875l-1.953125 0l0 -2.59375l0.1875 -4.46875l-2.546875 7.0625l-1.34375 0l-2.546875 -7.046875l0.1875 4.453125l0 2.59375l-1.953125 0l0 -9.46875l2.546875 0zm13.503235 9.46875l-1.890625 0l0 -7.25l-2.234375 0.703125l0 -1.53125l3.921875 -1.40625l0.203125 0l0 9.484375zm9.443634 -3.921875q0 1.96875 -0.8125 3.015625q-0.8125 1.03125 -2.375 1.03125q-1.546875 0 -2.375 -1.015625q-0.8125 -1.015625 -0.828125 -2.921875l0 -1.75q0 -1.984375 0.8125 -3.015625q0.828125 -1.03125 2.375 -1.03125q1.546875 0 2.359375 1.03125q0.828125 1.015625 0.84375 2.921875l0 1.734375zm-1.875 -1.90625q0 -1.1875 -0.328125 -1.71875q-0.3125 -0.53125 -1.0 -0.53125q-0.65625 0 -0.984375 0.515625q-0.3125 0.5 -0.328125 1.59375l0 2.296875q0 1.15625 0.3125 1.71875q0.3125 0.5625 1.015625 0.5625q0.6875 0 0.984375 -0.53125q0.3125 -0.546875 0.328125 -1.65625l0 -2.25zm6.474884 2.125q0 1.46875 -0.421875 2.828125q-0.421875 1.359375 -1.21875 2.40625q-0.796875 1.046875 -1.703125 1.4375l-0.359375 -1.0q0.921875 -0.703125 1.453125 -2.15625q0.53125 -1.453125 0.546875 -3.328125l0 -0.34375q0 -1.953125 -0.53125 -3.4375q-0.53125 -1.484375 -1.46875 -2.21875l0.359375 -1.0q0.890625 0.390625 1.671875 1.40625q0.78125 1.0 1.203125 2.34375q0.4375 1.328125 0.46875 2.765625l0 0.296875z" fill-rule="nonzero"/><path fill="#d9d9d9" d="m162.9354 287.02332l151.3071 0l0 41.66928l-151.3071 0z" fill-rule="evenodd"/><path stroke="#000000" stroke-width="1.0" stroke-linejoin="round" stroke-linecap="butt" d="m162.9354 287.02332l151.3071 0l0 41.66928l-151.3071 0z" fill-rule="evenodd"/><path fill="#000000" d="m231.0105 301.5017q-0.109375 1.53125 -1.125 2.40625q-1.015625 0.875 -2.6875 0.875q-1.8125 0 -2.859375 -1.21875q-1.046875 -1.234375 -1.046875 -3.375l0 -0.578125q0 -1.359375 0.46875 -2.40625q0.484375 -1.046875 1.375 -1.59375q0.90625 -0.5625 2.09375 -0.5625q1.640625 0 2.640625 0.890625q1.0 0.875 1.15625 2.453125l-1.953125 0q-0.0625 -0.90625 -0.515625 -1.3125q-0.4375 -0.421875 -1.328125 -0.421875q-0.984375 0 -1.46875 0.703125q-0.484375 0.6875 -0.5 2.15625l0 0.71875q0 1.53125 0.46875 2.25q0.46875 0.703125 1.46875 0.703125q0.90625 0 1.34375 -0.40625q0.453125 -0.421875 0.515625 -1.28125l1.953125 0zm3.0018005 -3.125q0.75 -0.890625 1.875 -0.890625q2.296875 0 2.328125 2.65625l0 4.515625l-1.890625 0l0 -4.453125q0 -0.609375 -0.265625 -0.890625q-0.25 -0.296875 -0.859375 -0.296875q-0.828125 0 -1.1875 0.640625l0 5.0l-1.890625 0l0 -10.0l1.890625 0l0 3.71875zm9.692398 6.28125q-0.125 -0.25 -0.1875 -0.625q-0.671875 0.75 -1.765625 0.75q-1.046875 0 -1.734375 -0.59375q-0.671875 -0.59375 -0.671875 -1.515625q0 -1.109375 0.828125 -1.703125q0.84375 -0.609375 2.40625 -0.609375l0.859375 0l0 -0.40625q0 -0.484375 -0.25 -0.78125q-0.25 -0.296875 -0.78125 -0.296875q-0.484375 0 -0.75 0.234375q-0.265625 0.21875 -0.265625 0.625l-1.890625 0q0 -0.609375 0.375 -1.125q0.390625 -0.53125 1.078125 -0.828125q0.6875 -0.296875 1.546875 -0.296875q1.296875 0 2.0625 0.65625q0.765625 0.65625 0.765625 1.84375l0 3.046875q0.015625 1.0 0.28125 1.515625l0 0.109375l-1.90625 0zm-1.546875 -1.3125q0.40625 0 0.75 -0.171875q0.359375 -0.1875 0.53125 -0.5l0 -1.21875l-0.703125 0q-1.40625 0 -1.5 0.984375l0 0.109375q0 0.34375 0.234375 0.578125q0.25 0.21875 0.6875 0.21875zm6.59877 1.3125l-1.890625 0l0 -7.046875l1.890625 0l0 7.046875zm-2.0 -8.859375q0 -0.421875 0.28125 -0.6875q0.296875 -0.28125 0.78125 -0.28125q0.484375 0 0.765625 0.28125q0.28125 0.265625 0.28125 0.6875q0 0.421875 -0.296875 0.703125q-0.28125 0.265625 -0.765625 0.265625q-0.46875 0 -0.765625 -0.265625q-0.28125 -0.28125 -0.28125 -0.703125zm7.502533 3.578125q-0.375 -0.046875 -0.671875 -0.046875q-1.0625 0 -1.390625 0.71875l0 4.609375l-1.890625 0l0 -7.046875l1.78125 0l0.046875 0.84375q0.578125 -0.96875 1.578125 -0.96875q0.3125 0 0.578125 0.078125l-0.03125 1.8125z" fill-rule="nonzero"/><path fill="#000000" d="m209.2049 316.79858q0 -1.484375 0.390625 -2.828125q0.390625 -1.34375 1.171875 -2.375q0.78125 -1.046875 1.671875 -1.453125l0.375 1.015625q-0.953125 0.703125 -1.484375 2.171875q-0.53125 1.46875 -0.53125 3.4375l0 0.203125q0 1.96875 0.515625 3.453125q0.53125 1.46875 1.5 2.203125l-0.375 1.0q-0.875 -0.40625 -1.640625 -1.421875q-0.765625 -1.0 -1.171875 -2.3125q-0.40625 -1.3125 -0.421875 -2.734375l0 -0.359375zm10.569794 -1.0l-5.8125 0l0 -1.53125l5.8125 0l0 1.53125zm0 2.828125l-5.8125 0l0 -1.546875l5.8125 0l0 1.546875zm8.939728 -7.4375l0 6.234375q0 1.5625 -0.96875 2.46875q-0.96875 0.890625 -2.65625 0.890625q-1.65625 0 -2.640625 -0.875q-0.96875 -0.875 -1.0 -2.40625l0 -6.3125l1.953125 0l0 6.25q0 0.921875 0.4375 1.359375q0.453125 0.421875 1.25 0.421875q1.640625 0 1.671875 -1.734375l0 -6.296875l1.953125 0zm4.1476135 0l2.4375 6.859375l2.421875 -6.859375l2.5625 0l0 9.46875l-1.953125 0l0 -2.59375l0.1875 -4.46875l-2.546875 7.0625l-1.34375 0l-2.546875 -7.046875l0.1875 4.453125l0 2.59375l-1.953125 0l0 -9.46875l2.546875 0zm15.300125 5.546875q0 1.96875 -0.8125 3.015625q-0.8125 1.03125 -2.375 1.03125q-1.546875 0 -2.375 -1.015625q-0.8125 -1.015625 -0.828125 -2.921875l0 -1.75q0 -1.984375 0.8125 -3.015625q0.828125 -1.03125 2.375 -1.03125q1.546875 0 2.359375 1.03125q0.828125 1.015625 0.84375 2.921875l0 1.734375zm-1.875 -1.90625q0 -1.1875 -0.328125 -1.71875q-0.3125 -0.53125 -1.0 -0.53125q-0.65625 0 -0.984375 0.515625q-0.3125 0.5 -0.328125 1.59375l0 2.296875q0 1.15625 0.3125 1.71875q0.3125 0.5625 1.015625 0.5625q0.6875 0 0.984375 -0.53125q0.3125 -0.546875 0.328125 -1.65625l0 -2.25zm9.521759 1.90625q0 1.96875 -0.8125 3.015625q-0.8125 1.03125 -2.375 1.03125q-1.546875 0 -2.375 -1.015625q-0.8125 -1.015625 -0.828125 -2.921875l0 -1.75q0 -1.984375 0.8125 -3.015625q0.828125 -1.03125 2.375 -1.03125q1.546875 0 2.359375 1.03125q0.828125 1.015625 0.84375 2.921875l0 1.734375zm-1.875 -1.90625q0 -1.1875 -0.328125 -1.71875q-0.3125 -0.53125 -1.0 -0.53125q-0.65625 0 -0.984375 0.515625q-0.3125 0.5 -0.328125 1.59375l0 2.296875q0 1.15625 0.3125 1.71875q0.3125 0.5625 1.015625 0.5625q0.6875 0 0.984375 -0.53125q0.3125 -0.546875 0.328125 -1.65625l0 -2.25zm7.724869 5.828125l-1.890625 0l0 -7.25l-2.234375 0.703125l0 -1.53125l3.921875 -1.40625l0.203125 0l0 9.484375zm6.396759 -3.703125q0 1.46875 -0.421875 2.828125q-0.421875 1.359375 -1.21875 2.40625q-0.796875 1.046875 -1.703125 1.4375l-0.359375 -1.0q0.921875 -0.703125 1.453125 -2.15625q0.53125 -1.453125 0.546875 -3.328125l0 -0.34375q0 -1.953125 -0.53125 -3.4375q-0.53125 -1.484375 -1.46875 -2.21875l0.359375 -1.0q0.890625 0.390625 1.671875 1.40625q0.78125 1.0 1.203125 2.34375q0.4375 1.328125 0.46875 2.765625l0 0.296875z" fill-rule="nonzero"/><path fill="#d9d9d9" d="m39.915943 413.73694l85.543304 0l0 43.55905l-85.543304 0z" fill-rule="evenodd"/><path stroke="#000000" stroke-width="1.0" stroke-linejoin="round" stroke-linecap="butt" d="m39.915943 413.73694l85.543304 0l0 43.55905l-85.543304 0z" fill-rule="evenodd"/><path fill="#000000" d="m68.987 430.75397l4.140625 0l0 1.5625l-6.09375 0l0 -9.46875l1.953125 0l0 7.90625zm8.389114 1.6875q-1.546875 0 -2.53125 -0.9375q-0.96875 -0.953125 -0.96875 -2.53125l0 -0.1875q0 -1.0625 0.40625 -1.890625q0.40625 -0.84375 1.15625 -1.296875q0.765625 -0.453125 1.71875 -0.453125q1.453125 0 2.28125 0.921875q0.828125 0.90625 0.828125 2.578125l0 0.765625l-4.484375 0q0.09375 0.6875 0.546875 1.109375q0.46875 0.40625 1.171875 0.40625q1.078125 0 1.6875 -0.78125l0.921875 1.03125q-0.421875 0.59375 -1.140625 0.9375q-0.71875 0.328125 -1.59375 0.328125zm-0.21875 -5.78125q-0.5625 0 -0.90625 0.390625q-0.34375 0.375 -0.453125 1.078125l2.625 0l0 -0.15625q-0.015625 -0.625 -0.34375 -0.96875q-0.328125 -0.34375 -0.921875 -0.34375zm3.9073486 2.078125q0 -1.609375 0.765625 -2.59375q0.765625 -1.0 2.078125 -1.0q1.15625 0 1.8125 0.796875l0.078125 -0.671875l1.703125 0l0 6.8125q0 0.921875 -0.421875 1.609375q-0.421875 0.6875 -1.1875 1.03125q-0.765625 0.359375 -1.78125 0.359375q-0.765625 0 -1.515625 -0.3125q-0.734375 -0.296875 -1.109375 -0.78125l0.84375 -1.15625q0.703125 0.796875 1.703125 0.796875q0.75 0 1.15625 -0.40625q0.421875 -0.40625 0.421875 -1.140625l0 -0.375q-0.65625 0.734375 -1.71875 0.734375q-1.265625 0 -2.046875 -0.984375q-0.78125 -1.0 -0.78125 -2.640625l0 -0.078125zm1.875 0.140625q0 0.953125 0.375 1.5q0.390625 0.546875 1.0625 0.546875q0.859375 0 1.234375 -0.640625l0 -2.96875q-0.375 -0.640625 -1.21875 -0.640625q-0.671875 0 -1.0625 0.5625q-0.390625 0.546875 -0.390625 1.640625zm13.817352 3.4375l-1.890625 0l0 -7.25l-2.234375 0.703125l0 -1.53125l3.921875 -1.40625l0.203125 0l0 9.484375z" fill-rule="nonzero"/><path fill="#000000" d="m54.533535 444.4571q0 -1.484375 0.390625 -2.828125q0.390625 -1.34375 1.171875 -2.375q0.78125 -1.046875 1.671875 -1.453125l0.375 1.015625q-0.953125 0.703125 -1.484375 2.171875q-0.53125 1.46875 -0.53125 3.4375l0 0.203125q0 1.96875 0.515625 3.453125q0.53125 1.46875 1.5 2.203125l-0.375 1.0q-0.875 -0.40625 -1.640625 -1.421875q-0.765625 -1.0 -1.171875 -2.3125q-0.40625 -1.3125 -0.421875 -2.734375l0 -0.359375zm8.241669 0.5625l-3.65625 0l0 -1.515625l3.65625 0l0 1.515625zm8.80788 -6.171875l0 6.234375q0 1.5625 -0.96875 2.46875q-0.96875 0.890625 -2.65625 0.890625q-1.65625 0 -2.640625 -0.875q-0.96875 -0.875 -1.0 -2.40625l0 -6.3125l1.953125 0l0 6.25q0 0.921875 0.4375 1.359375q0.453125 0.421875 1.25 0.421875q1.640625 0 1.671875 -1.734375l0 -6.296875l1.953125 0zm4.1476135 0l2.4375 6.859375l2.421875 -6.859375l2.5625 0l0 9.46875l-1.953125 0l0 -2.59375l0.1875 -4.46875l-2.546875 7.0625l-1.34375 0l-2.546875 -7.046875l0.1875 4.453125l0 2.59375l-1.953125 0l0 -9.46875l2.546875 0zm15.300125 5.546875q0 1.96875 -0.8125 3.015625q-0.8125 1.03125 -2.375 1.03125q-1.546875 0 -2.375 -1.015625q-0.8125 -1.015625 -0.828125 -2.921875l0 -1.75q0 -1.984375 0.8125 -3.015625q0.828125 -1.03125 2.375 -1.03125q1.546875 0 2.359375 1.03125q0.828125 1.015625 0.84375 2.921875l0 1.734375zm-1.875 -1.90625q0 -1.1875 -0.328125 -1.71875q-0.3125 -0.53125 -1.0 -0.53125q-0.65625 0 -0.984375 0.515625q-0.3125 0.5 -0.328125 1.59375l0 2.296875q0 1.15625 0.3125 1.71875q0.3125 0.5625 1.015625 0.5625q0.6875 0 0.984375 -0.53125q0.3125 -0.546875 0.328125 -1.65625l0 -2.25zm9.521759 1.90625q0 1.96875 -0.8125 3.015625q-0.8125 1.03125 -2.375 1.03125q-1.546875 0 -2.375 -1.015625q-0.8125 -1.015625 -0.828125 -2.921875l0 -1.75q0 -1.984375 0.8125 -3.015625q0.828125 -1.03125 2.375 -1.03125q1.546875 0 2.359375 1.03125q0.828125 1.015625 0.84375 2.921875l0 1.734375zm-1.875 -1.90625q0 -1.1875 -0.328125 -1.71875q-0.3125 -0.53125 -1.0 -0.53125q-0.65625 0 -0.984375 0.515625q-0.3125 0.5 -0.328125 1.59375l0 2.296875q0 1.15625 0.3125 1.71875q0.3125 0.5625 1.015625 0.5625q0.6875 0 0.984375 -0.53125q0.3125 -0.546875 0.328125 -1.65625l0 -2.25zm7.724884 5.828125l-1.890625 0l0 -7.25l-2.234375 0.703125l0 -1.53125l3.921875 -1.40625l0.203125 0l0 9.484375zm6.396759 -3.703125q0 1.46875 -0.421875 2.828125q-0.421875 1.359375 -1.21875 2.40625q-0.796875 1.046875 -1.703125 1.4375l-0.359375 -1.0q0.921875 -0.703125 1.453125 -2.15625q0.53125 -1.453125 0.546875 -3.328125l0 -0.34375q0 -1.953125 -0.53125 -3.4375q-0.53125 -1.484375 -1.46875 -2.21875l0.359375 -1.0q0.890625 0.390625 1.671875 1.40625q0.78125 1.0 1.203125 2.34375q0.4375 1.328125 0.46875 2.765625l0 0.296875z" fill-rule="nonzero"/><path fill="#000000" fill-opacity="0.0" d="m60.610813 161.68321l211.59055 0l0 41.669296l-211.59055 0z" fill-rule="evenodd"/><path stroke="#000000" stroke-width="1.0" stroke-linejoin="round" stroke-linecap="butt" stroke-dasharray="4.0,3.0" d="m60.610813 161.68321l211.59055 0l0 41.669296l-211.59055 0z" fill-rule="evenodd"/><path fill="#000000" d="m154.00116 186.69286q0 -0.3125 0.1875 -0.515625q0.1875 -0.21875 0.546875 -0.21875q0.375 0 0.5625 0.21875q0.203125 0.203125 0.203125 0.515625q0 0.296875 -0.203125 0.5q-0.1875 0.203125 -0.5625 0.203125q-0.359375 0 -0.546875 -0.203125q-0.1875 -0.203125 -0.1875 -0.5zm2.84375 0q0 -0.3125 0.1875 -0.515625q0.1875 -0.21875 0.546875 -0.21875q0.375 0 0.5625 0.21875q0.203125 0.203125 0.203125 0.515625q0 0.296875 -0.203125 0.5q-0.1875 0.203125 -0.5625 0.203125q-0.359375 0 -0.546875 -0.203125q-0.1875 -0.203125 -0.1875 -0.5zm2.703125 0q0 -0.3125 0.1875 -0.515625q0.1875 -0.21875 0.546875 -0.21875q0.375 0 0.5625 0.21875q0.203125 0.203125 0.203125 0.515625q0 0.296875 -0.203125 0.5q-0.1875 0.203125 -0.5625 0.203125q-0.359375 0 -0.546875 -0.203125q-0.1875 -0.203125 -0.1875 -0.5zm3.3689117 0q0 -0.3125 0.1875 -0.515625q0.1875 -0.21875 0.546875 -0.21875q0.375 0 0.5625 0.21875q0.203125 0.203125 0.203125 0.515625q0 0.296875 -0.203125 0.5q-0.1875 0.203125 -0.5625 0.203125q-0.359375 0 -0.546875 -0.203125q-0.1875 -0.203125 -0.1875 -0.5zm2.84375 0q0 -0.3125 0.1875 -0.515625q0.1875 -0.21875 0.546875 -0.21875q0.375 0 0.5625 0.21875q0.203125 0.203125 0.203125 0.515625q0 0.296875 -0.203125 0.5q-0.1875 0.203125 -0.5625 0.203125q-0.359375 0 -0.546875 -0.203125q-0.1875 -0.203125 -0.1875 -0.5zm2.703125 0q0 -0.3125 0.1875 -0.515625q0.1875 -0.21875 0.546875 -0.21875q0.375 0 0.5625 0.21875q0.203125 0.203125 0.203125 0.515625q0 0.296875 -0.203125 0.5q-0.1875 0.203125 -0.5625 0.203125q-0.359375 0 -0.546875 -0.203125q-0.1875 -0.203125 -0.1875 -0.5zm3.3689117 0q0 -0.3125 0.1875 -0.515625q0.1875 -0.21875 0.546875 -0.21875q0.375 0 0.5625 0.21875q0.203125 0.203125 0.203125 0.515625q0 0.296875 -0.203125 0.5q-0.1875 0.203125 -0.5625 0.203125q-0.359375 0 -0.546875 -0.203125q-0.1875 -0.203125 -0.1875 -0.5zm2.84375 0q0 -0.3125 0.1875 -0.515625q0.1875 -0.21875 0.546875 -0.21875q0.375 0 0.5625 0.21875q0.203125 0.203125 0.203125 0.515625q0 0.296875 -0.203125 0.5q-0.1875 0.203125 -0.5625 0.203125q-0.359375 0 -0.546875 -0.203125q-0.1875 -0.203125 -0.1875 -0.5zm2.703125 0q0 -0.3125 0.1875 -0.515625q0.1875 -0.21875 0.546875 -0.21875q0.375 0 0.5625 0.21875q0.203125 0.203125 0.203125 0.515625q0 0.296875 -0.203125 0.5q-0.1875 0.203125 -0.5625 0.203125q-0.359375 0 -0.546875 -0.203125q-0.1875 -0.203125 -0.1875 -0.5z" fill-rule="nonzero"/><path fill="#000000" fill-opacity="0.0" d="m410.37045 56.517868l0 52.58268l45.07086 0l0 52.58268" fill-rule="evenodd"/><path stroke="#000000" stroke-width="1.0" stroke-linejoin="round" stroke-linecap="butt" d="m410.37045 60.307865l0 48.792683l45.07086 0l0 48.792686" fill-rule="evenodd"/><path stroke="#000000" stroke-width="1.0" stroke-linecap="butt" d="m408.72543 60.307865l0 -3.290001l3.2900085 0l0 3.290001l-3.2900085 0z" fill-rule="nonzero"/><path stroke="#000000" stroke-width="1.0" stroke-linecap="butt" d="m457.0863 157.89322l0 3.2900085l-3.289978 0l0 -3.2900085l3.289978 0z" fill-rule="nonzero"/><path fill="#d9d9d9" d="m144.79065 413.73004l85.543304 0l0 43.55905l-85.543304 0z" fill-rule="evenodd"/><path stroke="#000000" stroke-width="1.0" stroke-linejoin="round" stroke-linecap="butt" d="m144.79065 413.73004l85.543304 0l0 43.55905l-85.543304 0z" fill-rule="evenodd"/><path fill="#000000" d="m173.8617 430.74707l4.140625 0l0 1.5625l-6.09375 0l0 -9.46875l1.953125 0l0 7.90625zm8.389114 1.6875q-1.546875 0 -2.53125 -0.9375q-0.96875 -0.953125 -0.96875 -2.53125l0 -0.1875q0 -1.0625 0.40625 -1.890625q0.40625 -0.84375 1.15625 -1.296875q0.765625 -0.453125 1.71875 -0.453125q1.453125 0 2.28125 0.921875q0.828125 0.90625 0.828125 2.578125l0 0.765625l-4.484375 0q0.09375 0.6875 0.546875 1.109375q0.46875 0.40625 1.171875 0.40625q1.078125 0 1.6875 -0.78125l0.921875 1.03125q-0.421875 0.59375 -1.140625 0.9375q-0.71875 0.328125 -1.59375 0.328125zm-0.21875 -5.78125q-0.5625 0 -0.90625 0.390625q-0.34375 0.375 -0.453125 1.078125l2.625 0l0 -0.15625q-0.015625 -0.625 -0.34375 -0.96875q-0.328125 -0.34375 -0.921875 -0.34375zm3.9073486 2.078125q0 -1.609375 0.765625 -2.59375q0.765625 -1.0 2.078125 -1.0q1.15625 0 1.8125 0.796875l0.078125 -0.671875l1.703125 0l0 6.8125q0 0.921875 -0.421875 1.609375q-0.421875 0.6875 -1.1875 1.03125q-0.765625 0.359375 -1.78125 0.359375q-0.765625 0 -1.515625 -0.3125q-0.734375 -0.296875 -1.109375 -0.78125l0.84375 -1.15625q0.703125 0.796875 1.703125 0.796875q0.75 0 1.15625 -0.40625q0.421875 -0.40625 0.421875 -1.140625l0 -0.375q-0.65625 0.734375 -1.71875 0.734375q-1.265625 0 -2.046875 -0.984375q-0.78125 -1.0 -0.78125 -2.640625l0 -0.078125zm1.875 0.140625q0 0.953125 0.375 1.5q0.390625 0.546875 1.0625 0.546875q0.859375 0 1.234375 -0.640625l0 -2.96875q-0.375 -0.640625 -1.21875 -0.640625q-0.671875 0 -1.0625 0.5625q-0.390625 0.546875 -0.390625 1.640625zm15.739227 3.4375l-6.5 0l0 -1.28125l3.0625 -3.28125q0.640625 -0.6875 0.9375 -1.203125q0.3125 -0.515625 0.3125 -0.96875q0 -0.625 -0.328125 -0.984375q-0.3125 -0.375 -0.90625 -0.375q-0.640625 0 -1.015625 0.453125q-0.359375 0.4375 -0.359375 1.140625l-1.890625 0q0 -0.859375 0.40625 -1.578125q0.421875 -0.71875 1.171875 -1.125q0.765625 -0.40625 1.71875 -0.40625q1.46875 0 2.265625 0.703125q0.8125 0.703125 0.8125 1.984375q0 0.703125 -0.359375 1.4375q-0.359375 0.734375 -1.25 1.703125l-2.15625 2.265625l4.078125 0l0 1.515625z" fill-rule="nonzero"/><path fill="#000000" d="m159.40823 444.4502q0 -1.484375 0.390625 -2.828125q0.390625 -1.34375 1.171875 -2.375q0.78125 -1.046875 1.671875 -1.453125l0.375 1.015625q-0.953125 0.703125 -1.484375 2.171875q-0.53125 1.46875 -0.53125 3.4375l0 0.203125q0 1.96875 0.515625 3.453125q0.53125 1.46875 1.5 2.203125l-0.375 1.0q-0.875 -0.40625 -1.640625 -1.421875q-0.765625 -1.0 -1.171875 -2.3125q-0.40625 -1.3125 -0.421875 -2.734375l0 -0.359375zm8.241669 0.5625l-3.65625 0l0 -1.515625l3.65625 0l0 1.515625zm8.807877 -6.171875l0 6.234375q0 1.5625 -0.96875 2.46875q-0.96875 0.890625 -2.65625 0.890625q-1.65625 0 -2.640625 -0.875q-0.96875 -0.875 -1.0 -2.40625l0 -6.3125l1.953125 0l0 6.25q0 0.921875 0.4375 1.359375q0.453125 0.421875 1.25 0.421875q1.640625 0 1.671875 -1.734375l0 -6.296875l1.953125 0zm4.1476135 0l2.4375 6.859375l2.421875 -6.859375l2.5625 0l0 9.46875l-1.953125 0l0 -2.59375l0.1875 -4.46875l-2.546875 7.0625l-1.34375 0l-2.546875 -7.046875l0.1875 4.453125l0 2.59375l-1.953125 0l0 -9.46875l2.546875 0zm15.300125 5.546875q0 1.96875 -0.8125 3.015625q-0.8125 1.03125 -2.375 1.03125q-1.546875 0 -2.375 -1.015625q-0.8125 -1.015625 -0.828125 -2.921875l0 -1.75q0 -1.984375 0.8125 -3.015625q0.828125 -1.03125 2.375 -1.03125q1.546875 0 2.359375 1.03125q0.828125 1.015625 0.84375 2.921875l0 1.734375zm-1.875 -1.90625q0 -1.1875 -0.328125 -1.71875q-0.3125 -0.53125 -1.0 -0.53125q-0.65625 0 -0.984375 0.515625q-0.3125 0.5 -0.328125 1.59375l0 2.296875q0 1.15625 0.3125 1.71875q0.3125 0.5625 1.015625 0.5625q0.6875 0 0.984375 -0.53125q0.3125 -0.546875 0.328125 -1.65625l0 -2.25zm9.521759 1.90625q0 1.96875 -0.8125 3.015625q-0.8125 1.03125 -2.375 1.03125q-1.546875 0 -2.375 -1.015625q-0.8125 -1.015625 -0.828125 -2.921875l0 -1.75q0 -1.984375 0.8125 -3.015625q0.828125 -1.03125 2.375 -1.03125q1.546875 0 2.359375 1.03125q0.828125 1.015625 0.84375 2.921875l0 1.734375zm-1.875 -1.90625q0 -1.1875 -0.328125 -1.71875q-0.3125 -0.53125 -1.0 -0.53125q-0.65625 0 -0.984375 0.515625q-0.3125 0.5 -0.328125 1.59375l0 2.296875q0 1.15625 0.3125 1.71875q0.3125 0.5625 1.015625 0.5625q0.6875 0 0.984375 -0.53125q0.3125 -0.546875 0.328125 -1.65625l0 -2.25zm9.646759 5.828125l-6.5 0l0 -1.28125l3.0625 -3.28125q0.640625 -0.6875 0.9375 -1.203125q0.3125 -0.515625 0.3125 -0.96875q0 -0.625 -0.328125 -0.984375q-0.3125 -0.375 -0.90625 -0.375q-0.640625 0 -1.015625 0.453125q-0.359375 0.4375 -0.359375 1.140625l-1.890625 0q0 -0.859375 0.40625 -1.578125q0.421875 -0.71875 1.171875 -1.125q0.765625 -0.40625 1.71875 -0.40625q1.46875 0 2.265625 0.703125q0.8125 0.703125 0.8125 1.984375q0 0.703125 -0.359375 1.4375q-0.359375 0.734375 -1.25 1.703125l-2.15625 2.265625l4.078125 0l0 1.515625zm4.474884 -3.703125q0 1.46875 -0.421875 2.828125q-0.421875 1.359375 -1.21875 2.40625q-0.796875 1.046875 -1.703125 1.4375l-0.359375 -1.0q0.921875 -0.703125 1.453125 -2.15625q0.53125 -1.453125 0.546875 -3.328125l0 -0.34375q0 -1.953125 -0.53125 -3.4375q-0.53125 -1.484375 -1.46875 -2.21875l0.359375 -1.0q0.890625 0.390625 1.671875 1.40625q0.78125 1.0 1.203125 2.34375q0.4375 1.328125 0.46875 2.765625l0 0.296875z" fill-rule="nonzero"/><path fill="#d9d9d9" d="m249.65675 413.73004l85.54332 0l0 43.55905l-85.54332 0z" fill-rule="evenodd"/><path stroke="#000000" stroke-width="1.0" stroke-linejoin="round" stroke-linecap="butt" d="m249.65675 413.73004l85.54332 0l0 43.55905l-85.54332 0z" fill-rule="evenodd"/><path fill="#000000" d="m278.7278 430.74707l4.140625 0l0 1.5625l-6.09375 0l0 -9.46875l1.953125 0l0 7.90625zm8.389099 1.6875q-1.546875 0 -2.53125 -0.9375q-0.96875 -0.953125 -0.96875 -2.53125l0 -0.1875q0 -1.0625 0.40625 -1.890625q0.40625 -0.84375 1.15625 -1.296875q0.765625 -0.453125 1.71875 -0.453125q1.453125 0 2.28125 0.921875q0.828125 0.90625 0.828125 2.578125l0 0.765625l-4.484375 0q0.09375 0.6875 0.546875 1.109375q0.46875 0.40625 1.171875 0.40625q1.078125 0 1.6875 -0.78125l0.921875 1.03125q-0.421875 0.59375 -1.140625 0.9375q-0.71875 0.328125 -1.59375 0.328125zm-0.21875 -5.78125q-0.5625 0 -0.90625 0.390625q-0.34375 0.375 -0.453125 1.078125l2.625 0l0 -0.15625q-0.015625 -0.625 -0.34375 -0.96875q-0.328125 -0.34375 -0.921875 -0.34375zm3.9073486 2.078125q0 -1.609375 0.765625 -2.59375q0.765625 -1.0 2.078125 -1.0q1.15625 0 1.8125 0.796875l0.078125 -0.671875l1.703125 0l0 6.8125q0 0.921875 -0.421875 1.609375q-0.421875 0.6875 -1.1875 1.03125q-0.765625 0.359375 -1.78125 0.359375q-0.765625 0 -1.515625 -0.3125q-0.734375 -0.296875 -1.109375 -0.78125l0.84375 -1.15625q0.703125 0.796875 1.703125 0.796875q0.75 0 1.15625 -0.40625q0.421875 -0.40625 0.421875 -1.140625l0 -0.375q-0.65625 0.734375 -1.71875 0.734375q-1.265625 0 -2.046875 -0.984375q-0.78125 -1.0 -0.78125 -2.640625l0 -0.078125zm1.875 0.140625q0 0.953125 0.375 1.5q0.390625 0.546875 1.0625 0.546875q0.859375 0 1.234375 -0.640625l0 -2.96875q-0.375 -0.640625 -1.21875 -0.640625q-0.671875 0 -1.0625 0.5625q-0.390625 0.546875 -0.390625 1.640625zm11.161102 -2.140625l1.0 0q0.71875 0 1.0625 -0.34375q0.34375 -0.359375 0.34375 -0.953125q0 -0.578125 -0.34375 -0.890625q-0.34375 -0.328125 -0.9375 -0.328125q-0.546875 0 -0.90625 0.296875q-0.359375 0.296875 -0.359375 0.78125l-1.890625 0q0 -0.75 0.390625 -1.328125q0.40625 -0.59375 1.125 -0.921875q0.71875 -0.34375 1.59375 -0.34375q1.5 0 2.34375 0.71875q0.859375 0.71875 0.859375 1.984375q0 0.65625 -0.40625 1.203125q-0.390625 0.546875 -1.03125 0.828125q0.796875 0.296875 1.1875 0.875q0.40625 0.5625 0.40625 1.34375q0 1.265625 -0.921875 2.03125q-0.921875 0.75 -2.4375 0.75q-1.421875 0 -2.328125 -0.734375q-0.890625 -0.75 -0.890625 -1.984375l1.875 0q0 0.53125 0.390625 0.875q0.40625 0.328125 1.0 0.328125q0.671875 0 1.046875 -0.34375q0.375 -0.359375 0.375 -0.953125q0 -1.40625 -1.5625 -1.40625l-0.984375 0l0 -1.484375z" fill-rule="nonzero"/><path fill="#000000" d="m264.27435 444.4502q0 -1.484375 0.390625 -2.828125q0.390625 -1.34375 1.171875 -2.375q0.78125 -1.046875 1.671875 -1.453125l0.375 1.015625q-0.953125 0.703125 -1.484375 2.171875q-0.53125 1.46875 -0.53125 3.4375l0 0.203125q0 1.96875 0.515625 3.453125q0.53125 1.46875 1.5 2.203125l-0.375 1.0q-0.875 -0.40625 -1.640625 -1.421875q-0.765625 -1.0 -1.171875 -2.3125q-0.40625 -1.3125 -0.421875 -2.734375l0 -0.359375zm8.241669 0.5625l-3.65625 0l0 -1.515625l3.65625 0l0 1.515625zm8.807861 -6.171875l0 6.234375q0 1.5625 -0.96875 2.46875q-0.96875 0.890625 -2.65625 0.890625q-1.65625 0 -2.640625 -0.875q-0.96875 -0.875 -1.0 -2.40625l0 -6.3125l1.953125 0l0 6.25q0 0.921875 0.4375 1.359375q0.453125 0.421875 1.25 0.421875q1.640625 0 1.671875 -1.734375l0 -6.296875l1.953125 0zm4.1476135 0l2.4375 6.859375l2.421875 -6.859375l2.5625 0l0 9.46875l-1.953125 0l0 -2.59375l0.1875 -4.46875l-2.546875 7.0625l-1.34375 0l-2.546875 -7.046875l0.1875 4.453125l0 2.59375l-1.953125 0l0 -9.46875l2.546875 0zm15.30014 5.546875q0 1.96875 -0.8125 3.015625q-0.8125 1.03125 -2.375 1.03125q-1.546875 0 -2.375 -1.015625q-0.8125 -1.015625 -0.828125 -2.921875l0 -1.75q0 -1.984375 0.8125 -3.015625q0.828125 -1.03125 2.375 -1.03125q1.546875 0 2.359375 1.03125q0.828125 1.015625 0.84375 2.921875l0 1.734375zm-1.875 -1.90625q0 -1.1875 -0.328125 -1.71875q-0.3125 -0.53125 -1.0 -0.53125q-0.65625 0 -0.984375 0.515625q-0.3125 0.5 -0.328125 1.59375l0 2.296875q0 1.15625 0.3125 1.71875q0.3125 0.5625 1.015625 0.5625q0.6875 0 0.984375 -0.53125q0.3125 -0.546875 0.328125 -1.65625l0 -2.25zm9.521759 1.90625q0 1.96875 -0.8125 3.015625q-0.8125 1.03125 -2.375 1.03125q-1.546875 0 -2.375 -1.015625q-0.8125 -1.015625 -0.828125 -2.921875l0 -1.75q0 -1.984375 0.8125 -3.015625q0.828125 -1.03125 2.375 -1.03125q1.546875 0 2.359375 1.03125q0.828125 1.015625 0.84375 2.921875l0 1.734375zm-1.875 -1.90625q0 -1.1875 -0.328125 -1.71875q-0.3125 -0.53125 -1.0 -0.53125q-0.65625 0 -0.984375 0.515625q-0.3125 0.5 -0.328125 1.59375l0 2.296875q0 1.15625 0.3125 1.71875q0.3125 0.5625 1.015625 0.5625q0.6875 0 0.984375 -0.53125q0.3125 -0.546875 0.328125 -1.65625l0 -2.25zm5.068634 0.25l1.0 0q0.71875 0 1.0625 -0.34375q0.34375 -0.359375 0.34375 -0.953125q0 -0.578125 -0.34375 -0.890625q-0.34375 -0.328125 -0.9375 -0.328125q-0.546875 0 -0.90625 0.296875q-0.359375 0.296875 -0.359375 0.78125l-1.890625 0q0 -0.75 0.390625 -1.328125q0.40625 -0.59375 1.125 -0.921875q0.71875 -0.34375 1.59375 -0.34375q1.5 0 2.34375 0.71875q0.859375 0.71875 0.859375 1.984375q0 0.65625 -0.40625 1.203125q-0.390625 0.546875 -1.03125 0.828125q0.796875 0.296875 1.1875 0.875q0.40625 0.5625 0.40625 1.34375q0 1.265625 -0.921875 2.03125q-0.921875 0.75 -2.4375 0.75q-1.421875 0 -2.328125 -0.734375q-0.890625 -0.75 -0.890625 -1.984375l1.875 0q0 0.53125 0.390625 0.875q0.40625 0.328125 1.0 0.328125q0.671875 0 1.046875 -0.34375q0.375 -0.359375 0.375 -0.953125q0 -1.40625 -1.5625 -1.40625l-0.984375 0l0 -1.484375zm9.053009 1.875q0 1.46875 -0.421875 2.828125q-0.421875 1.359375 -1.21875 2.40625q-0.796875 1.046875 -1.703125 1.4375l-0.359375 -1.0q0.921875 -0.703125 1.453125 -2.15625q0.53125 -1.453125 0.546875 -3.328125l0 -0.34375q0 -1.953125 -0.53125 -3.4375q-0.53125 -1.484375 -1.46875 -2.21875l0.359375 -1.0q0.890625 0.390625 1.671875 1.40625q0.78125 1.0 1.203125 2.34375q0.4375 1.328125 0.46875 2.765625l0 0.296875z" fill-rule="nonzero"/><path fill="#d9d9d9" d="m351.6959 413.73004l85.543304 0l0 43.55905l-85.543304 0z" fill-rule="evenodd"/><path stroke="#000000" stroke-width="1.0" stroke-linejoin="round" stroke-linecap="butt" d="m351.6959 413.73004l85.543304 0l0 43.55905l-85.543304 0z" fill-rule="evenodd"/><path fill="#000000" d="m380.76694 430.74707l4.140625 0l0 1.5625l-6.09375 0l0 -9.46875l1.953125 0l0 7.90625zm8.38913 1.6875q-1.546875 0 -2.53125 -0.9375q-0.96875 -0.953125 -0.96875 -2.53125l0 -0.1875q0 -1.0625 0.40625 -1.890625q0.40625 -0.84375 1.15625 -1.296875q0.765625 -0.453125 1.71875 -0.453125q1.453125 0 2.28125 0.921875q0.828125 0.90625 0.828125 2.578125l0 0.765625l-4.484375 0q0.09375 0.6875 0.546875 1.109375q0.46875 0.40625 1.171875 0.40625q1.078125 0 1.6875 -0.78125l0.921875 1.03125q-0.421875 0.59375 -1.140625 0.9375q-0.71875 0.328125 -1.59375 0.328125zm-0.21875 -5.78125q-0.5625 0 -0.90625 0.390625q-0.34375 0.375 -0.453125 1.078125l2.625 0l0 -0.15625q-0.015625 -0.625 -0.34375 -0.96875q-0.328125 -0.34375 -0.921875 -0.34375zm3.9073486 2.078125q0 -1.609375 0.765625 -2.59375q0.765625 -1.0 2.078125 -1.0q1.15625 0 1.8125 0.796875l0.078125 -0.671875l1.703125 0l0 6.8125q0 0.921875 -0.421875 1.609375q-0.421875 0.6875 -1.1875 1.03125q-0.765625 0.359375 -1.78125 0.359375q-0.765625 0 -1.515625 -0.3125q-0.734375 -0.296875 -1.109375 -0.78125l0.84375 -1.15625q0.703125 0.796875 1.703125 0.796875q0.75 0 1.15625 -0.40625q0.421875 -0.40625 0.421875 -1.140625l0 -0.375q-0.65625 0.734375 -1.71875 0.734375q-1.265625 0 -2.046875 -0.984375q-0.78125 -1.0 -0.78125 -2.640625l0 -0.078125zm1.875 0.140625q0 0.953125 0.375 1.5q0.390625 0.546875 1.0625 0.546875q0.859375 0 1.234375 -0.640625l0 -2.96875q-0.375 -0.640625 -1.21875 -0.640625q-0.671875 0 -1.0625 0.5625q-0.390625 0.546875 -0.390625 1.640625zm14.801727 -0.125l1.078125 0l0 1.515625l-1.078125 0l0 2.046875l-1.875 0l0 -2.046875l-3.890625 0l-0.078125 -1.1875l3.953125 -6.234375l1.890625 0l0 5.90625zm-3.96875 0l2.09375 0l0 -3.34375l-0.125 0.203125l-1.96875 3.140625z" fill-rule="nonzero"/><path fill="#000000" d="m366.31348 444.4502q0 -1.484375 0.390625 -2.828125q0.390625 -1.34375 1.171875 -2.375q0.78125 -1.046875 1.671875 -1.453125l0.375 1.015625q-0.953125 0.703125 -1.484375 2.171875q-0.53125 1.46875 -0.53125 3.4375l0 0.203125q0 1.96875 0.515625 3.453125q0.53125 1.46875 1.5 2.203125l-0.375 1.0q-0.875 -0.40625 -1.640625 -1.421875q-0.765625 -1.0 -1.171875 -2.3125q-0.40625 -1.3125 -0.421875 -2.734375l0 -0.359375zm8.241669 0.5625l-3.65625 0l0 -1.515625l3.65625 0l0 1.515625zm8.807892 -6.171875l0 6.234375q0 1.5625 -0.96875 2.46875q-0.96875 0.890625 -2.65625 0.890625q-1.65625 0 -2.640625 -0.875q-0.96875 -0.875 -1.0 -2.40625l0 -6.3125l1.953125 0l0 6.25q0 0.921875 0.4375 1.359375q0.453125 0.421875 1.25 0.421875q1.640625 0 1.671875 -1.734375l0 -6.296875l1.953125 0zm4.1476135 0l2.4375 6.859375l2.421875 -6.859375l2.5625 0l0 9.46875l-1.953125 0l0 -2.59375l0.1875 -4.46875l-2.546875 7.0625l-1.34375 0l-2.546875 -7.046875l0.1875 4.453125l0 2.59375l-1.953125 0l0 -9.46875l2.546875 0zm15.30011 5.546875q0 1.96875 -0.8125 3.015625q-0.8125 1.03125 -2.375 1.03125q-1.546875 0 -2.375 -1.015625q-0.8125 -1.015625 -0.828125 -2.921875l0 -1.75q0 -1.984375 0.8125 -3.015625q0.828125 -1.03125 2.375 -1.03125q1.546875 0 2.359375 1.03125q0.828125 1.015625 0.84375 2.921875l0 1.734375zm-1.875 -1.90625q0 -1.1875 -0.328125 -1.71875q-0.3125 -0.53125 -1.0 -0.53125q-0.65625 0 -0.984375 0.515625q-0.3125 0.5 -0.328125 1.59375l0 2.296875q0 1.15625 0.3125 1.71875q0.3125 0.5625 1.015625 0.5625q0.6875 0 0.984375 -0.53125q0.3125 -0.546875 0.328125 -1.65625l0 -2.25zm9.521759 1.90625q0 1.96875 -0.8125 3.015625q-0.8125 1.03125 -2.375 1.03125q-1.546875 0 -2.375 -1.015625q-0.8125 -1.015625 -0.828125 -2.921875l0 -1.75q0 -1.984375 0.8125 -3.015625q0.828125 -1.03125 2.375 -1.03125q1.546875 0 2.359375 1.03125q0.828125 1.015625 0.84375 2.921875l0 1.734375zm-1.875 -1.90625q0 -1.1875 -0.328125 -1.71875q-0.3125 -0.53125 -1.0 -0.53125q-0.65625 0 -0.984375 0.515625q-0.3125 0.5 -0.328125 1.59375l0 2.296875q0 1.15625 0.3125 1.71875q0.3125 0.5625 1.015625 0.5625q0.6875 0 0.984375 -0.53125q0.3125 -0.546875 0.328125 -1.65625l0 -2.25zm8.709259 2.265625l1.078125 0l0 1.515625l-1.078125 0l0 2.046875l-1.875 0l0 -2.046875l-3.890625 0l-0.078125 -1.1875l3.953125 -6.234375l1.890625 0l0 5.90625zm-3.96875 0l2.09375 0l0 -3.34375l-0.125 0.203125l-1.96875 3.140625zm9.381134 -0.140625q0 1.46875 -0.421875 2.828125q-0.421875 1.359375 -1.21875 2.40625q-0.796875 1.046875 -1.703125 1.4375l-0.359375 -1.0q0.921875 -0.703125 1.453125 -2.15625q0.53125 -1.453125 0.546875 -3.328125l0 -0.34375q0 -1.953125 -0.53125 -3.4375q-0.53125 -1.484375 -1.46875 -2.21875l0.359375 -1.0q0.890625 0.390625 1.671875 1.40625q0.78125 1.0 1.203125 2.34375q0.4375 1.328125 0.46875 2.765625l0 0.296875z" fill-rule="nonzero"/><path fill="#000000" fill-opacity="0.0" d="m238.58894 328.6926l0 42.523956l53.826767 0l0 42.51541" fill-rule="evenodd"/><path stroke="#000000" stroke-width="1.0" stroke-linejoin="round" stroke-linecap="butt" d="m238.58893 332.4826l0 38.733917l53.826782 0l0 38.725433" fill-rule="evenodd"/><path stroke="#000000" stroke-width="1.0" stroke-linecap="butt" d="m236.94392 332.4826l0 -3.2900085l3.2900085 0l0 3.2900085l-3.2900085 0z" fill-rule="nonzero"/><path stroke="#000000" stroke-width="1.0" stroke-linecap="butt" d="m294.0607 409.94196l0 3.2900085l-3.2900085 0l0 -3.2900085l3.2900085 0z" fill-rule="nonzero"/><path fill="#000000" fill-opacity="0.0" d="m238.58894 328.6926l0 42.523956l155.87401 0l0 42.51541" fill-rule="evenodd"/><path stroke="#000000" stroke-width="1.0" stroke-linejoin="round" stroke-linecap="butt" d="m238.58893 332.4826l0 38.733917l155.87405 0l0 38.725433" fill-rule="evenodd"/><path stroke="#000000" stroke-width="1.0" stroke-linecap="butt" d="m236.94392 332.4826l0 -3.2900085l3.2900085 0l0 3.2900085l-3.2900085 0z" fill-rule="nonzero"/><path stroke="#000000" stroke-width="1.0" stroke-linecap="butt" d="m396.10797 409.94196l0 3.2900085l-3.2900085 0l0 -3.2900085l3.2900085 0z" fill-rule="nonzero"/><path fill="#000000" fill-opacity="0.0" d="m735.6424 326.85266l0 43.433075l-51.02362 0l0 43.433075" fill-rule="evenodd"/><path stroke="#000000" stroke-width="1.0" stroke-linejoin="round" stroke-linecap="butt" stroke-dasharray="4.0,3.0" d="m735.6424 330.64267l0 39.643036l-51.02356 0l0 39.643097" fill-rule="evenodd"/><path stroke="#000000" stroke-width="1.0" stroke-linecap="butt" d="m733.9974 330.64264l0 -3.289978l3.290039 0l0 3.289978l-3.290039 0z" fill-rule="nonzero"/><path stroke="#000000" stroke-width="1.0" stroke-linecap="butt" d="m686.2638 409.9288l0 3.289978l-3.289978 0l0 -3.289978l3.289978 0z" fill-rule="nonzero"/><path fill="#000000" fill-opacity="0.0" d="m579.7527 413.74036l0 -43.451416l155.87396 0l0 -43.446198" fill-rule="evenodd"/><path stroke="#000000" stroke-width="1.0" stroke-linejoin="round" stroke-linecap="butt" stroke-dasharray="4.0,3.0" d="m579.7527 409.95038l0 -39.661407l155.87396 0l0 -39.65625" fill-rule="evenodd"/><path stroke="#000000" stroke-width="1.0" stroke-linecap="butt" d="m581.39764 409.95035l0 3.2900085l-3.289978 0l0 -3.2900085l3.289978 0z" fill-rule="nonzero"/><path stroke="#000000" stroke-width="1.0" stroke-linecap="butt" d="m733.9816 330.63272l0 -3.2900085l3.290039 0l0 3.2900085l-3.290039 0z" fill-rule="nonzero"/><path fill="#000000" fill-opacity="0.0" d="m666.9338 285.18338l137.4173 0l0 41.66928l-137.4173 0z" fill-rule="evenodd"/><path stroke="#000000" stroke-width="1.0" stroke-linejoin="round" stroke-linecap="butt" stroke-dasharray="4.0,3.0" d="m666.9338 285.18338l137.4173 0l0 41.66928l-137.4173 0z" fill-rule="evenodd"/><path fill="#000000" d="m722.58105 299.66177q-0.109375 1.53125 -1.125 2.40625q-1.015625 0.875 -2.6875 0.875q-1.8125 0 -2.859375 -1.21875q-1.046875 -1.234375 -1.046875 -3.375l0 -0.578125q0 -1.359375 0.46875 -2.40625q0.484375 -1.046875 1.375 -1.59375q0.90625 -0.5625 2.09375 -0.5625q1.640625 0 2.640625 0.890625q1.0 0.875 1.15625 2.453125l-1.953125 0q-0.0625 -0.90625 -0.515625 -1.3125q-0.4375 -0.421875 -1.328125 -0.421875q-0.984375 0 -1.46875 0.703125q-0.484375 0.6875 -0.5 2.15625l0 0.71875q0 1.53125 0.46875 2.25q0.46875 0.703125 1.46875 0.703125q0.90625 0 1.34375 -0.40625q0.453125 -0.421875 0.515625 -1.28125l1.953125 0zm3.001831 -3.125q0.75 -0.890625 1.875 -0.890625q2.296875 0 2.328125 2.65625l0 4.515625l-1.890625 0l0 -4.453125q0 -0.609375 -0.265625 -0.890625q-0.25 -0.296875 -0.859375 -0.296875q-0.828125 0 -1.1875 0.640625l0 5.0l-1.890625 0l0 -10.0l1.890625 0l0 3.71875zm9.692383 6.28125q-0.125 -0.25 -0.1875 -0.625q-0.671875 0.75 -1.765625 0.75q-1.046875 0 -1.734375 -0.59375q-0.671875 -0.59375 -0.671875 -1.515625q0 -1.109375 0.828125 -1.703125q0.84375 -0.609375 2.40625 -0.609375l0.859375 0l0 -0.40625q0 -0.484375 -0.25 -0.78125q-0.25 -0.296875 -0.78125 -0.296875q-0.484375 0 -0.75 0.234375q-0.265625 0.21875 -0.265625 0.625l-1.890625 0q0 -0.609375 0.375 -1.125q0.390625 -0.53125 1.078125 -0.828125q0.6875 -0.296875 1.546875 -0.296875q1.296875 0 2.0625 0.65625q0.765625 0.65625 0.765625 1.84375l0 3.046875q0.015625 1.0 0.28125 1.515625l0 0.109375l-1.90625 0zm-1.546875 -1.3125q0.40625 0 0.75 -0.171875q0.359375 -0.1875 0.53125 -0.5l0 -1.21875l-0.703125 0q-1.40625 0 -1.5 0.984375l0 0.109375q0 0.34375 0.234375 0.578125q0.25 0.21875 0.6875 0.21875zm6.598755 1.3125l-1.890625 0l0 -7.046875l1.890625 0l0 7.046875zm-2.0 -8.859375q0 -0.421875 0.28125 -0.6875q0.296875 -0.28125 0.78125 -0.28125q0.484375 0 0.765625 0.28125q0.28125 0.265625 0.28125 0.6875q0 0.421875 -0.296875 0.703125q-0.28125 0.265625 -0.765625 0.265625q-0.46875 0 -0.765625 -0.265625q-0.28125 -0.28125 -0.28125 -0.703125zm7.5025635 3.578125q-0.375 -0.046875 -0.671875 -0.046875q-1.0625 0 -1.390625 0.71875l0 4.609375l-1.890625 0l0 -7.046875l1.78125 0l0.046875 0.84375q0.578125 -0.96875 1.578125 -0.96875q0.3125 0 0.578125 0.078125l-0.03125 1.8125zm10.64917 5.28125l-6.5 0l0 -1.28125l3.0625 -3.28125q0.640625 -0.6875 0.9375 -1.203125q0.3125 -0.515625 0.3125 -0.96875q0 -0.625 -0.328125 -0.984375q-0.3125 -0.375 -0.90625 -0.375q-0.640625 0 -1.015625 0.453125q-0.359375 0.4375 -0.359375 1.140625l-1.890625 0q0 -0.859375 0.40625 -1.578125q0.421875 -0.71875 1.171875 -1.125q0.765625 -0.40625 1.71875 -0.40625q1.46875 0 2.265625 0.703125q0.8125 0.703125 0.8125 1.984375q0 0.703125 -0.359375 1.4375q-0.359375 0.734375 -1.25 1.703125l-2.15625 2.265625l4.078125 0l0 1.515625z" fill-rule="nonzero"/><path fill="#000000" d="m710.07196 314.95865q0 -1.484375 0.390625 -2.828125q0.390625 -1.34375 1.171875 -2.375q0.78125 -1.046875 1.671875 -1.453125l0.375 1.015625q-0.953125 0.703125 -1.484375 2.171875q-0.53125 1.46875 -0.53125 3.4375l0 0.203125q0 1.96875 0.515625 3.453125q0.53125 1.46875 1.5 2.203125l-0.375 1.0q-0.875 -0.40625 -1.640625 -1.421875q-0.765625 -1.0 -1.171875 -2.3125q-0.40625 -1.3125 -0.421875 -2.734375l0 -0.359375zm11.882324 -5.609375l0 6.234375q0 1.5625 -0.96875 2.46875q-0.96875 0.890625 -2.65625 0.890625q-1.65625 0 -2.640625 -0.875q-0.96875 -0.875 -1.0 -2.40625l0 -6.3125l1.953125 0l0 6.25q0 0.921875 0.4375 1.359375q0.453125 0.421875 1.25 0.421875q1.640625 0 1.671875 -1.734375l0 -6.296875l1.953125 0zm4.147583 0l2.4375 6.859375l2.421875 -6.859375l2.5625 0l0 9.46875l-1.953125 0l0 -2.59375l0.1875 -4.46875l-2.546875 7.0625l-1.34375 0l-2.546875 -7.046875l0.1875 4.453125l0 2.59375l-1.953125 0l0 -9.46875l2.546875 0zm15.300171 5.546875q0 1.96875 -0.8125 3.015625q-0.8125 1.03125 -2.375 1.03125q-1.546875 0 -2.375 -1.015625q-0.8125 -1.015625 -0.828125 -2.921875l0 -1.75q0 -1.984375 0.8125 -3.015625q0.828125 -1.03125 2.375 -1.03125q1.546875 0 2.359375 1.03125q0.828125 1.015625 0.84375 2.921875l0 1.734375zm-1.875 -1.90625q0 -1.1875 -0.328125 -1.71875q-0.3125 -0.53125 -1.0 -0.53125q-0.65625 0 -0.984375 0.515625q-0.3125 0.5 -0.328125 1.59375l0 2.296875q0 1.15625 0.3125 1.71875q0.3125 0.5625 1.015625 0.5625q0.6875 0 0.984375 -0.53125q0.3125 -0.546875 0.328125 -1.65625l0 -2.25zm9.5217285 1.90625q0 1.96875 -0.8125 3.015625q-0.8125 1.03125 -2.375 1.03125q-1.546875 0 -2.375 -1.015625q-0.8125 -1.015625 -0.828125 -2.921875l0 -1.75q0 -1.984375 0.8125 -3.015625q0.828125 -1.03125 2.375 -1.03125q1.546875 0 2.359375 1.03125q0.828125 1.015625 0.84375 2.921875l0 1.734375zm-1.875 -1.90625q0 -1.1875 -0.328125 -1.71875q-0.3125 -0.53125 -1.0 -0.53125q-0.65625 0 -0.984375 0.515625q-0.3125 0.5 -0.328125 1.59375l0 2.296875q0 1.15625 0.3125 1.71875q0.3125 0.5625 1.015625 0.5625q0.6875 0 0.984375 -0.53125q0.3125 -0.546875 0.328125 -1.65625l0 -2.25zm9.64679 5.828125l-6.5 0l0 -1.28125l3.0625 -3.28125q0.640625 -0.6875 0.9375 -1.203125q0.3125 -0.515625 0.3125 -0.96875q0 -0.625 -0.328125 -0.984375q-0.3125 -0.375 -0.90625 -0.375q-0.640625 0 -1.015625 0.453125q-0.359375 0.4375 -0.359375 1.140625l-1.890625 0q0 -0.859375 0.40625 -1.578125q0.421875 -0.71875 1.171875 -1.125q0.765625 -0.40625 1.71875 -0.40625q1.46875 0 2.265625 0.703125q0.8125 0.703125 0.8125 1.984375q0 0.703125 -0.359375 1.4375q-0.359375 0.734375 -1.25 1.703125l-2.15625 2.265625l4.078125 0l0 1.515625zm4.4748535 -3.703125q0 1.46875 -0.421875 2.828125q-0.421875 1.359375 -1.21875 2.40625q-0.796875 1.046875 -1.703125 1.4375l-0.359375 -1.0q0.921875 -0.703125 1.453125 -2.15625q0.53125 -1.453125 0.546875 -3.328125l0 -0.34375q0 -1.953125 -0.53125 -3.4375q-0.53125 -1.484375 -1.46875 -2.21875l0.359375 -1.0q0.890625 0.390625 1.671875 1.40625q0.78125 1.0 1.203125 2.34375q0.4375 1.328125 0.46875 2.765625l0 0.296875z" fill-rule="nonzero"/><path fill="#000000" fill-opacity="0.0" d="m536.981 413.74036l85.543274 0l0 43.559082l-85.543274 0z" fill-rule="evenodd"/><path stroke="#000000" stroke-width="1.0" stroke-linejoin="round" stroke-linecap="butt" stroke-dasharray="4.0,3.0" d="m536.981 413.74036l85.543274 0l0 43.559082l-85.543274 0z" fill-rule="evenodd"/><path fill="#000000" d="m567.3477 439.6949q0 -0.3125 0.1875 -0.515625q0.1875 -0.21875 0.546875 -0.21875q0.375 0 0.5625 0.21875q0.203125 0.203125 0.203125 0.515625q0 0.296875 -0.203125 0.5q-0.1875 0.203125 -0.5625 0.203125q-0.359375 0 -0.546875 -0.203125q-0.1875 -0.203125 -0.1875 -0.5zm2.84375 0q0 -0.3125 0.1875 -0.515625q0.1875 -0.21875 0.546875 -0.21875q0.375 0 0.5625 0.21875q0.203125 0.203125 0.203125 0.515625q0 0.296875 -0.203125 0.5q-0.1875 0.203125 -0.5625 0.203125q-0.359375 0 -0.546875 -0.203125q-0.1875 -0.203125 -0.1875 -0.5zm2.703125 0q0 -0.3125 0.1875 -0.515625q0.1875 -0.21875 0.546875 -0.21875q0.375 0 0.5625 0.21875q0.203125 0.203125 0.203125 0.515625q0 0.296875 -0.203125 0.5q-0.1875 0.203125 -0.5625 0.203125q-0.359375 0 -0.546875 -0.203125q-0.1875 -0.203125 -0.1875 -0.5zm3.3688965 0q0 -0.3125 0.1875 -0.515625q0.1875 -0.21875 0.546875 -0.21875q0.375 0 0.5625 0.21875q0.203125 0.203125 0.203125 0.515625q0 0.296875 -0.203125 0.5q-0.1875 0.203125 -0.5625 0.203125q-0.359375 0 -0.546875 -0.203125q-0.1875 -0.203125 -0.1875 -0.5zm2.84375 0q0 -0.3125 0.1875 -0.515625q0.1875 -0.21875 0.546875 -0.21875q0.375 0 0.5625 0.21875q0.203125 0.203125 0.203125 0.515625q0 0.296875 -0.203125 0.5q-0.1875 0.203125 -0.5625 0.203125q-0.359375 0 -0.546875 -0.203125q-0.1875 -0.203125 -0.1875 -0.5zm2.703125 0q0 -0.3125 0.1875 -0.515625q0.1875 -0.21875 0.546875 -0.21875q0.375 0 0.5625 0.21875q0.203125 0.203125 0.203125 0.515625q0 0.296875 -0.203125 0.5q-0.1875 0.203125 -0.5625 0.203125q-0.359375 0 -0.546875 -0.203125q-0.1875 -0.203125 -0.1875 -0.5zm3.3689575 0q0 -0.3125 0.1875 -0.515625q0.1875 -0.21875 0.546875 -0.21875q0.375 0 0.5625 0.21875q0.203125 0.203125 0.203125 0.515625q0 0.296875 -0.203125 0.5q-0.1875 0.203125 -0.5625 0.203125q-0.359375 0 -0.546875 -0.203125q-0.1875 -0.203125 -0.1875 -0.5zm2.84375 0q0 -0.3125 0.1875 -0.515625q0.1875 -0.21875 0.546875 -0.21875q0.375 0 0.5625 0.21875q0.203125 0.203125 0.203125 0.515625q0 0.296875 -0.203125 0.5q-0.1875 0.203125 -0.5625 0.203125q-0.359375 0 -0.546875 -0.203125q-0.1875 -0.203125 -0.1875 -0.5zm2.703125 0q0 -0.3125 0.1875 -0.515625q0.1875 -0.21875 0.546875 -0.21875q0.375 0 0.5625 0.21875q0.203125 0.203125 0.203125 0.515625q0 0.296875 -0.203125 0.5q-0.1875 0.203125 -0.5625 0.203125q-0.359375 0 -0.546875 -0.203125q-0.1875 -0.203125 -0.1875 -0.5z" fill-rule="nonzero"/><path fill="#000000" fill-opacity="0.0" d="m641.8557 413.7335l85.543335 0l0 43.55905l-85.543335 0z" fill-rule="evenodd"/><path stroke="#000000" stroke-width="1.0" stroke-linejoin="round" stroke-linecap="butt" stroke-dasharray="4.0,3.0" d="m641.8557 413.7335l85.543335 0l0 43.55905l-85.543335 0z" fill-rule="evenodd"/><path fill="#000000" d="m672.2224 439.68802q0 -0.3125 0.1875 -0.515625q0.1875 -0.21875 0.546875 -0.21875q0.375 0 0.5625 0.21875q0.203125 0.203125 0.203125 0.515625q0 0.296875 -0.203125 0.5q-0.1875 0.203125 -0.5625 0.203125q-0.359375 0 -0.546875 -0.203125q-0.1875 -0.203125 -0.1875 -0.5zm2.84375 0q0 -0.3125 0.1875 -0.515625q0.1875 -0.21875 0.546875 -0.21875q0.375 0 0.5625 0.21875q0.203125 0.203125 0.203125 0.515625q0 0.296875 -0.203125 0.5q-0.1875 0.203125 -0.5625 0.203125q-0.359375 0 -0.546875 -0.203125q-0.1875 -0.203125 -0.1875 -0.5zm2.703125 0q0 -0.3125 0.1875 -0.515625q0.1875 -0.21875 0.546875 -0.21875q0.375 0 0.5625 0.21875q0.203125 0.203125 0.203125 0.515625q0 0.296875 -0.203125 0.5q-0.1875 0.203125 -0.5625 0.203125q-0.359375 0 -0.546875 -0.203125q-0.1875 -0.203125 -0.1875 -0.5zm3.3689575 0q0 -0.3125 0.1875 -0.515625q0.1875 -0.21875 0.546875 -0.21875q0.375 0 0.5625 0.21875q0.203125 0.203125 0.203125 0.515625q0 0.296875 -0.203125 0.5q-0.1875 0.203125 -0.5625 0.203125q-0.359375 0 -0.546875 -0.203125q-0.1875 -0.203125 -0.1875 -0.5zm2.84375 0q0 -0.3125 0.1875 -0.515625q0.1875 -0.21875 0.546875 -0.21875q0.375 0 0.5625 0.21875q0.203125 0.203125 0.203125 0.515625q0 0.296875 -0.203125 0.5q-0.1875 0.203125 -0.5625 0.203125q-0.359375 0 -0.546875 -0.203125q-0.1875 -0.203125 -0.1875 -0.5zm2.703125 0q0 -0.3125 0.1875 -0.515625q0.1875 -0.21875 0.546875 -0.21875q0.375 0 0.5625 0.21875q0.203125 0.203125 0.203125 0.515625q0 0.296875 -0.203125 0.5q-0.1875 0.203125 -0.5625 0.203125q-0.359375 0 -0.546875 -0.203125q-0.1875 -0.203125 -0.1875 -0.5zm3.3688965 0q0 -0.3125 0.1875 -0.515625q0.1875 -0.21875 0.546875 -0.21875q0.375 0 0.5625 0.21875q0.203125 0.203125 0.203125 0.515625q0 0.296875 -0.203125 0.5q-0.1875 0.203125 -0.5625 0.203125q-0.359375 0 -0.546875 -0.203125q-0.1875 -0.203125 -0.1875 -0.5zm2.84375 0q0 -0.3125 0.1875 -0.515625q0.1875 -0.21875 0.546875 -0.21875q0.375 0 0.5625 0.21875q0.203125 0.203125 0.203125 0.515625q0 0.296875 -0.203125 0.5q-0.1875 0.203125 -0.5625 0.203125q-0.359375 0 -0.546875 -0.203125q-0.1875 -0.203125 -0.1875 -0.5zm2.703125 0q0 -0.3125 0.1875 -0.515625q0.1875 -0.21875 0.546875 -0.21875q0.375 0 0.5625 0.21875q0.203125 0.203125 0.203125 0.515625q0 0.296875 -0.203125 0.5q-0.1875 0.203125 -0.5625 0.203125q-0.359375 0 -0.546875 -0.203125q-0.1875 -0.203125 -0.1875 -0.5z" fill-rule="nonzero"/><path fill="#000000" fill-opacity="0.0" d="m746.7218 413.7335l85.543335 0l0 43.55905l-85.543335 0z" fill-rule="evenodd"/><path stroke="#000000" stroke-width="1.0" stroke-linejoin="round" stroke-linecap="butt" stroke-dasharray="4.0,3.0" d="m746.7218 413.7335l85.543335 0l0 43.55905l-85.543335 0z" fill-rule="evenodd"/><path fill="#000000" d="m777.08856 439.68802q0 -0.3125 0.1875 -0.515625q0.1875 -0.21875 0.546875 -0.21875q0.375 0 0.5625 0.21875q0.203125 0.203125 0.203125 0.515625q0 0.296875 -0.203125 0.5q-0.1875 0.203125 -0.5625 0.203125q-0.359375 0 -0.546875 -0.203125q-0.1875 -0.203125 -0.1875 -0.5zm2.84375 0q0 -0.3125 0.1875 -0.515625q0.1875 -0.21875 0.546875 -0.21875q0.375 0 0.5625 0.21875q0.203125 0.203125 0.203125 0.515625q0 0.296875 -0.203125 0.5q-0.1875 0.203125 -0.5625 0.203125q-0.359375 0 -0.546875 -0.203125q-0.1875 -0.203125 -0.1875 -0.5zm2.703125 0q0 -0.3125 0.1875 -0.515625q0.1875 -0.21875 0.546875 -0.21875q0.375 0 0.5625 0.21875q0.203125 0.203125 0.203125 0.515625q0 0.296875 -0.203125 0.5q-0.1875 0.203125 -0.5625 0.203125q-0.359375 0 -0.546875 -0.203125q-0.1875 -0.203125 -0.1875 -0.5zm3.3688965 0q0 -0.3125 0.1875 -0.515625q0.1875 -0.21875 0.546875 -0.21875q0.375 0 0.5625 0.21875q0.203125 0.203125 0.203125 0.515625q0 0.296875 -0.203125 0.5q-0.1875 0.203125 -0.5625 0.203125q-0.359375 0 -0.546875 -0.203125q-0.1875 -0.203125 -0.1875 -0.5zm2.84375 0q0 -0.3125 0.1875 -0.515625q0.1875 -0.21875 0.546875 -0.21875q0.375 0 0.5625 0.21875q0.203125 0.203125 0.203125 0.515625q0 0.296875 -0.203125 0.5q-0.1875 0.203125 -0.5625 0.203125q-0.359375 0 -0.546875 -0.203125q-0.1875 -0.203125 -0.1875 -0.5zm2.703125 0q0 -0.3125 0.1875 -0.515625q0.1875 -0.21875 0.546875 -0.21875q0.375 0 0.5625 0.21875q0.203125 0.203125 0.203125 0.515625q0 0.296875 -0.203125 0.5q-0.1875 0.203125 -0.5625 0.203125q-0.359375 0 -0.546875 -0.203125q-0.1875 -0.203125 -0.1875 -0.5zm3.3688965 0q0 -0.3125 0.1875 -0.515625q0.1875 -0.21875 0.546875 -0.21875q0.375 0 0.5625 0.21875q0.203125 0.203125 0.203125 0.515625q0 0.296875 -0.203125 0.5q-0.1875 0.203125 -0.5625 0.203125q-0.359375 0 -0.546875 -0.203125q-0.1875 -0.203125 -0.1875 -0.5zm2.84375 0q0 -0.3125 0.1875 -0.515625q0.1875 -0.21875 0.546875 -0.21875q0.375 0 0.5625 0.21875q0.203125 0.203125 0.203125 0.515625q0 0.296875 -0.203125 0.5q-0.1875 0.203125 -0.5625 0.203125q-0.359375 0 -0.546875 -0.203125q-0.1875 -0.203125 -0.1875 -0.5zm2.703125 0q0 -0.3125 0.1875 -0.515625q0.1875 -0.21875 0.546875 -0.21875q0.375 0 0.5625 0.21875q0.203125 0.203125 0.203125 0.515625q0 0.296875 -0.203125 0.5q-0.1875 0.203125 -0.5625 0.203125q-0.359375 0 -0.546875 -0.203125q-0.1875 -0.203125 -0.1875 -0.5z" fill-rule="nonzero"/><path fill="#000000" fill-opacity="0.0" d="m848.7609 413.7335l85.543335 0l0 43.55905l-85.543335 0z" fill-rule="evenodd"/><path stroke="#000000" stroke-width="1.0" stroke-linejoin="round" stroke-linecap="butt" stroke-dasharray="4.0,3.0" d="m848.7609 413.7335l85.543335 0l0 43.55905l-85.543335 0z" fill-rule="evenodd"/><path fill="#000000" d="m879.1277 439.68802q0 -0.3125 0.1875 -0.515625q0.1875 -0.21875 0.546875 -0.21875q0.375 0 0.5625 0.21875q0.203125 0.203125 0.203125 0.515625q0 0.296875 -0.203125 0.5q-0.1875 0.203125 -0.5625 0.203125q-0.359375 0 -0.546875 -0.203125q-0.1875 -0.203125 -0.1875 -0.5zm2.84375 0q0 -0.3125 0.1875 -0.515625q0.1875 -0.21875 0.546875 -0.21875q0.375 0 0.5625 0.21875q0.203125 0.203125 0.203125 0.515625q0 0.296875 -0.203125 0.5q-0.1875 0.203125 -0.5625 0.203125q-0.359375 0 -0.546875 -0.203125q-0.1875 -0.203125 -0.1875 -0.5zm2.703125 0q0 -0.3125 0.1875 -0.515625q0.1875 -0.21875 0.546875 -0.21875q0.375 0 0.5625 0.21875q0.203125 0.203125 0.203125 0.515625q0 0.296875 -0.203125 0.5q-0.1875 0.203125 -0.5625 0.203125q-0.359375 0 -0.546875 -0.203125q-0.1875 -0.203125 -0.1875 -0.5zm3.3688965 0q0 -0.3125 0.1875 -0.515625q0.1875 -0.21875 0.546875 -0.21875q0.375 0 0.5625 0.21875q0.203125 0.203125 0.203125 0.515625q0 0.296875 -0.203125 0.5q-0.1875 0.203125 -0.5625 0.203125q-0.359375 0 -0.546875 -0.203125q-0.1875 -0.203125 -0.1875 -0.5zm2.84375 0q0 -0.3125 0.1875 -0.515625q0.1875 -0.21875 0.546875 -0.21875q0.375 0 0.5625 0.21875q0.203125 0.203125 0.203125 0.515625q0 0.296875 -0.203125 0.5q-0.1875 0.203125 -0.5625 0.203125q-0.359375 0 -0.546875 -0.203125q-0.1875 -0.203125 -0.1875 -0.5zm2.703125 0q0 -0.3125 0.1875 -0.515625q0.1875 -0.21875 0.546875 -0.21875q0.375 0 0.5625 0.21875q0.203125 0.203125 0.203125 0.515625q0 0.296875 -0.203125 0.5q-0.1875 0.203125 -0.5625 0.203125q-0.359375 0 -0.546875 -0.203125q-0.1875 -0.203125 -0.1875 -0.5zm3.3688965 0q0 -0.3125 0.1875 -0.515625q0.1875 -0.21875 0.546875 -0.21875q0.375 0 0.5625 0.21875q0.203125 0.203125 0.203125 0.515625q0 0.296875 -0.203125 0.5q-0.1875 0.203125 -0.5625 0.203125q-0.359375 0 -0.546875 -0.203125q-0.1875 -0.203125 -0.1875 -0.5zm2.84375 0q0 -0.3125 0.1875 -0.515625q0.1875 -0.21875 0.546875 -0.21875q0.375 0 0.5625 0.21875q0.203125 0.203125 0.203125 0.515625q0 0.296875 -0.203125 0.5q-0.1875 0.203125 -0.5625 0.203125q-0.359375 0 -0.546875 -0.203125q-0.1875 -0.203125 -0.1875 -0.5zm2.703125 0q0 -0.3125 0.1875 -0.515625q0.1875 -0.21875 0.546875 -0.21875q0.375 0 0.5625 0.21875q0.203125 0.203125 0.203125 0.515625q0 0.296875 -0.203125 0.5q-0.1875 0.203125 -0.5625 0.203125q-0.359375 0 -0.546875 -0.203125q-0.1875 -0.203125 -0.1875 -0.5z" fill-rule="nonzero"/><path fill="#000000" fill-opacity="0.0" d="m735.6424 326.85266l0 43.433075l53.858276 0l0 43.433075" fill-rule="evenodd"/><path stroke="#000000" stroke-width="1.0" stroke-linejoin="round" stroke-linecap="butt" stroke-dasharray="4.0,3.0" d="m735.6424 330.64267l0 39.643036l53.858276 0l0 39.643097" fill-rule="evenodd"/><path stroke="#000000" stroke-width="1.0" stroke-linecap="butt" d="m733.9974 330.64264l0 -3.289978l3.290039 0l0 3.289978l-3.290039 0z" fill-rule="nonzero"/><path stroke="#000000" stroke-width="1.0" stroke-linecap="butt" d="m791.1456 409.9288l0 3.289978l-3.289978 0l0 -3.289978l3.289978 0z" fill-rule="nonzero"/><path fill="#000000" fill-opacity="0.0" d="m735.6424 326.85266l0 43.433075l155.90552 0l0 43.433075" fill-rule="evenodd"/><path stroke="#000000" stroke-width="1.0" stroke-linejoin="round" stroke-linecap="butt" stroke-dasharray="4.0,3.0" d="m735.6424 330.64267l0 39.643036l155.90552 0l0 39.643097" fill-rule="evenodd"/><path stroke="#000000" stroke-width="1.0" stroke-linecap="butt" d="m733.9974 330.64264l0 -3.289978l3.290039 0l0 3.289978l-3.290039 0z" fill-rule="nonzero"/><path stroke="#000000" stroke-width="1.0" stroke-linecap="butt" d="m893.1929 409.9288l0 3.289978l-3.289978 0l0 -3.289978l3.289978 0z" fill-rule="nonzero"/><path fill="#000000" fill-opacity="0.0" d="m166.40608 161.68321l0 -52.692917l243.55907 0" fill-rule="evenodd"/><path stroke="#000000" stroke-width="1.0" stroke-linejoin="round" stroke-linecap="butt" d="m166.40608 157.89322l0 -48.902916l243.55907 0" fill-rule="evenodd"/><path stroke="#000000" stroke-width="1.0" stroke-linecap="butt" d="m168.05109 157.89322l0 3.2899933l-3.2899933 0l0 -3.2899933l3.2899933 0z" fill-rule="nonzero"/><path fill="#000000" fill-opacity="0.0" d="m455.66983 109.09565l317.9213 0l0 52.566933" fill-rule="evenodd"/><path stroke="#000000" stroke-width="1.0" stroke-linejoin="round" stroke-linecap="butt" d="m455.66983 109.09565l317.9213 0l0 48.776924" fill-rule="evenodd"/><path stroke="#000000" stroke-width="1.0" stroke-linecap="butt" d="m775.23615 157.87257l0 3.2900085l-3.290039 0l0 -3.2900085l3.290039 0z" fill-rule="nonzero"/><path fill="#000000" fill-opacity="0.0" d="m667.79584 161.66258l211.59052 0l0 41.66928l-211.59052 0z" fill-rule="evenodd"/><path stroke="#000000" stroke-width="1.0" stroke-linejoin="round" stroke-linecap="butt" stroke-dasharray="4.0,3.0" d="m667.79584 161.66258l211.59052 0l0 41.66928l-211.59052 0z" fill-rule="evenodd"/><path fill="#000000" d="m761.18616 186.67223q0 -0.3125 0.1875 -0.515625q0.1875 -0.21875 0.546875 -0.21875q0.375 0 0.5625 0.21875q0.203125 0.203125 0.203125 0.515625q0 0.296875 -0.203125 0.5q-0.1875 0.203125 -0.5625 0.203125q-0.359375 0 -0.546875 -0.203125q-0.1875 -0.203125 -0.1875 -0.5zm2.84375 0q0 -0.3125 0.1875 -0.515625q0.1875 -0.21875 0.546875 -0.21875q0.375 0 0.5625 0.21875q0.203125 0.203125 0.203125 0.515625q0 0.296875 -0.203125 0.5q-0.1875 0.203125 -0.5625 0.203125q-0.359375 0 -0.546875 -0.203125q-0.1875 -0.203125 -0.1875 -0.5zm2.703125 0q0 -0.3125 0.1875 -0.515625q0.1875 -0.21875 0.546875 -0.21875q0.375 0 0.5625 0.21875q0.203125 0.203125 0.203125 0.515625q0 0.296875 -0.203125 0.5q-0.1875 0.203125 -0.5625 0.203125q-0.359375 0 -0.546875 -0.203125q-0.1875 -0.203125 -0.1875 -0.5zm3.3688965 0q0 -0.3125 0.1875 -0.515625q0.1875 -0.21875 0.546875 -0.21875q0.375 0 0.5625 0.21875q0.203125 0.203125 0.203125 0.515625q0 0.296875 -0.203125 0.5q-0.1875 0.203125 -0.5625 0.203125q-0.359375 0 -0.546875 -0.203125q-0.1875 -0.203125 -0.1875 -0.5zm2.84375 0q0 -0.3125 0.1875 -0.515625q0.1875 -0.21875 0.546875 -0.21875q0.375 0 0.5625 0.21875q0.203125 0.203125 0.203125 0.515625q0 0.296875 -0.203125 0.5q-0.1875 0.203125 -0.5625 0.203125q-0.359375 0 -0.546875 -0.203125q-0.1875 -0.203125 -0.1875 -0.5zm2.703125 0q0 -0.3125 0.1875 -0.515625q0.1875 -0.21875 0.546875 -0.21875q0.375 0 0.5625 0.21875q0.203125 0.203125 0.203125 0.515625q0 0.296875 -0.203125 0.5q-0.1875 0.203125 -0.5625 0.203125q-0.359375 0 -0.546875 -0.203125q-0.1875 -0.203125 -0.1875 -0.5zm3.3689575 0q0 -0.3125 0.1875 -0.515625q0.1875 -0.21875 0.546875 -0.21875q0.375 0 0.5625 0.21875q0.203125 0.203125 0.203125 0.515625q0 0.296875 -0.203125 0.5q-0.1875 0.203125 -0.5625 0.203125q-0.359375 0 -0.546875 -0.203125q-0.1875 -0.203125 -0.1875 -0.5zm2.84375 0q0 -0.3125 0.1875 -0.515625q0.1875 -0.21875 0.546875 -0.21875q0.375 0 0.5625 0.21875q0.203125 0.203125 0.203125 0.515625q0 0.296875 -0.203125 0.5q-0.1875 0.203125 -0.5625 0.203125q-0.359375 0 -0.546875 -0.203125q-0.1875 -0.203125 -0.1875 -0.5zm2.703125 0q0 -0.3125 0.1875 -0.515625q0.1875 -0.21875 0.546875 -0.21875q0.375 0 0.5625 0.21875q0.203125 0.203125 0.203125 0.515625q0 0.296875 -0.203125 0.5q-0.1875 0.203125 -0.5625 0.203125q-0.359375 0 -0.546875 -0.203125q-0.1875 -0.203125 -0.1875 -0.5z" fill-rule="nonzero"/><path fill="#000000" fill-opacity="0.0" d="m371.01486 361.4181l76.31494 0l0 63.02362l-76.31494 0z" fill-rule="evenodd"/><path fill="#ff0000" d="m380.1711 404.9781l9.96875 -13.4375l-8.78125 -12.328125l4.046875 0l4.6875 6.609375q1.453125 2.046875 2.0625 3.15625q0.875 -1.40625 2.046875 -2.9375l5.1875 -6.828125l3.703125 0l-9.046875 12.140625l9.75 13.625l-4.21875 0l-6.484375 -9.1875q-0.546875 -0.796875 -1.125 -1.734375q-0.859375 1.40625 -1.234375 1.9375l-6.46875 8.984375l-4.09375 0z" fill-rule="nonzero"/><path fill="#000000" fill-opacity="0.0" d="m314.24146 301.95538l112.81891 0l0 37.165344l-112.81891 0z" fill-rule="evenodd"/><path fill="#000000" d="m324.44458 325.03537l0 -10.484375l7.078125 0l0 1.234375l-5.6875 0l0 3.25l4.921875 0l0 1.234375l-4.921875 0l0 4.765625l-1.390625 0zm15.124512 -1.234375l0 1.234375l-6.9375 0q-0.015625 -0.46875 0.15625 -0.890625q0.265625 -0.71875 0.84375 -1.40625q0.59375 -0.6875 1.6875 -1.578125q1.71875 -1.40625 2.3125 -2.21875q0.609375 -0.828125 0.609375 -1.5625q0 -0.765625 -0.5625 -1.28125q-0.546875 -0.53125 -1.421875 -0.53125q-0.921875 0 -1.484375 0.5625q-0.5625 0.5625 -0.5625 1.546875l-1.328125 -0.140625q0.140625 -1.484375 1.015625 -2.25q0.890625 -0.78125 2.390625 -0.78125q1.515625 0 2.390625 0.84375q0.875 0.828125 0.875 2.0625q0 0.640625 -0.265625 1.25q-0.25 0.59375 -0.84375 1.265625q-0.59375 0.671875 -1.984375 1.859375q-1.15625 0.96875 -1.484375 1.3125q-0.328125 0.34375 -0.546875 0.703125l5.140625 0zm5.9262085 1.234375l0 -10.484375l1.390625 0l0 9.25l5.15625 0l0 1.234375l-6.546875 0zm13.244843 -2.453125l1.328125 0.171875q-0.3125 1.171875 -1.171875 1.8125q-0.84375 0.640625 -2.171875 0.640625q-1.671875 0 -2.65625 -1.015625q-0.96875 -1.03125 -0.96875 -2.890625q0 -1.921875 0.984375 -2.96875q1.0 -1.0625 2.578125 -1.0625q1.515625 0 2.484375 1.03125q0.96875 1.03125 0.96875 2.921875q0 0.109375 -0.015625 0.34375l-5.65625 0q0.0625 1.25 0.703125 1.921875q0.640625 0.65625 1.59375 0.65625q0.703125 0 1.203125 -0.359375q0.5 -0.375 0.796875 -1.203125zm-4.234375 -2.078125l4.25 0q-0.09375 -0.953125 -0.484375 -1.4375q-0.625 -0.75 -1.609375 -0.75q-0.875 0 -1.484375 0.59375q-0.609375 0.59375 -0.671875 1.59375zm9.291748 4.53125l-2.890625 -7.59375l1.359375 0l1.625 4.546875q0.265625 0.734375 0.5 1.53125q0.15625 -0.609375 0.46875 -1.453125l1.6875 -4.625l1.328125 0l-2.875 7.59375l-1.203125 0zm10.421875 -2.453125l1.328125 0.171875q-0.3125 1.171875 -1.171875 1.8125q-0.84375 0.640625 -2.171875 0.640625q-1.671875 0 -2.65625 -1.015625q-0.96875 -1.03125 -0.96875 -2.890625q0 -1.921875 0.984375 -2.96875q1.0 -1.0625 2.578125 -1.0625q1.515625 0 2.484375 1.03125q0.96875 1.03125 0.96875 2.921875q0 0.109375 -0.015625 0.34375l-5.65625 0q0.0625 1.25 0.703125 1.921875q0.640625 0.65625 1.59375 0.65625q0.703125 0 1.203125 -0.359375q0.5 -0.375 0.796875 -1.203125zm-4.234375 -2.078125l4.25 0q-0.09375 -0.953125 -0.484375 -1.4375q-0.625 -0.75 -1.609375 -0.75q-0.875 0 -1.484375 0.59375q-0.609375 0.59375 -0.671875 1.59375zm7.1510925 4.53125l0 -10.484375l1.28125 0l0 10.484375l-1.28125 0z" fill-rule="nonzero"/><path fill="#000000" fill-opacity="0.0" d="m432.1181 431.6404l112.81891 0l0 37.165375l-112.81891 0z" fill-rule="evenodd"/><path fill="#000000" d="m442.2431 454.72043l0 -10.484375l3.96875 0q1.046875 0 1.59375 0.09375q0.765625 0.125 1.28125 0.484375q0.53125 0.359375 0.84375 1.015625q0.328125 0.65625 0.328125 1.4375q0 1.328125 -0.859375 2.265625q-0.84375 0.921875 -3.078125 0.921875l-2.6875 0l0 4.265625l-1.390625 0zm1.390625 -5.5l2.71875 0q1.34375 0 1.90625 -0.5q0.5625 -0.5 0.5625 -1.40625q0 -0.671875 -0.328125 -1.140625q-0.328125 -0.46875 -0.875 -0.609375q-0.359375 -0.09375 -1.296875 -0.09375l-2.6875 0l0 3.75zm12.713104 5.5l-1.28125 0l0 -8.203125q-0.46875 0.4375 -1.21875 0.890625q-0.75 0.4375 -1.359375 0.65625l0 -1.25q1.078125 -0.5 1.890625 -1.21875q0.8125 -0.734375 1.140625 -1.40625l0.828125 0l0 10.53125zm7.8480835 0l0 -10.484375l1.390625 0l0 9.25l5.15625 0l0 1.234375l-6.546875 0zm13.244873 -2.453125l1.328125 0.171875q-0.3125 1.171875 -1.171875 1.8125q-0.84375 0.640625 -2.171875 0.640625q-1.671875 0 -2.65625 -1.015625q-0.96875 -1.03125 -0.96875 -2.890625q0 -1.921875 0.984375 -2.96875q1.0 -1.0625 2.578125 -1.0625q1.515625 0 2.484375 1.03125q0.96875 1.03125 0.96875 2.921875q0 0.109375 -0.015625 0.34375l-5.65625 0q0.0625 1.25 0.703125 1.921875q0.640625 0.65625 1.59375 0.65625q0.703125 0 1.203125 -0.359375q0.5 -0.375 0.796875 -1.203125zm-4.234375 -2.078125l4.25 0q-0.09375 -0.953125 -0.484375 -1.4375q-0.625 -0.75 -1.609375 -0.75q-0.875 0 -1.484375 0.59375q-0.609375 0.59375 -0.671875 1.59375zm9.291718 4.53125l-2.890625 -7.59375l1.359375 0l1.625 4.546875q0.265625 0.734375 0.5 1.53125q0.15625 -0.609375 0.46875 -1.453125l1.6875 -4.625l1.328125 0l-2.875 7.59375l-1.203125 0zm10.421875 -2.453125l1.328125 0.171875q-0.3125 1.171875 -1.171875 1.8125q-0.84375 0.640625 -2.171875 0.640625q-1.671875 0 -2.65625 -1.015625q-0.96875 -1.03125 -0.96875 -2.890625q0 -1.921875 0.984375 -2.96875q1.0 -1.0625 2.578125 -1.0625q1.515625 0 2.484375 1.03125q0.96875 1.03125 0.96875 2.921875q0 0.109375 -0.015625 0.34375l-5.65625 0q0.0625 1.25 0.703125 1.921875q0.640625 0.65625 1.59375 0.65625q0.703125 0 1.203125 -0.359375q0.5 -0.375 0.796875 -1.203125zm-4.234375 -2.078125l4.25 0q-0.09375 -0.953125 -0.484375 -1.4375q-0.625 -0.75 -1.609375 -0.75q-0.875 0 -1.484375 0.59375q-0.609375 0.59375 -0.671875 1.59375zm7.151123 4.53125l0 -10.484375l1.28125 0l0 10.484375l-1.28125 0z" fill-rule="nonzero"/><path fill="#000000" fill-opacity="0.0" d="m558.22046 177.39896l112.81891 0l0 37.165344l-112.81891 0z" fill-rule="evenodd"/><path fill="#000000" d="m568.4236 200.47894l0 -10.484375l7.078125 0l0 1.234375l-5.6875 0l0 3.25l4.921875 0l0 1.234375l-4.921875 0l0 4.765625l-1.390625 0zm13.202637 0l-1.28125 0l0 -8.203125q-0.46875 0.4375 -1.21875 0.890625q-0.75 0.4375 -1.359375 0.65625l0 -1.25q1.078125 -0.5 1.890625 -1.21875q0.8125 -0.734375 1.140625 -1.40625l0.828125 0l0 10.53125zm7.8480835 0l0 -10.484375l1.390625 0l0 9.25l5.15625 0l0 1.234375l-6.546875 0zm13.244873 -2.453125l1.328125 0.171875q-0.3125 1.171875 -1.171875 1.8125q-0.84375 0.640625 -2.171875 0.640625q-1.671875 0 -2.65625 -1.015625q-0.96875 -1.03125 -0.96875 -2.890625q0 -1.921875 0.984375 -2.96875q1.0 -1.0625 2.578125 -1.0625q1.515625 0 2.484375 1.03125q0.96875 1.03125 0.96875 2.921875q0 0.109375 -0.015625 0.34375l-5.65625 0q0.0625 1.25 0.703125 1.921875q0.640625 0.65625 1.59375 0.65625q0.703125 0 1.203125 -0.359375q0.5 -0.375 0.796875 -1.203125zm-4.234375 -2.078125l4.25 0q-0.09375 -0.953125 -0.484375 -1.4375q-0.625 -0.75 -1.609375 -0.75q-0.875 0 -1.484375 0.59375q-0.609375 0.59375 -0.671875 1.59375zm9.291687 4.53125l-2.890625 -7.59375l1.359375 0l1.625 4.546875q0.265625 0.734375 0.5 1.53125q0.15625 -0.609375 0.46875 -1.453125l1.6875 -4.625l1.328125 0l-2.875 7.59375l-1.203125 0zm10.421875 -2.453125l1.328125 0.171875q-0.3125 1.171875 -1.171875 1.8125q-0.84375 0.640625 -2.171875 0.640625q-1.671875 0 -2.65625 -1.015625q-0.96875 -1.03125 -0.96875 -2.890625q0 -1.921875 0.984375 -2.96875q1.0 -1.0625 2.578125 -1.0625q1.515625 0 2.484375 1.03125q0.96875 1.03125 0.96875 2.921875q0 0.109375 -0.015625 0.34375l-5.65625 0q0.0625 1.25 0.703125 1.921875q0.640625 0.65625 1.59375 0.65625q0.703125 0 1.203125 -0.359375q0.5 -0.375 0.796875 -1.203125zm-4.234375 -2.078125l4.25 0q-0.09375 -0.953125 -0.484375 -1.4375q-0.625 -0.75 -1.609375 -0.75q-0.875 0 -1.484375 0.59375q-0.609375 0.59375 -0.671875 1.59375zm7.151123 4.53125l0 -10.484375l1.28125 0l0 10.484375l-1.28125 0z" fill-rule="nonzero"/></g></svg>