<?xml version="1.0" encoding="UTF-8" standalone="no"?>
<!-- Created with Inkscape (http://www.inkscape.org/) -->

<svg
   version="1.1"
   width="220.64185"
   height="180.11284"
   id="svg3441"
   sodipodi:docname="Aalto.svg"
   inkscape:version="1.2.1 (9c6d41e, 2022-07-14)"
   xmlns:inkscape="http://www.inkscape.org/namespaces/inkscape"
   xmlns:sodipodi="http://sodipodi.sourceforge.net/DTD/sodipodi-0.dtd"
   xmlns="http://www.w3.org/2000/svg"
   xmlns:svg="http://www.w3.org/2000/svg">
  <sodipodi:namedview
     id="namedview87"
     pagecolor="#ffffff"
     bordercolor="#000000"
     borderopacity="0.25"
     inkscape:showpageshadow="2"
     inkscape:pageopacity="0.0"
     inkscape:pagecheckerboard="0"
     inkscape:deskcolor="#d1d1d1"
     showgrid="false"
     inkscape:zoom="3.6388287"
     inkscape:cx="110.47511"
     inkscape:cy="91.375558"
     inkscape:window-width="1390"
     inkscape:window-height="1205"
     inkscape:window-x="0"
     inkscape:window-y="25"
     inkscape:window-maximized="0"
     inkscape:current-layer="layer1" />
  <defs
     id="defs3443" />
  <g
     transform="translate(-592.90544,-426.61027)"
     id="layer1">
    <path
       d="M 722.44022,553.45702 677.52359,426.61027 h -38.2722 l -44.91663,126.84675 h 31.8795 l 7.76583,-22.44306 h 48.8148 l 7.7658,22.44306 z m -48.41049,-47.75823 h -31.28448 l 15.64224,-45.19509 z"
       id="path2862"
       style="fill:#000000;fill-opacity:1;fill-rule:nonzero;stroke:none" />
    <path
       d="m 734.36204,553.45855 h 28.75563 v -28.75566 h -28.75563 z"
       id="path2864"
       style="fill:#ffcc00;fill-opacity:1;fill-rule:nonzero;stroke:none" />
    <path
       d="m 764.03579,470.55919 v -43.94778 h -30.5331 v 43.94778 l 6.22869,43.94781 h 16.87425 z"
       id="path2868"
       style="fill:#ffcc00;fill-opacity:1;fill-rule:nonzero;stroke:none" />
    <path
       d="m 605.83001,598.0159 1.09275,4.06584 h 5.1564 l -6.43092,-20.23617 h -5.67357 l -7.06923,20.23617 h 4.94652 l 1.27449,-4.06584 z m -1.00185,-3.73044 h -4.58085 l 2.45811,-7.91964 z m 13.13664,-2.24607 c 0.1818,-1.18362 1.03215,-1.7592 2.57928,-1.7592 1.42596,0 2.27421,0.51498 2.27421,1.36539 0,0.57558 -0.33324,0.84822 -1.30482,0.99969 l -2.33475,0.39597 c -4.09614,0.66648 -5.82507,2.09244 -5.82507,4.82319 0,2.76105 2.15304,4.61112 5.3685,4.61112 1.76136,0 2.76105,-0.36351 4.21731,-1.54713 0.1515,0.54528 0.1515,0.63618 0.33321,1.15332 h 4.39908 c -0.48468,-0.72921 -0.54528,-0.94125 -0.54528,-2.51871 v -6.73383 c 0,-2.18547 -0.39381,-3.33882 -1.45626,-4.27791 -1.15332,-1.03215 -2.85192,-1.54716 -5.06553,-1.54716 -4.12644,0 -6.21888,1.63803 -6.49368,5.03526 z m 4.97466,5.31006 c -0.69675,1.24203 -1.7289,1.85007 -3.15489,1.85007 -1.33509,0 -2.18331,-0.57774 -2.18331,-1.54713 0,-0.88068 0.66648,-1.39569 2.21361,-1.7592 l 1.54716,-0.3354 c 0.72921,-0.1515 1.12302,-0.2727 1.57743,-0.45441 z m 12.16506,-15.50388 h -4.30818 v 20.23617 h 4.30818 z m 11.68038,5.76444 h -2.63988 v -4.64142 h -4.30818 v 4.64142 h -2.06214 v 3.03372 h 2.06214 v 6.67542 c 0,2.27418 0.1839,3.06399 0.85038,3.79104 0.63618,0.69891 1.57743,0.97155 3.4578,0.97155 h 2.63988 v -3.24576 h -1.54713 c -1.00185,0 -1.09275,-0.1839 -1.09275,-2.48841 v -5.70384 h 2.63988 z m 9.67668,-0.57558 c -4.55055,0 -7.76601,3.21546 -7.76601,7.70541 0,4.55055 3.21546,7.73571 7.76601,7.73571 4.52025,0 7.79847,-3.18516 7.79847,-7.61451 0,-4.64144 -3.15489,-7.8266 -7.79847,-7.8266 m 0,3.42753 c 2.21577,0 3.45996,1.54713 3.45996,4.36878 0,2.63988 -1.27449,4.21731 -3.45996,4.21731 -2.18331,0 -3.4275,-1.57743 -3.4275,-4.30821 0,-2.70045 1.24419,-4.27788 3.4275,-4.27788 m 29.76138,-8.61639 v 13.37897 c 0,1.3654 -0.2121,1.97128 -0.81792,2.54901 -0.66864,0.57558 -1.63803,0.90879 -2.76105,0.90879 -1.09275,0 -2.0643,-0.33321 -2.73078,-0.90879 -0.60585,-0.57773 -0.82008,-1.18362 -0.82008,-2.54901 v -13.37897 h -4.55055 v 13.68192 c 0,2.549 0.66864,4.15674 2.18547,5.27976 1.54716,1.12302 3.60927,1.72889 5.91594,1.72889 2.33478,0 4.39908,-0.60587 5.94621,-1.72889 1.51686,-1.12302 2.18331,-2.73075 2.18331,-5.27976 v -13.68192 z m 8.67699,5.5827 v 14.65347 h 4.30818 v -8.22258 c 0,-1.27449 0.1515,-1.88037 0.63618,-2.42565 0.45441,-0.51714 1.12302,-0.78978 1.85007,-0.78978 0.75951,0 1.39566,0.30291 1.7592,0.85038 0.3657,0.54528 0.45657,1.12086 0.45657,2.60742 v 7.98021 h 4.30818 v -9.49707 c 0,-3.4578 -1.9431,-5.58054 -5.12829,-5.58054 -1.51683,0 -2.39535,0.39384 -4.00308,1.8501 v -1.42596 z m 21.72057,0 h -4.30821 v 14.65347 h 4.30821 z m 0,-5.5827 h -4.30821 v 3.54867 h 4.30821 z m 12.07419,20.23617 4.97466,-14.65347 h -4.61112 l -1.48656,5.61297 c -0.2121,0.87852 -0.57558,2.54685 -0.90882,4.21515 -0.48687,-1.7592 -0.85038,-3.18516 -1.15332,-4.21515 l -1.63803,-5.61297 h -4.52025 l 5.2473,14.65347 z m 21.32676,-6.06738 c 0,-1.94313 -0.2121,-3.24792 -0.66645,-4.45968 -1.06245,-2.91252 -3.42753,-4.52025 -6.58455,-4.52025 -4.39692,0 -7.49337,3.18516 -7.49337,7.73571 0,4.61115 3.00339,7.70541 7.5258,7.70541 3.48813,0 6.21888,-1.81977 7.0368,-4.67172 h -4.36878 c -0.60588,0.90882 -1.39566,1.30481 -2.54682,1.30481 -1.85226,0 -3.03372,-1.09275 -3.30852,-3.09429 h 10.40589 z m -10.37559,-3.03369 c 0.3354,-1.69863 1.42596,-2.67018 3.09429,-2.67018 1.67046,0 2.67015,0.97155 2.85192,2.67018 z m 13.46988,-5.5524 v 14.65347 h 4.30818 v -4.12644 c 0,-2.85192 0.1515,-4.21731 0.57774,-5.18886 0.48471,-1.09059 1.69863,-1.7592 3.18516,-1.7592 0.30294,0 0.57558,0.0303 1.09059,0.0909 v -4.06368 c -3.12459,-0.0303 -4.21515,0.63618 -5.06553,3.00342 l 0.1212,-2.60958 h -4.21731 z m 24.17868,4.39905 c -0.36351,-3.09426 -2.67018,-4.79289 -6.43092,-4.79289 -3.88407,0 -6.24915,1.78949 -6.24915,4.73231 0,2.33478 1.24419,3.51841 4.45965,4.21731 l 2.67018,0.60588 c 1.15116,0.2727 1.63803,0.66645 1.63803,1.33509 0,0.84822 -0.91098,1.42596 -2.24607,1.42596 -1.7289,0 -2.63988,-0.66863 -2.88222,-2.03183 h -4.03338 c 0.2424,3.24576 2.75889,5.15639 6.82473,5.15639 4.06584,0 6.58239,-1.94093 6.58239,-5.03522 0,-1.18363 -0.39384,-2.27634 -1.09059,-2.94282 -0.63831,-0.66861 -1.54713,-1.06245 -3.33663,-1.42596 l -2.70045,-0.57774 c -1.36539,-0.30294 -1.7895,-0.57558 -1.7895,-1.12086 0,-0.72921 0.81792,-1.21392 2.06214,-1.21392 1.42596,0 2.30448,0.57557 2.48841,1.6683 z m 7.40247,-4.39905 h -4.30818 v 14.65347 h 4.30818 z m 0,-5.5827 h -4.30818 v 3.54867 h 4.30818 z m 11.98332,5.76444 h -2.63988 v -4.64142 h -4.30818 v 4.64142 h -2.06214 v 3.03372 h 2.06214 v 6.67542 c 0,2.27418 0.1818,3.06399 0.85038,3.79104 0.63618,0.69891 1.57743,0.97155 3.4578,0.97155 h 2.63988 v -3.24576 h -1.54713 c -1.00185,0 -1.09275,-0.1839 -1.09275,-2.48842 v -5.70384 h 2.63988 v -3.03372 z m 12.40743,-0.1818 -1.91067,6.61266 c -0.33321,1.30479 -0.57558,2.30664 -0.75951,3.27822 l -0.1818,-0.57774 c -0.33324,-1.21392 -0.33324,-1.24422 -0.75735,-2.60958 l -2.15517,-6.70356 h -4.61115 l 4.82319,12.31653 c 0.51717,1.27449 0.54744,1.36539 0.54744,1.88037 0,1.27452 -0.69891,1.85226 -2.21574,1.85226 h -1.27236 v 3.24573 h 2.51655 c 3.27606,0 3.97497,-0.60804 5.34036,-4.52025 l 5.09583,-14.77464 h -4.45968 z"
       id="path3119"
       style="fill:#000000;fill-opacity:1;fill-rule:nonzero;stroke:none" />
  </g>
</svg>
