<?xml version="1.0" encoding="utf-8"?>
<!-- Generator: Adobe Illustrator 16.0.0, SVG Export Plug-In . SVG Version: 6.00 Build 0)  -->
<!DOCTYPE svg PUBLIC "-//W3C//DTD SVG 1.1//EN" "http://www.w3.org/Graphics/SVG/1.1/DTD/svg11.dtd">
<svg version="1.1" id="Layer_1" xmlns="http://www.w3.org/2000/svg" xmlns:xlink="http://www.w3.org/1999/xlink" x="0px" y="0px"
	 width="441.172px" height="222.895px" viewBox="0 0 441.172 222.895" enable-background="new 0 0 441.172 222.895"
	 xml:space="preserve">
<path fill="#005CB9" d="M308.621,0c5.064,0,9.303,3.995,9.303,9.226c0,5.332-4.238,9.326-9.303,9.326
	c-5.082,0-9.344-3.994-9.344-9.326C299.277,3.995,303.539,0,308.621,0z M308.621,17.188c4.297,0,7.619-3.425,7.619-7.962
	c0-4.438-3.322-7.862-7.619-7.862c-4.334,0-7.672,3.423-7.672,7.862C300.949,13.763,304.287,17.188,308.621,17.188z M305.004,3.847
	h4.188c2.584,0,3.793,1.011,3.793,3.095c0,1.961-1.23,2.78-2.846,2.955l3.102,4.788h-1.814l-2.949-4.667h-1.785v4.667h-1.688V3.847z
	 M306.691,8.656h1.754c1.486,0,2.854-0.079,2.854-1.787c0-1.443-1.236-1.664-2.379-1.664h-2.229V8.656z"/>
<g>
	<g>
		<rect x="146.508" y="0.776" fill="#005CB9" width="147.005" height="147.007"/>
		<path fill="#005CB9" d="M308.621,0c5.064,0,9.303,3.995,9.303,9.226c0,5.332-4.238,9.326-9.303,9.326
			c-5.082,0-9.344-3.994-9.344-9.326C299.277,3.995,303.539,0,308.621,0z M308.621,17.188c4.297,0,7.619-3.425,7.619-7.962
			c0-4.438-3.322-7.862-7.619-7.862c-4.334,0-7.672,3.423-7.672,7.862C300.949,13.763,304.287,17.188,308.621,17.188z
			 M305.004,3.847h4.188c2.584,0,3.793,1.011,3.793,3.095c0,1.961-1.23,2.78-2.846,2.955l3.102,4.788h-1.814l-2.949-4.667h-1.785
			v4.667h-1.688V3.847z M306.691,8.656h1.754c1.486,0,2.854-0.079,2.854-1.787c0-1.443-1.236-1.664-2.379-1.664h-2.229V8.656z"/>
		<path fill="#FFFFFF" d="M231.387,117.676h-54.285c-6.974,0-11.438,4.846-11.438,10.831c0,5.978,4.465,10.825,11.438,10.825h54.285
			c6.971,0,11.014-4.848,11.014-10.825C242.4,122.521,238.357,117.676,231.387,117.676z M230.994,132.062h-53.923
			c-2.071,0-3.75-1.595-3.75-3.555c0-1.972,1.679-3.564,3.75-3.564h53.923c2.066,0,3.752,1.593,3.752,3.564
			C234.746,130.467,233.061,132.062,230.994,132.062z"/>
		<path fill="#FFFFFF" d="M257.014,38.703c-4.809,0-8.693,3.892-8.693,8.694c0,1.696,0.514,3.272,1.35,4.611l-17.48,18.429
			l-23.462,39.766c-0.938,1.324-0.665,3.142,0.613,4.048c1.284,0.897,3.087,0.55,4.021-0.775l40.885-57.88
			c0.871,0.294,1.791,0.496,2.768,0.496c4.793,0,8.703-3.893,8.703-8.695C265.717,42.594,261.807,38.703,257.014,38.703z
			 M257.014,50.77c-1.861,0-3.375-1.51-3.375-3.373c0-1.868,1.514-3.369,3.375-3.369c1.857,0,3.369,1.501,3.369,3.369
			C260.383,49.26,258.871,50.77,257.014,50.77z"/>
		<path fill="#FFFFFF" d="M223.045,62.384c-1.098-1.294-2.932-1.556-4.083-0.573c-1.169,0.973-1.215,2.824-0.111,4.127l7.45,9.102
			l3.23-5.506L223.045,62.384z"/>
		<path fill="#FFFFFF" d="M266.861,111.064l-26.641-30.566l-3.805,5.422l15.445,18.631l-0.072-0.031l-6.041,11.313l7.074,11.648
			c0.725,1.238,1.721,1.631,2.953,0.91l16.816-9.109l3.873-5.223L266.861,111.064z"/>
		<path fill="#FFFFFF" d="M210.907,101.149V90.315H193.73c-1.645,0-2.985-1.342-2.985-2.991V73.665c0-1.653,1.341-2.995,2.985-2.995
			h13.778c2.202-0.035,3.72-1.666,3.72-3.686c0-2.034-1.555-3.689-3.8-3.689H190.75h-0.512H169.52v0.035l0,0l-11.835,11.704v25.343
			v9.576c0,2.18,1.359,4.032,3.539,4.032h23.601h20.851h0.107v-4.189L210.907,101.149z"/>
	</g>
	<g>
		<path d="M41.044,211.375H18.418l-4.001,10.141H0l21.661-49.252h16.142l21.66,49.252H45.044L41.044,211.375z M29.731,182.887
			l-7.726,19.523h15.451L29.731,182.887z"/>
		<path d="M101.396,211.375H78.77l-4.001,10.141H60.352l21.659-49.252h16.143l21.66,49.252h-14.417L101.396,211.375z
			 M90.083,182.887l-7.727,19.523h15.451L90.083,182.887z"/>
		<path d="M125.656,172.264h35.801c13.658,0,15.936,8.348,15.936,13.383c0,6.002-2.415,9.863-8.002,11.865v0.139
			c5.863,0.895,6.76,8.346,6.76,13.174c0,2.414,0.207,8.209,2.552,10.691h-14.624c-1.241-2.275-1.311-4.275-1.311-9.449
			c0-6.898-2.967-8.623-7.104-8.623h-16.625v18.072h-13.382V172.264z M139.038,194.063h17.729c2.966,0,6.415-1.656,6.415-6.277
			c0-4.898-3.863-6.141-7.105-6.141h-17.038V194.063z"/>
		<path d="M219.566,186.543c-0.827-6.414-6.967-7.105-12.348-7.105c-5.518,0-9.105,2.482-9.105,5.795
			c0,2.621,2.208,4.07,5.657,4.621l16.761,2.691c8.967,1.449,15.797,4.828,15.797,13.797c0,9.174-6.209,16.553-25.59,16.553
			c-12.004,0-27.594-1.516-27.731-16.898h15.038c0.139,6.76,6.898,7.934,12.693,7.934c6.277,0,10.551-1.863,10.551-6.141
			c0-3.793-3.032-4.828-8.344-5.654l-12.21-1.865c-8.554-1.311-16.831-3.861-16.831-13.934c0-10.967,8.967-15.451,24.419-15.451
			c10.141,0,25.175,1.725,26.074,15.658H219.566z"/>
		<path d="M242.848,172.264h13.383v39.457h30.008v9.795h-43.391V172.264z"/>
		<path d="M293.238,172.264h46.012v9.381h-32.629v10.211h30.975v8.967h-30.975v11.313h32.904v9.381h-46.287V172.264z"/>
		<path d="M346.188,172.264h44.01v9.381h-30.629v10.762h28.697v9.383h-28.697v19.727h-13.381V172.264z"/>
		<path d="M397.162,172.264h44.01v9.381h-30.627v10.762h28.695v9.383h-28.695v19.727h-13.383V172.264z"/>
	</g>
</g>
</svg>
