<?xml version="1.0" encoding="UTF-8"?>
<svg width="222" height="86" overflow="visible" _ngcontent-ng-c2721310584="" cueDarkMode="" version="1.1" viewBox="0 0 221.54 86.191" xmlns="http://www.w3.org/2000/svg">
 <g fill="none" stroke-miterlimit="10" stroke-width="12">
  <path id="original-path" d="m216.05 56.638s-10.561 24.201-36.192 22.991-22.771-24.751-20.351-37.622 10.451-20.351 16.831-18.041c6.283 2.275 8.03 9.68 2.09 21.891s-21.341 37.567-35.862 33.992c-12.413-3.056-13.281-23.162-13.281-23.162v-26.925 26.925c0 14.471-12.47 23.212-24.672 23.212s-24.672-8.301-24.672-23.212v-26.858l-6e-3 0.105v13.031c0 20.416-16.55 36.966-36.966 36.966s-36.965-16.55-36.965-36.965 16.55-36.966 36.966-36.966c6.91 0 13.377 1.896 18.91 5.196" stroke="transparent" _ngcontent-ng-c2721310584=""/>
  <path d="m185.31 79.5 1.48-0.18 1.46-0.23" stroke="#12202f"/>
  <path d="m186.79 79.32 1.46-0.23 1.45-0.3" stroke="#112635"/>
  <path d="m188.25 79.09 1.45-0.3 1.44-0.36" stroke="#102d3b"/>
  <path d="m189.7 78.79 1.44-0.36 1.42-0.42" stroke="#103441"/>
  <path d="m191.14 78.43 1.42-0.42 1.4-0.49" stroke="#0f3a47"/>
  <path d="m192.56 78.01 1.4-0.49 1.38-0.54" stroke="#0e414d"/>
  <path d="m193.96 77.52 1.38-0.54 1.35-0.61" stroke="#0e4753"/>
  <path d="m195.34 76.98 1.35-0.61 1.33-0.65" stroke="#0d4e59"/>
  <path d="m196.69 76.37 1.33-0.65 1.3-0.72" stroke="#0c545f"/>
  <path d="m198.02 75.72 1.3-0.72 1.27-0.77" stroke="#0c5b65"/>
  <path d="m199.32 75 1.27-0.77 1.23-0.81" stroke="#0b616b"/>
  <path d="m200.59 74.23 1.23-0.81 1.21-0.87" stroke="#0a6871"/>
  <path d="m201.82 73.42 1.21-0.87 1.16-0.91" stroke="#096e77"/>
  <path d="m203.03 72.55 1.16-0.91 1.14-0.96" stroke="#09757d"/>
  <path d="m204.19 71.64 1.14-0.96 1.1-0.99" stroke="#087c83"/>
  <path d="m205.33 70.68 1.1-0.99 1.06-1.03" stroke="#078289"/>
  <path d="m206.43 69.69 1.06-1.03 1.03-1.07" stroke="#07898f"/>
  <path d="m207.49 68.66 1.03-1.07 0.99-1.1" stroke="#068f96"/>
  <path d="m208.52 67.59 0.99-1.1 0.96-1.14" stroke="#05969c"/>
  <path d="m209.51 66.49 0.96-1.14 0.91-1.16" stroke="#059ca2"/>
  <path d="m210.47 65.35 0.91-1.16 0.88-1.19" stroke="#04a3a8"/>
  <path d="m211.38 64.19 0.88-1.19 0.85-1.22" stroke="#03a9ae"/>
  <path d="m212.26 63 0.85-1.22 0.8-1.24" stroke="#03b0b4"/>
  <path d="m213.11 61.78 0.8-1.24 0.76-1.28" stroke="#02b6ba"/>
  <path d="m213.91 60.54 0.76-1.28 0.72-1.29" stroke="#01bdc0"/>
  <path d="m214.67 59.26 0.72-1.29 0.66-1.33" stroke="#01c3c6"/>
  <path d="m182.36 79.79 1.47-0.11 1.48-0.18m-4.43 0.35 1.48-0.06 1.47-0.11m-4.44 0.16 1.49 0.01 1.48-0.06m-4.45-0.01 1.48 0.06 1.49 0.01m-4.44-0.18 1.47 0.11 1.48 0.06m-4.43-0.34 1.48 0.17 1.47 0.11m-4.41-0.52 1.46 0.24 1.48 0.17m-4.39-0.72 1.45 0.31 1.46 0.24m-4.34-0.94 1.43 0.39 1.45 0.31m-4.28-1.18 1.4 0.48 1.43 0.39m-4.2-1.43 1.37 0.56 1.4 0.48m-4.1-1.7 1.33 0.66 1.37 0.56m-3.97-1.98 1.27 0.76 1.33 0.66m-3.8-2.29 1.2 0.87 1.27 0.76m-3.6-2.59 1.13 0.96 1.2 0.87m-3.37-2.88 1.04 1.05 1.13 0.96m-3.12-3.16 0.95 1.15 1.04 1.05m-2.83-3.41 0.84 1.21 0.95 1.15m-2.53-3.65 0.74 1.29 0.84 1.21m-2.23-3.83 0.65 1.33 0.74 1.29m-1.93-4 0.54 1.38 0.65 1.33m-1.65-4.12 0.46 1.41 0.54 1.38m-1.37-4.22 0.37 1.43 0.46 1.41m-1.12-4.3 0.29 1.46 0.37 1.43m-0.88-4.35 0.22 1.46 0.29 1.46m-0.67-4.39 0.16 1.47 0.22 1.46m-0.48-4.41 0.1 1.48 0.16 1.47m-0.31-4.44 0.05 1.49 0.1 1.48m-0.15-4.45v1.48l0.05 1.49m0-4.45-0.05 1.48v1.48m0.13-4.44-0.08 1.48-0.05 1.48m0.26-4.44-0.13 1.48-0.08 1.48m0.36-4.43-0.15 1.47-0.13 1.48m0.46-4.42-0.18 1.47-0.15 1.47m0.54-4.41-0.21 1.47-0.18 1.47m0.63-4.4-0.24 1.46-0.21 1.47m0.7-4.39-0.25 1.46-0.24 1.46m0.76-4.38-0.27 1.46-0.25 1.46m0.83-4.37-0.31 1.45-0.27 1.46m0.95-4.34-0.37 1.43-0.31 1.45m1.1-4.3-0.42 1.42-0.37 1.43m1.28-4.25-0.49 1.4-0.42 1.42m1.46-4.2-0.55 1.38-0.49 1.4m1.65-4.13-0.61 1.35-0.55 1.38m1.84-4.04-0.68 1.31-0.61 1.35m2.05-3.94-0.76 1.28-0.68 1.31m2.27-3.82-0.83 1.23-0.76 1.28m2.5-3.68-0.91 1.17-0.83 1.23m2.73-3.5-0.99 1.1-0.91 1.17m2.99-3.28-1.09 1.01-0.99 1.1m3.25-3.01-1.17 0.9-1.09 1.01m3.53-2.67-1.27 0.76-1.17 0.9m3.8-2.24-1.36 0.58-1.27 0.76m4.07-1.7-1.44 0.36-1.36 0.58m4.28-1.02-1.48 0.08-1.44 0.36m4.38-0.22-1.46-0.22-1.48 0.08m4.33 0.65-1.39-0.51-1.46-0.22m4.14 1.46-1.29-0.73-1.39-0.51m3.82 2.19-1.14-0.95-1.29-0.73m3.37 2.82-0.94-1.14-1.14-0.95m2.79 3.39-0.71-1.3-0.94-1.14m2.13 3.84-0.48-1.4-0.71-1.3m1.47 4.15-0.28-1.45-0.48-1.4m0.86 4.33-0.1-1.48-0.28-1.45m0.34 4.41 0.04-1.48-0.1-1.48m-0.11 4.43 0.17-1.47 0.04-1.48m-0.48 4.41 0.27-1.46 0.17-1.47m-0.79 4.37 0.35-1.44 0.27-1.46m-1.05 4.32 0.43-1.42 0.35-1.44m-1.26 4.26 0.48-1.4 0.43-1.42m-1.44 4.2 0.53-1.38 0.48-1.4m-1.59 4.15 0.58-1.37 0.53-1.38m-1.73 4.09 0.62-1.34 0.58-1.37m-1.86 4.04 0.66-1.33 0.62-1.34m-1.95 3.99 0.67-1.32 0.66-1.33m-2.02 3.97 0.69-1.32 0.67-1.32m-2.06 3.94 0.7-1.3 0.69-1.32m-2.11 3.92 0.72-1.3 0.7-1.3m-2.15 3.89 0.73-1.29 0.72-1.3m-2.2 3.87 0.75-1.28 0.73-1.29m-2.24 3.84 0.76-1.27 0.75-1.28m-2.29 3.81 0.78-1.26 0.76-1.27m-2.33 3.78 0.79-1.25 0.78-1.26m-2.38 3.75 0.81-1.24 0.79-1.25m-2.43 3.72 0.83-1.23 0.81-1.24m-2.48 3.69 0.84-1.22 0.83-1.23m-2.53 3.66 0.86-1.21 0.84-1.22m-2.58 3.62 0.88-1.19 0.86-1.21m-2.64 3.58 0.9-1.18 0.88-1.19m-2.7 3.53 0.92-1.16 0.9-1.18m-2.76 3.49 0.94-1.15 0.92-1.16m-2.82 3.43 0.96-1.12 0.94-1.15m-2.89 3.38 0.99-1.11 0.96-1.12m-2.97 3.31 1.02-1.08 0.99-1.11m-3.05 3.24 1.04-1.05 1.02-1.08m-3.14 3.15 1.08-1.02 1.04-1.05m-3.23 3.05 1.11-0.98 1.08-1.02m-3.33 2.95 1.14-0.95 1.11-0.98m-3.43 2.82 1.18-0.89 1.14-0.95m-3.54 2.68 1.22-0.84 1.18-0.89m-3.67 2.51 1.27-0.78 1.22-0.84m-3.8 2.31 1.31-0.69 1.27-0.78m-3.93 2.07 1.35-0.6 1.31-0.69m-4.06 1.77 1.4-0.48 1.35-0.6m-4.19 1.44 1.44-0.36 1.4-0.48m-4.31 1.04 1.47-0.2 1.44-0.36m-4.39 0.59 1.48-0.03 1.47-0.2m-4.42 0.08 1.47 0.15 1.48-0.03m-4.39-0.45 1.44 0.33 1.47 0.15m-4.31-0.99 1.4 0.51 1.44 0.33m-4.16-1.51 1.32 0.67 1.4 0.51m-3.95-2 1.23 0.82 1.32 0.67m-3.69-2.44 1.14 0.95 1.23 0.82m-3.4-2.83 1.03 1.06 1.14 0.95m-3.11-3.16 0.94 1.15 1.03 1.06m-2.81-3.43 0.84 1.22 0.94 1.15m-2.53-3.65 0.75 1.28 0.84 1.22m-2.26-3.82 0.67 1.32 0.75 1.28m-2.01-3.96 0.59 1.36 0.67 1.32m-1.79-4.06 0.53 1.38 0.59 1.36m-1.59-4.15 0.47 1.41 0.53 1.38m-1.41-4.21 0.41 1.42 0.47 1.41m-1.24-4.27 0.36 1.44 0.41 1.42m-1.08-4.31 0.31 1.45 0.36 1.44m-0.93-4.35 0.26 1.46 0.31 1.45m-0.78-4.38 0.21 1.47 0.26 1.46m-0.64-4.4 0.17 1.47 0.21 1.47m-0.47-4.42 0.09 1.48 0.17 1.47m-0.26-4.43v1.48l0.09 1.48m-0.09-4.44v2.96m0-4.44v2.96m0-4.45v2.97m0-4.45v2.97m0-4.45v2.96m0-4.44v2.96m0-4.44v2.96m0-4.45v2.97m0-4.45v2.97m0-4.45v2.96m0-4.44v2.96m0-4.45v2.97m0-4.45v2.97m0-4.45v2.96m0-4.44v2.96m0-4.44v2.96m0-4.33v2.85m0-1.37v-1.48 1.37m0 1.59v-2.96m0 4.45v-2.97m0 4.45v-2.97m0 4.45v-2.96m0 4.44v-2.96m0 4.45v-2.97m0 4.45v-2.97m0 4.45v-2.96m0 4.44v-2.96m0 4.44v-2.96m0 4.45v-2.97m0 4.45v-2.97m0 4.45v-2.96m0 4.44v-2.96m0 4.45v-2.97m0 4.45v-2.97m0 4.45v-2.96m-0.03 4.44 0.03-1.48v-1.48m-0.16 4.44 0.13-1.48 0.03-1.48m-0.37 4.42 0.21-1.46 0.13-1.48m-0.66 4.39 0.32-1.45 0.21-1.46m-0.93 4.34 0.4-1.43 0.32-1.45m-1.23 4.27 0.51-1.39 0.4-1.43m-1.51 4.18 0.6-1.36 0.51-1.39m-1.8 4.06 0.69-1.31 0.6-1.36m-2.07 3.93 0.78-1.26 0.69-1.31m-2.33 3.77 0.86-1.2 0.78-1.26m-2.59 3.6 0.95-1.14 0.86-1.2m-2.82 3.42 1.01-1.08 0.95-1.14m-3.04 3.24 1.08-1.02 1.01-1.08m-3.24 3.04 1.15-0.94 1.08-1.02m-3.42 2.83 1.19-0.87 1.15-0.94m-3.59 2.61 1.25-0.8 1.19-0.87m-3.74 2.39 1.3-0.72 1.25-0.8m-3.88 2.17 1.33-0.65 1.3-0.72m-4 1.95 1.37-0.58 1.33-0.65m-4.09 1.72 1.39-0.49 1.37-0.58m-4.18 1.49 1.42-0.42 1.39-0.49m-4.26 1.24 1.45-0.33 1.42-0.42m-4.33 1.01 1.46-0.26 1.45-0.33m-4.38 0.76 1.47-0.17 1.46-0.26m-4.41 0.53 1.48-0.1 1.47-0.17m-4.43 0.27h1.48l1.48-0.1m-4.44 0.03 1.48 0.07h1.48m-4.43-0.23 1.47 0.16 1.48 0.07m-4.42-0.47 1.47 0.24 1.47 0.16m-4.39-0.71 1.45 0.31 1.47 0.24m-4.35-0.94 1.43 0.39 1.45 0.31m-4.28-1.17 1.4 0.47 1.43 0.39m-4.21-1.41 1.38 0.55 1.4 0.47m-4.12-1.64c0.89031 0.42968 1.7961 0.81817 2.72 1.17m-4.03-1.88c0.86197 0.48789 1.7434 0.93073 2.65 1.33m-3.91-2.1c0.83656 0.52945 1.6927 1.0211 2.57 1.48m-3.78-2.34c0.79433 0.58923 1.6158 1.1313 2.47 1.63m-3.62-2.56c0.75764 0.63635 1.5434 1.2312 2.36 1.79m-3.46-2.79c0.72107 0.6782 1.4699 1.3205 2.25 1.93m-3.27-3c0.66785 0.73138 1.3737 1.4188 2.12 2.07m-3.08-3.2c0.6271 0.76393 1.2862 1.496 1.98 2.2m-2.85-3.4c0.5631 0.81517 1.172 1.5892 1.83 2.33m-2.61-3.59c0.50287 0.85304 1.052 1.6706 1.65 2.46m-2.35-3.77c0.45045 0.8824 0.94312 1.7373 1.48 2.57m-2.08-3.92c0.3822 0.91296 0.8156 1.7968 1.3 2.66m-1.81-4.05c0.32194 0.93387 0.6915 1.8451 1.11 2.74m-1.52-4.16c0.25412 0.95504 0.56086 1.8892 0.92 2.81m-1.24-4.26c0.19504 0.96989 0.43798 1.9247 0.73 2.87m-0.96-4.34c0.13548 0.98321 0.3188 1.9547 0.55 2.92m-0.68-4.39c0.0672 0.98746 0.18847 1.9652 0.36 2.94m-0.41-4.42c0.0175 0.98659 0.0776 1.9685 0.18 2.95m-0.18-4.43c-0.01 0.98737 7e-3 1.9735 0.05 2.96m-0.05-4.45v2.97m0-4.45v2.97m0-4.45v2.96m0-4.44v2.96m0-4.45v2.97m0-4.45v2.97m0-4.45v2.96m0-4.44v2.96m0-4.44v2.96m0-4.45v2.97m0-4.45v2.97m0-4.45v2.96m0-4.44v2.96m0-4.45v2.97m0-4.45v2.97m0-4.45v2.96m0-4.44v2.96m-0.01-2.08c0.0182-2.0213 7e-3 0.0711 0.01 0.6m-0.01 0.88c1.1e-4 -0.7867-3e-3 -1.5734 0.01-2.36m-0.01 3.85v-2.97m0 4.45v-2.97m0 4.45v-2.96m0 4.44v-2.96m0 4.44v-2.96m0 4.45v-2.97m0 4.45v-2.97m-0.02 4.45c0.0173-0.98664 0.0238-1.9732 0.02-2.96m-0.11 4.44c0.0738-0.98578 0.11013-1.9714 0.11-2.96m-0.25 4.44c0.10303-0.98487 0.1795-1.971 0.23-2.96m-0.43 4.42c0.14642-0.97656 0.25868-1.9559 0.34-2.94m-0.6 4.4c0.18432-0.96882 0.33758-1.9414 0.46-2.92m-0.78 4.37c0.22506-0.96406 0.41796-1.9333 0.58-2.91m-0.96 4.34c0.26613-0.95244 0.49865-1.9118 0.7-2.88m-1.13 4.3c0.296-0.94288 0.56569-1.8924 0.81-2.85m-1.31 4.25c0.3468-0.92842 0.65619-1.8674 0.93-2.82m-1.47 4.2c0.36896-0.91854 0.71508-1.845 1.04-2.78m-1.65 4.13c0.4209-0.89481 0.8033-1.8039 1.15-2.73m-1.8 4.06c0.44163-0.88339 0.86116-1.7765 1.26-2.68m-1.97 3.98c0.48522-0.86069 0.93778-1.7367 1.36-2.63m-2.12 3.9c0.51712-0.84155 1.0064-1.6978 1.47-2.57m-2.29 3.81c0.5568-0.81823 1.0829-1.6541 1.58-2.51m-2.44 3.72c0.58207-0.80183 1.1415-1.6183 1.68-2.45m-2.59 3.62c0.6176-0.77332 1.2067-1.5662 1.77-2.38m-2.72 3.51c0.64358-0.74801 1.2627-1.5145 1.86-2.3m-2.86 3.4c0.67302-0.72365 1.3226-1.4664 1.95-2.23m-2.99 3.28c0.70492-0.69359 1.3837-1.4102 2.04-2.15m-3.12 3.16c0.72787-0.66532 1.4338-1.3517 2.12-2.06m-3.24 3.03c0.75363-0.63793 1.4863-1.2976 2.2-1.98m-3.36 2.91c0.77934-0.61062 1.5387-1.2436 2.28-1.9m-3.48 2.77c0.81036-0.56979 1.5957-1.1697 2.36-1.8m-3.59 2.63c0.82542-0.54507 1.6348-1.1116 2.43-1.7m-3.69 2.48c0.84714-0.51079 1.6763-1.0474 2.49-1.61m-3.78 2.33c0.86851-0.46943 1.7173-0.96949 2.55-1.5m-3.87 2.18c0.88258-0.44375 1.7521-0.91019 2.61-1.4m-3.96 2.01c0.90817-0.39373 1.7968-0.82378 2.67-1.29m-4.04 1.86c0.91628-0.37167 1.8225-0.76501 2.72-1.18m-4.11 1.69c0.93265-0.32879 1.8517-0.68898 2.76-1.08m-4.17 1.53c0.94464-0.28829 1.877-0.60841 2.8-0.96m-4.23 1.36c0.95509-0.25619 1.9011-0.53948 2.84-0.85m-4.29 1.18c0.97-0.20604 1.9288-0.4494 2.88-0.73m-4.33 1.01c0.9723-0.17772 1.9383-0.38161 2.9-0.61m-4.37 0.83c0.9793-0.1342 1.9518-0.30066 2.92-0.5m-4.39 0.66c0.98444-0.0951 1.9636-0.22241 2.94-0.38m-4.42 0.49c0.98604-0.0633 1.9688-0.15333 2.95-0.27m-4.43 0.31c0.98905-0.0128 1.9746-0.0634 2.96-0.15m-4.44 0.13c0.98725 0.0253 1.9731 0.0182 2.96-0.02m-4.44-0.05c0.98611 0.0565 1.9722 0.0863 2.96 0.09m-4.44-0.22c0.98489 0.0983 1.9708 0.16478 2.96 0.2m-4.43-0.39c0.98021 0.13889 1.9628 0.24495 2.95 0.32m-4.41-0.57c0.97223 0.17874 1.9482 0.32487 2.93 0.44m-4.38-0.75c0.96426 0.21846 1.9335 0.40468 2.91 0.56m-4.35-0.93c0.95633 0.25806 1.9189 0.48437 2.89 0.68m-4.31-1.1c0.946 0.29096 1.8989 0.55359 2.86 0.79m-4.26-1.27c0.93015 0.3322 1.8695 0.63152 2.82 0.9m-4.2-1.44c0.91548 0.37166 1.8414 0.71109 2.78 1.02m-4.14-1.61c0.90269 0.40324 1.8156 0.77939 2.74 1.13m-4.07-1.78c0.88213 0.44596 1.7781 0.85842 2.69 1.24m-4-1.94c0.86733 0.47542 1.7468 0.92503 2.64 1.35m-3.91-2.1c0.84375 0.51307 1.7034 0.99521 2.58 1.45m-3.83-2.26c0.82329 0.54772 1.6624 1.0675 2.52 1.56m-3.73-2.41c0.80361 0.57818 1.6235 1.1305 2.46 1.66m-3.64-2.56c0.77877 0.60835 1.5749 1.1912 2.39 1.75m-3.53-2.69c0.75492 0.63707 1.5281 1.2495 2.32 1.84m-3.42-2.83c0.7248 0.66936 1.471 1.3119 2.24 1.93m-3.3-2.97c0.69715 0.70159 1.4166 1.3776 2.16 2.03m-3.18-3.1c0.67464 0.72211 1.368 1.4247 2.08 2.11m-3.06-3.23c0.64229 0.75281 1.3083 1.4822 2 2.19m-2.93-3.34c0.61329 0.77677 1.2501 1.5324 1.91 2.27m-2.8-3.46c0.58343 0.79848 1.1897 1.5779 1.82 2.34m-2.65-3.56c0.54467 0.82434 1.1182 1.6264 1.72 2.41m-2.51-3.67c0.51574 0.84289 1.0553 1.6691 1.62 2.48m-2.35-3.77c0.47623 0.86866 0.98297 1.7175 1.52 2.55m-2.21-3.86c0.45254 0.87825 0.92596 1.7444 1.42 2.6m-2.05-3.95c0.40641 0.90391 0.84587 1.7896 1.32 2.66m-1.89-4.02c0.37116 0.91649 0.7718 1.8187 1.2 2.71m-1.72-4.1c0.3352 0.92818 0.69823 1.8442 1.09 2.75m-1.55-4.16c0.29504 0.94483 0.62183 1.8772 0.98 2.8m-1.39-4.22c0.26418 0.95154 0.5545 1.8942 0.87 2.83m-1.22-4.27c0.22108 0.96232 0.47439 1.9148 0.76 2.86m-1.05-4.32c0.18094 0.97422 0.39415 1.9401 0.64 2.9m-0.87-4.36c0.14222 0.97923 0.31624 1.9517 0.52 2.92m-0.69-4.39c0.10137 0.98141 0.23489 1.9572 0.4 2.93m-0.51-4.41c0.06135 0.98674 0.15478 1.9693 0.28 2.95m-0.33-4.43c0.02146 0.98875 0.07526 1.9746 0.16 2.96m-0.16-4.44c-0.0099 0.98737 0.0071 1.9735 0.05 2.96m0.01-4.45c-0.0515 0.98972-0.07164 1.979-0.06 2.97m0.18-4.44c-0.09286 0.98504-0.15169 1.971-0.18 2.96m0.36-4.43c-0.13149 0.97715-0.23131 1.9564-0.3 2.94m0.54-4.41c-0.1711 0.97592-0.31102 1.9552-0.42 2.94m0.72-4.39c-0.21303 0.96762-0.39211 1.9403-0.54 2.92m0.9-4.36c-0.25148 0.95653-0.4711 1.9191-0.66 2.89m1.07-4.31c-0.28434 0.94618-0.54029 1.8991-0.77 2.86m1.24-4.26c-0.32562 0.93035-0.61825 1.8697-0.88 2.82m1.41-4.21c-0.36317 0.91969-0.69636 1.8489-1 2.79m1.58-4.15c-0.39872 0.90543-0.76777 1.8217-1.11 2.75m1.75-4.09c-0.43717 0.88666-0.84342 1.7859-1.22 2.7m1.91-4.01c-0.47121 0.86972-0.91373 1.7526-1.33 2.65m2.07-3.93c-0.50402 0.84862-0.97993 1.7115-1.43 2.59m2.23-3.85c-0.54126 0.83018-1.0544 1.676-1.54 2.54m2.38-3.75c-0.57429 0.80544-1.1195 1.6288-1.64 2.47m2.53-3.66c-0.59916 0.78413-1.1756 1.5835-1.73 2.4m2.67-3.55c-0.63707 0.75935-1.2462 1.5389-1.83 2.34m2.81-3.45c-0.66314 0.7341-1.3023 1.4873-1.92 2.26m2.95-3.33c-0.69516 0.70403-1.3644 1.4302-2.01 2.18m3.08-3.2c-0.7243 0.67283-1.4232 1.3694-2.1 2.09m3.21-3.08c-0.74445 0.65108-1.4708 1.3207-2.18 2.01m3.32-2.95c-0.77031 0.62017-1.5193 1.2636-2.25 1.93m3.44-2.82c-0.79998 0.58113-1.5758 1.1905-2.33 1.83m3.54-2.67c-0.81665 0.55405-1.6157 1.131-2.4 1.73m3.65-2.53c-0.8365 0.52249-1.656 1.0687-2.46 1.64m3.74-2.38c-0.86229 0.48306-1.7044 0.99649-2.53 1.54m3.85-2.24c-0.88076 0.45517-1.747 0.93459-2.6 1.44m3.93-2.08c-0.89775 0.4189-1.7799 0.86625-2.65 1.34m4.01-1.92c-0.9118 0.37442-1.8075 0.78096-2.69 1.22m4.08-1.75c-0.92836 0.34193-1.8444 0.71162-2.75 1.11m4.15-1.58c-0.94117 0.30324-1.8702 0.63711-2.79 1m4.22-1.42c-0.95259 0.26831-1.8953 0.56454-2.83 0.89m4.26-1.25c-0.96186 0.23003-1.9142 0.49084-2.86 0.78m4.31-1.08c-0.96785 0.18758-1.927 0.4075-2.88 0.66m4.35-0.9c-0.97974 0.14755-1.9523 0.32736-2.92 0.54m4.39-0.72c-0.98484 0.10859-1.964 0.24921-2.94 0.42m4.42-0.54c-0.98696 0.068-1.9695 0.16813-2.95 0.3m4.43-0.37c-0.98862 0.0368-1.9747 0.10053-2.96 0.19m4.44-0.2c-0.9879-5e-3 -1.9738 0.0218-2.96 0.08m4.44-0.02c-0.98654-0.0539-1.9722-0.0701-2.96-0.05m4.44 0.16c-0.9854-0.0831-1.9715-0.13956-2.96-0.17m4.43 0.34c-0.98064-0.1256-1.9632-0.2183-2.95-0.28m4.41 0.51c-0.97266-0.16549-1.9486-0.29825-2.93-0.4m4.39 0.68c-0.9691-0.19568-1.9419-0.3656-2.92-0.51m4.36 0.86c-0.95896-0.24799-1.9247-0.45708-2.9-0.63m4.32 1.03c-0.94636-0.27772-1.8992-0.52698-2.86-0.75m4.27 1.21c-0.93441-0.3173-1.877-0.60372-2.83-0.86m4.22 1.38c-0.92262-0.35851-1.8552-0.68458-2.8-0.98m4.17 1.55c-0.90975-0.39007-1.8293-0.75287-2.76-1.09m4.1 1.72c-0.88928-0.43285-1.792-0.83194-2.71-1.2m4.03 1.88c-0.87435-0.46233-1.7605-0.89858-2.66-1.31m3.946 2.046c-0.85239-0.50285-1.7205-0.97393-2.606-1.416" stroke="#121c2b"/>
 </g>
</svg>
