<?xml version="1.0" encoding="UTF-8" standalone="no"?>
<!-- Created with Inkscape (http://www.inkscape.org/) -->

<svg
   width="54.328632mm"
   height="18.883444mm"
   viewBox="0 0 54.328632 18.883444"
   version="1.1"
   id="svg3120"
   inkscape:version="1.2 (dc2aeda, 2022-05-15)"
   sodipodi:docname="cue.svg"
   xmlns:inkscape="http://www.inkscape.org/namespaces/inkscape"
   xmlns:sodipodi="http://sodipodi.sourceforge.net/DTD/sodipodi-0.dtd"
   xmlns="http://www.w3.org/2000/svg"
   xmlns:svg="http://www.w3.org/2000/svg">
  <sodipodi:namedview
     id="namedview3122"
     pagecolor="#ffffff"
     bordercolor="#000000"
     borderopacity="0.25"
     inkscape:showpageshadow="2"
     inkscape:pageopacity="0.0"
     inkscape:pagecheckerboard="0"
     inkscape:deskcolor="#d1d1d1"
     inkscape:document-units="mm"
     showgrid="false"
     inkscape:zoom="0.914906"
     inkscape:cx="-76.510592"
     inkscape:cy="-33.336758"
     inkscape:window-width="1390"
     inkscape:window-height="831"
     inkscape:window-x="69"
     inkscape:window-y="203"
     inkscape:window-maximized="0"
     inkscape:current-layer="layer1" />
  <defs
     id="defs3117">
    <inkscape:path-effect
       effect="offset"
       id="path-effect2837"
       is_visible="true"
       lpeversion="1.2"
       linejoin_type="miter"
       unit="mm"
       offset="0.29657349"
       miter_limit="4"
       attempt_force_join="false"
       update_on_knot_move="true" />
  </defs>
  <g
     inkscape:label="Layer 1"
     inkscape:groupmode="layer"
     id="layer1"
     transform="translate(-60.461367,-213.35396)">
    <path
       id="rect1829-2-5-0"
       style="fill:#00347a;fill-opacity:1;stroke:none;stroke-width:1.36657;stop-color:#000000"
       d="m 77.68429,214.74986 c 0.017,3.10895 -0.0337,6.22019 0.0247,9.32774 0.30982,3.69681 3.31637,6.93406 6.95359,7.59935 3.81599,0.79632 8.05828,-1.28552 9.63244,-4.87938 0.85994,-1.75476 0.80029,-3.74762 0.7591,-5.64973 0.006,-2.25715 7.1e-4,-4.51432 0.003,-6.77148 -0.97164,0 -1.94329,0 -2.91493,0 -0.0138,3.215 0.0353,6.43418 -0.0347,9.64653 -0.32579,2.51115 -2.49962,4.64126 -5.03293,4.86125 -2.52783,0.30957 -5.25021,-1.15382 -6.11521,-3.60192 -0.62489,-1.78206 -0.27372,-3.69474 -0.35834,-5.53879 0,-1.78903 0,-3.57805 0,-5.36707 -0.9721,0 -1.94421,0 -2.91631,0 0,0.1245 0,0.249 0,0.3735 z" />
    <path
       id="Pfad_22-4-9-5-3-7-4"
       style="fill:#00347a;fill-opacity:1;stroke-width:0.186702"
       d="m 69.86013,213.36888 c -1.97567,0.0298 -3.94009,0.65642 -5.53288,1.83297 -1.68433,1.22333 -2.93079,3.02263 -3.50605,5.02238 -0.46322,1.6071 -0.47451,3.32911 -0.061,4.94905 0.52436,1.93658 1.6545,3.70472 3.22674,4.95737 1.61653,1.3046 3.67232,2.04223 5.74959,2.07991 2.05389,0.034 4.10582,-0.62462 5.76151,-1.8413 0.52227,-0.40368 1.01657,-0.84945 1.48338,-1.31762 -0.69456,-0.69791 -1.36932,-1.41565 -2.07836,-2.09903 -1.22333,1.35428 -2.95413,2.28444 -4.80151,2.31066 -2.34187,0.0898 -4.68095,-1.20338 -5.81692,-3.25968 -1.22372,-2.06762 -1.12374,-4.82812 0.24135,-6.80617 1.26543,-1.93604 3.63594,-3.06532 5.93751,-2.84301 1.72155,0.11606 3.29955,1.03031 4.44509,2.29305 0.69026,-0.69024 1.37981,-1.38121 2.07008,-2.07146 -1.2058,-1.29286 -2.71307,-2.32206 -4.42268,-2.81114 -0.87324,-0.27055 -1.78472,-0.37033 -2.69582,-0.39598 z" />
    <g
       id="g1785-5-7-5-6"
       transform="matrix(0.70564865,0,0,0.70564865,26.20089,150.34908)">
      <path
         id="Pfad_22-4-9-9-8-5-6-4"
         style="fill:#00347a;fill-opacity:1;stroke-width:0.264583"
         d="m 111.50781,89.302734 c -5.25597,0.198538 -10.1646,3.807585 -11.909767,8.768046 -2.033526,5.46031 0.02756,12.09905 4.788267,15.45574 2.17582,1.60171 4.85575,2.37534 7.53166,2.52036 0.47645,-0.13439 1.21877,0.016 1.78929,-0.13353 3.21589,-0.29946 6.22731,-1.8982 8.44598,-4.22147 0.3048,-0.41162 -0.69063,-0.83462 -0.90799,-1.25166 -0.62241,-0.63213 -1.23567,-1.27341 -1.87611,-1.88749 -1.7447,1.95926 -4.25247,3.26544 -6.90223,3.28688 -3.40916,0.094 -6.76131,-1.89872 -8.31273,-4.9358 -1.54741,-2.91746 -1.34454,-6.67419 0.55582,-9.384635 2.08364,-3.2472 6.39351,-4.74842 10.06828,-3.636237 3.09559,0.859424 5.57445,3.473608 6.49516,6.517452 0.0523,0.55756 -1.09936,0.11783 -1.55117,0.25781 -3.25378,0 -6.50756,0 -9.76133,0 0,1.37045 0,2.74089 0,4.11133 5.13932,0 10.27864,0 15.41797,0 0.61263,-3.85102 -0.50783,-7.951636 -3.09961,-10.880858 -0.48945,-0.653406 -1.26915,-1.298027 -1.9593,-1.847739 -2.49867,-1.90856 -5.67026,-2.895321 -8.81219,-2.738199 z" />
    </g>
  </g>
</svg>
