<?xml version="1.0" encoding="UTF-8" standalone="no"?>
<!-- Created with Inkscape (http://www.inkscape.org/) -->

<svg
   width="75.91642mm"
   height="25.668365mm"
   viewBox="0 0 75.91642 25.668366"
   version="1.1"
   id="svg3120"
   inkscape:version="1.2 (dc2aeda, 2022-05-15)"
   sodipodi:docname="cue.svg"
   xmlns:inkscape="http://www.inkscape.org/namespaces/inkscape"
   xmlns:sodipodi="http://sodipodi.sourceforge.net/DTD/sodipodi-0.dtd"
   xmlns="http://www.w3.org/2000/svg"
   xmlns:svg="http://www.w3.org/2000/svg">
  <sodipodi:namedview
     id="namedview3122"
     pagecolor="#ffffff"
     bordercolor="#000000"
     borderopacity="0.25"
     inkscape:showpageshadow="2"
     inkscape:pageopacity="0.0"
     inkscape:pagecheckerboard="0"
     inkscape:deskcolor="#d1d1d1"
     inkscape:document-units="mm"
     showgrid="false"
     inkscape:zoom="0.914906"
     inkscape:cx="16.395127"
     inkscape:cy="-78.150105"
     inkscape:window-width="1390"
     inkscape:window-height="1205"
     inkscape:window-x="0"
     inkscape:window-y="25"
     inkscape:window-maximized="0"
     inkscape:current-layer="layer1" />
  <defs
     id="defs3117">
    <inkscape:path-effect
       effect="offset"
       id="path-effect2837"
       is_visible="true"
       lpeversion="1.2"
       linejoin_type="miter"
       unit="mm"
       offset="0.29657349"
       miter_limit="4"
       attempt_force_join="false"
       update_on_knot_move="true" />
  </defs>
  <g
     inkscape:label="Layer 1"
     inkscape:groupmode="layer"
     id="layer1"
     transform="translate(-35.951059,-183.76227)">
    <path
       id="Pfad_22-4-9-5-0-0"
       style="fill:#00347a;fill-opacity:1;stroke-width:0.24105"
       d="m 61.221289,185.47154 -0.39946,11.6303 a 11.613064,11.613064 0 0 0 -0.0222,0.57723 v 0.0419 a 11.731421,11.731421 0 0 0 11.70781,11.70368 h 0.003 a 11.715028,11.715028 0 0 0 11.64528,-12.32121 l 0.016,-5.2e-4 -0.4129,-11.63133 h -2.84375 l 0.41289,11.6303 h -0.008 a 8.7896461,8.7896461 0 0 1 0.0191,0.60772 v 0.004 a 8.8476244,8.8476244 0 0 1 -17.69504,-0.003 v -0.004 a 8.7906105,8.7906105 0 0 1 0.0227,-0.60513 h -0.002 l 0.39946,-11.6303 z" />
    <path
       id="Pfad_22-4-9-9-5-3-6"
       style="fill:#00347a;fill-opacity:1;stroke-width:0.264583"
       d="m 98.921639,183.76295 c -2.87814,0.0233 -5.76621,1.00673 -8.14626,2.99568 v 0.002 c -8.68021,7.34797 -4.24412,21.49881 7.0409,22.60895 a 12.85875,12.85875 0 0 0 0.0729,0.008 c 0.009,8.6e-4 0.0182,0.002 0.0274,0.003 l 0.33021,0.0305 10e-4,-0.0114 a 12.85875,12.85875 0 0 0 9.943061,-3.69434 l 0.23565,-0.23358 -1.95079,-1.98954 -0.24133,-0.23668 -0.23823,0.23823 a 9.6477665,9.6477665 0 0 1 -6.864181,2.84323 h -0.004 a 9.7114026,9.7114026 0 0 1 -0.58705,-0.0253 9.7114026,9.7114026 0 0 1 -0.003,0 l -0.3328,-0.0294 c -0.0659,-0.006 -0.13128,-0.0122 -0.19688,-0.0191 a 9.7114026,9.7114026 0 0 1 -0.42788,-0.0553 c -0.0451,-0.007 -0.09,-0.0137 -0.13488,-0.0212 a 9.7114026,9.7114026 0 0 1 -5.06841,-16.53181 c 0.028,-0.0268 0.0558,-0.0536 0.0842,-0.0801 a 9.7114026,9.7114026 0 0 1 0.44182,-0.38861 c 0.11191,-0.0928 0.22476,-0.18284 0.33952,-0.26975 0.0104,-0.008 0.0211,-0.0154 0.0315,-0.0232 3.21974,-2.41814 7.516171,-2.54689 10.827241,-0.55759 v 5.2e-4 c 3.7e-4,1.1e-4 6.8e-4,4e-4 0.001,5.1e-4 1.5e-4,5e-5 3.6e-4,-5e-5 5.1e-4,0 0.0631,0.0379 0.12574,0.0768 0.18811,0.11627 0.003,0.002 0.006,0.003 0.009,0.005 0.008,0.005 0.0165,0.0107 0.0248,0.016 0.0518,0.0331 0.10323,0.0671 0.15451,0.10129 0.007,0.004 0.0135,0.008 0.0202,0.0129 0.008,0.005 0.0161,0.0115 0.0243,0.017 0.0486,0.0328 0.0971,0.066 0.14521,0.0997 0.009,0.006 0.0184,0.0122 0.0274,0.0186 0.005,0.003 0.009,0.007 0.0139,0.01 0.0604,0.0428 0.12024,0.0864 0.17984,0.13074 0.0623,0.0463 0.12415,0.0936 0.18552,0.14159 0.002,0.001 0.004,0.003 0.006,0.004 0.007,0.006 0.0145,0.0114 0.0217,0.0171 0.0481,0.0379 0.0957,0.0763 0.14315,0.11524 0.0187,0.0153 0.0372,0.0311 0.0558,0.0465 0.051,0.0424 0.10164,0.0851 0.15193,0.12867 0.0611,0.053 0.12187,0.107 0.1819,0.16175 0.06,0.0547 0.11938,0.1099 0.17828,0.1664 0.0564,0.0541 0.11257,0.1091 0.16795,0.16484 0.002,0.002 0.005,0.005 0.007,0.007 0.005,0.005 0.01,0.0104 0.015,0.0155 0.0523,0.053 0.10426,0.10685 0.15555,0.16123 3.3e-4,3.6e-4 7e-4,6.8e-4 0.001,0.001 1.7e-4,1.7e-4 3.5e-4,3.4e-4 5.2e-4,5.1e-4 0.0564,0.0598 0.11176,0.12037 0.16691,0.1819 0.0552,0.0616 0.11036,0.12372 0.16433,0.18707 9e-5,1e-4 -8e-5,4.2e-4 0,5.2e-4 l 0.003,0.003 v 5.2e-4 c 0.10381,0.12313 0.2035,0.24519 0.29921,0.36639 0.19133,0.24227 0.36685,0.48038 0.5271,0.71365 8e-5,1.1e-4 -8e-5,4e-4 0,5.1e-4 0.24047,0.35006 0.44687,0.68885 0.62218,1.0139 0.11688,0.21669 0.22,0.42748 0.31006,0.63096 0.045,0.10175 0.0869,0.20161 0.12558,0.29973 0.0387,0.0981 0.074,0.19458 0.10645,0.28887 0.0324,0.0941 0.0619,0.18636 0.0884,0.27647 4e-5,1.5e-4 -5e-5,3.6e-4 0,5.1e-4 0.0265,0.0903 0.05,0.17807 0.0708,0.26407 0.0208,0.086 0.039,0.17012 0.0543,0.25167 0.0153,0.0815 0.0278,0.16083 0.0377,0.23771 0.01,0.0769 0.0173,0.15124 0.0222,0.22324 0.005,0.072 0.007,0.14135 0.007,0.20826 l -18.404551,-5.2e-4 c -0.076,0.47304 -0.11628,0.95817 -0.11628,1.45262 0,0.54585 0.0483,1.08055 0.14056,1.59991 h 6.96288 14.412041 5.2e-4 l 0.0522,-0.46613 c 0.0116,-0.1254 0.0205,-0.25088 0.0284,-0.3762 9e-5,-0.001 4.3e-4,-0.003 5.2e-4,-0.004 2.3e-4,-0.004 2.9e-4,-0.007 5.2e-4,-0.0109 0.007,-0.11607 0.0126,-0.23184 0.0165,-0.34778 6.3e-4,-0.0181 0.001,-0.0362 0.002,-0.0543 0.003,-0.0995 0.004,-0.19883 0.005,-0.29817 2e-4,-0.029 5.2e-4,-0.0579 5.2e-4,-0.0868 -1e-5,-0.0929 -0.001,-0.18584 -0.003,-0.27853 -5.8e-4,-0.0262 -3e-4,-0.0524 -0.001,-0.0786 -0.007,-0.24212 -0.0208,-0.48348 -0.0413,-0.72399 -3.3e-4,-0.004 -6.9e-4,-0.008 -0.001,-0.0119 -9.2e-4,-0.0107 -0.002,-0.0213 -0.003,-0.032 -0.009,-0.10548 -0.0201,-0.21067 -0.032,-0.31575 -0.002,-0.0202 -0.005,-0.0403 -0.007,-0.0605 -0.013,-0.10947 -0.0271,-0.21864 -0.0429,-0.32763 -5.5e-4,-0.004 -9.9e-4,-0.008 -0.002,-0.0114 -4e-4,-0.003 -0.001,-0.005 -0.002,-0.008 -0.0158,-0.10754 -0.0327,-0.21495 -0.0512,-0.32195 -0.003,-0.0189 -0.006,-0.0379 -0.01,-0.0568 -0.0425,-0.23938 -0.0918,-0.47741 -0.1478,-0.71365 -3.7e-4,-0.002 -6.7e-4,-0.003 -0.001,-0.005 -10e-4,-0.004 -0.002,-0.009 -0.003,-0.0129 -0.0279,-0.11679 -0.0577,-0.23291 -0.0889,-0.34882 -1.4e-4,-5.3e-4 -3.7e-4,-0.001 -5.1e-4,-0.002 -1.5e-4,-5.3e-4 -3.8e-4,-0.001 -5.2e-4,-0.002 -0.0302,-0.11226 -0.0618,-0.224 -0.0951,-0.33538 -0.002,-0.008 -0.004,-0.0159 -0.007,-0.0238 -0.002,-0.006 -0.003,-0.0114 -0.005,-0.0171 -0.0331,-0.10958 -0.0678,-0.21896 -0.10387,-0.32762 -10e-4,-0.004 -0.003,-0.008 -0.004,-0.0124 -4.7e-4,-0.001 -0.001,-0.003 -0.002,-0.004 -0.0777,-0.23313 -0.16207,-0.46406 -0.25322,-0.69246 -9.7e-4,-0.002 -0.002,-0.005 -0.003,-0.007 -1e-4,-8e-5 -4.1e-4,9e-5 -5.2e-4,0 -0.49384,-1.23524 -1.18139,-2.39715 -2.05,-3.43752 l -0.0295,-0.0346 c -0.15204,-0.18033 -0.30806,-0.35515 -0.46767,-0.52503 l 0.016,-0.016 -0.23254,-0.23616 a 12.746831,12.746831 0 0 0 -4.85397,-3.05925 c -0.12703,-0.0449 -0.25473,-0.0878 -0.38292,-0.12867 a 12.746831,12.746831 0 0 0 -0.31678,-0.0971 c -0.24568,-0.0714 -0.49358,-0.13511 -0.74259,-0.19172 a 12.746831,12.746831 0 0 0 -0.0269,-0.006 c -0.9677,-0.21785 -1.957101,-0.32428 -2.948141,-0.31626 z" />
    <path
       id="Pfad_22-4-9-5-3-7-7"
       data-name="Pfad 22"
       d="m 56.154009,203.46841 -0.24103,-0.23627 -0.23813,0.23812 a 9.6477665,9.6477665 0 0 1 -6.86461,2.84295 h -0.004 a 9.7114051,9.7114051 0 0 1 0.003,-19.42281 h 0.004 a 9.6488249,9.6488249 0 0 1 6.86567,2.84666 l 0.23627,0.23627 2.18863,-2.18863 -0.2323,-0.23627 a 12.746831,12.746831 0 0 0 -9.02864,-3.78037 h -0.0455 a 12.876742,12.876742 0 0 0 -12.84631,12.85082 v 0.003 a 12.85875,12.85875 0 0 0 21.91808,9.06966 l 0.23574,-0.23363 z"
       fill="#09c8cc"
       style="fill:#00347a;fill-opacity:1;stroke-width:0.264583" />
  </g>
</svg>
