<?xml version="1.0" encoding="UTF-8" ?>
<!DOCTYPE svg PUBLIC "-//W3C//DTD SVG 1.1//EN" "http://www.w3.org/Graphics/SVG/1.1/DTD/svg11.dtd">
<svg width="472.5pt" height="119.25pt" viewBox="0 0 800 202" version="1.1" xmlns="http://www.w3.org/2000/svg">
<g id="#edc338ff">
<path fill="#edc338" opacity="1.00" d=" M 125.33 4.51 C 131.80 1.65 139.72 2.20 145.61 6.18 C 151.55 9.95 155.27 17.08 154.78 24.13 C 154.69 31.75 149.87 38.71 143.31 42.36 C 144.67 49.53 145.14 56.87 144.48 64.16 C 150.57 66.63 154.11 73.99 151.42 80.17 C 149.47 85.42 143.69 88.05 138.34 87.57 C 134.20 96.98 127.98 105.47 120.29 112.28 C 120.82 114.15 121.20 116.07 121.41 118.00 C 131.04 119.76 140.96 119.00 150.44 116.69 C 150.39 112.94 151.55 108.96 154.70 106.65 C 159.11 103.09 165.84 104.06 169.65 108.07 C 176.09 103.96 181.70 98.69 186.56 92.82 C 180.83 88.05 177.93 79.95 179.93 72.69 C 181.24 67.19 185.29 62.46 190.50 60.26 C 197.09 57.46 205.38 58.32 210.79 63.20 C 216.74 68.18 218.81 77.02 216.14 84.23 C 214.19 89.74 209.77 94.17 204.43 96.47 C 200.33 98.42 195.58 97.52 191.44 96.15 C 186.19 102.83 179.83 108.64 172.63 113.16 C 173.20 117.16 172.49 121.66 169.12 124.30 C 164.41 128.72 156.49 127.11 152.87 122.07 C 142.39 124.65 131.40 125.31 120.73 123.49 C 118.87 126.32 116.34 129.03 112.88 129.71 C 107.13 131.21 100.57 127.88 98.65 122.21 C 97.32 118.98 98.24 115.47 99.28 112.31 C 90.15 105.79 79.36 101.73 68.25 100.29 C 65.51 104.13 59.46 103.98 57.24 99.71 C 45.25 99.98 33.42 103.73 23.28 110.11 C 24.71 114.33 24.17 119.43 20.63 122.46 C 16.43 126.43 9.10 126.03 5.40 121.57 C 1.20 117.26 2.10 109.47 6.94 106.01 C 10.87 102.87 16.61 103.58 20.54 106.34 C 31.47 99.47 44.21 95.41 57.16 95.17 C 58.48 93.18 60.43 91.35 63.02 91.59 C 65.58 91.41 67.25 93.50 68.52 95.40 C 80.65 96.98 92.46 101.28 102.44 108.41 C 104.19 107.54 105.99 106.76 107.82 106.06 C 107.15 95.42 103.93 85.00 98.62 75.76 C 95.56 76.04 92.17 75.31 90.32 72.63 C 88.20 69.98 88.73 66.42 89.84 63.46 C 83.15 56.05 74.70 50.39 65.57 46.43 C 62.18 52.84 54.17 56.57 47.20 53.95 C 39.33 51.59 35.08 41.94 38.34 34.47 C 41.11 27.03 50.40 23.29 57.63 26.42 C 63.79 28.69 67.33 35.40 66.79 41.79 C 76.79 46.07 86.18 52.10 93.43 60.29 C 95.89 59.94 98.60 59.66 100.71 61.28 C 104.64 63.67 104.90 69.25 102.60 72.87 C 108.32 83.00 112.14 94.35 112.59 106.03 C 114.40 106.71 116.15 107.55 117.77 108.62 C 124.82 102.42 130.25 94.53 134.22 86.06 C 129.92 83.00 127.35 77.34 128.94 72.14 C 130.32 67.18 135.11 63.73 140.21 63.56 C 140.66 57.06 140.36 50.50 139.01 44.11 C 133.70 44.99 128.00 44.59 123.30 41.75 C 116.07 37.68 111.98 29.00 113.17 20.83 C 114.00 13.76 118.77 7.30 125.33 4.51 Z" />
<path fill="#edc338" opacity="1.00" d=" M 701.32 54.20 C 707.62 51.20 715.65 56.94 714.53 63.92 C 714.37 71.12 704.93 75.15 699.39 70.79 C 693.44 66.85 694.56 56.63 701.32 54.20 Z" />
</g>
<g id="#002642">
<path fill="#002642" opacity="1.00" d=" M 662.71 64.98 C 663.44 55.82 672.12 48.64 681.22 49.13 C 681.80 54.07 681.37 59.06 681.50 64.02 C 681.41 98.66 681.69 133.31 681.36 167.95 C 675.71 167.98 670.05 168.14 664.41 167.85 C 664.16 165.17 663.90 162.48 663.47 159.83 C 657.85 165.55 650.09 169.15 642.00 169.03 C 632.78 169.45 623.59 165.26 617.94 157.97 C 609.33 147.06 607.47 132.40 608.51 118.94 C 609.24 107.84 613.32 96.40 622.10 89.14 C 633.49 79.64 651.73 80.55 662.41 90.76 C 662.75 82.17 662.16 73.56 662.71 64.98 M 640.54 98.67 C 634.63 100.18 630.77 105.66 629.13 111.25 C 626.93 118.62 626.65 126.50 627.64 134.10 C 628.60 140.36 630.99 147.00 636.44 150.72 C 644.92 156.24 658.38 152.89 662.19 143.22 C 662.33 131.77 662.22 120.31 662.25 108.86 C 662.45 106.70 660.72 105.08 659.45 103.55 C 654.83 98.33 647.08 96.90 640.54 98.67 Z" />
<path fill="#002642" opacity="1.00" d=" M 262.85 55.25 C 274.91 55.26 286.96 55.23 299.02 55.26 C 310.66 55.74 322.45 59.88 330.93 68.06 C 339.30 75.90 344.30 86.93 345.89 98.20 C 346.84 104.09 346.41 110.06 346.51 115.99 C 346.49 129.56 341.92 143.50 332.19 153.21 C 323.07 162.49 309.92 167.08 297.06 167.26 C 285.65 167.24 274.24 167.26 262.82 167.25 C 262.72 129.92 262.66 92.58 262.85 55.25 M 282.80 71.25 C 282.68 98.01 282.80 124.76 282.74 151.51 C 287.81 151.94 292.92 151.82 298.00 151.54 C 306.06 151.11 314.17 147.64 319.21 141.19 C 325.03 133.81 326.94 124.08 326.76 114.87 L 327.27 114.12 C 327.29 105.49 327.06 96.57 323.66 88.49 C 321.08 82.18 316.43 76.50 310.06 73.77 C 301.50 69.83 291.88 71.67 282.80 71.25 Z" />
<path fill="#002642" opacity="1.00" d=" M 356.51 55.36 C 370.35 55.11 384.20 55.32 398.05 55.25 C 407.84 55.51 418.24 57.58 425.78 64.27 C 433.04 70.42 435.12 80.81 433.60 89.85 C 431.92 97.78 425.77 103.78 418.85 107.50 C 423.88 110.36 429.50 113.00 432.64 118.13 C 436.51 125.02 437.34 133.29 436.19 141.02 C 435.28 147.79 432.06 154.37 426.70 158.72 C 419.37 164.98 409.44 167.04 400.03 167.26 C 385.54 167.24 371.06 167.27 356.58 167.24 C 356.40 129.95 356.53 92.65 356.51 55.36 M 376.01 71.54 C 376.07 98.26 375.83 124.99 376.13 151.70 C 384.69 151.61 393.28 152.15 401.82 151.35 C 408.94 150.81 415.82 145.41 416.55 138.04 C 417.34 130.82 415.57 121.89 408.54 118.26 C 401.11 114.10 392.21 117.16 384.36 115.56 C 384.10 110.90 384.27 106.22 384.31 101.55 C 390.73 101.28 397.29 102.10 403.56 100.38 C 408.76 98.93 413.52 94.57 414.18 89.03 C 414.58 84.81 414.25 80.06 411.22 76.81 C 407.76 72.79 402.17 71.66 397.11 71.50 C 390.07 71.51 383.04 71.47 376.01 71.54 Z" />
<path fill="#002642" opacity="1.00" d=" M 739.18 88.35 C 747.89 82.80 758.71 81.35 768.81 82.76 C 775.43 83.63 781.96 86.34 786.74 91.09 C 791.16 95.43 793.44 101.57 793.93 107.67 C 794.24 122.46 793.63 137.27 794.27 152.05 C 794.23 157.29 796.23 162.16 797.36 167.18 C 790.95 167.26 784.54 167.34 778.14 167.18 C 776.42 165.30 776.39 162.26 775.38 159.93 C 763.59 172.08 741.08 171.95 730.30 158.55 C 724.58 151.89 724.03 142.09 726.86 134.06 C 729.81 126.19 737.25 120.88 745.11 118.61 C 754.78 115.58 765.01 116.39 775.00 116.20 C 775.14 111.32 775.28 105.98 772.15 101.88 C 767.73 95.95 758.89 95.71 752.60 98.47 C 748.54 100.00 746.22 104.06 745.81 108.22 C 739.58 108.25 733.35 108.30 727.13 108.19 C 727.25 99.99 732.40 92.63 739.18 88.35 M 753.35 130.12 C 750.35 131.19 747.64 133.22 746.11 136.05 C 743.22 141.27 744.63 148.98 750.25 151.77 C 758.92 156.28 770.34 152.34 775.27 144.11 C 775.21 138.82 775.31 133.54 775.20 128.26 C 767.91 128.45 760.31 127.41 753.35 130.12 Z" />
<path fill="#002642" opacity="1.00" d=" M 466.10 91.77 C 477.43 79.57 498.96 79.36 510.37 91.53 C 518.70 100.45 520.96 113.19 521.02 124.98 C 521.27 137.33 518.68 150.58 510.15 159.99 C 499.29 172.18 478.55 171.79 466.86 160.97 C 466.58 173.73 467.04 186.52 465.97 199.26 C 459.92 199.21 453.86 199.32 447.81 199.19 C 447.73 160.81 447.68 122.43 447.83 84.05 C 453.60 83.94 459.36 84.02 465.13 84.00 C 465.39 86.60 465.61 89.20 466.10 91.77 M 477.48 98.58 C 472.95 99.67 468.84 102.71 466.84 106.97 C 466.60 118.31 466.84 129.67 466.73 141.01 C 466.81 142.56 466.44 144.31 467.50 145.63 C 473.24 155.19 488.79 156.65 495.91 147.94 C 500.80 142.18 501.64 134.24 501.85 126.98 C 502.05 118.82 501.18 109.80 495.51 103.43 C 491.15 98.34 483.77 96.96 477.48 98.58 Z" />
<path fill="#002642" opacity="1.00" d=" M 531.61 103.77 C 536.39 93.60 545.83 85.42 557.02 83.33 C 567.63 81.37 579.49 82.97 588.11 89.86 C 593.64 94.01 597.01 100.42 598.91 106.95 C 601.28 114.97 601.22 123.43 600.86 131.71 C 582.78 131.84 564.69 131.64 546.61 131.81 C 547.52 138.17 549.84 144.77 554.99 148.93 C 561.71 154.54 571.68 154.90 579.46 151.40 C 583.44 149.67 586.47 146.49 589.44 143.44 C 593.05 146.37 596.14 149.86 599.60 152.96 C 594.93 160.75 586.55 165.70 577.80 167.55 C 565.69 170.25 552.02 168.66 541.99 160.93 C 533.92 154.90 528.81 145.41 527.55 135.47 C 526.23 124.82 527.01 113.60 531.61 103.77 M 553.31 102.18 C 549.13 106.16 547.27 111.81 546.29 117.35 C 550.13 118.16 554.09 117.59 557.99 117.75 C 565.94 117.61 573.92 118.04 581.86 117.51 C 581.43 112.40 580.55 106.99 577.17 102.91 C 571.24 96.29 559.60 95.81 553.31 102.18 Z" />
<path fill="#002642" opacity="1.00" d=" M 695.54 84.02 C 701.76 83.98 707.98 84.00 714.20 84.00 C 714.30 111.75 714.24 139.49 714.23 167.24 C 708.01 167.27 701.79 167.24 695.57 167.26 C 695.43 139.51 695.49 111.76 695.54 84.02 Z" />
<path fill="#002642" opacity="1.00" d=" M 13.63 151.26 C 27.40 151.35 41.18 151.00 54.95 151.49 C 73.42 151.64 93.73 156.82 105.35 172.27 C 110.04 166.24 116.17 161.35 123.13 158.20 C 132.79 153.70 143.50 152.13 154.05 151.59 C 168.40 150.98 182.77 151.35 197.13 151.26 C 197.33 158.55 191.97 165.55 184.66 166.67 C 169.83 167.11 154.82 165.79 140.15 168.59 C 131.68 170.19 123.36 174.10 117.88 180.93 C 114.28 185.19 112.26 190.44 110.10 195.50 C 106.94 195.50 103.78 195.50 100.62 195.50 C 98.28 190.07 96.06 184.42 92.02 179.98 C 85.78 172.68 76.25 169.25 66.97 167.97 C 54.38 166.18 41.63 166.87 28.96 166.77 C 20.53 167.62 13.26 159.45 13.63 151.26 Z" />
</g>
</svg>
