<?xml version="1.0" encoding="utf-8"?>
<!-- Generator: Adobe Illustrator 16.0.0, SVG Export Plug-In . SVG Version: 6.00 Build 0)  -->
<!DOCTYPE svg PUBLIC "-//W3C//DTD SVG 1.1//EN" "http://www.w3.org/Graphics/SVG/1.1/DTD/svg11.dtd">
<svg version="1.1" id="Layer_1" xmlns="http://www.w3.org/2000/svg" xmlns:xlink="http://www.w3.org/1999/xlink" x="0px" y="0px"
	 width="1190.551px" height="841.89px" viewBox="0 0 1190.551 841.89" enable-background="new 0 0 1190.551 841.89"
	 xml:space="preserve">
<circle fill="#CDCCCC" stroke="#000000" stroke-width="0.6" stroke-miterlimit="10" cx="468.326" cy="409.522" r="25.511"/>
<circle fill="#CDCCCC" stroke="#000000" stroke-width="0.6" stroke-miterlimit="10" cx="717.674" cy="409.522" r="25.511"/>
<g enable-background="new    ">
	<path d="M449.733,457.646c-0.46,0.165-1.003,0.248-1.629,0.248c-1.936,0-3.182-0.915-3.736-2.745l0.726-0.248
		c0.413,1.512,1.417,2.268,3.01,2.268c0.909,0,1.624-0.225,2.143-0.674c0.531-0.46,0.797-1.133,0.797-2.019
		c0-0.838-0.313-1.534-0.938-2.09c-0.166-0.153-0.419-0.324-0.762-0.514c-0.342-0.188-0.779-0.4-1.311-0.637
		c-1.003-0.449-1.688-0.839-2.054-1.169c-0.614-0.531-0.921-1.234-0.921-2.107c0-0.874,0.313-1.576,0.938-2.107
		c0.614-0.543,1.37-0.815,2.267-0.815c1.487,0,2.538,0.556,3.152,1.665l-0.691,0.301c-0.236-0.39-0.52-0.679-0.85-0.867
		c-0.413-0.26-0.95-0.39-1.611-0.39c-0.697,0-1.275,0.194-1.735,0.584c-0.496,0.414-0.744,0.957-0.744,1.63
		c0,0.602,0.26,1.127,0.779,1.576c0.295,0.236,0.886,0.555,1.771,0.956c0.555,0.248,1.033,0.493,1.435,0.734
		c0.401,0.242,0.726,0.487,0.974,0.735c0.685,0.673,1.027,1.512,1.027,2.515C451.77,456.082,451.091,457.139,449.733,457.646z"/>
	<path d="M458.304,457.115c-0.484,0.52-1.163,0.779-2.036,0.779c-0.862,0-1.529-0.254-2.001-0.762
		c-0.472-0.507-0.708-1.216-0.708-2.125v-4.569h0.726v4.569c0,0.697,0.153,1.234,0.46,1.611c0.319,0.378,0.827,0.567,1.523,0.567
		c1.357,0,2.036-0.727,2.036-2.179v-4.569h0.708v4.569C459.012,455.905,458.776,456.607,458.304,457.115z"/>
	<path d="M467.46,456.779c-0.732,0.731-1.629,1.098-2.692,1.098c-1.216,0-2.213-0.49-2.993-1.47v1.346h-0.726v-13.104h0.726v7.154
		c0.767-0.98,1.765-1.47,2.993-1.47c1.063,0,1.954,0.36,2.674,1.08c0.732,0.732,1.098,1.629,1.098,2.691
		S468.18,456.058,467.46,456.779z M466.928,451.944c-0.602-0.603-1.322-0.903-2.161-0.903c-0.85,0-1.57,0.295-2.161,0.886
		c-0.602,0.602-0.903,1.328-0.903,2.178c0,0.839,0.301,1.559,0.903,2.161c0.603,0.602,1.322,0.903,2.161,0.903
		c0.85,0,1.57-0.295,2.161-0.886c0.602-0.603,0.903-1.328,0.903-2.179C467.832,453.266,467.531,452.545,466.928,451.944z"/>
	<path d="M470.01,449.128c-0.13,0-0.266-0.054-0.407-0.16c-0.106-0.105-0.166-0.248-0.177-0.425c0-0.318,0.195-0.514,0.584-0.584
		c0.295,0,0.49,0.194,0.584,0.584C470.594,448.933,470.4,449.128,470.01,449.128z M469.656,460.94v-10.502h0.726v10.502H469.656z"/>
	<path d="M472.932,453.945c0,0.992,0.266,1.777,0.797,2.355c0.555,0.591,1.316,0.886,2.285,0.886c0.496,0,0.944-0.083,1.346-0.248
		c0.507-0.213,0.962-0.644,1.364-1.293l0.655,0.301c-0.46,0.874-1.169,1.464-2.125,1.771c-0.366,0.117-0.779,0.177-1.239,0.177
		c-1.098,0-2.001-0.36-2.709-1.08c-0.721-0.72-1.081-1.623-1.081-2.71c0-1.098,0.354-2.001,1.063-2.709
		c0.72-0.721,1.629-1.08,2.728-1.08c1.086,0,1.983,0.336,2.692,1.009c0.72,0.673,1.08,1.547,1.08,2.621H472.932z M477.927,451.625
		c-0.555-0.4-1.193-0.602-1.913-0.602c-1.512,0-2.503,0.744-2.975,2.231h5.933C478.853,452.582,478.505,452.039,477.927,451.625z"/>
	<path d="M484.921,457.894c-1.086,0-1.989-0.36-2.709-1.08s-1.08-1.623-1.08-2.71c0-1.086,0.36-1.989,1.08-2.709
		c0.72-0.721,1.623-1.08,2.709-1.08c0.933,0,1.676,0.212,2.231,0.637v0.868l-0.46-0.301l-0.496-0.266
		c-0.449-0.153-0.874-0.23-1.275-0.23c-0.909,0-1.647,0.283-2.213,0.85c-0.579,0.579-0.868,1.323-0.868,2.231
		c0,0.897,0.29,1.636,0.868,2.214c0.578,0.579,1.316,0.868,2.213,0.868c0.85,0,1.594-0.283,2.231-0.851v0.903
		C486.491,457.676,485.747,457.894,484.921,457.894z"/>
	<path d="M490.322,451.165v6.588h-0.726v-6.588h-0.992v-0.727h0.992v-3.205h0.726v3.205h1.7v0.727H490.322z"/>
</g>
<g enable-background="new    ">
	<path d="M565.714,397.581c-0.732,0.731-1.629,1.098-2.692,1.098c-1.216,0-2.22-0.496-3.011-1.487v4.799h-0.726v-10.75h0.726v1.382
		c0.755-0.992,1.759-1.487,3.011-1.487c1.063,0,1.954,0.36,2.674,1.08c0.731,0.732,1.098,1.629,1.098,2.691
		S566.433,396.86,565.714,397.581z M565.182,392.746c-0.602-0.603-1.323-0.903-2.161-0.903c-0.85,0-1.57,0.295-2.161,0.886
		c-0.602,0.602-0.903,1.328-0.903,2.178c0,0.839,0.301,1.559,0.903,2.161c0.602,0.602,1.322,0.903,2.161,0.903
		c0.85,0,1.57-0.295,2.161-0.886c0.602-0.603,0.903-1.328,0.903-2.179C566.085,394.068,565.784,393.347,565.182,392.746z"/>
	<path d="M571.858,392.321c-0.189-0.142-0.39-0.254-0.602-0.337c-0.212-0.082-0.437-0.124-0.673-0.124
		c-0.201,0-0.39,0.063-0.567,0.187c-0.177,0.124-0.331,0.277-0.46,0.46c-0.13,0.184-0.233,0.387-0.31,0.611
		c-0.077,0.225-0.115,0.431-0.115,0.619v4.817h-0.726v-7.314h0.726v0.992c0.153-0.271,0.354-0.52,0.602-0.744
		c0.248-0.224,0.52-0.336,0.814-0.336c0.366,0,0.667,0.041,0.903,0.124c0.236,0.082,0.501,0.229,0.797,0.442L571.858,392.321z"/>
	<path d="M572.992,394.747c0,0.992,0.266,1.777,0.797,2.355c0.555,0.591,1.316,0.886,2.285,0.886c0.496,0,0.944-0.083,1.346-0.248
		c0.507-0.213,0.962-0.644,1.364-1.293l0.655,0.301c-0.46,0.874-1.169,1.464-2.125,1.771c-0.366,0.117-0.779,0.177-1.239,0.177
		c-1.098,0-2.001-0.36-2.709-1.08c-0.721-0.72-1.081-1.623-1.081-2.71c0-1.098,0.354-2.001,1.063-2.709
		c0.72-0.721,1.629-1.08,2.728-1.08c1.086,0,1.983,0.336,2.692,1.009c0.72,0.673,1.08,1.547,1.08,2.621H572.992z M577.986,392.426
		c-0.555-0.4-1.193-0.602-1.913-0.602c-1.512,0-2.503,0.744-2.975,2.231h5.933C578.913,393.383,578.564,392.84,577.986,392.426z"/>
	<path d="M587.867,398.554v-1.311c-0.779,0.956-1.771,1.435-2.975,1.435c-1.063,0-1.954-0.36-2.674-1.08
		c-0.732-0.732-1.098-1.63-1.098-2.692s0.36-1.953,1.08-2.674c0.732-0.731,1.629-1.098,2.692-1.098c1.169,0,2.161,0.478,2.975,1.435
		v-7.119h0.726v13.104H587.867z M587.053,392.746c-0.603-0.603-1.323-0.903-2.161-0.903c-0.85,0-1.57,0.295-2.161,0.886
		c-0.602,0.602-0.903,1.328-0.903,2.178c0,0.839,0.301,1.559,0.903,2.161c0.602,0.602,1.322,0.903,2.161,0.903
		c0.85,0,1.57-0.295,2.161-0.886c0.602-0.603,0.903-1.328,0.903-2.179C587.956,394.068,587.655,393.347,587.053,392.746z"/>
	<path d="M591.25,389.93c-0.13,0-0.266-0.054-0.407-0.16c-0.106-0.105-0.166-0.248-0.177-0.425c0-0.318,0.195-0.514,0.584-0.584
		c0.295,0,0.49,0.194,0.584,0.584C591.834,389.735,591.639,389.93,591.25,389.93z M590.878,398.554v-7.314h0.726v7.314H590.878z"/>
	<path d="M597.466,398.696c-1.087,0-1.989-0.36-2.709-1.08s-1.08-1.623-1.08-2.71c0-1.086,0.36-1.989,1.08-2.709
		c0.72-0.721,1.623-1.08,2.709-1.08c0.933,0,1.677,0.212,2.231,0.637v0.868l-0.461-0.301l-0.495-0.266
		c-0.449-0.153-0.874-0.23-1.275-0.23c-0.909,0-1.647,0.283-2.213,0.85c-0.579,0.579-0.868,1.323-0.868,2.231
		c0,0.897,0.29,1.636,0.868,2.214c0.578,0.579,1.316,0.868,2.213,0.868c0.851,0,1.594-0.283,2.231-0.851v0.903
		C599.036,398.478,598.292,398.696,597.466,398.696z"/>
	<path d="M606.817,398.554v-1.258c-0.768,0.921-1.742,1.382-2.922,1.382c-1.063,0-1.955-0.36-2.675-1.08
		c-0.731-0.732-1.099-1.63-1.099-2.692s0.361-1.953,1.081-2.674c0.731-0.731,1.63-1.098,2.692-1.098c1.168,0,2.143,0.46,2.922,1.381
		v-1.275h0.726v7.314H606.817z M606.055,392.746c-0.603-0.603-1.322-0.903-2.16-0.903c-0.851,0-1.57,0.295-2.161,0.886
		c-0.603,0.602-0.903,1.328-0.903,2.178c0,0.839,0.301,1.559,0.903,2.161c0.603,0.602,1.322,0.903,2.161,0.903
		c0.85,0,1.569-0.295,2.16-0.886c0.602-0.603,0.902-1.328,0.902-2.179C606.957,394.068,606.656,393.347,606.055,392.746z"/>
	<path d="M610.801,391.966v6.588h-0.727v-6.588h-0.992v-0.727h0.992v-3.205h0.727v3.205h1.699v0.727H610.801z"/>
	<path d="M614.272,394.747c0,0.992,0.266,1.777,0.797,2.355c0.555,0.591,1.316,0.886,2.285,0.886c0.495,0,0.943-0.083,1.346-0.248
		c0.507-0.213,0.962-0.644,1.363-1.293l0.655,0.301c-0.46,0.874-1.169,1.464-2.126,1.771c-0.365,0.117-0.778,0.177-1.238,0.177
		c-1.099,0-2.002-0.36-2.71-1.08c-0.721-0.72-1.081-1.623-1.081-2.71c0-1.098,0.355-2.001,1.063-2.709
		c0.721-0.721,1.63-1.08,2.729-1.08c1.086,0,1.982,0.336,2.691,1.009c0.72,0.673,1.08,1.547,1.08,2.621H614.272z M619.266,392.426
		c-0.555-0.4-1.193-0.602-1.912-0.602c-1.512,0-2.504,0.744-2.976,2.231h5.933C620.193,393.383,619.844,392.84,619.266,392.426z"/>
</g>
<g enable-background="new    ">
	<path d="M706.01,456.105c-1.217,1.217-2.781,1.824-4.693,1.824s-3.471-0.602-4.676-1.806c-1.216-1.216-1.824-2.78-1.824-4.693
		s0.604-3.471,1.807-4.675c1.217-1.217,2.781-1.824,4.693-1.824c1.9,0,3.465,0.602,4.693,1.806c1.215,1.217,1.824,2.78,1.824,4.693
		S707.225,454.901,706.01,456.105z M705.496,447.268c-1.086-1.086-2.479-1.629-4.18-1.629c-1.677,0-3.058,0.543-4.145,1.629
		c-1.086,1.087-1.629,2.474-1.629,4.162s0.537,3.069,1.611,4.144c1.086,1.087,2.474,1.63,4.162,1.63c1.7,0,3.094-0.531,4.18-1.594
		c1.074-1.074,1.611-2.468,1.611-4.18C707.108,449.73,706.571,448.343,705.496,447.268z"/>
	<path d="M715.873,456.779c-0.731,0.731-1.629,1.098-2.691,1.098c-1.216,0-2.213-0.49-2.992-1.47v1.346h-0.727v-13.104h0.727v7.154
		c0.767-0.98,1.764-1.47,2.992-1.47c1.063,0,1.954,0.36,2.674,1.08c0.732,0.732,1.099,1.629,1.099,2.691
		S716.594,456.058,715.873,456.779z M715.342,451.944c-0.602-0.603-1.322-0.903-2.16-0.903c-0.85,0-1.57,0.295-2.16,0.886
		c-0.603,0.602-0.903,1.328-0.903,2.178c0,0.839,0.301,1.559,0.903,2.161c0.602,0.602,1.322,0.903,2.16,0.903
		c0.85,0,1.57-0.295,2.16-0.886c0.603-0.603,0.904-1.328,0.904-2.179C716.246,453.266,715.945,452.545,715.342,451.944z"/>
	<path d="M718.424,449.128c-0.13,0-0.266-0.054-0.407-0.16c-0.106-0.105-0.165-0.248-0.177-0.425c0-0.318,0.194-0.514,0.584-0.584
		c0.295,0,0.49,0.194,0.584,0.584C719.008,448.933,718.814,449.128,718.424,449.128z M718.071,460.94v-10.502h0.726v10.502H718.071z
		"/>
	<path d="M721.346,453.945c0,0.992,0.266,1.777,0.797,2.355c0.555,0.591,1.316,0.886,2.285,0.886c0.495,0,0.943-0.083,1.346-0.248
		c0.507-0.213,0.962-0.644,1.363-1.293l0.655,0.301c-0.46,0.874-1.169,1.464-2.126,1.771c-0.365,0.117-0.778,0.177-1.238,0.177
		c-1.099,0-2.002-0.36-2.71-1.08c-0.721-0.72-1.081-1.623-1.081-2.71c0-1.098,0.355-2.001,1.063-2.709
		c0.721-0.721,1.63-1.08,2.729-1.08c1.086,0,1.982,0.336,2.691,1.009c0.72,0.673,1.08,1.547,1.08,2.621H721.346z M726.34,451.625
		c-0.555-0.4-1.193-0.602-1.912-0.602c-1.512,0-2.504,0.744-2.976,2.231h5.933C727.267,452.582,726.918,452.039,726.34,451.625z"/>
	<path d="M733.335,457.894c-1.087,0-1.989-0.36-2.71-1.08c-0.72-0.72-1.08-1.623-1.08-2.71c0-1.086,0.36-1.989,1.08-2.709
		c0.721-0.721,1.623-1.08,2.71-1.08c0.933,0,1.677,0.212,2.231,0.637v0.868l-0.461-0.301l-0.495-0.266
		c-0.449-0.153-0.874-0.23-1.275-0.23c-0.909,0-1.647,0.283-2.214,0.85c-0.578,0.579-0.867,1.323-0.867,2.231
		c0,0.897,0.289,1.636,0.867,2.214c0.578,0.579,1.316,0.868,2.214,0.868c0.851,0,1.594-0.283,2.231-0.851v0.903
		C734.906,457.676,734.161,457.894,733.335,457.894z"/>
	<path d="M738.737,451.165v6.588h-0.727v-6.588h-0.992v-0.727h0.992v-3.205h0.727v3.205h1.699v0.727H738.737z"/>
</g>
<g>
	<g>
		
			<line fill="none" stroke="#000000" stroke-width="0.6" stroke-miterlimit="10" x1="493.839" y1="409.523" x2="682.334" y2="409.523"/>
		<g>
			<polygon points="680.648,411.744 681.592,409.523 680.648,407.3 685.916,409.523 			"/>
		</g>
	</g>
</g>
</svg>
