<?xml version="1.0" encoding="utf-8"?>
<!-- Generator: Adobe Illustrator 16.0.0, SVG Export Plug-In . SVG Version: 6.00 Build 0)  -->
<!DOCTYPE svg PUBLIC "-//W3C//DTD SVG 1.1//EN" "http://www.w3.org/Graphics/SVG/1.1/DTD/svg11.dtd">
<svg version="1.1" id="Layer_1" xmlns="http://www.w3.org/2000/svg" xmlns:xlink="http://www.w3.org/1999/xlink" x="0px" y="0px"
	 width="1190.551px" height="841.891px" viewBox="0 0 1190.551 841.891" enable-background="new 0 0 1190.551 841.891"
	 xml:space="preserve">
<circle fill="#CDCCCC" stroke="#000000" stroke-width="0.6" stroke-miterlimit="10" cx="469.14" cy="409.522" r="25.511"/>
<circle fill="#CDCCCC" stroke="#000000" stroke-width="0.6" stroke-miterlimit="10" cx="718.486" cy="409.522" r="25.511"/>
<g enable-background="new    ">
	<path d="M438.578,457.966l-4.056-12.857h0.744l3.312,10.448l3.329-10.448h0.762L438.578,457.966z"/>
	<path d="M451.258,453.945c0,0.992,0.266,1.777,0.797,2.355c0.555,0.591,1.316,0.886,2.284,0.886c0.496,0,0.945-0.083,1.346-0.248
		c0.507-0.213,0.962-0.644,1.364-1.293l0.655,0.301c-0.46,0.874-1.168,1.464-2.125,1.771c-0.366,0.117-0.779,0.177-1.24,0.177
		c-1.346,0-2.385-0.508-3.117-1.522v1.381h-0.726v-1.258c-0.768,0.921-1.742,1.382-2.922,1.382c-1.063,0-1.954-0.36-2.674-1.08
		c-0.732-0.732-1.098-1.63-1.098-2.692s0.36-1.953,1.081-2.674c0.732-0.731,1.629-1.098,2.692-1.098c1.168,0,2.143,0.46,2.922,1.381
		v-1.275h0.726v1.435c0.708-1.015,1.747-1.522,3.117-1.522c1.074,0,1.972,0.33,2.692,0.991c0.72,0.649,1.081,1.518,1.081,2.604
		H451.258z M449.734,451.944c-0.602-0.603-1.322-0.903-2.16-0.903c-0.85,0-1.57,0.295-2.161,0.886
		c-0.602,0.602-0.903,1.328-0.903,2.178c0,0.839,0.301,1.559,0.903,2.161c0.602,0.602,1.322,0.903,2.161,0.903
		c0.85,0,1.57-0.295,2.16-0.886c0.603-0.603,0.903-1.328,0.903-2.179C450.638,453.266,450.337,452.546,449.734,451.944z
		 M456.482,451.838c-0.555-0.52-1.27-0.779-2.143-0.779c-1.511,0-2.503,0.732-2.975,2.196h5.933
		C457.178,452.712,456.907,452.239,456.482,451.838z"/>
	<path d="M465.779,460.197c-0.661,0.66-1.529,0.991-2.604,0.991c-1.995,0-3.188-0.785-3.577-2.355h0.726
		c0.13,0.578,0.502,1.01,1.116,1.293c0.484,0.225,1.063,0.337,1.735,0.337c0.909,0,1.612-0.255,2.107-0.762
		c0.508-0.508,0.762-1.217,0.762-2.125v-1.081c-0.768,0.921-1.742,1.382-2.922,1.382c-1.063,0-1.954-0.36-2.674-1.08
		c-0.732-0.732-1.098-1.63-1.098-2.692s0.36-1.953,1.081-2.674c0.732-0.731,1.629-1.098,2.692-1.098c1.168,0,2.143,0.46,2.922,1.381
		v-1.275h0.726v7.155C466.771,458.668,466.44,459.535,465.779,460.197z M465.283,451.944c-0.602-0.603-1.322-0.903-2.16-0.903
		c-0.85,0-1.57,0.295-2.161,0.886c-0.602,0.602-0.903,1.328-0.903,2.178c0,0.839,0.301,1.559,0.903,2.161
		c0.602,0.602,1.322,0.903,2.161,0.903c0.85,0,1.57-0.295,2.16-0.886c0.603-0.603,0.903-1.328,0.903-2.179
		C466.187,453.266,465.886,452.546,465.283,451.944z"/>
</g>
<g enable-background="new    ">
	<path d="M475.069,458.219h-7.315v-0.467h7.315V458.219z"/>
</g>
<g enable-background="new    ">
	<path d="M483.641,455.698c-0.85,1.488-2.054,2.231-3.613,2.231c-1.547,0-2.745-0.749-3.595-2.249
		c-0.697-1.228-1.045-2.68-1.045-4.356c0-1.688,0.348-3.146,1.045-4.374c0.85-1.499,2.048-2.249,3.595-2.249s2.745,0.75,3.595,2.249
		c0.696,1.252,1.045,2.71,1.045,4.374C484.668,453.024,484.326,454.482,483.641,455.698z M483.075,447.481
		c-0.697-1.369-1.712-2.055-3.046-2.055c-1.192,0-2.155,0.614-2.887,1.842c-0.649,1.11-0.974,2.462-0.974,4.056
		c0,1.452,0.277,2.722,0.832,3.808c0.708,1.37,1.718,2.055,3.028,2.055c1.216,0,2.184-0.608,2.904-1.824
		c0.649-1.074,0.974-2.42,0.974-4.038C483.907,449.848,483.629,448.567,483.075,447.481z"/>
	<path d="M493.487,455.698c-0.85,1.488-2.054,2.231-3.613,2.231c-1.547,0-2.745-0.749-3.595-2.249
		c-0.697-1.228-1.045-2.68-1.045-4.356c0-1.688,0.348-3.146,1.045-4.374c0.85-1.499,2.048-2.249,3.595-2.249s2.745,0.75,3.595,2.249
		c0.696,1.252,1.045,2.71,1.045,4.374C494.515,453.024,494.172,454.482,493.487,455.698z M492.921,447.481
		c-0.697-1.369-1.712-2.055-3.046-2.055c-1.192,0-2.155,0.614-2.887,1.842c-0.649,1.11-0.974,2.462-0.974,4.056
		c0,1.452,0.277,2.722,0.832,3.808c0.708,1.37,1.718,2.055,3.028,2.055c1.216,0,2.184-0.608,2.904-1.824
		c0.649-1.074,0.974-2.42,0.974-4.038C493.753,449.848,493.476,448.567,492.921,447.481z"/>
	<path d="M501.935,451.395c-0.106,0.13-0.266,0.321-0.478,0.575s-0.484,0.57-0.814,0.947l-3.63,4.108h6.057v0.727h-7.651
		l6.198-7.172c0.496-0.709,0.744-1.446,0.744-2.214c0-0.744-0.295-1.375-0.886-1.896c-0.59-0.507-1.275-0.761-2.054-0.761
		c-0.956,0-1.706,0.307-2.249,0.921c-0.331,0.365-0.561,0.82-0.69,1.363h-0.797c0.083-0.614,0.39-1.222,0.921-1.824
		c0.708-0.779,1.647-1.169,2.816-1.169c1.003,0,1.865,0.313,2.585,0.938c0.72,0.614,1.081,1.423,1.081,2.427
		C503.086,449.394,502.703,450.403,501.935,451.395z"/>
</g>
<g enable-background="new    ">
	<path d="M559.889,398.572v-4.409c0-1.547-0.72-2.32-2.161-2.32c-0.59,0-1.098,0.177-1.523,0.531
		c-0.437,0.354-0.655,0.826-0.655,1.417v4.764h-0.726V385.45h0.726v6.765c0.437-0.72,1.163-1.08,2.178-1.08
		c1.924,0,2.887,0.985,2.887,2.957v4.48H559.889z"/>
	<path d="M568.903,398.554v-1.258c-0.768,0.921-1.742,1.382-2.922,1.382c-1.063,0-1.954-0.36-2.674-1.08
		c-0.732-0.732-1.098-1.63-1.098-2.692s0.36-1.953,1.081-2.674c0.732-0.731,1.629-1.098,2.692-1.098c1.168,0,2.143,0.46,2.922,1.381
		v-1.275h0.726v7.314H568.903z M568.141,392.746c-0.602-0.603-1.322-0.903-2.16-0.903c-0.85,0-1.57,0.295-2.161,0.886
		c-0.602,0.602-0.903,1.328-0.903,2.178c0,0.839,0.301,1.559,0.903,2.161c0.602,0.602,1.322,0.903,2.161,0.903
		c0.85,0,1.57-0.295,2.16-0.886c0.603-0.603,0.903-1.328,0.903-2.179C569.044,394.068,568.744,393.347,568.141,392.746z"/>
	<path d="M575.243,392.321c-0.189-0.142-0.39-0.254-0.602-0.337c-0.212-0.082-0.437-0.124-0.673-0.124
		c-0.201,0-0.39,0.063-0.567,0.187c-0.177,0.124-0.331,0.277-0.46,0.46c-0.13,0.184-0.233,0.387-0.31,0.611
		c-0.077,0.225-0.115,0.431-0.115,0.619v4.817h-0.726v-7.314h0.726v0.992c0.153-0.271,0.354-0.52,0.602-0.744
		c0.248-0.224,0.52-0.336,0.814-0.336c0.366,0,0.667,0.041,0.903,0.124c0.236,0.082,0.501,0.229,0.797,0.442L575.243,392.321z"/>
</g>
<g enable-background="new    ">
	<path d="M583.418,399.021h-7.315v-0.467h7.315V399.021z"/>
</g>
<g enable-background="new    ">
	<path d="M587.35,398.873l-3.454-7.633h0.779l2.656,5.827l2.674-5.827h0.814L587.35,398.873z"/>
	<path d="M592.786,389.93c-0.13,0-0.266-0.054-0.407-0.16c-0.106-0.105-0.166-0.248-0.177-0.425c0-0.318,0.195-0.514,0.584-0.584
		c0.295,0,0.49,0.194,0.584,0.584C593.371,389.735,593.176,389.93,592.786,389.93z M592.415,398.554v-7.314h0.726v7.314H592.415z"/>
	<path d="M599.621,398.554v-4.374c0-1.547-0.695-2.32-2.089-2.32c-0.685,0-1.204,0.201-1.559,0.603
		c-0.366,0.401-0.549,0.95-0.549,1.646v4.445h-0.726v-7.314h0.726v0.886c0.33-0.649,1.032-0.974,2.107-0.974
		c0.909,0,1.605,0.26,2.089,0.779c0.484,0.52,0.727,1.245,0.727,2.178v4.445H599.621z"/>
	<path d="M609.025,398.554v-1.311c-0.779,0.956-1.771,1.435-2.975,1.435c-1.063,0-1.955-0.36-2.675-1.08
		c-0.731-0.732-1.098-1.63-1.098-2.692s0.36-1.953,1.08-2.674c0.731-0.731,1.63-1.098,2.692-1.098c1.168,0,2.16,0.478,2.975,1.435
		v-7.119h0.727v13.104H609.025z M608.211,392.746c-0.603-0.603-1.322-0.903-2.16-0.903c-0.851,0-1.57,0.295-2.161,0.886
		c-0.603,0.602-0.903,1.328-0.903,2.178c0,0.839,0.301,1.559,0.903,2.161c0.603,0.602,1.322,0.903,2.161,0.903
		c0.85,0,1.569-0.295,2.16-0.886c0.602-0.603,0.902-1.328,0.902-2.179C609.113,394.068,608.813,393.347,608.211,392.746z"/>
	<path d="M616.569,397.917c-0.483,0.52-1.163,0.779-2.036,0.779c-0.862,0-1.529-0.254-2.002-0.762
		c-0.472-0.507-0.708-1.216-0.708-2.125v-4.569h0.726v4.569c0,0.697,0.154,1.234,0.461,1.611c0.318,0.378,0.826,0.567,1.523,0.567
		c1.357,0,2.036-0.727,2.036-2.179v-4.569h0.708v4.569C617.277,396.707,617.041,397.409,616.569,397.917z"/>
	<path d="M619.65,394.747c0,0.992,0.266,1.777,0.797,2.355c0.555,0.591,1.316,0.886,2.285,0.886c0.496,0,0.944-0.083,1.346-0.248
		c0.508-0.213,0.963-0.644,1.363-1.293l0.656,0.301c-0.461,0.874-1.17,1.464-2.126,1.771c-0.366,0.117-0.778,0.177-1.239,0.177
		c-1.098,0-2.002-0.36-2.709-1.08c-0.721-0.72-1.081-1.623-1.081-2.71c0-1.098,0.354-2.001,1.063-2.709
		c0.72-0.721,1.63-1.08,2.728-1.08c1.086,0,1.983,0.336,2.691,1.009c0.721,0.673,1.08,1.547,1.08,2.621H619.65z M624.645,392.427
		c-0.555-0.4-1.192-0.602-1.912-0.602c-1.512,0-2.504,0.744-2.975,2.231h5.932C625.572,393.384,625.223,392.841,624.645,392.427z"/>
</g>
<g enable-background="new    ">
	<path d="M683.05,457.966l-4.056-12.857h0.744l3.312,10.448l3.329-10.448h0.762L683.05,457.966z"/>
	<path d="M688.752,449.129c-0.131,0-0.266-0.054-0.408-0.16c-0.105-0.105-0.165-0.248-0.177-0.425c0-0.318,0.194-0.514,0.585-0.584
		c0.295,0,0.489,0.194,0.584,0.584C689.336,448.933,689.141,449.129,688.752,449.129z M688.38,457.753v-7.314h0.726v7.314H688.38z"
		/>
	<path d="M695.588,457.753v-4.374c0-1.547-0.697-2.32-2.09-2.32c-0.686,0-1.205,0.201-1.559,0.603
		c-0.366,0.401-0.549,0.95-0.549,1.646v4.445h-0.727v-7.314h0.727v0.886c0.33-0.649,1.033-0.974,2.107-0.974
		c0.908,0,1.605,0.26,2.09,0.779s0.727,1.245,0.727,2.178v4.445H695.588z"/>
	<path d="M704.991,457.753v-1.311c-0.779,0.956-1.771,1.435-2.976,1.435c-1.063,0-1.953-0.36-2.674-1.08
		c-0.732-0.732-1.098-1.63-1.098-2.692s0.359-1.953,1.08-2.674c0.732-0.731,1.629-1.098,2.691-1.098c1.17,0,2.161,0.478,2.976,1.435
		v-7.119h0.726v13.104H704.991z M704.177,451.944c-0.603-0.603-1.323-0.903-2.161-0.903c-0.85,0-1.57,0.295-2.16,0.886
		c-0.602,0.602-0.903,1.328-0.903,2.178c0,0.839,0.302,1.559,0.903,2.161c0.602,0.602,1.322,0.903,2.16,0.903
		c0.851,0,1.57-0.295,2.161-0.886c0.603-0.603,0.903-1.328,0.903-2.179C705.08,453.266,704.779,452.546,704.177,451.944z"/>
	<path d="M712.535,457.115c-0.484,0.52-1.162,0.779-2.036,0.779c-0.862,0-1.529-0.254-2.001-0.762
		c-0.473-0.507-0.709-1.216-0.709-2.125v-4.569h0.727v4.569c0,0.697,0.152,1.234,0.46,1.611c0.319,0.378,0.827,0.567,1.523,0.567
		c1.357,0,2.036-0.727,2.036-2.179v-4.569h0.709v4.569C713.244,455.905,713.008,456.607,712.535,457.115z"/>
	<path d="M715.616,453.945c0,0.992,0.266,1.777,0.797,2.355c0.555,0.591,1.316,0.886,2.284,0.886c0.496,0,0.945-0.083,1.346-0.248
		c0.508-0.213,0.963-0.644,1.364-1.293l0.655,0.301c-0.461,0.874-1.169,1.464-2.125,1.771c-0.366,0.117-0.779,0.177-1.24,0.177
		c-1.098,0-2.001-0.36-2.709-1.08c-0.721-0.72-1.08-1.623-1.08-2.71c0-1.098,0.354-2.001,1.063-2.709
		c0.72-0.721,1.629-1.08,2.727-1.08c1.086,0,1.984,0.336,2.692,1.009c0.72,0.673,1.08,1.547,1.08,2.621H715.616z M720.61,451.625
		c-0.556-0.4-1.192-0.602-1.913-0.602c-1.512,0-2.503,0.744-2.975,2.231h5.933C721.537,452.582,721.188,452.039,720.61,451.625z"/>
</g>
<g enable-background="new    ">
	<path d="M730.511,458.219h-7.315v-0.467h7.315V458.219z"/>
</g>
<g enable-background="new    ">
	<path d="M739.082,455.698c-0.85,1.488-2.055,2.231-3.613,2.231c-1.547,0-2.744-0.749-3.594-2.249
		c-0.697-1.228-1.045-2.68-1.045-4.356c0-1.688,0.348-3.146,1.045-4.374c0.85-1.499,2.047-2.249,3.594-2.249s2.746,0.75,3.596,2.249
		c0.696,1.252,1.045,2.71,1.045,4.374C740.109,453.024,739.767,454.482,739.082,455.698z M738.516,447.481
		c-0.697-1.369-1.713-2.055-3.047-2.055c-1.191,0-2.154,0.614-2.887,1.842c-0.648,1.11-0.973,2.462-0.973,4.056
		c0,1.452,0.277,2.722,0.832,3.808c0.708,1.37,1.717,2.055,3.027,2.055c1.217,0,2.185-0.608,2.904-1.824
		c0.65-1.074,0.975-2.42,0.975-4.038C739.348,449.848,739.07,448.567,738.516,447.481z"/>
	<path d="M747.529,451.395c-0.105,0.13-0.266,0.321-0.479,0.575c-0.212,0.254-0.484,0.57-0.814,0.947l-3.63,4.108h6.057v0.727
		h-7.651l6.199-7.172c0.496-0.709,0.744-1.446,0.744-2.214c0-0.744-0.296-1.375-0.887-1.896c-0.59-0.507-1.274-0.761-2.054-0.761
		c-0.956,0-1.706,0.307-2.249,0.921c-0.33,0.365-0.561,0.82-0.69,1.363h-0.798c0.083-0.614,0.391-1.222,0.922-1.824
		c0.708-0.779,1.646-1.169,2.815-1.169c1.003,0,1.865,0.313,2.585,0.938c0.721,0.614,1.081,1.423,1.081,2.427
		C748.681,449.394,748.297,450.403,747.529,451.395z"/>
	<path d="M756.525,451.395c-0.105,0.13-0.266,0.321-0.478,0.575s-0.484,0.57-0.814,0.947l-3.63,4.108h6.057v0.727h-7.651
		l6.198-7.172c0.496-0.709,0.744-1.446,0.744-2.214c0-0.744-0.295-1.375-0.886-1.896c-0.591-0.507-1.274-0.761-2.054-0.761
		c-0.957,0-1.707,0.307-2.25,0.921c-0.33,0.365-0.561,0.82-0.689,1.363h-0.798c0.083-0.614,0.39-1.222,0.921-1.824
		c0.709-0.779,1.646-1.169,2.816-1.169c1.003,0,1.865,0.313,2.585,0.938c0.72,0.614,1.081,1.423,1.081,2.427
		C757.678,449.394,757.293,450.403,756.525,451.395z"/>
</g>
<g>
	<g>
		
			<line fill="none" stroke="#000000" stroke-width="0.6" stroke-miterlimit="10" x1="494.652" y1="409.523" x2="683.146" y2="409.523"/>
		<g>
			<polygon points="681.461,411.744 682.405,409.523 681.461,407.3 686.728,409.523 			"/>
		</g>
	</g>
</g>
</svg>
