<?xml version="1.0" encoding="utf-8"?>
<!-- Generator: Adobe Illustrator 16.0.0, SVG Export Plug-In . SVG Version: 6.00 Build 0)  -->
<!DOCTYPE svg PUBLIC "-//W3C//DTD SVG 1.1//EN" "http://www.w3.org/Graphics/SVG/1.1/DTD/svg11.dtd">
<svg version="1.1" id="Layer_1" xmlns="http://www.w3.org/2000/svg" xmlns:xlink="http://www.w3.org/1999/xlink" x="0px" y="0px"
	 width="1190.551px" height="841.89px" viewBox="0 0 1190.551 841.89" enable-background="new 0 0 1190.551 841.89"
	 xml:space="preserve">
<circle fill="#CDCCCC" stroke="#000000" stroke-width="0.6" stroke-miterlimit="10" cx="469.14" cy="409.522" r="25.511"/>
<circle fill="#CDCCCC" stroke="#000000" stroke-width="0.6" stroke-miterlimit="10" cx="718.486" cy="409.522" r="25.511"/>
<text transform="matrix(1 0 0 1 466.7625 457.7515)" font-family="'Roboto-Thin'" font-size="17.7094">_</text>
<text transform="matrix(1 0 0 1 474.0696 457.7515)" font-family="'GeosansLight'" font-size="17.7094">002</text>
<text transform="matrix(1 0 0 1 550.5139 398.5542)" font-family="'GeosansLight'" font-size="17.7094">has</text>
<text transform="matrix(1 0 0 1 574.1116 398.5542)" font-family="'Roboto-Thin'" font-size="17.7094">_</text>
<text transform="matrix(1 0 0 1 581.4182 398.5542)" font-family="'GeosansLight'" font-size="17.7094">window</text>
<text transform="matrix(1 0 0 1 761.5139 358.5542)" font-family="'GeosansLight'" font-size="17.7094">has</text>
<text transform="matrix(1 0 0 1 785.1116 358.5542)" font-family="'Roboto-Thin'" font-size="17.7094">_</text>
<text transform="matrix(1 0 0 1 794.4182 358.5542)" font-family="'GeosansLight'" font-size="17.7094">pane</text>
<text transform="matrix(1 0 0 1 433.4753 339.3965)" font-family="'GeosansLight'" font-size="17.7094">adjacent</text>
<text transform="matrix(1 0 0 1 490.9983 339.3965)" font-family="'Roboto-Thin'" font-size="17.7094">_</text>
<text transform="matrix(1 0 0 1 498.3049 339.3965)" font-family="'GeosansLight'" font-size="17.7094">element</text>
<text transform="matrix(1 0 0 1 240.1423 234.063)" font-family="'GeosansLight'" font-size="17.7094">current</text>
<text transform="matrix(1 0 0 1 285.3318 234.063)" font-family="'Roboto-Thin'" font-size="17.7094">_</text>
<text transform="matrix(1 0 0 1 292.6384 234.063)" font-family="'GeosansLight'" font-size="17.7094">temperature</text>
<text transform="matrix(1 0 0 1 673.2698 457.7515)" font-family="'GeosansLight'" font-size="17.7094">Window</text>
<text transform="matrix(1 0 0 1 437.2512 457.7515)" font-family="'GeosansLight'" font-size="17.7094">Wall</text>
<text transform="matrix(1 0 0 1 728.2034 457.7515)" font-family="'Roboto-Thin'" font-size="17.7094">_</text>
<text transform="matrix(1 0 0 1 735.511 457.7515)" font-family="'GeosansLight'" font-size="17.7094">022</text>
<g>
	<g>
		
			<line fill="none" stroke="#000000" stroke-width="0.6" stroke-miterlimit="10" x1="494.652" y1="409.523" x2="683.146" y2="409.523"/>
		<g>
			<polygon points="681.461,411.744 682.405,409.523 681.461,407.3 686.728,409.523 			"/>
		</g>
	</g>
</g>
<circle fill="#EDEDED" stroke="#000000" stroke-width="0.6" stroke-miterlimit="10" cx="392.474" cy="278.188" r="25.511"/>
<text transform="matrix(1 0 0 1 370.2708 321.021)" font-family="'Roboto-Thin'" font-size="17.7094">_</text>
<text transform="matrix(1 0 0 1 377.5779 321.021)" font-family="'GeosansLight'" font-size="17.7094">014</text>
<text transform="matrix(1 0 0 1 483.2444 208.4448)" font-family="'GeosansLight'" font-size="17.7094">Room 2.1</text>
<text transform="matrix(1 0 0 1 353.9109 191.1118)" font-family="'GeosansLight'" font-size="17.7094">21.3</text>
<text transform="matrix(1 0 0 1 326.7151 321.021)" font-family="'GeosansLight'" font-size="17.7094">Space</text>
<text transform="matrix(1 0 0 1 819.0012 321.021)" font-family="'Roboto-Thin'" font-size="17.7094">_</text>
<text transform="matrix(1 0 0 1 826.3088 321.021)" font-family="'GeosansLight'" font-size="17.7094">w022</text>
<text transform="matrix(1 0 0 1 785.1116 321.021)" font-family="'GeosansLight'" font-size="17.7094">Pane</text>
<g>
	<g>
		
			<line fill="none" stroke="#000000" stroke-width="0.6" stroke-miterlimit="10" x1="405.333" y1="300.217" x2="451.306" y2="378.973"/>
		<g>
			<polygon points="448.537,378.637 450.932,378.333 452.375,376.397 453.112,382.066 			"/>
		</g>
	</g>
</g>
<circle fill="#EDEDED" stroke="#000000" stroke-width="0.6" stroke-miterlimit="10" cx="795.152" cy="278.188" r="25.511"/>
<g>
	<g>
		
			<line fill="none" stroke="#000000" stroke-width="0.6" stroke-miterlimit="10" x1="731.345" y1="387.493" x2="777.318" y2="308.737"/>
		<g>
			<polygon points="778.387,311.313 776.944,309.377 774.549,309.073 779.123,305.644 			"/>
		</g>
	</g>
</g>
<g>
	<g>
		
			<line fill="none" stroke="#000000" stroke-width="0.6" stroke-miterlimit="10" x1="412.574" y1="262.489" x2="478.95" y2="210.649"/>
		<g>
			<polygon points="478.99,213.438 478.366,211.106 476.255,209.936 481.773,208.445 			"/>
		</g>
	</g>
</g>
<text transform="matrix(1 0 0 1 441.655 251.063)" font-family="'GeosansLight'" font-size="17.7094">name</text>
<g>
	<g>
		
			<line fill="none" stroke="#000000" stroke-width="0.6" stroke-miterlimit="10" x1="385.911" y1="253.534" x2="371.192" y2="198.243"/>
		<g>
			<polygon points="373.773,199.299 371.383,198.959 369.479,200.442 370.271,194.781 			"/>
		</g>
	</g>
</g>
<text transform="matrix(1 0 0 1 654.5022 234.063)" font-family="'GeosansLight'" font-size="17.7094">light</text>
<text transform="matrix(1 0 0 1 680.6917 234.063)" font-family="'Roboto-Thin'" font-size="17.7094">_</text>
<text transform="matrix(1 0 0 1 687.9983 234.063)" font-family="'GeosansLight'" font-size="17.7094">transmittance</text>
<text transform="matrix(1 0 0 1 885.9114 208.4448)" font-family="'GeosansLight'" font-size="17.7094">3</text>
<text transform="matrix(1 0 0 1 756.5784 191.1118)" font-family="'GeosansLight'" font-size="17.7094">0.62</text>
<g>
	<g>
		
			<line fill="none" stroke="#000000" stroke-width="0.6" stroke-miterlimit="10" x1="815.241" y1="262.489" x2="881.617" y2="210.649"/>
		<g>
			<polygon points="881.656,213.438 881.033,211.106 878.922,209.936 884.44,208.445 			"/>
		</g>
	</g>
</g>
<text transform="matrix(1 0 0 1 849.8401 251.063)" font-family="'GeosansLight'" font-size="17.7094">layers</text>
<g>
	<g>
		
			<line fill="none" stroke="#000000" stroke-width="0.6" stroke-miterlimit="10" x1="788.578" y1="253.534" x2="773.86" y2="198.243"/>
		<g>
			<polygon points="776.44,199.299 774.05,198.959 772.146,200.442 772.938,194.781 			"/>
		</g>
	</g>
</g>
</svg>
