<svg viewBox="5.158371320161356 -17.04916908674761 15.424999031966054 17.549666288484875"
    style="width: 100%; height: 100%;"
    preserveAspectRatio="xMidYMid meet" xmlns="http://www.w3.org/2000/svg">
    <g transform="translate(0, -16.548671885010346) scale(1, -1)">
        <g>
            <path
                d="M 8.840870349152574 -11.42299917015229 L 8.840870349152574 -10.33449930876919 L 6.158371320161356 -10.33449930876919 L 6.158371320161356 -11.42299917015229 L 8.840870349152574 -11.42299917015229"
                stroke="rgba(0, 150, 255, 0.8)" fill="rgba(0, 150, 255, 0.1)" stroke-width="0.05"
                style="cursor: pointer;">
                <title>Space 1 (Handle: 1E61C)</title>
            </path>


        </g>
        <g>
            <path
                d="M 8.700870343052571 -11.69549823866274 L 6.323370343052574 -11.69549823866274 L 6.323370343052574 -13.15049823866274 L 7.132870343052574 -13.15049823866274 L 7.132870343052574 -13.16299823866274 L 8.700870343052571 -13.16299823866274 L 8.700870343052571 -11.69549823866274"
                stroke="rgba(0, 150, 255, 0.8)" fill="rgba(0, 150, 255, 0.1)" stroke-width="0.05"
                style="cursor: pointer;">
                <title>Space 2 (Handle: 1E634)</title>
            </path>


        </g>
        <g>
            <path
                d="M 6.310870343052571 -16.04699823866274 L 8.760870343152575 -16.04699917466274 L 8.760870343052574 -13.87299823866274 L 8.700870343052571 -13.87299823866274 L 8.700914099754389 -13.82299834435525 L 6.310870343052571 -13.82299823866274 L 6.310870343052571 -16.04699823866274"
                stroke="rgba(0, 150, 255, 0.8)" fill="rgba(0, 150, 255, 0.1)" stroke-width="0.05"
                style="cursor: pointer;">
                <title>Space 3 (Handle: 1E648)</title>
            </path>


        </g>
        <g>
            <path
                d="M 8.90087034915257 -11.48299917466274 L 8.90087034915257 -13.87299917466274 L 8.840870349152574 -13.87299917466274 L 8.840870349152574 -16.04699917466274 L 11.29035124108417 -16.04916908674761 L 11.29087034915257 -11.48299917466274 L 8.90087034915257 -11.48299917466274"
                stroke="rgba(0, 150, 255, 0.8)" fill="rgba(0, 150, 255, 0.1)" stroke-width="0.05"
                style="cursor: pointer;">
                <title>Space 4 (Handle: 1E65C)</title>
            </path>


        </g>
        <g>
            <path
                d="M 11.53087034315257 -16.04699917466274 L 13.98087034315257 -16.04699917466274 L 13.98087034315257 -11.83299917466274 L 13.92087034315257 -11.83299917466274 L 13.92087034315257 -11.48299917466274 L 11.53087034315257 -11.48299917466274 L 11.53087034315257 -16.04699917466274"
                stroke="rgba(0, 150, 255, 0.8)" fill="rgba(0, 150, 255, 0.1)" stroke-width="0.05"
                style="cursor: pointer;">
                <title>Space 5 (Handle: 1E670)</title>
            </path>


        </g>
        <g>
            <path
                d="M 14.12087034915258 -11.48299916826274 L 14.12087034915258 -11.83299917466274 L 14.06087034915257 -11.83299917466274 L 14.06087034915257 -16.04699917466274 L 16.57087033185257 -16.04699917466274 L 16.57087033185257 -13.87299917446274 L 16.51087033185257 -13.87299917446274 L 16.51087033185257 -11.48299916826274 L 14.12087034915258 -11.48299916826274"
                stroke="rgba(0, 150, 255, 0.8)" fill="rgba(0, 150, 255, 0.1)" stroke-width="0.05"
                style="cursor: pointer;">
                <title>Space 6 (Handle: 1E684)</title>
            </path>


        </g>
        <g>
            <path
                d="M 16.71087033785257 -13.82299917446274 L 16.71087033785257 -13.87299917446274 L 16.65087033785257 -13.87299917446274 L 16.65087033785257 -16.04699917466274 L 19.10087034315257 -16.04699917466274 L 19.10087033897863 -13.82299917446274 L 16.71087033785257 -13.82299917446274"
                stroke="rgba(0, 150, 255, 0.8)" fill="rgba(0, 150, 255, 0.1)" stroke-width="0.05"
                style="cursor: pointer;">
                <title>Space 7 (Handle: 1E698)</title>
            </path>


        </g>
        <g>
            <path
                d="M 16.71087033785257 -11.69549917466274 L 16.71087033785257 -13.16299917446274 L 18.27875298015257 -13.16299917466274 L 18.27875298015257 -13.15049917466274 L 19.08837033785257 -13.15049917466274 L 19.08837033785257 -11.69549917466274 L 16.71087033785257 -11.69549917466274"
                stroke="rgba(0, 150, 255, 0.8)" fill="rgba(0, 150, 255, 0.1)" stroke-width="0.05"
                style="cursor: pointer;">
                <title>Space 8 (Handle: 1E6AC)</title>
            </path>


        </g>
        <g>
            <path
                d="M 19.15837034315257 -10.41049917466274 L 16.72487033055258 -10.41049917466274 L 16.72487033055258 -11.42299917015229 L 19.15837034315257 -11.42299917466274 L 19.15837034315257 -10.41049917466274"
                stroke="rgba(0, 150, 255, 0.8)" fill="rgba(0, 150, 255, 0.1)" stroke-width="0.05"
                style="cursor: pointer;">
                <title>Space 9 (Handle: 1E6C0)</title>
            </path>


        </g>
        <g>
            <path
                d="M 13.64311549825257 -6.456725831562737 L 18.09998918395257 -5.473683130862737 L 17.57228317025258 -3.081189288662738 L 15.44936536975257 -3.549436537862736 L 15.46227859355258 -3.608030468762738 L 13.12833196235258 -4.122823966462736 L 13.64311549825257 -6.456725831562737"
                stroke="rgba(0, 150, 255, 0.8)" fill="rgba(0, 150, 255, 0.1)" stroke-width="0.05"
                style="cursor: pointer;">
                <title>Space 10 (Handle: 1E6D4)</title>
            </path>


        </g>
        <g>
            <path
                d="M 14.85531856756322 -1.08965261244102 L 15.37010208359641 -3.423554398604124 L 15.41920047375257 -3.412724869162737 L 15.43213412185257 -3.471314295162738 L 17.55505192115258 -3.003067046262736 L 17.02734496965257 -0.6105735884627386 L 14.85531856756322 -1.08965261244102"
                stroke="rgba(0, 150, 255, 0.8)" fill="rgba(0, 150, 255, 0.1)" stroke-width="0.05"
                style="cursor: pointer;">
                <title>Space 11 (Handle: 1E6E8)</title>
            </path>


        </g>
        <g>
            <path
                d="M 13.29276603715257 -3.881747865462739 L 14.72582080062007 -3.565661971218079 L 14.38808838215257 -2.034466292362737 L 14.37588178245257 -2.037158674862738 L 14.20152309175257 -1.246659277662737 L 12.78067488555257 -1.560052600662736 L 13.29276603715257 -3.881747865462739"
                stroke="rgba(0, 150, 255, 0.8)" fill="rgba(0, 150, 255, 0.1)" stroke-width="0.05"
                style="cursor: pointer;">
                <title>Space 12 (Handle: 1E6FC)</title>
            </path>


        </g>
        <g>
            <path
                d="M 10.89087057967048 -0.4995027982627356 L 10.89087057967048 -4.411912955159492 L 12.05916167417996 -4.154015324235804 L 12.18849658864677 -4.739909922179723 L 13.15589650236884 -4.526358567489775 L 12.480646711331 -1.464943444221341 L 15.77936010695146 -0.7373418690558345 L 15.77936010695146 -0.4995155070709387 L 10.89087057967048 -0.4995027982627356"
                stroke="rgba(0, 150, 255, 0.8)" fill="rgba(0, 150, 255, 0.1)" stroke-width="0.05"
                style="cursor: pointer;">
                <title>Space 13 (Handle: 1E710)</title>
            </path>


        </g>
        <g>
            <path
                d="M 10.89087057967048 -4.514320453386236 L 10.89087057967048 -9.894499318579223 L 13.38337052367705 -9.894499318579223 L 13.38337052367705 -11.33799917015229 L 16.62487033055258 -11.33799917015229 L 16.62487033055258 -5.947582733419448 L 13.53277845849914 -6.629563044659996 L 13.09411218270068 -4.642404815293175 L 12.11240330806725 -4.859114840914843 L 11.98306839360044 -4.273220242970927 L 10.89087057967048 -4.514320453386236"
                stroke="rgba(0, 150, 255, 0.8)" fill="rgba(0, 150, 255, 0.1)" stroke-width="0.05"
                style="cursor: pointer;">
                <title>Space 14 (Handle: 1E724)</title>
            </path>


        </g>
        <g>
            <path
                d="M 18.62399127905258 -5.831720715862737 L 16.99667984055257 -6.190653320862737 L 16.99667984055257 -10.00549917466274 L 19.58337035212741 -10.00549917466274 L 19.58337027824449 -9.927218003234128 L 18.67676430834607 -5.820292628464423 L 18.62399127905258 -5.831720715862737"
                stroke="rgba(0, 150, 255, 0.8)" fill="rgba(0, 150, 255, 0.1)" stroke-width="0.05"
                style="cursor: pointer;">
                <title>Space 15 (Handle: 1E738)</title>
            </path>


        </g>
        <g>
            <path
                d="M 8.940870349152574 -11.33799917015229 L 13.38337053740624 -11.33799917015229 L 13.38337053740624 -10.33449927523135 L 8.940870349152574 -10.33449927523135 L 8.940870349152574 -11.33799917015229"
                stroke="rgba(0, 150, 255, 0.8)" fill="rgba(0, 150, 255, 0.1)" stroke-width="0.05"
                style="cursor: pointer;">
                <title>Space 16 (Handle: 1F9B3)</title>
            </path>


        </g>
    </g>
</svg>