<?xml version="1.0" encoding="UTF-8" standalone="no"?>
<svg
   xmlns:dc="http://purl.org/dc/elements/1.1/"
   xmlns:cc="http://creativecommons.org/ns#"
   xmlns:rdf="http://www.w3.org/1999/02/22-rdf-syntax-ns#"
   xmlns:svg="http://www.w3.org/2000/svg"
   xmlns="http://www.w3.org/2000/svg"
   viewBox="0 0 485.94135 613.45172"
   height="613.45172"
   width="485.94135"
   xml:space="preserve"
   id="svg2"
   version="1.1"><metadata
     id="metadata8"><rdf:RDF><cc:Work
         rdf:about=""><dc:format>image/svg+xml</dc:format><dc:type
           rdf:resource="http://purl.org/dc/dcmitype/StillImage" /></cc:Work></rdf:RDF></metadata><defs
     id="defs6"><clipPath
       id="clipPath14"
       clipPathUnits="userSpaceOnUse"><path
         id="path12"
         d="M 0,0 H 1920 V 1080 H 0 Z" /></clipPath><clipPath
       id="clipPath24"
       clipPathUnits="userSpaceOnUse"><path
         id="path22"
         d="M 0,0 H 1920 V 1080 H 0 Z" /></clipPath><clipPath
       id="clipPath34"
       clipPathUnits="userSpaceOnUse"><path
         id="path32"
         d="m 785.7313,317.3833 h 348.5373 V 762.6168 H 785.7313 Z" /></clipPath><clipPath
       id="clipPath46"
       clipPathUnits="userSpaceOnUse"><path
         id="path44"
         d="m 816.2957,673.454 h 138.7235 v 5 H 816.2957 Z" /></clipPath><clipPath
       id="clipPath58"
       clipPathUnits="userSpaceOnUse"><path
         id="path56"
         d="m 816.2957,660.2606 h 138.7235 v 5 H 816.2957 Z" /></clipPath><clipPath
       id="clipPath70"
       clipPathUnits="userSpaceOnUse"><path
         id="path68"
         d="m 816.2957,647.0672 h 138.7235 v 5 H 816.2957 Z" /></clipPath><clipPath
       id="clipPath82"
       clipPathUnits="userSpaceOnUse"><path
         id="path80"
         d="m 816.2957,633.8737 h 138.7235 v 5 H 816.2957 Z" /></clipPath><clipPath
       id="clipPath94"
       clipPathUnits="userSpaceOnUse"><path
         id="path92"
         d="m 816.2957,620.6803 h 138.7235 v 5 H 816.2957 Z" /></clipPath><clipPath
       id="clipPath106"
       clipPathUnits="userSpaceOnUse"><path
         id="path104"
         d="m 816.2957,607.4869 h 138.7235 v 5 H 816.2957 Z" /></clipPath><clipPath
       id="clipPath118"
       clipPathUnits="userSpaceOnUse"><path
         id="path116"
         d="m 816.2957,594.2935 h 138.7235 v 5 H 816.2957 Z" /></clipPath><clipPath
       id="clipPath130"
       clipPathUnits="userSpaceOnUse"><path
         id="path128"
         d="m 882.511,408.7726 h 102.3946 v 89.15693 H 882.511 Z" /></clipPath><clipPath
       id="clipPath136"
       clipPathUnits="userSpaceOnUse"><path
         id="path134"
         d="m 882,408 h 103 v 90 H 882 Z" /></clipPath><clipPath
       id="clipPath140"
       clipPathUnits="userSpaceOnUse"><path
         id="path138"
         d="m 882,408 h 103 v 90 H 882 Z" /></clipPath><clipPath
       id="clipPath162"
       clipPathUnits="userSpaceOnUse"><path
         id="path160"
         d="m 858.2472,378.0453 h 207.276 v 136.9838 h -207.276 z" /></clipPath><clipPath
       id="clipPath174"
       clipPathUnits="userSpaceOnUse"><path
         id="path172"
         d="m 1001.595,387.7654 h 51.7855 v 18.66547 h -51.7855 z" /></clipPath><clipPath
       id="clipPath186"
       clipPathUnits="userSpaceOnUse"><path
         id="path184"
         d="m 973.5319,540.756 h 131 v 140 h -131 z" /></clipPath><clipPath
       id="clipPath264"
       clipPathUnits="userSpaceOnUse"><path
         id="path262"
         d="m 816.2957,579.7151 h 138.7235 v 5 H 816.2957 Z" /></clipPath><clipPath
       id="clipPath276"
       clipPathUnits="userSpaceOnUse"><path
         id="path274"
         d="m 816.2957,566.5217 h 138.7235 v 5 H 816.2957 Z" /></clipPath><clipPath
       id="clipPath288"
       clipPathUnits="userSpaceOnUse"><path
         id="path286"
         d="m 896.4202,705.8935 h 130.93 v 19.13363 h -130.93 z" /></clipPath><clipPath
       id="clipPath300"
       clipPathUnits="userSpaceOnUse"><path
         id="path298"
         d="m 1029.757,340.635 h 78.0993 v 19.13363 h -78.0993 z" /></clipPath></defs><g
     clip-path="url(#clipPath14)"
     transform="matrix(1.3333333,0,0,-1.3333333,-1038.0773,1027.3397)"
     id="g10"><g
       id="g16" /><g
       id="g18"><g
         clip-path="url(#clipPath24)"
         id="g20"><path
           id="path26"
           style="fill:#ffffff;fill-opacity:1;fill-rule:nonzero;stroke:none"
           d="M 0,0 H 1920 V 1080 H 0 Z" /></g></g><g
       id="g28"><g
         clip-path="url(#clipPath34)"
         id="g30"><g
           transform="matrix(1,0,0,-1,788.2313,760.1167)"
           id="g36"><path
             id="path38"
             style="fill:none;stroke:#000000;stroke-width:3;stroke-linecap:butt;stroke-linejoin:miter;stroke-miterlimit:4;stroke-dasharray:none;stroke-opacity:1"
             d="M 0,0 H 343.5373 V 440.2335 H 0 Z" /></g></g></g><g
       id="g40"><g
         clip-path="url(#clipPath46)"
         id="g42"><g
           transform="matrix(1,0,0,-1,817.2957,675.954)"
           id="g48"><path
             id="path50"
             style="fill:none;stroke:#929292;stroke-width:3;stroke-linecap:butt;stroke-linejoin:miter;stroke-miterlimit:4;stroke-dasharray:none;stroke-opacity:1"
             d="M 0,0 H 136.7235" /></g></g></g><g
       id="g52"><g
         clip-path="url(#clipPath58)"
         id="g54"><g
           transform="matrix(1,0,0,-1,817.2957,662.7606)"
           id="g60"><path
             id="path62"
             style="fill:none;stroke:#929292;stroke-width:3;stroke-linecap:butt;stroke-linejoin:miter;stroke-miterlimit:4;stroke-dasharray:none;stroke-opacity:1"
             d="M 0,0 H 136.7235" /></g></g></g><g
       id="g64"><g
         clip-path="url(#clipPath70)"
         id="g66"><g
           transform="matrix(1,0,0,-1,817.2957,649.5672)"
           id="g72"><path
             id="path74"
             style="fill:none;stroke:#929292;stroke-width:3;stroke-linecap:butt;stroke-linejoin:miter;stroke-miterlimit:4;stroke-dasharray:none;stroke-opacity:1"
             d="M 0,0 H 136.7235" /></g></g></g><g
       id="g76"><g
         clip-path="url(#clipPath82)"
         id="g78"><g
           transform="matrix(1,0,0,-1,817.2957,636.3737)"
           id="g84"><path
             id="path86"
             style="fill:none;stroke:#929292;stroke-width:3;stroke-linecap:butt;stroke-linejoin:miter;stroke-miterlimit:4;stroke-dasharray:none;stroke-opacity:1"
             d="M 0,0 H 136.7235" /></g></g></g><g
       id="g88"><g
         clip-path="url(#clipPath94)"
         id="g90"><g
           transform="matrix(1,0,0,-1,817.2957,623.1803)"
           id="g96"><path
             id="path98"
             style="fill:none;stroke:#929292;stroke-width:3;stroke-linecap:butt;stroke-linejoin:miter;stroke-miterlimit:4;stroke-dasharray:none;stroke-opacity:1"
             d="M 0,0 H 136.7235" /></g></g></g><g
       id="g100"><g
         clip-path="url(#clipPath106)"
         id="g102"><g
           transform="matrix(1,0,0,-1,817.2957,609.9869)"
           id="g108"><path
             id="path110"
             style="fill:none;stroke:#929292;stroke-width:3;stroke-linecap:butt;stroke-linejoin:miter;stroke-miterlimit:4;stroke-dasharray:none;stroke-opacity:1"
             d="M 0,0 H 136.7235" /></g></g></g><g
       id="g112"><g
         clip-path="url(#clipPath118)"
         id="g114"><g
           transform="matrix(1,0,0,-1,817.2957,596.7935)"
           id="g120"><path
             id="path122"
             style="fill:none;stroke:#929292;stroke-width:3;stroke-linecap:butt;stroke-linejoin:miter;stroke-miterlimit:4;stroke-dasharray:none;stroke-opacity:1"
             d="M 0,0 H 136.7235" /></g></g></g><g
       id="g124"><g
         clip-path="url(#clipPath130)"
         id="g126"><g
           id="g132" /><g
           id="g154"><g
             style="opacity:0.35820001"
             id="g152"
             clip-path="url(#clipPath136)"><g
               id="g142" /><g
               id="g150"><g
                 id="g148"
                 clip-path="url(#clipPath140)"><path
                   id="path144"
                   style="fill:#000000;fill-opacity:0;fill-rule:nonzero;stroke:none"
                   d="M 848.2613,394.2666 H 994.189 V 525.9574 H 848.2613 Z" /><path
                   id="path146"
                   style="fill:#000000;fill-opacity:1;fill-rule:nonzero;stroke:none"
                   d="m 960.5782,416.9743 c -1.6381,0 -2.9661,1.328 -2.9661,2.9661 0,1.638 1.328,2.966 2.9661,2.966 h 5.6828 v 22.3755 h -5.5049 c -1.6381,0 -2.966,1.328 -2.966,2.9661 0,1.638 1.3279,2.966 2.966,2.966 h 5.5049 v 31.4159 h -23.2772 v -31.4753 h 5.5168 c 1.6364,-0.002 2.9619,-1.3295 2.9619,-2.966 0,-1.6365 -1.3255,-2.9637 -2.9619,-2.966 h -5.5168 v -6.1455 c 0,-1.6381 -1.328,-2.9661 -2.966,-2.9661 -1.6381,0 -2.966,1.328 -2.966,2.9661 v 43.5528 h -39.7564 v -21.1535 h 19.4807 c 0.7824,0.003 1.5338,-0.3055 2.0882,-0.8576 0.5544,-0.5521 0.866,-1.3023 0.866,-2.0847 v -35.6515 h 17.2503 v 5.505 c 0,1.638 1.3279,2.966 2.966,2.966 1.6381,0 2.966,-1.328 2.966,-2.966 v -5.505 h 6.9879 c 1.6381,0 2.966,-1.3279 2.966,-2.966 0,-1.6381 -1.3279,-2.966 -2.966,-2.966 h -55.5593 c -1.6315,0 -2.9541,1.3226 -2.9541,2.9542 v 65.7149 c 0.006,1.6288 1.3253,2.9476 2.9541,2.9541 h 74.9333 c 1.6056,-0.0385 2.8889,-1.3481 2.8948,-2.9541 v -65.6912 c 4e-4,-1.6086 -1.2865,-2.9218 -2.8948,-2.9541 z m -106.0171,11.4607 0.3322,0.2373 c 0.6053,0.5349 1.2476,1.0265 1.922,1.4711 1.3714,0.9004 2.8501,1.6258 4.4015,2.1593 1.3629,0.4735 2.7587,0.8463 4.1762,1.1152 v 86.4889 c -10.9861,-1.6847 -10.915,-12.7183 -10.8556,-22.9926 0.2847,-14.2368 -0.6407,-51.7509 0,-68.4792 z m 16.6096,2.444 c -0.0455,-0.633 -0.2906,-1.2353 -0.6999,-1.7203 -0.4558,-0.5291 -1.0882,-0.8748 -1.7796,-0.9728 v 0 c -1.605,-0.2278 -3.1911,-0.5728 -4.7457,-1.0322 -1.3804,-0.401 -2.6952,-1.0005 -3.9032,-1.7796 -1.1661,-0.7849 -2.1927,-1.7593 -3.0372,-2.883 -1.0236,-1.3834 -1.8613,-2.8951 -2.4915,-4.4964 -0.1135,-2.1791 0.05,-4.3637 0.4865,-6.5016 0.3722,-1.8478 1.1104,-3.6026 2.1711,-5.1608 v 0 c 1.0969,-1.5296 2.5295,-2.7877 4.188,-3.6778 2.0993,-1.1155 4.3747,-1.862 6.7269,-2.2068 h 120.0641 v 102.968 H 871.2301 V 430.879 Z m 0,78.3027 h 118.6404 c 0.5496,-0.003 1.0933,-0.1118 1.6017,-0.3204 1.0342,-0.4331 1.8566,-1.2555 2.2898,-2.2897 0.2097,-0.5122 0.3185,-1.0601 0.3203,-1.6135 v -106.29 c -0.003,-0.5495 -0.1118,-1.0932 -0.3203,-1.6016 -0.217,-0.5077 -0.5268,-0.9704 -0.9136,-1.3644 v 0 c -0.394,-0.3867 -0.8567,-0.6965 -1.3643,-0.9135 -0.5068,-0.2139 -1.0517,-0.3229 -1.6017,-0.3203 H 867.9319 c -2.9867,0.1558 -5.8939,1.0178 -8.4828,2.5152 -2.7524,1.4316 -5.1516,3.458 -7.0235,5.932 -1.4843,2.148 -2.5323,4.5666 -3.0847,7.1184 -0.5819,2.8077 -0.7893,5.68 -0.6169,8.5421 0,25.4958 -1.0441,53.1272 0,78.3027 0,6.7625 -0.0831,13.7978 2.2779,19.2672 2.3609,5.4693 7.2845,9.6217 17.0011,9.8115 h 0.3085 c 1.6119,0 2.9186,-1.3067 2.9186,-2.9185 v -13.8216 z m 26.1009,-53.6374 v -32.6617 h 16.5504 v 32.6973 z" /></g></g></g></g></g></g><g
       id="g156"><g
         clip-path="url(#clipPath162)"
         id="g158"><g
           transform="matrix(1,0,0,-1,860.7472,512.5292)"
           id="g164"><path
             id="path166"
             style="fill:none;stroke:#929292;stroke-width:3;stroke-linecap:butt;stroke-linejoin:miter;stroke-miterlimit:4;stroke-dasharray:none;stroke-opacity:1"
             d="M 0,0 H 202.276 V 131.9838 H 0 Z" /></g></g></g><g
       id="g168"><g
         clip-path="url(#clipPath174)"
         id="g170"><g
           transform="matrix(1,0,0,-1,1003.595,404.4309)"
           id="g176"><path
             id="path178"
             style="fill:none;stroke:#929292;stroke-width:2;stroke-linecap:butt;stroke-linejoin:miter;stroke-miterlimit:4;stroke-dasharray:none;stroke-opacity:1"
             d="M 0,0 H 47.78554 V 14.66547 H 0 Z" /></g></g></g><g
       id="g180"><g
         clip-path="url(#clipPath186)"
         id="g182"><path
           id="path188"
           style="fill:#d665c8;fill-opacity:0;fill-rule:nonzero;stroke:none"
           d="M 976.5319,662.5174 H 1018.04 V 677.756 H 976.5319 Z" /><path
           id="path190"
           style="fill:#cce832;fill-opacity:0;fill-rule:nonzero;stroke:none"
           d="m 1018.04,662.5174 h 41.509 v 15.2386 h -41.509 z" /><path
           id="path192"
           style="fill:#55c447;fill-opacity:0;fill-rule:nonzero;stroke:none"
           d="m 1059.549,662.5174 h 41.508 v 15.2386 h -41.508 z" /><path
           id="path194"
           style="fill:#8d7aa0;fill-opacity:0;fill-rule:nonzero;stroke:none"
           d="m 976.5319,632.3316 h 41.5081 v 30.1858 h -41.5081 z" /><path
           id="path196"
           style="fill:#5d83f3;fill-opacity:0;fill-rule:nonzero;stroke:none"
           d="m 1018.04,632.3316 h 41.509 v 30.1858 h -41.509 z" /><path
           id="path198"
           style="fill:#eaa2b7;fill-opacity:0;fill-rule:nonzero;stroke:none"
           d="m 1059.549,632.3316 h 41.508 v 30.1858 h -41.508 z" /><path
           id="path200"
           style="fill:#249b04;fill-opacity:0;fill-rule:nonzero;stroke:none"
           d="m 976.5319,601.2467 h 41.5081 v 31.0849 h -41.5081 z" /><path
           id="path202"
           style="fill:#3e23cd;fill-opacity:0;fill-rule:nonzero;stroke:none"
           d="m 1018.04,601.2467 h 41.509 v 31.0849 h -41.509 z" /><path
           id="path204"
           style="fill:#286621;fill-opacity:0;fill-rule:nonzero;stroke:none"
           d="m 1059.549,601.2467 h 41.508 v 31.0849 h -41.508 z" /><path
           id="path206"
           style="fill:#1cff38;fill-opacity:0;fill-rule:nonzero;stroke:none"
           d="m 976.5319,570.3477 h 41.5081 v 30.899 h -41.5081 z" /><path
           id="path208"
           style="fill:#83d69c;fill-opacity:0;fill-rule:nonzero;stroke:none"
           d="m 1018.04,570.3477 h 41.509 v 30.899 h -41.509 z" /><path
           id="path210"
           style="fill:#4ba386;fill-opacity:0;fill-rule:nonzero;stroke:none"
           d="m 1059.549,570.3477 h 41.508 v 30.899 h -41.508 z" /><path
           id="path212"
           style="fill:#7ef84b;fill-opacity:0;fill-rule:nonzero;stroke:none"
           d="m 976.5319,543.4957 h 41.5081 v 26.852 h -41.5081 z" /><path
           id="path214"
           style="fill:#c586c4;fill-opacity:0;fill-rule:nonzero;stroke:none"
           d="m 1018.04,543.4957 h 41.509 v 26.852 h -41.509 z" /><path
           id="path216"
           style="fill:#66e348;fill-opacity:0;fill-rule:nonzero;stroke:none"
           d="m 1059.549,543.4957 h 41.508 v 26.852 h -41.508 z" /><g
           transform="matrix(1,0,0,-1,973.5319,680.756)"
           id="g218"><path
             id="path220"
             style="fill:none;stroke:#929292;stroke-width:2;stroke-linecap:butt;stroke-linejoin:miter;stroke-miterlimit:4;stroke-dasharray:none;stroke-opacity:1"
             d="M 44.50852,1.5 V 138.7603" /></g><g
           transform="matrix(1,0,0,-1,973.5319,680.756)"
           id="g222"><path
             id="path224"
             style="fill:none;stroke:#929292;stroke-width:2;stroke-linecap:butt;stroke-linejoin:miter;stroke-miterlimit:4;stroke-dasharray:none;stroke-opacity:1"
             d="M 86.01704,1.5 V 138.7603" /></g><g
           transform="matrix(1,0,0,-1,973.5319,680.756)"
           id="g226"><path
             id="path228"
             style="fill:none;stroke:#929292;stroke-width:2;stroke-linecap:butt;stroke-linejoin:miter;stroke-miterlimit:4;stroke-dasharray:none;stroke-opacity:1"
             d="M 1.5,18.23863 H 129.0256" /></g><g
           transform="matrix(1,0,0,-1,973.5319,680.756)"
           id="g230"><path
             id="path232"
             style="fill:none;stroke:#929292;stroke-width:2;stroke-linecap:butt;stroke-linejoin:miter;stroke-miterlimit:4;stroke-dasharray:none;stroke-opacity:1"
             d="M 1.5,48.42442 H 129.0256" /></g><g
           transform="matrix(1,0,0,-1,973.5319,680.756)"
           id="g234"><path
             id="path236"
             style="fill:none;stroke:#929292;stroke-width:2;stroke-linecap:butt;stroke-linejoin:miter;stroke-miterlimit:4;stroke-dasharray:none;stroke-opacity:1"
             d="M 1.5,79.50928 H 129.0256" /></g><g
           transform="matrix(1,0,0,-1,973.5319,680.756)"
           id="g238"><path
             id="path240"
             style="fill:none;stroke:#929292;stroke-width:2;stroke-linecap:butt;stroke-linejoin:miter;stroke-miterlimit:4;stroke-dasharray:none;stroke-opacity:1"
             d="M 1.5,110.4083 H 129.0256" /></g><g
           transform="matrix(1,0,0,-1,973.5319,680.756)"
           id="g242"><path
             id="path244"
             style="fill:none;stroke:#929292;stroke-width:3;stroke-linecap:butt;stroke-linejoin:miter;stroke-miterlimit:4;stroke-dasharray:none;stroke-opacity:1"
             d="M 3,1.5 V 138.7603" /></g><g
           transform="matrix(1,0,0,-1,973.5319,680.756)"
           id="g246"><path
             id="path248"
             style="fill:none;stroke:#929292;stroke-width:3;stroke-linecap:butt;stroke-linejoin:miter;stroke-miterlimit:4;stroke-dasharray:none;stroke-opacity:1"
             d="M 127.5256,1.5 V 138.7603" /></g><g
           transform="matrix(1,0,0,-1,973.5319,680.756)"
           id="g250"><path
             id="path252"
             style="fill:none;stroke:#929292;stroke-width:3;stroke-linecap:butt;stroke-linejoin:miter;stroke-miterlimit:4;stroke-dasharray:none;stroke-opacity:1"
             d="M 1.5,3 H 129.0256" /></g><g
           transform="matrix(1,0,0,-1,973.5319,680.756)"
           id="g254"><path
             id="path256"
             style="fill:none;stroke:#929292;stroke-width:3;stroke-linecap:butt;stroke-linejoin:miter;stroke-miterlimit:4;stroke-dasharray:none;stroke-opacity:1"
             d="M 1.5,137.2603 H 129.0256" /></g></g></g><g
       id="g258"><g
         clip-path="url(#clipPath264)"
         id="g260"><g
           transform="matrix(1,0,0,-1,817.2957,582.2151)"
           id="g266"><path
             id="path268"
             style="fill:none;stroke:#929292;stroke-width:3;stroke-linecap:butt;stroke-linejoin:miter;stroke-miterlimit:4;stroke-dasharray:none;stroke-opacity:1"
             d="M 0,0 H 136.7235" /></g></g></g><g
       id="g270"><g
         clip-path="url(#clipPath276)"
         id="g272"><g
           transform="matrix(1,0,0,-1,817.2957,569.0217)"
           id="g278"><path
             id="path280"
             style="fill:none;stroke:#929292;stroke-width:3;stroke-linecap:butt;stroke-linejoin:miter;stroke-miterlimit:4;stroke-dasharray:none;stroke-opacity:1"
             d="M 0,0 H 136.7235" /></g></g></g><g
       id="g282"><g
         clip-path="url(#clipPath288)"
         id="g284"><g
           transform="matrix(1,0,0,-1,898.9202,722.5271)"
           id="g290"><path
             id="path292"
             style="fill:none;stroke:#929292;stroke-width:3;stroke-linecap:butt;stroke-linejoin:miter;stroke-miterlimit:4;stroke-dasharray:none;stroke-opacity:1"
             d="M 0,0 H 125.93 V 14.13363 H 0 Z" /></g></g></g><g
       id="g294"><g
         clip-path="url(#clipPath300)"
         id="g296"><g
           transform="matrix(1,0,0,-1,1032.257,357.2686)"
           id="g302"><path
             id="path304"
             style="fill:none;stroke:#929292;stroke-width:3;stroke-linecap:butt;stroke-linejoin:miter;stroke-miterlimit:4;stroke-dasharray:none;stroke-opacity:1"
             d="M 0,0 H 73.09929 V 14.13363 H 0 Z" /></g></g></g></g></svg>