<?xml version="1.0" encoding="utf-8"?>
<!-- Generator: Adobe Illustrator 16.0.0, SVG Export Plug-In . SVG Version: 6.00 Build 0)  -->
<!DOCTYPE svg PUBLIC "-//W3C//DTD SVG 1.1//EN" "http://www.w3.org/Graphics/SVG/1.1/DTD/svg11.dtd">
<svg version="1.1" id="Layer_1" xmlns="http://www.w3.org/2000/svg" xmlns:xlink="http://www.w3.org/1999/xlink" x="0px" y="0px"
	 width="1789.842px" height="1328.682px" viewBox="0 0 1789.842 1328.682" enable-background="new 0 0 1789.842 1328.682"
	 xml:space="preserve">
<line fill="none" stroke="#5F5F5F" stroke-width="8" stroke-miterlimit="10" x1="894.526" y1="894.739" x2="894.526" y2="1308.739"/>
<line fill="none" stroke="#5F5F5F" stroke-width="8" stroke-miterlimit="10" x1="1191.001" y1="598.84" x2="895" y2="894.841"/>
<line fill="none" stroke="#5F5F5F" stroke-width="8" stroke-miterlimit="10" x1="1527.001" y1="598.84" x2="1191.001" y2="598.84"/>
<line fill="none" stroke="#5F5F5F" stroke-width="8" stroke-miterlimit="10" x1="1770.001" y1="538.84" x2="1527.001" y2="598.84"/>
<line fill="none" stroke="#5F5F5F" stroke-width="8" stroke-miterlimit="10" x1="1527.001" y1="598.84" x2="1770.001" y2="668.841"/>
<line fill="none" stroke="#5F5F5F" stroke-width="8" stroke-miterlimit="10" x1="1707.627" y1="425.568" x2="1527.001" y2="598.84"/>
<line fill="none" stroke="#5F5F5F" stroke-width="8" stroke-miterlimit="10" x1="1707.627" y1="771.997" x2="1527.001" y2="598.724"/>
<line fill="none" stroke="#5F5F5F" stroke-width="8" stroke-miterlimit="10" x1="1191.001" y1="262.841" x2="1191.001" y2="598.841"/>
<line fill="none" stroke="#5F5F5F" stroke-width="8" stroke-miterlimit="10" x1="1131.001" y1="19.841" x2="1191.001" y2="262.841"/>
<line fill="none" stroke="#5F5F5F" stroke-width="8" stroke-miterlimit="10" x1="1191.001" y1="262.841" x2="1261.001" y2="19.841"/>
<line fill="none" stroke="#5F5F5F" stroke-width="8" stroke-miterlimit="10" x1="1017.729" y1="82.215" x2="1191.001" y2="262.841"/>
<line fill="none" stroke="#5F5F5F" stroke-width="8" stroke-miterlimit="10" x1="1364.157" y1="82.215" x2="1190.884" y2="262.841"/>
<line fill="none" stroke="#5F5F5F" stroke-width="8" stroke-miterlimit="10" x1="1428.589" y1="361.253" x2="1191.001" y2="598.841"/>
<line fill="none" stroke="#5F5F5F" stroke-width="8" stroke-miterlimit="10" x1="1557.989" y1="147.001" x2="1428.589" y2="361.253"/>
<line fill="none" stroke="#5F5F5F" stroke-width="8" stroke-miterlimit="10" x1="1428.589" y1="361.253" x2="1649.913" y2="238.925"/>
<line fill="none" stroke="#5F5F5F" stroke-width="8" stroke-miterlimit="10" x1="1433.788" y1="111.01" x2="1428.589" y2="361.253"/>
<line fill="none" stroke="#5F5F5F" stroke-width="8" stroke-miterlimit="10" x1="1678.751" y1="355.972" x2="1428.506" y2="361.171"/>
<line fill="none" stroke="#5F5F5F" stroke-width="8" stroke-miterlimit="10" x1="598.841" y1="598.84" x2="894.841" y2="894.841"/>
<line fill="none" stroke="#5F5F5F" stroke-width="8" stroke-miterlimit="10" x1="262.841" y1="598.84" x2="598.841" y2="598.84"/>
<line fill="none" stroke="#5F5F5F" stroke-width="8" stroke-miterlimit="10" x1="19.841" y1="538.84" x2="262.841" y2="598.84"/>
<line fill="none" stroke="#5F5F5F" stroke-width="8" stroke-miterlimit="10" x1="262.841" y1="598.84" x2="19.841" y2="668.841"/>
<line fill="none" stroke="#5F5F5F" stroke-width="8" stroke-miterlimit="10" x1="82.215" y1="425.568" x2="262.841" y2="598.84"/>
<line fill="none" stroke="#5F5F5F" stroke-width="8" stroke-miterlimit="10" x1="82.215" y1="771.997" x2="262.841" y2="598.724"/>
<line fill="none" stroke="#5F5F5F" stroke-width="8" stroke-miterlimit="10" x1="598.841" y1="262.841" x2="598.841" y2="598.841"/>
<line fill="none" stroke="#5F5F5F" stroke-width="8" stroke-miterlimit="10" x1="658.841" y1="19.841" x2="598.841" y2="262.841"/>
<line fill="none" stroke="#5F5F5F" stroke-width="8" stroke-miterlimit="10" x1="598.841" y1="262.841" x2="528.841" y2="19.841"/>
<line fill="none" stroke="#5F5F5F" stroke-width="8" stroke-miterlimit="10" x1="772.113" y1="82.215" x2="598.841" y2="262.841"/>
<line fill="none" stroke="#5F5F5F" stroke-width="8" stroke-miterlimit="10" x1="425.685" y1="82.215" x2="598.958" y2="262.841"/>
<line fill="none" stroke="#5F5F5F" stroke-width="8" stroke-miterlimit="10" x1="361.253" y1="361.253" x2="598.841" y2="598.841"/>
<line fill="none" stroke="#5F5F5F" stroke-width="8" stroke-miterlimit="10" x1="231.853" y1="147.001" x2="361.253" y2="361.253"/>
<line fill="none" stroke="#5F5F5F" stroke-width="8" stroke-miterlimit="10" x1="361.253" y1="361.253" x2="139.929" y2="238.925"/>
<line fill="none" stroke="#5F5F5F" stroke-width="8" stroke-miterlimit="10" x1="356.054" y1="111.01" x2="361.253" y2="361.253"/>
<line fill="none" stroke="#5F5F5F" stroke-width="8" stroke-miterlimit="10" x1="111.091" y1="355.972" x2="361.336" y2="361.171"/>
<circle cx="895" cy="1308.841" r="19.841"/>
<circle cx="895" cy="894.841" r="19.841"/>
<circle cx="1191" cy="598.841" r="19.841"/>
<circle cx="1527" cy="598.841" r="19.841"/>
<circle cx="1770" cy="538.841" r="19.841"/>
<circle cx="1770" cy="668.841" r="19.841"/>
<circle cx="1707.627" cy="425.569" r="19.841"/>
<circle cx="1707.627" cy="771.996" r="19.841"/>
<circle cx="1191.001" cy="262.841" r="19.841"/>
<circle cx="1131.001" cy="19.841" r="19.841"/>
<circle cx="1261.001" cy="19.841" r="19.841"/>
<circle cx="1017.729" cy="82.215" r="19.841"/>
<circle cx="1364.156" cy="82.215" r="19.842"/>
<circle cx="1428.588" cy="361.254" r="19.841"/>
<circle cx="1557.989" cy="147" r="19.841"/>
<circle cx="1649.913" cy="238.924" r="19.841"/>
<circle cx="1433.789" cy="111.011" r="19.842"/>
<circle cx="1678.75" cy="355.971" r="19.842"/>
<circle cx="598.841" cy="598.841" r="19.841"/>
<circle cx="262.841" cy="598.841" r="19.841"/>
<circle cx="19.841" cy="538.841" r="19.841"/>
<circle cx="19.841" cy="668.841" r="19.841"/>
<circle cx="82.215" cy="425.569" r="19.841"/>
<circle cx="82.215" cy="771.996" r="19.841"/>
<circle cx="598.841" cy="262.841" r="19.841"/>
<circle cx="658.841" cy="19.841" r="19.841"/>
<circle cx="528.841" cy="19.841" r="19.841"/>
<circle cx="772.112" cy="82.215" r="19.841"/>
<circle cx="425.686" cy="82.215" r="19.842"/>
<circle cx="361.253" cy="361.254" r="19.841"/>
<circle cx="231.853" cy="147" r="19.841"/>
<circle cx="139.929" cy="238.924" r="19.841"/>
<circle cx="356.053" cy="111.011" r="19.842"/>
<circle cx="111.092" cy="355.971" r="19.842"/>
<g>
</g>
<g>
</g>
<g>
</g>
<g>
</g>
<g>
</g>
<g>
</g>
<g>
</g>
<g>
</g>
<g>
</g>
<g>
</g>
<g>
</g>
<g>
</g>
<g>
</g>
<g>
</g>
<g>
</g>
</svg>
