<?xml version="1.0" encoding="utf-8"?>
<!-- Generator: Adobe Illustrator 16.0.0, SVG Export Plug-In . SVG Version: 6.00 Build 0)  -->
<!DOCTYPE svg PUBLIC "-//W3C//DTD SVG 1.1//EN" "http://www.w3.org/Graphics/SVG/1.1/DTD/svg11.dtd">
<svg version="1.1" id="Layer_1" xmlns="http://www.w3.org/2000/svg" xmlns:xlink="http://www.w3.org/1999/xlink" x="0px" y="0px"
	 width="1920px" height="1079.999px" viewBox="0 0 1920 1079.999" enable-background="new 0 0 1920 1079.999" xml:space="preserve">
<g>
	<path d="M691.694,491.32h-3.375v-25.594h3.375V491.32z"/>
	<path d="M697.864,491.32v-25.594h7.225c2.227,0,4.195,0.492,5.906,1.477s3.032,2.385,3.964,4.201s1.403,3.902,1.415,6.258v1.635
		c0,2.414-0.466,4.529-1.397,6.346s-2.262,3.211-3.99,4.184s-3.741,1.471-6.038,1.494H697.864z M701.239,468.486v20.074h3.551
		c2.602,0,4.626-0.809,6.073-2.428s2.171-3.923,2.171-6.915v-1.496c0-2.909-0.683-5.169-2.048-6.782
		c-1.365-1.612-3.302-2.431-5.81-2.454H701.239z"/>
</g>
<g>
	<path d="M697.301,551.81h-2.109v-23.063l-6.961,2.584v-1.969l8.719-3.234h0.352V551.81z"/>
</g>
<g>
	<path d="M703.542,612.299H687.51v-1.617l8.771-9.949c1.453-1.676,2.461-3.059,3.023-4.148s0.844-2.15,0.844-3.182
		c0-1.617-0.475-2.897-1.424-3.841s-2.256-1.415-3.92-1.415c-1.723,0-3.114,0.551-4.175,1.652s-1.591,2.531-1.591,4.289h-2.092
		c0-1.441,0.325-2.754,0.976-3.938s1.576-2.112,2.777-2.786s2.569-1.011,4.104-1.011c2.344,0,4.175,0.615,5.493,1.846
		s1.978,2.906,1.978,5.027c0,1.195-0.372,2.502-1.116,3.92s-2.054,3.188-3.929,5.309l-7.137,8.068h13.447V612.299z"/>
</g>
<rect x="674.114" y="450.286" fill="none" stroke="#000000" stroke-width="1.5" stroke-miterlimit="10" width="67.963" height="59.895"/>
<rect x="674.114" y="509.925" fill="none" stroke="#000000" stroke-width="1.5" stroke-miterlimit="10" width="67.963" height="59.893"/>
<rect x="674.114" y="569.817" fill="none" stroke="#000000" stroke-width="1.5" stroke-miterlimit="10" width="67.963" height="59.895"/>
<g>
	<path d="M770.017,480.018h-10.74v11.303h-3.375v-25.594h15.855v2.76h-12.48v8.771h10.74V480.018z"/>
	<path d="M775.308,467.256c0-0.527,0.161-0.973,0.483-1.336s0.8-0.545,1.433-0.545s1.113,0.182,1.441,0.545s0.492,0.809,0.492,1.336
		s-0.164,0.967-0.492,1.318s-0.809,0.527-1.441,0.527s-1.11-0.176-1.433-0.527S775.308,467.783,775.308,467.256z M778.824,491.32
		h-3.252v-19.02h3.252V491.32z"/>
	<path d="M793.22,475.219c-0.492-0.082-1.025-0.123-1.6-0.123c-2.133,0-3.58,0.908-4.342,2.725v13.5h-3.252v-19.02h3.164
		l0.053,2.197c1.066-1.699,2.578-2.549,4.535-2.549c0.633,0,1.113,0.082,1.441,0.246V475.219z"/>
	<path d="M807.283,486.275c0-0.879-0.331-1.562-0.993-2.048s-1.816-0.905-3.463-1.257s-2.953-0.773-3.92-1.266
		s-1.682-1.078-2.145-1.758s-0.694-1.488-0.694-2.426c0-1.559,0.659-2.877,1.978-3.955s3.003-1.617,5.054-1.617
		c2.156,0,3.905,0.557,5.247,1.67s2.013,2.537,2.013,4.271h-3.27c0-0.891-0.378-1.658-1.134-2.303s-1.708-0.967-2.856-0.967
		c-1.184,0-2.109,0.258-2.777,0.773s-1.002,1.189-1.002,2.021c0,0.785,0.311,1.377,0.932,1.775s1.743,0.779,3.366,1.143
		s2.938,0.797,3.946,1.301s1.755,1.11,2.241,1.819s0.729,1.573,0.729,2.593c0,1.699-0.68,3.062-2.039,4.087
		s-3.123,1.538-5.291,1.538c-1.523,0-2.871-0.27-4.043-0.809s-2.089-1.292-2.751-2.259s-0.993-2.013-0.993-3.138h3.252
		c0.059,1.09,0.495,1.954,1.31,2.593s1.89,0.958,3.226,0.958c1.23,0,2.218-0.249,2.962-0.747S807.283,487.107,807.283,486.275z"/>
	<path d="M819.183,467.695v4.605h3.551v2.514h-3.551v11.81c0,0.763,0.158,1.335,0.475,1.716s0.855,0.572,1.617,0.572
		c0.375,0,0.891-0.07,1.547-0.211v2.621c-0.855,0.233-1.688,0.35-2.496,0.35c-1.453,0-2.549-0.439-3.287-1.318
		s-1.107-2.127-1.107-3.744v-11.795h-3.463v-2.514h3.463v-4.605H819.183z"/>
</g>
<g>
	<path d="M1028.975,488.561h12.129v2.76h-15.521v-25.594h3.393V488.561z"/>
	<path d="M1056.186,491.32c-0.188-0.375-0.34-1.043-0.457-2.004c-1.512,1.57-3.316,2.355-5.414,2.355
		c-1.875,0-3.413-0.53-4.614-1.591s-1.802-2.405-1.802-4.034c0-1.98,0.753-3.519,2.259-4.614s3.624-1.644,6.354-1.644h3.164v-1.494
		c0-1.137-0.34-2.042-1.02-2.716s-1.682-1.011-3.006-1.011c-1.16,0-2.133,0.293-2.918,0.879s-1.178,1.295-1.178,2.127h-3.27
		c0-0.949,0.337-1.866,1.011-2.751s1.588-1.585,2.742-2.101s2.423-0.773,3.806-0.773c2.191,0,3.908,0.548,5.15,1.644
		s1.887,2.604,1.934,4.526v8.754c0,1.746,0.223,3.135,0.668,4.166v0.281H1056.186z M1050.79,488.842c1.02,0,1.986-0.264,2.9-0.791
		s1.576-1.213,1.986-2.057v-3.902h-2.549c-3.984,0-5.977,1.166-5.977,3.498c0,1.02,0.34,1.816,1.02,2.391
		S1049.723,488.842,1050.79,488.842z"/>
	<path d="M1075.1,486.275c0-0.879-0.331-1.562-0.993-2.048s-1.816-0.905-3.463-1.257s-2.953-0.773-3.92-1.266
		s-1.682-1.078-2.145-1.758s-0.694-1.488-0.694-2.426c0-1.559,0.659-2.877,1.978-3.955s3.003-1.617,5.054-1.617
		c2.156,0,3.905,0.557,5.247,1.67s2.013,2.537,2.013,4.271h-3.27c0-0.891-0.378-1.658-1.134-2.303s-1.708-0.967-2.856-0.967
		c-1.184,0-2.109,0.258-2.777,0.773s-1.002,1.189-1.002,2.021c0,0.785,0.311,1.377,0.932,1.775s1.743,0.779,3.366,1.143
		s2.938,0.797,3.946,1.301s1.755,1.11,2.241,1.819s0.729,1.573,0.729,2.593c0,1.699-0.68,3.062-2.039,4.087
		s-3.123,1.538-5.291,1.538c-1.523,0-2.871-0.27-4.043-0.809s-2.089-1.292-2.751-2.259s-0.993-2.013-0.993-3.138h3.252
		c0.059,1.09,0.495,1.954,1.31,2.593s1.89,0.958,3.226,0.958c1.23,0,2.218-0.249,2.962-0.747S1075.1,487.107,1075.1,486.275z"/>
	<path d="M1087,467.695v4.605h3.551v2.514H1087v11.81c0,0.763,0.158,1.335,0.475,1.716s0.855,0.572,1.617,0.572
		c0.375,0,0.891-0.07,1.547-0.211v2.621c-0.855,0.233-1.688,0.35-2.496,0.35c-1.453,0-2.549-0.439-3.287-1.318
		s-1.107-2.127-1.107-3.744v-11.795h-3.463v-2.514h3.463v-4.605H1087z"/>
</g>
<g>
	<path d="M759.031,526.216l9.439,22.588l9.475-22.588h2.883v25.594h-2.162v-11.145l0.176-11.426l-9.527,22.57h-1.67l-9.492-22.482
		l0.176,11.268v11.215h-2.162v-25.594H759.031z"/>
	<path d="M798.828,551.81c-0.211-0.598-0.346-1.482-0.404-2.654c-0.738,0.961-1.679,1.702-2.821,2.224s-2.353,0.782-3.63,0.782
		c-1.828,0-3.308-0.51-4.438-1.529s-1.696-2.309-1.696-3.867c0-1.852,0.771-3.316,2.312-4.395s3.688-1.617,6.442-1.617h3.814v-2.162
		c0-1.359-0.419-2.429-1.257-3.208s-2.06-1.169-3.665-1.169c-1.465,0-2.678,0.375-3.639,1.125s-1.441,1.652-1.441,2.707
		l-2.109-0.018c0-1.512,0.703-2.821,2.109-3.929s3.135-1.661,5.186-1.661c2.121,0,3.794,0.53,5.019,1.591s1.854,2.54,1.89,4.438v9
		c0,1.84,0.193,3.217,0.58,4.131v0.211H798.828z M792.218,550.298c1.406,0,2.663-0.34,3.771-1.02s1.913-1.588,2.417-2.725v-4.184
		h-3.762c-2.098,0.023-3.738,0.407-4.922,1.151s-1.775,1.767-1.775,3.067c0,1.066,0.396,1.951,1.187,2.654
		S790.953,550.298,792.218,550.298z"/>
	<path d="M805.261,542.124c0-2.953,0.659-5.306,1.978-7.058s3.108-2.628,5.37-2.628c2.566,0,4.523,1.014,5.871,3.041v-10.67h2.092
		v27h-1.969l-0.088-2.531c-1.348,1.922-3.328,2.883-5.941,2.883c-2.191,0-3.958-0.882-5.3-2.646s-2.013-4.146-2.013-7.146V542.124z
		 M807.388,542.493c0,2.426,0.486,4.339,1.459,5.739s2.344,2.101,4.113,2.101c2.59,0,4.43-1.143,5.52-3.428v-8.93
		c-1.09-2.473-2.918-3.709-5.484-3.709c-1.77,0-3.146,0.694-4.131,2.083S807.388,539.786,807.388,542.493z"/>
	<path d="M837.5,546.976c0-1.043-0.419-1.881-1.257-2.514s-2.101-1.128-3.788-1.485s-2.997-0.768-3.929-1.23
		s-1.623-1.028-2.074-1.696s-0.677-1.477-0.677-2.426c0-1.5,0.627-2.739,1.881-3.718s2.859-1.468,4.816-1.468
		c2.121,0,3.823,0.524,5.106,1.573s1.925,2.417,1.925,4.104h-2.109c0-1.113-0.466-2.039-1.397-2.777s-2.106-1.107-3.524-1.107
		c-1.383,0-2.493,0.308-3.331,0.923s-1.257,1.415-1.257,2.399c0,0.949,0.349,1.685,1.046,2.206s1.969,0.999,3.814,1.433
		s3.229,0.896,4.148,1.389s1.603,1.084,2.048,1.775s0.668,1.529,0.668,2.514c0,1.605-0.647,2.889-1.942,3.85
		s-2.985,1.441-5.071,1.441c-2.215,0-4.011-0.536-5.388-1.608s-2.065-2.429-2.065-4.069h2.109c0.082,1.23,0.601,2.188,1.556,2.874
		s2.218,1.028,3.788,1.028c1.465,0,2.648-0.322,3.551-0.967S837.5,547.96,837.5,546.976z"/>
</g>
<g>
	<path fill="#00A651" d="M458.685,545.517c0-1.418-0.498-2.54-1.494-3.366s-2.818-1.611-5.467-2.355s-4.582-1.556-5.801-2.435
		c-1.734-1.242-2.602-2.871-2.602-4.887c0-1.957,0.806-3.548,2.417-4.772s3.671-1.837,6.179-1.837c1.699,0,3.22,0.328,4.562,0.984
		s2.382,1.57,3.12,2.742s1.107,2.479,1.107,3.92h-2.18c0-1.751-0.598-3.159-1.793-4.223c-1.195-1.063-2.801-1.596-4.816-1.596
		c-1.957,0-3.516,0.438-4.676,1.312c-1.16,0.875-1.74,2.016-1.74,3.424c0,1.303,0.521,2.365,1.564,3.187s2.713,1.546,5.01,2.174
		s4.037,1.279,5.221,1.953s2.074,1.479,2.672,2.417s0.896,2.045,0.896,3.322c0,2.016-0.806,3.633-2.417,4.852
		s-3.735,1.828-6.372,1.828c-1.805,0-3.46-0.322-4.966-0.967s-2.648-1.547-3.428-2.707s-1.169-2.49-1.169-3.99h2.162
		c0,1.805,0.674,3.229,2.021,4.271s3.141,1.564,5.379,1.564c1.992,0,3.592-0.439,4.799-1.318S458.685,546.97,458.685,545.517z"/>
	<path fill="#00A651" d="M477.265,549.401c-1.266,1.84-3.287,2.76-6.064,2.76c-2.027,0-3.568-0.589-4.623-1.767
		s-1.594-2.921-1.617-5.229V532.79h2.092v12.111c0,3.621,1.465,5.432,4.395,5.432c3.047,0,4.975-1.26,5.783-3.779V532.79h2.109
		v19.02H477.3L477.265,549.401z"/>
	<path fill="#00A651" d="M500.117,542.493c0,2.965-0.656,5.317-1.969,7.058s-3.076,2.61-5.291,2.61
		c-2.648,0-4.652-0.984-6.012-2.953l-0.088,2.602h-1.969v-27h2.092v10.74c1.336-2.074,3.316-3.111,5.941-3.111
		c2.25,0,4.028,0.858,5.335,2.575s1.96,4.104,1.96,7.163V542.493z M498.007,542.124c0-2.508-0.486-4.444-1.459-5.81
		s-2.344-2.048-4.113-2.048c-1.348,0-2.49,0.331-3.428,0.993s-1.646,1.632-2.127,2.909v8.578c1.055,2.391,2.918,3.586,5.59,3.586
		c1.734,0,3.091-0.686,4.069-2.057S498.007,544.854,498.007,542.124z"/>
	<path fill="#00A651" d="M507.025,532.79v21.287c0,1.758-0.422,3.1-1.266,4.025s-2.086,1.389-3.727,1.389
		c-0.633,0-1.248-0.11-1.846-0.331l0.035-1.726c0.516,0.152,1.043,0.229,1.582,0.229c2.086,0,3.129-1.202,3.129-3.606V532.79
		H507.025z M505.988,525.882c0.457,0,0.814,0.137,1.072,0.411s0.387,0.608,0.387,1.004s-0.129,0.728-0.387,0.996
		c-0.258,0.268-0.615,0.402-1.072,0.402c-0.445,0-0.794-0.134-1.046-0.402c-0.252-0.268-0.378-0.6-0.378-0.996
		s0.126-0.731,0.378-1.004S505.542,525.882,505.988,525.882z"/>
	<path fill="#00A651" d="M520.332,552.161c-1.617,0-3.079-0.398-4.386-1.195s-2.323-1.907-3.05-3.331s-1.09-3.021-1.09-4.79v-0.756
		c0-1.828,0.354-3.475,1.063-4.939s1.696-2.616,2.962-3.454s2.637-1.257,4.113-1.257c2.309,0,4.14,0.788,5.493,2.364
		s2.03,3.729,2.03,6.46v1.178h-13.57v0.404c0,2.156,0.618,3.952,1.854,5.388s2.792,2.153,4.667,2.153
		c1.125,0,2.118-0.205,2.979-0.615s1.644-1.066,2.347-1.969l1.318,1.002C525.517,551.042,523.273,552.161,520.332,552.161z
		 M519.945,534.231c-1.582,0-2.915,0.58-3.999,1.74s-1.743,2.719-1.978,4.676h11.408v-0.229c-0.059-1.828-0.58-3.316-1.564-4.465
		S521.539,534.231,519.945,534.231z"/>
	<path fill="#00A651" d="M538.595,550.386c1.465,0,2.692-0.413,3.683-1.239s1.526-1.896,1.608-3.208h2.021
		c-0.059,1.16-0.422,2.218-1.09,3.173s-1.556,1.702-2.663,2.241s-2.294,0.809-3.56,0.809c-2.496,0-4.474-0.867-5.933-2.602
		s-2.188-4.066-2.188-6.996v-0.633c0-1.875,0.328-3.533,0.984-4.975s1.597-2.555,2.821-3.34s2.657-1.178,4.298-1.178
		c2.086,0,3.806,0.621,5.159,1.863s2.077,2.877,2.171,4.904h-2.021c-0.094-1.488-0.63-2.689-1.608-3.604s-2.212-1.371-3.7-1.371
		c-1.898,0-3.372,0.686-4.421,2.057s-1.573,3.293-1.573,5.766v0.615c0,2.426,0.524,4.318,1.573,5.678
		S536.685,550.386,538.595,550.386z"/>
	<path fill="#00A651" d="M553.378,527.921v4.869h3.938v1.723h-3.938v12.688c0,1.056,0.19,1.842,0.571,2.358
		c0.381,0.517,1.017,0.774,1.907,0.774c0.352,0,0.92-0.059,1.705-0.176l0.088,1.708c-0.551,0.197-1.301,0.296-2.25,0.296
		c-1.441,0-2.49-0.419-3.146-1.257s-0.984-2.071-0.984-3.7v-12.691h-3.498v-1.723h3.498v-4.869H553.378z"/>
</g>
<g>
	<path d="M1035.409,541.14h-7.436v10.67h-2.18v-25.594h8.314c2.73,0,4.863,0.661,6.398,1.984c1.535,1.322,2.303,3.172,2.303,5.548
		c0,1.639-0.48,3.084-1.441,4.336s-2.25,2.119-3.867,2.599l6.398,10.897v0.229h-2.303L1035.409,541.14z M1027.973,539.312h6.627
		c1.816,0,3.275-0.517,4.377-1.549s1.652-2.371,1.652-4.014c0-1.807-0.574-3.21-1.723-4.208s-2.76-1.497-4.834-1.497h-6.1V539.312z"
		/>
	<path d="M1060.211,551.81c-0.211-0.598-0.346-1.482-0.404-2.654c-0.738,0.961-1.679,1.702-2.821,2.224s-2.353,0.782-3.63,0.782
		c-1.828,0-3.308-0.51-4.438-1.529s-1.696-2.309-1.696-3.867c0-1.852,0.771-3.316,2.312-4.395s3.688-1.617,6.442-1.617h3.814v-2.162
		c0-1.359-0.419-2.429-1.257-3.208s-2.06-1.169-3.665-1.169c-1.465,0-2.678,0.375-3.639,1.125s-1.441,1.652-1.441,2.707
		l-2.109-0.018c0-1.512,0.703-2.821,2.109-3.929s3.135-1.661,5.186-1.661c2.121,0,3.794,0.53,5.019,1.591s1.854,2.54,1.89,4.438v9
		c0,1.84,0.193,3.217,0.58,4.131v0.211H1060.211z M1053.602,550.298c1.406,0,2.663-0.34,3.771-1.02s1.913-1.588,2.417-2.725v-4.184
		h-3.762c-2.098,0.023-3.738,0.407-4.922,1.151s-1.775,1.767-1.775,3.067c0,1.066,0.396,1.951,1.187,2.654
		S1052.336,550.298,1053.602,550.298z"/>
	<path d="M1078.879,546.976c0-1.043-0.419-1.881-1.257-2.514s-2.101-1.128-3.788-1.485s-2.997-0.768-3.929-1.23
		s-1.623-1.028-2.074-1.696s-0.677-1.477-0.677-2.426c0-1.5,0.627-2.739,1.881-3.718s2.859-1.468,4.816-1.468
		c2.121,0,3.823,0.524,5.106,1.573s1.925,2.417,1.925,4.104h-2.109c0-1.113-0.466-2.039-1.397-2.777s-2.106-1.107-3.524-1.107
		c-1.383,0-2.493,0.308-3.331,0.923s-1.257,1.415-1.257,2.399c0,0.949,0.349,1.685,1.046,2.206s1.969,0.999,3.814,1.433
		s3.229,0.896,4.148,1.389s1.603,1.084,2.048,1.775s0.668,1.529,0.668,2.514c0,1.605-0.647,2.889-1.942,3.85
		s-2.985,1.441-5.071,1.441c-2.215,0-4.011-0.536-5.388-1.608s-2.065-2.429-2.065-4.069h2.109c0.082,1.23,0.601,2.188,1.556,2.874
		s2.218,1.028,3.788,1.028c1.465,0,2.648-0.322,3.551-0.967S1078.879,547.96,1078.879,546.976z"/>
	<path d="M1087.633,532.79l0.07,3.094c0.703-1.148,1.582-2.01,2.637-2.584s2.227-0.861,3.516-0.861c3,0,4.904,1.23,5.713,3.691
		c0.68-1.184,1.588-2.095,2.725-2.733s2.391-0.958,3.762-0.958c4.078,0,6.158,2.227,6.24,6.68v12.691h-2.109v-12.533
		c-0.012-1.699-0.378-2.959-1.099-3.779s-1.896-1.23-3.524-1.23c-1.512,0.023-2.789,0.513-3.832,1.468s-1.623,2.118-1.74,3.489
		v12.586h-2.109v-12.691c-0.012-1.629-0.396-2.845-1.151-3.647s-1.919-1.204-3.489-1.204c-1.324,0-2.461,0.378-3.41,1.134
		s-1.652,1.878-2.109,3.366v13.043h-2.109v-19.02H1087.633z"/>
	<path d="M1129.856,549.401c-1.266,1.84-3.287,2.76-6.064,2.76c-2.027,0-3.568-0.589-4.623-1.767s-1.594-2.921-1.617-5.229V532.79
		h2.092v12.111c0,3.621,1.465,5.432,4.395,5.432c3.047,0,4.975-1.26,5.783-3.779V532.79h2.109v19.02h-2.039L1129.856,549.401z"/>
	<path d="M1148.788,546.976c0-1.043-0.419-1.881-1.257-2.514s-2.101-1.128-3.788-1.485s-2.997-0.768-3.929-1.23
		s-1.623-1.028-2.074-1.696s-0.677-1.477-0.677-2.426c0-1.5,0.627-2.739,1.881-3.718s2.859-1.468,4.816-1.468
		c2.121,0,3.823,0.524,5.106,1.573s1.925,2.417,1.925,4.104h-2.109c0-1.113-0.466-2.039-1.397-2.777s-2.106-1.107-3.524-1.107
		c-1.383,0-2.493,0.308-3.331,0.923s-1.257,1.415-1.257,2.399c0,0.949,0.349,1.685,1.046,2.206s1.969,0.999,3.814,1.433
		s3.229,0.896,4.148,1.389s1.603,1.084,2.048,1.775s0.668,1.529,0.668,2.514c0,1.605-0.647,2.889-1.942,3.85
		s-2.985,1.441-5.071,1.441c-2.215,0-4.011-0.536-5.388-1.608s-2.065-2.429-2.065-4.069h2.109c0.082,1.23,0.601,2.188,1.556,2.874
		s2.218,1.028,3.788,1.028c1.465,0,2.648-0.322,3.551-0.967S1148.788,547.96,1148.788,546.976z"/>
	<path d="M1167.016,546.976c0-1.043-0.419-1.881-1.257-2.514s-2.101-1.128-3.788-1.485s-2.997-0.768-3.929-1.23
		s-1.623-1.028-2.074-1.696s-0.677-1.477-0.677-2.426c0-1.5,0.627-2.739,1.881-3.718s2.859-1.468,4.816-1.468
		c2.121,0,3.823,0.524,5.106,1.573s1.925,2.417,1.925,4.104h-2.109c0-1.113-0.466-2.039-1.397-2.777s-2.106-1.107-3.524-1.107
		c-1.383,0-2.493,0.308-3.331,0.923s-1.257,1.415-1.257,2.399c0,0.949,0.349,1.685,1.046,2.206s1.969,0.999,3.814,1.433
		s3.229,0.896,4.148,1.389s1.603,1.084,2.048,1.775s0.668,1.529,0.668,2.514c0,1.605-0.647,2.889-1.942,3.85
		s-2.985,1.441-5.071,1.441c-2.215,0-4.011-0.536-5.388-1.608s-2.065-2.429-2.065-4.069h2.109c0.082,1.23,0.601,2.188,1.556,2.874
		s2.218,1.028,3.788,1.028c1.465,0,2.648-0.322,3.551-0.967S1167.016,547.96,1167.016,546.976z"/>
	<path d="M1181.219,552.161c-1.617,0-3.079-0.398-4.386-1.195s-2.323-1.907-3.05-3.331s-1.09-3.021-1.09-4.79v-0.756
		c0-1.828,0.354-3.475,1.063-4.939s1.696-2.616,2.962-3.454s2.637-1.257,4.113-1.257c2.309,0,4.14,0.788,5.493,2.364
		s2.03,3.729,2.03,6.46v1.178h-13.57v0.404c0,2.156,0.618,3.952,1.854,5.388s2.792,2.153,4.667,2.153
		c1.125,0,2.118-0.205,2.979-0.615s1.644-1.066,2.347-1.969l1.318,1.002C1186.405,551.042,1184.161,552.161,1181.219,552.161z
		 M1180.833,534.231c-1.582,0-2.915,0.58-3.999,1.74s-1.743,2.719-1.978,4.676h11.408v-0.229c-0.059-1.828-0.58-3.316-1.564-4.465
		S1182.426,534.231,1180.833,534.231z"/>
	<path d="M1194.456,532.79l0.07,3.252c0.715-1.172,1.605-2.065,2.672-2.681s2.244-0.923,3.533-0.923
		c2.039,0,3.557,0.574,4.553,1.723s1.5,2.871,1.512,5.168v12.48h-2.092v-12.498c-0.012-1.699-0.372-2.965-1.081-3.797
		s-1.843-1.248-3.401-1.248c-1.301,0-2.452,0.407-3.454,1.222s-1.743,1.913-2.224,3.296v13.025h-2.092v-19.02H1194.456z"/>
</g>
<g>
	<path d="M769.982,605.109h-11.619l-2.637,7.189h-2.268l9.686-25.594h2.057l9.686,25.594h-2.25L769.982,605.109z M759.031,603.281
		h10.266l-5.133-13.939L759.031,603.281z"/>
	<path d="M780.511,612.299h-2.109v-27h2.109V612.299z"/>
	<path d="M793.589,612.65c-1.617,0-3.079-0.398-4.386-1.195s-2.323-1.907-3.05-3.331s-1.09-3.021-1.09-4.79v-0.756
		c0-1.828,0.354-3.475,1.063-4.939s1.696-2.616,2.962-3.454s2.637-1.257,4.113-1.257c2.309,0,4.14,0.788,5.493,2.364
		s2.03,3.729,2.03,6.46v1.178h-13.57v0.404c0,2.156,0.618,3.952,1.854,5.388s2.792,2.153,4.667,2.153
		c1.125,0,2.118-0.205,2.979-0.615s1.644-1.066,2.347-1.969l1.318,1.002C798.775,611.531,796.531,612.65,793.589,612.65z
		 M793.203,594.721c-1.582,0-2.915,0.58-3.999,1.74s-1.743,2.719-1.978,4.676h11.408v-0.229c-0.059-1.828-0.58-3.316-1.564-4.465
		S794.796,594.721,793.203,594.721z"/>
	<path d="M810.798,600.996l5.133-7.717h2.496l-6.451,9.334l6.732,9.686h-2.479l-5.414-8.051l-5.414,8.051h-2.479l6.715-9.686
		l-6.451-9.334h2.479L810.798,600.996z"/>
	<path d="M834.335,612.299c-0.211-0.598-0.346-1.482-0.404-2.654c-0.738,0.961-1.679,1.702-2.821,2.224s-2.353,0.782-3.63,0.782
		c-1.828,0-3.308-0.51-4.438-1.529s-1.696-2.309-1.696-3.867c0-1.852,0.771-3.316,2.312-4.395s3.688-1.617,6.442-1.617h3.814v-2.162
		c0-1.359-0.419-2.429-1.257-3.208s-2.06-1.169-3.665-1.169c-1.465,0-2.678,0.375-3.639,1.125s-1.441,1.652-1.441,2.707
		l-2.109-0.018c0-1.512,0.703-2.821,2.109-3.929s3.135-1.661,5.186-1.661c2.121,0,3.794,0.53,5.019,1.591s1.854,2.54,1.89,4.438v9
		c0,1.84,0.193,3.217,0.58,4.131v0.211H834.335z M827.726,610.787c1.406,0,2.663-0.34,3.771-1.02s1.913-1.588,2.417-2.725v-4.184
		h-3.762c-2.098,0.023-3.738,0.407-4.922,1.151s-1.775,1.767-1.775,3.067c0,1.066,0.396,1.951,1.187,2.654
		S826.46,610.787,827.726,610.787z"/>
	<path d="M843.617,593.279l0.07,3.252c0.715-1.172,1.605-2.065,2.672-2.681s2.244-0.923,3.533-0.923
		c2.039,0,3.557,0.574,4.553,1.723s1.5,2.871,1.512,5.168v12.48h-2.092v-12.498c-0.012-1.699-0.372-2.965-1.081-3.797
		s-1.843-1.248-3.401-1.248c-1.301,0-2.452,0.407-3.454,1.222s-1.743,1.913-2.224,3.296v13.025h-2.092v-19.02H843.617z"/>
	<path d="M860.544,602.613c0-2.953,0.659-5.306,1.978-7.058s3.108-2.628,5.37-2.628c2.566,0,4.523,1.014,5.871,3.041v-10.67h2.092
		v27h-1.969l-0.088-2.531c-1.348,1.922-3.328,2.883-5.941,2.883c-2.191,0-3.958-0.882-5.3-2.646s-2.013-4.146-2.013-7.146V602.613z
		 M862.671,602.982c0,2.426,0.486,4.339,1.459,5.739s2.344,2.101,4.113,2.101c2.59,0,4.43-1.143,5.52-3.428v-8.93
		c-1.09-2.473-2.918-3.709-5.484-3.709c-1.77,0-3.146,0.694-4.131,2.083S862.671,600.275,862.671,602.982z"/>
	<path d="M888.757,612.65c-1.617,0-3.079-0.398-4.386-1.195s-2.323-1.907-3.05-3.331s-1.09-3.021-1.09-4.79v-0.756
		c0-1.828,0.354-3.475,1.063-4.939s1.696-2.616,2.962-3.454s2.637-1.257,4.113-1.257c2.309,0,4.14,0.788,5.493,2.364
		s2.03,3.729,2.03,6.46v1.178h-13.57v0.404c0,2.156,0.618,3.952,1.854,5.388s2.792,2.153,4.667,2.153
		c1.125,0,2.118-0.205,2.979-0.615s1.644-1.066,2.347-1.969l1.318,1.002C893.943,611.531,891.699,612.65,888.757,612.65z
		 M888.371,594.721c-1.582,0-2.915,0.58-3.999,1.74s-1.743,2.719-1.978,4.676h11.408v-0.229c-0.059-1.828-0.58-3.316-1.564-4.465
		S889.964,594.721,888.371,594.721z"/>
	<path d="M908.779,595.072c-0.445-0.082-0.92-0.123-1.424-0.123c-1.313,0-2.423,0.366-3.331,1.099s-1.556,1.796-1.942,3.19v13.061
		h-2.092v-19.02h2.057l0.035,3.023c1.113-2.25,2.9-3.375,5.361-3.375c0.586,0,1.049,0.076,1.389,0.229L908.779,595.072z"/>
</g>
<g>
	<path d="M1040.331,606.006c0-1.418-0.498-2.54-1.494-3.366s-2.818-1.611-5.467-2.355s-4.582-1.556-5.801-2.435
		c-1.734-1.242-2.602-2.871-2.602-4.887c0-1.957,0.806-3.548,2.417-4.772s3.671-1.837,6.179-1.837c1.699,0,3.22,0.328,4.562,0.984
		s2.382,1.57,3.12,2.742s1.107,2.479,1.107,3.92h-2.18c0-1.751-0.598-3.159-1.793-4.223c-1.195-1.063-2.801-1.596-4.816-1.596
		c-1.957,0-3.516,0.438-4.676,1.312c-1.16,0.875-1.74,2.016-1.74,3.424c0,1.303,0.521,2.365,1.564,3.187s2.713,1.546,5.01,2.174
		s4.037,1.279,5.221,1.953s2.074,1.479,2.672,2.417s0.896,2.045,0.896,3.322c0,2.016-0.806,3.633-2.417,4.852
		s-3.735,1.828-6.372,1.828c-1.805,0-3.46-0.322-4.966-0.967s-2.648-1.547-3.428-2.707s-1.169-2.49-1.169-3.99h2.162
		c0,1.805,0.674,3.229,2.021,4.271s3.141,1.564,5.379,1.564c1.992,0,3.592-0.439,4.799-1.318S1040.331,607.459,1040.331,606.006z"/>
	<path d="M1053.708,610.875c1.465,0,2.692-0.413,3.683-1.239s1.526-1.896,1.608-3.208h2.021c-0.059,1.16-0.422,2.218-1.09,3.173
		s-1.556,1.702-2.663,2.241s-2.294,0.809-3.56,0.809c-2.496,0-4.474-0.867-5.933-2.602s-2.188-4.066-2.188-6.996v-0.633
		c0-1.875,0.328-3.533,0.984-4.975s1.597-2.555,2.821-3.34s2.657-1.178,4.298-1.178c2.086,0,3.806,0.621,5.159,1.863
		s2.077,2.877,2.171,4.904h-2.021c-0.094-1.488-0.63-2.689-1.608-3.604s-2.212-1.371-3.7-1.371c-1.898,0-3.372,0.686-4.421,2.057
		s-1.573,3.293-1.573,5.766v0.615c0,2.426,0.524,4.318,1.573,5.678S1051.797,610.875,1053.708,610.875z"/>
	<path d="M1067.313,596.496c0.691-1.137,1.576-2.016,2.654-2.637s2.256-0.932,3.533-0.932c2.039,0,3.557,0.574,4.553,1.723
		s1.5,2.871,1.512,5.168v12.48h-2.092v-12.498c-0.012-1.699-0.372-2.965-1.081-3.797s-1.843-1.248-3.401-1.248
		c-1.301,0-2.452,0.407-3.454,1.222s-1.743,1.913-2.224,3.296v13.025h-2.092v-27h2.092V596.496z"/>
	<path d="M1087.334,612.299h-2.109v-27h2.109V612.299z"/>
	<path d="M1105.053,612.299c-0.211-0.598-0.346-1.482-0.404-2.654c-0.738,0.961-1.679,1.702-2.821,2.224s-2.353,0.782-3.63,0.782
		c-1.828,0-3.308-0.51-4.438-1.529s-1.696-2.309-1.696-3.867c0-1.852,0.771-3.316,2.312-4.395s3.688-1.617,6.442-1.617h3.814v-2.162
		c0-1.359-0.419-2.429-1.257-3.208s-2.06-1.169-3.665-1.169c-1.465,0-2.678,0.375-3.639,1.125s-1.441,1.652-1.441,2.707
		l-2.109-0.018c0-1.512,0.703-2.821,2.109-3.929s3.135-1.661,5.186-1.661c2.121,0,3.794,0.53,5.019,1.591s1.854,2.54,1.89,4.438v9
		c0,1.84,0.193,3.217,0.58,4.131v0.211H1105.053z M1098.444,610.787c1.406,0,2.663-0.34,3.771-1.02s1.913-1.588,2.417-2.725v-4.184
		h-3.762c-2.098,0.023-3.738,0.407-4.922,1.151s-1.775,1.767-1.775,3.067c0,1.066,0.396,1.951,1.187,2.654
		S1097.178,610.787,1098.444,610.787z"/>
	<path d="M1119.362,610.875c1.465,0,2.692-0.413,3.683-1.239s1.526-1.896,1.608-3.208h2.021c-0.059,1.16-0.422,2.218-1.09,3.173
		s-1.556,1.702-2.663,2.241s-2.294,0.809-3.56,0.809c-2.496,0-4.474-0.867-5.933-2.602s-2.188-4.066-2.188-6.996v-0.633
		c0-1.875,0.328-3.533,0.984-4.975s1.597-2.555,2.821-3.34s2.657-1.178,4.298-1.178c2.086,0,3.806,0.621,5.159,1.863
		s2.077,2.877,2.171,4.904h-2.021c-0.094-1.488-0.63-2.689-1.608-3.604s-2.212-1.371-3.7-1.371c-1.898,0-3.372,0.686-4.421,2.057
		s-1.573,3.293-1.573,5.766v0.615c0,2.426,0.524,4.318,1.573,5.678S1117.452,610.875,1119.362,610.875z"/>
	<path d="M1132.967,596.496c0.691-1.137,1.576-2.016,2.654-2.637s2.256-0.932,3.533-0.932c2.039,0,3.557,0.574,4.553,1.723
		s1.5,2.871,1.512,5.168v12.48h-2.092v-12.498c-0.012-1.699-0.372-2.965-1.081-3.797s-1.843-1.248-3.401-1.248
		c-1.301,0-2.452,0.407-3.454,1.222s-1.743,1.913-2.224,3.296v13.025h-2.092v-27h2.092V596.496z"/>
	<path d="M1153.903,588.41v4.869h3.938v1.723h-3.938v12.688c0,1.056,0.19,1.842,0.571,2.358c0.381,0.517,1.017,0.774,1.907,0.774
		c0.352,0,0.92-0.059,1.705-0.176l0.088,1.708c-0.551,0.197-1.301,0.296-2.25,0.296c-1.441,0-2.49-0.419-3.146-1.257
		s-0.984-2.071-0.984-3.7v-12.691h-3.498v-1.723h3.498v-4.869H1153.903z"/>
	<path d="M1169.565,612.65c-1.617,0-3.079-0.398-4.386-1.195s-2.323-1.907-3.05-3.331s-1.09-3.021-1.09-4.79v-0.756
		c0-1.828,0.354-3.475,1.063-4.939s1.696-2.616,2.962-3.454s2.637-1.257,4.113-1.257c2.309,0,4.14,0.788,5.493,2.364
		s2.03,3.729,2.03,6.46v1.178h-13.57v0.404c0,2.156,0.618,3.952,1.854,5.388s2.792,2.153,4.667,2.153
		c1.125,0,2.118-0.205,2.979-0.615s1.644-1.066,2.347-1.969l1.318,1.002C1174.75,611.531,1172.506,612.65,1169.565,612.65z
		 M1169.178,594.721c-1.582,0-2.915,0.58-3.999,1.74s-1.743,2.719-1.978,4.676h11.408v-0.229c-0.059-1.828-0.58-3.316-1.564-4.465
		S1170.772,594.721,1169.178,594.721z"/>
	<path d="M1189.586,595.072c-0.445-0.082-0.92-0.123-1.424-0.123c-1.313,0-2.423,0.366-3.331,1.099s-1.556,1.796-1.942,3.19v13.061
		h-2.092v-19.02h2.057l0.035,3.023c1.113-2.25,2.9-3.375,5.361-3.375c0.586,0,1.049,0.076,1.389,0.229L1189.586,595.072z"/>
</g>
<rect x="741.942" y="450.286" fill="none" stroke="#000000" stroke-width="1.5" stroke-miterlimit="10" width="252.041" height="59.895"/>
<rect x="993.983" y="450.286" fill="none" stroke="#000000" stroke-width="1.5" stroke-miterlimit="10" width="252.036" height="59.895"/>
<rect x="741.942" y="509.925" fill="none" stroke="#000000" stroke-width="1.5" stroke-miterlimit="10" width="252.041" height="59.893"/>
<rect x="993.983" y="509.925" fill="none" stroke="#000000" stroke-width="1.5" stroke-miterlimit="10" width="252.036" height="59.893"/>
<rect x="741.942" y="569.817" fill="none" stroke="#000000" stroke-width="1.5" stroke-miterlimit="10" width="252.041" height="59.895"/>
<rect x="993.983" y="569.817" fill="none" stroke="#000000" stroke-width="1.5" stroke-miterlimit="10" width="252.036" height="59.895"/>
<g>
	<g>
		<line fill="none" stroke="#00A651" stroke-width="3" stroke-miterlimit="10" x1="644.197" y1="539.87" x2="570.606" y2="539.87"/>
		<g>
			<polygon fill="#00A651" points="635.771,528.761 640.491,539.87 635.771,550.979 662.106,539.87 			"/>
		</g>
	</g>
</g>
<g>
	<path fill="#F26522" d="M458.685,605.411c0-1.418-0.498-2.54-1.494-3.366s-2.818-1.611-5.467-2.355s-4.582-1.556-5.801-2.435
		c-1.734-1.242-2.602-2.871-2.602-4.887c0-1.957,0.806-3.548,2.417-4.772s3.671-1.837,6.179-1.837c1.699,0,3.22,0.328,4.562,0.984
		s2.382,1.57,3.12,2.742s1.107,2.479,1.107,3.92h-2.18c0-1.751-0.598-3.159-1.793-4.223c-1.195-1.063-2.801-1.596-4.816-1.596
		c-1.957,0-3.516,0.438-4.676,1.312c-1.16,0.875-1.74,2.016-1.74,3.424c0,1.303,0.521,2.365,1.564,3.187s2.713,1.546,5.01,2.174
		s4.037,1.279,5.221,1.953s2.074,1.479,2.672,2.417s0.896,2.045,0.896,3.322c0,2.016-0.806,3.633-2.417,4.852
		s-3.735,1.828-6.372,1.828c-1.805,0-3.46-0.322-4.966-0.967s-2.648-1.547-3.428-2.707s-1.169-2.49-1.169-3.99h2.162
		c0,1.805,0.674,3.229,2.021,4.271s3.141,1.564,5.379,1.564c1.992,0,3.592-0.439,4.799-1.318S458.685,606.864,458.685,605.411z"/>
	<path fill="#F26522" d="M477.265,609.296c-1.266,1.84-3.287,2.76-6.064,2.76c-2.027,0-3.568-0.589-4.623-1.767
		s-1.594-2.921-1.617-5.229v-12.375h2.092v12.111c0,3.621,1.465,5.432,4.395,5.432c3.047,0,4.975-1.26,5.783-3.779v-13.764h2.109
		v19.02H477.3L477.265,609.296z"/>
	<path fill="#F26522" d="M500.117,602.388c0,2.965-0.656,5.317-1.969,7.058s-3.076,2.61-5.291,2.61
		c-2.648,0-4.652-0.984-6.012-2.953l-0.088,2.602h-1.969v-27h2.092v10.74c1.336-2.074,3.316-3.111,5.941-3.111
		c2.25,0,4.028,0.858,5.335,2.575s1.96,4.104,1.96,7.163V602.388z M498.007,602.019c0-2.508-0.486-4.444-1.459-5.81
		s-2.344-2.048-4.113-2.048c-1.348,0-2.49,0.331-3.428,0.993s-1.646,1.632-2.127,2.909v8.578c1.055,2.391,2.918,3.586,5.59,3.586
		c1.734,0,3.091-0.686,4.069-2.057S498.007,604.749,498.007,602.019z"/>
	<path fill="#F26522" d="M507.025,592.685v21.287c0,1.758-0.422,3.1-1.266,4.025s-2.086,1.389-3.727,1.389
		c-0.633,0-1.248-0.11-1.846-0.331l0.035-1.726c0.516,0.152,1.043,0.229,1.582,0.229c2.086,0,3.129-1.202,3.129-3.606v-21.267
		H507.025z M505.988,585.776c0.457,0,0.814,0.137,1.072,0.411s0.387,0.608,0.387,1.004s-0.129,0.728-0.387,0.996
		c-0.258,0.268-0.615,0.402-1.072,0.402c-0.445,0-0.794-0.134-1.046-0.402c-0.252-0.268-0.378-0.6-0.378-0.996
		s0.126-0.731,0.378-1.004S505.542,585.776,505.988,585.776z"/>
	<path fill="#F26522" d="M520.332,612.056c-1.617,0-3.079-0.398-4.386-1.195s-2.323-1.907-3.05-3.331s-1.09-3.021-1.09-4.79v-0.756
		c0-1.828,0.354-3.475,1.063-4.939s1.696-2.616,2.962-3.454s2.637-1.257,4.113-1.257c2.309,0,4.14,0.788,5.493,2.364
		s2.03,3.729,2.03,6.46v1.178h-13.57v0.404c0,2.156,0.618,3.952,1.854,5.388s2.792,2.153,4.667,2.153
		c1.125,0,2.118-0.205,2.979-0.615s1.644-1.066,2.347-1.969l1.318,1.002C525.517,610.937,523.273,612.056,520.332,612.056z
		 M519.945,594.126c-1.582,0-2.915,0.58-3.999,1.74s-1.743,2.719-1.978,4.676h11.408v-0.229c-0.059-1.828-0.58-3.316-1.564-4.465
		S521.539,594.126,519.945,594.126z"/>
	<path fill="#F26522" d="M538.595,610.28c1.465,0,2.692-0.413,3.683-1.239s1.526-1.896,1.608-3.208h2.021
		c-0.059,1.16-0.422,2.218-1.09,3.173s-1.556,1.702-2.663,2.241s-2.294,0.809-3.56,0.809c-2.496,0-4.474-0.867-5.933-2.602
		s-2.188-4.066-2.188-6.996v-0.633c0-1.875,0.328-3.533,0.984-4.975s1.597-2.555,2.821-3.34s2.657-1.178,4.298-1.178
		c2.086,0,3.806,0.621,5.159,1.863s2.077,2.877,2.171,4.904h-2.021c-0.094-1.488-0.63-2.689-1.608-3.604s-2.212-1.371-3.7-1.371
		c-1.898,0-3.372,0.686-4.421,2.057s-1.573,3.293-1.573,5.766v0.615c0,2.426,0.524,4.318,1.573,5.678S536.685,610.28,538.595,610.28
		z"/>
	<path fill="#F26522" d="M553.378,587.815v4.869h3.938v1.723h-3.938v12.688c0,1.056,0.19,1.842,0.571,2.358
		c0.381,0.517,1.017,0.774,1.907,0.774c0.352,0,0.92-0.059,1.705-0.176l0.088,1.708c-0.551,0.197-1.301,0.296-2.25,0.296
		c-1.441,0-2.49-0.419-3.146-1.257s-0.984-2.071-0.984-3.7v-12.691h-3.498v-1.723h3.498v-4.869H553.378z"/>
</g>
<g>
	<g>
		
			<line fill="none" stroke="#F26522" stroke-width="3" stroke-miterlimit="10" x1="644.197" y1="599.765" x2="570.606" y2="599.765"/>
		<g>
			<polygon fill="#F26522" points="635.771,588.655 640.491,599.765 635.771,610.874 662.106,599.765 			"/>
		</g>
	</g>
</g>
</svg>
