<?xml version="1.0" encoding="utf-8"?>
<!-- Generator: Adobe Illustrator 16.0.0, SVG Export Plug-In . SVG Version: 6.00 Build 0)  -->
<!DOCTYPE svg PUBLIC "-//W3C//DTD SVG 1.1//EN" "http://www.w3.org/Graphics/SVG/1.1/DTD/svg11.dtd">
<svg version="1.1" id="Layer_1" xmlns="http://www.w3.org/2000/svg" xmlns:xlink="http://www.w3.org/1999/xlink" x="0px" y="0px"
	 width="1920px" height="1079.999px" viewBox="0 0 1920 1079.999" enable-background="new 0 0 1920 1079.999" xml:space="preserve">
<g>
	<g>
		<path fill="#F26522" d="M1042.862,660.424c0,2.355-0.406,4.424-1.221,6.205s-1.979,3.152-3.49,4.113s-3.258,1.441-5.238,1.441
			c-2.988,0-5.402-1.069-7.242-3.208s-2.76-5.024-2.76-8.657v-2.637c0-2.332,0.414-4.397,1.24-6.196s1.994-3.182,3.506-4.148
			s3.252-1.45,5.221-1.45s3.707,0.475,5.213,1.424s2.668,2.291,3.488,4.025s1.248,3.744,1.283,6.029V660.424z M1040.7,657.646
			c0-3.082-0.697-5.496-2.092-7.242s-3.305-2.619-5.73-2.619c-2.379,0-4.273,0.876-5.686,2.628s-2.119,4.198-2.119,7.339v2.672
			c0,3.035,0.703,5.44,2.109,7.216s3.316,2.663,5.73,2.663c2.449,0,4.359-0.876,5.73-2.628s2.057-4.192,2.057-7.321V657.646z"/>
		<path fill="#F26522" d="M1063.13,662.516c0,2.965-0.656,5.317-1.969,7.058s-3.076,2.61-5.291,2.61
			c-2.648,0-4.652-0.984-6.012-2.953l-0.088,2.602h-1.969v-27h2.092v10.74c1.336-2.074,3.316-3.111,5.941-3.111
			c2.25,0,4.029,0.858,5.336,2.575s1.959,4.104,1.959,7.163V662.516z M1061.021,662.146c0-2.508-0.486-4.444-1.459-5.81
			s-2.344-2.048-4.113-2.048c-1.348,0-2.49,0.331-3.428,0.993s-1.646,1.632-2.127,2.909v8.578c1.055,2.391,2.918,3.586,5.59,3.586
			c1.734,0,3.092-0.686,4.07-2.057S1061.021,664.877,1061.021,662.146z"/>
		<path fill="#F26522" d="M1070.038,652.813V674.1c0,1.758-0.422,3.1-1.266,4.025s-2.086,1.389-3.727,1.389
			c-0.633,0-1.248-0.11-1.846-0.331l0.035-1.726c0.516,0.152,1.043,0.229,1.582,0.229c2.086,0,3.129-1.202,3.129-3.606v-21.267
			H1070.038z M1069.001,645.904c0.457,0,0.814,0.137,1.072,0.411s0.387,0.608,0.387,1.004s-0.129,0.728-0.387,0.996
			c-0.258,0.268-0.615,0.402-1.072,0.402c-0.445,0-0.793-0.134-1.045-0.402c-0.252-0.268-0.379-0.6-0.379-0.996
			s0.127-0.731,0.379-1.004S1068.556,645.904,1069.001,645.904z"/>
		<path fill="#F26522" d="M1083.345,672.184c-1.617,0-3.078-0.398-4.385-1.195s-2.324-1.907-3.051-3.331s-1.09-3.021-1.09-4.79
			v-0.756c0-1.828,0.355-3.475,1.064-4.939s1.695-2.616,2.961-3.454s2.637-1.257,4.113-1.257c2.309,0,4.141,0.788,5.494,2.364
			s2.029,3.729,2.029,6.46v1.178h-13.57v0.404c0,2.156,0.619,3.952,1.855,5.388s2.791,2.153,4.666,2.153
			c1.125,0,2.119-0.205,2.98-0.615s1.643-1.066,2.346-1.969l1.318,1.002C1088.53,671.064,1086.286,672.184,1083.345,672.184z
			 M1082.958,654.254c-1.582,0-2.914,0.58-3.998,1.74s-1.744,2.719-1.979,4.676h11.408v-0.229c-0.059-1.828-0.58-3.316-1.564-4.465
			S1084.552,654.254,1082.958,654.254z"/>
		<path fill="#F26522" d="M1101.608,670.408c1.465,0,2.693-0.413,3.684-1.239s1.525-1.896,1.607-3.208h2.021
			c-0.059,1.16-0.422,2.218-1.09,3.173s-1.555,1.702-2.662,2.241s-2.295,0.809-3.561,0.809c-2.496,0-4.473-0.867-5.932-2.602
			s-2.189-4.066-2.189-6.996v-0.633c0-1.875,0.328-3.533,0.984-4.975s1.598-2.555,2.822-3.34s2.656-1.178,4.297-1.178
			c2.086,0,3.807,0.621,5.16,1.863s2.076,2.877,2.17,4.904h-2.021c-0.094-1.488-0.629-2.689-1.607-3.604s-2.213-1.371-3.701-1.371
			c-1.898,0-3.371,0.686-4.42,2.057s-1.574,3.293-1.574,5.766v0.615c0,2.426,0.525,4.318,1.574,5.678
			S1099.698,670.408,1101.608,670.408z"/>
		<path fill="#F26522" d="M1116.392,647.943v4.869h3.938v1.723h-3.938v12.688c0,1.056,0.191,1.842,0.572,2.358
			c0.381,0.517,1.016,0.774,1.906,0.774c0.352,0,0.92-0.059,1.705-0.176l0.088,1.708c-0.551,0.197-1.301,0.296-2.25,0.296
			c-1.441,0-2.49-0.419-3.146-1.257s-0.984-2.071-0.984-3.7v-12.691h-3.498v-1.723h3.498v-4.869H1116.392z"/>
	</g>
</g>
<g>
	<g>
		<path fill="#F26522" d="M1292.157,660.424c0,2.355-0.408,4.424-1.223,6.205s-1.977,3.152-3.488,4.113s-3.258,1.441-5.238,1.441
			c-2.988,0-5.402-1.069-7.242-3.208s-2.76-5.024-2.76-8.657v-2.637c0-2.332,0.412-4.397,1.238-6.196s1.996-3.182,3.508-4.148
			s3.252-1.45,5.221-1.45s3.705,0.475,5.211,1.424s2.67,2.291,3.49,4.025s1.248,3.744,1.283,6.029V660.424z M1289.995,657.646
			c0-3.082-0.697-5.496-2.092-7.242s-3.305-2.619-5.73-2.619c-2.379,0-4.275,0.876-5.688,2.628s-2.117,4.198-2.117,7.339v2.672
			c0,3.035,0.703,5.44,2.109,7.216s3.316,2.663,5.73,2.663c2.449,0,4.359-0.876,5.73-2.628s2.057-4.192,2.057-7.321V657.646z"/>
		<path fill="#F26522" d="M1312.425,662.516c0,2.965-0.656,5.317-1.969,7.058s-3.076,2.61-5.291,2.61
			c-2.648,0-4.652-0.984-6.012-2.953l-0.088,2.602h-1.969v-27h2.092v10.74c1.336-2.074,3.316-3.111,5.941-3.111
			c2.25,0,4.027,0.858,5.334,2.575s1.961,4.104,1.961,7.163V662.516z M1310.315,662.146c0-2.508-0.486-4.444-1.459-5.81
			s-2.344-2.048-4.113-2.048c-1.348,0-2.49,0.331-3.428,0.993s-1.646,1.632-2.127,2.909v8.578c1.055,2.391,2.918,3.586,5.59,3.586
			c1.734,0,3.09-0.686,4.068-2.057S1310.315,664.877,1310.315,662.146z"/>
		<path fill="#F26522" d="M1319.333,652.813V674.1c0,1.758-0.422,3.1-1.266,4.025s-2.086,1.389-3.727,1.389
			c-0.633,0-1.248-0.11-1.846-0.331l0.035-1.726c0.516,0.152,1.043,0.229,1.582,0.229c2.086,0,3.129-1.202,3.129-3.606v-21.267
			H1319.333z M1318.296,645.904c0.457,0,0.814,0.137,1.072,0.411s0.387,0.608,0.387,1.004s-0.129,0.728-0.387,0.996
			c-0.258,0.268-0.615,0.402-1.072,0.402c-0.445,0-0.795-0.134-1.047-0.402c-0.252-0.268-0.377-0.6-0.377-0.996
			s0.125-0.731,0.377-1.004S1317.851,645.904,1318.296,645.904z"/>
		<path fill="#F26522" d="M1332.64,672.184c-1.617,0-3.08-0.398-4.387-1.195s-2.322-1.907-3.049-3.331s-1.09-3.021-1.09-4.79v-0.756
			c0-1.828,0.354-3.475,1.063-4.939s1.697-2.616,2.963-3.454s2.637-1.257,4.113-1.257c2.309,0,4.139,0.788,5.492,2.364
			s2.031,3.729,2.031,6.46v1.178h-13.57v0.404c0,2.156,0.617,3.952,1.854,5.388s2.793,2.153,4.668,2.153
			c1.125,0,2.117-0.205,2.979-0.615s1.645-1.066,2.348-1.969l1.318,1.002C1337.825,671.064,1335.581,672.184,1332.64,672.184z
			 M1332.253,654.254c-1.582,0-2.916,0.58-4,1.74s-1.742,2.719-1.977,4.676h11.408v-0.229c-0.059-1.828-0.58-3.316-1.564-4.465
			S1333.847,654.254,1332.253,654.254z"/>
		<path fill="#F26522" d="M1350.903,670.408c1.465,0,2.691-0.413,3.682-1.239s1.527-1.896,1.609-3.208h2.021
			c-0.059,1.16-0.422,2.218-1.09,3.173s-1.557,1.702-2.664,2.241s-2.293,0.809-3.559,0.809c-2.496,0-4.475-0.867-5.934-2.602
			s-2.188-4.066-2.188-6.996v-0.633c0-1.875,0.328-3.533,0.984-4.975s1.596-2.555,2.82-3.34s2.658-1.178,4.299-1.178
			c2.086,0,3.805,0.621,5.158,1.863s2.078,2.877,2.172,4.904h-2.021c-0.094-1.488-0.631-2.689-1.609-3.604s-2.211-1.371-3.699-1.371
			c-1.898,0-3.373,0.686-4.422,2.057s-1.572,3.293-1.572,5.766v0.615c0,2.426,0.523,4.318,1.572,5.678
			S1348.993,670.408,1350.903,670.408z"/>
		<path fill="#F26522" d="M1365.687,647.943v4.869h3.938v1.723h-3.938v12.688c0,1.056,0.189,1.842,0.57,2.358
			c0.381,0.517,1.018,0.774,1.908,0.774c0.352,0,0.92-0.059,1.705-0.176l0.088,1.708c-0.551,0.197-1.301,0.296-2.25,0.296
			c-1.441,0-2.49-0.419-3.146-1.257s-0.984-2.071-0.984-3.7v-12.691h-3.498v-1.723h3.498v-4.869H1365.687z"/>
	</g>
</g>
<g>
	<g>
		
			<line fill="none" stroke="#F26522" stroke-width="3" stroke-miterlimit="10" x1="984.935" y1="629.396" x2="1015.62" y2="660.081"/>
		<g>
			<polygon fill="#F26522" points="983.038,643.209 987.556,632.017 998.749,627.498 972.272,616.731 			"/>
		</g>
	</g>
</g>
<g>
	<g>
		
			<line fill="none" stroke="#F26522" stroke-width="3" stroke-miterlimit="10" x1="1233.849" y1="629.396" x2="1264.534" y2="660.081"/>
		<g>
			<polygon fill="#F26522" points="1231.952,643.209 1236.47,632.017 1247.663,627.498 1221.187,616.731 			"/>
		</g>
	</g>
</g>
<g>
	<g>
		<path fill="#00A651" d="M1041.687,706.934c0,2.355-0.408,4.424-1.223,6.205s-1.977,3.152-3.488,4.113s-3.258,1.441-5.238,1.441
			c-2.988,0-5.402-1.069-7.242-3.208s-2.76-5.024-2.76-8.657v-2.637c0-2.332,0.412-4.397,1.238-6.196s1.996-3.182,3.508-4.148
			s3.252-1.45,5.221-1.45s3.705,0.475,5.211,1.424s2.67,2.291,3.49,4.025s1.248,3.744,1.283,6.029V706.934z M1039.524,704.156
			c0-3.082-0.697-5.496-2.092-7.242s-3.305-2.619-5.73-2.619c-2.379,0-4.275,0.876-5.688,2.628s-2.117,4.198-2.117,7.339v2.672
			c0,3.035,0.703,5.44,2.109,7.216s3.316,2.663,5.73,2.663c2.449,0,4.359-0.876,5.73-2.628s2.057-4.192,2.057-7.321V704.156z"/>
		<path fill="#00A651" d="M1061.954,709.025c0,2.965-0.656,5.317-1.969,7.058s-3.076,2.61-5.291,2.61
			c-2.648,0-4.652-0.984-6.012-2.953l-0.088,2.602h-1.969v-27h2.092v10.74c1.336-2.074,3.316-3.111,5.941-3.111
			c2.25,0,4.027,0.858,5.334,2.575s1.961,4.104,1.961,7.163V709.025z M1059.845,708.656c0-2.508-0.486-4.444-1.459-5.81
			s-2.344-2.048-4.113-2.048c-1.348,0-2.49,0.331-3.428,0.993s-1.646,1.632-2.127,2.909v8.578c1.055,2.391,2.918,3.586,5.59,3.586
			c1.734,0,3.09-0.686,4.068-2.057S1059.845,711.387,1059.845,708.656z"/>
		<path fill="#00A651" d="M1068.862,699.322v21.287c0,1.758-0.422,3.1-1.266,4.025s-2.086,1.389-3.727,1.389
			c-0.633,0-1.248-0.11-1.846-0.331l0.035-1.726c0.516,0.152,1.043,0.229,1.582,0.229c2.086,0,3.129-1.202,3.129-3.606v-21.267
			H1068.862z M1067.825,692.414c0.457,0,0.814,0.137,1.072,0.41c0.258,0.274,0.387,0.608,0.387,1.005s-0.129,0.728-0.387,0.996
			c-0.258,0.268-0.615,0.401-1.072,0.401c-0.445,0-0.795-0.134-1.047-0.401c-0.252-0.269-0.377-0.6-0.377-0.996
			s0.125-0.73,0.377-1.005C1067.03,692.551,1067.38,692.414,1067.825,692.414z"/>
		<path fill="#00A651" d="M1082.169,718.693c-1.617,0-3.08-0.398-4.387-1.195s-2.322-1.907-3.049-3.331s-1.09-3.021-1.09-4.79
			v-0.756c0-1.828,0.354-3.475,1.063-4.939s1.697-2.616,2.963-3.454s2.637-1.257,4.113-1.257c2.309,0,4.139,0.788,5.492,2.364
			s2.031,3.729,2.031,6.46v1.178h-13.57v0.404c0,2.156,0.617,3.952,1.854,5.388s2.793,2.153,4.668,2.153
			c1.125,0,2.117-0.205,2.979-0.615s1.645-1.066,2.348-1.969l1.318,1.002C1087.354,717.574,1085.11,718.693,1082.169,718.693z
			 M1081.782,700.764c-1.582,0-2.916,0.58-4,1.74s-1.742,2.719-1.977,4.676h11.408v-0.229c-0.059-1.828-0.58-3.316-1.564-4.465
			S1083.376,700.764,1081.782,700.764z"/>
		<path fill="#00A651" d="M1100.433,716.918c1.465,0,2.691-0.413,3.682-1.239s1.527-1.896,1.609-3.208h2.021
			c-0.059,1.16-0.422,2.218-1.09,3.173s-1.557,1.702-2.664,2.241s-2.293,0.809-3.559,0.809c-2.496,0-4.475-0.867-5.934-2.602
			s-2.188-4.066-2.188-6.996v-0.633c0-1.875,0.328-3.533,0.984-4.975s1.596-2.555,2.82-3.34s2.658-1.178,4.299-1.178
			c2.086,0,3.805,0.621,5.158,1.863s2.078,2.877,2.172,4.904h-2.021c-0.094-1.488-0.631-2.689-1.609-3.604s-2.211-1.371-3.699-1.371
			c-1.898,0-3.373,0.686-4.422,2.057s-1.572,3.293-1.572,5.766v0.615c0,2.426,0.523,4.318,1.572,5.678
			S1098.522,716.918,1100.433,716.918z"/>
		<path fill="#00A651" d="M1115.216,694.453v4.869h3.938v1.723h-3.938v12.688c0,1.057,0.189,1.843,0.57,2.358
			c0.381,0.517,1.018,0.774,1.908,0.774c0.352,0,0.92-0.059,1.705-0.176l0.088,1.708c-0.551,0.197-1.301,0.296-2.25,0.296
			c-1.441,0-2.49-0.419-3.146-1.257s-0.984-2.071-0.984-3.7v-12.691h-3.498v-1.723h3.498v-4.869H1115.216z"/>
	</g>
</g>
<g>
	<g>
		<path fill="#00A651" d="M1290.979,706.934c0,2.355-0.408,4.424-1.223,6.205s-1.977,3.152-3.488,4.113s-3.258,1.441-5.238,1.441
			c-2.988,0-5.402-1.069-7.242-3.208s-2.76-5.024-2.76-8.657v-2.637c0-2.332,0.412-4.397,1.238-6.196s1.996-3.182,3.508-4.148
			s3.252-1.45,5.221-1.45s3.705,0.475,5.211,1.424s2.67,2.291,3.49,4.025s1.248,3.744,1.283,6.029V706.934z M1288.817,704.156
			c0-3.082-0.697-5.496-2.092-7.242s-3.305-2.619-5.73-2.619c-2.379,0-4.275,0.876-5.688,2.628s-2.117,4.198-2.117,7.339v2.672
			c0,3.035,0.703,5.44,2.109,7.216s3.316,2.663,5.73,2.663c2.449,0,4.359-0.876,5.73-2.628s2.057-4.192,2.057-7.321V704.156z"/>
		<path fill="#00A651" d="M1311.247,709.025c0,2.965-0.656,5.317-1.969,7.058s-3.076,2.61-5.291,2.61
			c-2.648,0-4.652-0.984-6.012-2.953l-0.088,2.602h-1.969v-27h2.092v10.74c1.336-2.074,3.316-3.111,5.941-3.111
			c2.25,0,4.027,0.858,5.334,2.575s1.961,4.104,1.961,7.163V709.025z M1309.138,708.656c0-2.508-0.486-4.444-1.459-5.81
			s-2.344-2.048-4.113-2.048c-1.348,0-2.49,0.331-3.428,0.993s-1.646,1.632-2.127,2.909v8.578c1.055,2.391,2.918,3.586,5.59,3.586
			c1.734,0,3.09-0.686,4.068-2.057S1309.138,711.387,1309.138,708.656z"/>
		<path fill="#00A651" d="M1318.155,699.322v21.287c0,1.758-0.422,3.1-1.266,4.025s-2.086,1.389-3.727,1.389
			c-0.633,0-1.248-0.11-1.846-0.331l0.035-1.726c0.516,0.152,1.043,0.229,1.582,0.229c2.086,0,3.129-1.202,3.129-3.606v-21.267
			H1318.155z M1317.118,692.414c0.457,0,0.814,0.137,1.072,0.41c0.258,0.274,0.387,0.608,0.387,1.005s-0.129,0.728-0.387,0.996
			c-0.258,0.268-0.615,0.401-1.072,0.401c-0.445,0-0.795-0.134-1.047-0.401c-0.252-0.269-0.377-0.6-0.377-0.996
			s0.125-0.73,0.377-1.005C1316.323,692.551,1316.673,692.414,1317.118,692.414z"/>
		<path fill="#00A651" d="M1331.462,718.693c-1.617,0-3.08-0.398-4.387-1.195s-2.322-1.907-3.049-3.331s-1.09-3.021-1.09-4.79
			v-0.756c0-1.828,0.354-3.475,1.063-4.939s1.697-2.616,2.963-3.454s2.637-1.257,4.113-1.257c2.309,0,4.139,0.788,5.492,2.364
			s2.031,3.729,2.031,6.46v1.178h-13.57v0.404c0,2.156,0.617,3.952,1.854,5.388s2.793,2.153,4.668,2.153
			c1.125,0,2.117-0.205,2.979-0.615s1.645-1.066,2.348-1.969l1.318,1.002C1336.647,717.574,1334.403,718.693,1331.462,718.693z
			 M1331.075,700.764c-1.582,0-2.916,0.58-4,1.74s-1.742,2.719-1.977,4.676h11.408v-0.229c-0.059-1.828-0.58-3.316-1.564-4.465
			S1332.669,700.764,1331.075,700.764z"/>
		<path fill="#00A651" d="M1349.726,716.918c1.465,0,2.691-0.413,3.682-1.239s1.527-1.896,1.609-3.208h2.021
			c-0.059,1.16-0.422,2.218-1.09,3.173s-1.557,1.702-2.664,2.241s-2.293,0.809-3.559,0.809c-2.496,0-4.475-0.867-5.934-2.602
			s-2.188-4.066-2.188-6.996v-0.633c0-1.875,0.328-3.533,0.984-4.975s1.596-2.555,2.82-3.34s2.658-1.178,4.299-1.178
			c2.086,0,3.805,0.621,5.158,1.863s2.078,2.877,2.172,4.904h-2.021c-0.094-1.488-0.631-2.689-1.609-3.604s-2.211-1.371-3.699-1.371
			c-1.898,0-3.373,0.686-4.422,2.057s-1.572,3.293-1.572,5.766v0.615c0,2.426,0.523,4.318,1.572,5.678
			S1347.815,716.918,1349.726,716.918z"/>
		<path fill="#00A651" d="M1364.509,694.453v4.869h3.938v1.723h-3.938v12.688c0,1.057,0.189,1.843,0.57,2.358
			c0.381,0.517,1.018,0.774,1.908,0.774c0.352,0,0.92-0.059,1.705-0.176l0.088,1.708c-0.551,0.197-1.301,0.296-2.25,0.296
			c-1.441,0-2.49-0.419-3.146-1.257s-0.984-2.071-0.984-3.7v-12.691h-3.498v-1.723h3.498v-4.869H1364.509z"/>
	</g>
</g>
<g>
	<g>
		
			<line fill="none" stroke="#00A651" stroke-width="3" stroke-miterlimit="10" x1="879.11" y1="571.259" x2="1014.442" y2="706.591"/>
		<g>
			<polygon fill="#00A651" points="877.212,585.071 881.729,573.879 892.923,569.36 866.446,558.595 			"/>
		</g>
	</g>
</g>
<g>
	<g>
		
			<line fill="none" stroke="#00A651" stroke-width="3" stroke-miterlimit="10" x1="1127.194" y1="570.425" x2="1263.358" y2="706.591"/>
		<g>
			<polygon fill="#00A651" points="1125.296,584.237 1129.813,573.045 1141.007,568.526 1114.53,557.761 			"/>
		</g>
	</g>
</g>
<g>
	<path d="M691.694,491.32h-3.375v-25.594h3.375V491.32z"/>
	<path d="M697.864,491.32v-25.594h7.225c2.227,0,4.195,0.492,5.906,1.477s3.031,2.385,3.963,4.201s1.404,3.902,1.416,6.258v1.635
		c0,2.414-0.467,4.529-1.398,6.346s-2.262,3.211-3.99,4.184s-3.74,1.471-6.037,1.494H697.864z M701.239,468.486v20.074h3.551
		c2.602,0,4.625-0.809,6.072-2.428s2.172-3.923,2.172-6.915v-1.496c0-2.909-0.684-5.169-2.049-6.782
		c-1.365-1.612-3.301-2.431-5.809-2.454H701.239z"/>
</g>
<g>
	<path d="M697.302,551.81h-2.109v-23.063l-6.961,2.584v-1.969l8.719-3.234h0.352V551.81z"/>
</g>
<g>
	<path d="M703.542,612.299h-16.031v-1.617l8.771-9.949c1.453-1.676,2.461-3.059,3.023-4.148s0.844-2.15,0.844-3.182
		c0-1.617-0.475-2.897-1.424-3.841s-2.256-1.415-3.92-1.415c-1.723,0-3.115,0.551-4.176,1.652s-1.59,2.531-1.59,4.289h-2.092
		c0-1.441,0.324-2.754,0.975-3.938s1.576-2.112,2.777-2.786s2.57-1.011,4.105-1.011c2.344,0,4.174,0.615,5.492,1.846
		s1.979,2.906,1.979,5.027c0,1.195-0.373,2.502-1.117,3.92s-2.053,3.188-3.928,5.309l-7.137,8.068h13.447V612.299z"/>
</g>
<rect x="674.114" y="450.286" fill="none" stroke="#000000" stroke-width="1.5" stroke-miterlimit="10" width="67.963" height="59.895"/>
<rect x="674.114" y="509.925" fill="none" stroke="#000000" stroke-width="1.5" stroke-miterlimit="10" width="67.963" height="59.893"/>
<rect x="674.114" y="569.817" fill="none" stroke="#000000" stroke-width="1.5" stroke-miterlimit="10" width="67.963" height="59.895"/>
<g>
	<path d="M770.017,480.018h-10.74v11.303h-3.375v-25.594h15.855v2.76h-12.48v8.771h10.74V480.018z"/>
	<path d="M775.308,467.256c0-0.527,0.162-0.973,0.484-1.336s0.799-0.545,1.432-0.545s1.113,0.182,1.441,0.545
		s0.492,0.809,0.492,1.336s-0.164,0.967-0.492,1.318s-0.809,0.527-1.441,0.527s-1.109-0.176-1.432-0.527
		S775.308,467.783,775.308,467.256z M778.823,491.32h-3.252v-19.02h3.252V491.32z"/>
	<path d="M793.22,475.219c-0.492-0.082-1.025-0.123-1.6-0.123c-2.133,0-3.58,0.908-4.342,2.725v13.5h-3.252v-19.02h3.164
		l0.053,2.197c1.066-1.699,2.578-2.549,4.535-2.549c0.633,0,1.113,0.082,1.441,0.246V475.219z"/>
	<path d="M807.282,486.275c0-0.879-0.33-1.562-0.992-2.048s-1.816-0.905-3.463-1.257s-2.953-0.773-3.92-1.266
		s-1.682-1.078-2.145-1.758s-0.695-1.488-0.695-2.426c0-1.559,0.66-2.877,1.979-3.955s3.002-1.617,5.053-1.617
		c2.156,0,3.906,0.557,5.248,1.67s2.012,2.537,2.012,4.271h-3.27c0-0.891-0.377-1.658-1.133-2.303s-1.709-0.967-2.857-0.967
		c-1.184,0-2.109,0.258-2.777,0.773s-1.002,1.189-1.002,2.021c0,0.785,0.311,1.377,0.932,1.775s1.744,0.779,3.367,1.143
		s2.938,0.797,3.945,1.301s1.756,1.11,2.242,1.819s0.729,1.573,0.729,2.593c0,1.699-0.68,3.062-2.039,4.087
		s-3.123,1.538-5.291,1.538c-1.523,0-2.871-0.27-4.043-0.809s-2.088-1.292-2.75-2.259s-0.994-2.013-0.994-3.138h3.252
		c0.059,1.09,0.496,1.954,1.311,2.593s1.889,0.958,3.225,0.958c1.23,0,2.219-0.249,2.963-0.747S807.282,487.107,807.282,486.275z"/>
	<path d="M819.183,467.695v4.605h3.551v2.514h-3.551v11.81c0,0.763,0.158,1.335,0.475,1.716s0.855,0.572,1.617,0.572
		c0.375,0,0.891-0.07,1.547-0.211v2.621c-0.855,0.233-1.688,0.35-2.496,0.35c-1.453,0-2.549-0.439-3.287-1.318
		s-1.107-2.127-1.107-3.744v-11.795h-3.463v-2.514h3.463v-4.605H819.183z"/>
</g>
<g>
	<path d="M1028.976,488.561h12.129v2.76h-15.521v-25.594h3.393V488.561z"/>
	<path d="M1056.187,491.32c-0.188-0.375-0.34-1.043-0.457-2.004c-1.512,1.57-3.316,2.355-5.414,2.355
		c-1.875,0-3.414-0.53-4.615-1.591s-1.801-2.405-1.801-4.034c0-1.98,0.752-3.519,2.258-4.614s3.625-1.644,6.355-1.644h3.164v-1.494
		c0-1.137-0.34-2.042-1.02-2.716s-1.682-1.011-3.006-1.011c-1.16,0-2.133,0.293-2.918,0.879s-1.178,1.295-1.178,2.127h-3.27
		c0-0.949,0.336-1.866,1.01-2.751s1.588-1.585,2.742-2.101s2.424-0.773,3.807-0.773c2.191,0,3.908,0.548,5.15,1.644
		s1.887,2.604,1.934,4.526v8.754c0,1.746,0.223,3.135,0.668,4.166v0.281H1056.187z M1050.79,488.842c1.02,0,1.986-0.264,2.9-0.791
		s1.576-1.213,1.986-2.057v-3.902h-2.549c-3.984,0-5.977,1.166-5.977,3.498c0,1.02,0.34,1.816,1.02,2.391
		S1049.724,488.842,1050.79,488.842z"/>
	<path d="M1075.101,486.275c0-0.879-0.332-1.562-0.994-2.048s-1.816-0.905-3.463-1.257s-2.953-0.773-3.92-1.266
		s-1.682-1.078-2.145-1.758s-0.693-1.488-0.693-2.426c0-1.559,0.658-2.877,1.977-3.955s3.004-1.617,5.055-1.617
		c2.156,0,3.904,0.557,5.246,1.67s2.014,2.537,2.014,4.271h-3.27c0-0.891-0.379-1.658-1.135-2.303s-1.707-0.967-2.855-0.967
		c-1.184,0-2.109,0.258-2.777,0.773s-1.002,1.189-1.002,2.021c0,0.785,0.311,1.377,0.932,1.775s1.742,0.779,3.365,1.143
		s2.939,0.797,3.947,1.301s1.754,1.11,2.24,1.819s0.73,1.573,0.73,2.593c0,1.699-0.68,3.062-2.039,4.087s-3.123,1.538-5.291,1.538
		c-1.523,0-2.871-0.27-4.043-0.809s-2.09-1.292-2.752-2.259s-0.992-2.013-0.992-3.138h3.252c0.059,1.09,0.494,1.954,1.309,2.593
		s1.891,0.958,3.227,0.958c1.23,0,2.217-0.249,2.961-0.747S1075.101,487.107,1075.101,486.275z"/>
	<path d="M1087.001,467.695v4.605h3.551v2.514h-3.551v11.81c0,0.763,0.158,1.335,0.475,1.716s0.855,0.572,1.617,0.572
		c0.375,0,0.891-0.07,1.547-0.211v2.621c-0.855,0.233-1.688,0.35-2.496,0.35c-1.453,0-2.549-0.439-3.287-1.318
		s-1.107-2.127-1.107-3.744v-11.795h-3.463v-2.514h3.463v-4.605H1087.001z"/>
</g>
<g>
	<path d="M759.03,526.216l9.439,22.588l9.475-22.588h2.883v25.594h-2.162v-11.145l0.176-11.426l-9.527,22.57h-1.67l-9.492-22.482
		l0.176,11.268v11.215h-2.162v-25.594H759.03z"/>
	<path d="M798.827,551.81c-0.211-0.598-0.346-1.482-0.404-2.654c-0.738,0.961-1.678,1.702-2.82,2.224s-2.354,0.782-3.631,0.782
		c-1.828,0-3.307-0.51-4.438-1.529s-1.697-2.309-1.697-3.867c0-1.852,0.771-3.316,2.313-4.395s3.688-1.617,6.441-1.617h3.814v-2.162
		c0-1.359-0.418-2.429-1.256-3.208s-2.061-1.169-3.666-1.169c-1.465,0-2.678,0.375-3.639,1.125s-1.441,1.652-1.441,2.707
		l-2.109-0.018c0-1.512,0.703-2.821,2.109-3.929s3.135-1.661,5.186-1.661c2.121,0,3.795,0.53,5.02,1.591s1.854,2.54,1.889,4.438v9
		c0,1.84,0.193,3.217,0.58,4.131v0.211H798.827z M792.218,550.298c1.406,0,2.664-0.34,3.771-1.02s1.912-1.588,2.416-2.725v-4.184
		h-3.762c-2.098,0.023-3.738,0.407-4.922,1.151s-1.775,1.767-1.775,3.067c0,1.066,0.396,1.951,1.188,2.654
		S790.952,550.298,792.218,550.298z"/>
	<path d="M805.261,542.124c0-2.953,0.66-5.306,1.979-7.058s3.107-2.628,5.369-2.628c2.566,0,4.523,1.014,5.871,3.041v-10.67h2.092
		v27h-1.969l-0.088-2.531c-1.348,1.922-3.328,2.883-5.941,2.883c-2.191,0-3.957-0.882-5.299-2.646s-2.014-4.146-2.014-7.146V542.124
		z M807.388,542.493c0,2.426,0.486,4.339,1.459,5.739s2.344,2.101,4.113,2.101c2.59,0,4.43-1.143,5.52-3.428v-8.93
		c-1.09-2.473-2.918-3.709-5.484-3.709c-1.77,0-3.146,0.694-4.131,2.083S807.388,539.786,807.388,542.493z"/>
	<path d="M837.499,546.976c0-1.043-0.418-1.881-1.256-2.514s-2.102-1.128-3.789-1.485s-2.996-0.768-3.928-1.23
		s-1.623-1.028-2.074-1.696s-0.678-1.477-0.678-2.426c0-1.5,0.627-2.739,1.881-3.718s2.859-1.468,4.816-1.468
		c2.121,0,3.824,0.524,5.107,1.573s1.924,2.417,1.924,4.104h-2.109c0-1.113-0.465-2.039-1.396-2.777s-2.107-1.107-3.525-1.107
		c-1.383,0-2.492,0.308-3.33,0.923s-1.258,1.415-1.258,2.399c0,0.949,0.35,1.685,1.047,2.206s1.969,0.999,3.814,1.433
		s3.229,0.896,4.148,1.389s1.602,1.084,2.047,1.775s0.668,1.529,0.668,2.514c0,1.605-0.646,2.889-1.941,3.85
		s-2.986,1.441-5.072,1.441c-2.215,0-4.01-0.536-5.387-1.608s-2.066-2.429-2.066-4.069h2.109c0.082,1.23,0.602,2.188,1.557,2.874
		s2.217,1.028,3.787,1.028c1.465,0,2.648-0.322,3.551-0.967S837.499,547.96,837.499,546.976z"/>
</g>
<g>
	<path d="M1035.409,541.14h-7.436v10.67h-2.18v-25.594h8.314c2.73,0,4.863,0.661,6.398,1.984c1.535,1.322,2.303,3.172,2.303,5.548
		c0,1.639-0.48,3.084-1.441,4.336s-2.25,2.119-3.867,2.599l6.398,10.897v0.229h-2.303L1035.409,541.14z M1027.974,539.312h6.627
		c1.816,0,3.275-0.517,4.377-1.549s1.652-2.371,1.652-4.014c0-1.807-0.574-3.21-1.723-4.208s-2.76-1.497-4.834-1.497h-6.1V539.312z"
		/>
	<path d="M1060.212,551.81c-0.211-0.598-0.346-1.482-0.404-2.654c-0.738,0.961-1.68,1.702-2.822,2.224s-2.352,0.782-3.629,0.782
		c-1.828,0-3.309-0.51-4.439-1.529s-1.695-2.309-1.695-3.867c0-1.852,0.77-3.316,2.311-4.395s3.689-1.617,6.443-1.617h3.814v-2.162
		c0-1.359-0.42-2.429-1.258-3.208s-2.059-1.169-3.664-1.169c-1.465,0-2.678,0.375-3.639,1.125s-1.441,1.652-1.441,2.707
		l-2.109-0.018c0-1.512,0.703-2.821,2.109-3.929s3.135-1.661,5.186-1.661c2.121,0,3.793,0.53,5.018,1.591s1.855,2.54,1.891,4.438v9
		c0,1.84,0.193,3.217,0.58,4.131v0.211H1060.212z M1053.603,550.298c1.406,0,2.662-0.34,3.77-1.02s1.914-1.588,2.418-2.725v-4.184
		h-3.762c-2.098,0.023-3.738,0.407-4.922,1.151s-1.775,1.767-1.775,3.067c0,1.066,0.395,1.951,1.186,2.654
		S1052.337,550.298,1053.603,550.298z"/>
	<path d="M1078.88,546.976c0-1.043-0.42-1.881-1.258-2.514s-2.1-1.128-3.787-1.485s-2.998-0.768-3.93-1.23s-1.623-1.028-2.074-1.696
		s-0.676-1.477-0.676-2.426c0-1.5,0.627-2.739,1.881-3.718s2.859-1.468,4.816-1.468c2.121,0,3.822,0.524,5.105,1.573
		s1.926,2.417,1.926,4.104h-2.109c0-1.113-0.467-2.039-1.398-2.777s-2.105-1.107-3.523-1.107c-1.383,0-2.494,0.308-3.332,0.923
		s-1.256,1.415-1.256,2.399c0,0.949,0.348,1.685,1.045,2.206s1.969,0.999,3.814,1.433s3.229,0.896,4.148,1.389
		s1.604,1.084,2.049,1.775s0.668,1.529,0.668,2.514c0,1.605-0.648,2.889-1.943,3.85s-2.984,1.441-5.07,1.441
		c-2.215,0-4.012-0.536-5.389-1.608s-2.064-2.429-2.064-4.069h2.109c0.082,1.23,0.6,2.188,1.555,2.874s2.219,1.028,3.789,1.028
		c1.465,0,2.648-0.322,3.551-0.967S1078.88,547.96,1078.88,546.976z"/>
	<path d="M1087.634,532.79l0.07,3.094c0.703-1.148,1.582-2.01,2.637-2.584s2.227-0.861,3.516-0.861c3,0,4.904,1.23,5.713,3.691
		c0.68-1.184,1.588-2.095,2.725-2.733s2.391-0.958,3.762-0.958c4.078,0,6.158,2.227,6.24,6.68v12.691h-2.109v-12.533
		c-0.012-1.699-0.379-2.959-1.1-3.779s-1.895-1.23-3.523-1.23c-1.512,0.023-2.789,0.513-3.832,1.468s-1.623,2.118-1.74,3.489v12.586
		h-2.109v-12.691c-0.012-1.629-0.396-2.845-1.152-3.647s-1.918-1.204-3.488-1.204c-1.324,0-2.461,0.378-3.41,1.134
		s-1.652,1.878-2.109,3.366v13.043h-2.109v-19.02H1087.634z"/>
	<path d="M1129.856,549.401c-1.266,1.84-3.287,2.76-6.064,2.76c-2.027,0-3.568-0.589-4.623-1.767s-1.594-2.921-1.617-5.229V532.79
		h2.092v12.111c0,3.621,1.465,5.432,4.395,5.432c3.047,0,4.975-1.26,5.783-3.779V532.79h2.109v19.02h-2.039L1129.856,549.401z"/>
	<path d="M1148.788,546.976c0-1.043-0.42-1.881-1.258-2.514s-2.1-1.128-3.787-1.485s-2.998-0.768-3.93-1.23
		s-1.623-1.028-2.074-1.696s-0.676-1.477-0.676-2.426c0-1.5,0.627-2.739,1.881-3.718s2.859-1.468,4.816-1.468
		c2.121,0,3.822,0.524,5.105,1.573s1.926,2.417,1.926,4.104h-2.109c0-1.113-0.467-2.039-1.398-2.777s-2.105-1.107-3.523-1.107
		c-1.383,0-2.494,0.308-3.332,0.923s-1.256,1.415-1.256,2.399c0,0.949,0.348,1.685,1.045,2.206s1.969,0.999,3.814,1.433
		s3.229,0.896,4.148,1.389s1.604,1.084,2.049,1.775s0.668,1.529,0.668,2.514c0,1.605-0.648,2.889-1.943,3.85
		s-2.984,1.441-5.07,1.441c-2.215,0-4.012-0.536-5.389-1.608s-2.064-2.429-2.064-4.069h2.109c0.082,1.23,0.6,2.188,1.555,2.874
		s2.219,1.028,3.789,1.028c1.465,0,2.648-0.322,3.551-0.967S1148.788,547.96,1148.788,546.976z"/>
	<path d="M1167.017,546.976c0-1.043-0.42-1.881-1.258-2.514s-2.1-1.128-3.787-1.485s-2.998-0.768-3.93-1.23
		s-1.623-1.028-2.074-1.696s-0.676-1.477-0.676-2.426c0-1.5,0.627-2.739,1.881-3.718s2.859-1.468,4.816-1.468
		c2.121,0,3.822,0.524,5.105,1.573s1.926,2.417,1.926,4.104h-2.109c0-1.113-0.467-2.039-1.398-2.777s-2.105-1.107-3.523-1.107
		c-1.383,0-2.494,0.308-3.332,0.923s-1.256,1.415-1.256,2.399c0,0.949,0.348,1.685,1.045,2.206s1.969,0.999,3.814,1.433
		s3.229,0.896,4.148,1.389s1.604,1.084,2.049,1.775s0.668,1.529,0.668,2.514c0,1.605-0.648,2.889-1.943,3.85
		s-2.984,1.441-5.07,1.441c-2.215,0-4.012-0.536-5.389-1.608s-2.064-2.429-2.064-4.069h2.109c0.082,1.23,0.6,2.188,1.555,2.874
		s2.219,1.028,3.789,1.028c1.465,0,2.648-0.322,3.551-0.967S1167.017,547.96,1167.017,546.976z"/>
	<path d="M1181.22,552.161c-1.617,0-3.08-0.398-4.387-1.195s-2.322-1.907-3.049-3.331s-1.09-3.021-1.09-4.79v-0.756
		c0-1.828,0.354-3.475,1.063-4.939s1.697-2.616,2.963-3.454s2.637-1.257,4.113-1.257c2.309,0,4.139,0.788,5.492,2.364
		s2.031,3.729,2.031,6.46v1.178h-13.57v0.404c0,2.156,0.617,3.952,1.854,5.388s2.793,2.153,4.668,2.153
		c1.125,0,2.117-0.205,2.979-0.615s1.645-1.066,2.348-1.969l1.318,1.002C1186.405,551.042,1184.161,552.161,1181.22,552.161z
		 M1180.833,534.231c-1.582,0-2.916,0.58-4,1.74s-1.742,2.719-1.977,4.676h11.408v-0.229c-0.059-1.828-0.58-3.316-1.564-4.465
		S1182.427,534.231,1180.833,534.231z"/>
	<path d="M1194.456,532.79l0.07,3.252c0.715-1.172,1.605-2.065,2.672-2.681s2.244-0.923,3.533-0.923
		c2.039,0,3.557,0.574,4.553,1.723s1.5,2.871,1.512,5.168v12.48h-2.092v-12.498c-0.012-1.699-0.373-2.965-1.082-3.797
		s-1.842-1.248-3.4-1.248c-1.301,0-2.453,0.407-3.455,1.222s-1.742,1.913-2.223,3.296v13.025h-2.092v-19.02H1194.456z"/>
</g>
<g>
	<path d="M769.981,605.109h-11.619l-2.637,7.189h-2.268l9.686-25.594h2.057l9.686,25.594h-2.25L769.981,605.109z M759.03,603.281
		h10.266l-5.133-13.939L759.03,603.281z"/>
	<path d="M780.511,612.299h-2.109v-27h2.109V612.299z"/>
	<path d="M793.589,612.65c-1.617,0-3.078-0.398-4.385-1.195s-2.324-1.907-3.051-3.331s-1.09-3.021-1.09-4.79v-0.756
		c0-1.828,0.355-3.475,1.064-4.939s1.695-2.616,2.961-3.454s2.637-1.257,4.113-1.257c2.309,0,4.141,0.788,5.494,2.364
		s2.029,3.729,2.029,6.46v1.178h-13.57v0.404c0,2.156,0.619,3.952,1.855,5.388s2.791,2.153,4.666,2.153
		c1.125,0,2.119-0.205,2.98-0.615s1.643-1.066,2.346-1.969l1.318,1.002C798.774,611.531,796.53,612.65,793.589,612.65z
		 M793.202,594.721c-1.582,0-2.914,0.58-3.998,1.74s-1.744,2.719-1.979,4.676h11.408v-0.229c-0.059-1.828-0.58-3.316-1.564-4.465
		S794.796,594.721,793.202,594.721z"/>
	<path d="M810.798,600.996l5.133-7.717h2.496l-6.451,9.334l6.732,9.686h-2.479l-5.414-8.051l-5.414,8.051h-2.479l6.715-9.686
		l-6.451-9.334h2.479L810.798,600.996z"/>
	<path d="M834.335,612.299c-0.211-0.598-0.346-1.482-0.404-2.654c-0.738,0.961-1.678,1.702-2.82,2.224s-2.354,0.782-3.631,0.782
		c-1.828,0-3.307-0.51-4.438-1.529s-1.697-2.309-1.697-3.867c0-1.852,0.771-3.316,2.313-4.395s3.688-1.617,6.441-1.617h3.814v-2.162
		c0-1.359-0.418-2.429-1.256-3.208s-2.061-1.169-3.666-1.169c-1.465,0-2.678,0.375-3.639,1.125s-1.441,1.652-1.441,2.707
		l-2.109-0.018c0-1.512,0.703-2.821,2.109-3.929s3.135-1.661,5.186-1.661c2.121,0,3.795,0.53,5.02,1.591s1.854,2.54,1.889,4.438v9
		c0,1.84,0.193,3.217,0.58,4.131v0.211H834.335z M827.726,610.787c1.406,0,2.664-0.34,3.771-1.02s1.912-1.588,2.416-2.725v-4.184
		h-3.762c-2.098,0.023-3.738,0.407-4.922,1.151s-1.775,1.767-1.775,3.067c0,1.066,0.396,1.951,1.188,2.654
		S826.46,610.787,827.726,610.787z"/>
	<path d="M843.616,593.279l0.07,3.252c0.715-1.172,1.605-2.065,2.672-2.681s2.244-0.923,3.533-0.923
		c2.039,0,3.557,0.574,4.553,1.723s1.5,2.871,1.512,5.168v12.48h-2.092v-12.498c-0.012-1.699-0.371-2.965-1.08-3.797
		s-1.844-1.248-3.402-1.248c-1.301,0-2.451,0.407-3.453,1.222s-1.744,1.913-2.225,3.296v13.025h-2.092v-19.02H843.616z"/>
	<path d="M860.544,602.613c0-2.953,0.66-5.306,1.979-7.058s3.107-2.628,5.369-2.628c2.566,0,4.523,1.014,5.871,3.041v-10.67h2.092
		v27h-1.969l-0.088-2.531c-1.348,1.922-3.328,2.883-5.941,2.883c-2.191,0-3.957-0.882-5.299-2.646s-2.014-4.146-2.014-7.146V602.613
		z M862.671,602.982c0,2.426,0.486,4.339,1.459,5.739s2.344,2.101,4.113,2.101c2.59,0,4.43-1.143,5.52-3.428v-8.93
		c-1.09-2.473-2.918-3.709-5.484-3.709c-1.77,0-3.146,0.694-4.131,2.083S862.671,600.275,862.671,602.982z"/>
	<path d="M888.757,612.65c-1.617,0-3.078-0.398-4.385-1.195s-2.324-1.907-3.051-3.331s-1.09-3.021-1.09-4.79v-0.756
		c0-1.828,0.355-3.475,1.064-4.939s1.695-2.616,2.961-3.454s2.637-1.257,4.113-1.257c2.309,0,4.141,0.788,5.494,2.364
		s2.029,3.729,2.029,6.46v1.178h-13.57v0.404c0,2.156,0.619,3.952,1.855,5.388s2.791,2.153,4.666,2.153
		c1.125,0,2.119-0.205,2.98-0.615s1.643-1.066,2.346-1.969l1.318,1.002C893.942,611.531,891.698,612.65,888.757,612.65z
		 M888.37,594.721c-1.582,0-2.914,0.58-3.998,1.74s-1.744,2.719-1.979,4.676h11.408v-0.229c-0.059-1.828-0.58-3.316-1.564-4.465
		S889.964,594.721,888.37,594.721z"/>
	<path d="M908.778,595.072c-0.445-0.082-0.92-0.123-1.424-0.123c-1.313,0-2.422,0.366-3.33,1.099s-1.557,1.796-1.943,3.19v13.061
		h-2.092v-19.02h2.057l0.035,3.023c1.113-2.25,2.9-3.375,5.361-3.375c0.586,0,1.049,0.076,1.389,0.229L908.778,595.072z"/>
</g>
<g>
	<path d="M1040.331,606.006c0-1.418-0.498-2.54-1.494-3.366s-2.818-1.611-5.467-2.355s-4.582-1.556-5.801-2.435
		c-1.734-1.242-2.602-2.871-2.602-4.887c0-1.957,0.805-3.548,2.416-4.772s3.672-1.837,6.18-1.837c1.699,0,3.219,0.328,4.561,0.984
		s2.383,1.57,3.121,2.742s1.107,2.479,1.107,3.92h-2.18c0-1.751-0.598-3.159-1.793-4.223c-1.195-1.063-2.801-1.596-4.816-1.596
		c-1.957,0-3.516,0.438-4.676,1.312c-1.16,0.875-1.74,2.016-1.74,3.424c0,1.303,0.521,2.365,1.564,3.187s2.713,1.546,5.01,2.174
		s4.037,1.279,5.221,1.953s2.074,1.479,2.672,2.417s0.896,2.045,0.896,3.322c0,2.016-0.807,3.633-2.418,4.852
		s-3.734,1.828-6.371,1.828c-1.805,0-3.461-0.322-4.967-0.967s-2.648-1.547-3.428-2.707s-1.168-2.49-1.168-3.99h2.162
		c0,1.805,0.674,3.229,2.021,4.271s3.141,1.564,5.379,1.564c1.992,0,3.592-0.439,4.799-1.318S1040.331,607.459,1040.331,606.006z"/>
	<path d="M1053.708,610.875c1.465,0,2.691-0.413,3.682-1.239s1.527-1.896,1.609-3.208h2.021c-0.059,1.16-0.422,2.218-1.09,3.173
		s-1.557,1.702-2.664,2.241s-2.293,0.809-3.559,0.809c-2.496,0-4.475-0.867-5.934-2.602s-2.188-4.066-2.188-6.996v-0.633
		c0-1.875,0.328-3.533,0.984-4.975s1.596-2.555,2.82-3.34s2.658-1.178,4.299-1.178c2.086,0,3.805,0.621,5.158,1.863
		s2.078,2.877,2.172,4.904h-2.021c-0.094-1.488-0.631-2.689-1.609-3.604s-2.211-1.371-3.699-1.371c-1.898,0-3.373,0.686-4.422,2.057
		s-1.572,3.293-1.572,5.766v0.615c0,2.426,0.523,4.318,1.572,5.678S1051.798,610.875,1053.708,610.875z"/>
	<path d="M1067.313,596.496c0.691-1.137,1.576-2.016,2.654-2.637s2.256-0.932,3.533-0.932c2.039,0,3.557,0.574,4.553,1.723
		s1.5,2.871,1.512,5.168v12.48h-2.092v-12.498c-0.012-1.699-0.373-2.965-1.082-3.797s-1.842-1.248-3.4-1.248
		c-1.301,0-2.453,0.407-3.455,1.222s-1.742,1.913-2.223,3.296v13.025h-2.092v-27h2.092V596.496z"/>
	<path d="M1087.335,612.299h-2.109v-27h2.109V612.299z"/>
	<path d="M1105.054,612.299c-0.211-0.598-0.346-1.482-0.404-2.654c-0.738,0.961-1.68,1.702-2.822,2.224s-2.352,0.782-3.629,0.782
		c-1.828,0-3.309-0.51-4.439-1.529s-1.695-2.309-1.695-3.867c0-1.852,0.77-3.316,2.311-4.395s3.689-1.617,6.443-1.617h3.814v-2.162
		c0-1.359-0.42-2.429-1.258-3.208s-2.059-1.169-3.664-1.169c-1.465,0-2.678,0.375-3.639,1.125s-1.441,1.652-1.441,2.707
		l-2.109-0.018c0-1.512,0.703-2.821,2.109-3.929s3.135-1.661,5.186-1.661c2.121,0,3.793,0.53,5.018,1.591s1.855,2.54,1.891,4.438v9
		c0,1.84,0.193,3.217,0.58,4.131v0.211H1105.054z M1098.444,610.787c1.406,0,2.662-0.34,3.77-1.02s1.914-1.588,2.418-2.725v-4.184
		h-3.762c-2.098,0.023-3.738,0.407-4.922,1.151s-1.775,1.767-1.775,3.067c0,1.066,0.395,1.951,1.186,2.654
		S1097.179,610.787,1098.444,610.787z"/>
	<path d="M1119.362,610.875c1.465,0,2.691-0.413,3.682-1.239s1.527-1.896,1.609-3.208h2.021c-0.059,1.16-0.422,2.218-1.09,3.173
		s-1.557,1.702-2.664,2.241s-2.293,0.809-3.559,0.809c-2.496,0-4.475-0.867-5.934-2.602s-2.188-4.066-2.188-6.996v-0.633
		c0-1.875,0.328-3.533,0.984-4.975s1.596-2.555,2.82-3.34s2.658-1.178,4.299-1.178c2.086,0,3.805,0.621,5.158,1.863
		s2.078,2.877,2.172,4.904h-2.021c-0.094-1.488-0.631-2.689-1.609-3.604s-2.211-1.371-3.699-1.371c-1.898,0-3.373,0.686-4.422,2.057
		s-1.572,3.293-1.572,5.766v0.615c0,2.426,0.523,4.318,1.572,5.678S1117.452,610.875,1119.362,610.875z"/>
	<path d="M1132.968,596.496c0.691-1.137,1.576-2.016,2.654-2.637s2.256-0.932,3.533-0.932c2.039,0,3.557,0.574,4.553,1.723
		s1.5,2.871,1.512,5.168v12.48h-2.092v-12.498c-0.012-1.699-0.373-2.965-1.082-3.797s-1.842-1.248-3.4-1.248
		c-1.301,0-2.453,0.407-3.455,1.222s-1.742,1.913-2.223,3.296v13.025h-2.092v-27h2.092V596.496z"/>
	<path d="M1153.903,588.41v4.869h3.938v1.723h-3.938v12.688c0,1.056,0.189,1.842,0.57,2.358c0.381,0.517,1.018,0.774,1.908,0.774
		c0.352,0,0.92-0.059,1.705-0.176l0.088,1.708c-0.551,0.197-1.301,0.296-2.25,0.296c-1.441,0-2.49-0.419-3.146-1.257
		s-0.984-2.071-0.984-3.7v-12.691h-3.498v-1.723h3.498v-4.869H1153.903z"/>
	<path d="M1169.565,612.65c-1.617,0-3.08-0.398-4.387-1.195s-2.322-1.907-3.049-3.331s-1.09-3.021-1.09-4.79v-0.756
		c0-1.828,0.354-3.475,1.063-4.939s1.697-2.616,2.963-3.454s2.637-1.257,4.113-1.257c2.309,0,4.139,0.788,5.492,2.364
		s2.031,3.729,2.031,6.46v1.178h-13.57v0.404c0,2.156,0.617,3.952,1.854,5.388s2.793,2.153,4.668,2.153
		c1.125,0,2.117-0.205,2.979-0.615s1.645-1.066,2.348-1.969l1.318,1.002C1174.751,611.531,1172.507,612.65,1169.565,612.65z
		 M1169.179,594.721c-1.582,0-2.916,0.58-4,1.74s-1.742,2.719-1.977,4.676h11.408v-0.229c-0.059-1.828-0.58-3.316-1.564-4.465
		S1170.772,594.721,1169.179,594.721z"/>
	<path d="M1189.587,595.072c-0.445-0.082-0.92-0.123-1.424-0.123c-1.313,0-2.424,0.366-3.332,1.099s-1.555,1.796-1.941,3.19v13.061
		h-2.092v-19.02h2.057l0.035,3.023c1.113-2.25,2.9-3.375,5.361-3.375c0.586,0,1.049,0.076,1.389,0.229L1189.587,595.072z"/>
</g>
<rect x="741.942" y="450.286" fill="none" stroke="#000000" stroke-width="1.5" stroke-miterlimit="10" width="252.041" height="59.895"/>
<rect x="993.983" y="450.286" fill="none" stroke="#000000" stroke-width="1.5" stroke-miterlimit="10" width="252.035" height="59.895"/>
<rect x="741.942" y="509.925" fill="none" stroke="#000000" stroke-width="1.5" stroke-miterlimit="10" width="252.041" height="59.893"/>
<rect x="993.983" y="509.925" fill="none" stroke="#000000" stroke-width="1.5" stroke-miterlimit="10" width="252.035" height="59.893"/>
<rect x="741.942" y="569.817" fill="none" stroke="#000000" stroke-width="1.5" stroke-miterlimit="10" width="252.041" height="59.895"/>
<rect x="993.983" y="569.817" fill="none" stroke="#000000" stroke-width="1.5" stroke-miterlimit="10" width="252.035" height="59.895"/>
</svg>
