<?xml version="1.0" encoding="utf-8"?>
<!-- Generator: Adobe Illustrator 16.0.0, SVG Export Plug-In . SVG Version: 6.00 Build 0)  -->
<!DOCTYPE svg PUBLIC "-//W3C//DTD SVG 1.1//EN" "http://www.w3.org/Graphics/SVG/1.1/DTD/svg11.dtd">
<svg version="1.1" id="Layer_1" xmlns="http://www.w3.org/2000/svg" xmlns:xlink="http://www.w3.org/1999/xlink" x="0px" y="0px"
	 width="1920px" height="1079.999px" viewBox="0 0 1920 1079.999" enable-background="new 0 0 1920 1079.999" xml:space="preserve">
<g>
	<path fill="#00A651" d="M172.531,392.645c0-1.418-0.498-2.54-1.494-3.366s-2.818-1.611-5.467-2.355s-4.582-1.556-5.801-2.435
		c-1.734-1.242-2.602-2.871-2.602-4.887c0-1.957,0.805-3.548,2.416-4.772s3.672-1.837,6.18-1.837c1.699,0,3.219,0.328,4.561,0.984
		s2.383,1.57,3.121,2.742s1.107,2.479,1.107,3.92h-2.18c0-1.751-0.598-3.159-1.793-4.223s-2.801-1.596-4.816-1.596
		c-1.957,0-3.516,0.438-4.676,1.312c-1.16,0.875-1.74,2.016-1.74,3.425c0,1.303,0.521,2.365,1.564,3.187s2.713,1.547,5.01,2.175
		s4.037,1.278,5.221,1.952s2.074,1.479,2.672,2.417s0.896,2.045,0.896,3.322c0,2.016-0.807,3.633-2.418,4.852
		s-3.734,1.828-6.371,1.828c-1.805,0-3.461-0.322-4.967-0.967s-2.648-1.547-3.428-2.707s-1.168-2.49-1.168-3.99h2.162
		c0,1.805,0.674,3.229,2.021,4.271s3.141,1.564,5.379,1.564c1.992,0,3.592-0.439,4.799-1.318S172.531,394.098,172.531,392.645z"/>
	<path fill="#00A651" d="M191.111,396.529c-1.266,1.84-3.287,2.76-6.064,2.76c-2.027,0-3.568-0.589-4.623-1.767
		s-1.594-2.921-1.617-5.229v-12.375h2.092v12.111c0,3.621,1.465,5.432,4.395,5.432c3.047,0,4.975-1.26,5.783-3.779v-13.764h2.109
		v19.02h-2.039L191.111,396.529z"/>
	<path fill="#00A651" d="M213.963,389.621c0,2.965-0.656,5.317-1.969,7.058s-3.076,2.61-5.291,2.61
		c-2.648,0-4.652-0.984-6.012-2.953l-0.088,2.602h-1.969v-27h2.092v10.74c1.336-2.074,3.316-3.111,5.941-3.111
		c2.25,0,4.027,0.858,5.334,2.575s1.961,4.104,1.961,7.163V389.621z M211.854,389.252c0-2.508-0.486-4.444-1.459-5.81
		s-2.344-2.048-4.113-2.048c-1.348,0-2.49,0.331-3.428,0.993s-1.646,1.632-2.127,2.909v8.578c1.055,2.391,2.918,3.586,5.59,3.586
		c1.734,0,3.09-0.686,4.068-2.057S211.854,391.982,211.854,389.252z"/>
	<path fill="#00A651" d="M220.871,379.918v21.287c0,1.758-0.422,3.1-1.266,4.025s-2.086,1.389-3.727,1.389
		c-0.633,0-1.248-0.11-1.846-0.331l0.035-1.726c0.516,0.152,1.043,0.229,1.582,0.229c2.086,0,3.129-1.202,3.129-3.606v-21.267
		H220.871z M219.834,373.01c0.457,0,0.814,0.137,1.072,0.41c0.258,0.274,0.387,0.608,0.387,1.005s-0.129,0.728-0.387,0.996
		c-0.258,0.268-0.615,0.401-1.072,0.401c-0.445,0-0.795-0.134-1.047-0.401c-0.252-0.269-0.377-0.6-0.377-0.996
		s0.125-0.73,0.377-1.005C219.039,373.146,219.389,373.01,219.834,373.01z"/>
	<path fill="#00A651" d="M234.178,399.289c-1.617,0-3.08-0.398-4.387-1.195s-2.322-1.907-3.049-3.331s-1.09-3.021-1.09-4.79v-0.756
		c0-1.828,0.354-3.475,1.063-4.939s1.697-2.616,2.963-3.454s2.637-1.257,4.113-1.257c2.309,0,4.139,0.788,5.492,2.364
		s2.031,3.729,2.031,6.46v1.178h-13.57v0.404c0,2.156,0.617,3.952,1.854,5.388s2.793,2.153,4.668,2.153
		c1.125,0,2.117-0.205,2.979-0.615s1.645-1.066,2.348-1.969l1.318,1.002C239.363,398.17,237.119,399.289,234.178,399.289z
		 M233.791,381.359c-1.582,0-2.916,0.58-4,1.74s-1.742,2.719-1.977,4.676h11.408v-0.229c-0.059-1.828-0.58-3.316-1.564-4.465
		S235.385,381.359,233.791,381.359z"/>
	<path fill="#00A651" d="M252.441,397.514c1.465,0,2.691-0.413,3.682-1.239s1.527-1.896,1.609-3.208h2.021
		c-0.059,1.16-0.422,2.218-1.09,3.173s-1.557,1.702-2.664,2.241s-2.293,0.809-3.559,0.809c-2.496,0-4.475-0.867-5.934-2.602
		s-2.188-4.066-2.188-6.996v-0.633c0-1.875,0.328-3.533,0.984-4.975s1.596-2.555,2.82-3.34s2.658-1.178,4.299-1.178
		c2.086,0,3.805,0.621,5.158,1.863s2.078,2.877,2.172,4.904h-2.021c-0.094-1.488-0.631-2.689-1.609-3.604s-2.211-1.371-3.699-1.371
		c-1.898,0-3.373,0.686-4.422,2.057s-1.572,3.293-1.572,5.766v0.615c0,2.426,0.523,4.318,1.572,5.678
		S250.531,397.514,252.441,397.514z"/>
	<path fill="#00A651" d="M267.225,375.049v4.869h3.938v1.723h-3.938v12.688c0,1.057,0.189,1.843,0.57,2.358
		c0.381,0.517,1.018,0.774,1.908,0.774c0.352,0,0.92-0.059,1.705-0.176l0.088,1.708c-0.551,0.197-1.301,0.296-2.25,0.296
		c-1.441,0-2.49-0.419-3.146-1.257s-0.984-2.071-0.984-3.7v-12.691h-3.498v-1.723h3.498v-4.869H267.225z"/>
</g>
<g>
	<g>
		
			<line fill="none" stroke="#00A651" stroke-width="3" stroke-miterlimit="10" x1="358.043" y1="386.997" x2="284.453" y2="386.997"/>
		<g>
			<polygon fill="#00A651" points="349.617,375.887 354.338,386.997 349.617,398.106 375.953,386.997 			"/>
		</g>
	</g>
</g>
<g>
	<path d="M549.732,212.003v10.424h-2.162v-25.594h8.719c2.66,0,4.762,0.68,6.303,2.039s2.311,3.229,2.311,5.607
		c0,2.402-0.74,4.257-2.223,5.563s-3.631,1.96-6.443,1.96H549.732z M549.732,210.175h6.557c2.098,0,3.697-0.499,4.799-1.496
		c1.102-0.998,1.652-2.389,1.652-4.173c0-1.772-0.547-3.184-1.643-4.233c-1.096-1.051-2.652-1.588-4.668-1.611h-6.697V210.175z"/>
	<path d="M578.033,205.2c-0.445-0.082-0.92-0.123-1.424-0.123c-1.313,0-2.422,0.366-3.33,1.099s-1.557,1.796-1.943,3.19v13.061
		h-2.092v-19.02h2.057l0.035,3.023c1.113-2.25,2.9-3.375,5.361-3.375c0.586,0,1.049,0.076,1.389,0.229L578.033,205.2z"/>
	<path d="M588.387,222.778c-1.617,0-3.078-0.398-4.385-1.195s-2.324-1.907-3.051-3.331s-1.09-3.021-1.09-4.79v-0.756
		c0-1.828,0.355-3.475,1.064-4.939s1.695-2.616,2.961-3.454s2.637-1.257,4.113-1.257c2.309,0,4.141,0.788,5.494,2.364
		s2.029,3.729,2.029,6.46v1.178h-13.57v0.404c0,2.156,0.619,3.952,1.855,5.388s2.791,2.153,4.666,2.153
		c1.125,0,2.119-0.205,2.98-0.615s1.643-1.066,2.346-1.969l1.318,1.002C593.572,221.659,591.328,222.778,588.387,222.778z
		 M588,204.849c-1.582,0-2.914,0.58-3.998,1.74s-1.744,2.719-1.979,4.676h11.408v-0.229c-0.059-1.828-0.58-3.316-1.564-4.465
		S589.594,204.849,588,204.849z"/>
	<path d="M598.775,212.741c0-2.953,0.66-5.306,1.979-7.058s3.107-2.628,5.369-2.628c2.566,0,4.523,1.014,5.871,3.041v-10.67h2.092
		v27h-1.969l-0.088-2.531c-1.348,1.922-3.328,2.883-5.941,2.883c-2.191,0-3.957-0.882-5.299-2.646s-2.014-4.146-2.014-7.146V212.741
		z M600.902,213.11c0,2.426,0.486,4.339,1.459,5.739s2.344,2.101,4.113,2.101c2.59,0,4.43-1.143,5.52-3.428v-8.93
		c-1.09-2.473-2.918-3.709-5.484-3.709c-1.77,0-3.146,0.694-4.131,2.083S600.902,210.403,600.902,213.11z"/>
	<path d="M619.5,197.914c0-0.396,0.129-0.73,0.387-1.005c0.258-0.273,0.609-0.41,1.055-0.41s0.801,0.137,1.064,0.41
		c0.264,0.274,0.395,0.608,0.395,1.005s-0.131,0.728-0.395,0.996c-0.264,0.268-0.619,0.401-1.064,0.401s-0.797-0.134-1.055-0.401
		C619.629,198.642,619.5,198.311,619.5,197.914z M621.979,222.427h-2.109v-19.02h2.109V222.427z"/>
	<path d="M634.723,221.003c1.465,0,2.693-0.413,3.684-1.239s1.525-1.896,1.607-3.208h2.021c-0.059,1.16-0.422,2.218-1.09,3.173
		s-1.555,1.702-2.662,2.241s-2.295,0.809-3.561,0.809c-2.496,0-4.473-0.867-5.932-2.602s-2.189-4.066-2.189-6.996v-0.633
		c0-1.875,0.328-3.533,0.984-4.975s1.598-2.555,2.822-3.34s2.656-1.178,4.297-1.178c2.086,0,3.807,0.621,5.16,1.863
		s2.076,2.877,2.17,4.904h-2.021c-0.094-1.488-0.629-2.689-1.607-3.604s-2.213-1.371-3.701-1.371c-1.898,0-3.371,0.686-4.42,2.057
		s-1.574,3.293-1.574,5.766v0.615c0,2.426,0.525,4.318,1.574,5.678S632.813,221.003,634.723,221.003z"/>
	<path d="M658.242,222.427c-0.211-0.598-0.346-1.482-0.404-2.654c-0.738,0.961-1.678,1.702-2.82,2.224s-2.354,0.782-3.631,0.782
		c-1.828,0-3.307-0.51-4.438-1.529s-1.697-2.309-1.697-3.867c0-1.852,0.771-3.316,2.313-4.395s3.688-1.617,6.441-1.617h3.814v-2.162
		c0-1.359-0.418-2.429-1.256-3.208s-2.061-1.169-3.666-1.169c-1.465,0-2.678,0.375-3.639,1.125s-1.441,1.652-1.441,2.707
		l-2.109-0.018c0-1.512,0.703-2.821,2.109-3.929s3.135-1.661,5.186-1.661c2.121,0,3.795,0.53,5.02,1.591s1.854,2.54,1.889,4.438v9
		c0,1.84,0.193,3.217,0.58,4.131v0.211H658.242z M651.633,220.915c1.406,0,2.664-0.34,3.771-1.02s1.912-1.588,2.416-2.725v-4.184
		h-3.762c-2.098,0.023-3.738,0.407-4.922,1.151s-1.775,1.767-1.775,3.067c0,1.066,0.396,1.951,1.188,2.654
		S650.367,220.915,651.633,220.915z"/>
	<path d="M668.789,198.538v4.869h3.938v1.723h-3.938v12.688c0,1.057,0.191,1.843,0.572,2.358c0.381,0.517,1.016,0.774,1.906,0.774
		c0.352,0,0.92-0.059,1.705-0.176l0.088,1.708c-0.551,0.197-1.301,0.296-2.25,0.296c-1.441,0-2.49-0.419-3.146-1.257
		s-0.984-2.071-0.984-3.7V205.13h-3.498v-1.723h3.498v-4.869H668.789z"/>
	<path d="M684.451,222.778c-1.617,0-3.078-0.398-4.385-1.195s-2.324-1.907-3.051-3.331s-1.09-3.021-1.09-4.79v-0.756
		c0-1.828,0.355-3.475,1.064-4.939s1.695-2.616,2.961-3.454s2.637-1.257,4.113-1.257c2.309,0,4.141,0.788,5.494,2.364
		s2.029,3.729,2.029,6.46v1.178h-13.57v0.404c0,2.156,0.619,3.952,1.855,5.388s2.791,2.153,4.666,2.153
		c1.125,0,2.119-0.205,2.98-0.615s1.643-1.066,2.346-1.969l1.318,1.002C689.637,221.659,687.393,222.778,684.451,222.778z
		 M684.064,204.849c-1.582,0-2.914,0.58-3.998,1.74s-1.744,2.719-1.979,4.676h11.408v-0.229c-0.059-1.828-0.58-3.316-1.564-4.465
		S685.658,204.849,684.064,204.849z"/>
</g>
<g>
	<path d="M393.832,630.087h-2.162v-25.594h2.162V630.087z"/>
	<path d="M402.287,611.067l0.07,3.252c0.715-1.172,1.605-2.065,2.672-2.681s2.244-0.923,3.533-0.923
		c2.039,0,3.557,0.574,4.553,1.723s1.5,2.871,1.512,5.168v12.48h-2.092v-12.498c-0.012-1.699-0.373-2.965-1.082-3.797
		s-1.842-1.248-3.4-1.248c-1.301,0-2.453,0.407-3.455,1.222s-1.742,1.913-2.223,3.296v13.025h-2.092v-19.02H402.287z"/>
	<path d="M438.867,619.417h-7.436v10.67h-2.18v-25.594h8.314c2.73,0,4.863,0.661,6.398,1.984c1.535,1.322,2.303,3.172,2.303,5.548
		c0,1.639-0.48,3.084-1.441,4.337c-0.961,1.252-2.25,2.118-3.867,2.599l6.398,10.897v0.229h-2.303L438.867,619.417z
		 M431.432,617.589h6.627c1.816,0,3.275-0.517,4.377-1.55c1.102-1.032,1.652-2.37,1.652-4.014c0-1.808-0.574-3.21-1.723-4.207
		c-1.148-0.998-2.76-1.497-4.834-1.497h-6.1V617.589z"/>
	<path d="M452.156,630.087v-25.594h7.154c2.098,0,3.979,0.478,5.643,1.433s2.961,2.323,3.893,4.104s1.398,3.809,1.398,6.082v2.355
		c0,2.285-0.463,4.313-1.389,6.082s-2.23,3.135-3.912,4.096s-3.611,1.441-5.791,1.441H452.156z M454.318,606.321v21.938h4.852
		c2.695,0,4.857-0.895,6.486-2.683c1.629-1.789,2.443-4.208,2.443-7.257v-2.252c0-2.943-0.803-5.301-2.408-7.072
		c-1.605-1.771-3.721-2.662-6.346-2.674H454.318z"/>
	<path d="M489.826,618.116h-11.936v11.971h-2.162v-25.594h15.855v1.828h-13.693v9.967h11.936V618.116z"/>
	<path d="M494.977,628.821c0-0.41,0.131-0.759,0.395-1.046s0.631-0.431,1.1-0.431s0.838,0.144,1.107,0.431s0.404,0.636,0.404,1.046
		s-0.135,0.747-0.404,1.011s-0.639,0.396-1.107,0.396s-0.836-0.132-1.1-0.396S494.977,629.231,494.977,628.821z M495.012,612.597
		c0-0.41,0.131-0.759,0.395-1.046s0.631-0.431,1.1-0.431s0.838,0.144,1.107,0.431s0.404,0.636,0.404,1.046s-0.135,0.747-0.404,1.011
		s-0.639,0.396-1.107,0.396s-0.836-0.132-1.1-0.396S495.012,613.007,495.012,612.597z"/>
</g>
<g>
	<g>
		
			<line fill="none" stroke="#000000" stroke-width="3" stroke-miterlimit="10" x1="530.496" y1="269.148" x2="530.496" y2="195.558"/>
		<g>
			<polygon points="541.605,260.722 530.496,265.442 519.387,260.722 530.496,287.058 			"/>
		</g>
	</g>
</g>
<g>
	<g>
		<path fill="#00A651" d="M755.705,554.19c0,2.355-0.408,4.424-1.223,6.205s-1.977,3.152-3.488,4.113s-3.258,1.441-5.238,1.441
			c-2.988,0-5.402-1.069-7.242-3.208s-2.76-5.024-2.76-8.657v-2.637c0-2.332,0.412-4.397,1.238-6.196s1.996-3.182,3.508-4.148
			s3.252-1.45,5.221-1.45s3.705,0.475,5.211,1.424s2.67,2.291,3.49,4.025s1.248,3.744,1.283,6.029V554.19z M753.543,551.413
			c0-3.082-0.697-5.496-2.092-7.242s-3.305-2.619-5.73-2.619c-2.379,0-4.275,0.876-5.688,2.628s-2.117,4.198-2.117,7.339v2.672
			c0,3.035,0.703,5.44,2.109,7.216s3.316,2.663,5.73,2.663c2.449,0,4.359-0.876,5.73-2.628s2.057-4.192,2.057-7.321V551.413z"/>
		<path fill="#00A651" d="M775.973,556.282c0,2.965-0.656,5.317-1.969,7.058s-3.076,2.61-5.291,2.61
			c-2.648,0-4.652-0.984-6.012-2.953l-0.088,2.602h-1.969v-27h2.092v10.74c1.336-2.074,3.316-3.111,5.941-3.111
			c2.25,0,4.027,0.858,5.334,2.575s1.961,4.104,1.961,7.163V556.282z M773.863,555.913c0-2.508-0.486-4.444-1.459-5.81
			s-2.344-2.048-4.113-2.048c-1.348,0-2.49,0.331-3.428,0.993s-1.646,1.632-2.127,2.909v8.578c1.055,2.391,2.918,3.586,5.59,3.586
			c1.734,0,3.09-0.686,4.068-2.057S773.863,558.644,773.863,555.913z"/>
		<path fill="#00A651" d="M782.881,546.579v21.287c0,1.758-0.422,3.1-1.266,4.025s-2.086,1.389-3.727,1.389
			c-0.633,0-1.248-0.11-1.846-0.331l0.035-1.726c0.516,0.152,1.043,0.229,1.582,0.229c2.086,0,3.129-1.202,3.129-3.606v-21.267
			H782.881z M781.844,539.671c0.457,0,0.814,0.137,1.072,0.41c0.258,0.274,0.387,0.608,0.387,1.005s-0.129,0.728-0.387,0.996
			c-0.258,0.268-0.615,0.401-1.072,0.401c-0.445,0-0.795-0.134-1.047-0.401c-0.252-0.269-0.377-0.6-0.377-0.996
			s0.125-0.73,0.377-1.005C781.049,539.808,781.398,539.671,781.844,539.671z"/>
		<path fill="#00A651" d="M796.188,565.95c-1.617,0-3.08-0.398-4.387-1.195s-2.322-1.907-3.049-3.331s-1.09-3.021-1.09-4.79v-0.756
			c0-1.828,0.354-3.475,1.063-4.939s1.697-2.616,2.963-3.454s2.637-1.257,4.113-1.257c2.309,0,4.139,0.788,5.492,2.364
			s2.031,3.729,2.031,6.46v1.178h-13.57v0.404c0,2.156,0.617,3.952,1.854,5.388s2.793,2.153,4.668,2.153
			c1.125,0,2.117-0.205,2.979-0.615s1.645-1.066,2.348-1.969l1.318,1.002C801.373,564.831,799.129,565.95,796.188,565.95z
			 M795.801,548.021c-1.582,0-2.916,0.58-4,1.74s-1.742,2.719-1.977,4.676h11.408v-0.229c-0.059-1.828-0.58-3.316-1.564-4.465
			S797.395,548.021,795.801,548.021z"/>
		<path fill="#00A651" d="M814.451,564.175c1.465,0,2.691-0.413,3.682-1.239s1.527-1.896,1.609-3.208h2.021
			c-0.059,1.16-0.422,2.218-1.09,3.173s-1.557,1.702-2.664,2.241s-2.293,0.809-3.559,0.809c-2.496,0-4.475-0.867-5.934-2.602
			s-2.188-4.066-2.188-6.996v-0.633c0-1.875,0.328-3.533,0.984-4.975s1.596-2.555,2.82-3.34s2.658-1.178,4.299-1.178
			c2.086,0,3.805,0.621,5.158,1.863s2.078,2.877,2.172,4.904h-2.021c-0.094-1.488-0.631-2.689-1.609-3.604s-2.211-1.371-3.699-1.371
			c-1.898,0-3.373,0.686-4.422,2.057s-1.572,3.293-1.572,5.766v0.615c0,2.426,0.523,4.318,1.572,5.678
			S812.541,564.175,814.451,564.175z"/>
		<path fill="#00A651" d="M829.234,541.71v4.869h3.938v1.723h-3.938v12.688c0,1.057,0.189,1.843,0.57,2.358
			c0.381,0.517,1.018,0.774,1.908,0.774c0.352,0,0.92-0.059,1.705-0.176l0.088,1.708c-0.551,0.197-1.301,0.296-2.25,0.296
			c-1.441,0-2.49-0.419-3.146-1.257s-0.984-2.071-0.984-3.7v-12.691h-3.498v-1.723h3.498v-4.869H829.234z"/>
	</g>
</g>
<g>
	<g>
		
			<line fill="none" stroke="#00A651" stroke-width="3" stroke-miterlimit="10" x1="593.13" y1="418.516" x2="728.462" y2="553.848"/>
		<g>
			<polygon fill="#00A651" points="591.229,432.33 595.747,421.136 606.941,416.618 580.464,405.852 			"/>
		</g>
	</g>
</g>
<circle cx="1441.082" cy="438.558" r="15.112"/>
<g>
	<path d="M1416.235,479.32l12.234,5.273v2.215l-14.537-6.662v-1.705l14.537-6.645v2.215L1416.235,479.32z"/>
	<path d="M1443.183,490.834h-2.109v-23.063l-6.961,2.584v-1.969l8.719-3.234h0.352V490.834z"/>
	<path d="M1465.612,479.25l-12.498-5.326v-2.162l14.854,6.645v1.705l-14.854,6.662v-2.18L1465.612,479.25z"/>
</g>
<g>
	<path d="M1515.116,396.311h-1.758v-22.5h1.758V396.311z"/>
	<path d="M1529.882,396.311c-0.176-0.498-0.288-1.235-0.337-2.212c-0.615,0.801-1.398,1.418-2.352,1.853
		c-0.951,0.435-1.96,0.652-3.024,0.652c-1.523,0-2.757-0.425-3.698-1.274c-0.943-0.85-1.414-1.924-1.414-3.223
		c0-1.543,0.642-2.764,1.926-3.662s3.074-1.348,5.369-1.348h3.179v-1.802c0-1.133-0.35-2.024-1.048-2.673s-1.716-0.974-3.054-0.974
		c-1.221,0-2.231,0.313-3.032,0.938s-1.201,1.377-1.201,2.256l-1.758-0.015c0-1.26,0.586-2.351,1.758-3.274s2.612-1.384,4.321-1.384
		c1.768,0,3.161,0.442,4.183,1.326c1.02,0.884,1.545,2.117,1.574,3.699v7.5c0,1.533,0.161,2.681,0.483,3.442v0.176H1529.882z
		 M1524.374,395.051c1.172,0,2.22-0.283,3.142-0.85c0.924-0.566,1.595-1.323,2.015-2.271v-3.486h-3.135
		c-1.748,0.02-3.115,0.339-4.102,0.959s-1.479,1.472-1.479,2.556c0,0.889,0.33,1.626,0.988,2.212
		C1522.463,394.758,1523.319,395.051,1524.374,395.051z"/>
	<path d="M1545.438,392.282c0-0.869-0.35-1.567-1.047-2.095c-0.699-0.527-1.751-0.94-3.157-1.238s-2.497-0.64-3.274-1.025
		c-0.775-0.386-1.353-0.857-1.729-1.414s-0.563-1.23-0.563-2.021c0-1.25,0.522-2.283,1.567-3.098s2.383-1.223,4.014-1.223
		c1.768,0,3.186,0.437,4.256,1.311c1.068,0.874,1.604,2.014,1.604,3.42h-1.758c0-0.928-0.389-1.699-1.164-2.314
		c-0.777-0.615-1.756-0.923-2.938-0.923c-1.152,0-2.078,0.256-2.775,0.769c-0.699,0.513-1.048,1.179-1.048,2
		c0,0.791,0.29,1.404,0.872,1.838c0.58,0.435,1.641,0.833,3.178,1.194c1.539,0.361,2.69,0.747,3.457,1.157s1.336,0.903,1.707,1.479
		s0.557,1.274,0.557,2.095c0,1.338-0.54,2.407-1.619,3.208s-2.487,1.201-4.226,1.201c-1.846,0-3.343-0.447-4.489-1.34
		c-1.148-0.894-1.722-2.024-1.722-3.391h1.758c0.068,1.025,0.5,1.824,1.296,2.395s1.849,0.857,3.157,0.857
		c1.221,0,2.207-0.269,2.959-0.806S1545.438,393.103,1545.438,392.282z"/>
	<path d="M1553.861,376.403v4.058h3.281v1.436h-3.281v10.573c0,0.88,0.158,1.535,0.477,1.965c0.316,0.43,0.847,0.645,1.589,0.645
		c0.293,0,0.767-0.049,1.421-0.146l0.073,1.423c-0.459,0.164-1.084,0.247-1.875,0.247c-1.201,0-2.075-0.349-2.622-1.047
		s-0.82-1.726-0.82-3.083v-10.576h-2.915v-1.436h2.915v-4.058H1553.861z"/>
</g>
<g>
	<path d="M1344.196,423.446v-14.414h-2.622v-1.436h2.622v-1.919c0-1.621,0.412-2.866,1.238-3.735
		c0.824-0.869,1.975-1.304,3.449-1.304c0.664,0,1.284,0.083,1.86,0.247l-0.132,1.453c-0.488-0.117-1.021-0.176-1.597-0.176
		c-0.967,0-1.719,0.301-2.256,0.903s-0.806,1.457-0.806,2.563v1.968h3.779v1.436h-3.779v14.414H1344.196z"/>
	<path d="M1352.766,403.019c0-0.33,0.107-0.609,0.322-0.837s0.508-0.342,0.879-0.342s0.667,0.114,0.886,0.342
		c0.221,0.228,0.33,0.507,0.33,0.837s-0.109,0.606-0.33,0.83c-0.219,0.224-0.515,0.335-0.886,0.335s-0.664-0.111-0.879-0.335
		C1352.873,403.625,1352.766,403.349,1352.766,403.019z M1354.831,423.446h-1.758v-15.85h1.758V423.446z"/>
	<path d="M1366.916,409.09c-0.371-0.068-0.767-0.103-1.187-0.103c-1.094,0-2.02,0.305-2.776,0.916s-1.296,1.497-1.618,2.659v10.884
		h-1.743v-15.85h1.714l0.029,2.52c0.928-1.875,2.417-2.813,4.468-2.813c0.488,0,0.874,0.063,1.157,0.19L1366.916,409.09z"/>
	<path d="M1379.177,419.417c0-0.869-0.35-1.567-1.047-2.095c-0.699-0.527-1.751-0.94-3.157-1.238s-2.497-0.64-3.274-1.025
		c-0.775-0.386-1.353-0.857-1.729-1.414s-0.563-1.23-0.563-2.021c0-1.25,0.522-2.283,1.567-3.098s2.383-1.223,4.014-1.223
		c1.768,0,3.186,0.437,4.256,1.311c1.068,0.874,1.604,2.014,1.604,3.42h-1.758c0-0.928-0.389-1.699-1.164-2.314
		c-0.777-0.615-1.756-0.923-2.938-0.923c-1.152,0-2.078,0.256-2.775,0.769c-0.699,0.513-1.048,1.179-1.048,2
		c0,0.791,0.29,1.404,0.872,1.838c0.58,0.435,1.641,0.833,3.178,1.194c1.539,0.361,2.69,0.747,3.457,1.157s1.336,0.903,1.707,1.479
		s0.557,1.274,0.557,2.095c0,1.338-0.54,2.407-1.619,3.208s-2.487,1.201-4.226,1.201c-1.846,0-3.343-0.447-4.489-1.34
		c-1.148-0.894-1.722-2.024-1.722-3.391h1.758c0.068,1.025,0.5,1.824,1.296,2.395s1.849,0.857,3.157,0.857
		c1.221,0,2.207-0.269,2.959-0.806S1379.177,420.238,1379.177,419.417z"/>
	<path d="M1387.6,403.539v4.058h3.281v1.436h-3.281v10.573c0,0.88,0.158,1.535,0.477,1.965c0.316,0.43,0.847,0.645,1.589,0.645
		c0.293,0,0.767-0.049,1.421-0.146l0.073,1.423c-0.459,0.164-1.084,0.247-1.875,0.247c-1.201,0-2.075-0.349-2.622-1.047
		s-0.82-1.726-0.82-3.083v-10.576h-2.915v-1.436h2.915v-4.058H1387.6z"/>
</g>
<g>
	<path d="M1550.746,303.453h-7.436v10.67h-2.18v-25.594h8.314c2.73,0,4.863,0.661,6.398,1.984c1.535,1.322,2.303,3.172,2.303,5.548
		c0,1.639-0.48,3.084-1.441,4.336s-2.25,2.119-3.867,2.599l6.398,10.897v0.229h-2.303L1550.746,303.453z M1543.311,301.625h6.627
		c1.816,0,3.275-0.517,4.377-1.549s1.652-2.371,1.652-4.014c0-1.807-0.574-3.21-1.723-4.208s-2.76-1.497-4.834-1.497h-6.1V301.625z"
		/>
	<path d="M1575.549,314.123c-0.211-0.598-0.346-1.482-0.404-2.654c-0.738,0.961-1.679,1.702-2.821,2.224s-2.353,0.782-3.63,0.782
		c-1.828,0-3.308-0.51-4.438-1.529s-1.696-2.309-1.696-3.867c0-1.852,0.771-3.316,2.312-4.395s3.688-1.617,6.442-1.617h3.814v-2.162
		c0-1.359-0.419-2.429-1.257-3.208s-2.06-1.169-3.665-1.169c-1.465,0-2.678,0.375-3.639,1.125s-1.441,1.652-1.441,2.707
		l-2.109-0.018c0-1.512,0.703-2.821,2.109-3.929s3.135-1.661,5.186-1.661c2.121,0,3.794,0.53,5.019,1.591s1.854,2.54,1.89,4.438v9
		c0,1.84,0.193,3.217,0.58,4.131v0.211H1575.549z M1568.939,312.611c1.406,0,2.663-0.34,3.771-1.02s1.913-1.588,2.417-2.725v-4.184
		h-3.762c-2.098,0.023-3.738,0.407-4.922,1.151s-1.775,1.767-1.775,3.067c0,1.066,0.396,1.951,1.187,2.654
		S1567.674,312.611,1568.939,312.611z"/>
	<path d="M1594.217,309.289c0-1.043-0.419-1.881-1.257-2.514s-2.101-1.128-3.788-1.485s-2.997-0.768-3.929-1.23
		s-1.623-1.028-2.074-1.696s-0.677-1.477-0.677-2.426c0-1.5,0.627-2.739,1.881-3.718s2.859-1.468,4.816-1.468
		c2.121,0,3.823,0.524,5.106,1.573s1.925,2.417,1.925,4.104h-2.109c0-1.113-0.466-2.039-1.397-2.777s-2.106-1.107-3.524-1.107
		c-1.383,0-2.493,0.308-3.331,0.923s-1.257,1.415-1.257,2.399c0,0.949,0.349,1.685,1.046,2.206s1.969,0.999,3.814,1.433
		s3.229,0.896,4.148,1.389s1.603,1.084,2.048,1.775s0.668,1.529,0.668,2.514c0,1.605-0.647,2.889-1.942,3.85
		s-2.985,1.441-5.071,1.441c-2.215,0-4.011-0.536-5.388-1.608s-2.065-2.429-2.065-4.069h2.109c0.082,1.23,0.601,2.188,1.556,2.874
		s2.218,1.028,3.788,1.028c1.465,0,2.648-0.322,3.551-0.967S1594.217,310.273,1594.217,309.289z"/>
	<path d="M1602.971,295.103l0.07,3.094c0.703-1.148,1.582-2.01,2.637-2.584s2.227-0.861,3.516-0.861c3,0,4.904,1.23,5.713,3.691
		c0.68-1.184,1.588-2.095,2.725-2.733s2.391-0.958,3.762-0.958c4.078,0,6.158,2.227,6.24,6.68v12.691h-2.109v-12.533
		c-0.012-1.699-0.378-2.959-1.099-3.779s-1.896-1.23-3.524-1.23c-1.512,0.023-2.789,0.513-3.832,1.468s-1.623,2.118-1.74,3.489
		v12.586h-2.109v-12.691c-0.012-1.629-0.396-2.845-1.151-3.647s-1.919-1.204-3.489-1.204c-1.324,0-2.461,0.378-3.41,1.134
		s-1.652,1.878-2.109,3.366v13.043h-2.109v-19.02H1602.971z"/>
	<path d="M1645.193,311.714c-1.266,1.84-3.287,2.76-6.064,2.76c-2.027,0-3.568-0.589-4.623-1.767s-1.594-2.921-1.617-5.229v-12.375
		h2.092v12.111c0,3.621,1.465,5.432,4.395,5.432c3.047,0,4.975-1.26,5.783-3.779v-13.764h2.109v19.02h-2.039L1645.193,311.714z"/>
	<path d="M1664.125,309.289c0-1.043-0.419-1.881-1.257-2.514s-2.101-1.128-3.788-1.485s-2.997-0.768-3.929-1.23
		s-1.623-1.028-2.074-1.696s-0.677-1.477-0.677-2.426c0-1.5,0.627-2.739,1.881-3.718s2.859-1.468,4.816-1.468
		c2.121,0,3.823,0.524,5.106,1.573s1.925,2.417,1.925,4.104h-2.109c0-1.113-0.466-2.039-1.397-2.777s-2.106-1.107-3.524-1.107
		c-1.383,0-2.493,0.308-3.331,0.923s-1.257,1.415-1.257,2.399c0,0.949,0.349,1.685,1.046,2.206s1.969,0.999,3.814,1.433
		s3.229,0.896,4.148,1.389s1.603,1.084,2.048,1.775s0.668,1.529,0.668,2.514c0,1.605-0.647,2.889-1.942,3.85
		s-2.985,1.441-5.071,1.441c-2.215,0-4.011-0.536-5.388-1.608s-2.065-2.429-2.065-4.069h2.109c0.082,1.23,0.601,2.188,1.556,2.874
		s2.218,1.028,3.788,1.028c1.465,0,2.648-0.322,3.551-0.967S1664.125,310.273,1664.125,309.289z"/>
	<path d="M1682.354,309.289c0-1.043-0.419-1.881-1.257-2.514s-2.101-1.128-3.788-1.485s-2.997-0.768-3.929-1.23
		s-1.623-1.028-2.074-1.696s-0.677-1.477-0.677-2.426c0-1.5,0.627-2.739,1.881-3.718s2.859-1.468,4.816-1.468
		c2.121,0,3.823,0.524,5.106,1.573s1.925,2.417,1.925,4.104h-2.109c0-1.113-0.466-2.039-1.397-2.777s-2.106-1.107-3.524-1.107
		c-1.383,0-2.493,0.308-3.331,0.923s-1.257,1.415-1.257,2.399c0,0.949,0.349,1.685,1.046,2.206s1.969,0.999,3.814,1.433
		s3.229,0.896,4.148,1.389s1.603,1.084,2.048,1.775s0.668,1.529,0.668,2.514c0,1.605-0.647,2.889-1.942,3.85
		s-2.985,1.441-5.071,1.441c-2.215,0-4.011-0.536-5.388-1.608s-2.065-2.429-2.065-4.069h2.109c0.082,1.23,0.601,2.188,1.556,2.874
		s2.218,1.028,3.788,1.028c1.465,0,2.648-0.322,3.551-0.967S1682.354,310.273,1682.354,309.289z"/>
	<path d="M1696.557,314.474c-1.617,0-3.079-0.398-4.386-1.195s-2.323-1.907-3.05-3.331s-1.09-3.021-1.09-4.79v-0.756
		c0-1.828,0.354-3.475,1.063-4.939s1.696-2.616,2.962-3.454s2.637-1.257,4.113-1.257c2.309,0,4.14,0.788,5.493,2.364
		s2.03,3.729,2.03,6.46v1.178h-13.57v0.404c0,2.156,0.618,3.952,1.854,5.388s2.792,2.153,4.667,2.153
		c1.125,0,2.118-0.205,2.979-0.615s1.644-1.066,2.347-1.969l1.318,1.002C1701.742,313.355,1699.498,314.474,1696.557,314.474z
		 M1696.17,296.544c-1.582,0-2.915,0.58-3.999,1.74s-1.743,2.719-1.978,4.676h11.408v-0.229c-0.059-1.828-0.58-3.316-1.564-4.465
		S1697.764,296.544,1696.17,296.544z"/>
	<path d="M1709.793,295.103l0.07,3.252c0.715-1.172,1.605-2.065,2.672-2.681s2.244-0.923,3.533-0.923
		c2.039,0,3.557,0.574,4.553,1.723s1.5,2.871,1.512,5.168v12.48h-2.092v-12.498c-0.012-1.699-0.372-2.965-1.081-3.797
		s-1.843-1.248-3.401-1.248c-1.301,0-2.452,0.407-3.454,1.222s-1.743,1.913-2.224,3.296v13.025h-2.092v-19.02H1709.793z"/>
</g>
<g>
	<path d="M1290.707,334.406l9.439,22.588l9.475-22.588h2.883V360h-2.162v-11.145l0.176-11.426L1300.99,360h-1.67l-9.492-22.482
		l0.176,11.268V360h-2.162v-25.594H1290.707z"/>
	<path d="M1330.504,360c-0.211-0.598-0.346-1.482-0.404-2.654c-0.738,0.961-1.679,1.702-2.821,2.224s-2.353,0.782-3.63,0.782
		c-1.828,0-3.308-0.51-4.438-1.529s-1.696-2.309-1.696-3.867c0-1.852,0.771-3.316,2.312-4.395s3.688-1.617,6.442-1.617h3.814v-2.162
		c0-1.359-0.419-2.429-1.257-3.208s-2.06-1.169-3.665-1.169c-1.465,0-2.678,0.375-3.639,1.125s-1.441,1.652-1.441,2.707
		l-2.109-0.018c0-1.512,0.703-2.821,2.109-3.929s3.135-1.661,5.186-1.661c2.121,0,3.794,0.53,5.019,1.591s1.854,2.54,1.89,4.438v9
		c0,1.84,0.193,3.217,0.58,4.131V360H1330.504z M1323.895,358.488c1.406,0,2.663-0.34,3.771-1.02s1.913-1.588,2.417-2.725v-4.184
		h-3.762c-2.098,0.023-3.738,0.407-4.922,1.151s-1.775,1.767-1.775,3.067c0,1.066,0.396,1.951,1.187,2.654
		S1322.629,358.488,1323.895,358.488z"/>
	<path d="M1336.938,350.314c0-2.953,0.659-5.306,1.978-7.058s3.108-2.628,5.37-2.628c2.566,0,4.523,1.014,5.871,3.041V333h2.092v27
		h-1.969l-0.088-2.531c-1.348,1.922-3.328,2.883-5.941,2.883c-2.191,0-3.958-0.882-5.3-2.646s-2.013-4.146-2.013-7.146V350.314z
		 M1339.064,350.683c0,2.426,0.486,4.339,1.459,5.739s2.344,2.101,4.113,2.101c2.59,0,4.43-1.143,5.52-3.428v-8.93
		c-1.09-2.473-2.918-3.709-5.484-3.709c-1.77,0-3.146,0.694-4.131,2.083S1339.064,347.976,1339.064,350.683z"/>
	<path d="M1369.176,355.166c0-1.043-0.419-1.881-1.257-2.514s-2.101-1.128-3.788-1.485s-2.997-0.768-3.929-1.23
		s-1.623-1.028-2.074-1.696s-0.677-1.477-0.677-2.426c0-1.5,0.627-2.739,1.881-3.718s2.859-1.468,4.816-1.468
		c2.121,0,3.823,0.524,5.106,1.573s1.925,2.417,1.925,4.104h-2.109c0-1.113-0.466-2.039-1.397-2.777s-2.106-1.107-3.524-1.107
		c-1.383,0-2.493,0.308-3.331,0.923s-1.257,1.415-1.257,2.399c0,0.949,0.349,1.685,1.046,2.206s1.969,0.999,3.814,1.433
		s3.229,0.896,4.148,1.389s1.603,1.084,2.048,1.775s0.668,1.529,0.668,2.514c0,1.605-0.647,2.889-1.942,3.85
		s-2.985,1.441-5.071,1.441c-2.215,0-4.011-0.536-5.388-1.608s-2.065-2.429-2.065-4.069h2.109c0.082,1.23,0.601,2.188,1.556,2.874
		s2.218,1.028,3.788,1.028c1.465,0,2.648-0.322,3.551-0.967S1369.176,356.15,1369.176,355.166z"/>
</g>
<g>
	<g>
		<line fill="none" stroke="#000000" stroke-width="2" stroke-miterlimit="10" x1="1441.082" y1="438.558" x2="1540" y2="331.637"/>
		<g>
			<polygon points="1541.622,340.79 1538.321,333.45 1530.748,330.73 1548.106,322.873 			"/>
		</g>
	</g>
</g>
<g>
	<g>
		
			<line fill="none" stroke="#000000" stroke-width="2" stroke-miterlimit="10" x1="1441.082" y1="438.558" x2="1368.959" y2="373.888"/>
		<g>
			<polygon points="1378.085,372.124 1370.799,375.538 1368.196,383.152 1360.069,365.918 			"/>
		</g>
	</g>
</g>
<circle cx="1441.082" cy="764.799" r="15.112"/>
<g>
	<path d="M1416.235,805.562l12.234,5.273v2.215l-14.537-6.662v-1.705l14.537-6.645v2.215L1416.235,805.562z"/>
	<path d="M1449.423,817.075h-16.031v-1.617l8.771-9.949c1.453-1.676,2.461-3.059,3.023-4.148s0.844-2.15,0.844-3.182
		c0-1.617-0.475-2.897-1.424-3.841s-2.256-1.415-3.92-1.415c-1.723,0-3.114,0.551-4.175,1.652s-1.591,2.531-1.591,4.289h-2.092
		c0-1.441,0.325-2.754,0.976-3.938s1.576-2.112,2.777-2.786s2.569-1.011,4.104-1.011c2.344,0,4.175,0.615,5.493,1.846
		s1.978,2.906,1.978,5.027c0,1.195-0.372,2.502-1.116,3.92s-2.054,3.188-3.929,5.309l-7.137,8.068h13.447V817.075z"/>
	<path d="M1465.612,805.491l-12.498-5.326v-2.162l14.854,6.645v1.705l-14.854,6.662v-2.18L1465.612,805.491z"/>
</g>
<g>
	<path d="M1515.116,722.552h-1.758v-22.5h1.758V722.552z"/>
	<path d="M1529.882,722.552c-0.176-0.498-0.288-1.235-0.337-2.212c-0.615,0.801-1.398,1.418-2.352,1.853
		c-0.951,0.435-1.96,0.652-3.024,0.652c-1.523,0-2.757-0.425-3.698-1.274c-0.943-0.85-1.414-1.924-1.414-3.223
		c0-1.543,0.642-2.764,1.926-3.662s3.074-1.348,5.369-1.348h3.179v-1.802c0-1.133-0.35-2.024-1.048-2.673s-1.716-0.974-3.054-0.974
		c-1.221,0-2.231,0.313-3.032,0.938s-1.201,1.377-1.201,2.256l-1.758-0.015c0-1.26,0.586-2.351,1.758-3.274s2.612-1.384,4.321-1.384
		c1.768,0,3.161,0.442,4.183,1.326c1.02,0.884,1.545,2.117,1.574,3.699v7.5c0,1.533,0.161,2.681,0.483,3.442v0.176H1529.882z
		 M1524.374,721.292c1.172,0,2.22-0.283,3.142-0.85c0.924-0.566,1.595-1.323,2.015-2.271v-3.486h-3.135
		c-1.748,0.02-3.115,0.339-4.102,0.959s-1.479,1.472-1.479,2.556c0,0.889,0.33,1.626,0.988,2.212
		C1522.463,720.999,1523.319,721.292,1524.374,721.292z"/>
	<path d="M1545.438,718.523c0-0.869-0.35-1.567-1.047-2.095c-0.699-0.527-1.751-0.94-3.157-1.238s-2.497-0.64-3.274-1.025
		c-0.775-0.386-1.353-0.857-1.729-1.414s-0.563-1.23-0.563-2.021c0-1.25,0.522-2.283,1.567-3.098s2.383-1.223,4.014-1.223
		c1.768,0,3.186,0.437,4.256,1.311c1.068,0.874,1.604,2.014,1.604,3.42h-1.758c0-0.928-0.389-1.699-1.164-2.314
		c-0.777-0.615-1.756-0.923-2.938-0.923c-1.152,0-2.078,0.256-2.775,0.769c-0.699,0.513-1.048,1.179-1.048,2
		c0,0.791,0.29,1.404,0.872,1.838c0.58,0.435,1.641,0.833,3.178,1.194c1.539,0.361,2.69,0.747,3.457,1.157s1.336,0.903,1.707,1.479
		s0.557,1.274,0.557,2.095c0,1.338-0.54,2.407-1.619,3.208s-2.487,1.201-4.226,1.201c-1.846,0-3.343-0.447-4.489-1.34
		c-1.148-0.894-1.722-2.024-1.722-3.391h1.758c0.068,1.025,0.5,1.824,1.296,2.395s1.849,0.857,3.157,0.857
		c1.221,0,2.207-0.269,2.959-0.806S1545.438,719.344,1545.438,718.523z"/>
	<path d="M1553.861,702.645v4.058h3.281v1.436h-3.281v10.573c0,0.88,0.158,1.535,0.477,1.965c0.316,0.43,0.847,0.645,1.589,0.645
		c0.293,0,0.767-0.049,1.421-0.146l0.073,1.423c-0.459,0.164-1.084,0.247-1.875,0.247c-1.201,0-2.075-0.349-2.622-1.047
		s-0.82-1.726-0.82-3.083v-10.576h-2.915v-1.436h2.915v-4.058H1553.861z"/>
</g>
<g>
	<path d="M1344.196,749.687v-14.414h-2.622v-1.436h2.622v-1.919c0-1.621,0.412-2.866,1.238-3.735
		c0.824-0.869,1.975-1.304,3.449-1.304c0.664,0,1.284,0.083,1.86,0.247l-0.132,1.453c-0.488-0.117-1.021-0.176-1.597-0.176
		c-0.967,0-1.719,0.301-2.256,0.903s-0.806,1.457-0.806,2.563v1.968h3.779v1.436h-3.779v14.414H1344.196z"/>
	<path d="M1352.766,729.26c0-0.33,0.107-0.609,0.322-0.837s0.508-0.342,0.879-0.342s0.667,0.114,0.886,0.342
		c0.221,0.228,0.33,0.507,0.33,0.837s-0.109,0.606-0.33,0.83c-0.219,0.224-0.515,0.335-0.886,0.335s-0.664-0.111-0.879-0.335
		C1352.873,729.866,1352.766,729.59,1352.766,729.26z M1354.831,749.687h-1.758v-15.85h1.758V749.687z"/>
	<path d="M1366.916,735.332c-0.371-0.068-0.767-0.103-1.187-0.103c-1.094,0-2.02,0.305-2.776,0.916s-1.296,1.497-1.618,2.659v10.884
		h-1.743v-15.85h1.714l0.029,2.52c0.928-1.875,2.417-2.813,4.468-2.813c0.488,0,0.874,0.063,1.157,0.19L1366.916,735.332z"/>
	<path d="M1379.177,745.659c0-0.869-0.35-1.567-1.047-2.095c-0.699-0.527-1.751-0.94-3.157-1.238s-2.497-0.64-3.274-1.025
		c-0.775-0.386-1.353-0.857-1.729-1.414s-0.563-1.23-0.563-2.021c0-1.25,0.522-2.283,1.567-3.098s2.383-1.223,4.014-1.223
		c1.768,0,3.186,0.437,4.256,1.311c1.068,0.874,1.604,2.014,1.604,3.42h-1.758c0-0.928-0.389-1.699-1.164-2.314
		c-0.777-0.615-1.756-0.923-2.938-0.923c-1.152,0-2.078,0.256-2.775,0.769c-0.699,0.513-1.048,1.179-1.048,2
		c0,0.791,0.29,1.404,0.872,1.838c0.58,0.435,1.641,0.833,3.178,1.194c1.539,0.361,2.69,0.747,3.457,1.157s1.336,0.903,1.707,1.479
		s0.557,1.274,0.557,2.095c0,1.338-0.54,2.407-1.619,3.208s-2.487,1.201-4.226,1.201c-1.846,0-3.343-0.447-4.489-1.34
		c-1.148-0.894-1.722-2.024-1.722-3.391h1.758c0.068,1.025,0.5,1.824,1.296,2.395s1.849,0.857,3.157,0.857
		c1.221,0,2.207-0.269,2.959-0.806S1379.177,746.479,1379.177,745.659z"/>
	<path d="M1387.6,729.78v4.058h3.281v1.436h-3.281v10.573c0,0.88,0.158,1.535,0.477,1.965c0.316,0.43,0.847,0.645,1.589,0.645
		c0.293,0,0.767-0.049,1.421-0.146l0.073,1.423c-0.459,0.164-1.084,0.247-1.875,0.247c-1.201,0-2.075-0.349-2.622-1.047
		s-0.82-1.726-0.82-3.083v-10.576h-2.915v-1.436h2.915v-4.058H1387.6z"/>
</g>
<g>
	<path d="M1565.327,634.071c0-1.418-0.498-2.54-1.494-3.366s-2.818-1.611-5.467-2.355s-4.582-1.556-5.801-2.435
		c-1.734-1.242-2.602-2.871-2.602-4.887c0-1.957,0.806-3.548,2.417-4.772s3.671-1.837,6.179-1.837c1.699,0,3.22,0.328,4.562,0.984
		s2.382,1.57,3.12,2.742s1.107,2.479,1.107,3.92h-2.18c0-1.751-0.598-3.159-1.793-4.223c-1.195-1.063-2.801-1.596-4.816-1.596
		c-1.957,0-3.516,0.438-4.676,1.312c-1.16,0.875-1.74,2.016-1.74,3.424c0,1.303,0.521,2.365,1.564,3.187s2.713,1.546,5.01,2.174
		s4.037,1.279,5.221,1.953s2.074,1.479,2.672,2.417s0.896,2.045,0.896,3.322c0,2.016-0.806,3.633-2.417,4.852
		s-3.735,1.828-6.372,1.828c-1.805,0-3.46-0.322-4.966-0.967s-2.648-1.547-3.428-2.707s-1.169-2.49-1.169-3.99h2.162
		c0,1.805,0.674,3.229,2.021,4.271s3.141,1.564,5.379,1.564c1.992,0,3.592-0.439,4.799-1.318S1565.327,635.524,1565.327,634.071z"/>
	<path d="M1578.704,638.94c1.465,0,2.692-0.413,3.683-1.239s1.526-1.896,1.608-3.208h2.021c-0.059,1.16-0.422,2.218-1.09,3.173
		s-1.556,1.702-2.663,2.241s-2.294,0.809-3.56,0.809c-2.496,0-4.474-0.867-5.933-2.602s-2.188-4.066-2.188-6.996v-0.633
		c0-1.875,0.328-3.533,0.984-4.975s1.597-2.555,2.821-3.34s2.657-1.178,4.298-1.178c2.086,0,3.806,0.621,5.159,1.863
		s2.077,2.877,2.171,4.904h-2.021c-0.094-1.488-0.63-2.689-1.608-3.604s-2.212-1.371-3.7-1.371c-1.898,0-3.372,0.686-4.421,2.057
		s-1.573,3.293-1.573,5.766v0.615c0,2.426,0.524,4.318,1.573,5.678S1576.794,638.94,1578.704,638.94z"/>
	<path d="M1592.31,624.562c0.691-1.137,1.576-2.016,2.654-2.637s2.256-0.932,3.533-0.932c2.039,0,3.557,0.574,4.553,1.723
		s1.5,2.871,1.512,5.168v12.48h-2.092v-12.498c-0.012-1.699-0.372-2.965-1.081-3.797s-1.843-1.248-3.401-1.248
		c-1.301,0-2.452,0.407-3.454,1.222s-1.743,1.913-2.224,3.296v13.025h-2.092v-27h2.092V624.562z"/>
	<path d="M1612.331,640.364h-2.109v-27h2.109V640.364z"/>
	<path d="M1630.05,640.364c-0.211-0.598-0.346-1.482-0.404-2.654c-0.738,0.961-1.679,1.702-2.821,2.224s-2.353,0.782-3.63,0.782
		c-1.828,0-3.308-0.51-4.438-1.529s-1.696-2.309-1.696-3.867c0-1.852,0.771-3.316,2.312-4.395s3.688-1.617,6.442-1.617h3.814v-2.162
		c0-1.359-0.419-2.429-1.257-3.208s-2.06-1.169-3.665-1.169c-1.465,0-2.678,0.375-3.639,1.125s-1.441,1.652-1.441,2.707
		l-2.109-0.018c0-1.512,0.703-2.821,2.109-3.929s3.135-1.661,5.186-1.661c2.121,0,3.794,0.53,5.019,1.591s1.854,2.54,1.89,4.438v9
		c0,1.84,0.193,3.217,0.58,4.131v0.211H1630.05z M1623.44,638.853c1.406,0,2.663-0.34,3.771-1.02s1.913-1.588,2.417-2.725v-4.184
		h-3.762c-2.098,0.023-3.738,0.407-4.922,1.151s-1.775,1.767-1.775,3.067c0,1.066,0.396,1.951,1.187,2.654
		S1622.175,638.853,1623.44,638.853z"/>
	<path d="M1644.358,638.94c1.465,0,2.692-0.413,3.683-1.239s1.526-1.896,1.608-3.208h2.021c-0.059,1.16-0.422,2.218-1.09,3.173
		s-1.556,1.702-2.663,2.241s-2.294,0.809-3.56,0.809c-2.496,0-4.474-0.867-5.933-2.602s-2.188-4.066-2.188-6.996v-0.633
		c0-1.875,0.328-3.533,0.984-4.975s1.597-2.555,2.821-3.34s2.657-1.178,4.298-1.178c2.086,0,3.806,0.621,5.159,1.863
		s2.077,2.877,2.171,4.904h-2.021c-0.094-1.488-0.63-2.689-1.608-3.604s-2.212-1.371-3.7-1.371c-1.898,0-3.372,0.686-4.421,2.057
		s-1.573,3.293-1.573,5.766v0.615c0,2.426,0.524,4.318,1.573,5.678S1642.448,638.94,1644.358,638.94z"/>
	<path d="M1657.964,624.562c0.691-1.137,1.576-2.016,2.654-2.637s2.256-0.932,3.533-0.932c2.039,0,3.557,0.574,4.553,1.723
		s1.5,2.871,1.512,5.168v12.48h-2.092v-12.498c-0.012-1.699-0.372-2.965-1.081-3.797s-1.843-1.248-3.401-1.248
		c-1.301,0-2.452,0.407-3.454,1.222s-1.743,1.913-2.224,3.296v13.025h-2.092v-27h2.092V624.562z"/>
	<path d="M1678.899,616.476v4.869h3.938v1.723h-3.938v12.688c0,1.056,0.19,1.842,0.571,2.358c0.381,0.517,1.017,0.774,1.907,0.774
		c0.352,0,0.92-0.059,1.705-0.176l0.088,1.708c-0.551,0.197-1.301,0.296-2.25,0.296c-1.441,0-2.49-0.419-3.146-1.257
		s-0.984-2.071-0.984-3.7v-12.691h-3.498v-1.723h3.498v-4.869H1678.899z"/>
	<path d="M1694.562,640.716c-1.617,0-3.079-0.398-4.386-1.195s-2.323-1.907-3.05-3.331s-1.09-3.021-1.09-4.79v-0.756
		c0-1.828,0.354-3.475,1.063-4.939s1.696-2.616,2.962-3.454s2.637-1.257,4.113-1.257c2.309,0,4.14,0.788,5.493,2.364
		s2.03,3.729,2.03,6.46v1.178h-13.57v0.404c0,2.156,0.618,3.952,1.854,5.388s2.792,2.153,4.667,2.153
		c1.125,0,2.118-0.205,2.979-0.615s1.644-1.066,2.347-1.969l1.318,1.002C1699.747,639.597,1697.503,640.716,1694.562,640.716z
		 M1694.175,622.786c-1.582,0-2.915,0.58-3.999,1.74s-1.743,2.719-1.978,4.676h11.408v-0.229c-0.059-1.828-0.58-3.316-1.564-4.465
		S1695.769,622.786,1694.175,622.786z"/>
	<path d="M1714.583,623.138c-0.445-0.082-0.92-0.123-1.424-0.123c-1.313,0-2.423,0.366-3.331,1.099s-1.556,1.796-1.942,3.19v13.061
		h-2.092v-19.02h2.057l0.035,3.023c1.113-2.25,2.9-3.375,5.361-3.375c0.586,0,1.049,0.076,1.389,0.229L1714.583,623.138z"/>
</g>
<g>
	<path d="M1235.005,679.052h-11.619l-2.637,7.189h-2.268l9.686-25.594h2.057l9.686,25.594h-2.25L1235.005,679.052z
		 M1224.054,677.224h10.266l-5.133-13.939L1224.054,677.224z"/>
	<path d="M1245.534,686.241h-2.109v-27h2.109V686.241z"/>
	<path d="M1258.612,686.593c-1.617,0-3.079-0.398-4.386-1.195s-2.323-1.907-3.05-3.331s-1.09-3.021-1.09-4.79v-0.756
		c0-1.828,0.354-3.475,1.063-4.939s1.696-2.616,2.962-3.454s2.637-1.257,4.113-1.257c2.309,0,4.14,0.788,5.493,2.364
		s2.03,3.729,2.03,6.46v1.178h-13.57v0.404c0,2.156,0.618,3.952,1.854,5.388s2.792,2.153,4.667,2.153
		c1.125,0,2.118-0.205,2.979-0.615s1.644-1.066,2.347-1.969l1.318,1.002C1263.798,685.474,1261.554,686.593,1258.612,686.593z
		 M1258.226,668.663c-1.582,0-2.915,0.58-3.999,1.74s-1.743,2.719-1.978,4.676h11.408v-0.229c-0.059-1.828-0.58-3.316-1.564-4.465
		S1259.819,668.663,1258.226,668.663z"/>
	<path d="M1275.821,674.938l5.133-7.717h2.496l-6.451,9.334l6.732,9.686h-2.479l-5.414-8.051l-5.414,8.051h-2.479l6.715-9.686
		l-6.451-9.334h2.479L1275.821,674.938z"/>
	<path d="M1299.358,686.241c-0.211-0.598-0.346-1.482-0.404-2.654c-0.738,0.961-1.679,1.702-2.821,2.224s-2.353,0.782-3.63,0.782
		c-1.828,0-3.308-0.51-4.438-1.529s-1.696-2.309-1.696-3.867c0-1.852,0.771-3.316,2.312-4.395s3.688-1.617,6.442-1.617h3.814v-2.162
		c0-1.359-0.419-2.429-1.257-3.208s-2.06-1.169-3.665-1.169c-1.465,0-2.678,0.375-3.639,1.125s-1.441,1.652-1.441,2.707
		l-2.109-0.018c0-1.512,0.703-2.821,2.109-3.929s3.135-1.661,5.186-1.661c2.121,0,3.794,0.53,5.019,1.591s1.854,2.54,1.89,4.438v9
		c0,1.84,0.193,3.217,0.58,4.131v0.211H1299.358z M1292.749,684.729c1.406,0,2.663-0.34,3.771-1.02s1.913-1.588,2.417-2.725v-4.184
		h-3.762c-2.098,0.023-3.738,0.407-4.922,1.151s-1.775,1.767-1.775,3.067c0,1.066,0.396,1.951,1.187,2.654
		S1291.483,684.729,1292.749,684.729z"/>
	<path d="M1308.64,667.222l0.07,3.252c0.715-1.172,1.605-2.065,2.672-2.681s2.244-0.923,3.533-0.923
		c2.039,0,3.557,0.574,4.553,1.723s1.5,2.871,1.512,5.168v12.48h-2.092v-12.498c-0.012-1.699-0.372-2.965-1.081-3.797
		s-1.843-1.248-3.401-1.248c-1.301,0-2.452,0.407-3.454,1.222s-1.743,1.913-2.224,3.296v13.025h-2.092v-19.02H1308.64z"/>
	<path d="M1325.567,676.556c0-2.953,0.659-5.306,1.978-7.058s3.108-2.628,5.37-2.628c2.566,0,4.523,1.014,5.871,3.041v-10.67h2.092
		v27h-1.969l-0.088-2.531c-1.348,1.922-3.328,2.883-5.941,2.883c-2.191,0-3.958-0.882-5.3-2.646s-2.013-4.146-2.013-7.146V676.556z
		 M1327.694,676.925c0,2.426,0.486,4.339,1.459,5.739s2.344,2.101,4.113,2.101c2.59,0,4.43-1.143,5.52-3.428v-8.93
		c-1.09-2.473-2.918-3.709-5.484-3.709c-1.77,0-3.146,0.694-4.131,2.083S1327.694,674.218,1327.694,676.925z"/>
	<path d="M1353.78,686.593c-1.617,0-3.079-0.398-4.386-1.195s-2.323-1.907-3.05-3.331s-1.09-3.021-1.09-4.79v-0.756
		c0-1.828,0.354-3.475,1.063-4.939s1.696-2.616,2.962-3.454s2.637-1.257,4.113-1.257c2.309,0,4.14,0.788,5.493,2.364
		s2.03,3.729,2.03,6.46v1.178h-13.57v0.404c0,2.156,0.618,3.952,1.854,5.388s2.792,2.153,4.667,2.153
		c1.125,0,2.118-0.205,2.979-0.615s1.644-1.066,2.347-1.969l1.318,1.002C1358.966,685.474,1356.722,686.593,1353.78,686.593z
		 M1353.394,668.663c-1.582,0-2.915,0.58-3.999,1.74s-1.743,2.719-1.978,4.676h11.408v-0.229c-0.059-1.828-0.58-3.316-1.564-4.465
		S1354.987,668.663,1353.394,668.663z"/>
	<path d="M1373.802,669.015c-0.445-0.082-0.92-0.123-1.424-0.123c-1.313,0-2.423,0.366-3.331,1.099s-1.556,1.796-1.942,3.19v13.061
		h-2.092v-19.02h2.057l0.035,3.023c1.113-2.25,2.9-3.375,5.361-3.375c0.586,0,1.049,0.076,1.389,0.229L1373.802,669.015z"/>
</g>
<g>
	<g>
		<line fill="none" stroke="#000000" stroke-width="2" stroke-miterlimit="10" x1="1441.082" y1="764.799" x2="1540" y2="657.878"/>
		<g>
			<polygon points="1541.622,667.031 1538.321,659.691 1530.748,656.972 1548.106,649.114 			"/>
		</g>
	</g>
</g>
<g>
	<g>
		
			<line fill="none" stroke="#000000" stroke-width="2" stroke-miterlimit="10" x1="1441.082" y1="764.799" x2="1368.959" y2="700.129"/>
		<g>
			<polygon points="1378.085,698.365 1370.799,701.779 1368.196,709.394 1360.069,692.159 			"/>
		</g>
	</g>
</g>
<g>
	<path d="M405.676,338.58h-3.375v-25.594h3.375V338.58z"/>
	<path d="M411.846,338.58v-25.594h7.225c2.227,0,4.195,0.492,5.906,1.477s3.031,2.385,3.963,4.201s1.404,3.902,1.416,6.258v1.635
		c0,2.414-0.467,4.529-1.398,6.346s-2.262,3.211-3.99,4.184s-3.74,1.471-6.037,1.494H411.846z M415.221,315.746v20.074h3.551
		c2.602,0,4.625-0.809,6.072-2.428s2.172-3.923,2.172-6.915v-1.496c0-2.909-0.684-5.169-2.049-6.782
		c-1.365-1.612-3.301-2.431-5.809-2.454H415.221z"/>
</g>
<g>
	<path d="M411.283,399.069h-2.109v-23.063l-6.961,2.584v-1.969l8.719-3.234h0.352V399.069z"/>
</g>
<g>
	<path d="M417.523,459.558h-16.031v-1.617l8.771-9.949c1.453-1.676,2.461-3.059,3.023-4.148s0.844-2.15,0.844-3.182
		c0-1.617-0.475-2.897-1.424-3.841s-2.256-1.415-3.92-1.415c-1.723,0-3.115,0.551-4.176,1.652s-1.59,2.531-1.59,4.289h-2.092
		c0-1.441,0.324-2.754,0.975-3.938s1.576-2.112,2.777-2.786s2.57-1.011,4.105-1.011c2.344,0,4.174,0.615,5.492,1.846
		s1.979,2.906,1.979,5.027c0,1.195-0.373,2.502-1.117,3.92s-2.053,3.188-3.928,5.309l-7.137,8.068h13.447V459.558z"/>
</g>
<rect x="388.095" y="297.545" fill="none" stroke="#000000" stroke-width="1.5" stroke-miterlimit="10" width="67.964" height="59.895"/>
<rect x="388.095" y="357.184" fill="none" stroke="#000000" stroke-width="1.5" stroke-miterlimit="10" width="67.964" height="59.893"/>
<rect x="388.095" y="417.077" fill="none" stroke="#000000" stroke-width="1.5" stroke-miterlimit="10" width="67.964" height="59.895"/>
<g>
	<path d="M483.998,327.277h-10.74v11.303h-3.375v-25.594h15.855v2.76h-12.48v8.771h10.74V327.277z"/>
	<path d="M489.289,314.516c0-0.527,0.162-0.973,0.484-1.336s0.799-0.545,1.432-0.545s1.113,0.182,1.441,0.545
		s0.492,0.809,0.492,1.336s-0.164,0.967-0.492,1.318s-0.809,0.527-1.441,0.527s-1.109-0.176-1.432-0.527
		S489.289,315.043,489.289,314.516z M492.805,338.58h-3.252v-19.02h3.252V338.58z"/>
	<path d="M507.201,322.479c-0.492-0.082-1.025-0.123-1.6-0.123c-2.133,0-3.58,0.908-4.342,2.725v13.5h-3.252v-19.02h3.164
		l0.053,2.197c1.066-1.699,2.578-2.549,4.535-2.549c0.633,0,1.113,0.082,1.441,0.246V322.479z"/>
	<path d="M521.264,333.535c0-0.879-0.33-1.562-0.992-2.048s-1.816-0.905-3.463-1.257s-2.953-0.773-3.92-1.266
		s-1.682-1.078-2.145-1.758s-0.695-1.488-0.695-2.426c0-1.559,0.66-2.877,1.979-3.955s3.002-1.617,5.053-1.617
		c2.156,0,3.906,0.557,5.248,1.67s2.012,2.537,2.012,4.271h-3.27c0-0.891-0.377-1.658-1.133-2.303s-1.709-0.967-2.857-0.967
		c-1.184,0-2.109,0.258-2.777,0.773s-1.002,1.189-1.002,2.021c0,0.785,0.311,1.377,0.932,1.775s1.744,0.779,3.367,1.143
		s2.938,0.797,3.945,1.301s1.756,1.11,2.242,1.819s0.729,1.573,0.729,2.593c0,1.699-0.68,3.062-2.039,4.087
		s-3.123,1.538-5.291,1.538c-1.523,0-2.871-0.27-4.043-0.809s-2.088-1.292-2.75-2.259s-0.994-2.013-0.994-3.138h3.252
		c0.059,1.09,0.496,1.954,1.311,2.593s1.889,0.958,3.225,0.958c1.23,0,2.219-0.249,2.963-0.747S521.264,334.367,521.264,333.535z"/>
	<path d="M533.164,314.955v4.605h3.551v2.514h-3.551v11.81c0,0.763,0.158,1.335,0.475,1.716s0.855,0.572,1.617,0.572
		c0.375,0,0.891-0.07,1.547-0.211v2.621c-0.855,0.233-1.688,0.35-2.496,0.35c-1.453,0-2.549-0.439-3.287-1.318
		s-1.107-2.127-1.107-3.744v-11.795h-3.463v-2.514h3.463v-4.605H533.164z"/>
</g>
<g>
	<path d="M742.957,335.82h12.129v2.76h-15.521v-25.594h3.393V335.82z"/>
	<path d="M770.168,338.58c-0.188-0.375-0.34-1.043-0.457-2.004c-1.512,1.57-3.316,2.355-5.414,2.355
		c-1.875,0-3.414-0.53-4.615-1.591s-1.801-2.405-1.801-4.034c0-1.98,0.752-3.519,2.258-4.614s3.625-1.644,6.355-1.644h3.164v-1.494
		c0-1.137-0.34-2.042-1.02-2.716s-1.682-1.011-3.006-1.011c-1.16,0-2.133,0.293-2.918,0.879s-1.178,1.295-1.178,2.127h-3.27
		c0-0.949,0.336-1.866,1.01-2.751s1.588-1.585,2.742-2.101s2.424-0.773,3.807-0.773c2.191,0,3.908,0.548,5.15,1.644
		s1.887,2.604,1.934,4.526v8.754c0,1.746,0.223,3.135,0.668,4.166v0.281H770.168z M764.771,336.102c1.02,0,1.986-0.264,2.9-0.791
		s1.576-1.213,1.986-2.057v-3.902h-2.549c-3.984,0-5.977,1.166-5.977,3.498c0,1.02,0.34,1.816,1.02,2.391
		S763.705,336.102,764.771,336.102z"/>
	<path d="M789.082,333.535c0-0.879-0.332-1.562-0.994-2.048s-1.816-0.905-3.463-1.257s-2.953-0.773-3.92-1.266
		s-1.682-1.078-2.145-1.758s-0.693-1.488-0.693-2.426c0-1.559,0.658-2.877,1.977-3.955s3.004-1.617,5.055-1.617
		c2.156,0,3.904,0.557,5.246,1.67s2.014,2.537,2.014,4.271h-3.27c0-0.891-0.379-1.658-1.135-2.303s-1.707-0.967-2.855-0.967
		c-1.184,0-2.109,0.258-2.777,0.773s-1.002,1.189-1.002,2.021c0,0.785,0.311,1.377,0.932,1.775s1.742,0.779,3.365,1.143
		s2.939,0.797,3.947,1.301s1.754,1.11,2.24,1.819s0.73,1.573,0.73,2.593c0,1.699-0.68,3.062-2.039,4.087s-3.123,1.538-5.291,1.538
		c-1.523,0-2.871-0.27-4.043-0.809s-2.09-1.292-2.752-2.259s-0.992-2.013-0.992-3.138h3.252c0.059,1.09,0.494,1.954,1.309,2.593
		s1.891,0.958,3.227,0.958c1.23,0,2.217-0.249,2.961-0.747S789.082,334.367,789.082,333.535z"/>
	<path d="M800.982,314.955v4.605h3.551v2.514h-3.551v11.81c0,0.763,0.158,1.335,0.475,1.716s0.855,0.572,1.617,0.572
		c0.375,0,0.891-0.07,1.547-0.211v2.621c-0.855,0.233-1.688,0.35-2.496,0.35c-1.453,0-2.549-0.439-3.287-1.318
		s-1.107-2.127-1.107-3.744v-11.795h-3.463v-2.514h3.463v-4.605H800.982z"/>
</g>
<g>
	<path d="M473.012,373.476l9.439,22.588l9.475-22.588h2.883v25.594h-2.162v-11.145l0.176-11.426l-9.527,22.57h-1.67l-9.492-22.482
		l0.176,11.268v11.215h-2.162v-25.594H473.012z"/>
	<path d="M512.809,399.069c-0.211-0.598-0.346-1.482-0.404-2.654c-0.738,0.961-1.678,1.702-2.82,2.224s-2.354,0.782-3.631,0.782
		c-1.828,0-3.307-0.51-4.438-1.529s-1.697-2.309-1.697-3.867c0-1.852,0.771-3.316,2.313-4.395s3.688-1.617,6.441-1.617h3.814v-2.162
		c0-1.359-0.418-2.429-1.256-3.208s-2.061-1.169-3.666-1.169c-1.465,0-2.678,0.375-3.639,1.125s-1.441,1.652-1.441,2.707
		l-2.109-0.018c0-1.512,0.703-2.821,2.109-3.929s3.135-1.661,5.186-1.661c2.121,0,3.795,0.53,5.02,1.591s1.854,2.54,1.889,4.438v9
		c0,1.84,0.193,3.217,0.58,4.131v0.211H512.809z M506.199,397.558c1.406,0,2.664-0.34,3.771-1.02s1.912-1.588,2.416-2.725v-4.184
		h-3.762c-2.098,0.023-3.738,0.407-4.922,1.151s-1.775,1.767-1.775,3.067c0,1.066,0.396,1.951,1.188,2.654
		S504.934,397.558,506.199,397.558z"/>
	<path d="M519.242,389.384c0-2.953,0.66-5.306,1.979-7.058s3.107-2.628,5.369-2.628c2.566,0,4.523,1.014,5.871,3.041v-10.67h2.092
		v27h-1.969l-0.088-2.531c-1.348,1.922-3.328,2.883-5.941,2.883c-2.191,0-3.957-0.882-5.299-2.646s-2.014-4.146-2.014-7.146V389.384
		z M521.369,389.753c0,2.426,0.486,4.339,1.459,5.739s2.344,2.101,4.113,2.101c2.59,0,4.43-1.143,5.52-3.428v-8.93
		c-1.09-2.473-2.918-3.709-5.484-3.709c-1.77,0-3.146,0.694-4.131,2.083S521.369,387.046,521.369,389.753z"/>
	<path d="M551.48,394.235c0-1.043-0.418-1.881-1.256-2.514s-2.102-1.128-3.789-1.485s-2.996-0.768-3.928-1.23
		s-1.623-1.028-2.074-1.696s-0.678-1.477-0.678-2.426c0-1.5,0.627-2.739,1.881-3.718s2.859-1.468,4.816-1.468
		c2.121,0,3.824,0.524,5.107,1.573s1.924,2.417,1.924,4.104h-2.109c0-1.113-0.465-2.039-1.396-2.777s-2.107-1.107-3.525-1.107
		c-1.383,0-2.492,0.308-3.33,0.923s-1.258,1.415-1.258,2.399c0,0.949,0.35,1.685,1.047,2.206s1.969,0.999,3.814,1.433
		s3.229,0.896,4.148,1.389s1.602,1.084,2.047,1.775s0.668,1.529,0.668,2.514c0,1.605-0.646,2.889-1.941,3.85
		s-2.986,1.441-5.072,1.441c-2.215,0-4.01-0.536-5.387-1.608s-2.066-2.429-2.066-4.069h2.109c0.082,1.23,0.602,2.188,1.557,2.874
		s2.217,1.028,3.787,1.028c1.465,0,2.648-0.322,3.551-0.967S551.48,395.22,551.48,394.235z"/>
</g>
<g>
	<path d="M749.391,388.399h-7.436v10.67h-2.18v-25.594h8.314c2.73,0,4.863,0.661,6.398,1.984c1.535,1.322,2.303,3.172,2.303,5.548
		c0,1.639-0.48,3.084-1.441,4.336s-2.25,2.119-3.867,2.599l6.398,10.897v0.229h-2.303L749.391,388.399z M741.955,386.571h6.627
		c1.816,0,3.275-0.517,4.377-1.549s1.652-2.371,1.652-4.014c0-1.807-0.574-3.21-1.723-4.208s-2.76-1.497-4.834-1.497h-6.1V386.571z"
		/>
	<path d="M774.193,399.069c-0.211-0.598-0.346-1.482-0.404-2.654c-0.738,0.961-1.68,1.702-2.822,2.224s-2.352,0.782-3.629,0.782
		c-1.828,0-3.309-0.51-4.439-1.529s-1.695-2.309-1.695-3.867c0-1.852,0.77-3.316,2.311-4.395s3.689-1.617,6.443-1.617h3.814v-2.162
		c0-1.359-0.42-2.429-1.258-3.208s-2.059-1.169-3.664-1.169c-1.465,0-2.678,0.375-3.639,1.125s-1.441,1.652-1.441,2.707
		l-2.109-0.018c0-1.512,0.703-2.821,2.109-3.929s3.135-1.661,5.186-1.661c2.121,0,3.793,0.53,5.018,1.591s1.855,2.54,1.891,4.438v9
		c0,1.84,0.193,3.217,0.58,4.131v0.211H774.193z M767.584,397.558c1.406,0,2.662-0.34,3.77-1.02s1.914-1.588,2.418-2.725v-4.184
		h-3.762c-2.098,0.023-3.738,0.407-4.922,1.151s-1.775,1.767-1.775,3.067c0,1.066,0.395,1.951,1.186,2.654
		S766.318,397.558,767.584,397.558z"/>
	<path d="M792.861,394.235c0-1.043-0.42-1.881-1.258-2.514s-2.1-1.128-3.787-1.485s-2.998-0.768-3.93-1.23s-1.623-1.028-2.074-1.696
		s-0.676-1.477-0.676-2.426c0-1.5,0.627-2.739,1.881-3.718s2.859-1.468,4.816-1.468c2.121,0,3.822,0.524,5.105,1.573
		s1.926,2.417,1.926,4.104h-2.109c0-1.113-0.467-2.039-1.398-2.777s-2.105-1.107-3.523-1.107c-1.383,0-2.494,0.308-3.332,0.923
		s-1.256,1.415-1.256,2.399c0,0.949,0.348,1.685,1.045,2.206s1.969,0.999,3.814,1.433s3.229,0.896,4.148,1.389
		s1.604,1.084,2.049,1.775s0.668,1.529,0.668,2.514c0,1.605-0.648,2.889-1.943,3.85s-2.984,1.441-5.07,1.441
		c-2.215,0-4.012-0.536-5.389-1.608s-2.064-2.429-2.064-4.069h2.109c0.082,1.23,0.6,2.188,1.555,2.874s2.219,1.028,3.789,1.028
		c1.465,0,2.648-0.322,3.551-0.967S792.861,395.22,792.861,394.235z"/>
	<path d="M801.615,380.05l0.07,3.094c0.703-1.148,1.582-2.01,2.637-2.584s2.227-0.861,3.516-0.861c3,0,4.904,1.23,5.713,3.691
		c0.68-1.184,1.588-2.095,2.725-2.733s2.391-0.958,3.762-0.958c4.078,0,6.158,2.227,6.24,6.68v12.691h-2.109v-12.533
		c-0.012-1.699-0.379-2.959-1.1-3.779s-1.895-1.23-3.523-1.23c-1.512,0.023-2.789,0.513-3.832,1.468s-1.623,2.118-1.74,3.489v12.586
		h-2.109v-12.691c-0.012-1.629-0.396-2.845-1.152-3.647s-1.918-1.204-3.488-1.204c-1.324,0-2.461,0.378-3.41,1.134
		s-1.652,1.878-2.109,3.366v13.043h-2.109v-19.02H801.615z"/>
	<path d="M843.838,396.661c-1.266,1.84-3.287,2.76-6.064,2.76c-2.027,0-3.568-0.589-4.623-1.767s-1.594-2.921-1.617-5.229V380.05
		h2.092v12.111c0,3.621,1.465,5.432,4.395,5.432c3.047,0,4.975-1.26,5.783-3.779V380.05h2.109v19.02h-2.039L843.838,396.661z"/>
	<path d="M862.77,394.235c0-1.043-0.42-1.881-1.258-2.514s-2.1-1.128-3.787-1.485s-2.998-0.768-3.93-1.23s-1.623-1.028-2.074-1.696
		s-0.676-1.477-0.676-2.426c0-1.5,0.627-2.739,1.881-3.718s2.859-1.468,4.816-1.468c2.121,0,3.822,0.524,5.105,1.573
		s1.926,2.417,1.926,4.104h-2.109c0-1.113-0.467-2.039-1.398-2.777s-2.105-1.107-3.523-1.107c-1.383,0-2.494,0.308-3.332,0.923
		s-1.256,1.415-1.256,2.399c0,0.949,0.348,1.685,1.045,2.206s1.969,0.999,3.814,1.433s3.229,0.896,4.148,1.389
		s1.604,1.084,2.049,1.775s0.668,1.529,0.668,2.514c0,1.605-0.648,2.889-1.943,3.85s-2.984,1.441-5.07,1.441
		c-2.215,0-4.012-0.536-5.389-1.608s-2.064-2.429-2.064-4.069h2.109c0.082,1.23,0.6,2.188,1.555,2.874s2.219,1.028,3.789,1.028
		c1.465,0,2.648-0.322,3.551-0.967S862.77,395.22,862.77,394.235z"/>
	<path d="M880.998,394.235c0-1.043-0.42-1.881-1.258-2.514s-2.1-1.128-3.787-1.485s-2.998-0.768-3.93-1.23s-1.623-1.028-2.074-1.696
		s-0.676-1.477-0.676-2.426c0-1.5,0.627-2.739,1.881-3.718s2.859-1.468,4.816-1.468c2.121,0,3.822,0.524,5.105,1.573
		s1.926,2.417,1.926,4.104h-2.109c0-1.113-0.467-2.039-1.398-2.777s-2.105-1.107-3.523-1.107c-1.383,0-2.494,0.308-3.332,0.923
		s-1.256,1.415-1.256,2.399c0,0.949,0.348,1.685,1.045,2.206s1.969,0.999,3.814,1.433s3.229,0.896,4.148,1.389
		s1.604,1.084,2.049,1.775s0.668,1.529,0.668,2.514c0,1.605-0.648,2.889-1.943,3.85s-2.984,1.441-5.07,1.441
		c-2.215,0-4.012-0.536-5.389-1.608s-2.064-2.429-2.064-4.069h2.109c0.082,1.23,0.6,2.188,1.555,2.874s2.219,1.028,3.789,1.028
		c1.465,0,2.648-0.322,3.551-0.967S880.998,395.22,880.998,394.235z"/>
	<path d="M895.201,399.421c-1.617,0-3.08-0.398-4.387-1.195s-2.322-1.907-3.049-3.331s-1.09-3.021-1.09-4.79v-0.756
		c0-1.828,0.354-3.475,1.063-4.939s1.697-2.616,2.963-3.454s2.637-1.257,4.113-1.257c2.309,0,4.139,0.788,5.492,2.364
		s2.031,3.729,2.031,6.46v1.178h-13.57v0.404c0,2.156,0.617,3.952,1.854,5.388s2.793,2.153,4.668,2.153
		c1.125,0,2.117-0.205,2.979-0.615s1.645-1.066,2.348-1.969l1.318,1.002C900.387,398.302,898.143,399.421,895.201,399.421z
		 M894.814,381.491c-1.582,0-2.916,0.58-4,1.74s-1.742,2.719-1.977,4.676h11.408v-0.229c-0.059-1.828-0.58-3.316-1.564-4.465
		S896.408,381.491,894.814,381.491z"/>
	<path d="M908.438,380.05l0.07,3.252c0.715-1.172,1.605-2.065,2.672-2.681s2.244-0.923,3.533-0.923c2.039,0,3.557,0.574,4.553,1.723
		s1.5,2.871,1.512,5.168v12.48h-2.092v-12.498c-0.012-1.699-0.373-2.965-1.082-3.797s-1.842-1.248-3.4-1.248
		c-1.301,0-2.453,0.407-3.455,1.222s-1.742,1.913-2.223,3.296v13.025h-2.092v-19.02H908.438z"/>
</g>
<g>
	<path d="M483.963,452.368h-11.619l-2.637,7.189h-2.268l9.686-25.594h2.057l9.686,25.594h-2.25L483.963,452.368z M473.012,450.54
		h10.266l-5.133-13.939L473.012,450.54z"/>
	<path d="M494.492,459.558h-2.109v-27h2.109V459.558z"/>
	<path d="M507.57,459.909c-1.617,0-3.078-0.398-4.385-1.195s-2.324-1.907-3.051-3.331s-1.09-3.021-1.09-4.79v-0.756
		c0-1.828,0.355-3.475,1.064-4.939s1.695-2.616,2.961-3.454s2.637-1.257,4.113-1.257c2.309,0,4.141,0.788,5.494,2.364
		s2.029,3.729,2.029,6.46v1.178h-13.57v0.404c0,2.156,0.619,3.952,1.855,5.388s2.791,2.153,4.666,2.153
		c1.125,0,2.119-0.205,2.98-0.615s1.643-1.066,2.346-1.969l1.318,1.002C512.756,458.79,510.512,459.909,507.57,459.909z
		 M507.184,441.979c-1.582,0-2.914,0.58-3.998,1.74s-1.744,2.719-1.979,4.676h11.408v-0.229c-0.059-1.828-0.58-3.316-1.564-4.465
		S508.777,441.979,507.184,441.979z"/>
	<path d="M524.779,448.255l5.133-7.717h2.496l-6.451,9.334l6.732,9.686h-2.479l-5.414-8.051l-5.414,8.051h-2.479l6.715-9.686
		l-6.451-9.334h2.479L524.779,448.255z"/>
	<path d="M548.316,459.558c-0.211-0.598-0.346-1.482-0.404-2.654c-0.738,0.961-1.678,1.702-2.82,2.224s-2.354,0.782-3.631,0.782
		c-1.828,0-3.307-0.51-4.438-1.529s-1.697-2.309-1.697-3.867c0-1.852,0.771-3.316,2.313-4.395s3.688-1.617,6.441-1.617h3.814v-2.162
		c0-1.359-0.418-2.429-1.256-3.208s-2.061-1.169-3.666-1.169c-1.465,0-2.678,0.375-3.639,1.125s-1.441,1.652-1.441,2.707
		l-2.109-0.018c0-1.512,0.703-2.821,2.109-3.929s3.135-1.661,5.186-1.661c2.121,0,3.795,0.53,5.02,1.591s1.854,2.54,1.889,4.438v9
		c0,1.84,0.193,3.217,0.58,4.131v0.211H548.316z M541.707,458.046c1.406,0,2.664-0.34,3.771-1.02s1.912-1.588,2.416-2.725v-4.184
		h-3.762c-2.098,0.023-3.738,0.407-4.922,1.151s-1.775,1.767-1.775,3.067c0,1.066,0.396,1.951,1.188,2.654
		S540.441,458.046,541.707,458.046z"/>
	<path d="M557.598,440.538l0.07,3.252c0.715-1.172,1.605-2.065,2.672-2.681s2.244-0.923,3.533-0.923
		c2.039,0,3.557,0.574,4.553,1.723s1.5,2.871,1.512,5.168v12.48h-2.092V447.06c-0.012-1.699-0.371-2.965-1.08-3.797
		s-1.844-1.248-3.402-1.248c-1.301,0-2.451,0.407-3.453,1.222s-1.744,1.913-2.225,3.296v13.025h-2.092v-19.02H557.598z"/>
	<path d="M574.525,449.872c0-2.953,0.66-5.306,1.979-7.058s3.107-2.628,5.369-2.628c2.566,0,4.523,1.014,5.871,3.041v-10.67h2.092
		v27h-1.969l-0.088-2.531c-1.348,1.922-3.328,2.883-5.941,2.883c-2.191,0-3.957-0.882-5.299-2.646s-2.014-4.146-2.014-7.146V449.872
		z M576.652,450.241c0,2.426,0.486,4.339,1.459,5.739s2.344,2.101,4.113,2.101c2.59,0,4.43-1.143,5.52-3.428v-8.93
		c-1.09-2.473-2.918-3.709-5.484-3.709c-1.77,0-3.146,0.694-4.131,2.083S576.652,447.534,576.652,450.241z"/>
	<path d="M602.738,459.909c-1.617,0-3.078-0.398-4.385-1.195s-2.324-1.907-3.051-3.331s-1.09-3.021-1.09-4.79v-0.756
		c0-1.828,0.355-3.475,1.064-4.939s1.695-2.616,2.961-3.454s2.637-1.257,4.113-1.257c2.309,0,4.141,0.788,5.494,2.364
		s2.029,3.729,2.029,6.46v1.178h-13.57v0.404c0,2.156,0.619,3.952,1.855,5.388s2.791,2.153,4.666,2.153
		c1.125,0,2.119-0.205,2.98-0.615s1.643-1.066,2.346-1.969l1.318,1.002C607.924,458.79,605.68,459.909,602.738,459.909z
		 M602.352,441.979c-1.582,0-2.914,0.58-3.998,1.74s-1.744,2.719-1.979,4.676h11.408v-0.229c-0.059-1.828-0.58-3.316-1.564-4.465
		S603.945,441.979,602.352,441.979z"/>
	<path d="M622.76,442.331c-0.445-0.082-0.92-0.123-1.424-0.123c-1.313,0-2.422,0.366-3.33,1.099s-1.557,1.796-1.943,3.19v13.061
		h-2.092v-19.02h2.057l0.035,3.023c1.113-2.25,2.9-3.375,5.361-3.375c0.586,0,1.049,0.076,1.389,0.229L622.76,442.331z"/>
</g>
<g>
	<path d="M754.313,453.265c0-1.418-0.498-2.54-1.494-3.366s-2.818-1.611-5.467-2.355s-4.582-1.556-5.801-2.435
		c-1.734-1.242-2.602-2.871-2.602-4.887c0-1.957,0.805-3.548,2.416-4.772s3.672-1.837,6.18-1.837c1.699,0,3.219,0.328,4.561,0.984
		s2.383,1.57,3.121,2.742s1.107,2.479,1.107,3.92h-2.18c0-1.751-0.598-3.159-1.793-4.223c-1.195-1.063-2.801-1.596-4.816-1.596
		c-1.957,0-3.516,0.438-4.676,1.312c-1.16,0.875-1.74,2.016-1.74,3.424c0,1.303,0.521,2.365,1.564,3.187s2.713,1.546,5.01,2.174
		s4.037,1.279,5.221,1.953s2.074,1.479,2.672,2.417s0.896,2.045,0.896,3.322c0,2.016-0.807,3.633-2.418,4.852
		s-3.734,1.828-6.371,1.828c-1.805,0-3.461-0.322-4.967-0.967s-2.648-1.547-3.428-2.707s-1.168-2.49-1.168-3.99h2.162
		c0,1.805,0.674,3.229,2.021,4.271s3.141,1.564,5.379,1.564c1.992,0,3.592-0.439,4.799-1.318S754.313,454.718,754.313,453.265z"/>
	<path d="M767.689,458.134c1.465,0,2.691-0.413,3.682-1.239s1.527-1.896,1.609-3.208h2.021c-0.059,1.16-0.422,2.218-1.09,3.173
		s-1.557,1.702-2.664,2.241s-2.293,0.809-3.559,0.809c-2.496,0-4.475-0.867-5.934-2.602s-2.188-4.066-2.188-6.996v-0.633
		c0-1.875,0.328-3.533,0.984-4.975s1.596-2.555,2.82-3.34s2.658-1.178,4.299-1.178c2.086,0,3.805,0.621,5.158,1.863
		s2.078,2.877,2.172,4.904h-2.021c-0.094-1.488-0.631-2.689-1.609-3.604s-2.211-1.371-3.699-1.371c-1.898,0-3.373,0.686-4.422,2.057
		s-1.572,3.293-1.572,5.766v0.615c0,2.426,0.523,4.318,1.572,5.678S765.779,458.134,767.689,458.134z"/>
	<path d="M781.295,443.755c0.691-1.137,1.576-2.016,2.654-2.637s2.256-0.932,3.533-0.932c2.039,0,3.557,0.574,4.553,1.723
		s1.5,2.871,1.512,5.168v12.48h-2.092V447.06c-0.012-1.699-0.373-2.965-1.082-3.797s-1.842-1.248-3.4-1.248
		c-1.301,0-2.453,0.407-3.455,1.222s-1.742,1.913-2.223,3.296v13.025h-2.092v-27h2.092V443.755z"/>
	<path d="M801.316,459.558h-2.109v-27h2.109V459.558z"/>
	<path d="M819.035,459.558c-0.211-0.598-0.346-1.482-0.404-2.654c-0.738,0.961-1.68,1.702-2.822,2.224s-2.352,0.782-3.629,0.782
		c-1.828,0-3.309-0.51-4.439-1.529s-1.695-2.309-1.695-3.867c0-1.852,0.77-3.316,2.311-4.395s3.689-1.617,6.443-1.617h3.814v-2.162
		c0-1.359-0.42-2.429-1.258-3.208s-2.059-1.169-3.664-1.169c-1.465,0-2.678,0.375-3.639,1.125s-1.441,1.652-1.441,2.707
		l-2.109-0.018c0-1.512,0.703-2.821,2.109-3.929s3.135-1.661,5.186-1.661c2.121,0,3.793,0.53,5.018,1.591s1.855,2.54,1.891,4.438v9
		c0,1.84,0.193,3.217,0.58,4.131v0.211H819.035z M812.426,458.046c1.406,0,2.662-0.34,3.77-1.02s1.914-1.588,2.418-2.725v-4.184
		h-3.762c-2.098,0.023-3.738,0.407-4.922,1.151s-1.775,1.767-1.775,3.067c0,1.066,0.395,1.951,1.186,2.654
		S811.16,458.046,812.426,458.046z"/>
	<path d="M833.344,458.134c1.465,0,2.691-0.413,3.682-1.239s1.527-1.896,1.609-3.208h2.021c-0.059,1.16-0.422,2.218-1.09,3.173
		s-1.557,1.702-2.664,2.241s-2.293,0.809-3.559,0.809c-2.496,0-4.475-0.867-5.934-2.602s-2.188-4.066-2.188-6.996v-0.633
		c0-1.875,0.328-3.533,0.984-4.975s1.596-2.555,2.82-3.34s2.658-1.178,4.299-1.178c2.086,0,3.805,0.621,5.158,1.863
		s2.078,2.877,2.172,4.904h-2.021c-0.094-1.488-0.631-2.689-1.609-3.604s-2.211-1.371-3.699-1.371c-1.898,0-3.373,0.686-4.422,2.057
		s-1.572,3.293-1.572,5.766v0.615c0,2.426,0.523,4.318,1.572,5.678S831.434,458.134,833.344,458.134z"/>
	<path d="M846.949,443.755c0.691-1.137,1.576-2.016,2.654-2.637s2.256-0.932,3.533-0.932c2.039,0,3.557,0.574,4.553,1.723
		s1.5,2.871,1.512,5.168v12.48h-2.092V447.06c-0.012-1.699-0.373-2.965-1.082-3.797s-1.842-1.248-3.4-1.248
		c-1.301,0-2.453,0.407-3.455,1.222s-1.742,1.913-2.223,3.296v13.025h-2.092v-27h2.092V443.755z"/>
	<path d="M867.885,435.669v4.869h3.938v1.723h-3.938v12.688c0,1.056,0.189,1.842,0.57,2.358c0.381,0.517,1.018,0.774,1.908,0.774
		c0.352,0,0.92-0.059,1.705-0.176l0.088,1.708c-0.551,0.197-1.301,0.296-2.25,0.296c-1.441,0-2.49-0.419-3.146-1.257
		s-0.984-2.071-0.984-3.7v-12.691h-3.498v-1.723h3.498v-4.869H867.885z"/>
	<path d="M883.547,459.909c-1.617,0-3.08-0.398-4.387-1.195s-2.322-1.907-3.049-3.331s-1.09-3.021-1.09-4.79v-0.756
		c0-1.828,0.354-3.475,1.063-4.939s1.697-2.616,2.963-3.454s2.637-1.257,4.113-1.257c2.309,0,4.139,0.788,5.492,2.364
		s2.031,3.729,2.031,6.46v1.178h-13.57v0.404c0,2.156,0.617,3.952,1.854,5.388s2.793,2.153,4.668,2.153
		c1.125,0,2.117-0.205,2.979-0.615s1.645-1.066,2.348-1.969l1.318,1.002C888.732,458.79,886.488,459.909,883.547,459.909z
		 M883.16,441.979c-1.582,0-2.916,0.58-4,1.74s-1.742,2.719-1.977,4.676h11.408v-0.229c-0.059-1.828-0.58-3.316-1.564-4.465
		S884.754,441.979,883.16,441.979z"/>
	<path d="M903.568,442.331c-0.445-0.082-0.92-0.123-1.424-0.123c-1.313,0-2.424,0.366-3.332,1.099s-1.555,1.796-1.941,3.19v13.061
		h-2.092v-19.02h2.057l0.035,3.023c1.113-2.25,2.9-3.375,5.361-3.375c0.586,0,1.049,0.076,1.389,0.229L903.568,442.331z"/>
</g>
<rect x="455.923" y="297.545" fill="none" stroke="#000000" stroke-width="1.5" stroke-miterlimit="10" width="252.041" height="59.895"/>
<rect x="707.964" y="297.545" fill="none" stroke="#000000" stroke-width="1.5" stroke-miterlimit="10" width="252.036" height="59.895"/>
<rect x="455.923" y="357.184" fill="none" stroke="#000000" stroke-width="1.5" stroke-miterlimit="10" width="252.041" height="59.893"/>
<rect x="707.964" y="357.184" fill="none" stroke="#000000" stroke-width="1.5" stroke-miterlimit="10" width="252.036" height="59.893"/>
<rect x="455.923" y="417.077" fill="none" stroke="#000000" stroke-width="1.5" stroke-miterlimit="10" width="252.041" height="59.895"/>
<rect x="707.964" y="417.077" fill="none" stroke="#000000" stroke-width="1.5" stroke-miterlimit="10" width="252.036" height="59.895"/>
<rect x="375.386" y="654.311" fill="#E6E7E8" stroke="#000000" stroke-width="1.5" stroke-miterlimit="10" width="578.521" height="218.596"/>
<g>
	<g>
		<path d="M391.051,683.97l12.234,5.273v2.215l-14.537-6.662v-1.705l14.537-6.645v2.215L391.051,683.97z"/>
		<path d="M417.998,695.484h-2.109v-23.063l-6.961,2.584v-1.969l8.719-3.234h0.352V695.484z"/>
		<path d="M440.428,683.9l-12.498-5.326v-2.162l14.854,6.645v1.705l-14.854,6.662v-2.18L440.428,683.9z"/>
		<path d="M499.051,683.97l12.234,5.273v2.215l-14.537-6.662v-1.705l14.537-6.645v2.215L499.051,683.97z"/>
		<path d="M518.053,695.484v-17.297h-3.146v-1.723h3.146v-2.303c0-1.945,0.495-3.439,1.485-4.482s2.37-1.564,4.14-1.564
			c0.797,0,1.541,0.099,2.232,0.296l-0.158,1.743c-0.586-0.141-1.225-0.211-1.916-0.211c-1.16,0-2.063,0.361-2.707,1.084
			s-0.967,1.748-0.967,3.076v2.361h4.535v1.723h-4.535v17.297H518.053z"/>
		<path d="M528.336,670.971c0-0.396,0.129-0.73,0.387-1.005c0.258-0.273,0.609-0.41,1.055-0.41s0.8,0.137,1.063,0.41
			c0.264,0.274,0.396,0.608,0.396,1.005s-0.132,0.728-0.396,0.996c-0.264,0.268-0.618,0.401-1.063,0.401s-0.797-0.134-1.055-0.401
			C528.465,671.699,528.336,671.368,528.336,670.971z M530.814,695.484h-2.109v-19.02h2.109V695.484z"/>
		<path d="M545.316,678.257c-0.445-0.082-0.92-0.123-1.424-0.123c-1.313,0-2.423,0.366-3.331,1.099s-1.556,1.796-1.942,3.19v13.061
			h-2.092v-19.02h2.057l0.035,3.023c1.113-2.25,2.9-3.375,5.361-3.375c0.586,0,1.049,0.076,1.389,0.229L545.316,678.257z"/>
		<path d="M560.029,690.65c0-1.043-0.419-1.881-1.257-2.514s-2.101-1.128-3.788-1.485s-2.997-0.768-3.929-1.23
			s-1.623-1.028-2.074-1.696s-0.677-1.477-0.677-2.426c0-1.5,0.627-2.739,1.881-3.718s2.859-1.468,4.816-1.468
			c2.121,0,3.823,0.524,5.106,1.573s1.925,2.417,1.925,4.104h-2.109c0-1.113-0.466-2.039-1.397-2.777s-2.106-1.107-3.524-1.107
			c-1.383,0-2.493,0.308-3.331,0.923s-1.257,1.415-1.257,2.399c0,0.949,0.349,1.685,1.046,2.206s1.969,0.999,3.814,1.433
			s3.229,0.896,4.148,1.389s1.603,1.084,2.048,1.775s0.668,1.529,0.668,2.514c0,1.605-0.647,2.889-1.942,3.85
			s-2.985,1.441-5.071,1.441c-2.215,0-4.011-0.536-5.388-1.608s-2.065-2.429-2.065-4.069h2.109c0.082,1.23,0.601,2.188,1.556,2.874
			s2.218,1.028,3.788,1.028c1.465,0,2.648-0.322,3.551-0.967S560.029,691.634,560.029,690.65z"/>
		<path d="M570.137,671.595v4.869h3.938v1.723h-3.938v12.688c0,1.057,0.19,1.843,0.571,2.358c0.381,0.517,1.017,0.774,1.907,0.774
			c0.352,0,0.92-0.059,1.705-0.176l0.088,1.708c-0.551,0.197-1.301,0.296-2.25,0.296c-1.441,0-2.49-0.419-3.146-1.257
			s-0.984-2.071-0.984-3.7v-12.691h-3.498v-1.723h3.498v-4.869H570.137z"/>
		<path d="M590.369,683.9l-12.498-5.326v-2.162l14.854,6.645v1.705l-14.854,6.662v-2.18L590.369,683.9z"/>
		<path d="M715.596,668.167l1.266,0.896c-1.055,1.383-1.6,2.871-1.635,4.465v2.25h-2.092v-1.969c0-1.078,0.22-2.115,0.659-3.111
			S714.834,668.859,715.596,668.167z M720.008,668.167l1.266,0.896c-1.055,1.383-1.6,2.871-1.635,4.465v2.25h-2.092v-1.969
			c0-1.078,0.22-2.115,0.659-3.111S719.246,668.859,720.008,668.167z"/>
		<path d="M728.252,669.89l9.439,22.588l9.475-22.588h2.883v25.594h-2.162v-11.145l0.176-11.426l-9.527,22.57h-1.67l-9.492-22.482
			l0.176,11.268v11.215h-2.162V669.89H728.252z"/>
		<path d="M768.049,695.484c-0.211-0.598-0.346-1.482-0.404-2.654c-0.738,0.961-1.679,1.702-2.821,2.224s-2.353,0.782-3.63,0.782
			c-1.828,0-3.308-0.51-4.438-1.529s-1.696-2.309-1.696-3.867c0-1.852,0.771-3.316,2.312-4.395s3.688-1.617,6.442-1.617h3.814
			v-2.162c0-1.359-0.419-2.429-1.257-3.208s-2.06-1.169-3.665-1.169c-1.465,0-2.678,0.375-3.639,1.125s-1.441,1.652-1.441,2.707
			l-2.109-0.018c0-1.512,0.703-2.821,2.109-3.929s3.135-1.661,5.186-1.661c2.121,0,3.794,0.53,5.019,1.591s1.854,2.54,1.89,4.438v9
			c0,1.84,0.193,3.217,0.58,4.131v0.211H768.049z M761.439,693.972c1.406,0,2.663-0.34,3.771-1.02s1.913-1.588,2.417-2.725v-4.184
			h-3.762c-2.098,0.023-3.738,0.407-4.922,1.151s-1.775,1.767-1.775,3.067c0,1.066,0.396,1.951,1.187,2.654
			S760.174,693.972,761.439,693.972z"/>
		<path d="M774.482,685.798c0-2.953,0.659-5.306,1.978-7.058s3.108-2.628,5.37-2.628c2.566,0,4.523,1.014,5.871,3.041v-10.67h2.092
			v27h-1.969l-0.088-2.531c-1.348,1.922-3.328,2.883-5.941,2.883c-2.191,0-3.958-0.882-5.3-2.646s-2.013-4.146-2.013-7.146V685.798z
			 M776.609,686.167c0,2.426,0.486,4.339,1.459,5.739s2.344,2.101,4.113,2.101c2.59,0,4.43-1.143,5.52-3.428v-8.93
			c-1.09-2.473-2.918-3.709-5.484-3.709c-1.77,0-3.146,0.694-4.131,2.083S776.609,683.46,776.609,686.167z"/>
		<path d="M806.721,690.65c0-1.043-0.419-1.881-1.257-2.514s-2.101-1.128-3.788-1.485s-2.997-0.768-3.929-1.23
			s-1.623-1.028-2.074-1.696s-0.677-1.477-0.677-2.426c0-1.5,0.627-2.739,1.881-3.718s2.859-1.468,4.816-1.468
			c2.121,0,3.823,0.524,5.106,1.573s1.925,2.417,1.925,4.104h-2.109c0-1.113-0.466-2.039-1.397-2.777s-2.106-1.107-3.524-1.107
			c-1.383,0-2.493,0.308-3.331,0.923s-1.257,1.415-1.257,2.399c0,0.949,0.349,1.685,1.046,2.206s1.969,0.999,3.814,1.433
			s3.229,0.896,4.148,1.389s1.603,1.084,2.048,1.775s0.668,1.529,0.668,2.514c0,1.605-0.647,2.889-1.942,3.85
			s-2.985,1.441-5.071,1.441c-2.215,0-4.011-0.536-5.388-1.608s-2.065-2.429-2.065-4.069h2.109c0.082,1.23,0.601,2.188,1.556,2.874
			s2.218,1.028,3.788,1.028c1.465,0,2.648-0.322,3.551-0.967S806.721,691.634,806.721,690.65z"/>
		<path d="M813.26,676.166l-1.248-0.914c1.055-1.418,1.6-2.906,1.635-4.465v-2.303h2.074v1.775
			C815.721,672.708,814.9,674.677,813.26,676.166z M817.549,676.166l-1.248-0.914c1.055-1.418,1.6-2.906,1.635-4.465v-2.303h2.074
			v1.775C820.01,672.708,819.189,674.677,817.549,676.166z"/>
		<path d="M832.965,694.218c0-0.41,0.132-0.759,0.396-1.046s0.63-0.431,1.099-0.431s0.838,0.144,1.107,0.431
			s0.404,0.636,0.404,1.046s-0.135,0.747-0.404,1.011s-0.639,0.396-1.107,0.396s-0.835-0.132-1.099-0.396
			S832.965,694.628,832.965,694.218z"/>
	</g>
</g>
<g>
	<g>
		<path d="M391.051,736.423l12.234,5.273v2.215l-14.537-6.662v-1.705l14.537-6.645v2.215L391.051,736.423z"/>
		<path d="M417.998,747.937h-2.109v-23.063l-6.961,2.584v-1.969l8.719-3.234h0.352V747.937z"/>
		<path d="M440.428,736.353l-12.498-5.326v-2.162l14.854,6.645v1.705l-14.854,6.662v-2.18L440.428,736.353z"/>
		<path d="M499.051,736.423l12.234,5.273v2.215l-14.537-6.662v-1.705l14.537-6.645v2.215L499.051,736.423z"/>
		<path d="M518.896,747.937h-2.109v-27h2.109V747.937z"/>
		<path d="M536.615,747.937c-0.211-0.598-0.346-1.482-0.404-2.654c-0.738,0.961-1.679,1.702-2.821,2.224s-2.353,0.782-3.63,0.782
			c-1.828,0-3.308-0.51-4.438-1.529s-1.696-2.309-1.696-3.867c0-1.852,0.771-3.316,2.312-4.395s3.688-1.617,6.442-1.617h3.814
			v-2.162c0-1.359-0.419-2.429-1.257-3.208s-2.06-1.169-3.665-1.169c-1.465,0-2.678,0.375-3.639,1.125s-1.441,1.652-1.441,2.707
			l-2.109-0.018c0-1.512,0.703-2.821,2.109-3.929s3.135-1.661,5.186-1.661c2.121,0,3.794,0.53,5.019,1.591s1.854,2.54,1.89,4.438v9
			c0,1.84,0.193,3.217,0.58,4.131v0.211H536.615z M530.006,746.425c1.406,0,2.663-0.34,3.771-1.02s1.913-1.588,2.417-2.725v-4.184
			h-3.762c-2.098,0.023-3.738,0.407-4.922,1.151s-1.775,1.767-1.775,3.067c0,1.066,0.396,1.951,1.187,2.654
			S528.74,746.425,530.006,746.425z"/>
		<path d="M555.283,743.103c0-1.043-0.419-1.881-1.257-2.514s-2.101-1.128-3.788-1.485s-2.997-0.768-3.929-1.23
			s-1.623-1.028-2.074-1.696s-0.677-1.477-0.677-2.426c0-1.5,0.627-2.739,1.881-3.718s2.859-1.468,4.816-1.468
			c2.121,0,3.823,0.524,5.106,1.573s1.925,2.417,1.925,4.104h-2.109c0-1.113-0.466-2.039-1.397-2.777s-2.106-1.107-3.524-1.107
			c-1.383,0-2.493,0.308-3.331,0.923s-1.257,1.415-1.257,2.399c0,0.949,0.349,1.685,1.046,2.206s1.969,0.999,3.814,1.433
			s3.229,0.896,4.148,1.389s1.603,1.084,2.048,1.775s0.668,1.529,0.668,2.514c0,1.605-0.647,2.889-1.942,3.85
			s-2.985,1.441-5.071,1.441c-2.215,0-4.011-0.536-5.388-1.608s-2.065-2.429-2.065-4.069h2.109c0.082,1.23,0.601,2.188,1.556,2.874
			s2.218,1.028,3.788,1.028c1.465,0,2.648-0.322,3.551-0.967S555.283,744.087,555.283,743.103z"/>
		<path d="M565.391,724.048v4.869h3.938v1.723h-3.938v12.688c0,1.057,0.19,1.843,0.571,2.358c0.381,0.517,1.017,0.774,1.907,0.774
			c0.352,0,0.92-0.059,1.705-0.176l0.088,1.708c-0.551,0.197-1.301,0.296-2.25,0.296c-1.441,0-2.49-0.419-3.146-1.257
			s-0.984-2.071-0.984-3.7V730.64h-3.498v-1.723h3.498v-4.869H565.391z"/>
		<path d="M585.623,736.353l-12.498-5.326v-2.162l14.854,6.645v1.705l-14.854,6.662v-2.18L585.623,736.353z"/>
		<path d="M715.596,720.621l1.266,0.896c-1.055,1.383-1.6,2.871-1.635,4.465v2.25h-2.092v-1.969c0-1.078,0.22-2.115,0.659-3.111
			S714.834,721.312,715.596,720.621z M720.008,720.621l1.266,0.896c-1.055,1.383-1.6,2.871-1.635,4.465v2.25h-2.092v-1.969
			c0-1.078,0.22-2.115,0.659-3.111S719.246,721.312,720.008,720.621z"/>
		<path d="M734.949,737.267h-7.436v10.67h-2.18v-25.594h8.314c2.73,0,4.863,0.661,6.398,1.984c1.535,1.322,2.303,3.172,2.303,5.548
			c0,1.639-0.48,3.084-1.441,4.337c-0.961,1.252-2.25,2.118-3.867,2.599l6.398,10.897v0.229h-2.303L734.949,737.267z
			 M727.514,735.439h6.627c1.816,0,3.275-0.517,4.377-1.55c1.102-1.032,1.652-2.37,1.652-4.014c0-1.808-0.574-3.21-1.723-4.207
			c-1.148-0.998-2.76-1.497-4.834-1.497h-6.1V735.439z"/>
		<path d="M759.752,747.937c-0.211-0.598-0.346-1.482-0.404-2.654c-0.738,0.961-1.679,1.702-2.821,2.224s-2.353,0.782-3.63,0.782
			c-1.828,0-3.308-0.51-4.438-1.529s-1.696-2.309-1.696-3.867c0-1.852,0.771-3.316,2.312-4.395s3.688-1.617,6.442-1.617h3.814
			v-2.162c0-1.359-0.419-2.429-1.257-3.208s-2.06-1.169-3.665-1.169c-1.465,0-2.678,0.375-3.639,1.125s-1.441,1.652-1.441,2.707
			l-2.109-0.018c0-1.512,0.703-2.821,2.109-3.929s3.135-1.661,5.186-1.661c2.121,0,3.794,0.53,5.019,1.591s1.854,2.54,1.89,4.438v9
			c0,1.84,0.193,3.217,0.58,4.131v0.211H759.752z M753.143,746.425c1.406,0,2.663-0.34,3.771-1.02s1.913-1.588,2.417-2.725v-4.184
			h-3.762c-2.098,0.023-3.738,0.407-4.922,1.151s-1.775,1.767-1.775,3.067c0,1.066,0.396,1.951,1.187,2.654
			S751.877,746.425,753.143,746.425z"/>
		<path d="M778.42,743.103c0-1.043-0.419-1.881-1.257-2.514s-2.101-1.128-3.788-1.485s-2.997-0.768-3.929-1.23
			s-1.623-1.028-2.074-1.696s-0.677-1.477-0.677-2.426c0-1.5,0.627-2.739,1.881-3.718s2.859-1.468,4.816-1.468
			c2.121,0,3.823,0.524,5.106,1.573s1.925,2.417,1.925,4.104h-2.109c0-1.113-0.466-2.039-1.397-2.777s-2.106-1.107-3.524-1.107
			c-1.383,0-2.493,0.308-3.331,0.923s-1.257,1.415-1.257,2.399c0,0.949,0.349,1.685,1.046,2.206s1.969,0.999,3.814,1.433
			s3.229,0.896,4.148,1.389s1.603,1.084,2.048,1.775s0.668,1.529,0.668,2.514c0,1.605-0.647,2.889-1.942,3.85
			s-2.985,1.441-5.071,1.441c-2.215,0-4.011-0.536-5.388-1.608s-2.065-2.429-2.065-4.069h2.109c0.082,1.23,0.601,2.188,1.556,2.874
			s2.218,1.028,3.788,1.028c1.465,0,2.648-0.322,3.551-0.967S778.42,744.087,778.42,743.103z"/>
		<path d="M787.174,728.917l0.07,3.094c0.703-1.148,1.582-2.01,2.637-2.584s2.227-0.861,3.516-0.861c3,0,4.904,1.23,5.713,3.691
			c0.68-1.184,1.588-2.095,2.725-2.733s2.391-0.958,3.762-0.958c4.078,0,6.158,2.227,6.24,6.68v12.691h-2.109v-12.533
			c-0.012-1.699-0.378-2.959-1.099-3.779s-1.896-1.23-3.524-1.23c-1.512,0.023-2.789,0.513-3.832,1.468s-1.623,2.118-1.74,3.489
			v12.586h-2.109v-12.691c-0.012-1.629-0.396-2.845-1.151-3.647s-1.919-1.204-3.489-1.204c-1.324,0-2.461,0.378-3.41,1.134
			s-1.652,1.878-2.109,3.366v13.043h-2.109v-19.02H787.174z"/>
		<path d="M829.396,745.529c-1.266,1.84-3.287,2.76-6.064,2.76c-2.027,0-3.568-0.589-4.623-1.767s-1.594-2.921-1.617-5.229v-12.375
			h2.092v12.111c0,3.621,1.465,5.432,4.395,5.432c3.047,0,4.975-1.26,5.783-3.779v-13.764h2.109v19.02h-2.039L829.396,745.529z"/>
		<path d="M848.328,743.103c0-1.043-0.419-1.881-1.257-2.514s-2.101-1.128-3.788-1.485s-2.997-0.768-3.929-1.23
			s-1.623-1.028-2.074-1.696s-0.677-1.477-0.677-2.426c0-1.5,0.627-2.739,1.881-3.718s2.859-1.468,4.816-1.468
			c2.121,0,3.823,0.524,5.106,1.573s1.925,2.417,1.925,4.104h-2.109c0-1.113-0.466-2.039-1.397-2.777s-2.106-1.107-3.524-1.107
			c-1.383,0-2.493,0.308-3.331,0.923s-1.257,1.415-1.257,2.399c0,0.949,0.349,1.685,1.046,2.206s1.969,0.999,3.814,1.433
			s3.229,0.896,4.148,1.389s1.603,1.084,2.048,1.775s0.668,1.529,0.668,2.514c0,1.605-0.647,2.889-1.942,3.85
			s-2.985,1.441-5.071,1.441c-2.215,0-4.011-0.536-5.388-1.608s-2.065-2.429-2.065-4.069h2.109c0.082,1.23,0.601,2.188,1.556,2.874
			s2.218,1.028,3.788,1.028c1.465,0,2.648-0.322,3.551-0.967S848.328,744.087,848.328,743.103z"/>
		<path d="M866.557,743.103c0-1.043-0.419-1.881-1.257-2.514s-2.101-1.128-3.788-1.485s-2.997-0.768-3.929-1.23
			s-1.623-1.028-2.074-1.696s-0.677-1.477-0.677-2.426c0-1.5,0.627-2.739,1.881-3.718s2.859-1.468,4.816-1.468
			c2.121,0,3.823,0.524,5.106,1.573s1.925,2.417,1.925,4.104h-2.109c0-1.113-0.466-2.039-1.397-2.777s-2.106-1.107-3.524-1.107
			c-1.383,0-2.493,0.308-3.331,0.923s-1.257,1.415-1.257,2.399c0,0.949,0.349,1.685,1.046,2.206s1.969,0.999,3.814,1.433
			s3.229,0.896,4.148,1.389s1.603,1.084,2.048,1.775s0.668,1.529,0.668,2.514c0,1.605-0.647,2.889-1.942,3.85
			s-2.985,1.441-5.071,1.441c-2.215,0-4.011-0.536-5.388-1.608s-2.065-2.429-2.065-4.069h2.109c0.082,1.23,0.601,2.188,1.556,2.874
			s2.218,1.028,3.788,1.028c1.465,0,2.648-0.322,3.551-0.967S866.557,744.087,866.557,743.103z"/>
		<path d="M880.76,748.289c-1.617,0-3.079-0.398-4.386-1.195s-2.323-1.907-3.05-3.331s-1.09-3.021-1.09-4.79v-0.756
			c0-1.828,0.354-3.475,1.063-4.939s1.696-2.616,2.962-3.454s2.637-1.257,4.113-1.257c2.309,0,4.14,0.788,5.493,2.364
			s2.03,3.729,2.03,6.46v1.178h-13.57v0.404c0,2.156,0.618,3.952,1.854,5.388s2.792,2.153,4.667,2.153
			c1.125,0,2.118-0.205,2.979-0.615s1.644-1.066,2.347-1.969l1.318,1.002C885.945,747.169,883.701,748.289,880.76,748.289z
			 M880.373,730.359c-1.582,0-2.915,0.58-3.999,1.74s-1.743,2.719-1.978,4.676h11.408v-0.229c-0.059-1.828-0.58-3.316-1.564-4.465
			S881.967,730.359,880.373,730.359z"/>
		<path d="M893.996,728.917l0.07,3.252c0.715-1.172,1.605-2.065,2.672-2.681s2.244-0.923,3.533-0.923
			c2.039,0,3.557,0.574,4.553,1.723s1.5,2.871,1.512,5.168v12.48h-2.092v-12.498c-0.012-1.699-0.372-2.965-1.081-3.797
			s-1.843-1.248-3.401-1.248c-1.301,0-2.452,0.407-3.454,1.222s-1.743,1.913-2.224,3.296v13.025h-2.092v-19.02H893.996z"/>
		<path d="M909.641,728.619l-1.248-0.914c1.055-1.418,1.6-2.906,1.635-4.465v-2.303h2.074v1.775
			C912.102,725.162,911.281,727.13,909.641,728.619z M913.93,728.619l-1.248-0.914c1.055-1.418,1.6-2.906,1.635-4.465v-2.303h2.074
			v1.775C916.391,725.162,915.57,727.13,913.93,728.619z"/>
		<path d="M929.346,746.671c0-0.41,0.132-0.759,0.396-1.046s0.63-0.431,1.099-0.431s0.838,0.144,1.107,0.431
			s0.404,0.636,0.404,1.046s-0.135,0.747-0.404,1.011s-0.639,0.396-1.107,0.396s-0.835-0.132-1.099-0.396
			S929.346,747.082,929.346,746.671z"/>
	</g>
</g>
<g>
	<g>
		<path d="M391.051,788.686l12.234,5.273v2.215l-14.537-6.662v-1.705l14.537-6.645v2.215L391.051,788.686z"/>
		<path d="M424.238,800.2h-16.031v-1.617l8.771-9.949c1.453-1.676,2.461-3.059,3.023-4.148s0.844-2.15,0.844-3.182
			c0-1.617-0.475-2.897-1.424-3.841s-2.256-1.415-3.92-1.415c-1.723,0-3.114,0.551-4.175,1.652s-1.591,2.531-1.591,4.289h-2.092
			c0-1.441,0.325-2.754,0.976-3.938s1.576-2.112,2.777-2.786s2.569-1.011,4.104-1.011c2.344,0,4.175,0.615,5.493,1.846
			s1.978,2.906,1.978,5.027c0,1.195-0.372,2.502-1.116,3.92s-2.054,3.188-3.929,5.309l-7.137,8.068h13.447V800.2z"/>
		<path d="M440.428,788.616l-12.498-5.326v-2.162l14.854,6.645v1.705l-14.854,6.662v-2.18L440.428,788.616z"/>
		<path d="M499.051,788.686l12.234,5.273v2.215l-14.537-6.662v-1.705l14.537-6.645v2.215L499.051,788.686z"/>
		<path d="M518.053,800.2v-17.297h-3.146v-1.723h3.146v-2.303c0-1.945,0.495-3.439,1.485-4.482s2.37-1.564,4.14-1.564
			c0.797,0,1.541,0.099,2.232,0.296l-0.158,1.743c-0.586-0.141-1.225-0.211-1.916-0.211c-1.16,0-2.063,0.361-2.707,1.084
			s-0.967,1.748-0.967,3.076v2.361h4.535v1.723h-4.535V800.2H518.053z"/>
		<path d="M528.336,775.687c0-0.396,0.129-0.73,0.387-1.005c0.258-0.273,0.609-0.41,1.055-0.41s0.8,0.137,1.063,0.41
			c0.264,0.274,0.396,0.608,0.396,1.005s-0.132,0.728-0.396,0.996c-0.264,0.268-0.618,0.401-1.063,0.401s-0.797-0.134-1.055-0.401
			C528.465,776.415,528.336,776.083,528.336,775.687z M530.814,800.2h-2.109v-19.02h2.109V800.2z"/>
		<path d="M545.316,782.973c-0.445-0.082-0.92-0.123-1.424-0.123c-1.313,0-2.423,0.366-3.331,1.099s-1.556,1.796-1.942,3.19V800.2
			h-2.092v-19.02h2.057l0.035,3.023c1.113-2.25,2.9-3.375,5.361-3.375c0.586,0,1.049,0.076,1.389,0.229L545.316,782.973z"/>
		<path d="M560.029,795.366c0-1.043-0.419-1.881-1.257-2.514s-2.101-1.128-3.788-1.485s-2.997-0.768-3.929-1.23
			s-1.623-1.028-2.074-1.696s-0.677-1.477-0.677-2.426c0-1.5,0.627-2.739,1.881-3.718s2.859-1.468,4.816-1.468
			c2.121,0,3.823,0.524,5.106,1.573s1.925,2.417,1.925,4.104h-2.109c0-1.113-0.466-2.039-1.397-2.777s-2.106-1.107-3.524-1.107
			c-1.383,0-2.493,0.308-3.331,0.923s-1.257,1.415-1.257,2.399c0,0.949,0.349,1.685,1.046,2.206s1.969,0.999,3.814,1.433
			s3.229,0.896,4.148,1.389s1.603,1.084,2.048,1.775s0.668,1.529,0.668,2.514c0,1.605-0.647,2.889-1.942,3.85
			s-2.985,1.441-5.071,1.441c-2.215,0-4.011-0.536-5.388-1.608s-2.065-2.429-2.065-4.069h2.109c0.082,1.23,0.601,2.188,1.556,2.874
			s2.218,1.028,3.788,1.028c1.465,0,2.648-0.322,3.551-0.967S560.029,796.35,560.029,795.366z"/>
		<path d="M570.137,776.311v4.869h3.938v1.723h-3.938v12.688c0,1.057,0.19,1.843,0.571,2.358c0.381,0.517,1.017,0.774,1.907,0.774
			c0.352,0,0.92-0.059,1.705-0.176l0.088,1.708c-0.551,0.197-1.301,0.296-2.25,0.296c-1.441,0-2.49-0.419-3.146-1.257
			s-0.984-2.071-0.984-3.7v-12.691h-3.498v-1.723h3.498v-4.869H570.137z"/>
		<path d="M590.369,788.616l-12.498-5.326v-2.162l14.854,6.645v1.705l-14.854,6.662v-2.18L590.369,788.616z"/>
		<path d="M715.596,772.883l1.266,0.896c-1.055,1.383-1.6,2.871-1.635,4.465v2.25h-2.092v-1.969c0-1.078,0.22-2.115,0.659-3.111
			S714.834,773.575,715.596,772.883z M720.008,772.883l1.266,0.896c-1.055,1.383-1.6,2.871-1.635,4.465v2.25h-2.092v-1.969
			c0-1.078,0.22-2.115,0.659-3.111S719.246,773.575,720.008,772.883z"/>
		<path d="M737.094,793.01h-11.619l-2.637,7.189h-2.268l9.686-25.594h2.057l9.686,25.594h-2.25L737.094,793.01z M726.143,791.182
			h10.266l-5.133-13.939L726.143,791.182z"/>
		<path d="M747.623,800.2h-2.109v-27h2.109V800.2z"/>
		<path d="M760.701,800.551c-1.617,0-3.079-0.398-4.386-1.195s-2.323-1.907-3.05-3.331s-1.09-3.021-1.09-4.79v-0.756
			c0-1.828,0.354-3.475,1.063-4.939s1.696-2.616,2.962-3.454s2.637-1.257,4.113-1.257c2.309,0,4.14,0.788,5.493,2.364
			s2.03,3.729,2.03,6.46v1.178h-13.57v0.404c0,2.156,0.618,3.952,1.854,5.388s2.792,2.153,4.667,2.153
			c1.125,0,2.118-0.205,2.979-0.615s1.644-1.066,2.347-1.969l1.318,1.002C765.887,799.432,763.643,800.551,760.701,800.551z
			 M760.314,782.622c-1.582,0-2.915,0.58-3.999,1.74s-1.743,2.719-1.978,4.676h11.408v-0.229c-0.059-1.828-0.58-3.316-1.564-4.465
			S761.908,782.622,760.314,782.622z"/>
		<path d="M777.91,788.897l5.133-7.717h2.496l-6.451,9.334l6.732,9.686h-2.479l-5.414-8.051l-5.414,8.051h-2.479l6.715-9.686
			l-6.451-9.334h2.479L777.91,788.897z"/>
		<path d="M801.447,800.2c-0.211-0.598-0.346-1.482-0.404-2.654c-0.738,0.961-1.679,1.702-2.821,2.224s-2.353,0.782-3.63,0.782
			c-1.828,0-3.308-0.51-4.438-1.529s-1.696-2.309-1.696-3.867c0-1.852,0.771-3.316,2.312-4.395s3.688-1.617,6.442-1.617h3.814
			v-2.162c0-1.359-0.419-2.429-1.257-3.208s-2.06-1.169-3.665-1.169c-1.465,0-2.678,0.375-3.639,1.125s-1.441,1.652-1.441,2.707
			l-2.109-0.018c0-1.512,0.703-2.821,2.109-3.929s3.135-1.661,5.186-1.661c2.121,0,3.794,0.53,5.019,1.591s1.854,2.54,1.89,4.438v9
			c0,1.84,0.193,3.217,0.58,4.131v0.211H801.447z M794.838,798.688c1.406,0,2.663-0.34,3.771-1.02s1.913-1.588,2.417-2.725v-4.184
			h-3.762c-2.098,0.023-3.738,0.407-4.922,1.151s-1.775,1.767-1.775,3.067c0,1.066,0.396,1.951,1.187,2.654
			S793.572,798.688,794.838,798.688z"/>
		<path d="M810.729,781.18l0.07,3.252c0.715-1.172,1.605-2.065,2.672-2.681s2.244-0.923,3.533-0.923
			c2.039,0,3.557,0.574,4.553,1.723s1.5,2.871,1.512,5.168v12.48h-2.092v-12.498c-0.012-1.699-0.372-2.965-1.081-3.797
			s-1.843-1.248-3.401-1.248c-1.301,0-2.452,0.407-3.454,1.222s-1.743,1.913-2.224,3.296V800.2h-2.092v-19.02H810.729z"/>
		<path d="M827.656,790.514c0-2.953,0.659-5.306,1.978-7.058s3.108-2.628,5.37-2.628c2.566,0,4.523,1.014,5.871,3.041V773.2h2.092
			v27h-1.969l-0.088-2.531c-1.348,1.922-3.328,2.883-5.941,2.883c-2.191,0-3.958-0.882-5.3-2.646s-2.013-4.146-2.013-7.146V790.514z
			 M829.783,790.883c0,2.426,0.486,4.339,1.459,5.739s2.344,2.101,4.113,2.101c2.59,0,4.43-1.143,5.52-3.428v-8.93
			c-1.09-2.473-2.918-3.709-5.484-3.709c-1.77,0-3.146,0.694-4.131,2.083S829.783,788.176,829.783,790.883z"/>
		<path d="M855.869,800.551c-1.617,0-3.079-0.398-4.386-1.195s-2.323-1.907-3.05-3.331s-1.09-3.021-1.09-4.79v-0.756
			c0-1.828,0.354-3.475,1.063-4.939s1.696-2.616,2.962-3.454s2.637-1.257,4.113-1.257c2.309,0,4.14,0.788,5.493,2.364
			s2.03,3.729,2.03,6.46v1.178h-13.57v0.404c0,2.156,0.618,3.952,1.854,5.388s2.792,2.153,4.667,2.153
			c1.125,0,2.118-0.205,2.979-0.615s1.644-1.066,2.347-1.969l1.318,1.002C861.055,799.432,858.811,800.551,855.869,800.551z
			 M855.482,782.622c-1.582,0-2.915,0.58-3.999,1.74s-1.743,2.719-1.978,4.676h11.408v-0.229c-0.059-1.828-0.58-3.316-1.564-4.465
			S857.076,782.622,855.482,782.622z"/>
		<path d="M875.891,782.973c-0.445-0.082-0.92-0.123-1.424-0.123c-1.313,0-2.423,0.366-3.331,1.099s-1.556,1.796-1.942,3.19V800.2
			h-2.092v-19.02h2.057l0.035,3.023c1.113-2.25,2.9-3.375,5.361-3.375c0.586,0,1.049,0.076,1.389,0.229L875.891,782.973z"/>
		<path d="M879.195,780.881l-1.248-0.914c1.055-1.418,1.6-2.906,1.635-4.465V773.2h2.074v1.775
			C881.656,777.424,880.836,779.393,879.195,780.881z M883.484,780.881l-1.248-0.914c1.055-1.418,1.6-2.906,1.635-4.465V773.2h2.074
			v1.775C885.945,777.424,885.125,779.393,883.484,780.881z"/>
		<path d="M898.9,798.934c0-0.41,0.132-0.759,0.396-1.046s0.63-0.431,1.099-0.431s0.838,0.144,1.107,0.431s0.404,0.636,0.404,1.046
			s-0.135,0.747-0.404,1.011s-0.639,0.396-1.107,0.396s-0.835-0.132-1.099-0.396S898.9,799.344,898.9,798.934z"/>
	</g>
</g>
<g>
	<g>
		<path d="M391.051,842.165l12.234,5.273v2.215l-14.537-6.662v-1.705l14.537-6.645v2.215L391.051,842.165z"/>
		<path d="M424.238,853.678h-16.031v-1.617l8.771-9.949c1.453-1.676,2.461-3.059,3.023-4.148s0.844-2.15,0.844-3.182
			c0-1.617-0.475-2.897-1.424-3.841s-2.256-1.415-3.92-1.415c-1.723,0-3.114,0.551-4.175,1.652s-1.591,2.531-1.591,4.289h-2.092
			c0-1.441,0.325-2.754,0.976-3.938s1.576-2.112,2.777-2.786s2.569-1.011,4.104-1.011c2.344,0,4.175,0.615,5.493,1.846
			s1.978,2.906,1.978,5.027c0,1.195-0.372,2.502-1.116,3.92s-2.054,3.188-3.929,5.309l-7.137,8.068h13.447V853.678z"/>
		<path d="M440.428,842.094l-12.498-5.326v-2.162l14.854,6.645v1.705l-14.854,6.662v-2.18L440.428,842.094z"/>
		<path d="M499.051,842.165l12.234,5.273v2.215l-14.537-6.662v-1.705l14.537-6.645v2.215L499.051,842.165z"/>
		<path d="M518.896,853.678h-2.109v-27h2.109V853.678z"/>
		<path d="M536.615,853.678c-0.211-0.598-0.346-1.482-0.404-2.654c-0.738,0.961-1.679,1.702-2.821,2.224s-2.353,0.782-3.63,0.782
			c-1.828,0-3.308-0.51-4.438-1.529s-1.696-2.309-1.696-3.867c0-1.852,0.771-3.316,2.312-4.395s3.688-1.617,6.442-1.617h3.814
			v-2.162c0-1.359-0.419-2.429-1.257-3.208s-2.06-1.169-3.665-1.169c-1.465,0-2.678,0.375-3.639,1.125s-1.441,1.652-1.441,2.707
			l-2.109-0.018c0-1.512,0.703-2.821,2.109-3.929s3.135-1.661,5.186-1.661c2.121,0,3.794,0.53,5.019,1.591s1.854,2.54,1.89,4.438v9
			c0,1.84,0.193,3.217,0.58,4.131v0.211H536.615z M530.006,852.167c1.406,0,2.663-0.34,3.771-1.02s1.913-1.588,2.417-2.725v-4.184
			h-3.762c-2.098,0.023-3.738,0.407-4.922,1.151s-1.775,1.767-1.775,3.067c0,1.066,0.396,1.951,1.187,2.654
			S528.74,852.167,530.006,852.167z"/>
		<path d="M555.283,848.844c0-1.043-0.419-1.881-1.257-2.514s-2.101-1.128-3.788-1.485s-2.997-0.768-3.929-1.23
			s-1.623-1.028-2.074-1.696s-0.677-1.477-0.677-2.426c0-1.5,0.627-2.739,1.881-3.718s2.859-1.468,4.816-1.468
			c2.121,0,3.823,0.524,5.106,1.573s1.925,2.417,1.925,4.104h-2.109c0-1.113-0.466-2.039-1.397-2.777s-2.106-1.107-3.524-1.107
			c-1.383,0-2.493,0.308-3.331,0.923s-1.257,1.415-1.257,2.399c0,0.949,0.349,1.685,1.046,2.206s1.969,0.999,3.814,1.433
			s3.229,0.896,4.148,1.389s1.603,1.084,2.048,1.775s0.668,1.529,0.668,2.514c0,1.605-0.647,2.889-1.942,3.85
			s-2.985,1.441-5.071,1.441c-2.215,0-4.011-0.536-5.388-1.608s-2.065-2.429-2.065-4.069h2.109c0.082,1.23,0.601,2.188,1.556,2.874
			s2.218,1.028,3.788,1.028c1.465,0,2.648-0.322,3.551-0.967S555.283,849.829,555.283,848.844z"/>
		<path d="M565.391,829.79v4.869h3.938v1.723h-3.938v12.688c0,1.057,0.19,1.843,0.571,2.358c0.381,0.517,1.017,0.774,1.907,0.774
			c0.352,0,0.92-0.059,1.705-0.176l0.088,1.708c-0.551,0.197-1.301,0.296-2.25,0.296c-1.441,0-2.49-0.419-3.146-1.257
			s-0.984-2.071-0.984-3.7v-12.691h-3.498v-1.723h3.498v-4.869H565.391z"/>
		<path d="M585.623,842.094l-12.498-5.326v-2.162l14.854,6.645v1.705l-14.854,6.662v-2.18L585.623,842.094z"/>
		<path d="M715.596,826.362l1.266,0.896c-1.055,1.383-1.6,2.871-1.635,4.465v2.25h-2.092v-1.969c0-1.078,0.22-2.115,0.659-3.111
			S714.834,827.053,715.596,826.362z M720.008,826.362l1.266,0.896c-1.055,1.383-1.6,2.871-1.635,4.465v2.25h-2.092v-1.969
			c0-1.078,0.22-2.115,0.659-3.111S719.246,827.053,720.008,826.362z"/>
		<path d="M739.871,847.385c0-1.418-0.498-2.54-1.494-3.366s-2.818-1.611-5.467-2.355s-4.582-1.556-5.801-2.435
			c-1.734-1.242-2.602-2.871-2.602-4.887c0-1.957,0.806-3.548,2.417-4.772s3.671-1.837,6.179-1.837c1.699,0,3.22,0.328,4.562,0.984
			s2.382,1.57,3.12,2.742s1.107,2.479,1.107,3.92h-2.18c0-1.751-0.598-3.159-1.793-4.223s-2.801-1.596-4.816-1.596
			c-1.957,0-3.516,0.438-4.676,1.312c-1.16,0.875-1.74,2.016-1.74,3.425c0,1.303,0.521,2.365,1.564,3.187s2.713,1.547,5.01,2.175
			s4.037,1.278,5.221,1.952s2.074,1.479,2.672,2.417s0.896,2.045,0.896,3.322c0,2.016-0.806,3.633-2.417,4.852
			s-3.735,1.828-6.372,1.828c-1.805,0-3.46-0.322-4.966-0.967s-2.648-1.547-3.428-2.707s-1.169-2.49-1.169-3.99h2.162
			c0,1.805,0.674,3.229,2.021,4.271s3.141,1.564,5.379,1.564c1.992,0,3.592-0.439,4.799-1.318S739.871,848.838,739.871,847.385z"/>
		<path d="M753.248,852.254c1.465,0,2.692-0.413,3.683-1.239s1.526-1.896,1.608-3.208h2.021c-0.059,1.16-0.422,2.218-1.09,3.173
			s-1.556,1.702-2.663,2.241s-2.294,0.809-3.56,0.809c-2.496,0-4.474-0.867-5.933-2.602s-2.188-4.066-2.188-6.996v-0.633
			c0-1.875,0.328-3.533,0.984-4.975s1.597-2.555,2.821-3.34s2.657-1.178,4.298-1.178c2.086,0,3.806,0.621,5.159,1.863
			s2.077,2.877,2.171,4.904h-2.021c-0.094-1.488-0.63-2.689-1.608-3.604s-2.212-1.371-3.7-1.371c-1.898,0-3.372,0.686-4.421,2.057
			s-1.573,3.293-1.573,5.766v0.615c0,2.426,0.524,4.318,1.573,5.678S751.338,852.254,753.248,852.254z"/>
		<path d="M766.854,837.875c0.691-1.137,1.576-2.016,2.654-2.637s2.256-0.932,3.533-0.932c2.039,0,3.557,0.574,4.553,1.723
			s1.5,2.871,1.512,5.168v12.48h-2.092V841.18c-0.012-1.699-0.372-2.965-1.081-3.797s-1.843-1.248-3.401-1.248
			c-1.301,0-2.452,0.407-3.454,1.222s-1.743,1.913-2.224,3.296v13.025h-2.092v-27h2.092V837.875z"/>
		<path d="M786.875,853.678h-2.109v-27h2.109V853.678z"/>
		<path d="M804.594,853.678c-0.211-0.598-0.346-1.482-0.404-2.654c-0.738,0.961-1.679,1.702-2.821,2.224s-2.353,0.782-3.63,0.782
			c-1.828,0-3.308-0.51-4.438-1.529s-1.696-2.309-1.696-3.867c0-1.852,0.771-3.316,2.312-4.395s3.688-1.617,6.442-1.617h3.814
			v-2.162c0-1.359-0.419-2.429-1.257-3.208s-2.06-1.169-3.665-1.169c-1.465,0-2.678,0.375-3.639,1.125s-1.441,1.652-1.441,2.707
			l-2.109-0.018c0-1.512,0.703-2.821,2.109-3.929s3.135-1.661,5.186-1.661c2.121,0,3.794,0.53,5.019,1.591s1.854,2.54,1.89,4.438v9
			c0,1.84,0.193,3.217,0.58,4.131v0.211H804.594z M797.984,852.167c1.406,0,2.663-0.34,3.771-1.02s1.913-1.588,2.417-2.725v-4.184
			h-3.762c-2.098,0.023-3.738,0.407-4.922,1.151s-1.775,1.767-1.775,3.067c0,1.066,0.396,1.951,1.187,2.654
			S796.719,852.167,797.984,852.167z"/>
		<path d="M818.902,852.254c1.465,0,2.692-0.413,3.683-1.239s1.526-1.896,1.608-3.208h2.021c-0.059,1.16-0.422,2.218-1.09,3.173
			s-1.556,1.702-2.663,2.241s-2.294,0.809-3.56,0.809c-2.496,0-4.474-0.867-5.933-2.602s-2.188-4.066-2.188-6.996v-0.633
			c0-1.875,0.328-3.533,0.984-4.975s1.597-2.555,2.821-3.34s2.657-1.178,4.298-1.178c2.086,0,3.806,0.621,5.159,1.863
			s2.077,2.877,2.171,4.904h-2.021c-0.094-1.488-0.63-2.689-1.608-3.604s-2.212-1.371-3.7-1.371c-1.898,0-3.372,0.686-4.421,2.057
			s-1.573,3.293-1.573,5.766v0.615c0,2.426,0.524,4.318,1.573,5.678S816.992,852.254,818.902,852.254z"/>
		<path d="M832.508,837.875c0.691-1.137,1.576-2.016,2.654-2.637s2.256-0.932,3.533-0.932c2.039,0,3.557,0.574,4.553,1.723
			s1.5,2.871,1.512,5.168v12.48h-2.092V841.18c-0.012-1.699-0.372-2.965-1.081-3.797s-1.843-1.248-3.401-1.248
			c-1.301,0-2.452,0.407-3.454,1.222s-1.743,1.913-2.224,3.296v13.025h-2.092v-27h2.092V837.875z"/>
		<path d="M853.443,829.79v4.869h3.938v1.723h-3.938v12.688c0,1.057,0.19,1.843,0.571,2.358c0.381,0.517,1.017,0.774,1.907,0.774
			c0.352,0,0.92-0.059,1.705-0.176l0.088,1.708c-0.551,0.197-1.301,0.296-2.25,0.296c-1.441,0-2.49-0.419-3.146-1.257
			s-0.984-2.071-0.984-3.7v-12.691h-3.498v-1.723h3.498v-4.869H853.443z"/>
		<path d="M869.105,854.03c-1.617,0-3.079-0.398-4.386-1.195s-2.323-1.907-3.05-3.331s-1.09-3.021-1.09-4.79v-0.756
			c0-1.828,0.354-3.475,1.063-4.939s1.696-2.616,2.962-3.454s2.637-1.257,4.113-1.257c2.309,0,4.14,0.788,5.493,2.364
			s2.03,3.729,2.03,6.46v1.178h-13.57v0.404c0,2.156,0.618,3.952,1.854,5.388s2.792,2.153,4.667,2.153
			c1.125,0,2.118-0.205,2.979-0.615s1.644-1.066,2.347-1.969l1.318,1.002C874.291,852.911,872.047,854.03,869.105,854.03z
			 M868.719,836.1c-1.582,0-2.915,0.58-3.999,1.74s-1.743,2.719-1.978,4.676h11.408v-0.229c-0.059-1.828-0.58-3.316-1.564-4.465
			S870.313,836.1,868.719,836.1z"/>
		<path d="M889.127,836.452c-0.445-0.082-0.92-0.123-1.424-0.123c-1.313,0-2.423,0.366-3.331,1.099s-1.556,1.796-1.942,3.19v13.061
			h-2.092v-19.02h2.057l0.035,3.023c1.113-2.25,2.9-3.375,5.361-3.375c0.586,0,1.049,0.076,1.389,0.229L889.127,836.452z"/>
		<path d="M892.432,834.36l-1.248-0.914c1.055-1.418,1.6-2.906,1.635-4.465v-2.303h2.074v1.775
			C894.893,830.903,894.072,832.872,892.432,834.36z M896.721,834.36l-1.248-0.914c1.055-1.418,1.6-2.906,1.635-4.465v-2.303h2.074
			v1.775C899.182,830.903,898.361,832.872,896.721,834.36z"/>
		<path d="M912.137,852.413c0-0.41,0.132-0.759,0.396-1.046s0.63-0.431,1.099-0.431s0.838,0.144,1.107,0.431
			s0.404,0.636,0.404,1.046s-0.135,0.747-0.404,1.011s-0.639,0.396-1.107,0.396s-0.835-0.132-1.099-0.396
			S912.137,852.823,912.137,852.413z"/>
	</g>
</g>
</svg>
