<?xml version="1.0" encoding="utf-8"?>
<!-- Generator: Adobe Illustrator 16.0.0, SVG Export Plug-In . SVG Version: 6.00 Build 0)  -->
<!DOCTYPE svg PUBLIC "-//W3C//DTD SVG 1.1//EN" "http://www.w3.org/Graphics/SVG/1.1/DTD/svg11.dtd">
<svg version="1.1" id="Layer_1" xmlns="http://www.w3.org/2000/svg" xmlns:xlink="http://www.w3.org/1999/xlink" x="0px" y="0px"
	 width="1920px" height="1080px" viewBox="0 0 1920 1080" enable-background="new 0 0 1920 1080" xml:space="preserve">
<path fill="#FFFFFF" stroke="#000000" stroke-linecap="round" stroke-linejoin="round" stroke-miterlimit="10" d="M1122.844,982.303
	c0,7.212-5.847,13.058-13.059,13.058H348.309c-7.212,0-13.058-5.846-13.058-13.058v-32.339c0-7.213,5.846-13.059,13.058-13.059
	h761.477c7.212,0,13.059,5.846,13.059,13.059V982.303z"/>
<g>
	
		<image overflow="visible" opacity="0.2" width="535" height="702" xlink:href="B0D52DC6.png"  transform="matrix(1 0 0 1 699.5002 244.5)">
	</image>
	<g>
		<g>
			<rect x="708.684" y="429.204" fill="#DCD5CF" stroke="#000000" stroke-miterlimit="10" width="59.508" height="494.134"/>
			<polygon fill="#DCD5CF" stroke="#000000" stroke-linecap="round" stroke-linejoin="round" stroke-miterlimit="10" points="
				768.19,923.338 768.19,429.204 1211.315,253.867 1211.315,748 			"/>
			<polygon fill="#DCD5CF" stroke="#000000" stroke-linecap="round" stroke-linejoin="round" stroke-miterlimit="10" points="
				1211.317,253.867 1151.809,253.867 708.684,429.204 768.192,429.204 			"/>
		</g>
	</g>
</g>
<g enable-background="new    ">
	<path d="M666.779,142.788c-1.654,1.654-3.68,2.48-6.08,2.48c-2.747,0-5-1.106-6.76-3.32v3.04h-1.64v-29.6h1.64v16.159
		c1.733-2.213,3.986-3.319,6.76-3.319c2.4,0,4.413,0.813,6.04,2.439c1.653,1.654,2.48,3.681,2.48,6.08
		C669.219,139.148,668.405,141.162,666.779,142.788z M665.579,131.868c-1.36-1.36-2.987-2.04-4.88-2.04c-1.92,0-3.547,0.667-4.88,2
		c-1.36,1.36-2.04,3-2.04,4.92c0,1.894,0.68,3.521,2.04,4.88c1.36,1.36,2.986,2.04,4.88,2.04c1.92,0,3.546-0.666,4.88-2
		c1.36-1.359,2.04-3,2.04-4.92C667.619,134.855,666.939,133.229,665.579,131.868z"/>
	<path d="M686.779,142.788c-1.654,1.654-3.68,2.48-6.08,2.48s-4.414-0.813-6.04-2.44c-1.654-1.653-2.48-3.68-2.48-6.08
		c0-2.373,0.826-4.386,2.48-6.04c1.626-1.68,3.64-2.52,6.04-2.52c2.373,0,4.386,0.827,6.04,2.479c1.653,1.654,2.48,3.681,2.48,6.08
		C689.219,139.148,688.405,141.162,686.779,142.788z M685.618,131.828c-1.333-1.359-2.974-2.04-4.92-2.04
		c-1.867,0-3.48,0.694-4.84,2.08c-1.387,1.387-2.08,3.014-2.08,4.88c0,1.894,0.68,3.521,2.04,4.88c1.36,1.36,2.986,2.04,4.88,2.04
		c1.92,0,3.546-0.666,4.88-2c1.36-1.359,2.04-3,2.04-4.92C687.618,134.802,686.952,133.162,685.618,131.828z"/>
	<path d="M695.818,130.108v14.88h-1.64v-14.88h-2.24v-1.64h2.24v-7.24h1.64v7.24h3.84v1.64H695.818z"/>
	<path d="M704.058,133.429c-0.293,0-0.6-0.12-0.92-0.36c-0.24-0.24-0.374-0.561-0.4-0.96c0-0.72,0.44-1.16,1.32-1.32
		c0.667,0,1.106,0.44,1.32,1.32C705.378,132.988,704.938,133.429,704.058,133.429z M704.058,145.229c-0.293,0-0.6-0.12-0.92-0.36
		c-0.24-0.24-0.374-0.56-0.4-0.96c0-0.72,0.44-1.16,1.32-1.32c0.667,0,1.106,0.44,1.32,1.32
		C705.378,144.788,704.938,145.229,704.058,145.229z"/>
	<path d="M710.058,144.988v-28.56h13.72v1.64h-12.08v10.4h12.08v1.76h-12.08v13.12h12.08v1.64H710.058z"/>
	<path d="M727.178,144.988v-29.6h1.6v29.6H727.178z"/>
	<path d="M734.738,136.389c0,2.239,0.6,4.014,1.8,5.319c1.253,1.334,2.973,2,5.16,2c1.12,0,2.133-0.186,3.04-0.56
		c1.146-0.48,2.173-1.453,3.08-2.92l1.48,0.68c-1.04,1.974-2.64,3.307-4.8,4c-0.827,0.267-1.76,0.4-2.8,0.4
		c-2.48,0-4.52-0.813-6.12-2.44c-1.626-1.626-2.44-3.666-2.44-6.12c0-2.479,0.8-4.52,2.4-6.12c1.626-1.626,3.68-2.439,6.16-2.439
		c2.453,0,4.48,0.76,6.08,2.28c1.626,1.52,2.44,3.493,2.44,5.92H734.738z M746.018,131.148c-1.254-0.906-2.694-1.36-4.32-1.36
		c-3.414,0-5.654,1.681-6.72,5.04h13.4C748.111,133.309,747.324,132.082,746.018,131.148z"/>
	<path d="M772.817,144.988v-11.4c0-1.013-0.333-1.893-1-2.64c-0.667-0.746-1.627-1.12-2.88-1.12c-2.587,0-3.88,1.254-3.88,3.76v11.4
		h-1.64v-11.4c0-1.119-0.374-2.013-1.12-2.68c-0.773-0.72-1.694-1.08-2.76-1.08c-1.094,0-2.014,0.347-2.76,1.04
		c-0.747,0.667-1.12,1.574-1.12,2.72v11.4h-1.64v-16.52h1.64v1.64c0.8-1.253,2.093-1.88,3.88-1.88c2.133,0,3.706,0.866,4.72,2.6
		c0.96-1.733,2.52-2.6,4.68-2.6c1.653,0,2.986,0.467,4,1.399c1.013,0.96,1.52,2.28,1.52,3.96v11.4H772.817z"/>
	<path d="M780.057,136.389c0,2.239,0.6,4.014,1.8,5.319c1.253,1.334,2.973,2,5.16,2c1.12,0,2.133-0.186,3.04-0.56
		c1.146-0.48,2.173-1.453,3.08-2.92l1.48,0.68c-1.04,1.974-2.64,3.307-4.8,4c-0.827,0.267-1.76,0.4-2.8,0.4
		c-2.48,0-4.52-0.813-6.12-2.44c-1.626-1.626-2.44-3.666-2.44-6.12c0-2.479,0.8-4.52,2.4-6.12c1.626-1.626,3.68-2.439,6.16-2.439
		c2.453,0,4.48,0.76,6.08,2.28c1.626,1.52,2.44,3.493,2.44,5.92H780.057z M791.337,131.148c-1.254-0.906-2.694-1.36-4.32-1.36
		c-3.414,0-5.654,1.681-6.72,5.04h13.4C793.43,133.309,792.643,132.082,791.337,131.148z"/>
	<path d="M810.456,144.988v-9.88c0-3.493-1.574-5.24-4.72-5.24c-1.547,0-2.72,0.454-3.52,1.36c-0.827,0.906-1.24,2.146-1.24,3.72
		v10.04h-1.64v-16.52h1.64v2c0.747-1.467,2.333-2.2,4.76-2.2c2.053,0,3.626,0.587,4.72,1.76c1.093,1.174,1.64,2.813,1.64,4.92v10.04
		H810.456z"/>
	<path d="M819.857,130.108v14.88h-1.64v-14.88h-2.24v-1.64h2.24v-7.24h1.64v7.24h3.84v1.64H819.857z"/>
</g>
<g enable-background="new    ">
	<path d="M742.322,277.806c-0.32-0.24-0.66-0.431-1.02-0.57s-0.74-0.21-1.14-0.21c-0.34,0-0.66,0.104-0.96,0.314
		s-0.56,0.471-0.78,0.78c-0.221,0.311-0.396,0.655-0.525,1.035s-0.195,0.73-0.195,1.05v8.16h-1.23v-12.39h1.23v1.68
		c0.26-0.46,0.6-0.88,1.02-1.26s0.88-0.57,1.38-0.57c0.62,0,1.13,0.07,1.53,0.21c0.4,0.141,0.85,0.39,1.35,0.75L742.322,277.806z"/>
	<path d="M755.672,288.365v-2.22c-1.32,1.62-3,2.43-5.04,2.43c-1.8,0-3.311-0.609-4.53-1.83c-1.24-1.239-1.86-2.76-1.86-4.56
		c0-1.801,0.61-3.311,1.83-4.53c1.24-1.24,2.76-1.86,4.56-1.86c1.98,0,3.66,0.811,5.04,2.431v-12.061h1.23v22.2H755.672z
		 M754.291,278.525c-1.02-1.021-2.24-1.53-3.66-1.53c-1.44,0-2.66,0.5-3.66,1.5c-1.02,1.021-1.53,2.25-1.53,3.69
		c0,1.42,0.51,2.64,1.53,3.66c1.02,1.02,2.24,1.529,3.66,1.529c1.44,0,2.66-0.499,3.66-1.5c1.02-1.02,1.53-2.25,1.53-3.689
		C755.822,280.766,755.311,279.545,754.291,278.525z"/>
	<path d="M765.271,267.396l-0.81-0.09c-1.12,0-1.68,0.659-1.68,1.979v6.69h2.94v1.229h-2.94v11.16h-1.23v-11.16h-1.68v-1.229h1.68
		v-7.051c0-1.899,0.96-2.85,2.88-2.85c0.439,0,0.72,0.021,0.84,0.06c0.24,0,0.51,0.07,0.81,0.211v1.229L765.271,267.396z"/>
	<path d="M769.231,279.695c-0.22,0-0.45-0.09-0.69-0.271c-0.18-0.18-0.28-0.42-0.3-0.72c0-0.54,0.33-0.87,0.99-0.99
		c0.5,0,0.83,0.33,0.99,0.99C770.221,279.365,769.891,279.695,769.231,279.695z M769.231,288.545c-0.22,0-0.45-0.09-0.69-0.27
		c-0.18-0.18-0.28-0.42-0.3-0.72c0-0.54,0.33-0.87,0.99-0.99c0.5,0,0.83,0.33,0.99,0.99
		C770.221,288.215,769.891,288.545,769.231,288.545z"/>
	<path d="M775.441,277.205v11.16h-1.23v-11.16h-1.68v-1.229h1.68v-5.431h1.23v5.431h2.88v1.229H775.441z"/>
	<path d="M783.331,294.186h-1.38l3.21-6.96l-5.22-11.25h1.32l4.62,9.779l4.56-9.779h1.35L783.331,294.186z"/>
	<path d="M805.26,286.715c-1.24,1.24-2.76,1.86-4.56,1.86c-2.06,0-3.76-0.84-5.1-2.52v8.13h-1.23v-18.21h1.23v2.34
		c1.28-1.681,2.98-2.521,5.1-2.521c1.8,0,3.31,0.61,4.53,1.83c1.24,1.24,1.86,2.76,1.86,4.561
		C807.091,283.985,806.48,285.495,805.26,286.715z M804.361,278.525c-1.02-1.021-2.24-1.53-3.66-1.53c-1.44,0-2.66,0.5-3.66,1.5
		c-1.02,1.021-1.53,2.25-1.53,3.69c0,1.42,0.51,2.64,1.53,3.66c1.02,1.02,2.24,1.529,3.66,1.529c1.44,0,2.66-0.499,3.66-1.5
		c1.02-1.02,1.53-2.25,1.53-3.689C805.89,280.766,805.381,279.545,804.361,278.525z"/>
	<path d="M810.06,281.915c0,1.681,0.45,3.011,1.35,3.99c0.94,1,2.23,1.5,3.87,1.5c0.84,0,1.6-0.14,2.28-0.42
		c0.859-0.36,1.629-1.09,2.31-2.19l1.11,0.511c-0.78,1.479-1.98,2.479-3.6,3c-0.62,0.199-1.32,0.3-2.1,0.3
		c-1.86,0-3.39-0.61-4.59-1.83c-1.22-1.22-1.83-2.75-1.83-4.59c0-1.86,0.6-3.391,1.8-4.59c1.22-1.22,2.76-1.83,4.62-1.83
		c1.84,0,3.36,0.569,4.56,1.71c1.22,1.14,1.83,2.62,1.83,4.439H810.06z M818.52,277.985c-0.94-0.68-2.021-1.021-3.24-1.021
		c-2.56,0-4.24,1.261-5.04,3.78h10.05C820.09,279.605,819.5,278.686,818.52,277.985z"/>
</g>
<g>
	<g>
		<path fill="none" stroke="#000000" stroke-miterlimit="10" d="M893.44,366.977c0-97.679-146.438-99-154.645-199.541"/>
		<g>
			<polygon points="744.606,171.377 738.946,169.282 733.51,171.902 738.438,158.487 			"/>
		</g>
	</g>
</g>
<g enable-background="new    ">
	<path d="M572.445,223.521c-1.654,1.654-3.68,2.48-6.08,2.48c-2.747,0-5.014-1.12-6.8-3.36v10.84h-1.64v-24.279h1.64v3.119
		c1.706-2.239,3.973-3.359,6.8-3.359c2.4,0,4.413,0.813,6.04,2.439c1.653,1.654,2.48,3.681,2.48,6.08
		C574.885,219.881,574.071,221.895,572.445,223.521z M571.244,212.601c-1.36-1.36-2.987-2.04-4.88-2.04c-1.92,0-3.547,0.667-4.88,2
		c-1.36,1.36-2.04,3-2.04,4.92c0,1.894,0.68,3.521,2.04,4.88c1.36,1.36,2.986,2.04,4.88,2.04c1.92,0,3.546-0.666,4.88-2
		c1.36-1.359,2.04-3,2.04-4.92C573.284,215.588,572.605,213.961,571.244,212.601z"/>
	<path d="M586.324,211.641c-0.427-0.32-0.88-0.573-1.36-0.76s-0.987-0.28-1.52-0.28c-0.454,0-0.88,0.14-1.28,0.42
		c-0.4,0.28-0.747,0.627-1.04,1.04c-0.294,0.414-0.527,0.874-0.7,1.38c-0.174,0.507-0.26,0.974-0.26,1.4v10.88h-1.64v-16.52h1.64
		v2.239c0.347-0.613,0.8-1.173,1.36-1.68c0.56-0.506,1.173-0.76,1.84-0.76c0.826,0,1.506,0.094,2.04,0.279
		c0.533,0.188,1.133,0.521,1.8,1L586.324,211.641z"/>
	<path d="M601.764,223.521c-1.654,1.654-3.68,2.48-6.08,2.48s-4.414-0.813-6.04-2.44c-1.654-1.653-2.48-3.68-2.48-6.08
		c0-2.373,0.826-4.386,2.48-6.04c1.626-1.68,3.64-2.52,6.04-2.52c2.373,0,4.386,0.827,6.04,2.479c1.653,1.654,2.48,3.681,2.48,6.08
		C604.204,219.881,603.391,221.895,601.764,223.521z M600.604,212.561c-1.333-1.359-2.974-2.04-4.92-2.04
		c-1.867,0-3.48,0.694-4.84,2.08c-1.387,1.387-2.08,3.014-2.08,4.88c0,1.894,0.68,3.521,2.04,4.88c1.36,1.36,2.986,2.04,4.88,2.04
		c1.92,0,3.546-0.666,4.88-2c1.36-1.359,2.04-3,2.04-4.92C602.604,215.534,601.938,213.895,600.604,212.561z"/>
	<path d="M622.644,225.721v-2.96c-1.76,2.16-4,3.24-6.72,3.24c-2.4,0-4.414-0.813-6.04-2.44c-1.654-1.653-2.48-3.68-2.48-6.08
		c0-2.399,0.813-4.413,2.44-6.04c1.653-1.653,3.68-2.479,6.08-2.479c2.64,0,4.88,1.08,6.72,3.24v-16.08h1.64v29.6H622.644z
		 M620.804,212.601c-1.36-1.36-2.987-2.04-4.88-2.04c-1.92,0-3.547,0.667-4.88,2c-1.36,1.36-2.04,3-2.04,4.92
		c0,1.894,0.68,3.521,2.04,4.88c1.36,1.36,2.986,2.04,4.88,2.04c1.92,0,3.546-0.666,4.88-2c1.36-1.359,2.04-3,2.04-4.92
		C622.844,215.588,622.164,213.961,620.804,212.601z"/>
	<path d="M629.884,214.161c-0.293,0-0.6-0.12-0.92-0.36c-0.24-0.24-0.374-0.561-0.4-0.96c0-0.72,0.44-1.16,1.32-1.32
		c0.667,0,1.106,0.44,1.32,1.32C631.204,213.721,630.764,214.161,629.884,214.161z M629.884,225.961c-0.293,0-0.6-0.12-0.92-0.36
		c-0.24-0.24-0.374-0.56-0.4-0.96c0-0.72,0.44-1.16,1.32-1.32c0.667,0,1.106,0.44,1.32,1.32
		C631.204,225.521,630.764,225.961,629.884,225.961z"/>
	<path d="M657.843,226.121l-7.12-23.96l-7.16,23.96l-9.16-28.96h1.6l7.48,23.359l7.24-23.88l7.2,23.88l7.48-23.359h1.68
		L657.843,226.121z"/>
	<path d="M681.203,225.721v-2.84c-1.734,2.08-3.934,3.12-6.6,3.12c-2.4,0-4.414-0.813-6.04-2.44c-1.654-1.653-2.48-3.68-2.48-6.08
		c0-2.399,0.813-4.413,2.44-6.04c1.653-1.653,3.68-2.479,6.08-2.479c2.64,0,4.84,1.04,6.6,3.12v-2.88h1.64v16.52H681.203z
		 M679.483,212.601c-1.36-1.36-2.987-2.04-4.88-2.04c-1.92,0-3.547,0.667-4.88,2c-1.36,1.36-2.04,3-2.04,4.92
		c0,1.894,0.68,3.521,2.04,4.88c1.36,1.36,2.986,2.04,4.88,2.04c1.92,0,3.546-0.666,4.88-2c1.36-1.359,2.04-3,2.04-4.92
		C681.523,215.588,680.843,213.961,679.483,212.601z"/>
	<path d="M688.163,225.721v-29.6h1.6v29.6H688.163z"/>
	<path d="M693.283,225.721v-29.6h1.6v29.6H693.283z"/>
</g>
<g enable-background="new    ">
	<path d="M627.247,323.477c-0.32-0.24-0.66-0.431-1.02-0.57s-0.74-0.21-1.14-0.21c-0.34,0-0.66,0.104-0.96,0.314
		s-0.56,0.471-0.78,0.78c-0.221,0.311-0.396,0.655-0.525,1.035s-0.195,0.73-0.195,1.05v8.16h-1.23v-12.39h1.23v1.68
		c0.26-0.46,0.6-0.88,1.02-1.26s0.88-0.57,1.38-0.57c0.62,0,1.13,0.07,1.53,0.21c0.4,0.141,0.85,0.39,1.35,0.75L627.247,323.477z"/>
	<path d="M640.597,334.036v-2.22c-1.32,1.62-3,2.43-5.04,2.43c-1.8,0-3.311-0.609-4.53-1.83c-1.24-1.239-1.86-2.76-1.86-4.56
		c0-1.801,0.61-3.311,1.83-4.53c1.24-1.24,2.76-1.86,4.56-1.86c1.98,0,3.66,0.811,5.04,2.431v-12.061h1.23v22.2H640.597z
		 M639.217,324.196c-1.02-1.021-2.24-1.53-3.66-1.53c-1.44,0-2.66,0.5-3.66,1.5c-1.02,1.021-1.53,2.25-1.53,3.69
		c0,1.42,0.51,2.64,1.53,3.66c1.02,1.02,2.24,1.529,3.66,1.529c1.44,0,2.66-0.499,3.66-1.5c1.02-1.02,1.53-2.25,1.53-3.689
		C640.747,326.437,640.237,325.216,639.217,324.196z"/>
	<path d="M650.197,313.066l-0.81-0.09c-1.12,0-1.68,0.659-1.68,1.979v6.69h2.94v1.229h-2.94v11.16h-1.23v-11.16h-1.68v-1.229h1.68
		v-7.051c0-1.899,0.96-2.85,2.88-2.85c0.439,0,0.72,0.021,0.84,0.06c0.24,0,0.51,0.07,0.81,0.211v1.229L650.197,313.066z"/>
	<path d="M654.157,325.366c-0.22,0-0.45-0.09-0.69-0.271c-0.18-0.18-0.28-0.42-0.3-0.72c0-0.54,0.33-0.87,0.99-0.99
		c0.5,0,0.83,0.33,0.99,0.99C655.147,325.036,654.817,325.366,654.157,325.366z M654.157,334.216c-0.22,0-0.45-0.09-0.69-0.27
		c-0.18-0.18-0.28-0.42-0.3-0.72c0-0.54,0.33-0.87,0.99-0.99c0.5,0,0.83,0.33,0.99,0.99
		C655.147,333.886,654.817,334.216,654.157,334.216z"/>
	<path d="M660.366,322.876v11.16h-1.23v-11.16h-1.68v-1.229h1.68v-5.431h1.23v5.431h2.88v1.229H660.366z"/>
	<path d="M668.257,339.856h-1.38l3.21-6.96l-5.22-11.25h1.32l4.62,9.779l4.56-9.779h1.35L668.257,339.856z"/>
	<path d="M690.186,332.386c-1.24,1.24-2.76,1.86-4.56,1.86c-2.06,0-3.76-0.84-5.1-2.52v8.13h-1.23v-18.21h1.23v2.34
		c1.28-1.681,2.98-2.521,5.1-2.521c1.8,0,3.31,0.61,4.53,1.83c1.24,1.24,1.86,2.76,1.86,4.561
		C692.016,329.656,691.406,331.166,690.186,332.386z M689.286,324.196c-1.02-1.021-2.24-1.53-3.66-1.53c-1.44,0-2.66,0.5-3.66,1.5
		c-1.02,1.021-1.53,2.25-1.53,3.69c0,1.42,0.51,2.64,1.53,3.66c1.02,1.02,2.24,1.529,3.66,1.529c1.44,0,2.66-0.499,3.66-1.5
		c1.02-1.02,1.53-2.25,1.53-3.689C690.816,326.437,690.306,325.216,689.286,324.196z"/>
	<path d="M694.986,327.586c0,1.681,0.45,3.011,1.35,3.99c0.94,1,2.23,1.5,3.87,1.5c0.84,0,1.6-0.14,2.28-0.42
		c0.859-0.36,1.629-1.09,2.31-2.19l1.11,0.511c-0.78,1.479-1.98,2.479-3.6,3c-0.62,0.199-1.32,0.3-2.1,0.3
		c-1.86,0-3.39-0.61-4.59-1.83c-1.22-1.22-1.83-2.75-1.83-4.59c0-1.86,0.6-3.391,1.8-4.59c1.22-1.22,2.76-1.83,4.62-1.83
		c1.84,0,3.36,0.569,4.56,1.71c1.22,1.14,1.83,2.62,1.83,4.439H694.986z M703.446,323.656c-0.94-0.68-2.021-1.021-3.24-1.021
		c-2.56,0-4.24,1.261-5.04,3.78h10.05C705.016,325.276,704.426,324.356,703.446,323.656z"/>
</g>
<g>
	<g>
		<path fill="none" stroke="#000000" stroke-miterlimit="10" d="M853.596,384.098c0-88.624-210.24-34.732-222.203-132.008"/>
		<g>
			<polygon points="637.334,255.891 631.625,253.93 626.252,256.676 630.862,243.149 			"/>
		</g>
	</g>
</g>
<g enable-background="new    ">
	<path d="M771.649,82.848c-0.293,0-0.6-0.119-0.92-0.359c-0.24-0.24-0.374-0.561-0.4-0.96c0-0.72,0.44-1.16,1.32-1.32
		c0.667,0,1.106,0.44,1.32,1.32C772.969,82.408,772.53,82.848,771.649,82.848z M770.809,102.328v-16.52h1.64v16.52H770.809z"/>
	<path d="M784.169,74.368l-1.08-0.12c-1.494,0-2.24,0.88-2.24,2.64v8.921h3.92v1.64h-3.92v14.88h-1.64v-14.88h-2.24v-1.64h2.24v-9.4
		c0-2.533,1.28-3.8,3.84-3.8c0.586,0,0.96,0.026,1.12,0.08c0.32,0,0.68,0.094,1.08,0.279v1.641L784.169,74.368z"/>
	<path d="M795.689,102.648c-2.454,0-4.494-0.813-6.12-2.44c-1.626-1.626-2.44-3.666-2.44-6.12c0-2.453,0.813-4.493,2.44-6.12
		c1.626-1.626,3.667-2.439,6.12-2.439c2.106,0,3.786,0.479,5.04,1.439v1.96l-1.04-0.68l-1.12-0.6
		c-1.014-0.347-1.974-0.521-2.88-0.521c-2.054,0-3.72,0.641-5,1.92c-1.307,1.308-1.96,2.987-1.96,5.04c0,2.027,0.653,3.694,1.96,5
		c1.306,1.307,2.973,1.96,5,1.96c1.92,0,3.6-0.64,5.04-1.92v2.04C799.235,102.155,797.555,102.648,795.689,102.648z"/>
	<path d="M806.128,90.769c-0.293,0-0.6-0.12-0.92-0.36c-0.24-0.24-0.374-0.561-0.4-0.96c0-0.72,0.44-1.16,1.32-1.32
		c0.667,0,1.106,0.44,1.32,1.32C807.448,90.328,807.009,90.769,806.128,90.769z M806.128,102.568c-0.293,0-0.6-0.12-0.92-0.36
		c-0.24-0.24-0.374-0.56-0.4-0.96c0-0.72,0.44-1.16,1.32-1.32c0.667,0,1.106,0.44,1.32,1.32
		C807.448,102.128,807.009,102.568,806.128,102.568z"/>
	<path d="M812.368,102.328v-28.56h1.6v28.56H812.368z"/>
	<path d="M825.887,74.368l-1.08-0.12c-1.494,0-2.24,0.88-2.24,2.64v8.921h3.92v1.64h-3.92v14.88h-1.64v-14.88h-2.24v-1.64h2.24v-9.4
		c0-2.533,1.28-3.8,3.84-3.8c0.586,0,0.96,0.026,1.12,0.08c0.32,0,0.68,0.094,1.08,0.279v1.641L825.887,74.368z"/>
	<path d="M837.407,102.648c-2.454,0-4.494-0.813-6.12-2.44c-1.626-1.626-2.44-3.666-2.44-6.12c0-2.453,0.813-4.493,2.44-6.12
		c1.626-1.626,3.667-2.439,6.12-2.439c2.106,0,3.786,0.479,5.04,1.439v1.96l-1.04-0.68l-1.12-0.6
		c-1.014-0.347-1.974-0.521-2.88-0.521c-2.054,0-3.72,0.641-5,1.92c-1.307,1.308-1.96,2.987-1.96,5.04c0,2.027,0.653,3.694,1.96,5
		c1.306,1.307,2.973,1.96,5,1.96c1.92,0,3.6-0.64,5.04-1.92v2.04C840.954,102.155,839.274,102.648,837.407,102.648z"/>
	<path d="M865.367,102.729l-7.12-23.96l-7.16,23.96l-9.16-28.96h1.6l7.48,23.359l7.24-23.88l7.2,23.88l7.48-23.359h1.68
		L865.367,102.729z"/>
	<path d="M888.727,102.328v-2.84c-1.734,2.08-3.934,3.12-6.6,3.12c-2.4,0-4.414-0.813-6.04-2.44c-1.654-1.653-2.48-3.68-2.48-6.08
		c0-2.399,0.813-4.413,2.44-6.04c1.653-1.653,3.68-2.479,6.08-2.479c2.64,0,4.84,1.04,6.6,3.12v-2.88h1.64v16.52H888.727z
		 M887.007,89.208c-1.36-1.36-2.987-2.04-4.88-2.04c-1.92,0-3.547,0.667-4.88,2c-1.36,1.36-2.04,3-2.04,4.92
		c0,1.894,0.68,3.521,2.04,4.88c1.36,1.36,2.986,2.04,4.88,2.04c1.92,0,3.546-0.666,4.88-2c1.36-1.359,2.04-3,2.04-4.92
		C889.047,92.195,888.367,90.568,887.007,89.208z"/>
	<path d="M895.687,102.328v-29.6h1.6v29.6H895.687z"/>
	<path d="M900.807,102.328v-29.6h1.6v29.6H900.807z"/>
</g>
<g enable-background="new    ">
	<path d="M1004.839,27.821v-4.681c0-0.88,0.24-1.506,0.72-1.88h0.801c-0.48,0.534-0.721,1.16-0.721,1.88v1.8h1.32v2.881H1004.839z
		 M1009.44,27.821v-4.681c0-0.88,0.239-1.506,0.719-1.88h0.801c-0.48,0.534-0.721,1.16-0.721,1.88v1.8h1.32v2.881H1009.44z"/>
	<path d="M1030.999,36.021c-0.24,0.294-0.601,0.728-1.08,1.301s-1.094,1.286-1.84,2.14l-8.2,9.28h13.68v1.64h-17.279l14-16.2
		c1.119-1.6,1.68-3.266,1.68-5c0-1.68-0.667-3.106-2-4.28c-1.334-1.146-2.88-1.72-4.641-1.72c-2.16,0-3.854,0.694-5.08,2.08
		c-0.746,0.827-1.266,1.854-1.56,3.08h-1.8c0.186-1.386,0.88-2.76,2.08-4.12c1.6-1.76,3.72-2.64,6.359-2.64
		c2.267,0,4.214,0.707,5.84,2.12c1.627,1.387,2.44,3.214,2.44,5.479C1033.599,31.501,1032.733,33.781,1030.999,36.021z"/>
	<path d="M1054.998,45.741c-1.92,3.359-4.639,5.04-8.159,5.04c-3.494,0-6.2-1.693-8.12-5.08c-1.574-2.773-2.359-6.054-2.359-9.84
		c0-3.813,0.785-7.106,2.359-9.881c1.92-3.386,4.626-5.08,8.12-5.08c3.493,0,6.2,1.694,8.12,5.08
		c1.572,2.827,2.359,6.12,2.359,9.881C1057.319,39.701,1056.545,42.994,1054.998,45.741z M1053.719,27.181
		c-1.574-3.093-3.867-4.64-6.88-4.64c-2.694,0-4.867,1.387-6.521,4.16c-1.467,2.507-2.199,5.56-2.199,9.16
		c0,3.279,0.626,6.146,1.879,8.6c1.601,3.094,3.881,4.64,6.841,4.64c2.746,0,4.933-1.373,6.56-4.12c1.467-2.426,2.2-5.466,2.2-9.119
		C1055.599,32.527,1054.972,29.635,1053.719,27.181z"/>
	<path d="M1059.918,50.621c-0.293,0-0.6-0.12-0.92-0.36c-0.24-0.24-0.373-0.56-0.399-0.96c0-0.72,0.44-1.16,1.319-1.32
		c0.666,0,1.107,0.44,1.32,1.32C1061.239,50.181,1060.799,50.621,1059.918,50.621z"/>
	<path d="M1079.038,48.381c-1.547,1.467-3.507,2.2-5.88,2.2c-1.975,0-3.667-0.547-5.08-1.641c-1.36-1.093-2.268-2.626-2.721-4.6
		h1.761c0.347,1.307,1.106,2.4,2.28,3.28c1.146,0.88,2.399,1.319,3.76,1.319c1.76,0,3.266-0.6,4.52-1.8
		c1.254-1.253,1.881-2.746,1.881-4.479c0-2.16-0.774-3.854-2.32-5.08c-1.174-0.934-2.374-1.4-3.6-1.4h-1.681v-2.359h1.681
		c1.68,0,3.025-0.467,4.039-1.4c0.986-0.906,1.48-2.227,1.48-3.96c0-1.653-0.534-3-1.6-4.04c-1.067-1.066-2.44-1.6-4.121-1.6
		c-3.199,0-5.133,1.68-5.799,5.04h-1.881c0.24-2.08,1.053-3.707,2.439-4.881c1.387-1.199,3.134-1.8,5.24-1.8
		c2.187,0,4.014,0.667,5.48,2c1.467,1.307,2.2,3.067,2.2,5.28c0,3.547-1.787,5.72-5.36,6.52c3.733,1.12,5.6,3.681,5.6,7.681
		C1081.358,45.034,1080.584,46.94,1079.038,48.381z"/>
</g>
<g enable-background="new    ">
	<path d="M1115.838,50.381v-11.4c0-1.013-0.333-1.893-1-2.64c-0.666-0.746-1.627-1.12-2.879-1.12c-2.588,0-3.881,1.254-3.881,3.76
		v11.4h-1.64v-11.4c0-1.119-0.374-2.013-1.12-2.68c-0.773-0.72-1.693-1.08-2.76-1.08c-1.094,0-2.014,0.347-2.76,1.04
		c-0.747,0.667-1.121,1.574-1.121,2.72v11.4h-1.639v-16.52h1.639v1.64c0.801-1.253,2.094-1.88,3.881-1.88
		c2.133,0,3.706,0.866,4.72,2.6c0.96-1.733,2.521-2.6,4.681-2.6c1.652,0,2.986,0.467,4,1.399c1.013,0.96,1.52,2.28,1.52,3.96v11.4
		H1115.838z"/>
</g>
<g enable-background="new    ">
	<path d="M1130.12,28.688c-0.14,0.171-0.35,0.424-0.629,0.758c-0.28,0.334-0.638,0.75-1.073,1.248l-4.78,5.41h7.976v0.956h-10.074
		l8.162-9.445c0.652-0.933,0.979-1.904,0.979-2.915c0-0.979-0.389-1.811-1.165-2.496c-0.778-0.668-1.68-1.002-2.706-1.002
		c-1.259,0-2.246,0.404-2.961,1.212c-0.436,0.482-0.739,1.081-0.91,1.796h-1.049c0.108-0.809,0.513-1.609,1.213-2.402
		c0.933-1.026,2.168-1.539,3.707-1.539c1.321,0,2.457,0.412,3.405,1.236c0.948,0.808,1.423,1.874,1.423,3.195
		C1131.637,26.054,1131.131,27.383,1130.12,28.688z"/>
</g>
<g enable-background="new    ">
	<path d="M1136.867,27.501h-0.801c0.48-0.507,0.721-1.133,0.721-1.88v-1.8h-1.32V20.94h2.119v4.681
		C1137.586,26.288,1137.347,26.915,1136.867,27.501z M1141.467,27.501h-0.801c0.48-0.507,0.721-1.133,0.721-1.88v-1.8h-1.32V20.94
		h2.12v4.681C1142.187,26.288,1141.948,26.915,1141.467,27.501z"/>
</g>
<g enable-background="new    ">
	<path d="M1302.913,36.677v-4.681c0-0.88,0.24-1.506,0.72-1.88h0.801c-0.48,0.534-0.721,1.16-0.721,1.88v1.8h1.32v2.881H1302.913z
		 M1307.514,36.677v-4.681c0-0.88,0.239-1.506,0.719-1.88h0.801c-0.48,0.534-0.721,1.16-0.721,1.88v1.8h1.32v2.881H1307.514z"/>
	<path d="M1328.553,57.236c-1.547,1.467-3.506,2.2-5.88,2.2c-1.974,0-3.667-0.547-5.079-1.641c-1.361-1.093-2.268-2.626-2.721-4.6
		h1.76c0.347,1.307,1.106,2.4,2.28,3.28c1.146,0.88,2.399,1.319,3.76,1.319c1.761,0,3.267-0.6,4.521-1.8
		c1.253-1.253,1.88-2.746,1.88-4.479c0-2.16-0.774-3.854-2.32-5.08c-1.174-0.934-2.374-1.4-3.6-1.4h-1.681v-2.359h1.681
		c1.68,0,3.026-0.467,4.04-1.4c0.986-0.906,1.479-2.227,1.479-3.96c0-1.653-0.534-3-1.6-4.04c-1.067-1.066-2.44-1.6-4.12-1.6
		c-3.2,0-5.134,1.68-5.8,5.04h-1.88c0.24-2.08,1.053-3.707,2.439-4.881c1.387-1.199,3.133-1.8,5.24-1.8c2.186,0,4.014,0.667,5.48,2
		c1.466,1.307,2.199,3.067,2.199,5.28c0,3.547-1.787,5.72-5.359,6.52c3.732,1.12,5.6,3.681,5.6,7.681
		C1330.873,53.89,1330.1,55.796,1328.553,57.236z"/>
	<path d="M1351.713,57.116c-1.867,1.867-4.214,2.8-7.04,2.8c-2.907,0-5.267-0.906-7.08-2.72c-1.813-1.866-2.72-4.24-2.72-7.12v-0.88
		c0-0.133,0-0.267,0-0.4c0-0.159,0.014-0.319,0.04-0.479s0.065-0.387,0.12-0.68c0.053-0.294,0.146-0.667,0.279-1.12
		c0.133-0.561,0.307-1.087,0.521-1.58c0.213-0.493,0.44-0.967,0.68-1.42l7.16-12.84h1.88l-6.08,11.079l1.68-0.84l1.721-0.479
		l1.8-0.16c2.8,0,5.134,0.934,7,2.8c1.894,1.894,2.84,4.227,2.84,7C1354.513,52.903,1353.579,55.25,1351.713,57.116z
		 M1350.513,44.316c-1.6-1.626-3.547-2.44-5.84-2.44c-2.267,0-4.2,0.801-5.8,2.4s-2.4,3.534-2.4,5.8c0,2.374,0.773,4.334,2.32,5.88
		c1.573,1.574,3.533,2.36,5.88,2.36s4.306-0.786,5.88-2.36c1.573-1.573,2.36-3.533,2.36-5.88
		C1352.913,47.89,1352.114,45.97,1350.513,44.316z"/>
	<path d="M1374.873,54.597c-1.92,3.359-4.641,5.04-8.16,5.04c-3.494,0-6.2-1.693-8.12-5.08c-1.573-2.773-2.36-6.054-2.36-9.84
		c0-3.813,0.787-7.106,2.36-9.881c1.92-3.386,4.626-5.08,8.12-5.08c3.493,0,6.199,1.694,8.119,5.08
		c1.574,2.827,2.361,6.12,2.361,9.881C1377.194,48.557,1376.419,51.85,1374.873,54.597z M1373.593,36.036
		c-1.573-3.093-3.867-4.64-6.88-4.64c-2.693,0-4.867,1.387-6.52,4.16c-1.468,2.507-2.201,5.56-2.201,9.16
		c0,3.279,0.627,6.146,1.881,8.6c1.6,3.094,3.88,4.64,6.84,4.64c2.746,0,4.934-1.373,6.56-4.12c1.466-2.426,2.2-5.466,2.2-9.119
		C1375.473,41.383,1374.846,38.49,1373.593,36.036z"/>
</g>
<g enable-background="new    ">
	<path d="M1409.393,59.236v-11.4c0-1.013-0.334-1.893-1-2.64c-0.667-0.746-1.627-1.12-2.88-1.12c-2.587,0-3.88,1.254-3.88,3.76v11.4
		h-1.641v-11.4c0-1.119-0.373-2.013-1.119-2.68c-0.773-0.72-1.694-1.08-2.76-1.08c-1.094,0-2.014,0.347-2.761,1.04
		c-0.747,0.667-1.12,1.574-1.12,2.72v11.4h-1.64v-16.52h1.64v1.64c0.801-1.253,2.094-1.88,3.881-1.88c2.133,0,3.705,0.866,4.719,2.6
		c0.961-1.733,2.521-2.6,4.681-2.6c1.653,0,2.986,0.467,4,1.399c1.013,0.96,1.521,2.28,1.521,3.96v11.4H1409.393z"/>
	<path d="M1433.313,59.236v-11.4c0-1.013-0.334-1.893-1-2.64c-0.667-0.746-1.627-1.12-2.88-1.12c-2.587,0-3.88,1.254-3.88,3.76v11.4
		h-1.641v-11.4c0-1.119-0.373-2.013-1.119-2.68c-0.773-0.72-1.694-1.08-2.76-1.08c-1.094,0-2.014,0.347-2.761,1.04
		c-0.747,0.667-1.12,1.574-1.12,2.72v11.4h-1.64v-16.52h1.64v1.64c0.801-1.253,2.094-1.88,3.881-1.88c2.133,0,3.705,0.866,4.719,2.6
		c0.961-1.733,2.521-2.6,4.681-2.6c1.653,0,2.986,0.467,4,1.399c1.013,0.96,1.521,2.28,1.521,3.96v11.4H1433.313z"/>
	<path d="M1441.633,36.356h-0.801c0.48-0.507,0.721-1.133,0.721-1.88v-1.8h-1.32v-2.881h2.119v4.681
		C1442.352,35.144,1442.113,35.771,1441.633,36.356z M1446.233,36.356h-0.801c0.48-0.507,0.721-1.133,0.721-1.88v-1.8h-1.32v-2.881
		h2.12v4.681C1446.952,35.144,1446.713,35.771,1446.233,36.356z"/>
</g>
<g enable-background="new    ">
	<path d="M882.31,199.148c-0.32-0.24-0.66-0.431-1.02-0.57s-0.74-0.21-1.14-0.21c-0.34,0-0.66,0.104-0.96,0.314
		s-0.56,0.471-0.78,0.78c-0.221,0.311-0.396,0.655-0.525,1.035s-0.195,0.73-0.195,1.05v8.16h-1.23v-12.39h1.23v1.68
		c0.26-0.46,0.6-0.88,1.02-1.26s0.88-0.57,1.38-0.57c0.62,0,1.13,0.07,1.53,0.21c0.4,0.141,0.85,0.39,1.35,0.75L882.31,199.148z"/>
	<path d="M895.66,209.708v-2.22c-1.32,1.62-3,2.43-5.04,2.43c-1.8,0-3.311-0.609-4.53-1.83c-1.24-1.239-1.86-2.76-1.86-4.56
		c0-1.801,0.61-3.311,1.83-4.53c1.24-1.24,2.76-1.86,4.56-1.86c1.98,0,3.66,0.811,5.04,2.431v-12.061h1.23v22.2H895.66z
		 M894.28,199.868c-1.02-1.021-2.24-1.53-3.66-1.53c-1.44,0-2.66,0.5-3.66,1.5c-1.02,1.021-1.53,2.25-1.53,3.69
		c0,1.42,0.51,2.64,1.53,3.66c1.02,1.02,2.24,1.529,3.66,1.529c1.44,0,2.66-0.499,3.66-1.5c1.02-1.02,1.53-2.25,1.53-3.689
		C895.81,202.108,895.3,200.888,894.28,199.868z"/>
	<path d="M905.26,188.738l-0.81-0.09c-1.12,0-1.68,0.659-1.68,1.979v6.69h2.94v1.229h-2.94v11.16h-1.23v-11.16h-1.68v-1.229h1.68
		v-7.051c0-1.899,0.96-2.85,2.88-2.85c0.439,0,0.72,0.021,0.84,0.06c0.24,0,0.51,0.07,0.81,0.211v1.229L905.26,188.738z"/>
	<path d="M909.219,201.038c-0.22,0-0.45-0.09-0.69-0.271c-0.18-0.18-0.28-0.42-0.3-0.72c0-0.54,0.33-0.87,0.99-0.99
		c0.5,0,0.83,0.33,0.99,0.99C910.209,200.708,909.88,201.038,909.219,201.038z M909.219,209.888c-0.22,0-0.45-0.09-0.69-0.27
		c-0.18-0.18-0.28-0.42-0.3-0.72c0-0.54,0.33-0.87,0.99-0.99c0.5,0,0.83,0.33,0.99,0.99
		C910.209,209.558,909.88,209.888,909.219,209.888z"/>
	<path d="M915.429,198.548v11.16h-1.23v-11.16h-1.68v-1.229h1.68v-5.431h1.23v5.431h2.88v1.229H915.429z"/>
	<path d="M923.319,215.528h-1.38l3.21-6.96l-5.22-11.25h1.32l4.62,9.779l4.56-9.779h1.35L923.319,215.528z"/>
	<path d="M945.249,208.058c-1.24,1.24-2.76,1.86-4.56,1.86c-2.06,0-3.76-0.84-5.1-2.52v8.13h-1.23v-18.21h1.23v2.34
		c1.28-1.681,2.98-2.521,5.1-2.521c1.8,0,3.31,0.61,4.53,1.83c1.24,1.24,1.86,2.76,1.86,4.561
		C947.079,205.328,946.469,206.838,945.249,208.058z M944.349,199.868c-1.02-1.021-2.24-1.53-3.66-1.53c-1.44,0-2.66,0.5-3.66,1.5
		c-1.02,1.021-1.53,2.25-1.53,3.69c0,1.42,0.51,2.64,1.53,3.66c1.02,1.02,2.24,1.529,3.66,1.529c1.44,0,2.66-0.499,3.66-1.5
		c1.02-1.02,1.53-2.25,1.53-3.689C945.879,202.108,945.369,200.888,944.349,199.868z"/>
	<path d="M950.049,203.258c0,1.681,0.45,3.011,1.35,3.99c0.94,1,2.23,1.5,3.87,1.5c0.84,0,1.6-0.14,2.28-0.42
		c0.859-0.36,1.629-1.09,2.31-2.19l1.111,0.511c-0.781,1.479-1.98,2.479-3.601,3c-0.62,0.199-1.32,0.3-2.1,0.3
		c-1.86,0-3.39-0.61-4.59-1.83c-1.22-1.22-1.83-2.75-1.83-4.59c0-1.86,0.6-3.391,1.8-4.59c1.22-1.22,2.76-1.83,4.62-1.83
		c1.84,0,3.36,0.569,4.56,1.71c1.22,1.14,1.83,2.62,1.83,4.439H950.049z M958.509,199.328c-0.94-0.68-2.021-1.021-3.24-1.021
		c-2.56,0-4.24,1.261-5.04,3.78h10.05C960.078,200.948,959.488,200.028,958.509,199.328z"/>
</g>
<g enable-background="new    ">
	<path d="M954.135,111.089c-1.24,1.24-2.76,1.86-4.56,1.86c-2.06,0-3.76-0.84-5.1-2.52v8.13h-1.23v-18.21h1.23v2.34
		c1.28-1.681,2.98-2.521,5.1-2.521c1.8,0,3.31,0.61,4.53,1.83c1.24,1.24,1.86,2.76,1.86,4.561
		C955.966,108.359,955.355,109.869,954.135,111.089z M953.236,102.899c-1.02-1.021-2.24-1.53-3.66-1.53c-1.44,0-2.66,0.5-3.66,1.5
		c-1.02,1.021-1.53,2.25-1.53,3.69c0,1.42,0.51,2.64,1.53,3.66c1.02,1.02,2.24,1.529,3.66,1.529c1.44,0,2.66-0.499,3.66-1.5
		c1.02-1.02,1.53-2.25,1.53-3.689C954.765,105.14,954.256,103.919,953.236,102.899z"/>
	<path d="M964.545,102.18c-0.32-0.24-0.66-0.431-1.02-0.57c-0.36-0.14-0.74-0.21-1.141-0.21c-0.34,0-0.66,0.104-0.96,0.314
		s-0.56,0.471-0.78,0.78c-0.22,0.311-0.395,0.655-0.525,1.035s-0.195,0.73-0.195,1.05v8.16h-1.23v-12.39h1.23v1.68
		c0.26-0.46,0.601-0.88,1.021-1.26s0.879-0.57,1.379-0.57c0.62,0,1.131,0.07,1.531,0.21c0.399,0.141,0.85,0.39,1.35,0.75
		L964.545,102.18z"/>
	<path d="M976.125,111.089c-1.24,1.24-2.76,1.86-4.561,1.86c-1.799,0-3.31-0.609-4.529-1.83c-1.24-1.239-1.86-2.76-1.86-4.56
		c0-1.78,0.62-3.29,1.86-4.53c1.22-1.26,2.73-1.89,4.529-1.89c1.78,0,3.29,0.62,4.531,1.859c1.239,1.24,1.859,2.76,1.859,4.561
		C977.955,108.359,977.345,109.869,976.125,111.089z M975.255,102.869c-1-1.02-2.229-1.53-3.69-1.53
		c-1.399,0-2.609,0.521-3.629,1.561c-1.041,1.04-1.561,2.26-1.561,3.66c0,1.42,0.51,2.64,1.529,3.66
		c1.021,1.02,2.24,1.529,3.66,1.529c1.44,0,2.66-0.499,3.66-1.5c1.021-1.02,1.53-2.25,1.53-3.689
		C976.755,105.1,976.255,103.869,975.255,102.869z"/>
	<path d="M991.875,111.089c-1.24,1.24-2.761,1.86-4.561,1.86c-2.061,0-3.76-0.84-5.1-2.52v8.13h-1.23v-18.21h1.23v2.34
		c1.279-1.681,2.979-2.521,5.1-2.521c1.8,0,3.311,0.61,4.529,1.83c1.24,1.24,1.861,2.76,1.861,4.561
		C993.705,108.359,993.094,109.869,991.875,111.089z M990.975,102.899c-1.02-1.021-2.24-1.53-3.66-1.53c-1.439,0-2.66,0.5-3.66,1.5
		c-1.02,1.021-1.529,2.25-1.529,3.69c0,1.42,0.51,2.64,1.529,3.66c1.02,1.02,2.24,1.529,3.66,1.529c1.439,0,2.66-0.499,3.66-1.5
		c1.02-1.02,1.529-2.25,1.529-3.689C992.504,105.14,991.994,103.919,990.975,102.899z"/>
	<path d="M1002.524,111.959c-0.799,0.681-1.76,1.021-2.879,1.021c-1.92,0-3.36-0.87-4.32-2.61l1.05-0.63
		c0.34,0.62,0.75,1.101,1.229,1.44c0.5,0.38,1.181,0.569,2.041,0.569c1.879,0,2.819-0.8,2.819-2.399c0-0.7-0.329-1.31-0.989-1.83
		c-0.201-0.12-0.486-0.255-0.855-0.405c-0.37-0.15-0.825-0.325-1.365-0.525c-1-0.359-1.721-0.72-2.16-1.08
		c-0.641-0.52-0.959-1.27-0.959-2.25c0-0.84,0.318-1.56,0.959-2.159c0.62-0.62,1.43-0.931,2.43-0.931c1.381,0,2.551,0.48,3.511,1.44
		l-0.899,0.78c-0.681-0.68-1.551-1.021-2.611-1.021c-1.439,0-2.159,0.63-2.159,1.89c0,0.561,0.22,1.021,0.659,1.381
		c0.361,0.28,0.931,0.55,1.711,0.81c0.68,0.24,1.24,0.465,1.68,0.675s0.77,0.396,0.99,0.556c0.859,0.659,1.29,1.55,1.29,2.67
		C1003.695,110.43,1003.305,111.299,1002.524,111.959z"/>
	<path d="M1006.905,104.069c-0.221,0-0.451-0.09-0.69-0.271c-0.181-0.18-0.28-0.42-0.3-0.72c0-0.54,0.33-0.87,0.99-0.99
		c0.499,0,0.829,0.33,0.989,0.99C1007.894,103.739,1007.565,104.069,1006.905,104.069z M1006.905,112.919
		c-0.221,0-0.451-0.09-0.69-0.27c-0.181-0.18-0.28-0.42-0.3-0.72c0-0.54,0.33-0.87,0.99-0.99c0.499,0,0.829,0.33,0.989,0.99
		C1007.894,112.589,1007.565,112.919,1006.905,112.919z"/>
	<path d="M1021.664,112.739v-2.13c-1.301,1.56-2.951,2.34-4.951,2.34c-1.799,0-3.31-0.609-4.529-1.83
		c-1.24-1.239-1.86-2.76-1.86-4.56c0-1.801,0.61-3.311,1.83-4.53c1.239-1.24,2.761-1.86,4.56-1.86c1.98,0,3.631,0.78,4.951,2.34
		v-2.159h1.229v12.39H1021.664z M1020.373,102.899c-1.02-1.021-2.24-1.53-3.66-1.53c-1.439,0-2.66,0.5-3.66,1.5
		c-1.02,1.021-1.529,2.25-1.529,3.69c0,1.42,0.51,2.64,1.529,3.66c1.021,1.02,2.24,1.529,3.66,1.529c1.44,0,2.66-0.499,3.66-1.5
		c1.021-1.02,1.53-2.25,1.53-3.689C1021.904,105.14,1021.394,103.919,1020.373,102.899z"/>
	<path d="M1032.404,102.18c-0.32-0.24-0.66-0.431-1.021-0.57c-0.359-0.14-0.74-0.21-1.14-0.21c-0.341,0-0.66,0.104-0.96,0.314
		s-0.561,0.471-0.779,0.78c-0.221,0.311-0.396,0.655-0.525,1.035c-0.131,0.38-0.195,0.73-0.195,1.05v8.16h-1.23v-12.39h1.23v1.68
		c0.26-0.46,0.6-0.88,1.02-1.26s0.881-0.57,1.381-0.57c0.619,0,1.129,0.07,1.529,0.21c0.4,0.141,0.85,0.39,1.351,0.75
		L1032.404,102.18z"/>
	<path d="M1034.324,106.289c0,1.681,0.449,3.011,1.35,3.99c0.939,1,2.229,1.5,3.869,1.5c0.84,0,1.601-0.14,2.281-0.42
		c0.859-0.36,1.629-1.09,2.309-2.19l1.111,0.511c-0.781,1.479-1.98,2.479-3.601,3c-0.62,0.199-1.319,0.3-2.101,0.3
		c-1.859,0-3.39-0.61-4.59-1.83c-1.22-1.22-1.83-2.75-1.83-4.59c0-1.86,0.601-3.391,1.801-4.59c1.219-1.22,2.76-1.83,4.619-1.83
		c1.84,0,3.36,0.569,4.561,1.71c1.22,1.14,1.83,2.62,1.83,4.439H1034.324z M1042.783,102.359c-0.939-0.68-2.02-1.021-3.24-1.021
		c-2.56,0-4.24,1.261-5.039,3.78h10.05C1044.354,103.979,1043.764,103.06,1042.783,102.359z"/>
	<path d="M1059.194,112.739v-2.13c-1.301,1.56-2.951,2.34-4.95,2.34c-1.8,0-3.31-0.609-4.53-1.83c-1.24-1.239-1.859-2.76-1.859-4.56
		c0-1.801,0.609-3.311,1.83-4.53c1.239-1.24,2.76-1.86,4.56-1.86c1.979,0,3.63,0.78,4.95,2.34v-2.159h1.23v12.39H1059.194z
		 M1057.904,102.899c-1.021-1.021-2.24-1.53-3.66-1.53c-1.44,0-2.66,0.5-3.66,1.5c-1.021,1.021-1.53,2.25-1.53,3.69
		c0,1.42,0.51,2.64,1.53,3.66c1.021,1.02,2.239,1.529,3.66,1.529c1.44,0,2.659-0.499,3.66-1.5c1.021-1.02,1.53-2.25,1.53-3.689
		C1059.434,105.14,1058.924,103.919,1057.904,102.899z"/>
</g>
<g enable-background="new    ">
	<path d="M957.96,147.089c-1.24,1.24-2.76,1.86-4.56,1.86c-2.061,0-3.75-0.83-5.07-2.49v2.28h-1.23v-22.2h1.23v12.12
		c1.3-1.66,2.99-2.49,5.07-2.49c1.8,0,3.31,0.61,4.53,1.83c1.24,1.24,1.86,2.76,1.86,4.561
		C959.79,144.359,959.18,145.869,957.96,147.089z M957.06,138.899c-1.02-1.021-2.24-1.53-3.66-1.53c-1.44,0-2.66,0.5-3.66,1.5
		c-1.02,1.021-1.53,2.25-1.53,3.69c0,1.42,0.51,2.64,1.53,3.66c1.02,1.02,2.24,1.529,3.66,1.529c1.44,0,2.66-0.499,3.66-1.5
		c1.02-1.02,1.53-2.25,1.53-3.689C958.591,141.14,958.08,139.919,957.06,138.899z"/>
	<path d="M969.03,147.959c-0.799,0.681-1.76,1.021-2.879,1.021c-1.92,0-3.36-0.87-4.32-2.61l1.05-0.63
		c0.34,0.62,0.75,1.101,1.229,1.44c0.5,0.38,1.181,0.569,2.041,0.569c1.879,0,2.819-0.8,2.819-2.399c0-0.7-0.329-1.31-0.989-1.83
		c-0.201-0.12-0.486-0.255-0.855-0.405c-0.37-0.15-0.825-0.325-1.365-0.525c-1-0.359-1.721-0.72-2.16-1.08
		c-0.641-0.52-0.959-1.27-0.959-2.25c0-0.84,0.318-1.56,0.959-2.159c0.62-0.62,1.43-0.931,2.43-0.931c1.381,0,2.551,0.48,3.511,1.44
		l-0.899,0.78c-0.681-0.68-1.551-1.021-2.611-1.021c-1.439,0-2.159,0.63-2.159,1.89c0,0.561,0.22,1.021,0.659,1.381
		c0.361,0.28,0.931,0.55,1.711,0.81c0.68,0.24,1.24,0.465,1.68,0.675s0.77,0.396,0.99,0.556c0.859,0.659,1.29,1.55,1.29,2.67
		C970.2,146.43,969.811,147.299,969.03,147.959z"/>
	<path d="M983.61,148.739v-2.22c-1.32,1.62-3,2.43-5.039,2.43c-1.801,0-3.311-0.609-4.531-1.83c-1.24-1.239-1.859-2.76-1.859-4.56
		c0-1.801,0.609-3.311,1.83-4.53c1.24-1.24,2.76-1.86,4.561-1.86c1.979,0,3.659,0.811,5.039,2.431v-12.061h1.23v22.2H983.61z
		 M982.23,138.899c-1.021-1.021-2.24-1.53-3.659-1.53c-1.44,0-2.66,0.5-3.66,1.5c-1.021,1.021-1.53,2.25-1.53,3.69
		c0,1.42,0.51,2.64,1.53,3.66c1.02,1.02,2.239,1.529,3.66,1.529c1.439,0,2.659-0.499,3.659-1.5c1.021-1.02,1.53-2.25,1.53-3.689
		C983.76,141.14,983.25,139.919,982.23,138.899z"/>
	<path d="M997.77,148.739v-2.22c-1.32,1.62-3,2.43-5.039,2.43c-1.801,0-3.311-0.609-4.531-1.83c-1.24-1.239-1.859-2.76-1.859-4.56
		c0-1.801,0.609-3.311,1.83-4.53c1.24-1.24,2.76-1.86,4.561-1.86c1.979,0,3.659,0.811,5.039,2.431v-12.061H999v22.2H997.77z
		 M996.39,138.899c-1.021-1.021-2.24-1.53-3.659-1.53c-1.44,0-2.66,0.5-3.66,1.5c-1.021,1.021-1.53,2.25-1.53,3.69
		c0,1.42,0.51,2.64,1.53,3.66c1.02,1.02,2.239,1.529,3.66,1.529c1.439,0,2.659-0.499,3.659-1.5c1.021-1.02,1.53-2.25,1.53-3.689
		C997.92,141.14,997.41,139.919,996.39,138.899z"/>
	<path d="M1003.199,140.069c-0.22,0-0.449-0.09-0.689-0.271c-0.18-0.18-0.28-0.42-0.301-0.72c0-0.54,0.33-0.87,0.99-0.99
		c0.5,0,0.83,0.33,0.99,0.99C1004.19,139.739,1003.86,140.069,1003.199,140.069z M1003.199,148.919c-0.22,0-0.449-0.09-0.689-0.27
		c-0.18-0.18-0.28-0.42-0.301-0.72c0-0.54,0.33-0.87,0.99-0.99c0.5,0,0.83,0.33,0.99,0.99
		C1004.19,148.589,1003.86,148.919,1003.199,148.919z"/>
	<path d="M1017.959,148.739v-2.13c-1.3,1.56-2.95,2.34-4.949,2.34c-1.801,0-3.311-0.609-4.53-1.83c-1.24-1.239-1.86-2.76-1.86-4.56
		c0-1.801,0.609-3.311,1.83-4.53c1.24-1.24,2.76-1.86,4.561-1.86c1.979,0,3.629,0.78,4.949,2.34v-2.159h1.23v12.39H1017.959z
		 M1016.67,138.899c-1.021-1.021-2.24-1.53-3.66-1.53c-1.44,0-2.66,0.5-3.66,1.5c-1.021,1.021-1.53,2.25-1.53,3.69
		c0,1.42,0.51,2.64,1.53,3.66c1.02,1.02,2.239,1.529,3.66,1.529c1.439,0,2.659-0.499,3.66-1.5c1.02-1.02,1.529-2.25,1.529-3.689
		C1018.199,141.14,1017.69,139.919,1016.67,138.899z"/>
	<path d="M1028.699,138.18c-0.32-0.24-0.66-0.431-1.02-0.57c-0.36-0.14-0.74-0.21-1.141-0.21c-0.34,0-0.66,0.104-0.96,0.314
		s-0.56,0.471-0.78,0.78c-0.221,0.311-0.395,0.655-0.525,1.035c-0.129,0.38-0.194,0.73-0.194,1.05v8.16h-1.229v-12.39h1.229v1.68
		c0.26-0.46,0.601-0.88,1.021-1.26s0.879-0.57,1.379-0.57c0.62,0,1.131,0.07,1.531,0.21c0.399,0.141,0.85,0.39,1.35,0.75
		L1028.699,138.18z"/>
	<path d="M1030.619,142.289c0,1.681,0.449,3.011,1.35,3.99c0.939,1,2.23,1.5,3.87,1.5c0.84,0,1.601-0.14,2.28-0.42
		c0.859-0.36,1.629-1.09,2.31-2.19l1.11,0.511c-0.78,1.479-1.98,2.479-3.6,3c-0.621,0.199-1.32,0.3-2.101,0.3
		c-1.86,0-3.39-0.61-4.59-1.83c-1.22-1.22-1.83-2.75-1.83-4.59c0-1.86,0.601-3.391,1.8-4.59c1.22-1.22,2.76-1.83,4.62-1.83
		c1.84,0,3.36,0.569,4.56,1.71c1.221,1.14,1.83,2.62,1.83,4.439H1030.619z M1039.079,138.359c-0.94-0.68-2.021-1.021-3.24-1.021
		c-2.56,0-4.24,1.261-5.04,3.78h10.051C1040.649,139.979,1040.059,139.06,1039.079,138.359z"/>
	<path d="M1055.489,148.739v-2.13c-1.3,1.56-2.95,2.34-4.949,2.34c-1.801,0-3.311-0.609-4.53-1.83c-1.24-1.239-1.86-2.76-1.86-4.56
		c0-1.801,0.609-3.311,1.83-4.53c1.24-1.24,2.76-1.86,4.561-1.86c1.979,0,3.629,0.78,4.949,2.34v-2.159h1.23v12.39H1055.489z
		 M1054.199,138.899c-1.021-1.021-2.24-1.53-3.66-1.53c-1.44,0-2.66,0.5-3.66,1.5c-1.021,1.021-1.53,2.25-1.53,3.69
		c0,1.42,0.51,2.64,1.53,3.66c1.02,1.02,2.239,1.529,3.66,1.529c1.439,0,2.659-0.499,3.66-1.5c1.02-1.02,1.529-2.25,1.529-3.689
		C1055.729,141.14,1055.219,139.919,1054.199,138.899z"/>
</g>
<g enable-background="new    ">
	<path d="M1182.355,111.089c-1.24,1.24-2.761,1.86-4.56,1.86c-2.061,0-3.761-0.84-5.101-2.52v8.13h-1.229v-18.21h1.229v2.34
		c1.28-1.681,2.979-2.521,5.101-2.521c1.799,0,3.31,0.61,4.529,1.83c1.24,1.24,1.86,2.76,1.86,4.561
		C1184.185,108.359,1183.574,109.869,1182.355,111.089z M1181.455,102.899c-1.021-1.021-2.24-1.53-3.66-1.53
		c-1.44,0-2.66,0.5-3.66,1.5c-1.021,1.021-1.53,2.25-1.53,3.69c0,1.42,0.51,2.64,1.53,3.66c1.02,1.02,2.239,1.529,3.66,1.529
		c1.439,0,2.659-0.499,3.66-1.5c1.02-1.02,1.529-2.25,1.529-3.689C1182.985,105.14,1182.475,103.919,1181.455,102.899z"/>
	<path d="M1192.764,102.18c-0.32-0.24-0.66-0.431-1.02-0.57s-0.74-0.21-1.141-0.21c-0.34,0-0.66,0.104-0.959,0.314
		c-0.301,0.21-0.561,0.471-0.78,0.78c-0.221,0.311-0.396,0.655-0.525,1.035s-0.194,0.73-0.194,1.05v8.16h-1.23v-12.39h1.23v1.68
		c0.26-0.46,0.6-0.88,1.02-1.26s0.88-0.57,1.38-0.57c0.62,0,1.13,0.07,1.53,0.21c0.4,0.141,0.85,0.39,1.35,0.75L1192.764,102.18z"/>
	<path d="M1204.344,111.089c-1.24,1.24-2.76,1.86-4.56,1.86s-3.31-0.609-4.53-1.83c-1.24-1.239-1.859-2.76-1.859-4.56
		c0-1.78,0.619-3.29,1.859-4.53c1.221-1.26,2.73-1.89,4.53-1.89c1.78,0,3.29,0.62,4.53,1.859c1.24,1.24,1.859,2.76,1.859,4.561
		C1206.174,108.359,1205.565,109.869,1204.344,111.089z M1203.475,102.869c-1-1.02-2.23-1.53-3.69-1.53
		c-1.399,0-2.61,0.521-3.63,1.561c-1.04,1.04-1.561,2.26-1.561,3.66c0,1.42,0.51,2.64,1.53,3.66c1.021,1.02,2.239,1.529,3.66,1.529
		c1.44,0,2.659-0.499,3.66-1.5c1.021-1.02,1.53-2.25,1.53-3.689C1204.975,105.1,1204.475,103.869,1203.475,102.869z"/>
	<path d="M1220.094,111.089c-1.24,1.24-2.76,1.86-4.561,1.86c-2.06,0-3.76-0.84-5.1-2.52v8.13h-1.23v-18.21h1.23v2.34
		c1.279-1.681,2.98-2.521,5.1-2.521c1.801,0,3.311,0.61,4.53,1.83c1.24,1.24,1.86,2.76,1.86,4.561
		C1221.924,108.359,1221.314,109.869,1220.094,111.089z M1219.194,102.899c-1.02-1.021-2.24-1.53-3.66-1.53
		c-1.439,0-2.66,0.5-3.66,1.5c-1.02,1.021-1.529,2.25-1.529,3.69c0,1.42,0.51,2.64,1.529,3.66c1.021,1.02,2.24,1.529,3.66,1.529
		c1.44,0,2.66-0.499,3.66-1.5c1.021-1.02,1.53-2.25,1.53-3.689C1220.724,105.14,1220.214,103.919,1219.194,102.899z"/>
	<path d="M1230.743,111.959c-0.8,0.681-1.76,1.021-2.88,1.021c-1.92,0-3.359-0.87-4.32-2.61l1.051-0.63
		c0.34,0.62,0.75,1.101,1.229,1.44c0.5,0.38,1.181,0.569,2.04,0.569c1.88,0,2.82-0.8,2.82-2.399c0-0.7-0.33-1.31-0.99-1.83
		c-0.2-0.12-0.485-0.255-0.855-0.405c-0.369-0.15-0.824-0.325-1.365-0.525c-1-0.359-1.72-0.72-2.159-1.08
		c-0.641-0.52-0.96-1.27-0.96-2.25c0-0.84,0.319-1.56,0.96-2.159c0.62-0.62,1.43-0.931,2.43-0.931c1.38,0,2.55,0.48,3.511,1.44
		l-0.9,0.78c-0.68-0.68-1.551-1.021-2.61-1.021c-1.44,0-2.159,0.63-2.159,1.89c0,0.561,0.219,1.021,0.659,1.381
		c0.36,0.28,0.931,0.55,1.71,0.81c0.68,0.24,1.24,0.465,1.68,0.675c0.44,0.21,0.77,0.396,0.99,0.556
		c0.859,0.659,1.291,1.55,1.291,2.67C1231.914,110.43,1231.524,111.299,1230.743,111.959z"/>
	<path d="M1235.123,104.069c-0.221,0-0.45-0.09-0.689-0.271c-0.181-0.18-0.281-0.42-0.301-0.72c0-0.54,0.33-0.87,0.99-0.99
		c0.5,0,0.83,0.33,0.99,0.99C1236.114,103.739,1235.783,104.069,1235.123,104.069z M1235.123,112.919c-0.221,0-0.45-0.09-0.689-0.27
		c-0.181-0.18-0.281-0.42-0.301-0.72c0-0.54,0.33-0.87,0.99-0.99c0.5,0,0.83,0.33,0.99,0.99
		C1236.114,112.589,1235.783,112.919,1235.123,112.919z"/>
	<path d="M1241.332,101.579v11.16h-1.229v-11.16h-1.68v-1.229h1.68v-5.431h1.229v5.431h2.881v1.229H1241.332z"/>
	<path d="M1255.793,112.77v-7.471c0-2.619-1.221-3.93-3.66-3.93c-1,0-1.86,0.3-2.58,0.9c-0.74,0.6-1.109,1.399-1.109,2.399v8.07
		h-1.23v-22.2h1.23v11.46c0.738-1.22,1.969-1.83,3.689-1.83c3.26,0,4.89,1.671,4.89,5.011v7.59H1255.793z"/>
	<path d="M1259.813,98.129c-0.221,0-0.45-0.09-0.69-0.27c-0.18-0.18-0.28-0.42-0.3-0.72c0-0.54,0.33-0.87,0.99-0.99
		c0.5,0,0.83,0.33,0.99,0.99C1260.803,97.799,1260.473,98.129,1259.813,98.129z M1259.182,112.739v-12.39h1.23v12.39H1259.182z"/>
	<path d="M1270.342,112.979c-1.84,0-3.371-0.61-4.59-1.83c-1.221-1.22-1.83-2.75-1.83-4.59s0.609-3.37,1.83-4.59
		c1.219-1.22,2.75-1.83,4.59-1.83c1.58,0,2.84,0.359,3.779,1.08v1.47l-0.779-0.51l-0.84-0.45c-0.761-0.26-1.48-0.391-2.16-0.391
		c-1.541,0-2.79,0.48-3.75,1.44c-0.98,0.98-1.471,2.24-1.471,3.78c0,1.52,0.49,2.77,1.471,3.75c0.979,0.979,2.23,1.47,3.75,1.47
		c1.439,0,2.699-0.48,3.779-1.44v1.53C1273.002,112.609,1271.741,112.979,1270.342,112.979z"/>
	<path d="M1284.201,112.739l-6.479-6.45l-0.69,0.69v5.76h-1.23v-22.2h1.23v14.67l5.37-5.34h1.74l-5.61,5.58l7.29,7.29H1284.201z"/>
	<path d="M1296.621,112.739v-7.41c0-2.62-1.18-3.93-3.54-3.93c-1.16,0-2.04,0.34-2.64,1.02c-0.62,0.681-0.93,1.61-0.93,2.79v7.53
		h-1.23v-12.39h1.23v1.5c0.559-1.1,1.75-1.65,3.569-1.65c1.54,0,2.72,0.44,3.54,1.32s1.23,2.11,1.23,3.689v7.53H1296.621z"/>
	<path d="M1302.051,106.289c0,1.681,0.45,3.011,1.35,3.99c0.94,1,2.23,1.5,3.871,1.5c0.84,0,1.6-0.14,2.279-0.42
		c0.859-0.36,1.63-1.09,2.311-2.19l1.109,0.511c-0.779,1.479-1.979,2.479-3.6,3c-0.62,0.199-1.32,0.3-2.1,0.3
		c-1.86,0-3.391-0.61-4.59-1.83c-1.221-1.22-1.83-2.75-1.83-4.59c0-1.86,0.6-3.391,1.799-4.59c1.221-1.22,2.761-1.83,4.621-1.83
		c1.84,0,3.359,0.569,4.56,1.71c1.22,1.14,1.83,2.62,1.83,4.439H1302.051z M1310.512,102.359c-0.941-0.68-2.021-1.021-3.24-1.021
		c-2.561,0-4.24,1.261-5.041,3.78h10.051C1312.081,103.979,1311.49,103.06,1310.512,102.359z"/>
	<path d="M1322.601,111.959c-0.8,0.681-1.76,1.021-2.88,1.021c-1.92,0-3.359-0.87-4.32-2.61l1.051-0.63
		c0.34,0.62,0.75,1.101,1.229,1.44c0.5,0.38,1.181,0.569,2.04,0.569c1.88,0,2.82-0.8,2.82-2.399c0-0.7-0.33-1.31-0.99-1.83
		c-0.2-0.12-0.485-0.255-0.855-0.405c-0.369-0.15-0.824-0.325-1.365-0.525c-1-0.359-1.72-0.72-2.159-1.08
		c-0.641-0.52-0.96-1.27-0.96-2.25c0-0.84,0.319-1.56,0.96-2.159c0.62-0.62,1.43-0.931,2.43-0.931c1.38,0,2.55,0.48,3.511,1.44
		l-0.9,0.78c-0.68-0.68-1.551-1.021-2.61-1.021c-1.44,0-2.159,0.63-2.159,1.89c0,0.561,0.219,1.021,0.659,1.381
		c0.36,0.28,0.931,0.55,1.71,0.81c0.68,0.24,1.24,0.465,1.68,0.675c0.44,0.21,0.77,0.396,0.99,0.556
		c0.859,0.659,1.291,1.55,1.291,2.67C1323.772,110.43,1323.381,111.299,1322.601,111.959z"/>
	<path d="M1332.531,111.959c-0.8,0.681-1.76,1.021-2.88,1.021c-1.92,0-3.359-0.87-4.32-2.61l1.051-0.63
		c0.34,0.62,0.75,1.101,1.229,1.44c0.5,0.38,1.181,0.569,2.04,0.569c1.88,0,2.82-0.8,2.82-2.399c0-0.7-0.33-1.31-0.99-1.83
		c-0.2-0.12-0.485-0.255-0.855-0.405c-0.369-0.15-0.824-0.325-1.365-0.525c-1-0.359-1.72-0.72-2.159-1.08
		c-0.641-0.52-0.96-1.27-0.96-2.25c0-0.84,0.319-1.56,0.96-2.159c0.62-0.62,1.43-0.931,2.43-0.931c1.38,0,2.55,0.48,3.511,1.44
		l-0.9,0.78c-0.68-0.68-1.551-1.021-2.61-1.021c-1.44,0-2.159,0.63-2.159,1.89c0,0.561,0.219,1.021,0.659,1.381
		c0.36,0.28,0.931,0.55,1.71,0.81c0.68,0.24,1.24,0.465,1.68,0.675c0.44,0.21,0.77,0.396,0.99,0.556
		c0.859,0.659,1.291,1.55,1.291,2.67C1333.701,110.43,1333.311,111.299,1332.531,111.959z"/>
</g>
<g>
	<g>
		<path fill="none" stroke="#000000" stroke-miterlimit="10" d="M932.828,350.054c0-97.694-85.432-119.862-90.193-221.612"/>
		<g>
			<polygon points="848.342,132.499 842.725,130.292 837.237,132.804 842.428,119.489 			"/>
		</g>
	</g>
</g>
<g>
	<g>
		<path fill="none" stroke="#000000" stroke-miterlimit="10" d="M1025.231,314.624c0-97.708,45.754-139.532,48.293-242.412"/>
		<g>
			<polygon points="1078.996,76.504 1073.477,74.064 1067.889,76.343 1073.633,63.257 			"/>
		</g>
	</g>
</g>
<g>
	<g>
		<path fill="none" stroke="#000000" stroke-miterlimit="10" d="M1120.18,277.5c0-123.148,23.33-223.019,165.891-226.997"/>
		<g>
			<polygon points="1281.981,56.216 1284.221,50.612 1281.742,45.109 1295.026,50.38 			"/>
		</g>
	</g>
</g>
<g enable-background="new    ">
	<path d="M356.272,968.004l10.04-6.12v1.8l-7.12,4.32l7.12,4.319v1.8L356.272,968.004z"/>
	<path d="M382.032,978.563v-9.96c0-3.493-1.627-5.24-4.88-5.24c-1.334,0-2.48,0.4-3.44,1.2c-0.987,0.8-1.48,1.867-1.48,3.2v10.76
		h-1.64v-29.6h1.64v15.279c0.986-1.626,2.626-2.439,4.92-2.439c4.346,0,6.52,2.227,6.52,6.68v10.12H382.032z"/>
	<path d="M389.073,963.644v14.88h-1.64v-14.88h-2.24v-1.64h2.24v-7.24h1.64v7.24h3.84v1.64H389.073z"/>
	<path d="M399.073,963.644v14.88h-1.64v-14.88h-2.24v-1.64h2.24v-7.24h1.64v7.24h3.84v1.64H399.073z"/>
	<path d="M421.032,976.323c-1.654,1.654-3.68,2.48-6.08,2.48c-2.747,0-5.014-1.12-6.8-3.36v10.84h-1.64v-24.279h1.64v3.119
		c1.706-2.239,3.973-3.359,6.8-3.359c2.4,0,4.413,0.813,6.04,2.439c1.653,1.654,2.48,3.681,2.48,6.08
		C423.472,972.684,422.658,974.697,421.032,976.323z M419.832,965.403c-1.36-1.36-2.987-2.04-4.88-2.04c-1.92,0-3.547,0.667-4.88,2
		c-1.36,1.36-2.04,3-2.04,4.92c0,1.894,0.68,3.521,2.04,4.88c1.36,1.36,2.986,2.04,4.88,2.04c1.92,0,3.546-0.666,4.88-2
		c1.36-1.359,2.04-3,2.04-4.92C421.872,968.391,421.193,966.764,419.832,965.403z"/>
	<path d="M427.832,966.964c-0.293,0-0.6-0.12-0.92-0.36c-0.24-0.24-0.374-0.561-0.4-0.96c0-0.72,0.44-1.16,1.32-1.32
		c0.667,0,1.106,0.44,1.32,1.32C429.152,966.523,428.712,966.964,427.832,966.964z M427.832,978.764c-0.293,0-0.6-0.12-0.92-0.36
		c-0.24-0.24-0.374-0.56-0.4-0.96c0-0.72,0.44-1.16,1.32-1.32c0.667,0,1.106,0.44,1.32,1.32
		C429.152,978.323,428.712,978.764,427.832,978.764z"/>
	<path d="M433.552,978.523h-1.64l8.4-29.16h1.56L433.552,978.523z"/>
	<path d="M445.031,978.523h-1.64l8.4-29.16h1.56L445.031,978.523z"/>
	<path d="M464.71,977.483c-1.066,0.907-2.347,1.36-3.84,1.36c-2.56,0-4.48-1.16-5.76-3.48l1.4-0.84c0.453,0.827,1,1.467,1.64,1.92
		c0.666,0.507,1.573,0.76,2.72,0.76c2.506,0,3.76-1.066,3.76-3.199c0-0.934-0.44-1.747-1.32-2.44c-0.267-0.16-0.647-0.34-1.14-0.54
		c-0.494-0.2-1.1-0.434-1.82-0.7c-1.333-0.479-2.293-0.96-2.88-1.439c-0.854-0.693-1.28-1.693-1.28-3c0-1.12,0.426-2.08,1.28-2.88
		c0.826-0.827,1.906-1.24,3.24-1.24c1.84,0,3.4,0.64,4.68,1.92l-1.2,1.04c-0.907-0.906-2.067-1.36-3.48-1.36
		c-1.92,0-2.88,0.84-2.88,2.521c0,0.746,0.293,1.359,0.88,1.84c0.48,0.374,1.24,0.733,2.28,1.08c0.906,0.319,1.653,0.62,2.24,0.899
		c0.586,0.28,1.026,0.527,1.32,0.74c1.146,0.88,1.72,2.067,1.72,3.561C466.27,975.443,465.75,976.604,464.71,977.483z"/>
	<path d="M483.19,976.323c-1.654,1.654-3.68,2.48-6.08,2.48s-4.414-0.813-6.04-2.44c-1.654-1.653-2.48-3.68-2.48-6.08
		c0-2.373,0.826-4.386,2.48-6.04c1.626-1.68,3.64-2.52,6.04-2.52c2.373,0,4.386,0.827,6.04,2.479c1.653,1.654,2.48,3.681,2.48,6.08
		C485.63,972.684,484.817,974.697,483.19,976.323z M482.03,965.363c-1.333-1.359-2.974-2.04-4.92-2.04
		c-1.867,0-3.48,0.694-4.84,2.08c-1.387,1.387-2.08,3.014-2.08,4.88c0,1.894,0.68,3.521,2.04,4.88c1.36,1.36,2.986,2.04,4.88,2.04
		c1.92,0,3.546-0.666,4.88-2c1.36-1.359,2.04-3,2.04-4.92C484.03,968.337,483.364,966.697,482.03,965.363z"/>
	<path d="M508.55,978.523v-11.4c0-1.013-0.333-1.893-1-2.64c-0.667-0.746-1.627-1.12-2.88-1.12c-2.587,0-3.88,1.254-3.88,3.76v11.4
		h-1.64v-11.4c0-1.119-0.374-2.013-1.12-2.68c-0.773-0.72-1.694-1.08-2.76-1.08c-1.094,0-2.014,0.347-2.76,1.04
		c-0.747,0.667-1.12,1.574-1.12,2.72v11.4h-1.64v-16.52h1.64v1.64c0.8-1.253,2.093-1.88,3.88-1.88c2.133,0,3.706,0.866,4.72,2.6
		c0.96-1.733,2.52-2.6,4.68-2.6c1.653,0,2.986,0.467,4,1.399c1.013,0.96,1.52,2.28,1.52,3.96v11.4H508.55z"/>
	<path d="M515.789,969.924c0,2.239,0.6,4.014,1.8,5.319c1.253,1.334,2.973,2,5.16,2c1.12,0,2.133-0.186,3.04-0.56
		c1.146-0.48,2.173-1.453,3.08-2.92l1.48,0.68c-1.04,1.974-2.64,3.307-4.8,4c-0.827,0.267-1.76,0.4-2.8,0.4
		c-2.48,0-4.52-0.813-6.12-2.44c-1.626-1.626-2.44-3.666-2.44-6.12c0-2.479,0.8-4.52,2.4-6.12c1.626-1.626,3.68-2.439,6.16-2.439
		c2.453,0,4.48,0.76,6.08,2.28c1.626,1.52,2.44,3.493,2.44,5.92H515.789z M527.07,964.684c-1.254-0.906-2.694-1.36-4.32-1.36
		c-3.414,0-5.654,1.681-6.72,5.04h13.4C529.162,966.844,528.376,965.617,527.07,964.684z"/>
	<path d="M533.149,968.764v-1.641h8.44v1.641H533.149z"/>
	<path d="M559.789,978.523v-2.84c-1.734,2.08-3.934,3.12-6.6,3.12c-2.4,0-4.414-0.813-6.04-2.44c-1.654-1.653-2.48-3.68-2.48-6.08
		c0-2.399,0.813-4.413,2.44-6.04c1.653-1.653,3.68-2.479,6.08-2.479c2.64,0,4.84,1.04,6.6,3.12v-2.88h1.64v16.52H559.789z
		 M558.069,965.403c-1.36-1.36-2.987-2.04-4.88-2.04c-1.92,0-3.547,0.667-4.88,2c-1.36,1.36-2.04,3-2.04,4.92
		c0,1.894,0.68,3.521,2.04,4.88c1.36,1.36,2.986,2.04,4.88,2.04c1.92,0,3.546-0.666,4.88-2c1.36-1.359,2.04-3,2.04-4.92
		C560.109,968.391,559.429,966.764,558.069,965.403z"/>
	<path d="M574.109,964.443c-0.427-0.32-0.88-0.573-1.36-0.76s-0.987-0.28-1.52-0.28c-0.454,0-0.88,0.14-1.28,0.42
		c-0.4,0.28-0.747,0.627-1.04,1.04c-0.294,0.414-0.527,0.874-0.7,1.38c-0.174,0.507-0.26,0.974-0.26,1.4v10.88h-1.64v-16.52h1.64
		v2.239c0.347-0.613,0.8-1.173,1.36-1.68c0.56-0.506,1.173-0.76,1.84-0.76c0.826,0,1.506,0.094,2.04,0.279
		c0.533,0.188,1.133,0.521,1.8,1L574.109,964.443z"/>
	<path d="M585.349,978.844c-2.454,0-4.494-0.813-6.12-2.44c-1.626-1.626-2.44-3.666-2.44-6.12c0-2.453,0.813-4.493,2.44-6.12
		c1.626-1.626,3.667-2.439,6.12-2.439c2.106,0,3.786,0.479,5.04,1.439v1.96l-1.04-0.68l-1.12-0.6
		c-1.014-0.347-1.974-0.521-2.88-0.521c-2.054,0-3.72,0.641-5,1.92c-1.307,1.308-1.96,2.987-1.96,5.04c0,2.027,0.653,3.694,1.96,5
		c1.306,1.307,2.973,1.96,5,1.96c1.92,0,3.6-0.64,5.04-1.92v2.04C588.895,978.351,587.215,978.844,585.349,978.844z"/>
	<path d="M605.789,978.563v-9.96c0-3.493-1.627-5.24-4.88-5.24c-1.334,0-2.48,0.4-3.44,1.2c-0.987,0.8-1.48,1.867-1.48,3.2v10.76
		h-1.64v-29.6h1.64v15.279c0.986-1.626,2.626-2.439,4.92-2.439c4.346,0,6.52,2.227,6.52,6.68v10.12H605.789z"/>
	<path d="M611.669,978.764c-0.294,0-0.6-0.12-0.92-0.36c-0.24-0.24-0.374-0.56-0.4-0.96c0-0.72,0.44-1.16,1.32-1.32
		c0.666,0,1.106,0.44,1.32,1.32C612.989,978.323,612.549,978.764,611.669,978.764z"/>
	<path d="M624.588,978.844c-2.454,0-4.494-0.813-6.12-2.44c-1.626-1.626-2.44-3.666-2.44-6.12c0-2.453,0.813-4.493,2.44-6.12
		c1.626-1.626,3.667-2.439,6.12-2.439c2.106,0,3.786,0.479,5.04,1.439v1.96l-1.04-0.68l-1.12-0.6
		c-1.014-0.347-1.974-0.521-2.88-0.521c-2.054,0-3.72,0.641-5,1.92c-1.307,1.308-1.96,2.987-1.96,5.04c0,2.027,0.653,3.694,1.96,5
		c1.306,1.307,2.973,1.96,5,1.96c1.92,0,3.6-0.64,5.04-1.92v2.04C628.135,978.351,626.454,978.844,624.588,978.844z"/>
	<path d="M645.188,976.323c-1.654,1.654-3.68,2.48-6.08,2.48s-4.414-0.813-6.04-2.44c-1.654-1.653-2.48-3.68-2.48-6.08
		c0-2.373,0.826-4.386,2.48-6.04c1.626-1.68,3.64-2.52,6.04-2.52c2.373,0,4.386,0.827,6.04,2.479c1.653,1.654,2.48,3.681,2.48,6.08
		C647.628,972.684,646.814,974.697,645.188,976.323z M644.028,965.363c-1.333-1.359-2.974-2.04-4.92-2.04
		c-1.867,0-3.48,0.694-4.84,2.08c-1.387,1.387-2.08,3.014-2.08,4.88c0,1.894,0.68,3.521,2.04,4.88c1.36,1.36,2.986,2.04,4.88,2.04
		c1.92,0,3.546-0.666,4.88-2c1.36-1.359,2.04-3,2.04-4.92C646.028,968.337,645.361,966.697,644.028,965.363z"/>
	<path d="M670.548,978.523v-11.4c0-1.013-0.333-1.893-1-2.64c-0.667-0.746-1.627-1.12-2.88-1.12c-2.587,0-3.88,1.254-3.88,3.76v11.4
		h-1.64v-11.4c0-1.119-0.374-2.013-1.12-2.68c-0.773-0.72-1.694-1.08-2.76-1.08c-1.094,0-2.014,0.347-2.76,1.04
		c-0.747,0.667-1.12,1.574-1.12,2.72v11.4h-1.64v-16.52h1.64v1.64c0.8-1.253,2.093-1.88,3.88-1.88c2.133,0,3.706,0.866,4.72,2.6
		c0.96-1.733,2.52-2.6,4.68-2.6c1.653,0,2.986,0.467,4,1.399c1.013,0.96,1.52,2.28,1.52,3.96v11.4H670.548z"/>
	<path d="M677.387,978.523h-1.64l8.4-29.16h1.56L677.387,978.523z"/>
	<path d="M703.386,976.323c-1.654,1.654-3.68,2.48-6.08,2.48c-2.747,0-5.014-1.12-6.8-3.36v10.84h-1.64v-24.279h1.64v3.119
		c1.706-2.239,3.973-3.359,6.8-3.359c2.4,0,4.413,0.813,6.04,2.439c1.653,1.654,2.48,3.681,2.48,6.08
		C705.826,972.684,705.012,974.697,703.386,976.323z M702.186,965.403c-1.36-1.36-2.987-2.04-4.88-2.04c-1.92,0-3.547,0.667-4.88,2
		c-1.36,1.36-2.04,3-2.04,4.92c0,1.894,0.68,3.521,2.04,4.88c1.36,1.36,2.986,2.04,4.88,2.04c1.92,0,3.546-0.666,4.88-2
		c1.36-1.359,2.04-3,2.04-4.92C704.226,968.391,703.547,966.764,702.186,965.403z"/>
	<path d="M717.266,964.443c-0.427-0.32-0.88-0.573-1.36-0.76s-0.987-0.28-1.52-0.28c-0.454,0-0.88,0.14-1.28,0.42
		c-0.4,0.28-0.747,0.627-1.04,1.04c-0.294,0.414-0.527,0.874-0.7,1.38c-0.174,0.507-0.26,0.974-0.26,1.4v10.88h-1.64v-16.52h1.64
		v2.239c0.347-0.613,0.8-1.173,1.36-1.68c0.56-0.506,1.173-0.76,1.84-0.76c0.826,0,1.506,0.094,2.04,0.279
		c0.533,0.188,1.133,0.521,1.8,1L717.266,964.443z"/>
	<path d="M732.706,976.323c-1.654,1.654-3.68,2.48-6.08,2.48s-4.414-0.813-6.04-2.44c-1.654-1.653-2.48-3.68-2.48-6.08
		c0-2.373,0.826-4.386,2.48-6.04c1.626-1.68,3.64-2.52,6.04-2.52c2.373,0,4.386,0.827,6.04,2.479c1.653,1.654,2.48,3.681,2.48,6.08
		C735.146,972.684,734.333,974.697,732.706,976.323z M731.546,965.363c-1.333-1.359-2.974-2.04-4.92-2.04
		c-1.867,0-3.48,0.694-4.84,2.08c-1.387,1.387-2.08,3.014-2.08,4.88c0,1.894,0.68,3.521,2.04,4.88c1.36,1.36,2.986,2.04,4.88,2.04
		c1.92,0,3.546-0.666,4.88-2c1.36-1.359,2.04-3,2.04-4.92C733.546,968.337,732.88,966.697,731.546,965.363z"/>
	<path d="M740.385,959.043c-0.293,0-0.6-0.119-0.92-0.359c-0.24-0.24-0.374-0.561-0.4-0.96c0-0.72,0.44-1.16,1.32-1.32
		c0.667,0,1.106,0.44,1.32,1.32C741.706,958.604,741.266,959.043,740.385,959.043z M739.586,985.724v-23.72h1.64v23.72H739.586z"/>
	<path d="M746.986,969.924c0,2.239,0.6,4.014,1.8,5.319c1.253,1.334,2.973,2,5.16,2c1.12,0,2.133-0.186,3.04-0.56
		c1.146-0.48,2.173-1.453,3.08-2.92l1.48,0.68c-1.04,1.974-2.64,3.307-4.8,4c-0.827,0.267-1.76,0.4-2.8,0.4
		c-2.48,0-4.52-0.813-6.12-2.44c-1.626-1.626-2.44-3.666-2.44-6.12c0-2.479,0.8-4.52,2.4-6.12c1.626-1.626,3.68-2.439,6.16-2.439
		c2.453,0,4.48,0.76,6.08,2.28c1.626,1.52,2.44,3.493,2.44,5.92H746.986z M758.266,964.684c-1.254-0.906-2.694-1.36-4.32-1.36
		c-3.414,0-5.654,1.681-6.72,5.04h13.4C760.359,966.844,759.572,965.617,758.266,964.684z"/>
	<path d="M774.065,978.844c-2.454,0-4.494-0.813-6.12-2.44c-1.626-1.626-2.44-3.666-2.44-6.12c0-2.453,0.813-4.493,2.44-6.12
		c1.626-1.626,3.667-2.439,6.12-2.439c2.106,0,3.786,0.479,5.04,1.439v1.96l-1.04-0.68l-1.12-0.6
		c-1.014-0.347-1.974-0.521-2.88-0.521c-2.054,0-3.72,0.641-5,1.92c-1.307,1.308-1.96,2.987-1.96,5.04c0,2.027,0.653,3.694,1.96,5
		c1.306,1.307,2.973,1.96,5,1.96c1.92,0,3.6-0.64,5.04-1.92v2.04C777.612,978.351,775.931,978.844,774.065,978.844z"/>
	<path d="M786.265,963.644v14.88h-1.64v-14.88h-2.24v-1.64h2.24v-7.24h1.64v7.24h3.84v1.64H786.265z"/>
	<path d="M801.905,977.483c-1.066,0.907-2.347,1.36-3.84,1.36c-2.56,0-4.48-1.16-5.76-3.48l1.4-0.84c0.453,0.827,1,1.467,1.64,1.92
		c0.666,0.507,1.573,0.76,2.72,0.76c2.506,0,3.76-1.066,3.76-3.199c0-0.934-0.44-1.747-1.32-2.44c-0.267-0.16-0.647-0.34-1.14-0.54
		c-0.494-0.2-1.1-0.434-1.82-0.7c-1.333-0.479-2.293-0.96-2.88-1.439c-0.854-0.693-1.28-1.693-1.28-3c0-1.12,0.426-2.08,1.28-2.88
		c0.826-0.827,1.906-1.24,3.24-1.24c1.84,0,3.4,0.64,4.68,1.92l-1.2,1.04c-0.907-0.906-2.067-1.36-3.48-1.36
		c-1.92,0-2.88,0.84-2.88,2.521c0,0.746,0.293,1.359,0.88,1.84c0.48,0.374,1.24,0.733,2.28,1.08c0.906,0.319,1.653,0.62,2.24,0.899
		c0.586,0.28,1.026,0.527,1.32,0.74c1.146,0.88,1.72,2.067,1.72,3.561C803.465,975.443,802.945,976.604,801.905,977.483z"/>
	<path d="M806.945,978.523h-1.64l8.4-29.16h1.56L806.945,978.523z"/>
	<path d="M827.664,978.523v-26.92h-4.84l1.08-1.64h5.4v28.56H827.664z"/>
	<path d="M852.904,973.884c-1.92,3.359-4.64,5.04-8.16,5.04c-3.494,0-6.2-1.693-8.12-5.08c-1.574-2.773-2.36-6.054-2.36-9.84
		c0-3.813,0.786-7.106,2.36-9.881c1.92-3.386,4.626-5.08,8.12-5.08c3.493,0,6.2,1.694,8.12,5.08c1.573,2.827,2.36,6.12,2.36,9.881
		C855.224,967.844,854.45,971.137,852.904,973.884z M851.624,955.323c-1.574-3.093-3.867-4.64-6.88-4.64
		c-2.694,0-4.867,1.387-6.52,4.16c-1.467,2.507-2.2,5.56-2.2,9.16c0,3.279,0.626,6.146,1.88,8.6c1.6,3.094,3.88,4.64,6.84,4.64
		c2.746,0,4.933-1.373,6.56-4.12c1.466-2.426,2.2-5.466,2.2-9.119C853.504,960.67,852.877,957.777,851.624,955.323z"/>
	<path d="M875.144,973.884c-1.92,3.359-4.64,5.04-8.16,5.04c-3.494,0-6.2-1.693-8.12-5.08c-1.574-2.773-2.36-6.054-2.36-9.84
		c0-3.813,0.786-7.106,2.36-9.881c1.92-3.386,4.626-5.08,8.12-5.08c3.493,0,6.2,1.694,8.12,5.08c1.573,2.827,2.36,6.12,2.36,9.881
		C877.464,967.844,876.69,971.137,875.144,973.884z M873.864,955.323c-1.574-3.093-3.867-4.64-6.88-4.64
		c-2.694,0-4.867,1.387-6.52,4.16c-1.467,2.507-2.2,5.56-2.2,9.16c0,3.279,0.626,6.146,1.88,8.6c1.6,3.094,3.88,4.64,6.84,4.64
		c2.746,0,4.933-1.373,6.56-4.12c1.466-2.426,2.2-5.466,2.2-9.119C875.744,960.67,875.117,957.777,873.864,955.323z"/>
	<path d="M882.984,978.523v-26.92h-4.84l1.08-1.64h5.4v28.56H882.984z"/>
	<path d="M908.224,973.884c-1.92,3.359-4.64,5.04-8.16,5.04c-3.494,0-6.2-1.693-8.12-5.08c-1.574-2.773-2.36-6.054-2.36-9.84
		c0-3.813,0.786-7.106,2.36-9.881c1.92-3.386,4.626-5.08,8.12-5.08c3.493,0,6.2,1.694,8.12,5.08c1.573,2.827,2.36,6.12,2.36,9.881
		C910.545,967.844,909.771,971.137,908.224,973.884z M906.945,955.323c-1.574-3.093-3.867-4.64-6.88-4.64
		c-2.694,0-4.867,1.387-6.52,4.16c-1.467,2.507-2.2,5.56-2.2,9.16c0,3.279,0.626,6.146,1.88,8.6c1.6,3.094,3.88,4.64,6.84,4.64
		c2.746,0,4.933-1.373,6.56-4.12c1.466-2.426,2.2-5.466,2.2-9.119C908.824,960.67,908.198,957.777,906.945,955.323z"/>
	<path d="M930.465,973.884c-1.92,3.359-4.64,5.04-8.16,5.04c-3.494,0-6.2-1.693-8.12-5.08c-1.574-2.773-2.36-6.054-2.36-9.84
		c0-3.813,0.786-7.106,2.36-9.881c1.92-3.386,4.626-5.08,8.12-5.08c3.493,0,6.2,1.694,8.12,5.08c1.573,2.827,2.36,6.12,2.36,9.881
		C932.785,967.844,932.011,971.137,930.465,973.884z M929.185,955.323c-1.574-3.093-3.867-4.64-6.88-4.64
		c-2.694,0-4.867,1.387-6.52,4.16c-1.467,2.507-2.2,5.56-2.2,9.16c0,3.279,0.626,6.146,1.88,8.6c1.6,3.094,3.88,4.64,6.84,4.64
		c2.746,0,4.933-1.373,6.56-4.12c1.466-2.426,2.2-5.466,2.2-9.119C931.065,960.67,930.438,957.777,929.185,955.323z"/>
	<path d="M935.905,978.523h-1.64l8.4-29.16h1.56L935.905,978.523z"/>
	<path d="M969.623,978.924l-7.119-23.96l-7.16,23.96l-9.16-28.96h1.6l7.48,23.359l7.24-23.88l7.199,23.88l7.48-23.359h1.68
		L969.623,978.924z"/>
	<path d="M992.985,978.523v-2.84c-1.734,2.08-3.934,3.12-6.601,3.12c-2.399,0-4.413-0.813-6.04-2.44
		c-1.654-1.653-2.48-3.68-2.48-6.08c0-2.399,0.813-4.413,2.44-6.04c1.653-1.653,3.681-2.479,6.08-2.479c2.64,0,4.84,1.04,6.601,3.12
		v-2.88h1.64v16.52H992.985z M991.264,965.403c-1.359-1.36-2.986-2.04-4.88-2.04c-1.92,0-3.547,0.667-4.88,2
		c-1.359,1.36-2.04,3-2.04,4.92c0,1.894,0.681,3.521,2.04,4.88c1.359,1.36,2.986,2.04,4.88,2.04c1.92,0,3.546-0.666,4.88-2
		c1.36-1.359,2.04-3,2.04-4.92C993.304,968.391,992.624,966.764,991.264,965.403z"/>
	<path d="M999.944,978.523v-29.6h1.6v29.6H999.944z"/>
	<path d="M1005.064,978.523v-29.6h1.601v29.6H1005.064z"/>
	<path d="M1020.422,977.483c-1.066,0.907-2.346,1.36-3.84,1.36c-2.56,0-4.479-1.16-5.76-3.48l1.4-0.84
		c0.453,0.827,1,1.467,1.641,1.92c0.666,0.507,1.572,0.76,2.719,0.76c2.507,0,3.761-1.066,3.761-3.199c0-0.934-0.44-1.747-1.32-2.44
		c-0.267-0.16-0.647-0.34-1.14-0.54c-0.494-0.2-1.1-0.434-1.82-0.7c-1.334-0.479-2.293-0.96-2.88-1.439
		c-0.854-0.693-1.28-1.693-1.28-3c0-1.12,0.426-2.08,1.28-2.88c0.826-0.827,1.906-1.24,3.239-1.24c1.841,0,3.4,0.64,4.681,1.92
		l-1.2,1.04c-0.906-0.906-2.066-1.36-3.48-1.36c-1.92,0-2.879,0.84-2.879,2.521c0,0.746,0.293,1.359,0.879,1.84
		c0.48,0.374,1.24,0.733,2.281,1.08c0.906,0.319,1.652,0.62,2.239,0.899c0.587,0.28,1.026,0.527,1.32,0.74
		c1.146,0.88,1.72,2.067,1.72,3.561C1021.983,975.443,1021.463,976.604,1020.422,977.483z"/>
	<path d="M1025.463,978.523h-1.641l8.4-29.16h1.56L1025.463,978.523z"/>
	<path d="M1046.182,978.523v-26.92h-4.84l1.08-1.64h5.4v28.56H1046.182z"/>
	<path d="M1066.382,964.163c-0.24,0.294-0.601,0.728-1.08,1.301s-1.094,1.286-1.84,2.14l-8.2,9.28h13.68v1.64h-17.279l14-16.2
		c1.119-1.6,1.68-3.266,1.68-5c0-1.68-0.667-3.106-2-4.28c-1.334-1.146-2.88-1.72-4.641-1.72c-2.16,0-3.854,0.694-5.08,2.08
		c-0.746,0.827-1.266,1.854-1.56,3.08h-1.8c0.186-1.386,0.88-2.76,2.08-4.12c1.6-1.76,3.72-2.64,6.359-2.64
		c2.267,0,4.214,0.707,5.84,2.12c1.627,1.387,2.44,3.214,2.44,5.479C1068.982,959.644,1068.115,961.924,1066.382,964.163z"/>
	<path d="M1085.303,976.523c-1.547,1.467-3.508,2.2-5.881,2.2c-1.974,0-3.666-0.547-5.08-1.641c-1.359-1.093-2.267-2.626-2.72-4.6
		h1.761c0.346,1.307,1.105,2.4,2.279,3.28c1.146,0.88,2.4,1.319,3.76,1.319c1.76,0,3.267-0.6,4.52-1.8
		c1.254-1.253,1.881-2.746,1.881-4.479c0-2.16-0.773-3.854-2.32-5.08c-1.174-0.934-2.373-1.4-3.6-1.4h-1.68v-2.359h1.68
		c1.68,0,3.025-0.467,4.039-1.4c0.986-0.906,1.48-2.227,1.48-3.96c0-1.653-0.533-3-1.6-4.04c-1.066-1.066-2.439-1.6-4.12-1.6
		c-3.2,0-5.134,1.68-5.8,5.04h-1.881c0.24-2.08,1.054-3.707,2.44-4.881c1.386-1.199,3.134-1.8,5.24-1.8c2.187,0,4.013,0.667,5.479,2
		c1.467,1.307,2.201,3.067,2.201,5.28c0,3.547-1.787,5.72-5.361,6.52c3.734,1.12,5.601,3.681,5.601,7.681
		C1087.622,973.177,1086.848,975.083,1085.303,976.523z"/>
	<path d="M1092.302,974.123v-1.8l7.08-4.319l-7.08-4.32v-1.8l10.04,6.12L1092.302,974.123z"/>
</g>
</svg>
