<?xml version="1.0" encoding="utf-8"?>
<!-- Generator: Adobe Illustrator 16.0.0, SVG Export Plug-In . SVG Version: 6.00 Build 0)  -->
<!DOCTYPE svg PUBLIC "-//W3C//DTD SVG 1.1//EN" "http://www.w3.org/Graphics/SVG/1.1/DTD/svg11.dtd">
<svg version="1.1" id="Layer_1" xmlns="http://www.w3.org/2000/svg" xmlns:xlink="http://www.w3.org/1999/xlink" x="0px" y="0px"
	 width="1920px" height="1080px" viewBox="0 0 1920 1080" enable-background="new 0 0 1920 1080" xml:space="preserve">
<path fill="#FFFFFF" stroke="#000000" stroke-width="3" stroke-miterlimit="10" d="M1591.708,257.26l28.869,100.773L1484.413,257.26
	h-253.295c-6.627,0-12-5.373-12-12V56.239c0-6.627,5.373-12,12-12h429.045c6.627,0,12,5.373,12,12V245.26c0,6.627-5.373,12-12,12
	H1591.708z"/>
<path fill="#FFFFFF" stroke="#000000" stroke-width="3" stroke-miterlimit="10" d="M333.678,317.938l-28.867,100.773
	l136.164-100.773H694.27c6.627,0,12-5.373,12-12V116.917c0-6.627-5.373-12-12-12H265.225c-6.627,0-12,5.373-12,12v189.021
	c0,6.627,5.373,12,12,12H333.678z"/>
<g>
	<path d="M301.026,219.599h-1.055l2.422-14.102h-17.578l-2.441,14.102h-1.055l4.902-28.438h1.055l-2.285,13.281h17.578l2.305-13.281
		h1.035L301.026,219.599z"/>
	<path d="M315.948,219.99c-1.693,0-3.151-0.475-4.375-1.426c-1.224-0.95-2.106-2.249-2.646-3.896
		c-0.541-1.647-0.681-3.375-0.42-5.186l0.156-0.977c0.313-1.901,0.979-3.678,2.002-5.332c1.022-1.653,2.236-2.917,3.643-3.789
		c1.406-0.872,2.91-1.309,4.512-1.309c2.135,0,3.809,0.788,5.02,2.363c1.211,1.576,1.725,3.594,1.543,6.055l-0.059,0.605
		l-0.176,1.23h-15.352l-0.215,1.15c-0.183,1.092-0.189,2.196-0.02,3.314c0.286,1.858,0.999,3.344,2.139,4.455
		c1.139,1.111,2.549,1.674,4.229,1.687c2.435,0.026,4.629-0.931,6.582-2.871l0.703,0.547
		C321.287,218.864,318.865,219.99,315.948,219.99z M318.819,199.13c-2.005,0-3.799,0.752-5.381,2.256s-2.757,3.467-3.525,5.889
		h14.258l0.059-0.254c0.169-0.938,0.182-1.875,0.039-2.813c-0.234-1.536-0.843-2.767-1.826-3.691
		C321.459,199.593,320.251,199.13,318.819,199.13z"/>
	<path d="M340.577,199.228l-1.27-0.098c-1.745,0-3.366,0.644-4.863,1.932c-1.498,1.288-2.5,2.855-3.008,4.703l-2.402,13.834h-1.055
		l3.633-21.133h1.055l-0.82,4.395c0.885-1.51,1.966-2.686,3.242-3.525c1.276-0.84,2.695-1.26,4.258-1.26
		c0.495,0,0.989,0.08,1.484,0.239L340.577,199.228z"/>
	<path d="M348.487,219.99c-1.693,0-3.151-0.475-4.375-1.426c-1.224-0.95-2.106-2.249-2.646-3.896
		c-0.541-1.647-0.681-3.375-0.42-5.186l0.156-0.977c0.313-1.901,0.979-3.678,2.002-5.332c1.022-1.653,2.236-2.917,3.643-3.789
		c1.406-0.872,2.91-1.309,4.512-1.309c2.135,0,3.809,0.788,5.02,2.363c1.211,1.576,1.725,3.594,1.543,6.055l-0.059,0.605
		l-0.176,1.23h-15.352l-0.215,1.15c-0.183,1.092-0.189,2.196-0.02,3.314c0.286,1.858,0.999,3.344,2.139,4.455
		c1.139,1.111,2.549,1.674,4.229,1.687c2.435,0.026,4.629-0.931,6.582-2.871l0.703,0.547
		C353.826,218.864,351.404,219.99,348.487,219.99z M351.358,199.13c-2.005,0-3.799,0.752-5.381,2.256s-2.757,3.467-3.525,5.889
		h14.258l0.059-0.254c0.169-0.938,0.182-1.875,0.039-2.813c-0.234-1.536-0.843-2.767-1.826-3.691
		C353.998,199.593,352.791,199.13,351.358,199.13z"/>
	<path d="M371.3,219.599h-1.055l3.633-21.133h1.055L371.3,219.599z M374.503,191.826c0.039-0.26,0.179-0.501,0.42-0.723
		c0.241-0.221,0.498-0.332,0.771-0.332c0.299,0,0.543,0.117,0.732,0.352c0.188,0.234,0.257,0.495,0.205,0.781
		c-0.039,0.261-0.183,0.498-0.43,0.713c-0.248,0.215-0.508,0.322-0.781,0.322c-0.3-0.013-0.541-0.13-0.723-0.352
		C374.516,192.366,374.451,192.112,374.503,191.826z"/>
	<path d="M391.925,214.423c0.469-2.448-1.315-4.186-5.352-5.215l-2.168-0.625c-2.995-0.977-4.31-2.702-3.945-5.176
		c0.234-1.602,1.081-2.891,2.539-3.867c1.458-0.977,3.151-1.465,5.078-1.465c2.122,0,3.782,0.547,4.98,1.641
		c1.198,1.094,1.706,2.559,1.523,4.395h-1.055c0.156-1.484-0.28-2.686-1.309-3.604c-1.029-0.918-2.402-1.377-4.121-1.377
		c-1.667,0-3.119,0.384-4.355,1.152c-1.237,0.769-1.979,1.797-2.227,3.086c-0.391,2.07,0.807,3.542,3.594,4.414l2.91,0.84
		l0.977,0.332c3.034,1.107,4.362,2.937,3.984,5.488c-0.248,1.68-1.12,3.024-2.617,4.033c-1.498,1.009-3.288,1.514-5.371,1.514
		c-2.175,0-3.913-0.53-5.215-1.592c-1.302-1.061-1.862-2.451-1.68-4.17h1.035c-0.065,1.458,0.42,2.607,1.455,3.447
		s2.497,1.26,4.385,1.26c1.797-0.039,3.346-0.472,4.648-1.299C390.922,216.81,391.69,215.739,391.925,214.423z"/>
	<path d="M407.472,208.623c0.325-1.966,0.983-3.756,1.973-5.371c0.989-1.614,2.227-2.881,3.711-3.799s3.105-1.377,4.863-1.377
		c1.432,0,2.702,0.319,3.809,0.957c1.106,0.638,1.985,1.585,2.637,2.842c0.651,1.257,1.022,2.646,1.113,4.17
		c0.039,0.886-0.039,2.019-0.234,3.398c-0.326,1.966-0.986,3.763-1.982,5.391c-0.996,1.628-2.233,2.894-3.711,3.799
		c-1.478,0.905-3.089,1.357-4.834,1.357c-1.445,0-2.718-0.322-3.818-0.967c-1.101-0.645-1.979-1.588-2.637-2.832
		c-0.658-1.243-1.025-2.64-1.104-4.189C407.205,211.129,407.276,210.003,407.472,208.623z M408.39,212.802
		c0.26,1.888,0.957,3.382,2.09,4.482c1.133,1.101,2.571,1.65,4.316,1.65c2.044,0,3.89-0.716,5.537-2.148
		c1.647-1.432,2.835-3.366,3.564-5.801c0.599-2.018,0.774-3.926,0.527-5.723c-0.287-1.888-0.993-3.382-2.119-4.482
		c-1.126-1.1-2.549-1.65-4.268-1.65c-2.044,0-3.894,0.726-5.547,2.178c-1.654,1.452-2.845,3.376-3.574,5.771
		C408.318,209.072,408.142,210.979,408.39,212.802z"/>
	<path d="M442.413,219.599l0.664-3.418c-0.925,1.276-2.044,2.23-3.359,2.861c-1.315,0.631-2.761,0.947-4.336,0.947
		c-1.641,0-2.939-0.436-3.896-1.309c-0.957-0.872-1.514-2.116-1.67-3.73c-0.091-1.028-0.046-2.09,0.137-3.184l2.285-13.301h1.055
		l-2.324,13.457c-0.144,0.886-0.189,1.745-0.137,2.578c0.065,1.406,0.488,2.497,1.27,3.271c0.781,0.775,1.862,1.162,3.242,1.162
		c1.901,0,3.613-0.518,5.137-1.553s2.526-2.386,3.008-4.053l2.559-14.863h1.074l-3.633,21.133H442.413z"/>
	<path d="M462.706,199.228l-1.27-0.098c-1.745,0-3.366,0.644-4.863,1.932c-1.498,1.288-2.5,2.855-3.008,4.703l-2.402,13.834h-1.055
		l3.633-21.133h1.055l-0.82,4.395c0.885-1.51,1.966-2.686,3.242-3.525c1.276-0.84,2.695-1.26,4.258-1.26
		c0.495,0,0.989,0.08,1.484,0.239L462.706,199.228z"/>
	<path d="M474.054,219.599h-1.055l5.156-30h1.055L474.054,219.599z"/>
	<path d="M494.347,219.599c-0.039-1.146,0.084-2.435,0.371-3.867c-1.094,1.341-2.393,2.39-3.896,3.145s-3.135,1.126-4.893,1.113
		c-1.771,0-3.184-0.547-4.238-1.641s-1.452-2.461-1.191-4.102c0.325-1.992,1.429-3.548,3.311-4.668
		c1.881-1.12,4.268-1.712,7.158-1.777h5.02l0.566-3.086c0.273-1.731-0.072-3.096-1.035-4.092c-0.964-0.996-2.351-1.494-4.16-1.494
		c-1.771,0-3.373,0.472-4.805,1.416c-1.433,0.944-2.331,2.185-2.695,3.721l-1.055-0.039c0.364-1.81,1.367-3.288,3.008-4.434
		c1.641-1.146,3.489-1.719,5.547-1.719c2.148,0,3.795,0.609,4.941,1.826c1.146,1.218,1.569,2.835,1.27,4.854l-1.934,11.289
		l-0.137,1.328c-0.065,0.69-0.039,1.374,0.078,2.051l-0.02,0.176H494.347z M485.909,218.935c1.745,0.026,3.405-0.394,4.98-1.26
		c1.575-0.866,2.917-2.132,4.023-3.799l0.898-5.02h-4.727c-2.63,0.052-4.802,0.557-6.514,1.514
		c-1.712,0.957-2.725,2.269-3.037,3.936c-0.234,1.289,0.075,2.376,0.928,3.262C483.314,218.454,484.464,218.909,485.909,218.935z"/>
	<path d="M508.565,192.763l-0.977,5.703h4.629l-0.137,1.055h-4.688l-2.676,15.484l-0.078,1.075
		c-0.039,0.886,0.143,1.581,0.547,2.083c0.403,0.501,1.016,0.759,1.836,0.772c0.364,0,1.074-0.059,2.129-0.176l0.039,0.996
		c-0.599,0.156-1.309,0.234-2.129,0.234c-2.214,0-3.366-1.141-3.457-3.421c-0.026-0.665,0.02-1.342,0.137-2.033l2.578-15.014h-3.77
		l0.156-1.055h3.809l0.977-5.703H508.565z"/>
	<path d="M521.808,219.99c-1.693,0-3.151-0.475-4.375-1.426c-1.224-0.95-2.106-2.249-2.646-3.896
		c-0.541-1.647-0.681-3.375-0.42-5.186l0.156-0.977c0.313-1.901,0.979-3.678,2.002-5.332c1.022-1.653,2.236-2.917,3.643-3.789
		c1.406-0.872,2.91-1.309,4.512-1.309c2.135,0,3.809,0.788,5.02,2.363c1.211,1.576,1.725,3.594,1.543,6.055l-0.059,0.605
		l-0.176,1.23h-15.352l-0.215,1.15c-0.183,1.092-0.189,2.196-0.02,3.314c0.286,1.858,0.999,3.344,2.139,4.455
		c1.139,1.111,2.549,1.674,4.229,1.687c2.435,0.026,4.629-0.931,6.582-2.871l0.703,0.547
		C527.146,218.864,524.724,219.99,521.808,219.99z M524.679,199.13c-2.005,0-3.799,0.752-5.381,2.256s-2.757,3.467-3.525,5.889
		h14.258l0.059-0.254c0.169-0.938,0.182-1.875,0.039-2.813c-0.234-1.536-0.843-2.767-1.826-3.691
		C527.318,199.593,526.111,199.13,524.679,199.13z"/>
	<path d="M547.589,214.423c0.469-2.448-1.315-4.186-5.352-5.215l-2.168-0.625c-2.995-0.977-4.31-2.702-3.945-5.176
		c0.234-1.602,1.081-2.891,2.539-3.867c1.458-0.977,3.151-1.465,5.078-1.465c2.122,0,3.782,0.547,4.98,1.641
		c1.198,1.094,1.706,2.559,1.523,4.395h-1.055c0.156-1.484-0.28-2.686-1.309-3.604c-1.029-0.918-2.402-1.377-4.121-1.377
		c-1.667,0-3.119,0.384-4.355,1.152c-1.237,0.769-1.979,1.797-2.227,3.086c-0.391,2.07,0.807,3.542,3.594,4.414l2.91,0.84
		l0.977,0.332c3.034,1.107,4.362,2.937,3.984,5.488c-0.248,1.68-1.12,3.024-2.617,4.033c-1.498,1.009-3.288,1.514-5.371,1.514
		c-2.175,0-3.913-0.53-5.215-1.592c-1.302-1.061-1.862-2.451-1.68-4.17h1.035c-0.065,1.458,0.42,2.607,1.455,3.447
		s2.497,1.26,4.385,1.26c1.797-0.039,3.346-0.472,4.648-1.299C546.586,216.81,547.354,215.739,547.589,214.423z"/>
	<path d="M560.284,192.763l-0.977,5.703h4.629l-0.137,1.055h-4.688l-2.676,15.484l-0.078,1.075
		c-0.039,0.886,0.143,1.581,0.547,2.083c0.403,0.501,1.016,0.759,1.836,0.772c0.364,0,1.074-0.059,2.129-0.176l0.039,0.996
		c-0.599,0.156-1.309,0.234-2.129,0.234c-2.214,0-3.366-1.141-3.457-3.421c-0.026-0.665,0.02-1.342,0.137-2.033l2.578-15.014h-3.77
		l0.156-1.055h3.809l0.977-5.703H560.284z"/>
	<path d="M589.972,219.599h-1.035l2.422-14.049c0.143-0.885,0.188-1.724,0.137-2.518c-0.104-1.261-0.544-2.23-1.318-2.907
		c-0.775-0.676-1.846-1.008-3.213-0.995c-1.823,0.026-3.558,0.745-5.205,2.156c-1.647,1.412-2.744,3.067-3.291,4.966l-2.324,13.347
		h-1.055l3.633-21.133h1.074l-0.938,5c1.055-1.731,2.292-3.063,3.711-3.994c1.419-0.931,2.897-1.396,4.434-1.396
		c1.745,0,3.089,0.433,4.033,1.299c0.944,0.866,1.442,2.1,1.494,3.701c0.938-1.523,2.148-2.737,3.633-3.643
		c1.484-0.905,3.066-1.357,4.746-1.357c1.627,0,2.91,0.423,3.848,1.27c0.938,0.847,1.478,2.044,1.621,3.594
		c0.078,0.99,0.026,2.025-0.156,3.105l-2.344,13.555h-1.035l2.344-13.659c0.156-0.897,0.215-1.763,0.176-2.595
		c-0.065-1.379-0.479-2.429-1.24-3.151s-1.846-1.076-3.252-1.063c-1.224,0.039-2.438,0.345-3.643,0.917
		c-1.205,0.573-2.24,1.35-3.105,2.332c-0.866,0.982-1.436,2.039-1.709,3.171L589.972,219.599z"/>
	<path d="M610.597,208.623c0.325-1.966,0.983-3.756,1.973-5.371c0.989-1.614,2.227-2.881,3.711-3.799s3.105-1.377,4.863-1.377
		c1.432,0,2.702,0.319,3.809,0.957c1.106,0.638,1.985,1.585,2.637,2.842c0.651,1.257,1.022,2.646,1.113,4.17
		c0.039,0.886-0.039,2.019-0.234,3.398c-0.326,1.966-0.986,3.763-1.982,5.391c-0.996,1.628-2.233,2.894-3.711,3.799
		c-1.478,0.905-3.089,1.357-4.834,1.357c-1.445,0-2.718-0.322-3.818-0.967c-1.101-0.645-1.979-1.588-2.637-2.832
		c-0.658-1.243-1.025-2.64-1.104-4.189C610.33,211.129,610.401,210.003,610.597,208.623z M611.515,212.802
		c0.26,1.888,0.957,3.382,2.09,4.482c1.133,1.101,2.571,1.65,4.316,1.65c2.044,0,3.89-0.716,5.537-2.148
		c1.647-1.432,2.835-3.366,3.564-5.801c0.599-2.018,0.774-3.926,0.527-5.723c-0.287-1.888-0.993-3.382-2.119-4.482
		c-1.126-1.1-2.549-1.65-4.268-1.65c-2.044,0-3.894,0.726-5.547,2.178c-1.654,1.452-2.845,3.376-3.574,5.771
		C611.443,209.072,611.267,210.979,611.515,212.802z"/>
	<path d="M632.745,208.818c0.364-2.122,1.006-4.023,1.924-5.703s2.028-2.939,3.33-3.779c1.302-0.84,2.721-1.26,4.258-1.26
		c1.484,0,2.776,0.371,3.877,1.113c1.1,0.742,1.897,1.797,2.393,3.164l2.227-12.754h1.055l-5.176,30h-1.055l0.664-3.379
		c-0.938,1.185-2.058,2.109-3.359,2.773c-1.302,0.664-2.722,0.996-4.258,0.996c-1.38,0-2.539-0.342-3.477-1.025
		s-1.631-1.686-2.08-3.008c-0.449-1.321-0.648-2.776-0.596-4.365C632.498,210.849,632.589,209.925,632.745,208.818z
		 M633.546,211.298c-0.104,1.433,0.006,2.748,0.332,3.945c0.325,1.198,0.889,2.113,1.689,2.744c0.801,0.632,1.807,0.947,3.018,0.947
		c1.692,0.013,3.213-0.391,4.561-1.211s2.451-1.94,3.311-3.359l1.758-9.902c-0.273-1.692-0.928-3.004-1.963-3.936
		c-1.035-0.931-2.367-1.396-3.994-1.396c-1.654,0-3.125,0.55-4.414,1.65c-1.289,1.101-2.298,2.627-3.027,4.58
		C634.086,207.314,633.663,209.293,633.546,211.298z"/>
	<path d="M660.948,219.99c-1.693,0-3.151-0.475-4.375-1.426c-1.224-0.95-2.106-2.249-2.646-3.896
		c-0.541-1.647-0.681-3.375-0.42-5.186l0.156-0.977c0.313-1.901,0.979-3.678,2.002-5.332c1.022-1.653,2.236-2.917,3.643-3.789
		c1.406-0.872,2.91-1.309,4.512-1.309c2.135,0,3.809,0.788,5.02,2.363c1.211,1.576,1.725,3.594,1.543,6.055l-0.059,0.605
		l-0.176,1.23h-15.352l-0.215,1.15c-0.183,1.092-0.189,2.196-0.02,3.314c0.286,1.858,0.999,3.344,2.139,4.455
		c1.139,1.111,2.549,1.674,4.229,1.687c2.435,0.026,4.629-0.931,6.582-2.871l0.703,0.547
		C666.287,218.864,663.865,219.99,660.948,219.99z M663.819,199.13c-2.005,0-3.799,0.752-5.381,2.256s-2.757,3.467-3.525,5.889
		h14.258l0.059-0.254c0.169-0.938,0.182-1.875,0.039-2.813c-0.234-1.536-0.843-2.767-1.826-3.691
		C666.459,199.593,665.251,199.13,663.819,199.13z"/>
	<path d="M674.288,219.599h-1.055l5.156-30h1.055L674.288,219.599z"/>
</g>
<g>
	<path d="M1417.29,103.34c-0.951,1.081-2.305,1.924-4.063,2.529s-3.725,0.908-5.898,0.908c-2.578,0-4.656-0.859-6.23-2.578
		c-1.576-1.719-2.422-4.017-2.539-6.895c-0.039-1.028,0.025-2.038,0.195-3.027l0.781-4.531c0.402-2.331,1.203-4.434,2.402-6.309
		c1.197-1.875,2.656-3.323,4.375-4.346c1.719-1.022,3.574-1.533,5.566-1.533c2.578,0,4.639,0.729,6.182,2.188
		c1.543,1.458,2.287,3.425,2.236,5.898h-1.035c0-2.239-0.664-3.971-1.992-5.195c-1.328-1.224-3.125-1.836-5.391-1.836
		c-2.787,0-5.223,1.055-7.305,3.164c-2.084,2.109-3.418,4.828-4.004,8.154c-0.586,3.327-0.896,5.225-0.928,5.693
		c-0.033,0.469-0.043,0.931-0.029,1.387c0.039,2.644,0.742,4.756,2.109,6.338s3.229,2.373,5.586,2.373
		c1.848,0,3.551-0.245,5.107-0.733c1.555-0.489,2.834-1.203,3.838-2.143l1.465-8.296h-8.398l0.137-1.055h9.512L1417.29,103.34z"/>
	<path d="M1436.176,86.016l-1.27-0.098c-1.746,0-3.367,0.644-4.863,1.932c-1.498,1.288-2.5,2.855-3.008,4.703l-2.402,13.834h-1.055
		l3.633-21.133h1.055l-0.82,4.395c0.885-1.51,1.965-2.686,3.242-3.525c1.275-0.84,2.695-1.26,4.258-1.26
		c0.494,0,0.988,0.08,1.484,0.239L1436.176,86.016z"/>
	<path d="M1444.086,106.778c-1.693,0-3.152-0.475-4.375-1.426c-1.225-0.95-2.107-2.249-2.646-3.896
		c-0.541-1.647-0.682-3.375-0.42-5.186l0.156-0.977c0.313-1.901,0.979-3.678,2.002-5.332c1.021-1.653,2.236-2.917,3.643-3.789
		c1.406-0.872,2.91-1.309,4.512-1.309c2.135,0,3.809,0.788,5.02,2.363c1.211,1.576,1.725,3.594,1.543,6.055l-0.059,0.605
		l-0.176,1.23h-15.352l-0.215,1.15c-0.184,1.092-0.189,2.196-0.02,3.314c0.285,1.858,0.998,3.344,2.139,4.455
		c1.139,1.111,2.549,1.674,4.229,1.687c2.434,0.026,4.629-0.931,6.582-2.871l0.703,0.547
		C1449.424,105.652,1447.002,106.778,1444.086,106.778z M1446.958,85.918c-2.006,0-3.799,0.752-5.381,2.256
		s-2.758,3.467-3.525,5.889h14.258l0.059-0.254c0.168-0.938,0.182-1.875,0.039-2.813c-0.234-1.536-0.844-2.767-1.826-3.691
		C1449.596,86.381,1448.389,85.918,1446.958,85.918z"/>
	<path d="M1469.536,106.387c-0.039-1.146,0.084-2.435,0.371-3.867c-1.094,1.341-2.393,2.39-3.896,3.145s-3.135,1.126-4.893,1.113
		c-1.771,0-3.184-0.547-4.238-1.641s-1.453-2.461-1.191-4.102c0.324-1.992,1.428-3.548,3.311-4.668
		c1.881-1.12,4.268-1.712,7.158-1.777h5.02l0.566-3.086c0.273-1.731-0.072-3.096-1.035-4.092c-0.965-0.996-2.352-1.494-4.16-1.494
		c-1.771,0-3.373,0.472-4.805,1.416c-1.434,0.944-2.332,2.185-2.695,3.721l-1.055-0.039c0.363-1.81,1.367-3.288,3.008-4.434
		c1.641-1.146,3.488-1.719,5.547-1.719c2.148,0,3.795,0.609,4.941,1.826c1.145,1.218,1.568,2.835,1.27,4.854l-1.934,11.289
		l-0.137,1.328c-0.066,0.69-0.039,1.374,0.078,2.051l-0.02,0.176H1469.536z M1461.098,105.723c1.744,0.026,3.404-0.394,4.98-1.26
		c1.574-0.866,2.916-2.132,4.023-3.799l0.898-5.02h-4.727c-2.631,0.052-4.803,0.557-6.514,1.514
		c-1.713,0.957-2.725,2.269-3.037,3.936c-0.234,1.289,0.074,2.376,0.928,3.262C1458.502,105.242,1459.653,105.697,1461.098,105.723z
		"/>
	<path d="M1483.754,79.551l-0.977,5.703h4.629l-0.137,1.055h-4.688l-2.676,15.484l-0.078,1.075
		c-0.039,0.886,0.143,1.581,0.547,2.083c0.402,0.501,1.016,0.759,1.836,0.772c0.363,0,1.074-0.059,2.129-0.176l0.039,0.996
		c-0.6,0.156-1.309,0.234-2.129,0.234c-2.215,0-3.367-1.141-3.457-3.421c-0.027-0.665,0.02-1.342,0.137-2.033l2.578-15.014h-3.77
		l0.156-1.055h3.809l0.977-5.703H1483.754z"/>
	<path d="M1488.969,105.391c0.039-0.26,0.178-0.501,0.42-0.723c0.24-0.221,0.498-0.332,0.771-0.332c0.299,0,0.539,0.117,0.723,0.352
		c0.182,0.234,0.254,0.495,0.215,0.781c-0.039,0.261-0.184,0.498-0.43,0.713c-0.248,0.215-0.508,0.322-0.781,0.322
		c-0.301-0.013-0.541-0.13-0.723-0.352C1488.981,105.932,1488.917,105.678,1488.969,105.391z M1491.606,98.555h-1.055l3.535-20.605
		h1.055L1491.606,98.555z"/>
	<path d="M1260.375,145.54c-0.262-1.185-0.945-2.171-2.051-2.959c-1.107-0.788-2.82-1.53-5.137-2.227
		c-2.318-0.696-4.031-1.399-5.137-2.109c-1.107-0.709-1.885-1.546-2.334-2.51c-0.449-0.963-0.57-2.038-0.361-3.223
		c0.221-1.393,0.813-2.614,1.777-3.662c0.963-1.048,2.197-1.858,3.701-2.432c1.504-0.573,3.102-0.859,4.795-0.859
		c1.68,0,3.166,0.365,4.463,1.094c1.295,0.729,2.238,1.732,2.832,3.008c0.592,1.276,0.783,2.708,0.576,4.297h-1.055
		c0.324-2.122-0.156-3.877-1.445-5.264s-3.074-2.08-5.352-2.08c-2.123,0-4.043,0.479-5.762,1.436s-2.82,2.23-3.301,3.818
		c-0.287,0.951-0.34,1.804-0.156,2.559c0.26,1.159,0.973,2.119,2.139,2.881c1.164,0.762,2.775,1.436,4.834,2.021
		c3.176,0.898,5.391,2.012,6.641,3.34s1.711,2.949,1.387,4.863c-0.223,1.445-0.824,2.712-1.807,3.799
		c-0.984,1.087-2.25,1.934-3.799,2.539c-1.551,0.605-3.191,0.908-4.922,0.908c-2.969,0-5.273-0.768-6.914-2.305
		c-1.641-1.536-2.285-3.574-1.934-6.113h1.055c-0.326,2.24,0.227,4.027,1.66,5.361c1.432,1.335,3.469,2.002,6.113,2.002
		c2.121,0,4.043-0.472,5.762-1.416c1.719-0.944,2.863-2.204,3.438-3.779C1260.473,147.447,1260.571,146.451,1260.375,145.54z"/>
	<path d="M1265.375,143.411c0.324-1.966,0.982-3.756,1.973-5.371c0.988-1.614,2.227-2.881,3.711-3.799s3.105-1.377,4.863-1.377
		c1.432,0,2.701,0.319,3.809,0.957c1.105,0.638,1.984,1.585,2.637,2.842c0.65,1.257,1.021,2.646,1.113,4.17
		c0.039,0.886-0.039,2.019-0.234,3.398c-0.326,1.966-0.986,3.763-1.982,5.391c-0.996,1.628-2.234,2.894-3.711,3.799
		c-1.479,0.905-3.09,1.357-4.834,1.357c-1.445,0-2.719-0.322-3.818-0.967c-1.102-0.645-1.98-1.588-2.637-2.832
		c-0.658-1.243-1.025-2.64-1.104-4.189C1265.108,145.917,1265.18,144.791,1265.375,143.411z M1266.293,147.59
		c0.26,1.888,0.957,3.382,2.09,4.482c1.133,1.101,2.57,1.65,4.316,1.65c2.043,0,3.889-0.716,5.537-2.148
		c1.646-1.432,2.834-3.366,3.564-5.801c0.598-2.018,0.773-3.926,0.527-5.723c-0.287-1.888-0.994-3.382-2.119-4.482
		c-1.127-1.1-2.549-1.65-4.268-1.65c-2.045,0-3.895,0.726-5.547,2.178c-1.654,1.452-2.846,3.376-3.574,5.771
		C1266.221,143.86,1266.045,145.768,1266.293,147.59z"/>
	<path d="M1299.829,138.176c1.055-1.706,2.297-3.018,3.73-3.936c1.432-0.918,2.91-1.377,4.434-1.377c1.613,0,2.883,0.417,3.809,1.25
		c0.924,0.833,1.457,2.038,1.602,3.613c0.078,0.99,0.025,2.025-0.156,3.105l-2.344,13.555h-1.055l2.344-13.542
		c0.156-0.91,0.221-1.808,0.195-2.692c-0.066-1.379-0.473-2.433-1.221-3.161c-0.75-0.729-1.82-1.086-3.213-1.073
		c-1.785,0.026-3.5,0.719-5.146,2.078c-1.648,1.359-2.764,2.982-3.35,4.868l-2.344,13.522h-1.055l5.176-30h1.055L1299.829,138.176z"
		/>
	<path d="M1317.817,143.411c0.324-1.966,0.982-3.756,1.973-5.371c0.988-1.614,2.227-2.881,3.711-3.799s3.105-1.377,4.863-1.377
		c1.432,0,2.701,0.319,3.809,0.957c1.105,0.638,1.984,1.585,2.637,2.842c0.65,1.257,1.021,2.646,1.113,4.17
		c0.039,0.886-0.039,2.019-0.234,3.398c-0.326,1.966-0.986,3.763-1.982,5.391c-0.996,1.628-2.234,2.894-3.711,3.799
		c-1.479,0.905-3.09,1.357-4.834,1.357c-1.445,0-2.719-0.322-3.818-0.967c-1.102-0.645-1.98-1.588-2.637-2.832
		c-0.658-1.243-1.025-2.64-1.104-4.189C1317.549,145.917,1317.622,144.791,1317.817,143.411z M1318.735,147.59
		c0.26,1.888,0.957,3.382,2.09,4.482c1.133,1.101,2.57,1.65,4.316,1.65c2.043,0,3.889-0.716,5.537-2.148
		c1.646-1.432,2.834-3.366,3.564-5.801c0.598-2.018,0.773-3.926,0.527-5.723c-0.287-1.888-0.994-3.382-2.119-4.482
		c-1.127-1.1-2.549-1.65-4.268-1.65c-2.045,0-3.895,0.726-5.547,2.178c-1.654,1.452-2.846,3.376-3.574,5.771
		C1318.663,143.86,1318.487,145.768,1318.735,147.59z"/>
	<path d="M1343.774,148.372l0.293,4.375l9.375-19.492h1.055l2.012,15.02l0.566,4.492l1.973-4.57l6.738-14.922h1.25l-9.59,21.113
		h-1.055l-2.344-15.977l-0.273-3.613l-1.719,3.789l-7.676,15.801h-1.055l-2.344-21.152l1.172,0.02L1343.774,148.372z"/>
	<path d="M1379.008,143.606c0.363-2.122,1.006-4.023,1.924-5.703s2.027-2.939,3.33-3.779c1.301-0.84,2.721-1.26,4.258-1.26
		c1.484,0,2.775,0.371,3.877,1.113c1.1,0.742,1.896,1.797,2.393,3.164l2.227-12.754h1.055l-5.176,30h-1.055l0.664-3.379
		c-0.938,1.185-2.059,2.109-3.359,2.773c-1.303,0.664-2.723,0.996-4.258,0.996c-1.381,0-2.539-0.342-3.477-1.025
		s-1.631-1.686-2.08-3.008c-0.449-1.321-0.648-2.776-0.596-4.365C1378.76,145.637,1378.852,144.713,1379.008,143.606z
		 M1379.809,146.086c-0.105,1.433,0.006,2.748,0.332,3.945c0.324,1.198,0.889,2.113,1.689,2.744
		c0.801,0.632,1.807,0.947,3.018,0.947c1.691,0.013,3.213-0.391,4.561-1.211s2.451-1.94,3.311-3.359l1.758-9.902
		c-0.273-1.692-0.928-3.004-1.963-3.936c-1.035-0.931-2.367-1.396-3.994-1.396c-1.654,0-3.125,0.55-4.414,1.65
		c-1.289,1.101-2.299,2.627-3.027,4.58C1380.348,142.102,1379.926,144.082,1379.809,146.086z"/>
	<path d="M1399.829,143.411c0.324-1.966,0.982-3.756,1.973-5.371c0.988-1.614,2.227-2.881,3.711-3.799s3.105-1.377,4.863-1.377
		c1.432,0,2.701,0.319,3.809,0.957c1.105,0.638,1.984,1.585,2.637,2.842c0.65,1.257,1.021,2.646,1.113,4.17
		c0.039,0.886-0.039,2.019-0.234,3.398c-0.326,1.966-0.986,3.763-1.982,5.391c-0.996,1.628-2.234,2.894-3.711,3.799
		c-1.479,0.905-3.09,1.357-4.834,1.357c-1.445,0-2.719-0.322-3.818-0.967c-1.102-0.645-1.98-1.588-2.637-2.832
		c-0.658-1.243-1.025-2.64-1.104-4.189C1399.561,145.917,1399.633,144.791,1399.829,143.411z M1400.747,147.59
		c0.26,1.888,0.957,3.382,2.09,4.482c1.133,1.101,2.57,1.65,4.316,1.65c2.043,0,3.889-0.716,5.537-2.148
		c1.646-1.432,2.834-3.366,3.564-5.801c0.598-2.018,0.773-3.926,0.527-5.723c-0.287-1.888-0.994-3.382-2.119-4.482
		c-1.127-1.1-2.549-1.65-4.268-1.65c-2.045,0-3.895,0.726-5.547,2.178c-1.654,1.452-2.846,3.376-3.574,5.771
		C1400.674,143.86,1400.499,145.768,1400.747,147.59z"/>
	<path d="M1431.821,154.387h-1.055l3.633-21.133h1.055L1431.821,154.387z M1435.024,126.614c0.039-0.26,0.178-0.501,0.42-0.723
		c0.24-0.221,0.498-0.332,0.771-0.332c0.299,0,0.543,0.117,0.732,0.352c0.188,0.234,0.256,0.495,0.205,0.781
		c-0.039,0.261-0.184,0.498-0.43,0.713c-0.248,0.215-0.508,0.322-0.781,0.322c-0.301-0.013-0.541-0.13-0.723-0.352
		C1435.036,127.154,1434.971,126.9,1435.024,126.614z"/>
	<path d="M1461.586,154.387c-0.039-1.146,0.084-2.435,0.371-3.867c-1.094,1.341-2.393,2.39-3.896,3.145s-3.135,1.126-4.893,1.113
		c-1.771,0-3.184-0.547-4.238-1.641s-1.453-2.461-1.191-4.102c0.324-1.992,1.428-3.548,3.311-4.668
		c1.881-1.12,4.268-1.712,7.158-1.777h5.02l0.566-3.086c0.273-1.731-0.072-3.096-1.035-4.092c-0.965-0.996-2.352-1.494-4.16-1.494
		c-1.771,0-3.373,0.472-4.805,1.416c-1.434,0.944-2.332,2.185-2.695,3.721l-1.055-0.039c0.363-1.81,1.367-3.288,3.008-4.434
		c1.641-1.146,3.488-1.719,5.547-1.719c2.148,0,3.795,0.609,4.941,1.826c1.145,1.218,1.568,2.835,1.27,4.854l-1.934,11.289
		l-0.137,1.328c-0.066,0.69-0.039,1.374,0.078,2.051l-0.02,0.176H1461.586z M1453.149,153.723c1.744,0.026,3.404-0.394,4.98-1.26
		c1.574-0.866,2.916-2.132,4.023-3.799l0.898-5.02h-4.727c-2.631,0.052-4.803,0.557-6.514,1.514
		c-1.713,0.957-2.725,2.269-3.037,3.936c-0.234,1.289,0.074,2.376,0.928,3.262C1450.553,153.242,1451.704,153.697,1453.149,153.723z
		"/>
	<path d="M1469.79,143.606c0.363-2.122,1.006-4.023,1.924-5.703s2.027-2.939,3.33-3.779c1.301-0.84,2.721-1.26,4.258-1.26
		c1.484,0,2.775,0.371,3.877,1.113c1.1,0.742,1.896,1.797,2.393,3.164l2.227-12.754h1.055l-5.176,30h-1.055l0.664-3.379
		c-0.938,1.185-2.059,2.109-3.359,2.773c-1.303,0.664-2.723,0.996-4.258,0.996c-1.381,0-2.539-0.342-3.477-1.025
		s-1.631-1.686-2.08-3.008c-0.449-1.321-0.648-2.776-0.596-4.365C1469.542,145.637,1469.633,144.713,1469.79,143.606z
		 M1470.59,146.086c-0.105,1.433,0.006,2.748,0.332,3.945c0.324,1.198,0.889,2.113,1.689,2.744c0.801,0.632,1.807,0.947,3.018,0.947
		c1.691,0.013,3.213-0.391,4.561-1.211s2.451-1.94,3.311-3.359l1.758-9.902c-0.273-1.692-0.928-3.004-1.963-3.936
		c-1.035-0.931-2.367-1.396-3.994-1.396c-1.654,0-3.125,0.55-4.414,1.65c-1.289,1.101-2.299,2.627-3.027,4.58
		C1471.129,142.102,1470.708,144.082,1470.59,146.086z"/>
	<path d="M1491.215,143.606c0.363-2.122,1.006-4.023,1.924-5.703s2.027-2.939,3.33-3.779c1.301-0.84,2.721-1.26,4.258-1.26
		c1.484,0,2.775,0.371,3.877,1.113c1.1,0.742,1.896,1.797,2.393,3.164l2.227-12.754h1.055l-5.176,30h-1.055l0.664-3.379
		c-0.938,1.185-2.059,2.109-3.359,2.773c-1.303,0.664-2.723,0.996-4.258,0.996c-1.381,0-2.539-0.342-3.477-1.025
		s-1.631-1.686-2.08-3.008c-0.449-1.321-0.648-2.776-0.596-4.365C1490.967,145.637,1491.059,144.713,1491.215,143.606z
		 M1492.016,146.086c-0.105,1.433,0.006,2.748,0.332,3.945c0.324,1.198,0.889,2.113,1.689,2.744
		c0.801,0.632,1.807,0.947,3.018,0.947c1.691,0.013,3.213-0.391,4.561-1.211s2.451-1.94,3.311-3.359l1.758-9.902
		c-0.273-1.692-0.928-3.004-1.963-3.936c-1.035-0.931-2.367-1.396-3.994-1.396c-1.654,0-3.125,0.55-4.414,1.65
		c-1.289,1.101-2.299,2.627-3.027,4.58C1492.555,142.102,1492.133,144.082,1492.016,146.086z"/>
	<path d="M1528.129,127.551l-0.977,5.703h4.629l-0.137,1.055h-4.688l-2.676,15.484l-0.078,1.075
		c-0.039,0.886,0.143,1.581,0.547,2.083c0.402,0.501,1.016,0.759,1.836,0.772c0.363,0,1.074-0.059,2.129-0.176l0.039,0.996
		c-0.6,0.156-1.309,0.234-2.129,0.234c-2.215,0-3.367-1.141-3.457-3.421c-0.027-0.665,0.02-1.342,0.137-2.033l2.578-15.014h-3.77
		l0.156-1.055h3.809l0.977-5.703H1528.129z"/>
	<path d="M1537.426,138.176c1.055-1.706,2.297-3.018,3.73-3.936c1.432-0.918,2.91-1.377,4.434-1.377c1.613,0,2.883,0.417,3.809,1.25
		c0.924,0.833,1.457,2.038,1.602,3.613c0.078,0.99,0.025,2.025-0.156,3.105l-2.344,13.555h-1.055l2.344-13.542
		c0.156-0.91,0.221-1.808,0.195-2.692c-0.066-1.379-0.473-2.433-1.221-3.161c-0.75-0.729-1.82-1.086-3.213-1.073
		c-1.785,0.026-3.5,0.719-5.146,2.078c-1.648,1.359-2.764,2.982-3.35,4.868l-2.344,13.522h-1.055l5.176-30h1.055L1537.426,138.176z"
		/>
	<path d="M1562.797,154.778c-1.693,0-3.152-0.475-4.375-1.426c-1.225-0.95-2.107-2.249-2.646-3.896
		c-0.541-1.647-0.682-3.375-0.42-5.186l0.156-0.977c0.313-1.901,0.979-3.678,2.002-5.332c1.021-1.653,2.236-2.917,3.643-3.789
		c1.406-0.872,2.91-1.309,4.512-1.309c2.135,0,3.809,0.788,5.02,2.363c1.211,1.576,1.725,3.594,1.543,6.055l-0.059,0.605
		l-0.176,1.23h-15.352l-0.215,1.15c-0.184,1.092-0.189,2.196-0.02,3.314c0.285,1.858,0.998,3.344,2.139,4.455
		c1.139,1.111,2.549,1.674,4.229,1.687c2.434,0.026,4.629-0.931,6.582-2.871l0.703,0.547
		C1568.135,153.652,1565.713,154.778,1562.797,154.778z M1565.668,133.918c-2.006,0-3.799,0.752-5.381,2.256
		s-2.758,3.467-3.525,5.889h14.258l0.059-0.254c0.168-0.938,0.182-1.875,0.039-2.813c-0.234-1.536-0.844-2.767-1.826-3.691
		C1568.307,134.381,1567.1,133.918,1565.668,133.918z"/>
	<path d="M1587.426,134.016l-1.27-0.098c-1.746,0-3.367,0.644-4.863,1.932c-1.498,1.288-2.5,2.855-3.008,4.703l-2.402,13.834h-1.055
		l3.633-21.133h1.055l-0.82,4.395c0.885-1.51,1.965-2.686,3.242-3.525c1.275-0.84,2.695-1.26,4.258-1.26
		c0.494,0,0.988,0.08,1.484,0.239L1587.426,134.016z"/>
	<path d="M1602.68,154.387h-1.035l2.422-14.049c0.143-0.885,0.188-1.724,0.137-2.518c-0.105-1.261-0.545-2.23-1.318-2.907
		c-0.775-0.676-1.846-1.008-3.213-0.995c-1.824,0.026-3.559,0.745-5.205,2.156c-1.648,1.412-2.744,3.067-3.291,4.966l-2.324,13.347
		h-1.055l3.633-21.133h1.074l-0.938,5c1.055-1.731,2.291-3.063,3.711-3.994c1.418-0.931,2.896-1.396,4.434-1.396
		c1.744,0,3.088,0.433,4.033,1.299c0.943,0.866,1.441,2.1,1.494,3.701c0.938-1.523,2.148-2.737,3.633-3.643
		c1.484-0.905,3.066-1.357,4.746-1.357c1.627,0,2.91,0.423,3.848,1.27c0.938,0.847,1.477,2.044,1.621,3.594
		c0.078,0.99,0.025,2.025-0.156,3.105l-2.344,13.555h-1.035l2.344-13.659c0.156-0.897,0.215-1.763,0.176-2.595
		c-0.066-1.379-0.479-2.429-1.24-3.151s-1.846-1.076-3.252-1.063c-1.225,0.039-2.439,0.345-3.643,0.917
		c-1.205,0.573-2.24,1.35-3.105,2.332c-0.867,0.982-1.436,2.039-1.709,3.171L1602.68,154.387z"/>
	<path d="M1636.391,154.387c-0.039-1.146,0.084-2.435,0.371-3.867c-1.094,1.341-2.393,2.39-3.896,3.145s-3.135,1.126-4.893,1.113
		c-1.771,0-3.184-0.547-4.238-1.641s-1.453-2.461-1.191-4.102c0.324-1.992,1.428-3.548,3.311-4.668
		c1.881-1.12,4.268-1.712,7.158-1.777h5.02l0.566-3.086c0.273-1.731-0.072-3.096-1.035-4.092c-0.965-0.996-2.352-1.494-4.16-1.494
		c-1.771,0-3.373,0.472-4.805,1.416c-1.434,0.944-2.332,2.185-2.695,3.721l-1.055-0.039c0.363-1.81,1.367-3.288,3.008-4.434
		c1.641-1.146,3.488-1.719,5.547-1.719c2.148,0,3.795,0.609,4.941,1.826c1.145,1.218,1.568,2.835,1.27,4.854l-1.934,11.289
		l-0.137,1.328c-0.066,0.69-0.039,1.374,0.078,2.051l-0.02,0.176H1636.391z M1627.954,153.723c1.744,0.026,3.404-0.394,4.98-1.26
		c1.574-0.866,2.916-2.132,4.023-3.799l0.898-5.02h-4.727c-2.631,0.052-4.803,0.557-6.514,1.514
		c-1.713,0.957-2.725,2.269-3.037,3.936c-0.234,1.289,0.074,2.376,0.928,3.262C1625.358,153.242,1626.508,153.697,1627.954,153.723z
		"/>
	<path d="M1644.965,154.387h-1.055l5.156-30h1.055L1644.965,154.387z"/>
	<path d="M1259.936,202.778c-1.498,0-2.807-0.326-3.926-0.977c-1.121-0.651-1.941-1.549-2.461-2.695l-2.012,11.406h-1.055
		l5.039-29.258h1.055l-0.723,3.77c0.924-1.25,2.033-2.256,3.33-3.018c1.295-0.762,2.736-1.143,4.326-1.143
		c1.367,0,2.531,0.339,3.496,1.016c0.963,0.677,1.67,1.67,2.119,2.979s0.646,2.757,0.596,4.346
		c-0.039,0.833-0.117,1.634-0.234,2.402l-0.254,1.289c-0.678,3.06-1.836,5.472-3.477,7.236
		C1264.116,201.896,1262.174,202.778,1259.936,202.778z M1268.413,191.606l0.234-2.09c0.129-2.474-0.254-4.358-1.152-5.654
		c-0.898-1.295-2.221-1.943-3.965-1.943c-1.719,0-3.344,0.511-4.873,1.533c-1.531,1.022-2.557,2.289-3.076,3.799l-1.758,9.883
		c0.299,1.472,0.998,2.604,2.1,3.398c1.1,0.794,2.438,1.191,4.014,1.191c2.109,0,3.893-0.862,5.352-2.588
		c1.457-1.725,2.48-4.124,3.066-7.197L1268.413,191.606z"/>
	<path d="M1285.952,182.016l-1.27-0.098c-1.746,0-3.367,0.644-4.863,1.932c-1.498,1.288-2.5,2.855-3.008,4.703l-2.402,13.834h-1.055
		l3.633-21.133h1.055l-0.82,4.395c0.885-1.51,1.965-2.686,3.242-3.525c1.275-0.84,2.695-1.26,4.258-1.26
		c0.494,0,0.988,0.08,1.484,0.239L1285.952,182.016z"/>
	<path d="M1286.459,191.411c0.324-1.966,0.982-3.756,1.973-5.371c0.988-1.614,2.227-2.881,3.711-3.799s3.105-1.377,4.863-1.377
		c1.432,0,2.701,0.319,3.809,0.957c1.105,0.638,1.984,1.585,2.637,2.842c0.65,1.257,1.021,2.646,1.113,4.17
		c0.039,0.886-0.039,2.019-0.234,3.398c-0.326,1.966-0.986,3.763-1.982,5.391c-0.996,1.628-2.234,2.894-3.711,3.799
		c-1.479,0.905-3.09,1.357-4.834,1.357c-1.445,0-2.719-0.322-3.818-0.967c-1.102-0.645-1.98-1.588-2.637-2.832
		c-0.658-1.243-1.025-2.64-1.104-4.189C1286.192,193.917,1286.264,192.791,1286.459,191.411z M1287.377,195.59
		c0.26,1.888,0.957,3.382,2.09,4.482c1.133,1.101,2.57,1.65,4.316,1.65c2.043,0,3.889-0.716,5.537-2.148
		c1.646-1.432,2.834-3.366,3.564-5.801c0.598-2.018,0.773-3.926,0.527-5.723c-0.287-1.888-0.994-3.382-2.119-4.482
		c-1.127-1.1-2.549-1.65-4.268-1.65c-2.045,0-3.895,0.726-5.547,2.178c-1.654,1.452-2.846,3.376-3.574,5.771
		C1287.305,191.86,1287.129,193.768,1287.377,195.59z"/>
	<path d="M1315.678,202.778c-1.498,0-2.807-0.326-3.926-0.977c-1.121-0.651-1.941-1.549-2.461-2.695l-2.012,11.406h-1.055
		l5.039-29.258h1.055l-0.723,3.77c0.924-1.25,2.033-2.256,3.33-3.018c1.295-0.762,2.736-1.143,4.326-1.143
		c1.367,0,2.531,0.339,3.496,1.016c0.963,0.677,1.67,1.67,2.119,2.979s0.646,2.757,0.596,4.346
		c-0.039,0.833-0.117,1.634-0.234,2.402l-0.254,1.289c-0.678,3.06-1.836,5.472-3.477,7.236
		C1319.858,201.896,1317.917,202.778,1315.678,202.778z M1324.155,191.606l0.234-2.09c0.129-2.474-0.254-4.358-1.152-5.654
		c-0.898-1.295-2.221-1.943-3.965-1.943c-1.719,0-3.344,0.511-4.873,1.533c-1.531,1.022-2.557,2.289-3.076,3.799l-1.758,9.883
		c0.299,1.472,0.998,2.604,2.1,3.398c1.1,0.794,2.438,1.191,4.014,1.191c2.109,0,3.893-0.862,5.352-2.588
		c1.457-1.725,2.48-4.124,3.066-7.197L1324.155,191.606z"/>
	<path d="M1336.811,202.778c-1.693,0-3.152-0.475-4.375-1.426c-1.225-0.95-2.107-2.249-2.646-3.896
		c-0.541-1.647-0.682-3.375-0.42-5.186l0.156-0.977c0.313-1.901,0.979-3.678,2.002-5.332c1.021-1.653,2.236-2.917,3.643-3.789
		c1.406-0.872,2.91-1.309,4.512-1.309c2.135,0,3.809,0.788,5.02,2.363c1.211,1.576,1.725,3.594,1.543,6.055l-0.059,0.605
		l-0.176,1.23h-15.352l-0.215,1.15c-0.184,1.092-0.189,2.196-0.02,3.314c0.285,1.858,0.998,3.344,2.139,4.455
		c1.139,1.111,2.549,1.674,4.229,1.687c2.434,0.026,4.629-0.931,6.582-2.871l0.703,0.547
		C1342.149,201.652,1339.727,202.778,1336.811,202.778z M1339.682,181.918c-2.006,0-3.799,0.752-5.381,2.256
		s-2.758,3.467-3.525,5.889h14.258l0.059-0.254c0.168-0.938,0.182-1.875,0.039-2.813c-0.234-1.536-0.844-2.767-1.826-3.691
		C1342.321,182.381,1341.114,181.918,1339.682,181.918z"/>
	<path d="M1361.44,182.016l-1.27-0.098c-1.746,0-3.367,0.644-4.863,1.932c-1.498,1.288-2.5,2.855-3.008,4.703l-2.402,13.834h-1.055
		l3.633-21.133h1.055l-0.82,4.395c0.885-1.51,1.965-2.686,3.242-3.525c1.275-0.84,2.695-1.26,4.258-1.26
		c0.494,0,0.988,0.08,1.484,0.239L1361.44,182.016z"/>
	<path d="M1369.936,175.551l-0.977,5.703h4.629l-0.137,1.055h-4.688l-2.676,15.484l-0.078,1.075
		c-0.039,0.886,0.143,1.581,0.547,2.083c0.402,0.501,1.016,0.759,1.836,0.772c0.363,0,1.074-0.059,2.129-0.176l0.039,0.996
		c-0.6,0.156-1.309,0.234-2.129,0.234c-2.215,0-3.367-1.141-3.457-3.421c-0.027-0.665,0.02-1.342,0.137-2.033l2.578-15.014h-3.77
		l0.156-1.055h3.809l0.977-5.703H1369.936z"/>
	<path d="M1376.772,202.387h-1.055l3.633-21.133h1.055L1376.772,202.387z M1379.975,174.614c0.039-0.26,0.178-0.501,0.42-0.723
		c0.24-0.221,0.498-0.332,0.771-0.332c0.299,0,0.543,0.117,0.732,0.352c0.188,0.234,0.256,0.495,0.205,0.781
		c-0.039,0.261-0.184,0.498-0.43,0.713c-0.248,0.215-0.508,0.322-0.781,0.322c-0.301-0.013-0.541-0.13-0.723-0.352
		C1379.987,175.154,1379.922,174.9,1379.975,174.614z"/>
	<path d="M1391.362,202.778c-1.693,0-3.152-0.475-4.375-1.426c-1.225-0.95-2.107-2.249-2.646-3.896
		c-0.541-1.647-0.682-3.375-0.42-5.186l0.156-0.977c0.313-1.901,0.979-3.678,2.002-5.332c1.021-1.653,2.236-2.917,3.643-3.789
		c1.406-0.872,2.91-1.309,4.512-1.309c2.135,0,3.809,0.788,5.02,2.363c1.211,1.576,1.725,3.594,1.543,6.055l-0.059,0.605
		l-0.176,1.23h-15.352l-0.215,1.15c-0.184,1.092-0.189,2.196-0.02,3.314c0.285,1.858,0.998,3.344,2.139,4.455
		c1.139,1.111,2.549,1.674,4.229,1.687c2.434,0.026,4.629-0.931,6.582-2.871l0.703,0.547
		C1396.7,201.652,1394.278,202.778,1391.362,202.778z M1394.233,181.918c-2.006,0-3.799,0.752-5.381,2.256s-2.758,3.467-3.525,5.889
		h14.258l0.059-0.254c0.168-0.938,0.182-1.875,0.039-2.813c-0.234-1.536-0.844-2.767-1.826-3.691
		C1396.872,182.381,1395.665,181.918,1394.233,181.918z"/>
	<path d="M1417.143,197.211c0.469-2.448-1.316-4.186-5.352-5.215l-2.168-0.625c-2.996-0.977-4.311-2.702-3.945-5.176
		c0.234-1.602,1.08-2.891,2.539-3.867c1.457-0.977,3.15-1.465,5.078-1.465c2.121,0,3.781,0.547,4.98,1.641
		c1.197,1.094,1.705,2.559,1.523,4.395h-1.055c0.156-1.484-0.281-2.686-1.309-3.604c-1.029-0.918-2.402-1.377-4.121-1.377
		c-1.668,0-3.119,0.384-4.355,1.152c-1.238,0.769-1.98,1.797-2.227,3.086c-0.391,2.07,0.807,3.542,3.594,4.414l2.91,0.84
		l0.977,0.332c3.033,1.107,4.361,2.937,3.984,5.488c-0.248,1.68-1.121,3.024-2.617,4.033c-1.498,1.009-3.289,1.514-5.371,1.514
		c-2.176,0-3.914-0.53-5.215-1.592c-1.303-1.061-1.863-2.451-1.68-4.17h1.035c-0.066,1.458,0.42,2.607,1.455,3.447
		s2.496,1.26,4.385,1.26c1.797-0.039,3.346-0.472,4.648-1.299C1416.139,199.598,1416.909,198.527,1417.143,197.211z"/>
	<path d="M1439.311,175.551l-0.977,5.703h4.629l-0.137,1.055h-4.688l-2.676,15.484l-0.078,1.075
		c-0.039,0.886,0.143,1.581,0.547,2.083c0.402,0.501,1.016,0.759,1.836,0.772c0.363,0,1.074-0.059,2.129-0.176l0.039,0.996
		c-0.6,0.156-1.309,0.234-2.129,0.234c-2.215,0-3.367-1.141-3.457-3.421c-0.027-0.665,0.02-1.342,0.137-2.033l2.578-15.014h-3.77
		l0.156-1.055h3.809l0.977-5.703H1439.311z"/>
	<path d="M1444.78,191.411c0.324-1.966,0.982-3.756,1.973-5.371c0.988-1.614,2.227-2.881,3.711-3.799s3.105-1.377,4.863-1.377
		c1.432,0,2.701,0.319,3.809,0.957c1.105,0.638,1.984,1.585,2.637,2.842c0.65,1.257,1.021,2.646,1.113,4.17
		c0.039,0.886-0.039,2.019-0.234,3.398c-0.326,1.966-0.986,3.763-1.982,5.391c-0.996,1.628-2.234,2.894-3.711,3.799
		c-1.479,0.905-3.09,1.357-4.834,1.357c-1.445,0-2.719-0.322-3.818-0.967c-1.102-0.645-1.98-1.588-2.637-2.832
		c-0.658-1.243-1.025-2.64-1.104-4.189C1444.512,193.917,1444.584,192.791,1444.78,191.411z M1445.698,195.59
		c0.26,1.888,0.957,3.382,2.09,4.482c1.133,1.101,2.57,1.65,4.316,1.65c2.043,0,3.889-0.716,5.537-2.148
		c1.646-1.432,2.834-3.366,3.564-5.801c0.598-2.018,0.773-3.926,0.527-5.723c-0.287-1.888-0.994-3.382-2.119-4.482
		c-1.127-1.1-2.549-1.65-4.268-1.65c-2.045,0-3.895,0.726-5.547,2.178c-1.654,1.452-2.846,3.376-3.574,5.771
		C1445.625,191.86,1445.45,193.768,1445.698,195.59z"/>
	<path d="M1482.417,175.551l-0.977,5.703h4.629l-0.137,1.055h-4.688l-2.676,15.484l-0.078,1.075
		c-0.039,0.886,0.143,1.581,0.547,2.083c0.402,0.501,1.016,0.759,1.836,0.772c0.363,0,1.074-0.059,2.129-0.176l0.039,0.996
		c-0.6,0.156-1.309,0.234-2.129,0.234c-2.215,0-3.367-1.141-3.457-3.421c-0.027-0.665,0.02-1.342,0.137-2.033l2.578-15.014h-3.77
		l0.156-1.055h3.809l0.977-5.703H1482.417z"/>
	<path d="M1491.713,186.176c1.055-1.706,2.297-3.018,3.73-3.936c1.432-0.918,2.91-1.377,4.434-1.377c1.613,0,2.883,0.417,3.809,1.25
		c0.924,0.833,1.457,2.038,1.602,3.613c0.078,0.99,0.025,2.025-0.156,3.105l-2.344,13.555h-1.055l2.344-13.542
		c0.156-0.91,0.221-1.808,0.195-2.692c-0.066-1.379-0.473-2.433-1.221-3.161c-0.75-0.729-1.82-1.086-3.213-1.073
		c-1.785,0.026-3.5,0.719-5.146,2.078c-1.648,1.359-2.764,2.982-3.35,4.868l-2.344,13.522h-1.055l5.176-30h1.055L1491.713,186.176z"
		/>
	<path d="M1517.084,202.778c-1.693,0-3.152-0.475-4.375-1.426c-1.225-0.95-2.107-2.249-2.646-3.896
		c-0.541-1.647-0.682-3.375-0.42-5.186l0.156-0.977c0.313-1.901,0.979-3.678,2.002-5.332c1.021-1.653,2.236-2.917,3.643-3.789
		c1.406-0.872,2.91-1.309,4.512-1.309c2.135,0,3.809,0.788,5.02,2.363c1.211,1.576,1.725,3.594,1.543,6.055l-0.059,0.605
		l-0.176,1.23h-15.352l-0.215,1.15c-0.184,1.092-0.189,2.196-0.02,3.314c0.285,1.858,0.998,3.344,2.139,4.455
		c1.139,1.111,2.549,1.674,4.229,1.687c2.434,0.026,4.629-0.931,6.582-2.871l0.703,0.547
		C1522.422,201.652,1520,202.778,1517.084,202.778z M1519.956,181.918c-2.006,0-3.799,0.752-5.381,2.256s-2.758,3.467-3.525,5.889
		h14.258l0.059-0.254c0.168-0.938,0.182-1.875,0.039-2.813c-0.234-1.536-0.844-2.767-1.826-3.691
		C1522.594,182.381,1521.387,181.918,1519.956,181.918z"/>
	<path d="M1543.334,196.372l0.293,4.375l9.375-19.492h1.055l2.012,15.02l0.566,4.492l1.973-4.57l6.738-14.922h1.25l-9.59,21.113
		h-1.055l-2.344-15.977l-0.273-3.613l-1.719,3.789l-7.676,15.801h-1.055l-2.344-21.152l1.172,0.02L1543.334,196.372z"/>
	<path d="M1581.577,202.387c-0.039-1.146,0.084-2.435,0.371-3.867c-1.094,1.341-2.393,2.39-3.896,3.145s-3.135,1.126-4.893,1.113
		c-1.771,0-3.184-0.547-4.238-1.641s-1.453-2.461-1.191-4.102c0.324-1.992,1.428-3.548,3.311-4.668
		c1.881-1.12,4.268-1.712,7.158-1.777h5.02l0.566-3.086c0.273-1.731-0.072-3.096-1.035-4.092c-0.965-0.996-2.352-1.494-4.16-1.494
		c-1.771,0-3.373,0.472-4.805,1.416c-1.434,0.944-2.332,2.185-2.695,3.721l-1.055-0.039c0.363-1.81,1.367-3.288,3.008-4.434
		c1.641-1.146,3.488-1.719,5.547-1.719c2.148,0,3.795,0.609,4.941,1.826c1.145,1.218,1.568,2.835,1.27,4.854l-1.934,11.289
		l-0.137,1.328c-0.066,0.69-0.039,1.374,0.078,2.051l-0.02,0.176H1581.577z M1573.139,201.723c1.744,0.026,3.404-0.394,4.98-1.26
		c1.574-0.866,2.916-2.132,4.023-3.799l0.898-5.02h-4.727c-2.631,0.052-4.803,0.557-6.514,1.514
		c-1.713,0.957-2.725,2.269-3.037,3.936c-0.234,1.289,0.074,2.376,0.928,3.262C1570.543,201.242,1571.694,201.697,1573.139,201.723z
		"/>
	<path d="M1590.151,202.387h-1.055l5.156-30h1.055L1590.151,202.387z"/>
	<path d="M1598.334,202.387h-1.055l5.156-30h1.055L1598.334,202.387z"/>
	<path d="M1618.959,197.211c0.469-2.448-1.316-4.186-5.352-5.215l-2.168-0.625c-2.996-0.977-4.311-2.702-3.945-5.176
		c0.234-1.602,1.08-2.891,2.539-3.867c1.457-0.977,3.15-1.465,5.078-1.465c2.121,0,3.781,0.547,4.98,1.641
		c1.197,1.094,1.705,2.559,1.523,4.395h-1.055c0.156-1.484-0.281-2.686-1.309-3.604c-1.029-0.918-2.402-1.377-4.121-1.377
		c-1.668,0-3.119,0.384-4.355,1.152c-1.238,0.769-1.98,1.797-2.227,3.086c-0.391,2.07,0.807,3.542,3.594,4.414l2.91,0.84
		l0.977,0.332c3.033,1.107,4.361,2.937,3.984,5.488c-0.248,1.68-1.121,3.024-2.617,4.033c-1.498,1.009-3.289,1.514-5.371,1.514
		c-2.176,0-3.914-0.53-5.215-1.592c-1.303-1.061-1.863-2.451-1.68-4.17h1.035c-0.066,1.458,0.42,2.607,1.455,3.447
		s2.496,1.26,4.385,1.26c1.797-0.039,3.346-0.472,4.648-1.299C1617.956,199.598,1618.725,198.527,1618.959,197.211z"/>
	<path d="M1630.288,194.555c0.402-2.213,1.465-4.153,3.184-5.82l2.461-2.207c1.367-1.287,2.334-2.632,2.9-4.036
		s0.764-2.775,0.596-4.114c-0.17-1.183-0.645-2.106-1.426-2.769c-0.781-0.663-1.771-0.995-2.969-0.995
		c-1.68,0-3.152,0.532-4.414,1.596c-1.264,1.064-2.123,2.518-2.578,4.361h-1.074c0.441-2.07,1.402-3.756,2.881-5.059
		c1.477-1.302,3.199-1.953,5.166-1.953c1.914,0,3.375,0.681,4.385,2.041c1.008,1.361,1.344,3.063,1.006,5.107
		c-0.234,1.445-0.789,2.819-1.66,4.121c-0.873,1.302-2.146,2.601-3.818,3.896c-1.674,1.296-2.797,2.946-3.369,4.951l-0.215,0.898
		L1630.288,194.555z M1628.627,201.391c0.039-0.26,0.178-0.501,0.42-0.723c0.24-0.221,0.498-0.332,0.771-0.332
		c0.299,0,0.543,0.117,0.732,0.352c0.188,0.234,0.256,0.495,0.205,0.781c-0.039,0.261-0.184,0.498-0.43,0.713
		c-0.248,0.215-0.508,0.322-0.781,0.322c-0.301-0.013-0.541-0.13-0.723-0.352C1628.639,201.932,1628.575,201.678,1628.627,201.391z"
		/>
</g>
<path fill="#FFFFFF" stroke="#000000" stroke-width="3" stroke-miterlimit="10" d="M1217.268,537.093l28.869,100.773
	l-136.164-100.773H856.678c-6.627,0-12-5.373-12-12V336.072c0-6.627,5.373-12,12-12h429.045c6.627,0,12,5.373,12,12v189.021
	c0,6.627-5.373,12-12,12H1217.268z"/>
<g>
	<path d="M886.649,417.715c0.039-0.26,0.179-0.501,0.42-0.723c0.241-0.221,0.498-0.332,0.771-0.332c0.299,0,0.54,0.117,0.723,0.352
		c0.182,0.234,0.254,0.495,0.215,0.781c-0.039,0.261-0.183,0.498-0.43,0.713c-0.248,0.215-0.508,0.322-0.781,0.322
		c-0.3-0.013-0.541-0.13-0.723-0.352C886.662,418.256,886.597,418.002,886.649,417.715z"/>
	<path d="M895.165,417.715c0.039-0.26,0.179-0.501,0.42-0.723c0.241-0.221,0.498-0.332,0.771-0.332c0.299,0,0.54,0.117,0.723,0.352
		c0.182,0.234,0.254,0.495,0.215,0.781c-0.039,0.261-0.183,0.498-0.43,0.713c-0.248,0.215-0.508,0.322-0.781,0.322
		c-0.3-0.013-0.541-0.13-0.723-0.352C895.177,418.256,895.112,418.002,895.165,417.715z"/>
	<path d="M917.411,418.711c-0.039-1.146,0.084-2.435,0.371-3.867c-1.094,1.341-2.393,2.39-3.896,3.145s-3.135,1.126-4.893,1.113
		c-1.771,0-3.184-0.547-4.238-1.641s-1.452-2.461-1.191-4.102c0.325-1.992,1.429-3.548,3.311-4.668
		c1.881-1.12,4.268-1.712,7.158-1.777h5.02l0.566-3.086c0.273-1.731-0.072-3.096-1.035-4.092c-0.964-0.996-2.351-1.494-4.16-1.494
		c-1.771,0-3.373,0.472-4.805,1.416c-1.433,0.944-2.331,2.185-2.695,3.721l-1.055-0.039c0.364-1.81,1.367-3.288,3.008-4.434
		c1.641-1.146,3.489-1.719,5.547-1.719c2.148,0,3.795,0.609,4.941,1.826c1.146,1.218,1.569,2.835,1.27,4.854l-1.934,11.289
		l-0.137,1.328c-0.065,0.69-0.039,1.374,0.078,2.051l-0.02,0.176H917.411z M908.973,418.047c1.745,0.026,3.405-0.394,4.98-1.26
		c1.575-0.866,2.917-2.132,4.023-3.799l0.898-5.02h-4.727c-2.63,0.052-4.802,0.557-6.514,1.514
		c-1.712,0.957-2.725,2.269-3.037,3.936c-0.234,1.289,0.075,2.376,0.928,3.262C906.378,417.566,907.528,418.021,908.973,418.047z"/>
	<path d="M928.446,402.5c1.055-1.706,2.298-3.018,3.73-3.936c1.432-0.918,2.91-1.377,4.434-1.377c1.614,0,2.884,0.417,3.809,1.25
		c0.924,0.833,1.458,2.038,1.602,3.613c0.078,0.99,0.026,2.025-0.156,3.105l-2.344,13.555h-1.055l2.344-13.542
		c0.156-0.91,0.221-1.808,0.195-2.692c-0.065-1.379-0.472-2.433-1.221-3.161c-0.749-0.729-1.82-1.086-3.213-1.073
		c-1.784,0.026-3.5,0.719-5.146,2.078c-1.647,1.359-2.764,2.982-3.35,4.868l-2.344,13.522h-1.055l3.633-21.133h1.055L928.446,402.5z
		"/>
	<path d="M947.04,407.93c0.364-2.122,1.006-4.023,1.924-5.703s2.028-2.939,3.33-3.779c1.302-0.84,2.721-1.26,4.258-1.26
		c1.484,0,2.776,0.371,3.877,1.113c1.1,0.742,1.897,1.797,2.393,3.164l2.227-12.754h1.055l-5.176,30h-1.055l0.664-3.379
		c-0.938,1.185-2.058,2.109-3.359,2.773c-1.302,0.664-2.722,0.996-4.258,0.996c-1.38,0-2.539-0.342-3.477-1.025
		s-1.631-1.686-2.08-3.008c-0.449-1.321-0.648-2.776-0.596-4.365C946.792,409.961,946.883,409.037,947.04,407.93z M947.84,410.411
		c-0.104,1.433,0.006,2.748,0.332,3.945c0.325,1.198,0.889,2.113,1.689,2.744c0.801,0.632,1.807,0.947,3.018,0.947
		c1.692,0.013,3.213-0.391,4.561-1.211s2.451-1.94,3.311-3.359l1.758-9.902c-0.273-1.692-0.928-3.004-1.963-3.936
		c-1.035-0.931-2.367-1.396-3.994-1.396c-1.654,0-3.125,0.55-4.414,1.65c-1.289,1.101-2.298,2.627-3.027,4.58
		C948.38,406.426,947.958,408.406,947.84,410.411z"/>
	<path d="M980.77,402.5c1.055-1.706,2.298-3.018,3.73-3.936c1.432-0.918,2.91-1.377,4.434-1.377c1.614,0,2.884,0.417,3.809,1.25
		c0.924,0.833,1.458,2.038,1.602,3.613c0.078,0.99,0.025,2.025-0.156,3.105l-2.344,13.555h-1.055l2.344-13.542
		c0.156-0.91,0.221-1.808,0.195-2.692c-0.065-1.379-0.473-2.433-1.221-3.161c-0.749-0.729-1.82-1.086-3.213-1.073
		c-1.784,0.026-3.5,0.719-5.146,2.078c-1.647,1.359-2.764,2.982-3.35,4.868l-2.344,13.522H977l5.176-30h1.055L980.77,402.5z"/>
	<path d="M998.758,407.735c0.325-1.966,0.982-3.756,1.973-5.371c0.989-1.614,2.227-2.881,3.711-3.799s3.105-1.377,4.863-1.377
		c1.432,0,2.701,0.319,3.809,0.957c1.106,0.638,1.985,1.585,2.637,2.842c0.65,1.257,1.021,2.646,1.113,4.17
		c0.039,0.886-0.039,2.019-0.234,3.398c-0.326,1.966-0.986,3.763-1.982,5.391c-0.996,1.628-2.233,2.894-3.711,3.799
		c-1.479,0.905-3.09,1.357-4.834,1.357c-1.445,0-2.719-0.322-3.818-0.967c-1.101-0.645-1.979-1.588-2.637-2.832
		c-0.658-1.243-1.025-2.64-1.104-4.189C998.491,410.242,998.563,409.115,998.758,407.735z M999.676,411.915
		c0.26,1.888,0.957,3.382,2.09,4.482c1.133,1.101,2.571,1.65,4.316,1.65c2.044,0,3.89-0.716,5.537-2.148
		c1.646-1.432,2.835-3.366,3.564-5.801c0.599-2.018,0.774-3.926,0.527-5.723c-0.287-1.888-0.993-3.382-2.119-4.482
		c-1.127-1.1-2.549-1.65-4.268-1.65c-2.045,0-3.894,0.726-5.547,2.178c-1.654,1.452-2.846,3.376-3.574,5.771
		C999.604,408.184,999.428,410.092,999.676,411.915z"/>
	<path d="M1024.715,412.696l0.293,4.375l9.375-19.492h1.055l2.012,15.02l0.566,4.492l1.973-4.57l6.738-14.922h1.25l-9.59,21.113
		h-1.055l-2.344-15.977l-0.273-3.613l-1.719,3.789l-7.676,15.801h-1.055l-2.344-21.152l1.172,0.02L1024.715,412.696z"/>
	<path d="M1059.95,407.93c0.364-2.122,1.006-4.023,1.924-5.703s2.027-2.939,3.33-3.779c1.302-0.84,2.721-1.26,4.258-1.26
		c1.484,0,2.776,0.371,3.877,1.113c1.1,0.742,1.897,1.797,2.393,3.164l2.227-12.754h1.055l-5.176,30h-1.055l0.664-3.379
		c-0.938,1.185-2.058,2.109-3.359,2.773c-1.303,0.664-2.722,0.996-4.258,0.996c-1.381,0-2.539-0.342-3.477-1.025
		s-1.631-1.686-2.08-3.008c-0.449-1.321-0.648-2.776-0.596-4.365C1059.702,409.961,1059.793,409.037,1059.95,407.93z
		 M1060.75,410.411c-0.104,1.433,0.006,2.748,0.332,3.945c0.325,1.198,0.889,2.113,1.689,2.744c0.801,0.632,1.807,0.947,3.018,0.947
		c1.692,0.013,3.213-0.391,4.561-1.211s2.451-1.94,3.311-3.359l1.758-9.902c-0.273-1.692-0.928-3.004-1.963-3.936
		c-1.035-0.931-2.367-1.396-3.994-1.396c-1.654,0-3.125,0.55-4.414,1.65c-1.289,1.101-2.299,2.627-3.027,4.58
		C1061.291,406.426,1060.868,408.406,1060.75,410.411z"/>
	<path d="M1080.77,407.735c0.325-1.966,0.982-3.756,1.973-5.371c0.989-1.614,2.227-2.881,3.711-3.799s3.105-1.377,4.863-1.377
		c1.432,0,2.701,0.319,3.809,0.957c1.106,0.638,1.985,1.585,2.637,2.842c0.65,1.257,1.021,2.646,1.113,4.17
		c0.039,0.886-0.039,2.019-0.234,3.398c-0.326,1.966-0.986,3.763-1.982,5.391c-0.996,1.628-2.233,2.894-3.711,3.799
		c-1.479,0.905-3.09,1.357-4.834,1.357c-1.445,0-2.719-0.322-3.818-0.967c-1.101-0.645-1.979-1.588-2.637-2.832
		c-0.658-1.243-1.025-2.64-1.104-4.189C1080.502,410.242,1080.575,409.115,1080.77,407.735z M1081.688,411.915
		c0.26,1.888,0.957,3.382,2.09,4.482c1.133,1.101,2.571,1.65,4.316,1.65c2.044,0,3.89-0.716,5.537-2.148
		c1.646-1.432,2.835-3.366,3.564-5.801c0.599-2.018,0.774-3.926,0.527-5.723c-0.287-1.888-0.993-3.382-2.119-4.482
		c-1.127-1.1-2.549-1.65-4.268-1.65c-2.045,0-3.894,0.726-5.547,2.178c-1.654,1.452-2.846,3.376-3.574,5.771
		C1081.616,408.184,1081.44,410.092,1081.688,411.915z"/>
	<path d="M1113.797,418.711h-1.055l4.902-28.438h1.055L1113.797,418.711z"/>
	<path d="M1144.657,418.711c-0.039-1.146,0.084-2.435,0.371-3.867c-1.094,1.341-2.393,2.39-3.896,3.145s-3.135,1.126-4.893,1.113
		c-1.771,0-3.184-0.547-4.238-1.641s-1.452-2.461-1.191-4.102c0.325-1.992,1.429-3.548,3.311-4.668
		c1.881-1.12,4.268-1.712,7.158-1.777h5.02l0.566-3.086c0.273-1.731-0.072-3.096-1.035-4.092c-0.964-0.996-2.351-1.494-4.16-1.494
		c-1.771,0-3.373,0.472-4.805,1.416c-1.433,0.944-2.331,2.185-2.695,3.721l-1.055-0.039c0.364-1.81,1.367-3.288,3.008-4.434
		c1.641-1.146,3.489-1.719,5.547-1.719c2.148,0,3.795,0.609,4.941,1.826c1.146,1.218,1.568,2.835,1.27,4.854l-1.934,11.289
		l-0.137,1.328c-0.065,0.69-0.039,1.374,0.078,2.051l-0.02,0.176H1144.657z M1136.219,418.047c1.744,0.026,3.404-0.394,4.98-1.26
		c1.575-0.866,2.916-2.132,4.023-3.799l0.898-5.02h-4.727c-2.631,0.052-4.802,0.557-6.514,1.514
		c-1.713,0.957-2.725,2.269-3.037,3.936c-0.234,1.289,0.074,2.376,0.928,3.262C1133.625,417.566,1134.774,418.021,1136.219,418.047z
		"/>
	<path d="M1152.86,407.93c0.364-2.122,1.006-4.023,1.924-5.703s2.027-2.939,3.33-3.779c1.302-0.84,2.721-1.26,4.258-1.26
		c1.484,0,2.776,0.371,3.877,1.113c1.1,0.742,1.897,1.797,2.393,3.164l2.227-12.754h1.055l-5.176,30h-1.055l0.664-3.379
		c-0.938,1.185-2.058,2.109-3.359,2.773c-1.303,0.664-2.722,0.996-4.258,0.996c-1.381,0-2.539-0.342-3.477-1.025
		s-1.631-1.686-2.08-3.008c-0.449-1.321-0.648-2.776-0.596-4.365C1152.612,409.961,1152.704,409.037,1152.86,407.93z
		 M1153.661,410.411c-0.104,1.433,0.006,2.748,0.332,3.945c0.325,1.198,0.889,2.113,1.689,2.744
		c0.801,0.632,1.807,0.947,3.018,0.947c1.692,0.013,3.213-0.391,4.561-1.211s2.451-1.94,3.311-3.359l1.758-9.902
		c-0.273-1.692-0.928-3.004-1.963-3.936c-1.035-0.931-2.367-1.396-3.994-1.396c-1.654,0-3.125,0.55-4.414,1.65
		c-1.289,1.101-2.299,2.627-3.027,4.58C1154.201,406.426,1153.778,408.406,1153.661,410.411z"/>
	<path d="M1174.286,407.93c0.364-2.122,1.006-4.023,1.924-5.703s2.027-2.939,3.33-3.779c1.302-0.84,2.721-1.26,4.258-1.26
		c1.484,0,2.776,0.371,3.877,1.113c1.1,0.742,1.897,1.797,2.393,3.164l2.227-12.754h1.055l-5.176,30h-1.055l0.664-3.379
		c-0.938,1.185-2.058,2.109-3.359,2.773c-1.303,0.664-2.722,0.996-4.258,0.996c-1.381,0-2.539-0.342-3.477-1.025
		s-1.631-1.686-2.08-3.008c-0.449-1.321-0.648-2.776-0.596-4.365C1174.038,409.961,1174.129,409.037,1174.286,407.93z
		 M1175.086,410.411c-0.104,1.433,0.006,2.748,0.332,3.945c0.325,1.198,0.889,2.113,1.689,2.744
		c0.801,0.632,1.807,0.947,3.018,0.947c1.692,0.013,3.213-0.391,4.561-1.211s2.451-1.94,3.311-3.359l1.758-9.902
		c-0.273-1.692-0.928-3.004-1.963-3.936c-1.035-0.931-2.367-1.396-3.994-1.396c-1.654,0-3.125,0.55-4.414,1.65
		c-1.289,1.101-2.299,2.627-3.027,4.58C1175.626,406.426,1175.204,408.406,1175.086,410.411z"/>
	<path d="M1211.2,391.875l-0.977,5.703h4.629l-0.137,1.055h-4.688l-2.676,15.484l-0.078,1.075c-0.039,0.886,0.143,1.581,0.547,2.083
		c0.403,0.501,1.016,0.759,1.836,0.772c0.364,0,1.074-0.059,2.129-0.176l0.039,0.996c-0.6,0.156-1.309,0.234-2.129,0.234
		c-2.214,0-3.366-1.141-3.457-3.421c-0.026-0.665,0.02-1.342,0.137-2.033l2.578-15.014h-3.77l0.156-1.055h3.809l0.977-5.703H1211.2z
		"/>
	<path d="M1220.497,402.5c1.055-1.706,2.298-3.018,3.73-3.936c1.432-0.918,2.91-1.377,4.434-1.377c1.614,0,2.884,0.417,3.809,1.25
		c0.924,0.833,1.458,2.038,1.602,3.613c0.078,0.99,0.025,2.025-0.156,3.105l-2.344,13.555h-1.055l2.344-13.542
		c0.156-0.91,0.221-1.808,0.195-2.692c-0.065-1.379-0.473-2.433-1.221-3.161c-0.749-0.729-1.82-1.086-3.213-1.073
		c-1.784,0.026-3.5,0.719-5.146,2.078c-1.647,1.359-2.764,2.982-3.35,4.868l-2.344,13.522h-1.055l5.176-30h1.055L1220.497,402.5z"/>
	<path d="M1245.868,419.102c-1.693,0-3.151-0.475-4.375-1.426c-1.225-0.95-2.106-2.249-2.646-3.896
		c-0.541-1.647-0.681-3.375-0.42-5.186l0.156-0.977c0.313-1.901,0.979-3.678,2.002-5.332c1.021-1.653,2.236-2.917,3.643-3.789
		c1.406-0.872,2.91-1.309,4.512-1.309c2.135,0,3.809,0.788,5.02,2.363c1.211,1.576,1.725,3.594,1.543,6.055l-0.059,0.605
		l-0.176,1.23h-15.352l-0.215,1.15c-0.183,1.092-0.189,2.196-0.02,3.314c0.286,1.858,0.999,3.344,2.139,4.455
		c1.139,1.111,2.549,1.674,4.229,1.687c2.435,0.026,4.629-0.931,6.582-2.871l0.703,0.547
		C1251.206,417.976,1248.784,419.102,1245.868,419.102z M1248.739,398.243c-2.006,0-3.799,0.752-5.381,2.256
		s-2.758,3.467-3.525,5.889h14.258l0.059-0.254c0.169-0.938,0.182-1.875,0.039-2.813c-0.234-1.536-0.844-2.767-1.826-3.691
		C1251.378,398.705,1250.17,398.243,1248.739,398.243z"/>
	<path d="M906.61,461.536c0.469-2.448-1.315-4.186-5.352-5.215l-2.168-0.625c-2.995-0.977-4.31-2.702-3.945-5.176
		c0.234-1.602,1.081-2.891,2.539-3.867c1.458-0.977,3.151-1.465,5.078-1.465c2.122,0,3.782,0.547,4.98,1.641
		c1.198,1.094,1.706,2.559,1.523,4.395h-1.055c0.156-1.484-0.28-2.686-1.309-3.604c-1.029-0.918-2.402-1.377-4.121-1.377
		c-1.667,0-3.119,0.384-4.355,1.152c-1.237,0.769-1.979,1.797-2.227,3.086c-0.391,2.07,0.807,3.542,3.594,4.414l2.91,0.84
		l0.977,0.332c3.034,1.107,4.362,2.937,3.984,5.488c-0.248,1.68-1.12,3.024-2.617,4.033c-1.498,1.009-3.288,1.514-5.371,1.514
		c-2.175,0-3.913-0.53-5.215-1.592c-1.302-1.061-1.862-2.451-1.68-4.17h1.035c-0.065,1.458,0.42,2.607,1.455,3.447
		s2.497,1.26,4.385,1.26c1.797-0.039,3.346-0.472,4.648-1.299C905.607,463.922,906.375,462.851,906.61,461.536z"/>
	<path d="M919.305,439.875l-0.977,5.703h4.629l-0.137,1.055h-4.688l-2.676,15.484l-0.078,1.075
		c-0.039,0.886,0.143,1.581,0.547,2.083c0.403,0.501,1.016,0.759,1.836,0.772c0.364,0,1.074-0.059,2.129-0.176l0.039,0.996
		c-0.599,0.156-1.309,0.234-2.129,0.234c-2.214,0-3.366-1.141-3.457-3.421c-0.026-0.665,0.02-1.342,0.137-2.033l2.578-15.014h-3.77
		l0.156-1.055h3.809l0.977-5.703H919.305z"/>
	<path d="M937.43,446.34l-1.27-0.098c-1.745,0-3.366,0.644-4.863,1.932c-1.498,1.288-2.5,2.855-3.008,4.703l-2.402,13.834h-1.055
		l3.633-21.133h1.055l-0.82,4.395c0.885-1.51,1.966-2.686,3.242-3.525c1.276-0.84,2.695-1.26,4.258-1.26
		c0.495,0,0.989,0.08,1.484,0.239L937.43,446.34z"/>
	<path d="M951.727,466.711l0.664-3.418c-0.925,1.276-2.044,2.23-3.359,2.861c-1.315,0.631-2.761,0.947-4.336,0.947
		c-1.641,0-2.939-0.436-3.896-1.309c-0.957-0.872-1.514-2.116-1.67-3.73c-0.091-1.028-0.046-2.09,0.137-3.184l2.285-13.301h1.055
		l-2.324,13.457c-0.144,0.886-0.189,1.745-0.137,2.578c0.065,1.406,0.488,2.497,1.27,3.271c0.781,0.775,1.862,1.162,3.242,1.162
		c1.901,0,3.613-0.518,5.137-1.553s2.526-2.386,3.008-4.053l2.559-14.863h1.074l-3.633,21.133H951.727z"/>
	<path d="M966.59,466.047c1.849,0,3.453-0.527,4.814-1.582c1.36-1.055,2.269-2.435,2.725-4.141h1.055
		c-0.469,2.019-1.491,3.652-3.066,4.902c-1.576,1.25-3.412,1.875-5.508,1.875c-1.94,0-3.513-0.602-4.717-1.807
		c-1.205-1.204-1.931-2.874-2.178-5.01c-0.144-1.237-0.124-2.48,0.059-3.73l0.117-0.82c0.338-2.07,0.986-3.926,1.943-5.566
		s2.115-2.881,3.477-3.721c1.36-0.84,2.861-1.26,4.502-1.26c2.122,0,3.792,0.69,5.01,2.07c1.217,1.38,1.748,3.145,1.592,5.293
		h-1.055c0.169-1.875-0.264-3.395-1.299-4.561c-1.035-1.165-2.445-1.748-4.229-1.748c-2.461,0-4.506,1.006-6.133,3.018
		c-1.628,2.012-2.617,4.704-2.969,8.076l-0.078,1.426c0,2.292,0.514,4.079,1.543,5.361
		C963.224,465.406,964.689,466.047,966.59,466.047z"/>
	<path d="M986.258,439.875l-0.977,5.703h4.629l-0.137,1.055h-4.688l-2.676,15.484l-0.078,1.075
		c-0.039,0.886,0.143,1.581,0.547,2.083c0.403,0.501,1.016,0.759,1.836,0.772c0.364,0,1.074-0.059,2.129-0.176l0.039,0.996
		c-0.6,0.156-1.309,0.234-2.129,0.234c-2.214,0-3.366-1.141-3.457-3.421c-0.026-0.665,0.02-1.342,0.137-2.033l2.578-15.014h-3.77
		l0.156-1.055h3.809l0.977-5.703H986.258z"/>
	<path d="M1005.516,466.711l0.664-3.418c-0.925,1.276-2.045,2.23-3.359,2.861c-1.315,0.631-2.761,0.947-4.336,0.947
		c-1.641,0-2.939-0.436-3.896-1.309c-0.957-0.872-1.514-2.116-1.67-3.73c-0.092-1.028-0.046-2.09,0.137-3.184l2.285-13.301h1.055
		l-2.324,13.457c-0.144,0.886-0.189,1.745-0.137,2.578c0.064,1.406,0.488,2.497,1.27,3.271c0.781,0.775,1.861,1.162,3.242,1.162
		c1.9,0,3.613-0.518,5.137-1.553s2.525-2.386,3.008-4.053l2.559-14.863h1.074l-3.633,21.133H1005.516z"/>
	<path d="M1025.809,446.34l-1.27-0.098c-1.745,0-3.366,0.644-4.863,1.932c-1.498,1.288-2.5,2.855-3.008,4.703l-2.402,13.834h-1.055
		l3.633-21.133h1.055l-0.82,4.395c0.885-1.51,1.966-2.686,3.242-3.525c1.275-0.84,2.695-1.26,4.258-1.26
		c0.494,0,0.989,0.08,1.484,0.239L1025.809,446.34z"/>
	<path d="M1039.012,466.711c-0.039-1.146,0.084-2.435,0.371-3.867c-1.094,1.341-2.393,2.39-3.896,3.145s-3.135,1.126-4.893,1.113
		c-1.771,0-3.184-0.547-4.238-1.641s-1.452-2.461-1.191-4.102c0.325-1.992,1.429-3.548,3.311-4.668
		c1.881-1.12,4.268-1.712,7.158-1.777h5.02l0.566-3.086c0.273-1.731-0.072-3.096-1.035-4.092c-0.964-0.996-2.351-1.494-4.16-1.494
		c-1.771,0-3.373,0.472-4.805,1.416c-1.433,0.944-2.331,2.185-2.695,3.721l-1.055-0.039c0.364-1.81,1.367-3.288,3.008-4.434
		c1.641-1.146,3.489-1.719,5.547-1.719c2.148,0,3.795,0.609,4.941,1.826c1.146,1.218,1.568,2.835,1.27,4.854l-1.934,11.289
		l-0.137,1.328c-0.065,0.69-0.039,1.374,0.078,2.051l-0.02,0.176H1039.012z M1030.575,466.047c1.744,0.026,3.404-0.394,4.98-1.26
		c1.575-0.866,2.916-2.132,4.023-3.799l0.898-5.02h-4.727c-2.631,0.052-4.802,0.557-6.514,1.514
		c-1.713,0.957-2.725,2.269-3.037,3.936c-0.234,1.289,0.074,2.376,0.928,3.262C1027.98,465.566,1029.129,466.021,1030.575,466.047z"
		/>
	<path d="M1047.586,466.711h-1.055l5.156-30h1.055L1047.586,466.711z"/>
	<path d="M1071.942,467.102c-1.498,0-2.807-0.326-3.926-0.977c-1.12-0.651-1.94-1.549-2.461-2.695l-2.012,11.406h-1.055
		l5.039-29.258h1.055l-0.723,3.77c0.924-1.25,2.034-2.256,3.33-3.018c1.295-0.762,2.737-1.143,4.326-1.143
		c1.367,0,2.532,0.339,3.496,1.016c0.963,0.677,1.67,1.67,2.119,2.979s0.647,2.757,0.596,4.346
		c-0.039,0.833-0.117,1.634-0.234,2.402l-0.254,1.289c-0.678,3.06-1.836,5.472-3.477,7.236
		C1076.122,466.22,1074.181,467.102,1071.942,467.102z M1080.418,455.93l0.234-2.09c0.13-2.474-0.254-4.358-1.152-5.654
		c-0.898-1.295-2.221-1.943-3.965-1.943c-1.719,0-3.344,0.511-4.873,1.533c-1.53,1.022-2.556,2.289-3.076,3.799l-1.758,9.883
		c0.299,1.472,0.999,2.604,2.1,3.398c1.1,0.794,2.438,1.191,4.014,1.191c2.109,0,3.893-0.862,5.352-2.588
		c1.458-1.725,2.48-4.124,3.066-7.197L1080.418,455.93z"/>
	<path d="M1097.958,446.34l-1.27-0.098c-1.745,0-3.366,0.644-4.863,1.932c-1.498,1.288-2.5,2.855-3.008,4.703l-2.402,13.834h-1.055
		l3.633-21.133h1.055l-0.82,4.395c0.885-1.51,1.966-2.686,3.242-3.525c1.275-0.84,2.695-1.26,4.258-1.26
		c0.494,0,0.989,0.08,1.484,0.239L1097.958,446.34z"/>
	<path d="M1098.465,455.735c0.325-1.966,0.982-3.756,1.973-5.371c0.989-1.614,2.227-2.881,3.711-3.799s3.105-1.377,4.863-1.377
		c1.432,0,2.701,0.319,3.809,0.957c1.106,0.638,1.985,1.585,2.637,2.842c0.65,1.257,1.021,2.646,1.113,4.17
		c0.039,0.886-0.039,2.019-0.234,3.398c-0.326,1.966-0.986,3.763-1.982,5.391c-0.996,1.628-2.233,2.894-3.711,3.799
		c-1.479,0.905-3.09,1.357-4.834,1.357c-1.445,0-2.719-0.322-3.818-0.967c-1.101-0.645-1.979-1.588-2.637-2.832
		c-0.658-1.243-1.025-2.64-1.104-4.189C1098.198,458.242,1098.27,457.115,1098.465,455.735z M1099.383,459.915
		c0.26,1.888,0.957,3.382,2.09,4.482c1.133,1.101,2.571,1.65,4.316,1.65c2.044,0,3.89-0.716,5.537-2.148
		c1.646-1.432,2.835-3.366,3.564-5.801c0.599-2.018,0.774-3.926,0.527-5.723c-0.287-1.888-0.993-3.382-2.119-4.482
		c-1.127-1.1-2.549-1.65-4.268-1.65c-2.045,0-3.894,0.726-5.547,2.178c-1.654,1.452-2.846,3.376-3.574,5.771
		C1099.311,456.184,1099.135,458.092,1099.383,459.915z"/>
	<path d="M1127.684,467.102c-1.498,0-2.807-0.326-3.926-0.977c-1.12-0.651-1.94-1.549-2.461-2.695l-2.012,11.406h-1.055
		l5.039-29.258h1.055l-0.723,3.77c0.924-1.25,2.034-2.256,3.33-3.018c1.295-0.762,2.737-1.143,4.326-1.143
		c1.367,0,2.532,0.339,3.496,1.016c0.963,0.677,1.67,1.67,2.119,2.979s0.647,2.757,0.596,4.346
		c-0.039,0.833-0.117,1.634-0.234,2.402l-0.254,1.289c-0.678,3.06-1.836,5.472-3.477,7.236
		C1131.864,466.22,1129.923,467.102,1127.684,467.102z M1136.161,455.93l0.234-2.09c0.13-2.474-0.254-4.358-1.152-5.654
		c-0.898-1.295-2.221-1.943-3.965-1.943c-1.719,0-3.344,0.511-4.873,1.533c-1.53,1.022-2.556,2.289-3.076,3.799l-1.758,9.883
		c0.299,1.472,0.999,2.604,2.1,3.398c1.1,0.794,2.438,1.191,4.014,1.191c2.109,0,3.893-0.862,5.352-2.588
		c1.458-1.725,2.48-4.124,3.066-7.197L1136.161,455.93z"/>
	<path d="M1148.817,467.102c-1.693,0-3.151-0.475-4.375-1.426c-1.225-0.95-2.106-2.249-2.646-3.896
		c-0.541-1.647-0.681-3.375-0.42-5.186l0.156-0.977c0.313-1.901,0.979-3.678,2.002-5.332c1.021-1.653,2.236-2.917,3.643-3.789
		c1.406-0.872,2.91-1.309,4.512-1.309c2.135,0,3.809,0.788,5.02,2.363c1.211,1.576,1.725,3.594,1.543,6.055l-0.059,0.605
		l-0.176,1.23h-15.352l-0.215,1.15c-0.183,1.092-0.189,2.196-0.02,3.314c0.286,1.858,0.999,3.344,2.139,4.455
		c1.139,1.111,2.549,1.674,4.229,1.687c2.435,0.026,4.629-0.931,6.582-2.871l0.703,0.547
		C1154.155,465.976,1151.733,467.102,1148.817,467.102z M1151.688,446.243c-2.006,0-3.799,0.752-5.381,2.256
		s-2.758,3.467-3.525,5.889h14.258l0.059-0.254c0.169-0.938,0.182-1.875,0.039-2.813c-0.234-1.536-0.844-2.767-1.826-3.691
		C1154.328,446.705,1153.12,446.243,1151.688,446.243z"/>
	<path d="M1173.446,446.34l-1.27-0.098c-1.745,0-3.366,0.644-4.863,1.932c-1.498,1.288-2.5,2.855-3.008,4.703l-2.402,13.834h-1.055
		l3.633-21.133h1.055l-0.82,4.395c0.885-1.51,1.966-2.686,3.242-3.525c1.275-0.84,2.695-1.26,4.258-1.26
		c0.494,0,0.989,0.08,1.484,0.239L1173.446,446.34z"/>
	<path d="M1181.942,439.875l-0.977,5.703h4.629l-0.137,1.055h-4.688l-2.676,15.484l-0.078,1.075
		c-0.039,0.886,0.143,1.581,0.547,2.083c0.403,0.501,1.016,0.759,1.836,0.772c0.364,0,1.074-0.059,2.129-0.176l0.039,0.996
		c-0.6,0.156-1.309,0.234-2.129,0.234c-2.214,0-3.366-1.141-3.457-3.421c-0.026-0.665,0.02-1.342,0.137-2.033l2.578-15.014h-3.77
		l0.156-1.055h3.809l0.977-5.703H1181.942z"/>
	<path d="M1188.778,466.711h-1.055l3.633-21.133h1.055L1188.778,466.711z M1191.981,438.938c0.039-0.26,0.179-0.501,0.42-0.723
		c0.24-0.221,0.498-0.332,0.771-0.332c0.299,0,0.543,0.117,0.732,0.352c0.188,0.234,0.257,0.495,0.205,0.781
		c-0.039,0.261-0.183,0.498-0.43,0.713c-0.248,0.215-0.508,0.322-0.781,0.322c-0.3-0.013-0.541-0.13-0.723-0.352
		C1191.994,439.479,1191.928,439.225,1191.981,438.938z"/>
	<path d="M1203.368,467.102c-1.693,0-3.151-0.475-4.375-1.426c-1.225-0.95-2.106-2.249-2.646-3.896
		c-0.541-1.647-0.681-3.375-0.42-5.186l0.156-0.977c0.313-1.901,0.979-3.678,2.002-5.332c1.021-1.653,2.236-2.917,3.643-3.789
		c1.406-0.872,2.91-1.309,4.512-1.309c2.135,0,3.809,0.788,5.02,2.363c1.211,1.576,1.725,3.594,1.543,6.055l-0.059,0.605
		l-0.176,1.23h-15.352l-0.215,1.15c-0.183,1.092-0.189,2.196-0.02,3.314c0.286,1.858,0.999,3.344,2.139,4.455
		c1.139,1.111,2.549,1.674,4.229,1.687c2.435,0.026,4.629-0.931,6.582-2.871l0.703,0.547
		C1208.706,465.976,1206.284,467.102,1203.368,467.102z M1206.239,446.243c-2.006,0-3.799,0.752-5.381,2.256
		s-2.758,3.467-3.525,5.889h14.258l0.059-0.254c0.169-0.938,0.182-1.875,0.039-2.813c-0.234-1.536-0.844-2.767-1.826-3.691
		C1208.878,446.705,1207.67,446.243,1206.239,446.243z"/>
	<path d="M1229.149,461.536c0.469-2.448-1.315-4.186-5.352-5.215l-2.168-0.625c-2.995-0.977-4.311-2.702-3.945-5.176
		c0.234-1.602,1.08-2.891,2.539-3.867c1.458-0.977,3.15-1.465,5.078-1.465c2.122,0,3.782,0.547,4.98,1.641
		c1.197,1.094,1.705,2.559,1.523,4.395h-1.055c0.156-1.484-0.28-2.686-1.309-3.604c-1.029-0.918-2.402-1.377-4.121-1.377
		c-1.667,0-3.119,0.384-4.355,1.152c-1.237,0.769-1.979,1.797-2.227,3.086c-0.391,2.07,0.807,3.542,3.594,4.414l2.91,0.84
		l0.977,0.332c3.033,1.107,4.361,2.937,3.984,5.488c-0.248,1.68-1.12,3.024-2.617,4.033c-1.498,1.009-3.288,1.514-5.371,1.514
		c-2.175,0-3.913-0.53-5.215-1.592c-1.303-1.061-1.862-2.451-1.68-4.17h1.035c-0.065,1.458,0.42,2.607,1.455,3.447
		s2.496,1.26,4.385,1.26c1.797-0.039,3.346-0.472,4.648-1.299C1228.146,463.922,1228.915,462.851,1229.149,461.536z"/>
	<path d="M1240.477,458.879c0.403-2.213,1.465-4.153,3.184-5.82l2.461-2.207c1.367-1.287,2.334-2.632,2.9-4.036
		s0.765-2.775,0.596-4.114c-0.17-1.183-0.645-2.106-1.426-2.769c-0.781-0.663-1.771-0.995-2.969-0.995
		c-1.68,0-3.151,0.532-4.414,1.596c-1.264,1.064-2.123,2.518-2.578,4.361h-1.074c0.442-2.07,1.402-3.756,2.881-5.059
		c1.478-1.302,3.199-1.953,5.166-1.953c1.914,0,3.375,0.681,4.385,2.041c1.009,1.361,1.344,3.063,1.006,5.107
		c-0.234,1.445-0.788,2.819-1.66,4.121c-0.873,1.302-2.146,2.601-3.818,3.896c-1.674,1.296-2.797,2.946-3.369,4.951l-0.215,0.898
		L1240.477,458.879z M1238.817,465.715c0.039-0.26,0.179-0.501,0.42-0.723c0.24-0.221,0.498-0.332,0.771-0.332
		c0.299,0,0.543,0.117,0.732,0.352c0.188,0.234,0.257,0.495,0.205,0.781c-0.039,0.261-0.183,0.498-0.43,0.713
		c-0.248,0.215-0.508,0.322-0.781,0.322c-0.3-0.013-0.541-0.13-0.723-0.352C1238.83,466.256,1238.764,466.002,1238.817,465.715z"/>
</g>
<g>
	<rect x="108.321" y="590.989" fill="#DBE4B5" width="347.127" height="300.471"/>
	<g>
		<g>
			<defs>
				<rect id="SVGID_1_" x="85.272" y="444.581" width="1049.475" height="451.822"/>
			</defs>
			<clipPath id="SVGID_2_">
				<use xlink:href="#SVGID_1_"  overflow="visible"/>
			</clipPath>
			
				<rect x="108.321" y="590.989" clip-path="url(#SVGID_2_)" fill="none" stroke="#020304" stroke-width="4.943" stroke-miterlimit="10" width="347.127" height="300.471"/>
		</g>
	</g>
	<polygon fill="none" stroke="#FFFFFF" stroke-width="17.301" stroke-miterlimit="10" points="188.417,724.782 281.86,632.586 
		375.352,724.782 375.352,831.286 188.417,831.286 	"/>
	<g>
		<defs>
			<rect id="SVGID_3_" x="85.272" y="444.581" width="1049.475" height="451.822"/>
		</defs>
		<clipPath id="SVGID_4_">
			<use xlink:href="#SVGID_3_"  overflow="visible"/>
		</clipPath>
	</g>
	<rect x="85.272" y="444.581" fill="none" width="1049.475" height="451.822"/>
	<path fill="#020304" d="M314.581,565.364c10.189-0.289,18.994-8.764,18.994-19.018c0-10.447-8.494-18.951-18.939-18.951
		c-10.441,0-18.945,8.5-18.945,18.951C295.694,556.651,304.329,565.155,314.581,565.364l0.057,10.201
		c-14.49,0-26.541-10.588-28.846-24.438l-4.447,0.051h-2.9c-2.275,13.568-14.717,24.016-28.834,24.381l-0.092-10.285
		c10.242-0.234,19.033-8.643,19.033-18.947c0-10.443-8.496-18.938-18.947-18.938c-10.439,0-18.941,8.49-18.941,18.932
		c0,10.291,8.633,18.689,18.852,18.953l0.09,10.285c-14.164,0-26.004-10.129-28.67-23.523l-0.096-0.566h-11.621
		c-2.846,0-5.148-2.299-5.148-5.148c0-2.84,2.303-5.143,5.148-5.143h11.621l0.092-0.508c2.637-13.422,14.498-23.566,28.674-23.566
		c14.488,0,26.551,10.588,28.848,24.436h2.889l4.459-0.051c2.32-13.813,14.373-24.385,28.836-24.385
		c14.164,0,26.014,10.131,28.674,23.525l0.098,0.568h11.623c2.846,0,5.146,2.299,5.146,5.148c0,2.838-2.303,5.141-5.146,5.141
		h-11.623l-0.088,0.51c-2.602,13.211-14.783,23.256-28.68,23.568L314.581,565.364z"/>
	<rect x="85.272" y="444.581" fill="none" width="1049.475" height="451.822"/>
	<path fill="#020304" d="M343.702,508.792c-3.428,0-6.207-2.775-6.207-6.203c0-25.146-25.135-45.6-56.037-45.6
		c-30.9,0-56.041,20.457-56.041,45.6c0,3.428-2.775,6.203-6.207,6.203c-3.428,0-6.201-2.775-6.201-6.203
		c0-31.987,30.701-58.01,68.449-58.01c37.744,0,68.455,26.022,68.455,58.01C349.907,506.01,347.127,508.792,343.702,508.792"/>
	<g>
		<defs>
			<rect id="SVGID_5_" x="85.272" y="444.581" width="1049.475" height="451.822"/>
		</defs>
		<clipPath id="SVGID_6_">
			<use xlink:href="#SVGID_5_"  overflow="visible"/>
		</clipPath>
		<polygon clip-path="url(#SVGID_6_)" fill="none" stroke="#FFFFFF" stroke-width="17.301" stroke-miterlimit="10" points="
			188.655,724.834 282.096,632.639 375.584,724.834 375.584,831.34 188.655,831.34 		"/>
	</g>
	<g>
		<defs>
			<rect id="SVGID_7_" x="85.272" y="444.581" width="1049.475" height="451.822"/>
		</defs>
		<clipPath id="SVGID_8_">
			<use xlink:href="#SVGID_7_"  overflow="visible"/>
		</clipPath>
		<path clip-path="url(#SVGID_8_)" fill="#FFFFFF" d="M126.903,741.276c0,18.439-8.215,33.389-18.346,33.389
			c-10.129,0-18.342-14.949-18.342-33.389s8.213-33.385,18.342-33.385C118.688,707.891,126.903,722.836,126.903,741.276"/>
	</g>
	<g>
		<defs>
			<rect id="SVGID_9_" x="85.272" y="444.581" width="1049.475" height="451.822"/>
		</defs>
		<clipPath id="SVGID_10_">
			<use xlink:href="#SVGID_9_"  overflow="visible"/>
		</clipPath>
		<path clip-path="url(#SVGID_10_)" fill="none" stroke="#020304" stroke-width="9.886" stroke-miterlimit="10" d="M126.903,741.276
			c0,18.439-8.215,33.389-18.346,33.389c-10.129,0-18.342-14.949-18.342-33.389s8.213-33.385,18.342-33.385
			C118.688,707.891,126.903,722.836,126.903,741.276z"/>
	</g>
	<g>
		<defs>
			<rect id="SVGID_11_" x="85.272" y="444.581" width="1049.475" height="451.822"/>
		</defs>
		<clipPath id="SVGID_12_">
			<use xlink:href="#SVGID_11_"  overflow="visible"/>
		</clipPath>
		<path clip-path="url(#SVGID_12_)" fill="#FFFFFF" d="M473.553,741.276c0,18.439-8.211,33.389-18.344,33.389
			c-10.129,0-18.344-14.949-18.344-33.389s8.215-33.385,18.344-33.385C465.342,707.891,473.553,722.836,473.553,741.276"/>
	</g>
	<g>
		<defs>
			<rect id="SVGID_13_" x="85.272" y="444.581" width="1049.475" height="451.822"/>
		</defs>
		<clipPath id="SVGID_14_">
			<use xlink:href="#SVGID_13_"  overflow="visible"/>
		</clipPath>
		
			<ellipse clip-path="url(#SVGID_14_)" fill="none" stroke="#020304" stroke-width="9.886" stroke-miterlimit="10" cx="455.209" cy="741.276" rx="18.344" ry="33.389"/>
	</g>
</g>
<g>
	<g>
		<g>
			<path fill="#1B95A6" d="M302.407,798.371c9.146-9.237,18.156-18.331,27.152-27.416c-2.816-2.817-5.748-5.744-8.6-8.598
				c3.762-3.763,7.359-7.361,11.016-11.013c0.104,0.098,0.352,0.321,0.592,0.559c3.342,3.34,6.688,6.682,10.031,10.027
				c5.1,5.104,5.186,12.897,0.098,18.016c-10.404,10.448-20.836,20.879-31.293,31.285c-5.105,5.088-12.924,5.043-18.029-0.05
				c-8.715-8.694-17.42-17.394-26.109-26.109c-5.033-5.048-5.008-12.92,0.014-17.958c0.639-0.644,1.262-1.306,1.904-1.974
				C280.274,776.235,291.307,787.272,302.407,798.371z"/>
			<path fill="#A32B87" d="M268.27,739.602c-11.15,11.145-22.191,22.192-33.182,33.179c9.107,9.107,18.158,18.167,27.232,27.233
				c2.859-2.875,5.787-5.816,8.633-8.672c3.734,3.735,7.336,7.334,10.986,10.982c-0.102,0.111-0.299,0.342-0.514,0.556
				c-3.385,3.39-6.773,6.777-10.162,10.164c-5.035,5.033-12.906,5.038-17.938,0.009c-10.453-10.448-20.904-20.903-31.357-31.356
				c-4.885-4.887-5.02-12.729-0.145-17.658c8.826-8.931,17.707-17.813,26.635-26.644c4.934-4.875,12.627-4.657,17.816,0.346
				C266.901,738.354,267.553,738.935,268.27,739.602z"/>
			<path fill="#0D5B9E" d="M293.672,738.416c-11.059-11.059-22.08-22.08-33.027-33.026c-9.189,9.187-18.275,18.276-27.34,27.339
				c2.809,2.81,5.742,5.74,8.6,8.594c-3.715,3.715-7.314,7.313-10.977,10.972c-0.09-0.087-0.32-0.285-0.533-0.495
				c-3.344-3.341-6.689-6.683-10.029-10.028c-5.219-5.228-5.215-12.99,0.006-18.21c10.363-10.365,20.727-20.729,31.09-31.09
				c5.131-5.131,12.928-5.127,18.068,0.017c8.703,8.698,17.404,17.407,26.107,26.105c4.865,4.868,5.008,12.484,0.316,17.53
				C295.213,736.923,294.418,737.669,293.672,738.416z"/>
			<path fill="#E32535" d="M294.76,763.992c11.105-11.103,22.125-22.125,33.111-33.111c-9.131-9.126-18.209-18.206-27.283-27.278
				c-2.852,2.87-5.777,5.812-8.652,8.695c-3.729-3.741-7.32-7.35-10.969-11.005c0.09-0.094,0.293-0.329,0.512-0.542
				c3.342-3.352,6.684-6.691,10.029-10.037c5.189-5.176,12.959-5.221,18.143-0.049c10.428,10.396,20.836,20.801,31.227,31.223
				c5.043,5.06,4.998,12.889-0.049,17.938c-8.707,8.704-17.406,17.406-26.115,26.106c-5.078,5.083-12.904,5.073-18.002-0.018
				C296.081,765.28,295.436,764.654,294.76,763.992z"/>
			<path fill="#A32B87" d="M270.721,763.89c3.584-3.59,7.189-7.187,10.992-10.991c0.125,0.204,0.248,0.52,0.465,0.737
				c4.949,4.972,9.898,9.943,14.873,14.878c3.014,2.982,4.447,6.522,4.043,10.757c-0.256,2.772-1.404,5.166-3.273,7.206
				c-0.732,0.8-1.529,1.55-2.244,2.27C287.245,780.408,278.971,772.135,270.721,763.89z"/>
			<path fill="#0D5B9E" d="M269.459,741.143c3.527,3.457,7.162,7.028,10.768,10.565c-0.051,0.151-0.053,0.221-0.088,0.256
				c-5.406,5.401-10.754,10.868-16.244,16.181c-4.797,4.64-12.41,4.514-17.254-0.107c-0.727-0.684-1.42-1.407-2.045-2.035
				C252.924,757.679,261.217,749.385,269.459,741.143z"/>
			<path fill="#E32535" d="M281.344,750.468c-5.402-5.38-10.918-10.849-16.391-16.358c-1.387-1.399-2.289-3.131-2.766-5.047
				c-1.1-4.412-0.219-8.37,2.814-11.795c0.742-0.835,1.572-1.595,2.486-2.515c8.285,8.334,16.537,16.634,24.713,24.861
				C288.577,743.24,284.977,746.839,281.344,750.468z"/>
			<path fill="#1B95A6" d="M318.395,737.656c-8.369,8.37-16.646,16.649-24.887,24.885c-3.551-3.56-7.145-7.166-10.984-11.009
				c0.225-0.138,0.582-0.257,0.818-0.497c5.037-5.012,10.059-10.04,15.088-15.061c5.225-5.233,12.977-5.225,18.207,0
				C317.209,736.541,317.809,737.091,318.395,737.656z"/>
		</g>
	</g>
</g>
<g>
	<path fill="#010202" d="M1730.27,606.129l-59.715-19.914v-1.631h52.619V473.5h11.693v-22.105l-12.787-3.198
		c-6.613-42.306-43.621-74.087-86.605-74.087c-42.982,0-79.99,31.781-86.604,74.087l-12.785,3.198V473.5h11.691v111.084h52.619
		v1.631l-59.711,19.906c-16.744,5.578-27.986,21.184-27.986,38.822v91.648h245.553v-91.648
		C1758.252,627.305,1747.01,611.7,1730.27,606.129z M1582.858,520.272V473.5h105.236v46.772c0,29.015-23.609,52.619-52.619,52.619
		S1582.858,549.288,1582.858,520.272z M1571.411,525.118c-6.916-2.349-11.939-8.839-11.939-16.54
		c0-7.611,4.904-14.043,11.693-16.463v28.157C1571.165,521.91,1571.288,523.511,1571.411,525.118z M1699.788,492.115
		c6.787,2.42,11.693,8.852,11.693,16.463c0,7.701-5.021,14.191-11.939,16.54c0.123-1.607,0.246-3.208,0.246-4.846V492.115z
		 M1672.338,572.891c12.033-8.455,21.008-20.908,25.047-35.43c5.262-0.626,10.068-2.603,14.096-5.647v41.078H1672.338z
		 M1711.481,485.345c-3.414-2.584-7.35-4.52-11.693-5.401V473.5h11.693V485.345z M1644.153,386.363l-6.789,16.979h-3.775
		l-6.795-16.979c2.865-0.333,5.748-0.561,8.682-0.561C1638.411,385.803,1641.293,386.03,1644.153,386.363z M1594.551,397.945v22.937
		h11.691v-29.099c2.885-1.215,5.824-2.315,8.857-3.169l10.57,26.421h19.609l10.566-26.421c3.039,0.854,5.975,1.954,8.855,3.169
		v29.099h11.693v-22.937c16.453,10.588,28.719,27.31,33.191,47.129l-72.689-18.171l-1.422-0.356l-74.115,18.527
		C1565.833,425.255,1578.098,408.533,1594.551,397.945z M1547.778,460.526l87.697-21.924l87.699,21.924v1.28h-23.387h-11.693
		h-105.236h-11.693h-23.387V460.526z M1571.165,473.5v6.437c-4.344,0.889-8.279,2.818-11.693,5.402V473.5H1571.165z
		 M1559.471,531.813c4.029,3.045,8.836,5.021,14.096,5.647c4.041,14.516,13.021,26.975,25.047,35.43h-39.143V531.813z
		 M1612.09,580.118c7.262,2.848,15.131,4.467,23.385,4.467c8.256,0,16.127-1.619,23.387-4.467v9.178
		c-1.268,2.783-6.969,12.828-23.387,12.828c-16.281,0-22.051-9.951-23.385-12.84v-4.699V580.118z M1544.381,617.213l58.957-19.65
		c4.016,6.385,13.271,16.254,32.137,16.254c18.867,0,28.123-9.869,32.141-16.254l58.955,19.65
		c11.957,3.986,19.988,15.131,19.988,27.73v33.184h-29.232v-35.078h-11.691v58.463h-11.695v-76.004h-116.93v76.004h-11.691v-58.463
		h-11.693v35.078h-29.232v-33.184C1524.393,632.344,1532.426,621.2,1544.381,617.213z M1641.913,724.901h-6.438V670.51
		l-17.539-26.311l-17.539,26.311v31.002h-11.693v-64.311h93.545v64.311h-11.693C1656.442,701.512,1644.631,711.575,1641.913,724.901
		z M1612.09,683.975h11.693v29.412c-3.023-4.057-7.01-7.336-11.693-9.395V683.975z M1613.272,672.282l4.664-7l4.666,7H1613.272z
		 M1524.393,689.821h29.232v23.387h46.771c7.613,0,14.043,4.904,16.465,11.693h-92.469V689.821z M1654.092,724.901
		c2.42-6.789,8.852-11.693,16.463-11.693h46.771v-23.387h29.232v35.08H1654.092z"/>
	<circle fill="#010202" cx="1664.708" cy="491.04" r="5.847"/>
	<circle fill="#010202" cx="1606.243" cy="491.04" r="5.847"/>
	<path fill="#010202" d="M1658.862,531.965h-11.693c0,6.449-5.244,11.694-11.693,11.694c-6.447,0-11.691-5.245-11.691-11.694
		h-11.693c0,12.897,10.488,23.387,23.385,23.387C1648.374,555.352,1658.862,544.862,1658.862,531.965z"/>
</g>
<g>
	<path fill="#010202" d="M1105.596,954.856v98.322h13.287v-98.322c0.092-16.506,12.207-30.48,28.535-32.912l30.26-4.291l7.76,43.66
		c0.143,0.799,0.428,1.566,0.848,2.262c1.891,3.145,5.973,4.16,9.117,2.27l27.781-16.668l8.637,12.986v91.016h13.289v-91.016
		l8.635-12.967l27.803,16.689c0.695,0.418,1.463,0.705,2.262,0.846c3.613,0.643,7.061-1.766,7.703-5.379l8.012-45.174l29.291,2.709
		c3.205,0.365,6.338,1.195,9.301,2.467v65.391h-13.287v-13.287h-13.285v13.287h-15.826c-2.695,0-5.354,0.629-7.764,1.834
		c-8.598,4.291-12.088,14.74-7.795,23.338l4.811,9.613v14.17c0.014,9.65,7.836,17.467,17.484,17.479h115.383
		c17.199,0.102,31.617-12.973,33.191-30.1c1.674-18.221-11.742-34.35-29.963-36.021l-2.523-2.758l15.42-112.898
		c0.014-0.086,0.059-0.166,0.059-0.252c1.213-9.504-2.795-18.922-10.482-24.637c-11.754-8.734-28.361-6.289-37.098,5.463
		c-4.969-7.15-13.129-11.408-21.836-11.393c-14.656,0.025-26.514,11.926-26.488,26.58v40.039c-2.633-0.736-5.328-1.242-8.051-1.508
		l-35.922-3.32l-15.816-11.959v-3.502c16.711-12.479,26.561-32.109,26.572-52.967v-6.644c7.578,0.032,14.807-3.185,19.857-8.835
		c9.744-10.904,8.805-27.645-2.1-37.391c8.963-2.241,15.295-10.233,15.43-19.472c0.162-11.251-8.828-20.505-20.08-20.667
		c-1.238-32.781-23.451-61.034-55.014-69.976c-2.695-6.466-7.836-11.606-14.303-14.302c-13.545-5.647-29.104,0.756-34.752,14.302
		c-31.568,8.951-53.781,37.212-55.02,70.002c-9.238,0.134-17.23,6.466-19.473,15.429c-2.732,10.916,3.904,21.98,14.822,24.711
		c-5.629,5.043-8.832,12.25-8.807,19.807c0.051,14.625,11.945,26.44,26.57,26.392v6.644c0.018,20.854,9.863,40.479,26.572,52.955
		v3.514l-17.719,13.387l-35.361,5.016C1122.684,912.219,1105.735,931.764,1105.596,954.856z M1404.297,894.129
		c1.119,0.139,2.248,0.209,3.375,0.211c3.436-0.004,6.838-0.68,10.012-1.992l-12.887,94.396h-26.82l13.406-98.045
		C1395.118,891.643,1399.583,893.518,1404.297,894.129z M1420.754,869.747c-0.965,6.514-6.555,11.34-13.141,11.34
		c-7.338,0.002-13.287-5.943-13.291-13.281c-0.002-7.34,5.945-13.289,13.283-13.291c0.572-0.002,1.143,0.033,1.707,0.105
		c7.242,0.926,12.379,7.521,11.508,14.77l0,0l-0.047,0.357H1420.754z M1351.403,1000.032h66.434c11.008,0,19.932,8.922,19.932,19.93
		s-8.924,19.93-19.932,19.93h-66.434V1000.032z M1351.403,890.043c8.098,4.883,18.223,4.926,26.361,0.111l-13.227,96.59h-13.135
		V890.043z M1351.403,867.163c0-7.338,5.949-13.287,13.287-13.287s13.287,5.949,13.287,13.287s-5.949,13.287-13.287,13.287
		S1351.403,874.5,1351.403,867.163z M1338.116,1000.032v39.859h-35.662c-2.314,0-4.193-1.875-4.197-4.191v-15.738
		c-0.004-1.02-0.244-2.023-0.699-2.936l-5.514-11.016c-0.295-0.58-0.449-1.225-0.447-1.877c0.004-2.271,1.852-4.107,4.121-4.102
		H1338.116z M1158.743,800.729c0-7.338,5.951-13.287,13.289-13.287v26.573C1164.694,814.015,1158.743,808.067,1158.743,800.729z
		 M1251.752,714.364h-26.574v-33.217c0-7.338,5.949-13.287,13.287-13.287s13.287,5.949,13.287,13.287V714.364z M1304.713,740.938
		h-132.496c0.605-12.877,5.184-25.251,13.102-35.424v22.137h13.285v-34.758c4.123-2.939,8.584-5.371,13.287-7.242v35.356
		c0,3.669,2.977,6.644,6.645,6.644h39.859c3.668,0,6.645-2.975,6.645-6.644v-35.356c4.703,1.871,9.164,4.3,13.287,7.234v34.766
		h13.285v-22.137C1299.532,715.687,1304.108,728.061,1304.713,740.938z M1324.829,761.34c-0.012,3.741-2.91,6.84-6.643,7.102
		l-79.721,5.713l-79.756-5.713c-3.785-0.229-6.727-3.387-6.686-7.18c0.043-3.93,3.264-7.08,7.191-7.037h158.498
		c3.922,0.003,7.102,3.174,7.115,7.094V761.34z M1304.899,787.442c7.338,0,13.287,5.949,13.287,13.287s-5.949,13.286-13.287,13.286
		V787.442z M1278.327,869.036v-21.803c0-14.677-11.898-26.574-26.574-26.574h-26.574c-14.676,0-26.574,11.897-26.574,26.574v21.803
		c-8.563-9.684-13.287-22.164-13.285-35.09v-50.284l52.674,3.78h0.473h0.471l52.676-3.78v50.284
		C1291.614,846.872,1286.889,859.352,1278.327,869.036z M1225.178,833.946h26.574c7.338,0,13.287,5.949,13.287,13.287v32.551
		c-16.479,9.361-36.668,9.361-53.148,0v-32.551C1211.891,839.895,1217.84,833.946,1225.178,833.946z M1260.143,937.563
		l14.303-33.383l12.092,9.127l-6.426,36.234L1260.143,937.563z M1213.081,895.223c16.201,6.941,34.539,6.941,50.742,0
		l-17.936,41.855l-7.422,11.135l-7.422-11.123L1213.081,895.223z M1190.393,913.327l12.092-9.127l14.303,33.383l-19.971,11.959
		L1190.393,913.327z"/>
	<polygon fill="#010202" points="1165.387,973.458 1152.102,973.458 1152.102,1053.178 1165.387,1053.178 1165.387,1026.604 
		1218.536,1026.604 1218.536,1013.319 1165.387,1013.319 	"/>
	<path fill="#010202" d="M1278.327,797.407c0-5.504-4.463-9.965-9.965-9.965c-5.504,0-9.967,4.461-9.967,9.965
		s4.463,9.965,9.967,9.965C1273.864,807.372,1278.327,802.911,1278.327,797.407z"/>
	<path fill="#010202" d="M1218.536,797.407c0-5.504-4.463-9.965-9.965-9.965c-5.504,0-9.967,4.461-9.967,9.965
		s4.463,9.965,9.967,9.965C1214.073,807.372,1218.536,802.911,1218.536,797.407z"/>
	<rect x="1258.395" y="980.102" fill="#010202" width="13.287" height="13.285"/>
	<rect x="1258.395" y="1039.891" fill="#010202" width="13.287" height="13.287"/>
	<path fill="#010202" d="M1228.008,843.938l-5.66,12.023c6.256,2.986,13.1,4.545,20.029,4.559h9.375v-13.287h-9.375
		C1237.403,847.215,1232.495,846.088,1228.008,843.938z"/>
</g>
</svg>
