<?xml version="1.0" encoding="utf-8"?>
<!-- Generator: Adobe Illustrator 16.0.0, SVG Export Plug-In . SVG Version: 6.00 Build 0)  -->
<!DOCTYPE svg PUBLIC "-//W3C//DTD SVG 1.1//EN" "http://www.w3.org/Graphics/SVG/1.1/DTD/svg11.dtd">
<svg version="1.1" id="Layer_1" xmlns="http://www.w3.org/2000/svg" xmlns:xlink="http://www.w3.org/1999/xlink" x="0px" y="0px"
	 width="1920.001px" height="1080px" viewBox="0 0 1920.001 1080" enable-background="new 0 0 1920.001 1080" xml:space="preserve">
<g>
	<g opacity="0.1">
		<polyline fill="none" stroke="#000000" stroke-width="2" stroke-miterlimit="10" points="1346.899,437.316 1484.013,437.316 
			1484.013,519.692 1501.394,519.692 		"/>
		<g>
			<polygon fill="#FFFFFF" stroke="#000000" stroke-miterlimit="10" points="1476.335,503.723 1491.458,503.723 1476.335,481.041 
				1491.458,481.041 			"/>
			<g>
				<line fill="#FFFFFF" x1="1473.14" y1="508.559" x2="1496.8" y2="473.07"/>
				<g>
					<line fill="none" stroke="#000000" stroke-miterlimit="10" x1="1473.14" y1="508.559" x2="1494.481" y2="476.547"/>
					<g>
						<polygon points="1495.548,479.621 1494.002,477.267 1491.234,476.745 1496.8,473.07 						"/>
					</g>
				</g>
			</g>
			<polyline fill="none" stroke="#000000" stroke-miterlimit="10" points="1485.638,489.767 1495.144,489.767 1495.144,494.762 
				1485.638,494.762 			"/>
			
				<line fill="none" stroke="#000000" stroke-width="0.5" stroke-miterlimit="10" x1="1493.161" y1="487.858" x2="1493.161" y2="496.904"/>
			
				<line fill="none" stroke="#000000" stroke-width="0.5" stroke-miterlimit="10" x1="1490.995" y1="487.858" x2="1490.995" y2="496.904"/>
			
				<line fill="none" stroke="#000000" stroke-width="0.5" stroke-miterlimit="10" x1="1488.827" y1="487.858" x2="1488.827" y2="496.904"/>
		</g>
		<polyline fill="none" stroke="#000000" stroke-width="2" stroke-miterlimit="10" points="339.404,704.62 339.404,376.55 
			1346.902,376.55 1346.902,519.692 1364.282,519.692 		"/>
		<g>
			<polygon fill="#FFFFFF" stroke="#000000" stroke-miterlimit="10" points="1339.538,503.723 1354.656,503.723 1339.538,481.041 
				1354.656,481.041 			"/>
			<g>
				<line fill="#FFFFFF" x1="1336.342" y1="508.559" x2="1359.999" y2="473.07"/>
				<g>
					<line fill="none" stroke="#000000" stroke-miterlimit="10" x1="1336.342" y1="508.559" x2="1357.682" y2="476.547"/>
					<g>
						<polygon points="1358.748,479.621 1357.201,477.267 1354.434,476.746 1359.999,473.07 						"/>
					</g>
				</g>
			</g>
			<polyline fill="none" stroke="#000000" stroke-miterlimit="10" points="1348.837,489.767 1358.345,489.767 1358.345,494.762 
				1348.837,494.762 			"/>
			
				<line fill="none" stroke="#000000" stroke-width="0.5" stroke-miterlimit="10" x1="1356.363" y1="487.858" x2="1356.363" y2="496.904"/>
			
				<line fill="none" stroke="#000000" stroke-width="0.5" stroke-miterlimit="10" x1="1354.194" y1="487.858" x2="1354.194" y2="496.904"/>
			
				<line fill="none" stroke="#000000" stroke-width="0.5" stroke-miterlimit="10" x1="1352.029" y1="487.858" x2="1352.029" y2="496.904"/>
		</g>
		<polyline fill="none" stroke="#000000" stroke-width="2" stroke-miterlimit="10" points="1003.761,405.156 1003.761,519.692 
			1021.141,519.692 		"/>
		<polyline fill="none" stroke="#000000" stroke-width="2" stroke-miterlimit="10" points="659.9,405.156 659.9,519.692 
			677.279,519.692 		"/>
		<g>
			<g>
				
					<line fill="none" stroke="#000000" stroke-width="2" stroke-miterlimit="10" x1="1328.001" y1="456.22" x2="1333.001" y2="456.22"/>
				
					<line fill="none" stroke="#000000" stroke-width="2" stroke-miterlimit="10" x1="1334.34" y1="456.22" x2="1339.34" y2="456.22"/>
			</g>
		</g>
		<g>
			<g>
				
					<line fill="none" stroke="#000000" stroke-width="2" stroke-miterlimit="10" x1="1354.462" y1="456.22" x2="1359.462" y2="456.22"/>
				
					<line fill="none" stroke="#000000" stroke-width="2" stroke-miterlimit="10" stroke-dasharray="9.8679,3.9471" x1="1363.409" y1="456.22" x2="1458.141" y2="456.22"/>
				<polyline fill="none" stroke="#000000" stroke-width="2" stroke-miterlimit="10" points="1460.114,456.22 1465.114,456.22 
					1465.114,461.22 				"/>
				
					<line fill="none" stroke="#000000" stroke-width="2" stroke-miterlimit="10" stroke-dasharray="10.2268,4.0907" x1="1465.114" y1="465.311" x2="1465.114" y2="577.805"/>
				<polyline fill="none" stroke="#000000" stroke-width="2" stroke-miterlimit="10" points="1465.114,579.85 1465.114,584.85 
					1470.114,584.85 				"/>
				
					<line fill="none" stroke="#000000" stroke-width="2" stroke-miterlimit="10" stroke-dasharray="8.2123,3.2849" x1="1473.399" y1="584.85" x2="1494.751" y2="584.85"/>
				
					<line fill="none" stroke="#000000" stroke-width="2" stroke-miterlimit="10" x1="1496.394" y1="584.85" x2="1501.394" y2="584.85"/>
			</g>
		</g>
		<g>
			<g>
				
					<line fill="none" stroke="#000000" stroke-width="2" stroke-miterlimit="10" x1="984.863" y1="456.22" x2="989.863" y2="456.22"/>
				
					<line fill="none" stroke="#000000" stroke-width="2" stroke-miterlimit="10" x1="991.202" y1="456.22" x2="996.202" y2="456.22"/>
			</g>
		</g>
		<polyline fill="none" stroke="#000000" stroke-width="2" stroke-miterlimit="10" points="1003.761,437.316 1140.875,437.316 
			1140.875,519.692 1158.254,519.692 		"/>
		<g>
			<g>
				
					<line fill="none" stroke="#000000" stroke-width="2" stroke-miterlimit="10" x1="1011.324" y1="456.22" x2="1016.324" y2="456.22"/>
				
					<line fill="none" stroke="#000000" stroke-width="2" stroke-miterlimit="10" stroke-dasharray="9.8679,3.9471" x1="1020.271" y1="456.22" x2="1115.003" y2="456.22"/>
				<polyline fill="none" stroke="#000000" stroke-width="2" stroke-miterlimit="10" points="1116.977,456.22 1121.977,456.22 
					1121.977,461.22 				"/>
				
					<line fill="none" stroke="#000000" stroke-width="2" stroke-miterlimit="10" stroke-dasharray="10.2268,4.0907" x1="1121.977" y1="465.311" x2="1121.977" y2="577.805"/>
				<polyline fill="none" stroke="#000000" stroke-width="2" stroke-miterlimit="10" points="1121.977,579.85 1121.977,584.85 
					1126.977,584.85 				"/>
				
					<line fill="none" stroke="#000000" stroke-width="2" stroke-miterlimit="10" stroke-dasharray="8.2117,3.2847" x1="1130.262" y1="584.85" x2="1151.611" y2="584.85"/>
				
					<line fill="none" stroke="#000000" stroke-width="2" stroke-miterlimit="10" x1="1153.254" y1="584.85" x2="1158.254" y2="584.85"/>
			</g>
		</g>
		<g>
			<g>
				
					<line fill="none" stroke="#000000" stroke-width="2" stroke-miterlimit="10" x1="384.793" y1="704.62" x2="384.793" y2="699.62"/>
				
					<line fill="none" stroke="#000000" stroke-width="2" stroke-miterlimit="10" stroke-dasharray="10.0392,4.0157" x1="384.793" y1="695.604" x2="384.793" y2="402.46"/>
				<polyline fill="none" stroke="#000000" stroke-width="2" stroke-miterlimit="10" points="384.793,400.452 384.793,395.452 
					389.793,395.452 				"/>
				
					<line fill="none" stroke="#000000" stroke-width="2" stroke-miterlimit="10" stroke-dasharray="10.0561,4.0224" x1="393.815" y1="395.452" x2="1320.99" y2="395.452"/>
				<polyline fill="none" stroke="#000000" stroke-width="2" stroke-miterlimit="10" points="1323.001,395.452 1328.001,395.452 
					1328.001,400.452 				"/>
				
					<line fill="none" stroke="#000000" stroke-width="2" stroke-miterlimit="10" stroke-dasharray="9.6451,3.858" x1="1328.001" y1="404.31" x2="1328.001" y2="577.922"/>
				<polyline fill="none" stroke="#000000" stroke-width="2" stroke-miterlimit="10" points="1328.001,579.85 1328.001,584.85 
					1333.001,584.85 				"/>
				
					<line fill="none" stroke="#000000" stroke-width="2" stroke-miterlimit="10" stroke-dasharray="8.2129,3.2852" x1="1336.286" y1="584.85" x2="1357.64" y2="584.85"/>
				
					<line fill="none" stroke="#000000" stroke-width="2" stroke-miterlimit="10" x1="1359.282" y1="584.85" x2="1364.282" y2="584.85"/>
			</g>
		</g>
		
			<line fill="none" stroke="#000000" stroke-width="2" stroke-miterlimit="10" x1="1003.761" y1="376.55" x2="1003.761" y2="387.421"/>
		<g>
			<g>
				
					<line fill="none" stroke="#000000" stroke-width="2" stroke-miterlimit="10" x1="984.863" y1="395.452" x2="984.863" y2="400.452"/>
				
					<line fill="none" stroke="#000000" stroke-width="2" stroke-miterlimit="10" stroke-dasharray="9.6451,3.858" x1="984.863" y1="404.31" x2="984.863" y2="577.922"/>
				<polyline fill="none" stroke="#000000" stroke-width="2" stroke-miterlimit="10" points="984.863,579.85 984.863,584.85 
					989.863,584.85 				"/>
				
					<line fill="none" stroke="#000000" stroke-width="2" stroke-miterlimit="10" stroke-dasharray="8.2117,3.2847" x1="993.148" y1="584.85" x2="1014.498" y2="584.85"/>
				
					<line fill="none" stroke="#000000" stroke-width="2" stroke-miterlimit="10" x1="1016.141" y1="584.85" x2="1021.141" y2="584.85"/>
			</g>
		</g>
		<g>
			<polygon fill="#FFFFFF" stroke="#000000" stroke-miterlimit="10" points="977.3,424.748 992.422,424.748 977.3,402.066 
				992.422,402.066 			"/>
		</g>
		<line fill="none" stroke="#000000" stroke-width="2" stroke-miterlimit="10" x1="659.9" y1="376.55" x2="659.9" y2="387.421"/>
		<g>
			<g>
				
					<line fill="none" stroke="#000000" stroke-width="2" stroke-miterlimit="10" x1="641.002" y1="395.452" x2="641.002" y2="400.452"/>
				
					<line fill="none" stroke="#000000" stroke-width="2" stroke-miterlimit="10" stroke-dasharray="9.6451,3.858" x1="641.002" y1="404.31" x2="641.002" y2="577.922"/>
				<polyline fill="none" stroke="#000000" stroke-width="2" stroke-miterlimit="10" points="641.002,579.85 641.002,584.85 
					646.002,584.85 				"/>
				
					<line fill="none" stroke="#000000" stroke-width="2" stroke-miterlimit="10" stroke-dasharray="8.2117,3.2847" x1="649.287" y1="584.85" x2="670.637" y2="584.85"/>
				
					<line fill="none" stroke="#000000" stroke-width="2" stroke-miterlimit="10" x1="672.279" y1="584.85" x2="677.279" y2="584.85"/>
			</g>
		</g>
		<g>
			<polygon fill="#FFFFFF" stroke="#000000" stroke-miterlimit="10" points="633.439,424.748 648.562,424.748 633.439,402.066 
				648.562,402.066 			"/>
		</g>
		<line fill="none" stroke="#000000" stroke-width="2" stroke-miterlimit="10" x1="339.404" y1="544.94" x2="384.793" y2="544.94"/>
		<g>
			<polygon fill="#FFFFFF" stroke="#000000" stroke-miterlimit="10" points="1320.441,424.748 1335.563,424.748 1320.441,402.066 
				1335.563,402.066 			"/>
		</g>
		<g>
			<polygon fill="#FFFFFF" stroke="#000000" stroke-miterlimit="10" points="1339.34,424.748 1354.462,424.748 1339.34,402.066 
				1354.462,402.066 			"/>
		</g>
		<g>
			<polygon fill="#FFFFFF" stroke="#BE1622" stroke-miterlimit="10" points="377.2,579.125 392.322,579.125 377.2,556.448 
				392.322,556.448 			"/>
			<line fill="none" stroke="#BE1622" stroke-miterlimit="10" x1="384.764" y1="567.786" x2="396.011" y2="567.786"/>
			<circle fill="#FFFFFF" stroke="#BE1622" stroke-miterlimit="10" cx="401.708" cy="567.786" r="5.697"/>
			<g>
				<line fill="#FFFFFF" x1="374.009" y1="583.961" x2="397.665" y2="548.473"/>
				<g>
					<line fill="none" stroke="#BE1622" stroke-miterlimit="10" x1="374.009" y1="583.961" x2="395.347" y2="551.952"/>
					<g>
						<polygon fill="#BE1622" points="396.414,555.024 394.868,552.67 392.1,552.149 397.665,548.473 						"/>
					</g>
				</g>
			</g>
		</g>
		<g>
			<polygon fill="#FFFFFF" stroke="#000000" stroke-miterlimit="10" points="377.2,434.047 392.322,434.047 377.2,411.363 
				392.322,411.363 			"/>
			<g>
				<g>
					<line fill="none" stroke="#000000" stroke-miterlimit="10" x1="374.262" y1="438.458" x2="395.55" y2="406.522"/>
					<g>
						<rect x="395.05" y="403.273" transform="matrix(0.5547 -0.8321 0.8321 0.5547 -162.1089 510.1417)" width="1" height="6.5"/>
					</g>
				</g>
			</g>
		</g>
		<g>
			<polygon fill="#FFFFFF" stroke="#000000" stroke-miterlimit="10" points="377.2,694.086 392.322,694.086 377.2,671.401 
				392.322,671.401 			"/>
			<g>
				<g>
					<line fill="none" stroke="#000000" stroke-miterlimit="10" x1="374.262" y1="698.499" x2="395.55" y2="666.559"/>
					<g>
						<rect x="395.05" y="663.309" transform="matrix(0.5547 -0.8321 0.8321 0.5547 -378.4725 625.936)" width="1" height="6.5"/>
					</g>
				</g>
			</g>
		</g>
		<g>
			<polygon fill="#FFFFFF" stroke="#000000" stroke-miterlimit="10" points="331.996,434.047 347.118,434.047 331.996,411.363 
				347.118,411.363 			"/>
		</g>
		<g>
			<polygon fill="#FFFFFF" stroke="#000000" stroke-miterlimit="10" points="331.996,693.657 347.118,693.657 331.996,670.979 
				347.118,670.979 			"/>
		</g>
		<g>
			<path fill="#FFFFFF" stroke="#BE1622" stroke-miterlimit="10" d="M417.217,488.171c-6.671,0-12.076-5.402-12.076-12.069
				c0-6.672,5.405-12.073,12.076-12.073c6.668,0,12.073,5.401,12.073,12.073C429.29,482.769,423.885,488.171,417.217,488.171z"/>
			<g>
				<path d="M411.376,482.847v-10.792h-3.634v-1.336h8.846v1.336h-3.634v10.792H411.376z"/>
				<path d="M420.98,482.847v-10.792h-3.634v-1.336h8.846v1.336h-3.634v10.792H420.98z"/>
			</g>
			<line fill="none" stroke="#BE1622" stroke-miterlimit="10" x1="405.141" y1="476.102" x2="384.793" y2="476.102"/>
		</g>
		<g>
			<circle fill="#FFFFFF" stroke="#000000" stroke-miterlimit="10" cx="417.217" cy="446.12" r="12.073"/>
			<g>
				<path d="M411.376,452.864v-10.792h-3.634v-1.336h8.846v1.336h-3.634v10.792H411.376z"/>
				<path d="M418.315,452.864v-1.211h2.665v-9.705h-2.665v-1.211h6.907v1.211h-2.665v9.705h2.665v1.211H418.315z"/>
			</g>
			<line fill="none" stroke="#000000" stroke-miterlimit="10" x1="405.141" y1="446.12" x2="384.793" y2="446.12"/>
		</g>
		<g>
			<circle fill="#FFFFFF" stroke="#BE1622" stroke-miterlimit="10" cx="417.217" cy="591.201" r="12.075"/>
			<g>
				<path d="M411.376,597.946v-10.791h-3.634v-1.336h8.846v1.336h-3.634v10.791H411.376z"/>
				<path d="M420.98,597.946v-10.791h-3.634v-1.336h8.846v1.336h-3.634v10.791H420.98z"/>
			</g>
			<line fill="none" stroke="#BE1622" stroke-miterlimit="10" x1="405.141" y1="591.202" x2="384.793" y2="591.202"/>
		</g>
		<g>
			<path fill="#FFFFFF" stroke="#000000" stroke-miterlimit="10" d="M417.217,670.422c-6.671,0-12.076-5.402-12.076-12.07
				c0-6.672,5.405-12.076,12.076-12.076c6.668,0,12.073,5.404,12.073,12.076C429.29,665.02,423.885,670.422,417.217,670.422z"/>
			<g>
				<path d="M411.376,665.094v-10.791h-3.634v-1.336h8.846v1.336h-3.634v10.791H411.376z"/>
				<path d="M418.315,665.094v-1.211h2.665v-9.705h-2.665v-1.211h6.907v1.211h-2.665v9.705h2.665v1.211H418.315z"/>
			</g>
			<line fill="none" stroke="#000000" stroke-miterlimit="10" x1="405.141" y1="658.352" x2="384.793" y2="658.352"/>
		</g>
		<g>
			<circle fill="#FFFFFF" stroke="#BE1622" stroke-miterlimit="10" cx="307.135" cy="561.115" r="12.073"/>
			<g>
				<path d="M311.403,567.86v-10.791h-3.634v-1.336h8.846v1.336h-3.634v10.791H311.403z"/>
				<path d="M301.799,567.86v-10.791h-3.634v-1.336h8.846v1.336h-3.634v10.791H301.799z"/>
			</g>
			<line fill="none" stroke="#BE1622" stroke-miterlimit="10" x1="319.207" y1="561.116" x2="339.559" y2="561.116"/>
		</g>
		<g>
			<path fill="#FFFFFF" stroke="#000000" stroke-miterlimit="10" d="M307.135,488.171c6.667,0,12.072-5.402,12.072-12.069
				c0-6.672-5.405-12.073-12.072-12.073c-6.668,0-12.073,5.401-12.073,12.073C295.062,482.769,300.467,488.171,307.135,488.171z"/>
			<g>
				<path d="M308.738,482.847v-1.211h2.665v-9.705h-2.665v-1.211h6.907v1.211h-2.665v9.705h2.665v1.211H308.738z"/>
				<path d="M301.799,482.847v-10.792h-3.634v-1.336h8.846v1.336h-3.634v10.792H301.799z"/>
			</g>
			<line fill="none" stroke="#000000" stroke-miterlimit="10" x1="319.207" y1="476.102" x2="339.559" y2="476.102"/>
		</g>
		<g>
			<circle fill="#FFFFFF" stroke="#000000" stroke-miterlimit="10" cx="307.135" cy="446.12" r="12.073"/>
			<g>
				<path d="M301.272,448.441v4.423h-1.578v-12.127h3.016c1.24,0,2.144,0.139,2.711,0.418s1.002,0.687,1.305,1.223
					s0.454,1.136,0.454,1.797c0,0.776-0.204,1.5-0.61,2.172c-0.406,0.672-0.973,1.189-1.699,1.551
					c-0.727,0.362-1.713,0.543-2.958,0.543H301.272z M301.272,447.23h0.68c0.974,0,1.698-0.126,2.172-0.38
					c0.474-0.253,0.839-0.617,1.094-1.091c0.255-0.475,0.383-0.989,0.383-1.542c0-0.699-0.228-1.252-0.684-1.659
					c-0.456-0.407-1.356-0.611-2.7-0.611h-0.946V447.23z"/>
				<path d="M310.876,448.441v4.423h-1.578v-12.127h3.016c1.24,0,2.144,0.139,2.711,0.418s1.002,0.687,1.305,1.223
					s0.454,1.136,0.454,1.797c0,0.776-0.204,1.5-0.61,2.172c-0.406,0.672-0.973,1.189-1.699,1.551
					c-0.727,0.362-1.713,0.543-2.958,0.543H310.876z M310.876,447.23h0.68c0.974,0,1.698-0.126,2.172-0.38
					c0.474-0.253,0.839-0.617,1.094-1.091c0.255-0.475,0.383-0.989,0.383-1.542c0-0.699-0.228-1.252-0.684-1.659
					c-0.456-0.407-1.356-0.611-2.7-0.611h-0.946V447.23z"/>
			</g>
			<line fill="none" stroke="#000000" stroke-miterlimit="10" x1="319.207" y1="446.12" x2="339.559" y2="446.12"/>
		</g>
		<g>
			<circle fill="#FFFFFF" stroke="#000000" stroke-miterlimit="10" cx="307.135" cy="591.201" r="12.075"/>
			<g>
				<path d="M301.272,593.522v4.422h-1.578v-12.127h3.016c1.24,0,2.144,0.139,2.711,0.418s1.002,0.686,1.305,1.223
					s0.454,1.137,0.454,1.797c0,0.777-0.204,1.502-0.61,2.174s-0.973,1.188-1.699,1.551c-0.727,0.361-1.713,0.543-2.958,0.543
					H301.272z M301.272,592.311h0.68c0.974,0,1.698-0.127,2.172-0.381c0.474-0.252,0.839-0.617,1.094-1.092
					c0.255-0.475,0.383-0.988,0.383-1.541c0-0.699-0.228-1.252-0.684-1.658c-0.456-0.408-1.356-0.611-2.7-0.611h-0.946V592.311z"/>
				<path d="M310.876,593.522v4.422h-1.578v-12.127h3.016c1.24,0,2.144,0.139,2.711,0.418s1.002,0.686,1.305,1.223
					s0.454,1.137,0.454,1.797c0,0.777-0.204,1.502-0.61,2.174s-0.973,1.188-1.699,1.551c-0.727,0.361-1.713,0.543-2.958,0.543
					H310.876z M310.876,592.311h0.68c0.974,0,1.698-0.127,2.172-0.381c0.474-0.252,0.839-0.617,1.094-1.092
					c0.255-0.475,0.383-0.988,0.383-1.541c0-0.699-0.228-1.252-0.684-1.658c-0.456-0.408-1.356-0.611-2.7-0.611h-0.946V592.311z"/>
			</g>
			<line fill="none" stroke="#000000" stroke-miterlimit="10" x1="319.207" y1="591.202" x2="339.559" y2="591.202"/>
		</g>
		<g>
			<path fill="#FFFFFF" stroke="#000000" stroke-miterlimit="10" d="M307.135,641.102c6.667,0,12.072-5.402,12.072-12.074
				c0-6.668-5.405-12.072-12.072-12.072c-6.668,0-12.073,5.404-12.073,12.072C295.062,635.7,300.467,641.102,307.135,641.102z"/>
			<g>
				<path d="M301.272,631.352v4.422h-1.578v-12.127h3.016c1.24,0,2.144,0.139,2.711,0.418s1.002,0.686,1.305,1.223
					s0.454,1.137,0.454,1.797c0,0.777-0.204,1.502-0.61,2.174s-0.973,1.188-1.699,1.551c-0.727,0.361-1.713,0.543-2.958,0.543
					H301.272z M301.272,630.141h0.68c0.974,0,1.698-0.127,2.172-0.381c0.474-0.252,0.839-0.617,1.094-1.092
					c0.255-0.475,0.383-0.988,0.383-1.541c0-0.699-0.228-1.252-0.684-1.658c-0.456-0.408-1.356-0.611-2.7-0.611h-0.946V630.141z"/>
				<path d="M310.876,631.352v4.422h-1.578v-12.127h3.016c1.24,0,2.144,0.139,2.711,0.418s1.002,0.686,1.305,1.223
					s0.454,1.137,0.454,1.797c0,0.777-0.204,1.502-0.61,2.174s-0.973,1.188-1.699,1.551c-0.727,0.361-1.713,0.543-2.958,0.543
					H310.876z M310.876,630.141h0.68c0.974,0,1.698-0.127,2.172-0.381c0.474-0.252,0.839-0.617,1.094-1.092
					c0.255-0.475,0.383-0.988,0.383-1.541c0-0.699-0.228-1.252-0.684-1.658c-0.456-0.408-1.356-0.611-2.7-0.611h-0.946V630.141z"/>
			</g>
			<line fill="none" stroke="#000000" stroke-miterlimit="10" x1="319.207" y1="629.028" x2="339.559" y2="629.028"/>
		</g>
		<g>
			<path fill="#FFFFFF" stroke="#000000" stroke-miterlimit="10" d="M307.135,670.422c6.667,0,12.072-5.402,12.072-12.07
				c0-6.672-5.405-12.076-12.072-12.076c-6.668,0-12.073,5.404-12.073,12.076C295.062,665.02,300.467,670.422,307.135,670.422z"/>
			<g>
				<path d="M302.328,665.092v-10.791h-3.634v-1.336h8.846v1.336h-3.634v10.791H302.328z"/>
				<path d="M309.267,665.092v-1.211h2.665v-9.705h-2.665v-1.211h6.907v1.211h-2.665v9.705h2.665v1.211H309.267z"/>
			</g>
			<line fill="none" stroke="#000000" stroke-miterlimit="10" x1="319.207" y1="658.352" x2="339.559" y2="658.352"/>
		</g>
		<g>
			
				<rect x="364.497" y="606.295" fill="#FFFFFF" stroke="#BE1622" stroke-linejoin="round" stroke-miterlimit="10" width="40.592" height="33.576"/>
			
				<line fill="none" stroke="#BE1622" stroke-linejoin="round" stroke-miterlimit="10" x1="393.394" y1="606.295" x2="393.394" y2="639.872"/>
			<g>
				<path d="M366.104,628.461V615.85h1.453v7.924l4.196-4.041h1.923l-4.155,4l4.279,4.729h-2l-4.243-4.688v4.688H366.104z"/>
				<path d="M375.73,628.461l-1.407-12.127h1.439l0.825,7.385l0.11,1.227h0.039l0.157-1.227l1.279-7.385h1.433l1.453,7.682
					l0.148,1.172h0.039l0.094-1.18l0.914-7.674h1.235l-1.469,12.127h-1.492l-1.563-8.221l-0.164-1.234h-0.039l-0.148,1.234
					l-1.407,8.221H375.73z"/>
				<path d="M384.919,628.461V615.85h1.454v5.791c0.417-0.674,0.919-1.199,1.508-1.58c0.588-0.379,1.177-0.57,1.766-0.57
					c0.495,0,0.947,0.127,1.356,0.379c0.409,0.254,0.694,0.559,0.855,0.918c0.13,0.277,0.219,0.57,0.266,0.881
					c0.047,0.309,0.07,0.949,0.07,1.918v4.875h-1.453v-5.055c0-0.84-0.041-1.393-0.121-1.66c-0.081-0.27-0.229-0.49-0.445-0.662
					c-0.216-0.172-0.452-0.258-0.708-0.258c-0.51,0-1.059,0.242-1.645,0.729c-0.586,0.484-1.069,1.09-1.45,1.82v5.086H384.919z"/>
			</g>
		</g>
		<g>
			<path fill="#FFFFFF" stroke="#BE1622" stroke-linejoin="round" stroke-miterlimit="10" d="M339.221,502.809
				c7.622,0,13.798,6.176,13.798,13.798c0,7.618-6.176,13.794-13.798,13.794c-7.614,0-13.794-6.176-13.794-13.794
				C325.427,508.984,331.606,502.809,339.221,502.809"/>
			<rect x="315.872" y="497.91" fill="none" stroke="#BE1622" stroke-miterlimit="10" width="9.555" height="37.338"/>
			<g>
				<g>
					<line fill="none" stroke="#BE1622" stroke-miterlimit="10" x1="314.708" y1="539.791" x2="326.467" y2="493.854"/>
					<g>
						
							<rect x="325.967" y="490.604" transform="matrix(0.248 -0.9687 0.9687 0.248 -232.9327 687.6198)" fill="#BE1622" width="1" height="6.5"/>
					</g>
				</g>
			</g>
			<line fill="none" stroke="#BE1622" stroke-miterlimit="10" x1="325.427" y1="516.606" x2="339.221" y2="502.809"/>
			<line fill="none" stroke="#BE1622" stroke-miterlimit="10" x1="339.221" y1="502.809" x2="353.019" y2="516.606"/>
		</g>
		<g>
			
				<rect x="330.032" y="601.374" fill="#FFFFFF" stroke="#000000" stroke-linejoin="round" stroke-miterlimit="10" width="19.049" height="19.047"/>
			
				<line fill="none" stroke="#000000" stroke-width="0.5" stroke-linejoin="round" stroke-miterlimit="10" x1="330.032" y1="610.901" x2="333.383" y2="610.901"/>
			
				<line fill="none" stroke="#000000" stroke-width="0.5" stroke-linejoin="round" stroke-miterlimit="10" x1="345.73" y1="610.901" x2="349.081" y2="610.901"/>
			
				<line fill="none" stroke="#000000" stroke-width="0.5" stroke-linejoin="round" stroke-miterlimit="10" x1="336.12" y1="610.901" x2="342.993" y2="610.901"/>
		</g>
	</g>
	<g opacity="0.1">
		<g>
			<polygon fill="#FFFFFF" stroke="#BE1622" stroke-miterlimit="10" points="652.312,424.748 667.431,424.748 652.312,402.066 
				667.431,402.066 			"/>
			<line fill="none" stroke="#BE1622" stroke-miterlimit="10" x1="659.871" y1="413.407" x2="671.118" y2="413.407"/>
			<circle fill="#FFFFFF" stroke="#BE1622" stroke-miterlimit="10" cx="676.815" cy="413.407" r="5.697"/>
			<g>
				<line fill="#FFFFFF" x1="649.115" y1="429.585" x2="672.776" y2="394.096"/>
				<g>
					<line fill="none" stroke="#BE1622" stroke-miterlimit="10" x1="649.115" y1="429.585" x2="670.458" y2="397.573"/>
					<g>
						<polygon fill="#BE1622" points="671.524,400.646 669.979,398.292 667.211,397.771 672.776,394.096 						"/>
					</g>
				</g>
			</g>
		</g>
		<g>
			<polygon fill="#FFFFFF" stroke="#BE1622" stroke-miterlimit="10" points="996.19,424.748 1011.313,424.748 996.19,402.066 
				1011.313,402.066 			"/>
			<line fill="none" stroke="#BE1622" stroke-miterlimit="10" x1="1003.746" y1="413.407" x2="1014.997" y2="413.407"/>
			<circle fill="#FFFFFF" stroke="#BE1622" stroke-miterlimit="10" cx="1020.694" cy="413.407" r="5.697"/>
			<g>
				<line fill="#FFFFFF" x1="992.994" y1="429.585" x2="1016.652" y2="394.096"/>
				<g>
					<line fill="none" stroke="#BE1622" stroke-miterlimit="10" x1="992.994" y1="429.585" x2="1014.334" y2="397.573"/>
					<g>
						<polygon fill="#BE1622" points="1015.4,400.646 1013.854,398.292 1011.087,397.771 1016.652,394.096 						"/>
					</g>
				</g>
			</g>
		</g>
		
			<rect x="1501.394" y="497.877" fill="#FFFFFF" stroke="#000000" stroke-linejoin="round" stroke-miterlimit="10" width="80.379" height="108.786"/>
		<polyline fill="none" stroke="#000000" stroke-linejoin="round" stroke-miterlimit="10" points="1501.394,504.805 
			1501.394,497.877 1581.772,497.877 1581.772,504.805 1501.394,504.805 		"/>
		<polyline fill="none" stroke="#000000" stroke-linejoin="round" stroke-miterlimit="10" points="1501.394,606.663 
			1501.394,599.735 1581.772,599.735 1581.772,606.663 1501.394,606.663 		"/>
		
			<line fill="none" stroke="#000000" stroke-linejoin="round" stroke-miterlimit="10" x1="1501.394" y1="504.805" x2="1501.394" y2="599.735"/>
		
			<line fill="none" stroke="#000000" stroke-linejoin="round" stroke-miterlimit="10" x1="1509.015" y1="504.805" x2="1509.015" y2="599.735"/>
		
			<line fill="none" stroke="#000000" stroke-linejoin="round" stroke-miterlimit="10" x1="1515.942" y1="504.805" x2="1515.942" y2="599.735"/>
		
			<line fill="none" stroke="#000000" stroke-linejoin="round" stroke-miterlimit="10" x1="1523.569" y1="504.805" x2="1523.569" y2="599.735"/>
		
			<line fill="none" stroke="#000000" stroke-linejoin="round" stroke-miterlimit="10" x1="1530.497" y1="504.805" x2="1530.497" y2="599.735"/>
		
			<line fill="none" stroke="#000000" stroke-linejoin="round" stroke-miterlimit="10" x1="1538.118" y1="504.805" x2="1538.118" y2="599.735"/>
		
			<line fill="none" stroke="#000000" stroke-linejoin="round" stroke-miterlimit="10" x1="1545.05" y1="504.805" x2="1545.05" y2="599.735"/>
		
			<line fill="none" stroke="#000000" stroke-linejoin="round" stroke-miterlimit="10" x1="1552.669" y1="504.805" x2="1552.669" y2="599.735"/>
		
			<line fill="none" stroke="#000000" stroke-linejoin="round" stroke-miterlimit="10" x1="1559.597" y1="504.805" x2="1559.597" y2="599.735"/>
		
			<line fill="none" stroke="#000000" stroke-linejoin="round" stroke-miterlimit="10" x1="1567.218" y1="504.805" x2="1567.218" y2="599.735"/>
		
			<line fill="none" stroke="#000000" stroke-linejoin="round" stroke-miterlimit="10" x1="1574.149" y1="504.805" x2="1574.149" y2="599.735"/>
		
			<rect x="1501.394" y="497.877" fill="none" stroke="#000000" stroke-linejoin="round" stroke-miterlimit="10" width="80.379" height="108.786"/>
		
			<rect x="1364.278" y="497.877" fill="#FFFFFF" stroke="#000000" stroke-linejoin="round" stroke-miterlimit="10" width="80.379" height="108.786"/>
		<polyline fill="none" stroke="#000000" stroke-linejoin="round" stroke-miterlimit="10" points="1364.278,504.805 
			1364.278,497.877 1444.657,497.877 1444.657,504.805 1364.278,504.805 		"/>
		<polyline fill="none" stroke="#000000" stroke-linejoin="round" stroke-miterlimit="10" points="1364.278,606.663 
			1364.278,599.735 1444.657,599.735 1444.657,606.663 1364.278,606.663 		"/>
		
			<line fill="none" stroke="#000000" stroke-linejoin="round" stroke-miterlimit="10" x1="1364.278" y1="504.805" x2="1364.278" y2="599.735"/>
		
			<line fill="none" stroke="#000000" stroke-linejoin="round" stroke-miterlimit="10" x1="1371.903" y1="504.805" x2="1371.903" y2="599.735"/>
		
			<line fill="none" stroke="#000000" stroke-linejoin="round" stroke-miterlimit="10" x1="1378.827" y1="504.805" x2="1378.827" y2="599.735"/>
		
			<line fill="none" stroke="#000000" stroke-linejoin="round" stroke-miterlimit="10" x1="1386.454" y1="504.805" x2="1386.454" y2="599.735"/>
		
			<line fill="none" stroke="#000000" stroke-linejoin="round" stroke-miterlimit="10" x1="1393.382" y1="504.805" x2="1393.382" y2="599.735"/>
		
			<line fill="none" stroke="#000000" stroke-linejoin="round" stroke-miterlimit="10" x1="1401.003" y1="504.805" x2="1401.003" y2="599.735"/>
		
			<line fill="none" stroke="#000000" stroke-linejoin="round" stroke-miterlimit="10" x1="1407.935" y1="504.805" x2="1407.935" y2="599.735"/>
		
			<line fill="none" stroke="#000000" stroke-linejoin="round" stroke-miterlimit="10" x1="1415.554" y1="504.805" x2="1415.554" y2="599.735"/>
		
			<line fill="none" stroke="#000000" stroke-linejoin="round" stroke-miterlimit="10" x1="1422.481" y1="504.805" x2="1422.481" y2="599.735"/>
		
			<line fill="none" stroke="#000000" stroke-linejoin="round" stroke-miterlimit="10" x1="1430.106" y1="504.805" x2="1430.106" y2="599.735"/>
		
			<line fill="none" stroke="#000000" stroke-linejoin="round" stroke-miterlimit="10" x1="1437.034" y1="504.805" x2="1437.034" y2="599.735"/>
		
			<rect x="1364.278" y="497.877" fill="none" stroke="#000000" stroke-linejoin="round" stroke-miterlimit="10" width="80.379" height="108.786"/>
		<g>
			<g>
				
					<rect x="1158.254" y="497.877" fill="#FFFFFF" stroke="#000000" stroke-linejoin="round" stroke-miterlimit="10" width="80.378" height="108.786"/>
				<polyline fill="none" stroke="#000000" stroke-linejoin="round" stroke-miterlimit="10" points="1158.254,504.805 
					1158.254,497.877 1238.632,497.877 1238.632,504.805 1158.254,504.805 				"/>
				<polyline fill="none" stroke="#000000" stroke-linejoin="round" stroke-miterlimit="10" points="1158.254,606.663 
					1158.254,599.735 1238.632,599.735 1238.632,606.663 1158.254,606.663 				"/>
				
					<line fill="none" stroke="#000000" stroke-linejoin="round" stroke-miterlimit="10" x1="1158.254" y1="504.805" x2="1158.254" y2="599.735"/>
				
					<line fill="none" stroke="#000000" stroke-linejoin="round" stroke-miterlimit="10" x1="1165.875" y1="504.805" x2="1165.875" y2="599.735"/>
				
					<line fill="none" stroke="#000000" stroke-linejoin="round" stroke-miterlimit="10" x1="1172.808" y1="504.805" x2="1172.808" y2="599.735"/>
				
					<line fill="none" stroke="#000000" stroke-linejoin="round" stroke-miterlimit="10" x1="1180.429" y1="504.805" x2="1180.429" y2="599.735"/>
				
					<line fill="none" stroke="#000000" stroke-linejoin="round" stroke-miterlimit="10" x1="1187.357" y1="504.805" x2="1187.357" y2="599.735"/>
				
					<line fill="none" stroke="#000000" stroke-linejoin="round" stroke-miterlimit="10" x1="1194.976" y1="504.805" x2="1194.976" y2="599.735"/>
				
					<line fill="none" stroke="#000000" stroke-linejoin="round" stroke-miterlimit="10" x1="1201.91" y1="504.805" x2="1201.91" y2="599.735"/>
				
					<line fill="none" stroke="#000000" stroke-linejoin="round" stroke-miterlimit="10" x1="1209.528" y1="504.805" x2="1209.528" y2="599.735"/>
				
					<line fill="none" stroke="#000000" stroke-linejoin="round" stroke-miterlimit="10" x1="1216.457" y1="504.805" x2="1216.457" y2="599.735"/>
				
					<line fill="none" stroke="#000000" stroke-linejoin="round" stroke-miterlimit="10" x1="1224.082" y1="504.805" x2="1224.082" y2="599.735"/>
				
					<line fill="none" stroke="#000000" stroke-linejoin="round" stroke-miterlimit="10" x1="1231.007" y1="504.805" x2="1231.007" y2="599.735"/>
			</g>
			
				<rect x="1158.254" y="497.877" fill="none" stroke="#BE1622" stroke-linejoin="round" stroke-miterlimit="10" width="80.378" height="108.786"/>
		</g>
		<g>
			<g>
				
					<rect x="1021.141" y="497.877" fill="#FFFFFF" stroke="#000000" stroke-linejoin="round" stroke-miterlimit="10" width="80.378" height="108.786"/>
				<polyline fill="none" stroke="#000000" stroke-linejoin="round" stroke-miterlimit="10" points="1021.141,504.805 
					1021.141,497.877 1101.519,497.877 1101.519,504.805 1021.141,504.805 				"/>
				<polyline fill="none" stroke="#000000" stroke-linejoin="round" stroke-miterlimit="10" points="1021.141,606.663 
					1021.141,599.735 1101.519,599.735 1101.519,606.663 1021.141,606.663 				"/>
				
					<line fill="none" stroke="#000000" stroke-linejoin="round" stroke-miterlimit="10" x1="1021.141" y1="504.805" x2="1021.141" y2="599.735"/>
				
					<line fill="none" stroke="#000000" stroke-linejoin="round" stroke-miterlimit="10" x1="1028.762" y1="504.805" x2="1028.762" y2="599.735"/>
				
					<line fill="none" stroke="#000000" stroke-linejoin="round" stroke-miterlimit="10" x1="1035.693" y1="504.805" x2="1035.693" y2="599.735"/>
				
					<line fill="none" stroke="#000000" stroke-linejoin="round" stroke-miterlimit="10" x1="1043.315" y1="504.805" x2="1043.315" y2="599.735"/>
				
					<line fill="none" stroke="#000000" stroke-linejoin="round" stroke-miterlimit="10" x1="1050.243" y1="504.805" x2="1050.243" y2="599.735"/>
				
					<line fill="none" stroke="#000000" stroke-linejoin="round" stroke-miterlimit="10" x1="1057.865" y1="504.805" x2="1057.865" y2="599.735"/>
				
					<line fill="none" stroke="#000000" stroke-linejoin="round" stroke-miterlimit="10" x1="1064.797" y1="504.805" x2="1064.797" y2="599.735"/>
				
					<line fill="none" stroke="#000000" stroke-linejoin="round" stroke-miterlimit="10" x1="1072.415" y1="504.805" x2="1072.415" y2="599.735"/>
				
					<line fill="none" stroke="#000000" stroke-linejoin="round" stroke-miterlimit="10" x1="1079.343" y1="504.805" x2="1079.343" y2="599.735"/>
				
					<line fill="none" stroke="#000000" stroke-linejoin="round" stroke-miterlimit="10" x1="1086.969" y1="504.805" x2="1086.969" y2="599.735"/>
				
					<line fill="none" stroke="#000000" stroke-linejoin="round" stroke-miterlimit="10" x1="1093.896" y1="504.805" x2="1093.896" y2="599.735"/>
			</g>
			
				<rect x="1021.141" y="497.877" fill="none" stroke="#BE1622" stroke-linejoin="round" stroke-miterlimit="10" width="80.378" height="108.786"/>
		</g>
		<g>
			<g>
				
					<rect x="677.279" y="497.877" fill="#FFFFFF" stroke="#000000" stroke-linejoin="round" stroke-miterlimit="10" width="145.51" height="108.786"/>
				<polyline fill="none" stroke="#000000" stroke-linejoin="round" stroke-miterlimit="10" points="677.279,504.805 
					677.279,497.877 822.789,497.877 822.789,504.805 677.279,504.805 				"/>
				<polyline fill="none" stroke="#000000" stroke-linejoin="round" stroke-miterlimit="10" points="677.279,606.663 
					677.279,599.735 822.789,599.735 822.789,606.663 677.279,606.663 				"/>
				
					<line fill="none" stroke="#000000" stroke-linejoin="round" stroke-miterlimit="10" x1="677.279" y1="504.805" x2="677.279" y2="599.735"/>
				
					<line fill="none" stroke="#000000" stroke-linejoin="round" stroke-miterlimit="10" x1="684.904" y1="504.805" x2="684.904" y2="599.735"/>
				
					<line fill="none" stroke="#000000" stroke-linejoin="round" stroke-miterlimit="10" x1="691.833" y1="504.805" x2="691.833" y2="599.735"/>
				
					<line fill="none" stroke="#000000" stroke-linejoin="round" stroke-miterlimit="10" x1="699.455" y1="504.805" x2="699.455" y2="599.735"/>
				
					<line fill="none" stroke="#000000" stroke-linejoin="round" stroke-miterlimit="10" x1="706.383" y1="504.805" x2="706.383" y2="599.735"/>
				
					<line fill="none" stroke="#000000" stroke-linejoin="round" stroke-miterlimit="10" x1="714.005" y1="504.805" x2="714.005" y2="599.735"/>
				
					<line fill="none" stroke="#000000" stroke-linejoin="round" stroke-miterlimit="10" x1="720.937" y1="504.805" x2="720.937" y2="599.735"/>
				
					<line fill="none" stroke="#000000" stroke-linejoin="round" stroke-miterlimit="10" x1="728.555" y1="504.805" x2="728.555" y2="599.735"/>
				
					<line fill="none" stroke="#000000" stroke-linejoin="round" stroke-miterlimit="10" x1="735.482" y1="504.805" x2="735.482" y2="599.735"/>
				
					<line fill="none" stroke="#000000" stroke-linejoin="round" stroke-miterlimit="10" x1="743.107" y1="504.805" x2="743.107" y2="599.735"/>
				
					<line fill="none" stroke="#000000" stroke-linejoin="round" stroke-miterlimit="10" x1="750.036" y1="504.805" x2="750.036" y2="599.735"/>
				
					<line fill="none" stroke="#000000" stroke-linejoin="round" stroke-miterlimit="10" x1="757.657" y1="504.805" x2="757.657" y2="599.735"/>
				
					<line fill="none" stroke="#000000" stroke-linejoin="round" stroke-miterlimit="10" x1="764.59" y1="504.805" x2="764.59" y2="599.735"/>
				
					<line fill="none" stroke="#000000" stroke-linejoin="round" stroke-miterlimit="10" x1="772.207" y1="504.805" x2="772.207" y2="599.735"/>
				
					<line fill="none" stroke="#000000" stroke-linejoin="round" stroke-miterlimit="10" x1="779.14" y1="504.805" x2="779.14" y2="599.735"/>
				
					<line fill="none" stroke="#000000" stroke-linejoin="round" stroke-miterlimit="10" x1="786.758" y1="504.805" x2="786.758" y2="599.735"/>
				
					<line fill="none" stroke="#000000" stroke-linejoin="round" stroke-miterlimit="10" x1="793.689" y1="504.805" x2="793.689" y2="599.735"/>
				
					<line fill="none" stroke="#000000" stroke-linejoin="round" stroke-miterlimit="10" x1="801.311" y1="504.805" x2="801.311" y2="599.735"/>
				
					<line fill="none" stroke="#000000" stroke-linejoin="round" stroke-miterlimit="10" x1="808.239" y1="504.805" x2="808.239" y2="599.735"/>
				
					<line fill="none" stroke="#000000" stroke-linejoin="round" stroke-miterlimit="10" x1="815.857" y1="504.805" x2="815.857" y2="599.735"/>
				
					<line fill="none" stroke="#000000" stroke-linejoin="round" stroke-miterlimit="10" x1="822.789" y1="504.805" x2="822.789" y2="599.735"/>
				
					<rect x="677.279" y="497.877" fill="none" stroke="#BE1622" stroke-linejoin="round" stroke-miterlimit="10" width="145.51" height="108.786"/>
			</g>
		</g>
		<g>
			<circle fill="#FFFFFF" stroke="#BE1622" stroke-miterlimit="10" cx="772.208" cy="393.674" r="12.073"/>
			<g>
				<path fill="#BE1622" d="M766.634,400.407v-10.792H763v-1.336h8.846v1.336h-3.634v10.792H766.634z"/>
				<path fill="#BE1622" d="M776.238,400.407v-10.792h-3.634v-1.336h8.846v1.336h-3.634v10.792H776.238z"/>
			</g>
			<line fill="none" stroke="#BE1622" stroke-miterlimit="10" x1="772.207" y1="405.75" x2="772.207" y2="426.099"/>
		</g>
		<g>
			<circle fill="#FFFFFF" stroke="#BE1622" stroke-miterlimit="10" cx="1116.066" cy="393.674" r="12.071"/>
			<g>
				<path fill="#BE1622" d="M1110.495,400.407v-10.792h-3.634v-1.336h8.846v1.336h-3.634v10.792H1110.495z"/>
				<path fill="#BE1622" d="M1120.099,400.407v-10.792h-3.634v-1.336h8.846v1.336h-3.634v10.792H1120.099z"/>
			</g>
			<line fill="none" stroke="#BE1622" stroke-miterlimit="10" x1="1116.068" y1="405.75" x2="1116.068" y2="426.099"/>
		</g>
	</g>
	<g>
		<g>
			<polyline fill="none" stroke="#000000" stroke-width="6" stroke-linejoin="round" stroke-miterlimit="10" points="
				937.774,618.786 593.914,618.786 444.974,704.62 			"/>
			
				<line fill="none" stroke="#000000" stroke-width="6" stroke-linejoin="round" stroke-miterlimit="10" x1="593.914" y1="618.786" x2="593.914" y2="360.934"/>
			<path fill="none" d="M788.834,446.766l-194.92-85.832h343.86L788.834,446.766z M444.974,446.766h343.86l-194.92-85.832
				L444.974,446.766z"/>
			<polygon opacity="0.2" fill="#6AC1E2" points="788.834,704.62 444.974,704.62 444.974,446.766 594.45,360.944 937.774,360.934 
				937.774,618.786 			"/>
			<polyline fill="none" stroke="#000000" stroke-width="6" stroke-linejoin="round" stroke-miterlimit="10" points="
				788.834,446.766 937.774,360.934 937.774,618.786 788.834,704.62 			"/>
			<g>
				<polyline fill="none" stroke="#000000" stroke-width="6" stroke-linejoin="round" stroke-miterlimit="10" points="
					938.311,360.944 594.45,360.944 445.51,446.773 445.51,704.624 789.37,704.624 789.37,446.773 				"/>
			</g>
			
				<line fill="none" stroke="#000000" stroke-width="6" stroke-linejoin="round" stroke-miterlimit="10" x1="788.834" y1="446.766" x2="444.974" y2="446.766"/>
		</g>
		<g>
			<polyline fill="none" stroke="#000000" stroke-width="6" stroke-linejoin="round" stroke-miterlimit="10" points="
				1280.913,618.786 937.052,618.786 788.115,704.62 			"/>
			
				<line fill="none" stroke="#000000" stroke-width="6" stroke-linejoin="round" stroke-miterlimit="10" x1="937.052" y1="618.786" x2="937.052" y2="360.934"/>
			<path fill="none" d="M1131.976,446.766l-194.924-85.832h343.861L1131.976,446.766z M788.115,446.766h343.86l-194.924-85.832
				L788.115,446.766z"/>
			<polygon opacity="0.2" fill="#E94E1B" points="1131.976,704.62 788.115,704.62 788.115,446.766 937.588,360.944 
				1280.913,360.934 1280.913,618.786 			"/>
			<polyline fill="none" stroke="#000000" stroke-width="6" stroke-linejoin="round" stroke-miterlimit="10" points="
				1131.976,446.766 1280.913,360.934 1280.913,618.786 1131.976,704.62 			"/>
			<g>
				<polyline fill="none" stroke="#000000" stroke-width="6" stroke-linejoin="round" stroke-miterlimit="10" points="
					1281.452,360.944 937.588,360.944 788.65,446.773 788.65,704.624 1132.512,704.624 1132.512,446.773 				"/>
			</g>
			
				<line fill="none" stroke="#000000" stroke-width="6" stroke-linejoin="round" stroke-miterlimit="10" x1="1131.976" y1="446.766" x2="788.115" y2="446.766"/>
		</g>
		<g>
			<polyline fill="none" stroke="#000000" stroke-width="6" stroke-linejoin="round" stroke-miterlimit="10" points="
				1624.776,618.786 1280.913,618.786 1131.976,704.62 			"/>
			
				<line fill="none" stroke="#000000" stroke-width="6" stroke-linejoin="round" stroke-miterlimit="10" x1="1280.913" y1="618.786" x2="1280.913" y2="360.934"/>
			<path fill="none" d="M1475.837,446.766l-194.924-85.832h343.863L1475.837,446.766z M1131.976,446.766h343.861l-194.924-85.832
				L1131.976,446.766z"/>
			<polygon opacity="0.2" fill="#FFED00" points="1475.837,704.62 1131.976,704.62 1131.976,446.766 1281.448,360.944 
				1624.776,360.934 1624.776,618.786 			"/>
			<polyline fill="none" stroke="#000000" stroke-width="6" stroke-linejoin="round" stroke-miterlimit="10" points="
				1475.837,446.766 1624.776,360.934 1624.776,618.786 1475.837,704.62 			"/>
			<g>
				<polyline fill="none" stroke="#000000" stroke-width="6" stroke-linejoin="round" stroke-miterlimit="10" points="
					1625.315,360.944 1281.448,360.944 1132.512,446.773 1132.512,704.624 1476.372,704.624 1476.372,446.773 				"/>
			</g>
			
				<line fill="none" stroke="#000000" stroke-width="6" stroke-linejoin="round" stroke-miterlimit="10" x1="1475.837" y1="446.766" x2="1131.976" y2="446.766"/>
		</g>
		<g>
			<path stroke="#000000" stroke-width="0.5" stroke-miterlimit="10" d="M679.45,683.172c0,0.852-0.198,1.693-0.595,2.524
				c-0.396,0.832-0.952,1.537-1.666,2.114c-0.783,0.626-1.695,1.115-2.737,1.468c-1.042,0.352-2.297,0.528-3.765,0.528
				c-1.576,0-2.992-0.146-4.25-0.44s-2.537-0.729-3.838-1.307v-3.64h0.206c1.106,0.92,2.383,1.629,3.831,2.128
				s2.809,0.749,4.081,0.749c1.8,0,3.202-0.338,4.206-1.014c1.003-0.675,1.504-1.575,1.504-2.7c0-0.969-0.237-1.684-0.712-2.144
				s-1.196-0.816-2.165-1.071c-0.734-0.195-1.529-0.357-2.385-0.484c-0.856-0.127-1.764-0.288-2.723-0.484
				c-1.938-0.411-3.374-1.113-4.308-2.106c-0.935-0.993-1.402-2.287-1.402-3.882c0-1.83,0.773-3.33,2.319-4.499
				c1.546-1.17,3.508-1.754,5.886-1.754c1.536,0,2.945,0.146,4.228,0.439c1.282,0.294,2.417,0.656,3.405,1.087v3.435h-0.206
				c-0.832-0.705-1.925-1.289-3.281-1.754s-2.742-0.697-4.161-0.697c-1.556,0-2.806,0.322-3.75,0.969
				c-0.944,0.646-1.417,1.478-1.417,2.495c0,0.91,0.235,1.624,0.705,2.143c0.47,0.52,1.297,0.916,2.481,1.189
				c0.626,0.137,1.517,0.304,2.671,0.499c1.154,0.196,2.133,0.396,2.936,0.602c1.625,0.431,2.848,1.082,3.669,1.952
				C679.039,680.388,679.45,681.607,679.45,683.172z"/>
			<path stroke="#000000" stroke-width="0.5" stroke-miterlimit="10" d="M698.327,681.014c0,1.331-0.191,2.547-0.573,3.648
				c-0.381,1.101-0.92,2.032-1.614,2.796c-0.646,0.725-1.407,1.284-2.283,1.681c-0.876,0.396-1.803,0.595-2.782,0.595
				c-0.851,0-1.622-0.094-2.312-0.279s-1.392-0.475-2.106-0.866v6.87h-2.76v-22.443h2.76v1.717c0.734-0.616,1.558-1.132,2.473-1.548
				s1.891-0.624,2.928-0.624c1.977,0,3.516,0.746,4.617,2.238C697.776,676.291,698.327,678.363,698.327,681.014z M695.479,681.088
				c0-1.977-0.338-3.455-1.013-4.434c-0.675-0.979-1.713-1.468-3.112-1.468c-0.793,0-1.59,0.172-2.393,0.514
				c-0.803,0.343-1.571,0.793-2.305,1.351v9.292c0.783,0.352,1.456,0.592,2.018,0.719c0.563,0.127,1.201,0.19,1.916,0.19
				c1.536,0,2.735-0.519,3.596-1.556C695.048,684.66,695.479,683.124,695.479,681.088z"/>
			<path stroke="#000000" stroke-width="0.5" stroke-miterlimit="10" d="M715.368,689.411h-2.745v-1.747
				c-0.245,0.167-0.575,0.399-0.991,0.697c-0.416,0.299-0.82,0.536-1.211,0.712c-0.46,0.226-0.989,0.414-1.585,0.565
				s-1.296,0.228-2.099,0.228c-1.478,0-2.73-0.489-3.758-1.468s-1.542-2.227-1.542-3.743c0-1.242,0.267-2.248,0.8-3.017
				c0.533-0.768,1.294-1.372,2.282-1.813c0.998-0.44,2.197-0.738,3.596-0.896c1.399-0.156,2.901-0.273,4.506-0.353v-0.426
				c0-0.626-0.11-1.145-0.33-1.556s-0.536-0.733-0.947-0.969c-0.392-0.225-0.861-0.376-1.409-0.455
				c-0.548-0.078-1.121-0.117-1.717-0.117c-0.725,0-1.532,0.096-2.422,0.286c-0.891,0.191-1.811,0.468-2.76,0.829h-0.147v-2.804
				c0.538-0.146,1.316-0.308,2.334-0.484c1.018-0.176,2.021-0.264,3.009-0.264c1.154,0,2.16,0.096,3.016,0.286
				s1.598,0.517,2.224,0.977c0.616,0.45,1.086,1.032,1.409,1.746c0.323,0.715,0.484,1.601,0.484,2.657V689.411z M712.623,685.375
				v-4.565c-0.842,0.049-1.833,0.122-2.972,0.22c-1.14,0.099-2.043,0.24-2.708,0.426c-0.792,0.226-1.434,0.575-1.923,1.05
				s-0.734,1.128-0.734,1.96c0,0.939,0.284,1.646,0.852,2.121c0.567,0.475,1.434,0.712,2.598,0.712c0.969,0,1.854-0.188,2.657-0.565
				C711.194,686.355,711.938,685.903,712.623,685.375z"/>
			<path stroke="#000000" stroke-width="0.5" stroke-miterlimit="10" d="M732.806,688.383c-0.92,0.44-1.793,0.783-2.62,1.027
				c-0.827,0.244-1.705,0.367-2.635,0.367c-1.184,0-2.271-0.174-3.259-0.521c-0.988-0.347-1.834-0.873-2.539-1.578
				c-0.714-0.704-1.268-1.595-1.659-2.671c-0.392-1.076-0.587-2.334-0.587-3.772c0-2.682,0.736-4.785,2.209-6.312
				c1.473-1.526,3.417-2.29,5.834-2.29c0.939,0,1.862,0.132,2.767,0.396c0.905,0.264,1.734,0.587,2.488,0.969v3.067h-0.147
				c-0.841-0.655-1.71-1.159-2.605-1.512c-0.896-0.353-1.769-0.528-2.62-0.528c-1.566,0-2.801,0.526-3.707,1.578
				s-1.358,2.596-1.358,4.631c0,1.977,0.443,3.496,1.329,4.558c0.885,1.062,2.131,1.593,3.736,1.593
				c0.558,0,1.125-0.073,1.703-0.221c0.577-0.146,1.096-0.337,1.556-0.572c0.401-0.205,0.778-0.423,1.13-0.653
				c0.352-0.229,0.631-0.428,0.836-0.594h0.147V688.383z"/>
			<path stroke="#000000" stroke-width="0.5" stroke-miterlimit="10" d="M750.067,681.499h-12.081c0,1.009,0.152,1.887,0.455,2.635
				c0.303,0.749,0.719,1.363,1.248,1.843c0.509,0.47,1.113,0.822,1.813,1.057c0.7,0.235,1.47,0.353,2.312,0.353
				c1.115,0,2.238-0.223,3.369-0.668c1.13-0.445,1.935-0.883,2.415-1.313h0.146v3.009c-0.93,0.392-1.878,0.719-2.848,0.983
				c-0.969,0.265-1.986,0.396-3.053,0.396c-2.721,0-4.844-0.736-6.371-2.209s-2.29-3.564-2.29-6.275c0-2.681,0.731-4.81,2.194-6.385
				c1.462-1.575,3.388-2.363,5.776-2.363c2.211,0,3.917,0.646,5.115,1.938s1.798,3.126,1.798,5.504V681.499z M747.381,679.385
				c-0.01-1.448-0.374-2.568-1.093-3.361s-1.813-1.188-3.281-1.188c-1.478,0-2.654,0.436-3.53,1.306
				c-0.875,0.871-1.372,1.952-1.49,3.244H747.381z"/>
			<path stroke="#000000" stroke-width="0.5" stroke-miterlimit="10" d="M778.015,689.411h-11.831v-2.231h4.55v-14.648h-4.55v-1.996
				c0.617,0,1.277-0.052,1.981-0.154s1.238-0.252,1.6-0.448c0.45-0.244,0.805-0.555,1.064-0.932s0.409-0.883,0.448-1.52h2.275
				v19.698h4.462V689.411z"/>
		</g>
		<g>
			<path stroke="#000000" stroke-width="0.5" stroke-miterlimit="10" d="M1021.434,683.172c0,0.852-0.198,1.693-0.594,2.524
				c-0.396,0.832-0.952,1.537-1.666,2.114c-0.783,0.626-1.695,1.115-2.738,1.468c-1.042,0.352-2.297,0.528-3.765,0.528
				c-1.575,0-2.992-0.146-4.249-0.44c-1.258-0.294-2.537-0.729-3.839-1.307v-3.64h0.206c1.105,0.92,2.382,1.629,3.831,2.128
				c1.447,0.499,2.808,0.749,4.08,0.749c1.801,0,3.202-0.338,4.205-1.014c1.003-0.675,1.505-1.575,1.505-2.7
				c0-0.969-0.237-1.684-0.712-2.144s-1.196-0.816-2.165-1.071c-0.734-0.195-1.529-0.357-2.385-0.484
				c-0.856-0.127-1.765-0.288-2.724-0.484c-1.938-0.411-3.373-1.113-4.308-2.106s-1.402-2.287-1.402-3.882
				c0-1.83,0.773-3.33,2.319-4.499c1.546-1.17,3.509-1.754,5.887-1.754c1.536,0,2.945,0.146,4.227,0.439
				c1.282,0.294,2.417,0.656,3.405,1.087v3.435h-0.205c-0.832-0.705-1.926-1.289-3.28-1.754c-1.355-0.465-2.743-0.697-4.162-0.697
				c-1.556,0-2.806,0.322-3.75,0.969c-0.944,0.646-1.416,1.478-1.416,2.495c0,0.91,0.234,1.624,0.704,2.143
				c0.47,0.52,1.297,0.916,2.48,1.189c0.627,0.137,1.517,0.304,2.672,0.499c1.154,0.196,2.133,0.396,2.936,0.602
				c1.624,0.431,2.848,1.082,3.67,1.952C1021.022,680.388,1021.434,681.607,1021.434,683.172z"/>
			<path stroke="#000000" stroke-width="0.5" stroke-miterlimit="10" d="M1040.311,681.014c0,1.331-0.191,2.547-0.572,3.648
				c-0.382,1.101-0.92,2.032-1.615,2.796c-0.646,0.725-1.406,1.284-2.282,1.681s-1.803,0.595-2.781,0.595
				c-0.852,0-1.622-0.094-2.313-0.279c-0.689-0.186-1.392-0.475-2.106-0.866v6.87h-2.759v-22.443h2.759v1.717
				c0.734-0.616,1.559-1.132,2.474-1.548s1.891-0.624,2.929-0.624c1.977,0,3.516,0.746,4.616,2.238
				S1040.311,678.363,1040.311,681.014z M1037.463,681.088c0-1.977-0.338-3.455-1.013-4.434c-0.676-0.979-1.713-1.468-3.112-1.468
				c-0.792,0-1.59,0.172-2.393,0.514c-0.802,0.343-1.57,0.793-2.305,1.351v9.292c0.783,0.352,1.456,0.592,2.019,0.719
				s1.201,0.19,1.916,0.19c1.536,0,2.734-0.519,3.596-1.556S1037.463,683.124,1037.463,681.088z"/>
			<path stroke="#000000" stroke-width="0.5" stroke-miterlimit="10" d="M1057.352,689.411h-2.744v-1.747
				c-0.245,0.167-0.575,0.399-0.991,0.697c-0.416,0.299-0.819,0.536-1.211,0.712c-0.46,0.226-0.988,0.414-1.585,0.565
				c-0.598,0.151-1.297,0.228-2.1,0.228c-1.478,0-2.729-0.489-3.758-1.468c-1.027-0.979-1.541-2.227-1.541-3.743
				c0-1.242,0.267-2.248,0.8-3.017c0.533-0.768,1.294-1.372,2.283-1.813c0.998-0.44,2.196-0.738,3.596-0.896
				c1.399-0.156,2.901-0.273,4.507-0.353v-0.426c0-0.626-0.11-1.145-0.331-1.556c-0.22-0.411-0.535-0.733-0.946-0.969
				c-0.392-0.225-0.861-0.376-1.409-0.455c-0.548-0.078-1.121-0.117-1.718-0.117c-0.724,0-1.531,0.096-2.422,0.286
				c-0.891,0.191-1.811,0.468-2.759,0.829h-0.147v-2.804c0.538-0.146,1.316-0.308,2.334-0.484c1.018-0.176,2.021-0.264,3.009-0.264
				c1.155,0,2.16,0.096,3.017,0.286s1.598,0.517,2.224,0.977c0.617,0.45,1.087,1.032,1.409,1.746
				c0.323,0.715,0.484,1.601,0.484,2.657V689.411z M1054.607,685.375v-4.565c-0.842,0.049-1.833,0.122-2.973,0.22
				c-1.141,0.099-2.043,0.24-2.708,0.426c-0.793,0.226-1.434,0.575-1.923,1.05c-0.49,0.475-0.734,1.128-0.734,1.96
				c0,0.939,0.284,1.646,0.852,2.121s1.434,0.712,2.598,0.712c0.969,0,1.854-0.188,2.657-0.565
				C1053.178,686.355,1053.922,685.903,1054.607,685.375z"/>
			<path stroke="#000000" stroke-width="0.5" stroke-miterlimit="10" d="M1074.79,688.383c-0.92,0.44-1.793,0.783-2.62,1.027
				s-1.705,0.367-2.635,0.367c-1.185,0-2.271-0.174-3.259-0.521c-0.988-0.347-1.835-0.873-2.539-1.578
				c-0.715-0.704-1.268-1.595-1.659-2.671c-0.391-1.076-0.587-2.334-0.587-3.772c0-2.682,0.736-4.785,2.209-6.312
				s3.418-2.29,5.835-2.29c0.939,0,1.861,0.132,2.767,0.396c0.905,0.264,1.734,0.587,2.488,0.969v3.067h-0.146
				c-0.842-0.655-1.71-1.159-2.605-1.512s-1.769-0.528-2.62-0.528c-1.566,0-2.802,0.526-3.706,1.578
				c-0.905,1.052-1.358,2.596-1.358,4.631c0,1.977,0.442,3.496,1.328,4.558s2.131,1.593,3.736,1.593
				c0.558,0,1.125-0.073,1.702-0.221c0.577-0.146,1.096-0.337,1.557-0.572c0.4-0.205,0.777-0.423,1.13-0.653
				c0.353-0.229,0.631-0.428,0.837-0.594h0.146V688.383z"/>
			<path stroke="#000000" stroke-width="0.5" stroke-miterlimit="10" d="M1092.052,681.499h-12.08c0,1.009,0.151,1.887,0.455,2.635
				c0.304,0.749,0.72,1.363,1.248,1.843c0.509,0.47,1.112,0.822,1.813,1.057c0.699,0.235,1.47,0.353,2.312,0.353
				c1.116,0,2.238-0.223,3.369-0.668c1.13-0.445,1.935-0.883,2.414-1.313h0.147v3.009c-0.93,0.392-1.879,0.719-2.848,0.983
				s-1.987,0.396-3.054,0.396c-2.72,0-4.844-0.736-6.37-2.209s-2.29-3.564-2.29-6.275c0-2.681,0.731-4.81,2.194-6.385
				s3.389-2.363,5.776-2.363c2.211,0,3.917,0.646,5.115,1.938s1.798,3.126,1.798,5.504V681.499z M1089.366,679.385
				c-0.01-1.448-0.375-2.568-1.094-3.361c-0.72-0.793-1.813-1.188-3.28-1.188c-1.479,0-2.655,0.436-3.53,1.306
				c-0.876,0.871-1.373,1.952-1.49,3.244H1089.366z"/>
			<path stroke="#000000" stroke-width="0.5" stroke-miterlimit="10" d="M1121.247,689.411h-14.796v-3.067
				c1.027-0.881,2.058-1.762,3.09-2.643s1.993-1.756,2.884-2.627c1.879-1.82,3.166-3.267,3.86-4.338
				c0.695-1.071,1.043-2.229,1.043-3.472c0-1.135-0.375-2.022-1.123-2.664c-0.749-0.641-1.794-0.961-3.134-0.961
				c-0.891,0-1.854,0.156-2.892,0.47c-1.038,0.313-2.051,0.792-3.039,1.438h-0.146v-3.083c0.694-0.342,1.622-0.655,2.781-0.939
				c1.16-0.283,2.283-0.426,3.369-0.426c2.24,0,3.997,0.541,5.27,1.622c1.271,1.082,1.908,2.547,1.908,4.396
				c0,0.832-0.105,1.607-0.315,2.326c-0.211,0.72-0.521,1.402-0.933,2.048c-0.381,0.607-0.829,1.204-1.343,1.791
				s-1.138,1.238-1.871,1.952c-1.048,1.027-2.129,2.023-3.244,2.987c-1.116,0.964-2.158,1.856-3.127,2.679h11.758V689.411z"/>
		</g>
		<g>
			<path stroke="#000000" stroke-width="0.5" stroke-miterlimit="10" d="M1364.906,683.172c0,0.852-0.198,1.693-0.594,2.524
				c-0.396,0.832-0.952,1.537-1.666,2.114c-0.783,0.626-1.695,1.115-2.738,1.468c-1.042,0.352-2.297,0.528-3.765,0.528
				c-1.575,0-2.992-0.146-4.249-0.44c-1.258-0.294-2.537-0.729-3.839-1.307v-3.64h0.206c1.105,0.92,2.382,1.629,3.831,2.128
				c1.447,0.499,2.808,0.749,4.08,0.749c1.801,0,3.202-0.338,4.205-1.014c1.003-0.675,1.505-1.575,1.505-2.7
				c0-0.969-0.237-1.684-0.712-2.144s-1.196-0.816-2.165-1.071c-0.734-0.195-1.529-0.357-2.385-0.484
				c-0.856-0.127-1.765-0.288-2.724-0.484c-1.938-0.411-3.373-1.113-4.308-2.106s-1.402-2.287-1.402-3.882
				c0-1.83,0.773-3.33,2.319-4.499c1.546-1.17,3.509-1.754,5.887-1.754c1.536,0,2.945,0.146,4.227,0.439
				c1.282,0.294,2.417,0.656,3.405,1.087v3.435h-0.205c-0.832-0.705-1.926-1.289-3.28-1.754c-1.355-0.465-2.743-0.697-4.162-0.697
				c-1.556,0-2.806,0.322-3.75,0.969c-0.944,0.646-1.416,1.478-1.416,2.495c0,0.91,0.234,1.624,0.704,2.143
				c0.47,0.52,1.297,0.916,2.48,1.189c0.627,0.137,1.517,0.304,2.672,0.499c1.154,0.196,2.133,0.396,2.936,0.602
				c1.624,0.431,2.848,1.082,3.67,1.952C1364.495,680.388,1364.906,681.607,1364.906,683.172z"/>
			<path stroke="#000000" stroke-width="0.5" stroke-miterlimit="10" d="M1383.783,681.014c0,1.331-0.191,2.547-0.572,3.648
				c-0.382,1.101-0.92,2.032-1.615,2.796c-0.646,0.725-1.406,1.284-2.282,1.681s-1.803,0.595-2.781,0.595
				c-0.852,0-1.622-0.094-2.313-0.279c-0.689-0.186-1.392-0.475-2.106-0.866v6.87h-2.759v-22.443h2.759v1.717
				c0.734-0.616,1.559-1.132,2.474-1.548s1.891-0.624,2.929-0.624c1.977,0,3.516,0.746,4.616,2.238
				S1383.783,678.363,1383.783,681.014z M1380.936,681.088c0-1.977-0.338-3.455-1.013-4.434c-0.676-0.979-1.713-1.468-3.112-1.468
				c-0.792,0-1.59,0.172-2.393,0.514c-0.802,0.343-1.57,0.793-2.305,1.351v9.292c0.783,0.352,1.456,0.592,2.019,0.719
				s1.201,0.19,1.916,0.19c1.536,0,2.734-0.519,3.596-1.556S1380.936,683.124,1380.936,681.088z"/>
			<path stroke="#000000" stroke-width="0.5" stroke-miterlimit="10" d="M1400.824,689.411h-2.744v-1.747
				c-0.245,0.167-0.575,0.399-0.991,0.697c-0.416,0.299-0.819,0.536-1.211,0.712c-0.46,0.226-0.988,0.414-1.585,0.565
				c-0.598,0.151-1.297,0.228-2.1,0.228c-1.478,0-2.729-0.489-3.758-1.468c-1.027-0.979-1.541-2.227-1.541-3.743
				c0-1.242,0.267-2.248,0.8-3.017c0.533-0.768,1.294-1.372,2.283-1.813c0.998-0.44,2.196-0.738,3.596-0.896
				c1.399-0.156,2.901-0.273,4.507-0.353v-0.426c0-0.626-0.11-1.145-0.331-1.556c-0.22-0.411-0.535-0.733-0.946-0.969
				c-0.392-0.225-0.861-0.376-1.409-0.455c-0.548-0.078-1.121-0.117-1.718-0.117c-0.724,0-1.531,0.096-2.422,0.286
				c-0.891,0.191-1.811,0.468-2.759,0.829h-0.147v-2.804c0.538-0.146,1.316-0.308,2.334-0.484c1.018-0.176,2.021-0.264,3.009-0.264
				c1.155,0,2.16,0.096,3.017,0.286s1.598,0.517,2.224,0.977c0.617,0.45,1.087,1.032,1.409,1.746
				c0.323,0.715,0.484,1.601,0.484,2.657V689.411z M1398.08,685.375v-4.565c-0.842,0.049-1.833,0.122-2.973,0.22
				c-1.141,0.099-2.043,0.24-2.708,0.426c-0.793,0.226-1.434,0.575-1.923,1.05c-0.49,0.475-0.734,1.128-0.734,1.96
				c0,0.939,0.284,1.646,0.852,2.121s1.434,0.712,2.598,0.712c0.969,0,1.854-0.188,2.657-0.565
				C1396.65,686.355,1397.395,685.903,1398.08,685.375z"/>
			<path stroke="#000000" stroke-width="0.5" stroke-miterlimit="10" d="M1418.263,688.383c-0.92,0.44-1.793,0.783-2.62,1.027
				s-1.705,0.367-2.635,0.367c-1.185,0-2.271-0.174-3.259-0.521c-0.988-0.347-1.835-0.873-2.539-1.578
				c-0.715-0.704-1.268-1.595-1.659-2.671c-0.391-1.076-0.587-2.334-0.587-3.772c0-2.682,0.736-4.785,2.209-6.312
				s3.418-2.29,5.835-2.29c0.939,0,1.861,0.132,2.767,0.396c0.905,0.264,1.734,0.587,2.488,0.969v3.067h-0.146
				c-0.842-0.655-1.71-1.159-2.605-1.512s-1.769-0.528-2.62-0.528c-1.566,0-2.802,0.526-3.706,1.578
				c-0.905,1.052-1.358,2.596-1.358,4.631c0,1.977,0.442,3.496,1.328,4.558s2.131,1.593,3.736,1.593
				c0.558,0,1.125-0.073,1.702-0.221c0.577-0.146,1.096-0.337,1.557-0.572c0.4-0.205,0.777-0.423,1.13-0.653
				c0.353-0.229,0.631-0.428,0.837-0.594h0.146V688.383z"/>
			<path stroke="#000000" stroke-width="0.5" stroke-miterlimit="10" d="M1435.524,681.499h-12.08c0,1.009,0.151,1.887,0.455,2.635
				c0.304,0.749,0.72,1.363,1.248,1.843c0.509,0.47,1.112,0.822,1.813,1.057c0.699,0.235,1.47,0.353,2.312,0.353
				c1.116,0,2.238-0.223,3.369-0.668c1.13-0.445,1.935-0.883,2.414-1.313h0.147v3.009c-0.93,0.392-1.879,0.719-2.848,0.983
				s-1.987,0.396-3.054,0.396c-2.72,0-4.844-0.736-6.37-2.209s-2.29-3.564-2.29-6.275c0-2.681,0.731-4.81,2.194-6.385
				s3.389-2.363,5.776-2.363c2.211,0,3.917,0.646,5.115,1.938s1.798,3.126,1.798,5.504V681.499z M1432.839,679.385
				c-0.01-1.448-0.375-2.568-1.094-3.361c-0.72-0.793-1.813-1.188-3.28-1.188c-1.479,0-2.655,0.436-3.53,1.306
				c-0.876,0.871-1.373,1.952-1.49,3.244H1432.839z"/>
			<path stroke="#000000" stroke-width="0.5" stroke-miterlimit="10" d="M1462.797,678.886c0.47,0.421,0.856,0.949,1.159,1.585
				c0.304,0.637,0.455,1.459,0.455,2.466c0,0.999-0.181,1.914-0.543,2.745c-0.362,0.832-0.871,1.556-1.526,2.173
				c-0.734,0.685-1.598,1.191-2.591,1.519c-0.993,0.328-2.082,0.492-3.266,0.492c-1.214,0-2.407-0.145-3.582-0.433
				c-1.174-0.289-2.138-0.604-2.892-0.947v-3.067h0.221c0.831,0.548,1.81,1.003,2.936,1.365c1.125,0.361,2.211,0.543,3.259,0.543
				c0.616,0,1.271-0.104,1.967-0.309c0.694-0.205,1.257-0.509,1.688-0.91c0.45-0.431,0.785-0.905,1.006-1.424
				c0.22-0.519,0.33-1.174,0.33-1.967c0-0.783-0.125-1.431-0.374-1.945c-0.25-0.514-0.595-0.917-1.035-1.211
				c-0.44-0.303-0.974-0.511-1.6-0.623c-0.627-0.112-1.302-0.169-2.026-0.169h-1.32v-2.437h1.027c1.487,0,2.674-0.311,3.56-0.933
				c0.886-0.621,1.328-1.528,1.328-2.723c0-0.528-0.112-0.991-0.338-1.387c-0.225-0.396-0.538-0.722-0.939-0.977
				c-0.421-0.254-0.871-0.431-1.35-0.528c-0.48-0.098-1.023-0.146-1.63-0.146c-0.93,0-1.918,0.166-2.965,0.499
				s-2.035,0.802-2.965,1.409h-0.147v-3.068c0.695-0.342,1.622-0.658,2.782-0.946c1.159-0.289,2.282-0.434,3.368-0.434
				c1.066,0,2.006,0.099,2.818,0.294c0.813,0.196,1.546,0.509,2.202,0.939c0.704,0.47,1.237,1.037,1.6,1.703
				c0.362,0.665,0.543,1.443,0.543,2.333c0,1.214-0.428,2.273-1.284,3.179s-1.866,1.475-3.031,1.71v0.205
				c0.47,0.078,1.008,0.242,1.615,0.492C1461.862,678.204,1462.376,678.514,1462.797,678.886z"/>
		</g>
	</g>
	<g>
		<path d="M632.639,489.595c0,1.742-0.293,3.261-0.879,4.559c-0.586,1.298-1.416,2.289-2.49,2.973s-2.328,1.025-3.76,1.025
			c-1.4,0-2.641-0.344-3.723-1.031c-1.083-0.688-1.923-1.668-2.521-2.942c-0.598-1.273-0.905-2.748-0.921-4.425v-1.282
			c0-1.709,0.297-3.218,0.891-4.529c0.594-1.31,1.434-2.313,2.521-3.009c1.086-0.696,2.33-1.044,3.729-1.044
			c1.424,0,2.679,0.344,3.766,1.031c1.086,0.688,1.923,1.685,2.509,2.991c0.586,1.306,0.879,2.826,0.879,4.559V489.595z
			 M630.308,488.448c0-2.107-0.423-3.725-1.27-4.852c-0.847-1.127-2.031-1.691-3.552-1.691c-1.481,0-2.647,0.563-3.498,1.691
			c-0.85,1.127-1.288,2.691-1.312,4.693v1.306c0,2.043,0.429,3.648,1.288,4.816c0.859,1.167,2.041,1.751,3.546,1.751
			c1.514,0,2.686-0.551,3.516-1.654c0.83-1.103,1.257-2.684,1.282-4.743V488.448z"/>
		<path d="M636.912,497.908v-11.462h-2.087V484.7h2.087v-1.355c0-1.416,0.378-2.51,1.135-3.284c0.757-0.773,1.827-1.16,3.21-1.16
			c0.521,0,1.038,0.069,1.55,0.206l-0.122,1.82c-0.383-0.073-0.79-0.11-1.221-0.11c-0.732,0-1.298,0.214-1.697,0.643
			c-0.399,0.429-0.598,1.043-0.598,1.843v1.396h2.82v1.746h-2.82v11.462H636.912z"/>
		<path d="M645.591,497.908v-11.462h-2.087V484.7h2.087v-1.355c0-1.416,0.378-2.51,1.135-3.284c0.757-0.773,1.827-1.16,3.21-1.16
			c0.521,0,1.038,0.069,1.55,0.206l-0.122,1.82c-0.383-0.073-0.79-0.11-1.221-0.11c-0.732,0-1.298,0.214-1.697,0.643
			c-0.399,0.429-0.598,1.043-0.598,1.843v1.396h2.82v1.746h-2.82v11.462H645.591z"/>
		<path d="M653.171,481.197c0-0.366,0.112-0.675,0.335-0.928c0.224-0.252,0.556-0.378,0.995-0.378s0.773,0.126,1.001,0.378
			c0.228,0.252,0.342,0.562,0.342,0.928s-0.114,0.671-0.342,0.916c-0.228,0.244-0.562,0.366-1.001,0.366s-0.771-0.122-0.995-0.366
			C653.283,481.868,653.171,481.563,653.171,481.197z M655.613,497.908h-2.258V484.7h2.258V497.908z"/>
		<path d="M664.524,496.309c0.806,0,1.509-0.244,2.112-0.732c0.602-0.488,0.936-1.099,1.001-1.831h2.136
			c-0.041,0.757-0.301,1.477-0.781,2.161c-0.48,0.684-1.121,1.229-1.923,1.636c-0.801,0.407-1.65,0.61-2.545,0.61
			c-1.799,0-3.229-0.6-4.291-1.801c-1.062-1.2-1.593-2.842-1.593-4.925v-0.378c0-1.286,0.236-2.429,0.708-3.43
			c0.472-1.001,1.149-1.778,2.032-2.332c0.883-0.553,1.927-0.83,3.131-0.83c1.481,0,2.712,0.444,3.692,1.331
			c0.98,0.887,1.503,2.039,1.569,3.455h-2.136c-0.065-0.854-0.389-1.557-0.971-2.105c-0.582-0.55-1.3-0.824-2.154-0.824
			c-1.147,0-2.037,0.413-2.667,1.239c-0.63,0.826-0.946,2.02-0.946,3.583v0.427c0,1.522,0.313,2.694,0.94,3.516
			C662.465,495.898,663.36,496.309,664.524,496.309z"/>
		<path d="M677.793,498.152c-1.791,0-3.247-0.588-4.37-1.764c-1.123-1.176-1.685-2.749-1.685-4.718v-0.415
			c0-1.31,0.25-2.48,0.75-3.509c0.5-1.03,1.201-1.835,2.1-2.417c0.899-0.582,1.874-0.873,2.924-0.873
			c1.717,0,3.052,0.566,4.004,1.697c0.952,1.131,1.428,2.751,1.428,4.858v0.94h-8.948c0.032,1.302,0.413,2.354,1.141,3.155
			c0.729,0.802,1.654,1.203,2.777,1.203c0.797,0,1.473-0.163,2.026-0.488c0.553-0.325,1.038-0.757,1.453-1.294l1.379,1.074
			C681.667,497.302,680.006,498.152,677.793,498.152z M677.512,486.312c-0.912,0-1.677,0.332-2.295,0.995
			c-0.619,0.663-1.001,1.593-1.147,2.789h6.616v-0.171c-0.065-1.147-0.375-2.037-0.928-2.667
			C679.205,486.627,678.456,486.312,677.512,486.312z"/>
		<path d="M694.81,481.502v3.198h2.466v1.746h-2.466v8.201c0,0.53,0.11,0.927,0.33,1.192s0.594,0.397,1.123,0.397
			c0.26,0,0.618-0.049,1.074-0.146v1.82c-0.594,0.162-1.172,0.243-1.733,0.243c-1.009,0-1.77-0.305-2.283-0.916
			s-0.769-1.477-0.769-2.6v-8.191h-2.405V484.7h2.405v-3.198H694.81z"/>
		<path d="M704.233,494.6l3.076-9.9h2.417l-5.31,15.247c-0.822,2.197-2.128,3.296-3.918,3.296l-0.427-0.037l-0.842-0.159v-1.831
			l0.61,0.049c0.765,0,1.361-0.155,1.788-0.464c0.427-0.31,0.779-0.875,1.056-1.697l0.5-1.343l-4.712-13.062h2.466L704.233,494.6z"
			/>
		<path d="M722.898,491.451c0,2.01-0.46,3.63-1.379,4.858c-0.92,1.229-2.165,1.843-3.735,1.843c-1.604,0-2.865-0.508-3.784-1.526
			v6.36h-2.258V484.7h2.063l0.11,1.465c0.919-1.139,2.197-1.709,3.833-1.709c1.587,0,2.842,0.598,3.766,1.794
			s1.386,2.861,1.386,4.993V491.451z M720.64,491.194c0-1.489-0.317-2.665-0.952-3.528c-0.635-0.862-1.506-1.294-2.612-1.294
			c-1.367,0-2.393,0.606-3.076,1.819v6.311c0.675,1.205,1.709,1.807,3.101,1.807c1.082,0,1.943-0.429,2.582-1.288
			C720.32,494.163,720.64,492.887,720.64,491.194z"/>
		<path d="M731.248,498.152c-1.791,0-3.247-0.588-4.37-1.764c-1.123-1.176-1.685-2.749-1.685-4.718v-0.415
			c0-1.31,0.25-2.48,0.75-3.509c0.5-1.03,1.201-1.835,2.1-2.417c0.899-0.582,1.874-0.873,2.924-0.873
			c1.717,0,3.052,0.566,4.004,1.697c0.952,1.131,1.428,2.751,1.428,4.858v0.94h-8.948c0.032,1.302,0.413,2.354,1.141,3.155
			c0.729,0.802,1.654,1.203,2.777,1.203c0.797,0,1.473-0.163,2.026-0.488c0.553-0.325,1.038-0.757,1.453-1.294l1.379,1.074
			C735.121,497.302,733.461,498.152,731.248,498.152z M730.967,486.312c-0.912,0-1.677,0.332-2.295,0.995
			c-0.619,0.663-1.001,1.593-1.147,2.789h6.616v-0.171c-0.065-1.147-0.375-2.037-0.928-2.667
			C732.659,486.627,731.911,486.312,730.967,486.312z"/>
		<path d="M752.39,497.908h-2.271v-15.051l-4.553,1.672v-2.051l6.47-2.429h0.354V497.908z"/>
	</g>
	<g>
		<path d="M599.909,572.397c0-1.293,0.254-2.457,0.763-3.49c0.509-1.033,1.217-1.832,2.124-2.393
			c0.908-0.563,1.943-0.842,3.107-0.842c1.798,0,3.253,0.621,4.364,1.867c1.111,1.244,1.667,2.9,1.667,4.969v0.158
			c0,1.285-0.247,2.439-0.739,3.461s-1.196,1.816-2.112,2.387c-0.916,0.568-1.967,0.854-3.155,0.854
			c-1.791,0-3.241-0.623-4.352-1.867c-1.111-1.246-1.666-2.893-1.666-4.943V572.397z M602.179,572.667
			c0,1.465,0.34,2.641,1.019,3.527c0.68,0.887,1.589,1.33,2.729,1.33c1.147,0,2.059-0.449,2.734-1.348
			c0.675-0.898,1.013-2.158,1.013-3.779c0-1.447-0.344-2.621-1.032-3.521c-0.688-0.898-1.601-1.348-2.74-1.348
			c-1.115,0-2.014,0.443-2.698,1.33S602.179,571.014,602.179,572.667z"/>
		<path d="M616.901,565.917l0.073,1.66c1.009-1.27,2.327-1.904,3.955-1.904c2.791,0,4.199,1.574,4.224,4.723v8.729h-2.258v-8.74
			c-0.008-0.951-0.226-1.656-0.653-2.111s-1.092-0.684-1.996-0.684c-0.732,0-1.375,0.195-1.929,0.586
			c-0.554,0.391-0.985,0.902-1.294,1.537v9.412h-2.258v-13.207H616.901z"/>
		<path d="M634.04,579.368c-1.791,0-3.247-0.588-4.37-1.764s-1.685-2.748-1.685-4.719v-0.414c0-1.311,0.25-2.48,0.75-3.51
			s1.201-1.834,2.1-2.416c0.899-0.582,1.874-0.873,2.924-0.873c1.717,0,3.052,0.564,4.004,1.695
			c0.952,1.133,1.428,2.752,1.428,4.859v0.939h-8.948c0.032,1.303,0.413,2.355,1.141,3.156c0.729,0.801,1.654,1.201,2.777,1.201
			c0.797,0,1.473-0.162,2.026-0.488c0.553-0.324,1.038-0.756,1.453-1.293l1.379,1.074
			C637.913,578.518,636.253,579.368,634.04,579.368z M633.759,567.528c-0.912,0-1.677,0.332-2.295,0.994
			c-0.619,0.664-1.001,1.594-1.147,2.789h6.616v-0.17c-0.065-1.148-0.375-2.037-0.928-2.668
			C635.451,567.842,634.703,567.528,633.759,567.528z"/>
		<path d="M659.149,572.667c0,2.01-0.46,3.629-1.379,4.857c-0.92,1.23-2.165,1.844-3.735,1.844c-1.604,0-2.865-0.508-3.784-1.525
			v6.359h-2.258v-18.285h2.063l0.11,1.465c0.919-1.141,2.197-1.709,3.833-1.709c1.587,0,2.842,0.598,3.766,1.793
			c0.924,1.197,1.386,2.861,1.386,4.994V572.667z M656.891,572.411c0-1.49-0.317-2.666-0.952-3.529
			c-0.635-0.861-1.506-1.293-2.612-1.293c-1.367,0-2.393,0.605-3.076,1.818v6.311c0.675,1.205,1.709,1.807,3.101,1.807
			c1.082,0,1.943-0.428,2.582-1.287C656.571,575.379,656.891,574.102,656.891,572.411z"/>
		<path d="M667.499,579.368c-1.791,0-3.247-0.588-4.37-1.764s-1.685-2.748-1.685-4.719v-0.414c0-1.311,0.25-2.48,0.75-3.51
			s1.201-1.834,2.1-2.416c0.899-0.582,1.874-0.873,2.924-0.873c1.717,0,3.052,0.564,4.004,1.695
			c0.952,1.133,1.428,2.752,1.428,4.859v0.939h-8.948c0.032,1.303,0.413,2.355,1.141,3.156c0.729,0.801,1.654,1.201,2.777,1.201
			c0.797,0,1.473-0.162,2.026-0.488c0.553-0.324,1.038-0.756,1.453-1.293l1.379,1.074
			C671.373,578.518,669.712,579.368,667.499,579.368z M667.218,567.528c-0.912,0-1.677,0.332-2.295,0.994
			c-0.619,0.664-1.001,1.594-1.147,2.789h6.616v-0.17c-0.065-1.148-0.375-2.037-0.928-2.668
			C668.911,567.842,668.162,567.528,667.218,567.528z"/>
		<path d="M681.647,567.942c-0.342-0.057-0.712-0.086-1.111-0.086c-1.481,0-2.486,0.631-3.015,1.893v9.375h-2.258v-13.207h2.197
			l0.037,1.525c0.74-1.18,1.79-1.77,3.149-1.77c0.439,0,0.773,0.057,1.001,0.17V567.942z"/>
		<path d="M691.413,575.62c0-0.609-0.23-1.084-0.69-1.422c-0.459-0.336-1.261-0.629-2.405-0.873
			c-1.143-0.244-2.051-0.537-2.722-0.879s-1.167-0.748-1.489-1.221c-0.321-0.471-0.482-1.033-0.482-1.684
			c0-1.082,0.458-1.998,1.373-2.746c0.916-0.75,2.085-1.123,3.51-1.123c1.497,0,2.712,0.387,3.644,1.158
			c0.932,0.773,1.398,1.764,1.398,2.967h-2.271c0-0.617-0.263-1.15-0.788-1.6c-0.525-0.447-1.186-0.67-1.983-0.67
			c-0.822,0-1.465,0.178-1.929,0.537c-0.464,0.357-0.696,0.826-0.696,1.402c0,0.547,0.215,0.957,0.647,1.234
			c0.431,0.275,1.21,0.541,2.337,0.793c1.127,0.252,2.041,0.553,2.741,0.902c0.7,0.352,1.218,0.771,1.556,1.264
			c0.338,0.494,0.507,1.094,0.507,1.801c0,1.18-0.472,2.127-1.416,2.838c-0.944,0.713-2.169,1.068-3.674,1.068
			c-1.058,0-1.994-0.188-2.808-0.561c-0.814-0.375-1.451-0.898-1.911-1.568c-0.459-0.672-0.689-1.398-0.689-2.18h2.258
			c0.041,0.756,0.344,1.357,0.909,1.801c0.566,0.443,1.313,0.664,2.24,0.664c0.854,0,1.54-0.172,2.057-0.518
			C691.154,576.661,691.413,576.198,691.413,575.62z"/>
		<path d="M696.015,572.397c0-1.293,0.254-2.457,0.763-3.49c0.509-1.033,1.217-1.832,2.124-2.393
			c0.908-0.563,1.943-0.842,3.107-0.842c1.798,0,3.253,0.621,4.364,1.867c1.111,1.244,1.667,2.9,1.667,4.969v0.158
			c0,1.285-0.247,2.439-0.739,3.461s-1.196,1.816-2.112,2.387c-0.916,0.568-1.967,0.854-3.155,0.854
			c-1.791,0-3.241-0.623-4.352-1.867c-1.111-1.246-1.666-2.893-1.666-4.943V572.397z M698.285,572.667
			c0,1.465,0.34,2.641,1.019,3.527c0.68,0.887,1.589,1.33,2.729,1.33c1.147,0,2.059-0.449,2.734-1.348
			c0.675-0.898,1.013-2.158,1.013-3.779c0-1.447-0.344-2.621-1.032-3.521c-0.688-0.898-1.601-1.348-2.74-1.348
			c-1.115,0-2.014,0.443-2.698,1.33S698.285,571.014,698.285,572.667z"/>
		<path d="M713.007,565.917l0.073,1.66c1.009-1.27,2.327-1.904,3.955-1.904c2.791,0,4.199,1.574,4.224,4.723v8.729H719v-8.74
			c-0.008-0.951-0.226-1.656-0.653-2.111s-1.092-0.684-1.996-0.684c-0.732,0-1.375,0.195-1.929,0.586
			c-0.554,0.391-0.985,0.902-1.294,1.537v9.412h-2.258v-13.207H713.007z"/>
	</g>
	<g>
		<path d="M966.258,544.708v3.197h2.466v1.746h-2.466v8.201c0,0.529,0.11,0.928,0.33,1.191c0.22,0.266,0.594,0.398,1.123,0.398
			c0.261,0,0.618-0.049,1.074-0.146v1.82c-0.594,0.16-1.172,0.242-1.733,0.242c-1.009,0-1.771-0.305-2.283-0.916
			c-0.513-0.609-0.769-1.477-0.769-2.6v-8.191h-2.405v-1.746H964v-3.197H966.258z"/>
		<path d="M983.055,558l2.539-10.096h2.258l-3.845,13.209h-1.831l-3.211-10.01l-3.125,10.01h-1.831l-3.833-13.209h2.246l2.601,9.889
			l3.076-9.889h1.818L983.055,558z"/>
		<path d="M989.548,554.387c0-1.293,0.255-2.457,0.764-3.49c0.508-1.035,1.216-1.832,2.124-2.393
			c0.907-0.563,1.942-0.844,3.106-0.844c1.799,0,3.253,0.623,4.364,1.869c1.11,1.244,1.666,2.9,1.666,4.967v0.16
			c0,1.285-0.246,2.439-0.738,3.459c-0.493,1.021-1.196,1.818-2.112,2.387c-0.915,0.57-1.967,0.855-3.155,0.855
			c-1.79,0-3.241-0.623-4.352-1.867c-1.111-1.246-1.667-2.895-1.667-4.945V554.387z M991.818,554.657c0,1.465,0.34,2.641,1.02,3.527
			s1.589,1.33,2.729,1.33c1.147,0,2.059-0.449,2.734-1.35c0.675-0.898,1.013-2.158,1.013-3.777c0-1.449-0.344-2.623-1.031-3.521
			s-1.601-1.35-2.74-1.35c-1.115,0-2.015,0.443-2.698,1.332C992.16,551.735,991.818,553.004,991.818,554.657z"/>
		<path d="M1021.75,554.657c0,2.01-0.46,3.629-1.38,4.857c-0.919,1.229-2.164,1.844-3.735,1.844c-1.603,0-2.864-0.51-3.784-1.525
			v6.359h-2.258v-18.287h2.063l0.11,1.465c0.92-1.139,2.197-1.709,3.833-1.709c1.587,0,2.842,0.6,3.766,1.795
			c0.924,1.197,1.386,2.861,1.386,4.992V554.657z M1019.491,554.399c0-1.488-0.317-2.664-0.952-3.527s-1.505-1.293-2.612-1.293
			c-1.367,0-2.393,0.605-3.076,1.818v6.311c0.676,1.205,1.709,1.807,3.101,1.807c1.083,0,1.943-0.43,2.582-1.287
			C1019.172,557.368,1019.491,556.092,1019.491,554.399z"/>
		<path d="M1030.099,561.358c-1.79,0-3.247-0.588-4.37-1.764s-1.685-2.75-1.685-4.719v-0.414c0-1.311,0.251-2.48,0.751-3.51
			c0.501-1.029,1.2-1.836,2.1-2.418s1.874-0.873,2.924-0.873c1.717,0,3.052,0.566,4.004,1.697s1.428,2.75,1.428,4.859v0.939h-8.947
			c0.032,1.301,0.413,2.354,1.142,3.154c0.728,0.803,1.653,1.203,2.776,1.203c0.798,0,1.474-0.162,2.026-0.488
			c0.554-0.326,1.038-0.756,1.453-1.293l1.379,1.074C1033.973,560.506,1032.313,561.358,1030.099,561.358z M1029.818,549.516
			c-0.911,0-1.677,0.332-2.295,0.996c-0.618,0.662-1.001,1.592-1.147,2.789h6.616v-0.172c-0.065-1.146-0.374-2.035-0.928-2.666
			S1030.763,549.516,1029.818,549.516z"/>
		<path d="M1044.246,549.932c-0.342-0.057-0.712-0.086-1.11-0.086c-1.481,0-2.486,0.631-3.016,1.893v9.375h-2.258v-13.209h2.197
			l0.036,1.527c0.741-1.182,1.791-1.771,3.149-1.771c0.439,0,0.773,0.057,1.001,0.172V549.932z"/>
		<path d="M1054.012,557.61c0-0.609-0.23-1.084-0.689-1.422c-0.46-0.338-1.262-0.629-2.405-0.873s-2.051-0.537-2.722-0.879
			c-0.672-0.342-1.168-0.748-1.489-1.221c-0.322-0.473-0.482-1.033-0.482-1.684c0-1.084,0.458-1.998,1.373-2.748
			c0.916-0.748,2.086-1.123,3.51-1.123c1.497,0,2.712,0.387,3.644,1.16s1.397,1.762,1.397,2.967h-2.271
			c0-0.619-0.262-1.152-0.787-1.6c-0.524-0.447-1.186-0.672-1.983-0.672c-0.822,0-1.465,0.18-1.929,0.537
			c-0.464,0.359-0.696,0.826-0.696,1.404c0,0.545,0.216,0.957,0.647,1.232c0.432,0.277,1.21,0.541,2.338,0.795
			c1.127,0.252,2.04,0.553,2.74,0.902c0.699,0.35,1.219,0.771,1.557,1.264c0.337,0.492,0.506,1.092,0.506,1.801
			c0,1.18-0.472,2.125-1.416,2.838c-0.943,0.713-2.168,1.068-3.674,1.068c-1.058,0-1.994-0.188-2.808-0.563
			c-0.813-0.373-1.451-0.896-1.91-1.568c-0.46-0.672-0.69-1.396-0.69-2.178h2.259c0.041,0.756,0.344,1.355,0.909,1.799
			c0.565,0.445,1.313,0.666,2.24,0.666c0.854,0,1.54-0.172,2.057-0.52C1053.753,558.649,1054.012,558.188,1054.012,557.61z"/>
		<path d="M1058.613,554.387c0-1.293,0.255-2.457,0.764-3.49c0.508-1.035,1.216-1.832,2.124-2.393
			c0.907-0.563,1.942-0.844,3.106-0.844c1.799,0,3.253,0.623,4.364,1.869c1.11,1.244,1.666,2.9,1.666,4.967v0.16
			c0,1.285-0.246,2.439-0.738,3.459c-0.493,1.021-1.196,1.818-2.112,2.387c-0.915,0.57-1.967,0.855-3.155,0.855
			c-1.79,0-3.241-0.623-4.352-1.867c-1.111-1.246-1.667-2.895-1.667-4.945V554.387z M1060.884,554.657
			c0,1.465,0.34,2.641,1.02,3.527s1.589,1.33,2.729,1.33c1.147,0,2.059-0.449,2.734-1.35c0.675-0.898,1.013-2.158,1.013-3.777
			c0-1.449-0.344-2.623-1.031-3.521s-1.601-1.35-2.74-1.35c-1.115,0-2.015,0.443-2.698,1.332
			C1061.226,551.735,1060.884,553.004,1060.884,554.657z"/>
		<path d="M1075.605,547.905l0.073,1.66c1.01-1.27,2.328-1.904,3.955-1.904c2.792,0,4.199,1.576,4.224,4.725v8.729h-2.258v-8.74
			c-0.008-0.953-0.226-1.656-0.653-2.111c-0.427-0.457-1.093-0.684-1.996-0.684c-0.732,0-1.375,0.195-1.929,0.586
			c-0.553,0.391-0.984,0.902-1.294,1.537v9.412h-2.258v-13.209H1075.605z"/>
		<path d="M1094.954,557.61c0-0.609-0.23-1.084-0.689-1.422c-0.46-0.338-1.262-0.629-2.405-0.873s-2.051-0.537-2.722-0.879
			c-0.672-0.342-1.168-0.748-1.489-1.221c-0.322-0.473-0.482-1.033-0.482-1.684c0-1.084,0.458-1.998,1.373-2.748
			c0.916-0.748,2.086-1.123,3.51-1.123c1.497,0,2.712,0.387,3.644,1.16s1.397,1.762,1.397,2.967h-2.271
			c0-0.619-0.262-1.152-0.787-1.6c-0.524-0.447-1.186-0.672-1.983-0.672c-0.822,0-1.465,0.18-1.929,0.537
			c-0.464,0.359-0.696,0.826-0.696,1.404c0,0.545,0.216,0.957,0.647,1.232c0.432,0.277,1.21,0.541,2.338,0.795
			c1.127,0.252,2.04,0.553,2.74,0.902c0.699,0.35,1.219,0.771,1.557,1.264c0.337,0.492,0.506,1.092,0.506,1.801
			c0,1.18-0.472,2.125-1.416,2.838c-0.943,0.713-2.168,1.068-3.674,1.068c-1.058,0-1.994-0.188-2.808-0.563
			c-0.813-0.373-1.451-0.896-1.91-1.568c-0.46-0.672-0.69-1.396-0.69-2.178h2.259c0.041,0.756,0.344,1.355,0.909,1.799
			c0.565,0.445,1.313,0.666,2.24,0.666c0.854,0,1.54-0.172,2.057-0.52C1094.695,558.649,1094.954,558.188,1094.954,557.61z"/>
	</g>
	<g>
		<path d="M977.22,489.595c0,1.742-0.293,3.261-0.879,4.559c-0.586,1.298-1.416,2.289-2.49,2.973s-2.327,1.025-3.76,1.025
			c-1.399,0-2.641-0.344-3.723-1.031c-1.082-0.688-1.923-1.668-2.521-2.942c-0.599-1.273-0.905-2.748-0.922-4.425v-1.282
			c0-1.709,0.297-3.218,0.891-4.529c0.595-1.31,1.435-2.313,2.521-3.009c1.086-0.696,2.329-1.044,3.729-1.044
			c1.425,0,2.68,0.344,3.767,1.031c1.086,0.688,1.922,1.685,2.508,2.991c0.586,1.306,0.879,2.826,0.879,4.559V489.595z
			 M974.889,488.448c0-2.107-0.424-3.725-1.27-4.852c-0.847-1.127-2.03-1.691-3.553-1.691c-1.48,0-2.646,0.563-3.497,1.691
			c-0.851,1.127-1.288,2.691-1.313,4.693v1.306c0,2.043,0.43,3.648,1.288,4.816c0.858,1.167,2.041,1.751,3.546,1.751
			c1.514,0,2.686-0.551,3.516-1.654c0.83-1.103,1.258-2.684,1.282-4.743V488.448z"/>
		<path d="M981.492,497.908v-11.462h-2.087V484.7h2.087v-1.355c0-1.416,0.379-2.51,1.136-3.284c0.757-0.773,1.827-1.16,3.21-1.16
			c0.521,0,1.038,0.069,1.551,0.206l-0.122,1.82c-0.383-0.073-0.789-0.11-1.221-0.11c-0.732,0-1.298,0.214-1.697,0.643
			c-0.398,0.429-0.598,1.043-0.598,1.843v1.396h2.819v1.746h-2.819v11.462H981.492z"/>
		<path d="M990.171,497.908v-11.462h-2.087V484.7h2.087v-1.355c0-1.416,0.379-2.51,1.136-3.284c0.757-0.773,1.827-1.16,3.21-1.16
			c0.521,0,1.038,0.069,1.551,0.206l-0.122,1.82c-0.383-0.073-0.789-0.11-1.221-0.11c-0.732,0-1.298,0.214-1.697,0.643
			c-0.398,0.429-0.598,1.043-0.598,1.843v1.396h2.819v1.746h-2.819v11.462H990.171z"/>
		<path d="M997.751,481.197c0-0.366,0.112-0.675,0.336-0.928c0.224-0.252,0.556-0.378,0.995-0.378s0.773,0.126,1.001,0.378
			c0.228,0.252,0.342,0.562,0.342,0.928s-0.114,0.671-0.342,0.916s-0.562,0.366-1.001,0.366s-0.771-0.122-0.995-0.366
			S997.751,481.563,997.751,481.197z M1000.192,497.908h-2.258V484.7h2.258V497.908z"/>
		<path d="M1009.104,496.309c0.806,0,1.51-0.244,2.111-0.732c0.603-0.488,0.937-1.099,1.001-1.831h2.137
			c-0.041,0.757-0.302,1.477-0.781,2.161c-0.48,0.684-1.121,1.229-1.923,1.636s-1.649,0.61-2.545,0.61
			c-1.799,0-3.229-0.6-4.291-1.801c-1.062-1.2-1.593-2.842-1.593-4.925v-0.378c0-1.286,0.236-2.429,0.708-3.43
			s1.149-1.778,2.032-2.332c0.883-0.553,1.927-0.83,3.131-0.83c1.481,0,2.712,0.444,3.693,1.331c0.98,0.887,1.503,2.039,1.568,3.455
			h-2.137c-0.064-0.854-0.389-1.557-0.97-2.105c-0.582-0.55-1.301-0.824-2.155-0.824c-1.147,0-2.036,0.413-2.667,1.239
			c-0.631,0.826-0.946,2.02-0.946,3.583v0.427c0,1.522,0.313,2.694,0.94,3.516C1007.045,495.898,1007.939,496.309,1009.104,496.309z
			"/>
		<path d="M1022.372,498.152c-1.79,0-3.247-0.588-4.37-1.764c-1.123-1.176-1.685-2.749-1.685-4.718v-0.415
			c0-1.31,0.251-2.48,0.751-3.509c0.501-1.03,1.2-1.835,2.1-2.417c0.899-0.582,1.874-0.873,2.924-0.873
			c1.717,0,3.052,0.566,4.004,1.697c0.952,1.131,1.428,2.751,1.428,4.858v0.94h-8.947c0.032,1.302,0.413,2.354,1.142,3.155
			c0.728,0.802,1.653,1.203,2.776,1.203c0.798,0,1.474-0.163,2.026-0.488c0.554-0.325,1.038-0.757,1.453-1.294l1.379,1.074
			C1026.246,497.302,1024.586,498.152,1022.372,498.152z M1022.092,486.312c-0.911,0-1.677,0.332-2.295,0.995
			c-0.618,0.663-1.001,1.593-1.147,2.789h6.616v-0.171c-0.065-1.147-0.374-2.037-0.928-2.667
			C1023.784,486.627,1023.036,486.312,1022.092,486.312z"/>
		<path d="M1039.388,481.502v3.198h2.466v1.746h-2.466v8.201c0,0.53,0.11,0.927,0.33,1.192s0.594,0.397,1.123,0.397
			c0.261,0,0.618-0.049,1.074-0.146v1.82c-0.594,0.162-1.172,0.243-1.733,0.243c-1.009,0-1.771-0.305-2.283-0.916
			s-0.769-1.477-0.769-2.6v-8.191h-2.405V484.7h2.405v-3.198H1039.388z"/>
		<path d="M1048.812,494.6l3.076-9.9h2.417l-5.311,15.247c-0.821,2.197-2.128,3.296-3.918,3.296l-0.428-0.037l-0.842-0.159v-1.831
			l0.61,0.049c0.765,0,1.361-0.155,1.788-0.464c0.428-0.31,0.779-0.875,1.056-1.697l0.501-1.343l-4.712-13.062h2.466L1048.812,494.6
			z"/>
		<path d="M1067.476,491.451c0,2.01-0.46,3.63-1.38,4.858c-0.919,1.229-2.164,1.843-3.735,1.843c-1.603,0-2.864-0.508-3.784-1.526
			v6.36h-2.258V484.7h2.063l0.11,1.465c0.92-1.139,2.197-1.709,3.833-1.709c1.587,0,2.842,0.598,3.766,1.794
			s1.386,2.861,1.386,4.993V491.451z M1065.217,491.194c0-1.489-0.317-2.665-0.952-3.528c-0.635-0.862-1.505-1.294-2.612-1.294
			c-1.367,0-2.393,0.606-3.076,1.819v6.311c0.676,1.205,1.709,1.807,3.101,1.807c1.083,0,1.943-0.429,2.582-1.288
			C1064.897,494.163,1065.217,492.887,1065.217,491.194z"/>
		<path d="M1075.824,498.152c-1.79,0-3.247-0.588-4.37-1.764c-1.123-1.176-1.685-2.749-1.685-4.718v-0.415
			c0-1.31,0.251-2.48,0.751-3.509c0.501-1.03,1.2-1.835,2.1-2.417c0.899-0.582,1.874-0.873,2.924-0.873
			c1.717,0,3.052,0.566,4.004,1.697c0.952,1.131,1.428,2.751,1.428,4.858v0.94h-8.947c0.032,1.302,0.413,2.354,1.142,3.155
			c0.728,0.802,1.653,1.203,2.776,1.203c0.798,0,1.474-0.163,2.026-0.488c0.554-0.325,1.038-0.757,1.453-1.294l1.379,1.074
			C1079.698,497.302,1078.038,498.152,1075.824,498.152z M1075.544,486.312c-0.911,0-1.677,0.332-2.295,0.995
			c-0.618,0.663-1.001,1.593-1.147,2.789h6.616v-0.171c-0.065-1.147-0.374-2.037-0.928-2.667
			C1077.236,486.627,1076.488,486.312,1075.544,486.312z"/>
		<path d="M1101.189,497.908h-11.646v-1.624l6.152-6.836c0.912-1.033,1.54-1.874,1.887-2.521c0.346-0.646,0.519-1.316,0.519-2.008
			c0-0.928-0.281-1.688-0.843-2.283c-0.562-0.594-1.31-0.891-2.246-0.891c-1.123,0-1.995,0.319-2.618,0.958
			c-0.622,0.639-0.934,1.528-0.934,2.667h-2.259c0-1.636,0.527-2.958,1.581-3.967c1.054-1.009,2.464-1.514,4.229-1.514
			c1.652,0,2.959,0.434,3.919,1.3c0.96,0.867,1.44,2.021,1.44,3.461c0,1.75-1.115,3.833-3.345,6.25l-4.761,5.164h8.923V497.908z"/>
	</g>
	<g>
		<path d="M1345.348,492.269c-0.22,1.88-0.914,3.331-2.081,4.352c-1.168,1.021-2.721,1.532-4.657,1.532
			c-2.1,0-3.782-0.752-5.048-2.258c-1.266-1.505-1.898-3.52-1.898-6.042v-1.709c0-1.652,0.295-3.104,0.886-4.358
			c0.59-1.253,1.426-2.215,2.508-2.887c1.083-0.671,2.336-1.007,3.76-1.007c1.889,0,3.402,0.527,4.541,1.581
			c1.14,1.054,1.803,2.513,1.99,4.376h-2.356c-0.203-1.42-0.645-2.449-1.324-3.085s-1.63-0.955-2.851-0.955
			c-1.497,0-2.671,0.554-3.521,1.662s-1.275,2.684-1.275,4.728v1.723c0,1.931,0.402,3.466,1.208,4.606s1.934,1.71,3.382,1.71
			c1.302,0,2.301-0.295,2.997-0.885c0.695-0.59,1.157-1.617,1.385-3.082H1345.348z"/>
		<path d="M1347.593,491.182c0-1.294,0.255-2.458,0.764-3.491c0.508-1.033,1.216-1.831,2.124-2.393
			c0.907-0.562,1.942-0.842,3.106-0.842c1.799,0,3.253,0.623,4.364,1.868c1.11,1.245,1.666,2.901,1.666,4.968v0.159
			c0,1.286-0.246,2.439-0.738,3.46c-0.493,1.021-1.196,1.817-2.112,2.387c-0.915,0.57-1.967,0.854-3.155,0.854
			c-1.79,0-3.241-0.623-4.352-1.868c-1.111-1.245-1.667-2.893-1.667-4.944V491.182z M1349.863,491.451
			c0,1.465,0.34,2.641,1.02,3.528c0.68,0.887,1.589,1.331,2.729,1.331c1.147,0,2.059-0.45,2.734-1.349
			c0.675-0.899,1.013-2.158,1.013-3.778c0-1.448-0.344-2.623-1.031-3.522c-0.688-0.899-1.601-1.349-2.74-1.349
			c-1.115,0-2.015,0.444-2.698,1.331C1350.205,488.529,1349.863,489.799,1349.863,491.451z"/>
		<path d="M1373.606,491.451c0,2.01-0.46,3.63-1.38,4.858c-0.919,1.229-2.164,1.843-3.735,1.843c-1.603,0-2.864-0.508-3.784-1.526
			v6.36h-2.258V484.7h2.063l0.11,1.465c0.92-1.139,2.197-1.709,3.833-1.709c1.587,0,2.842,0.598,3.766,1.794
			s1.386,2.861,1.386,4.993V491.451z M1371.348,491.194c0-1.489-0.317-2.665-0.952-3.528c-0.635-0.862-1.505-1.294-2.612-1.294
			c-1.367,0-2.393,0.606-3.076,1.819v6.311c0.676,1.205,1.709,1.807,3.101,1.807c1.083,0,1.943-0.429,2.582-1.288
			C1371.028,494.163,1371.348,492.887,1371.348,491.194z"/>
		<path d="M1380.662,494.6l3.076-9.9h2.417l-5.311,15.247c-0.821,2.197-2.128,3.296-3.918,3.296l-0.428-0.037l-0.842-0.159v-1.831
			l0.61,0.049c0.765,0,1.361-0.155,1.788-0.464c0.428-0.31,0.779-0.875,1.056-1.697l0.501-1.343L1374.9,484.7h2.466L1380.662,494.6z
			"/>
		<path d="M1400.741,486.727c-0.342-0.057-0.712-0.085-1.11-0.085c-1.481,0-2.486,0.631-3.016,1.892v9.375h-2.258V484.7h2.197
			l0.036,1.526c0.741-1.18,1.791-1.77,3.149-1.77c0.439,0,0.773,0.057,1.001,0.171V486.727z"/>
		<path d="M1401.974,491.182c0-1.294,0.255-2.458,0.764-3.491c0.508-1.033,1.216-1.831,2.124-2.393
			c0.907-0.562,1.942-0.842,3.106-0.842c1.799,0,3.253,0.623,4.364,1.868c1.11,1.245,1.666,2.901,1.666,4.968v0.159
			c0,1.286-0.246,2.439-0.738,3.46c-0.493,1.021-1.196,1.817-2.112,2.387c-0.915,0.57-1.967,0.854-3.155,0.854
			c-1.79,0-3.241-0.623-4.352-1.868c-1.111-1.245-1.667-2.893-1.667-4.944V491.182z M1404.244,491.451
			c0,1.465,0.34,2.641,1.02,3.528c0.68,0.887,1.589,1.331,2.729,1.331c1.147,0,2.059-0.45,2.734-1.349
			c0.675-0.899,1.013-2.158,1.013-3.778c0-1.448-0.344-2.623-1.031-3.522c-0.688-0.899-1.601-1.349-2.74-1.349
			c-1.115,0-2.015,0.444-2.698,1.331C1404.586,488.529,1404.244,489.799,1404.244,491.451z"/>
		<path d="M1416.231,491.182c0-1.294,0.255-2.458,0.764-3.491c0.508-1.033,1.216-1.831,2.124-2.393
			c0.907-0.562,1.942-0.842,3.106-0.842c1.799,0,3.253,0.623,4.364,1.868c1.11,1.245,1.666,2.901,1.666,4.968v0.159
			c0,1.286-0.246,2.439-0.738,3.46c-0.493,1.021-1.196,1.817-2.112,2.387c-0.915,0.57-1.967,0.854-3.155,0.854
			c-1.79,0-3.241-0.623-4.352-1.868c-1.111-1.245-1.667-2.893-1.667-4.944V491.182z M1418.502,491.451
			c0,1.465,0.34,2.641,1.02,3.528c0.68,0.887,1.589,1.331,2.729,1.331c1.147,0,2.059-0.45,2.734-1.349
			c0.675-0.899,1.013-2.158,1.013-3.778c0-1.448-0.344-2.623-1.031-3.522c-0.688-0.899-1.601-1.349-2.74-1.349
			c-1.115,0-2.015,0.444-2.698,1.331C1418.844,488.529,1418.502,489.799,1418.502,491.451z"/>
		<path d="M1433.212,484.7l0.061,1.465c0.969-1.139,2.275-1.709,3.919-1.709c1.848,0,3.104,0.708,3.771,2.124
			c0.439-0.635,1.012-1.147,1.716-1.538c0.703-0.391,1.535-0.586,2.496-0.586c2.896,0,4.37,1.534,4.419,4.602v8.85h-2.259v-8.716
			c0-0.944-0.216-1.65-0.646-2.118c-0.432-0.468-1.156-0.702-2.173-0.702c-0.839,0-1.534,0.25-2.088,0.75
			c-0.553,0.501-0.875,1.174-0.964,2.021v8.765h-2.271v-8.655c0-1.92-0.94-2.881-2.82-2.881c-1.48,0-2.494,0.631-3.039,1.892v9.644
			h-2.259V484.7H1433.212z"/>
	</g>
</g>
</svg>
